<svg xmlns="http://www.w3.org/2000/svg"
xmlns:xlink="http://www.w3.org/1999/xlink"
version="1.1" baseProfile="full"
width="128" height="208">
<polygon points=" 28,176 52,176 52,200 28,200" fill="rgb(255,127,127)"/>
<polygon points=" 28,152 52,152 52,176 28,176" fill="rgb(255,127,223)"/>
<polygon points=" 28,128 52,128 52,152 28,152" fill="rgb(191,127,255)"/>
<polygon points=" 28,104 52,104 52,128 28,128" fill="rgb(127,159,255)"/>
<polygon points=" 28,80 52,80 52,104 28,104" fill="rgb(127,255,255)"/>
<polygon points=" 28,56 52,56 52,80 28,80" fill="rgb(127,255,159)"/>
<polygon points=" 28,32 52,32 52,56 28,56" fill="rgb(191,255,127)"/>
<polygon points=" 28,8 52,8 52,32 28,32" fill="rgb(255,223,127)"/>
<polygon points=" 76,176 100,176 100,200 76,200" fill="rgb(255,127,127)"/></svg>