<svg xmlns="http://www.w3.org/2000/svg"
xmlns:xlink="http://www.w3.org/1999/xlink"
version="1.1" baseProfile="full"
width="625" height="480">
<line x1="466.25" y1="20.0" x2="446.25" y2="60.0" stroke="rgb(255,0,0)" stroke-width="1.5"/>
<line x1="446.25" y1="60.0" x2="426.25" y2="100.0" stroke="rgb(255,0,0)" stroke-width="1.5"/>
<ellipse cx="426.25" cy="100.0" rx="7.0" ry="12.0" fill="rgb(170,255,170)"/>
<text x="421.25" y="105.0" font-family="courier" font-size="16" fill="rgb(0,0,0)">b</text>
<line x1="446.25" y1="60.0" x2="446.25" y2="100.0" stroke="rgb(255,0,0)" stroke-width="1.5"/>
<ellipse cx="446.25" cy="100.0" rx="7.0" ry="12.0" fill="rgb(170,255,170)"/>
<text x="441.25" y="105.0" font-family="courier" font-size="16" fill="rgb(0,0,0)">b</text>
<line x1="446.25" y1="60.0" x2="466.25" y2="100.0" stroke="rgb(255,0,0)" stroke-width="1.5"/>
<line x1="466.25" y1="100.0" x2="332.5" y2="140.0" stroke="rgb(255,0,0)" stroke-width="1.5"/>
<line x1="332.5" y1="140.0" x2="225.0" y2="180.0" stroke="rgb(255,0,0)" stroke-width="1.5"/>
<line x1="225.0" y1="180.0" x2="135.0" y2="220.0" stroke="rgb(255,0,0)" stroke-width="1.5"/>
<line x1="135.0" y1="220.0" x2="115.0" y2="260.0" stroke="rgb(255,0,0)" stroke-width="1.5"/>
<line x1="115.0" y1="260.0" x2="95.0" y2="300.0" stroke="rgb(255,0,0)" stroke-width="1.5"/>
<ellipse cx="95.0" cy="300.0" rx="7.0" ry="12.0" fill="rgb(170,255,170)"/>
<text x="90.0" y="305.0" font-family="courier" font-size="16" fill="rgb(0,0,0)">a</text>
<line x1="115.0" y1="260.0" x2="115.0" y2="300.0" stroke="rgb(255,0,0)" stroke-width="1.5"/>
<line x1="115.0" y1="300.0" x2="85.0" y2="340.0" stroke="rgb(255,0,0)" stroke-width="1.5"/>
<line x1="85.0" y1="340.0" x2="65.0" y2="380.0" stroke="rgb(255,0,0)" stroke-width="1.5"/>
<line x1="65.0" y1="380.0" x2="45.0" y2="420.0" stroke="rgb(255,0,0)" stroke-width="1.5"/>
<ellipse cx="45.0" cy="420.0" rx="7.0" ry="12.0" fill="rgb(170,255,170)"/>
<text x="40.0" y="425.0" font-family="courier" font-size="16" fill="rgb(0,0,0)">a</text>
<line x1="65.0" y1="380.0" x2="65.0" y2="420.0" stroke="rgb(255,0,0)" stroke-width="1.5"/>
<ellipse cx="65.0" cy="420.0" rx="7.0" ry="12.0" fill="rgb(170,255,170)"/>
<text x="60.0" y="425.0" font-family="courier" font-size="16" fill="rgb(0,0,0)">b</text>
<line x1="65.0" y1="380.0" x2="85.0" y2="420.0" stroke="rgb(255,0,0)" stroke-width="1.5"/>
<ellipse cx="85.0" cy="420.0" rx="7.0" ry="12.0" fill="rgb(170,255,170)"/>
<text x="80.0" y="425.0" font-family="courier" font-size="16" fill="rgb(0,0,0)">c</text>
<ellipse cx="65.0" cy="380.0" rx="7.0" ry="12.0" fill="rgb(170,255,170)"/>
<text x="60.0" y="385.0" font-family="courier" font-size="16" fill="rgb(0,0,0)">f</text>
<line x1="85.0" y1="340.0" x2="85.0" y2="380.0" stroke="rgb(255,0,0)" stroke-width="1.5"/>
<ellipse cx="85.0" cy="380.0" rx="7.0" ry="12.0" fill="rgb(170,255,170)"/>
<text x="80.0" y="385.0" font-family="courier" font-size="16" fill="rgb(0,0,0)">b</text>
<line x1="85.0" y1="340.0" x2="105.0" y2="380.0" stroke="rgb(255,0,0)" stroke-width="1.5"/>
<ellipse cx="105.0" cy="380.0" rx="7.0" ry="12.0" fill="rgb(170,255,170)"/>
<text x="100.0" y="385.0" font-family="courier" font-size="16" fill="rgb(0,0,0)">c</text>
<ellipse cx="85.0" cy="340.0" rx="7.0" ry="12.0" fill="rgb(170,255,170)"/>
<text x="80.0" y="345.0" font-family="courier" font-size="16" fill="rgb(0,0,0)">f</text>
<line x1="115.0" y1="300.0" x2="115.0" y2="340.0" stroke="rgb(255,0,0)" stroke-width="1.5"/>
<ellipse cx="115.0" cy="340.0" rx="7.0" ry="12.0" fill="rgb(170,255,170)"/>
<text x="110.0" y="345.0" font-family="courier" font-size="16" fill="rgb(0,0,0)">b</text>
<line x1="115.0" y1="300.0" x2="145.0" y2="340.0" stroke="rgb(255,0,0)" stroke-width="1.5"/>
<line x1="145.0" y1="340.0" x2="125.0" y2="380.0" stroke="rgb(255,0,0)" stroke-width="1.5"/>
<ellipse cx="125.0" cy="380.0" rx="7.0" ry="12.0" fill="rgb(170,255,170)"/>
<text x="120.0" y="385.0" font-family="courier" font-size="16" fill="rgb(0,0,0)">a</text>
<line x1="145.0" y1="340.0" x2="145.0" y2="380.0" stroke="rgb(255,0,0)" stroke-width="1.5"/>
<ellipse cx="145.0" cy="380.0" rx="7.0" ry="12.0" fill="rgb(170,255,170)"/>
<text x="140.0" y="385.0" font-family="courier" font-size="16" fill="rgb(0,0,0)">b</text>
<line x1="145.0" y1="340.0" x2="165.0" y2="380.0" stroke="rgb(255,0,0)" stroke-width="1.5"/>
<ellipse cx="165.0" cy="380.0" rx="7.0" ry="12.0" fill="rgb(170,255,170)"/>
<text x="160.0" y="385.0" font-family="courier" font-size="16" fill="rgb(0,0,0)">c</text>
<ellipse cx="145.0" cy="340.0" rx="7.0" ry="12.0" fill="rgb(170,255,170)"/>
<text x="140.0" y="345.0" font-family="courier" font-size="16" fill="rgb(0,0,0)">f</text>
<ellipse cx="115.0" cy="300.0" rx="7.0" ry="12.0" fill="rgb(170,255,170)"/>
<text x="110.0" y="305.0" font-family="courier" font-size="16" fill="rgb(0,0,0)">f</text>
<line x1="115.0" y1="260.0" x2="135.0" y2="300.0" stroke="rgb(255,0,0)" stroke-width="1.5"/>
<ellipse cx="135.0" cy="300.0" rx="7.0" ry="12.0" fill="rgb(170,255,170)"/>
<text x="130.0" y="305.0" font-family="courier" font-size="16" fill="rgb(0,0,0)">c</text>
<ellipse cx="115.0" cy="260.0" rx="7.0" ry="12.0" fill="rgb(170,255,170)"/>
<text x="110.0" y="265.0" font-family="courier" font-size="16" fill="rgb(0,0,0)">f</text>
<line x1="135.0" y1="220.0" x2="135.0" y2="260.0" stroke="rgb(255,0,0)" stroke-width="1.5"/>
<ellipse cx="135.0" cy="260.0" rx="7.0" ry="12.0" fill="rgb(170,255,170)"/>
<text x="130.0" y="265.0" font-family="courier" font-size="16" fill="rgb(0,0,0)">b</text>
<line x1="135.0" y1="220.0" x2="155.0" y2="260.0" stroke="rgb(255,0,0)" stroke-width="1.5"/>
<ellipse cx="155.0" cy="260.0" rx="7.0" ry="12.0" fill="rgb(170,255,170)"/>
<text x="150.0" y="265.0" font-family="courier" font-size="16" fill="rgb(0,0,0)">c</text>
<ellipse cx="135.0" cy="220.0" rx="7.0" ry="12.0" fill="rgb(170,255,170)"/>
<text x="130.0" y="225.0" font-family="courier" font-size="16" fill="rgb(0,0,0)">f</text>
<line x1="225.0" y1="180.0" x2="210.0" y2="220.0" stroke="rgb(255,0,0)" stroke-width="1.5"/>
<line x1="210.0" y1="220.0" x2="175.0" y2="260.0" stroke="rgb(255,0,0)" stroke-width="1.5"/>
<ellipse cx="175.0" cy="260.0" rx="7.0" ry="12.0" fill="rgb(170,255,170)"/>
<text x="170.0" y="265.0" font-family="courier" font-size="16" fill="rgb(0,0,0)">a</text>
<line x1="210.0" y1="220.0" x2="195.0" y2="260.0" stroke="rgb(255,0,0)" stroke-width="1.5"/>
<ellipse cx="195.0" cy="260.0" rx="7.0" ry="12.0" fill="rgb(170,255,170)"/>
<text x="190.0" y="265.0" font-family="courier" font-size="16" fill="rgb(0,0,0)">b</text>
<line x1="210.0" y1="220.0" x2="245.0" y2="260.0" stroke="rgb(255,0,0)" stroke-width="1.5"/>
<ellipse cx="245.0" cy="260.0" rx="37.0" ry="12.0" fill="rgb(170,255,170)"/>
<text x="210.0" y="265.0" font-family="courier" font-size="16" fill="rgb(0,0,0)">bbbbbbb</text>
<ellipse cx="210.0" cy="220.0" rx="7.0" ry="12.0" fill="rgb(170,255,170)"/>
<text x="205.0" y="225.0" font-family="courier" font-size="16" fill="rgb(0,0,0)">f</text>
<line x1="225.0" y1="180.0" x2="315.0" y2="220.0" stroke="rgb(255,0,0)" stroke-width="1.5"/>
<line x1="315.0" y1="220.0" x2="295.0" y2="260.0" stroke="rgb(255,0,0)" stroke-width="1.5"/>
<line x1="295.0" y1="260.0" x2="275.0" y2="300.0" stroke="rgb(255,0,0)" stroke-width="1.5"/>
<line x1="275.0" y1="300.0" x2="255.0" y2="340.0" stroke="rgb(255,0,0)" stroke-width="1.5"/>
<ellipse cx="255.0" cy="340.0" rx="7.0" ry="12.0" fill="rgb(170,255,170)"/>
<text x="250.0" y="345.0" font-family="courier" font-size="16" fill="rgb(0,0,0)">a</text>
<line x1="275.0" y1="300.0" x2="275.0" y2="340.0" stroke="rgb(255,0,0)" stroke-width="1.5"/>
<line x1="275.0" y1="340.0" x2="240.0" y2="380.0" stroke="rgb(255,0,0)" stroke-width="1.5"/>
<line x1="240.0" y1="380.0" x2="220.0" y2="420.0" stroke="rgb(255,0,0)" stroke-width="1.5"/>
<line x1="220.0" y1="420.0" x2="200.0" y2="460.0" stroke="rgb(255,0,0)" stroke-width="1.5"/>
<ellipse cx="200.0" cy="460.0" rx="7.0" ry="12.0" fill="rgb(255,170,170)"/>
<text x="195.0" y="465.0" font-family="courier" font-size="16" fill="rgb(0,0,0)">a</text>
<line x1="220.0" y1="420.0" x2="220.0" y2="460.0" stroke="rgb(255,0,0)" stroke-width="1.5"/>
<ellipse cx="220.0" cy="460.0" rx="7.0" ry="12.0" fill="rgb(255,255,170)"/>
<text x="215.0" y="465.0" font-family="courier" font-size="16" fill="rgb(0,0,0)">b</text>
<line x1="220.0" y1="420.0" x2="240.0" y2="460.0" stroke="rgb(255,0,0)" stroke-width="1.5"/>
<ellipse cx="240.0" cy="460.0" rx="7.0" ry="12.0" fill="rgb(255,255,170)"/>
<text x="235.0" y="465.0" font-family="courier" font-size="16" fill="rgb(0,0,0)">c</text>
<ellipse cx="220.0" cy="420.0" rx="7.0" ry="12.0" fill="rgb(255,255,170)"/>
<text x="215.0" y="425.0" font-family="courier" font-size="16" fill="rgb(0,0,0)">f</text>
<line x1="240.0" y1="380.0" x2="240.0" y2="420.0" stroke="rgb(255,0,0)" stroke-width="1.5"/>
<ellipse cx="240.0" cy="420.0" rx="7.0" ry="12.0" fill="rgb(255,255,170)"/>
<text x="235.0" y="425.0" font-family="courier" font-size="16" fill="rgb(0,0,0)">b</text>
<line x1="240.0" y1="380.0" x2="260.0" y2="420.0" stroke="rgb(255,0,0)" stroke-width="1.5"/>
<ellipse cx="260.0" cy="420.0" rx="7.0" ry="12.0" fill="rgb(255,255,170)"/>
<text x="255.0" y="425.0" font-family="courier" font-size="16" fill="rgb(0,0,0)">c</text>
<ellipse cx="240.0" cy="380.0" rx="7.0" ry="12.0" fill="rgb(255,255,170)"/>
<text x="235.0" y="385.0" font-family="courier" font-size="16" fill="rgb(0,0,0)">f</text>
<line x1="275.0" y1="340.0" x2="260.0" y2="380.0" stroke="rgb(255,0,0)" stroke-width="1.5"/>
<ellipse cx="260.0" cy="380.0" rx="7.0" ry="12.0" fill="rgb(255,255,170)"/>
<text x="255.0" y="385.0" font-family="courier" font-size="16" fill="rgb(0,0,0)">b</text>
<line x1="275.0" y1="340.0" x2="310.0" y2="380.0" stroke="rgb(255,0,0)" stroke-width="1.5"/>
<ellipse cx="310.0" cy="380.0" rx="37.0" ry="12.0" fill="rgb(255,255,170)"/>
<text x="275.0" y="385.0" font-family="courier" font-size="16" fill="rgb(0,0,0)">bbbbbbb</text>
<ellipse cx="275.0" cy="340.0" rx="7.0" ry="12.0" fill="rgb(255,255,170)"/>
<text x="270.0" y="345.0" font-family="courier" font-size="16" fill="rgb(0,0,0)">f</text>
<line x1="275.0" y1="300.0" x2="295.0" y2="340.0" stroke="rgb(255,0,0)" stroke-width="1.5"/>
<ellipse cx="295.0" cy="340.0" rx="7.0" ry="12.0" fill="rgb(255,255,170)"/>
<text x="290.0" y="345.0" font-family="courier" font-size="16" fill="rgb(0,0,0)">c</text>
<ellipse cx="275.0" cy="300.0" rx="7.0" ry="12.0" fill="rgb(255,255,170)"/>
<text x="270.0" y="305.0" font-family="courier" font-size="16" fill="rgb(0,0,0)">f</text>
<line x1="295.0" y1="260.0" x2="295.0" y2="300.0" stroke="rgb(255,0,0)" stroke-width="1.5"/>
<ellipse cx="295.0" cy="300.0" rx="7.0" ry="12.0" fill="rgb(255,255,170)"/>
<text x="290.0" y="305.0" font-family="courier" font-size="16" fill="rgb(0,0,0)">b</text>
<line x1="295.0" y1="260.0" x2="315.0" y2="300.0" stroke="rgb(255,0,0)" stroke-width="1.5"/>
<ellipse cx="315.0" cy="300.0" rx="7.0" ry="12.0" fill="rgb(255,255,170)"/>
<text x="310.0" y="305.0" font-family="courier" font-size="16" fill="rgb(0,0,0)">c</text>
<ellipse cx="295.0" cy="260.0" rx="7.0" ry="12.0" fill="rgb(255,255,170)"/>
<text x="290.0" y="265.0" font-family="courier" font-size="16" fill="rgb(0,0,0)">f</text>
<line x1="315.0" y1="220.0" x2="315.0" y2="260.0" stroke="rgb(255,0,0)" stroke-width="1.5"/>
<ellipse cx="315.0" cy="260.0" rx="7.0" ry="12.0" fill="rgb(255,255,170)"/>
<text x="310.0" y="265.0" font-family="courier" font-size="16" fill="rgb(0,0,0)">b</text>
<line x1="315.0" y1="220.0" x2="335.0" y2="260.0" stroke="rgb(255,0,0)" stroke-width="1.5"/>
<ellipse cx="335.0" cy="260.0" rx="7.0" ry="12.0" fill="rgb(255,255,170)"/>
<text x="330.0" y="265.0" font-family="courier" font-size="16" fill="rgb(0,0,0)">c</text>
<ellipse cx="315.0" cy="220.0" rx="7.0" ry="12.0" fill="rgb(255,255,170)"/>
<text x="310.0" y="225.0" font-family="courier" font-size="16" fill="rgb(0,0,0)">f</text>
<ellipse cx="225.0" cy="180.0" rx="7.0" ry="12.0" fill="rgb(255,255,170)"/>
<text x="220.0" y="185.0" font-family="courier" font-size="16" fill="rgb(0,0,0)">f</text>
<line x1="332.5" y1="140.0" x2="333.0" y2="180.0" stroke="rgb(255,0,0)" stroke-width="1.5"/>
<ellipse cx="333.0" cy="180.0" rx="7.0" ry="12.0" fill="rgb(255,255,170)"/>
<text x="328.0" y="185.0" font-family="courier" font-size="16" fill="rgb(0,0,0)">b</text>
<line x1="332.5" y1="140.0" x2="440.0" y2="180.0" stroke="rgb(255,0,0)" stroke-width="1.5"/>
<line x1="440.0" y1="180.0" x2="420.0" y2="220.0" stroke="rgb(255,0,0)" stroke-width="1.5"/>
<ellipse cx="420.0" cy="220.0" rx="7.0" ry="12.0" fill="rgb(255,255,170)"/>
<text x="415.0" y="225.0" font-family="courier" font-size="16" fill="rgb(0,0,0)">a</text>
<line x1="440.0" y1="180.0" x2="440.0" y2="220.0" stroke="rgb(255,0,0)" stroke-width="1.5"/>
<ellipse cx="440.0" cy="220.0" rx="7.0" ry="12.0" fill="rgb(255,255,170)"/>
<text x="435.0" y="225.0" font-family="courier" font-size="16" fill="rgb(0,0,0)">b</text>
<line x1="440.0" y1="180.0" x2="460.0" y2="220.0" stroke="rgb(255,0,0)" stroke-width="1.5"/>
<line x1="460.0" y1="220.0" x2="440.0" y2="260.0" stroke="rgb(255,0,0)" stroke-width="1.5"/>
<line x1="440.0" y1="260.0" x2="420.0" y2="300.0" stroke="rgb(255,0,0)" stroke-width="1.5"/>
<line x1="420.0" y1="300.0" x2="385.0" y2="340.0" stroke="rgb(255,0,0)" stroke-width="1.5"/>
<ellipse cx="385.0" cy="340.0" rx="37.0" ry="12.0" fill="rgb(255,255,170)"/>
<text x="350.0" y="345.0" font-family="courier" font-size="16" fill="rgb(0,0,0)">bbbbbbb</text>
<line x1="420.0" y1="300.0" x2="435.0" y2="340.0" stroke="rgb(255,0,0)" stroke-width="1.5"/>
<ellipse cx="435.0" cy="340.0" rx="7.0" ry="12.0" fill="rgb(255,255,170)"/>
<text x="430.0" y="345.0" font-family="courier" font-size="16" fill="rgb(0,0,0)">b</text>
<line x1="420.0" y1="300.0" x2="455.0" y2="340.0" stroke="rgb(255,0,0)" stroke-width="1.5"/>
<ellipse cx="455.0" cy="340.0" rx="7.0" ry="12.0" fill="rgb(255,255,170)"/>
<text x="450.0" y="345.0" font-family="courier" font-size="16" fill="rgb(0,0,0)">c</text>
<ellipse cx="420.0" cy="300.0" rx="7.0" ry="12.0" fill="rgb(255,255,170)"/>
<text x="415.0" y="305.0" font-family="courier" font-size="16" fill="rgb(0,0,0)">f</text>
<line x1="440.0" y1="260.0" x2="440.0" y2="300.0" stroke="rgb(255,0,0)" stroke-width="1.5"/>
<ellipse cx="440.0" cy="300.0" rx="7.0" ry="12.0" fill="rgb(255,255,170)"/>
<text x="435.0" y="305.0" font-family="courier" font-size="16" fill="rgb(0,0,0)">b</text>
<line x1="440.0" y1="260.0" x2="460.0" y2="300.0" stroke="rgb(255,0,0)" stroke-width="1.5"/>
<ellipse cx="460.0" cy="300.0" rx="7.0" ry="12.0" fill="rgb(255,255,170)"/>
<text x="455.0" y="305.0" font-family="courier" font-size="16" fill="rgb(0,0,0)">c</text>
<ellipse cx="440.0" cy="260.0" rx="7.0" ry="12.0" fill="rgb(255,255,170)"/>
<text x="435.0" y="265.0" font-family="courier" font-size="16" fill="rgb(0,0,0)">f</text>
<line x1="460.0" y1="220.0" x2="460.0" y2="260.0" stroke="rgb(255,0,0)" stroke-width="1.5"/>
<ellipse cx="460.0" cy="260.0" rx="7.0" ry="12.0" fill="rgb(255,255,170)"/>
<text x="455.0" y="265.0" font-family="courier" font-size="16" fill="rgb(0,0,0)">b</text>
<line x1="460.0" y1="220.0" x2="480.0" y2="260.0" stroke="rgb(255,0,0)" stroke-width="1.5"/>
<ellipse cx="480.0" cy="260.0" rx="7.0" ry="12.0" fill="rgb(255,255,170)"/>
<text x="475.0" y="265.0" font-family="courier" font-size="16" fill="rgb(0,0,0)">c</text>
<ellipse cx="460.0" cy="220.0" rx="7.0" ry="12.0" fill="rgb(255,255,170)"/>
<text x="455.0" y="225.0" font-family="courier" font-size="16" fill="rgb(0,0,0)">f</text>
<ellipse cx="440.0" cy="180.0" rx="7.0" ry="12.0" fill="rgb(255,255,170)"/>
<text x="435.0" y="185.0" font-family="courier" font-size="16" fill="rgb(0,0,0)">f</text>
<ellipse cx="332.5" cy="140.0" rx="7.0" ry="12.0" fill="rgb(255,255,170)"/>
<text x="327.5" y="145.0" font-family="courier" font-size="16" fill="rgb(0,0,0)">f</text>
<line x1="466.25" y1="100.0" x2="360.5" y2="140.0" stroke="rgb(255,0,0)" stroke-width="1.5"/>
<ellipse cx="360.5" cy="140.0" rx="7.0" ry="12.0" fill="rgb(255,255,170)"/>
<text x="355.5" y="145.0" font-family="courier" font-size="16" fill="rgb(0,0,0)">b</text>
<line x1="466.25" y1="100.0" x2="388.5" y2="140.0" stroke="rgb(255,0,0)" stroke-width="1.5"/>
<ellipse cx="388.5" cy="140.0" rx="7.0" ry="12.0" fill="rgb(255,255,170)"/>
<text x="383.5" y="145.0" font-family="courier" font-size="16" fill="rgb(0,0,0)">b</text>
<line x1="466.25" y1="100.0" x2="446.5" y2="140.0" stroke="rgb(255,0,0)" stroke-width="1.5"/>
<ellipse cx="446.5" cy="140.0" rx="37.0" ry="12.0" fill="rgb(255,255,170)"/>
<text x="411.5" y="145.0" font-family="courier" font-size="16" fill="rgb(0,0,0)">bbbbbbb</text>
<line x1="466.25" y1="100.0" x2="504.5" y2="140.0" stroke="rgb(255,0,0)" stroke-width="1.5"/>
<ellipse cx="504.5" cy="140.0" rx="7.0" ry="12.0" fill="rgb(255,255,170)"/>
<text x="499.5" y="145.0" font-family="courier" font-size="16" fill="rgb(0,0,0)">b</text>
<line x1="466.25" y1="100.0" x2="532.5" y2="140.0" stroke="rgb(255,0,0)" stroke-width="1.5"/>
<ellipse cx="532.5" cy="140.0" rx="7.0" ry="12.0" fill="rgb(255,255,170)"/>
<text x="527.5" y="145.0" font-family="courier" font-size="16" fill="rgb(0,0,0)">b</text>
<line x1="466.25" y1="100.0" x2="560.0" y2="140.0" stroke="rgb(255,0,0)" stroke-width="1.5"/>
<line x1="560.0" y1="140.0" x2="540.0" y2="180.0" stroke="rgb(255,0,0)" stroke-width="1.5"/>
<line x1="540.0" y1="180.0" x2="520.0" y2="220.0" stroke="rgb(255,0,0)" stroke-width="1.5"/>
<line x1="520.0" y1="220.0" x2="500.0" y2="260.0" stroke="rgb(255,0,0)" stroke-width="1.5"/>
<ellipse cx="500.0" cy="260.0" rx="7.0" ry="12.0" fill="rgb(255,255,170)"/>
<text x="495.0" y="265.0" font-family="courier" font-size="16" fill="rgb(0,0,0)">a</text>
<line x1="520.0" y1="220.0" x2="520.0" y2="260.0" stroke="rgb(255,0,0)" stroke-width="1.5"/>
<ellipse cx="520.0" cy="260.0" rx="7.0" ry="12.0" fill="rgb(255,255,170)"/>
<text x="515.0" y="265.0" font-family="courier" font-size="16" fill="rgb(0,0,0)">b</text>
<line x1="520.0" y1="220.0" x2="540.0" y2="260.0" stroke="rgb(255,0,0)" stroke-width="1.5"/>
<ellipse cx="540.0" cy="260.0" rx="7.0" ry="12.0" fill="rgb(255,255,170)"/>
<text x="535.0" y="265.0" font-family="courier" font-size="16" fill="rgb(0,0,0)">c</text>
<ellipse cx="520.0" cy="220.0" rx="7.0" ry="12.0" fill="rgb(255,255,170)"/>
<text x="515.0" y="225.0" font-family="courier" font-size="16" fill="rgb(0,0,0)">f</text>
<line x1="540.0" y1="180.0" x2="540.0" y2="220.0" stroke="rgb(255,0,0)" stroke-width="1.5"/>
<ellipse cx="540.0" cy="220.0" rx="7.0" ry="12.0" fill="rgb(255,255,170)"/>
<text x="535.0" y="225.0" font-family="courier" font-size="16" fill="rgb(0,0,0)">b</text>
<line x1="540.0" y1="180.0" x2="560.0" y2="220.0" stroke="rgb(255,0,0)" stroke-width="1.5"/>
<ellipse cx="560.0" cy="220.0" rx="7.0" ry="12.0" fill="rgb(255,255,170)"/>
<text x="555.0" y="225.0" font-family="courier" font-size="16" fill="rgb(0,0,0)">c</text>
<ellipse cx="540.0" cy="180.0" rx="7.0" ry="12.0" fill="rgb(255,255,170)"/>
<text x="535.0" y="185.0" font-family="courier" font-size="16" fill="rgb(0,0,0)">f</text>
<line x1="560.0" y1="140.0" x2="560.0" y2="180.0" stroke="rgb(255,0,0)" stroke-width="1.5"/>
<ellipse cx="560.0" cy="180.0" rx="7.0" ry="12.0" fill="rgb(255,255,170)"/>
<text x="555.0" y="185.0" font-family="courier" font-size="16" fill="rgb(0,0,0)">b</text>
<line x1="560.0" y1="140.0" x2="580.0" y2="180.0" stroke="rgb(255,0,0)" stroke-width="1.5"/>
<ellipse cx="580.0" cy="180.0" rx="7.0" ry="12.0" fill="rgb(255,255,170)"/>
<text x="575.0" y="185.0" font-family="courier" font-size="16" fill="rgb(0,0,0)">c</text>
<ellipse cx="560.0" cy="140.0" rx="7.0" ry="12.0" fill="rgb(255,255,170)"/>
<text x="555.0" y="145.0" font-family="courier" font-size="16" fill="rgb(0,0,0)">f</text>
<line x1="466.25" y1="100.0" x2="580.0" y2="140.0" stroke="rgb(255,0,0)" stroke-width="1.5"/>
<ellipse cx="580.0" cy="140.0" rx="7.0" ry="12.0" fill="rgb(255,255,170)"/>
<text x="575.0" y="145.0" font-family="courier" font-size="16" fill="rgb(0,0,0)">b</text>
<line x1="466.25" y1="100.0" x2="600.0" y2="140.0" stroke="rgb(255,0,0)" stroke-width="1.5"/>
<ellipse cx="600.0" cy="140.0" rx="7.0" ry="12.0" fill="rgb(255,255,170)"/>
<text x="595.0" y="145.0" font-family="courier" font-size="16" fill="rgb(0,0,0)">c</text>
<ellipse cx="466.25" cy="100.0" rx="7.0" ry="12.0" fill="rgb(255,255,170)"/>
<text x="461.25" y="105.0" font-family="courier" font-size="16" fill="rgb(0,0,0)">f</text>
<ellipse cx="446.25" cy="60.0" rx="7.0" ry="12.0" fill="rgb(255,255,170)"/>
<text x="441.25" y="65.0" font-family="courier" font-size="16" fill="rgb(0,0,0)">f</text>
<line x1="466.25" y1="20.0" x2="466.25" y2="60.0" stroke="rgb(255,0,0)" stroke-width="1.5"/>
<ellipse cx="466.25" cy="60.0" rx="7.0" ry="12.0" fill="rgb(255,255,170)"/>
<text x="461.25" y="65.0" font-family="courier" font-size="16" fill="rgb(0,0,0)">b</text>
<line x1="466.25" y1="20.0" x2="486.25" y2="60.0" stroke="rgb(255,0,0)" stroke-width="1.5"/>
<ellipse cx="486.25" cy="60.0" rx="7.0" ry="12.0" fill="rgb(255,255,170)"/>
<text x="481.25" y="65.0" font-family="courier" font-size="16" fill="rgb(0,0,0)">c</text>
<ellipse cx="466.25" cy="20.0" rx="7.0" ry="12.0" fill="rgb(255,255,170)"/>
<text x="461.25" y="25.0" font-family="courier" font-size="16" fill="rgb(0,0,0)">f</text></svg>