<svg xmlns="http://www.w3.org/2000/svg"
xmlns:xlink="http://www.w3.org/1999/xlink"
version="1.1" baseProfile="full"
width="432" height="240">
<line x1="240.625" y1="20.0" x2="148.75" y2="60.0" stroke="rgb(255,0,0)" stroke-width="1.5"/>
<line x1="148.75" y1="60.0" x2="70.0" y2="100.0" stroke="rgb(255,0,0)" stroke-width="1.5"/>
<line x1="70.0" y1="100.0" x2="70.0" y2="140.0" stroke="rgb(255,0,0)" stroke-width="1.5"/>
<line x1="70.0" y1="140.0" x2="40.0" y2="180.0" stroke="rgb(255,0,0)" stroke-width="1.5"/>
<line x1="40.0" y1="180.0" x2="25.0" y2="220.0" stroke="rgb(255,0,0)" stroke-width="1.5"/>
<polygon points=" 18,208 32,208 32,232 18,232" fill="rgb(170,255,170)"/>
<text x="20.0" y="225.0" font-family="courier" font-size="16" fill="rgb(0,0,0)">x</text>
<line x1="40.0" y1="180.0" x2="55.0" y2="220.0" stroke="rgb(255,0,0)" stroke-width="1.5"/>
<polygon points=" 48,208 62,208 62,232 48,232" fill="rgb(170,255,170)"/>
<text x="50.0" y="225.0" font-family="courier" font-size="16" fill="rgb(0,0,0)">y</text>
<polygon points=" 28,168 52,168 52,192 28,192" fill="rgb(170,255,170)"/>
<text x="30.0" y="185.0" font-family="courier" font-size="16" fill="rgb(0,0,0)">()</text>
<line x1="70.0" y1="140.0" x2="100.0" y2="180.0" stroke="rgb(255,0,0)" stroke-width="1.5"/>
<line x1="100.0" y1="180.0" x2="85.0" y2="220.0" stroke="rgb(255,0,0)" stroke-width="1.5"/>
<polygon points=" 78,208 92,208 92,232 78,232" fill="rgb(170,255,170)"/>
<text x="80.0" y="225.0" font-family="courier" font-size="16" fill="rgb(0,0,0)">x</text>
<line x1="100.0" y1="180.0" x2="115.0" y2="220.0" stroke="rgb(255,0,0)" stroke-width="1.5"/>
<polygon points=" 108,208 122,208 122,232 108,232" fill="rgb(170,255,170)"/>
<text x="110.0" y="225.0" font-family="courier" font-size="16" fill="rgb(0,0,0)">y</text>
<polygon points=" 93,168 107,168 107,192 93,192" fill="rgb(170,255,170)"/>
<text x="95.0" y="185.0" font-family="courier" font-size="16" fill="rgb(0,0,0)">+</text>
<polygon points=" 63,128 77,128 77,152 63,152" fill="rgb(170,255,170)"/>
<text x="65.0" y="145.0" font-family="courier" font-size="16" fill="rgb(0,0,0)">&#955;</text>
<polygon points=" 43,88 97,88 97,112 43,112" fill="rgb(170,255,170)"/>
<text x="45.0" y="105.0" font-family="courier" font-size="16" fill="rgb(0,0,0)">foldl</text>
<line x1="148.75" y1="60.0" x2="227.5" y2="100.0" stroke="rgb(255,0,0)" stroke-width="1.5"/>
<line x1="227.5" y1="100.0" x2="190.0" y2="140.0" stroke="rgb(255,0,0)" stroke-width="1.5"/>
<line x1="190.0" y1="140.0" x2="160.0" y2="180.0" stroke="rgb(255,0,0)" stroke-width="1.5"/>
<line x1="160.0" y1="180.0" x2="145.0" y2="220.0" stroke="rgb(255,0,0)" stroke-width="1.5"/>
<polygon points=" 138,208 152,208 152,232 138,232" fill="rgb(170,255,170)"/>
<text x="140.0" y="225.0" font-family="courier" font-size="16" fill="rgb(0,0,0)">x</text>
<line x1="160.0" y1="180.0" x2="175.0" y2="220.0" stroke="rgb(255,0,0)" stroke-width="1.5"/>
<polygon points=" 168,208 182,208 182,232 168,232" fill="rgb(170,255,170)"/>
<text x="170.0" y="225.0" font-family="courier" font-size="16" fill="rgb(0,0,0)">y</text>
<polygon points=" 148,168 172,168 172,192 148,192" fill="rgb(170,255,170)"/>
<text x="150.0" y="185.0" font-family="courier" font-size="16" fill="rgb(0,0,0)">()</text>
<line x1="190.0" y1="140.0" x2="220.0" y2="180.0" stroke="rgb(255,0,0)" stroke-width="1.5"/>
<line x1="220.0" y1="180.0" x2="205.0" y2="220.0" stroke="rgb(255,0,0)" stroke-width="1.5"/>
<polygon points=" 198,208 212,208 212,232 198,232" fill="rgb(170,255,170)"/>
<text x="200.0" y="225.0" font-family="courier" font-size="16" fill="rgb(0,0,0)">x</text>
<line x1="220.0" y1="180.0" x2="235.0" y2="220.0" stroke="rgb(255,0,0)" stroke-width="1.5"/>
<polygon points=" 228,208 242,208 242,232 228,232" fill="rgb(170,255,170)"/>
<text x="230.0" y="225.0" font-family="courier" font-size="16" fill="rgb(0,0,0)">y</text>
<polygon points=" 213,168 227,168 227,192 213,192" fill="rgb(170,255,170)"/>
<text x="215.0" y="185.0" font-family="courier" font-size="16" fill="rgb(0,0,0)">+</text>
<polygon points=" 183,128 197,128 197,152 183,152" fill="rgb(170,255,170)"/>
<text x="185.0" y="145.0" font-family="courier" font-size="16" fill="rgb(0,0,0)">&#955;</text>
<line x1="227.5" y1="100.0" x2="265.0" y2="140.0" stroke="rgb(255,0,0)" stroke-width="1.5"/>
<line x1="265.0" y1="140.0" x2="250.0" y2="180.0" stroke="rgb(255,0,0)" stroke-width="1.5"/>
<polygon points=" 243,168 257,168 257,192 243,192" fill="rgb(170,255,170)"/>
<text x="245.0" y="185.0" font-family="courier" font-size="16" fill="rgb(0,0,0)">2</text>
<line x1="265.0" y1="140.0" x2="280.0" y2="180.0" stroke="rgb(255,0,0)" stroke-width="1.5"/>
<polygon points=" 273,168 287,168 287,192 273,192" fill="rgb(170,255,170)"/>
<text x="275.0" y="185.0" font-family="courier" font-size="16" fill="rgb(0,0,0)">3</text>
<polygon points=" 253,128 277,128 277,152 253,152" fill="rgb(170,255,170)"/>
<text x="255.0" y="145.0" font-family="courier" font-size="16" fill="rgb(0,0,0)">()</text>
<polygon points=" 220,88 234,88 234,112 220,112" fill="rgb(170,255,170)"/>
<text x="222.5" y="105.0" font-family="courier" font-size="16" fill="rgb(0,0,0)">$</text>
<polygon points=" 142,48 156,48 156,72 142,72" fill="rgb(170,255,170)"/>
<text x="143.75" y="65.0" font-family="courier" font-size="16" fill="rgb(0,0,0)">$</text>
<line x1="240.625" y1="20.0" x2="332.5" y2="60.0" stroke="rgb(255,0,0)" stroke-width="1.5"/>
<line x1="332.5" y1="60.0" x2="257.5" y2="100.0" stroke="rgb(255,0,0)" stroke-width="1.5"/>
<polygon points=" 250,88 264,88 264,112 250,112" fill="rgb(170,255,170)"/>
<text x="252.5" y="105.0" font-family="courier" font-size="16" fill="rgb(0,0,0)">4</text>
<line x1="332.5" y1="60.0" x2="287.5" y2="100.0" stroke="rgb(255,0,0)" stroke-width="1.5"/>
<polygon points=" 280,88 294,88 294,112 280,112" fill="rgb(170,255,170)"/>
<text x="282.5" y="105.0" font-family="courier" font-size="16" fill="rgb(0,0,0)">5</text>
<line x1="332.5" y1="60.0" x2="317.5" y2="100.0" stroke="rgb(255,0,0)" stroke-width="1.5"/>
<polygon points=" 310,88 324,88 324,112 310,112" fill="rgb(170,255,170)"/>
<text x="312.5" y="105.0" font-family="courier" font-size="16" fill="rgb(0,0,0)">6</text>
<line x1="332.5" y1="60.0" x2="347.5" y2="100.0" stroke="rgb(255,0,0)" stroke-width="1.5"/>
<polygon points=" 340,88 354,88 354,112 340,112" fill="rgb(170,255,170)"/>
<text x="342.5" y="105.0" font-family="courier" font-size="16" fill="rgb(0,0,0)">7</text>
<line x1="332.5" y1="60.0" x2="377.5" y2="100.0" stroke="rgb(255,0,0)" stroke-width="1.5"/>
<polygon points=" 370,88 384,88 384,112 370,112" fill="rgb(170,255,170)"/>
<text x="372.5" y="105.0" font-family="courier" font-size="16" fill="rgb(0,0,0)">8</text>
<line x1="332.5" y1="60.0" x2="407.5" y2="100.0" stroke="rgb(255,0,0)" stroke-width="1.5"/>
<polygon points=" 400,88 414,88 414,112 400,112" fill="rgb(170,255,170)"/>
<text x="402.5" y="105.0" font-family="courier" font-size="16" fill="rgb(0,0,0)">9</text>
<polygon points=" 320,48 344,48 344,72 320,72" fill="rgb(170,255,170)"/>
<text x="322.5" y="65.0" font-family="courier" font-size="16" fill="rgb(0,0,0)">[]</text>
<polygon points=" 234,8 248,8 248,32 234,32" fill="rgb(170,255,170)"/>
<text x="235.625" y="25.0" font-family="courier" font-size="16" fill="rgb(0,0,0)">$</text></svg>