<svg xmlns="http://www.w3.org/2000/svg"
xmlns:xlink="http://www.w3.org/1999/xlink"
version="1.1" baseProfile="full"
width="315" height="240">
<line x1="167.5" y1="20.0" x2="105.0" y2="60.0" stroke="rgb(255,0,0)" stroke-width="1.5"/>
<line x1="105.0" y1="60.0" x2="70.0" y2="100.0" stroke="rgb(255,0,0)" stroke-width="1.5"/>
<line x1="70.0" y1="100.0" x2="70.0" y2="140.0" stroke="rgb(255,0,0)" stroke-width="1.5"/>
<line x1="70.0" y1="140.0" x2="40.0" y2="180.0" stroke="rgb(255,0,0)" stroke-width="1.5"/>
<line x1="40.0" y1="180.0" x2="25.0" y2="220.0" stroke="rgb(255,0,0)" stroke-width="1.5"/>
<polygon points=" 18,208 32,208 32,232 18,232" fill="rgb(255,255,170)"/>
<text x="20.0" y="225.0" font-family="courier" font-size="16" fill="rgb(0,0,0)">x</text>
<line x1="40.0" y1="180.0" x2="55.0" y2="220.0" stroke="rgb(255,0,0)" stroke-width="1.5"/>
<polygon points=" 48,208 62,208 62,232 48,232" fill="rgb(255,255,170)"/>
<text x="50.0" y="225.0" font-family="courier" font-size="16" fill="rgb(0,0,0)">y</text>
<polygon points=" 28,168 52,168 52,192 28,192" fill="rgb(255,255,170)"/>
<text x="30.0" y="185.0" font-family="courier" font-size="16" fill="rgb(0,0,0)">()</text>
<line x1="70.0" y1="140.0" x2="100.0" y2="180.0" stroke="rgb(255,0,0)" stroke-width="1.5"/>
<line x1="100.0" y1="180.0" x2="85.0" y2="220.0" stroke="rgb(255,0,0)" stroke-width="1.5"/>
<polygon points=" 78,208 92,208 92,232 78,232" fill="rgb(255,255,170)"/>
<text x="80.0" y="225.0" font-family="courier" font-size="16" fill="rgb(0,0,0)">x</text>
<line x1="100.0" y1="180.0" x2="115.0" y2="220.0" stroke="rgb(255,0,0)" stroke-width="1.5"/>
<polygon points=" 108,208 122,208 122,232 108,232" fill="rgb(255,255,170)"/>
<text x="110.0" y="225.0" font-family="courier" font-size="16" fill="rgb(0,0,0)">y</text>
<polygon points=" 93,168 107,168 107,192 93,192" fill="rgb(255,255,170)"/>
<text x="95.0" y="185.0" font-family="courier" font-size="16" fill="rgb(0,0,0)">+</text>
<polygon points=" 63,128 77,128 77,152 63,152" fill="rgb(255,255,170)"/>
<text x="65.0" y="145.0" font-family="courier" font-size="16" fill="rgb(0,0,0)">&#955;</text>
<polygon points=" 43,88 97,88 97,112 43,112" fill="rgb(255,255,170)"/>
<text x="45.0" y="105.0" font-family="courier" font-size="16" fill="rgb(0,0,0)">foldl</text>
<line x1="105.0" y1="60.0" x2="140.0" y2="100.0" stroke="rgb(255,0,0)" stroke-width="1.5"/>
<line x1="140.0" y1="100.0" x2="125.0" y2="140.0" stroke="rgb(255,0,0)" stroke-width="1.5"/>
<polygon points=" 118,128 132,128 132,152 118,152" fill="rgb(255,170,170)"/>
<text x="120.0" y="145.0" font-family="courier" font-size="16" fill="rgb(0,0,0)">5</text>
<line x1="140.0" y1="100.0" x2="155.0" y2="140.0" stroke="rgb(255,0,0)" stroke-width="1.5"/>
<polygon points=" 148,128 162,128 162,152 148,152" fill="rgb(255,170,170)"/>
<text x="150.0" y="145.0" font-family="courier" font-size="16" fill="rgb(0,0,0)">4</text>
<polygon points=" 133,88 147,88 147,112 133,112" fill="rgb(255,170,170)"/>
<text x="135.0" y="105.0" font-family="courier" font-size="16" fill="rgb(0,0,0)">+</text>
<polygon points=" 98,48 112,48 112,72 98,72" fill="rgb(255,255,170)"/>
<text x="100.0" y="65.0" font-family="courier" font-size="16" fill="rgb(0,0,0)">$</text>
<line x1="167.5" y1="20.0" x2="230.0" y2="60.0" stroke="rgb(255,0,0)" stroke-width="1.5"/>
<line x1="230.0" y1="60.0" x2="170.0" y2="100.0" stroke="rgb(255,0,0)" stroke-width="1.5"/>
<polygon points=" 163,88 177,88 177,112 163,112" fill="rgb(255,255,170)"/>
<text x="165.0" y="105.0" font-family="courier" font-size="16" fill="rgb(0,0,0)">5</text>
<line x1="230.0" y1="60.0" x2="200.0" y2="100.0" stroke="rgb(255,0,0)" stroke-width="1.5"/>
<polygon points=" 193,88 207,88 207,112 193,112" fill="rgb(255,255,170)"/>
<text x="195.0" y="105.0" font-family="courier" font-size="16" fill="rgb(0,0,0)">6</text>
<line x1="230.0" y1="60.0" x2="230.0" y2="100.0" stroke="rgb(255,0,0)" stroke-width="1.5"/>
<polygon points=" 223,88 237,88 237,112 223,112" fill="rgb(255,255,170)"/>
<text x="225.0" y="105.0" font-family="courier" font-size="16" fill="rgb(0,0,0)">7</text>
<line x1="230.0" y1="60.0" x2="260.0" y2="100.0" stroke="rgb(255,0,0)" stroke-width="1.5"/>
<polygon points=" 253,88 267,88 267,112 253,112" fill="rgb(255,255,170)"/>
<text x="255.0" y="105.0" font-family="courier" font-size="16" fill="rgb(0,0,0)">8</text>
<line x1="230.0" y1="60.0" x2="290.0" y2="100.0" stroke="rgb(255,0,0)" stroke-width="1.5"/>
<polygon points=" 283,88 297,88 297,112 283,112" fill="rgb(255,255,170)"/>
<text x="285.0" y="105.0" font-family="courier" font-size="16" fill="rgb(0,0,0)">9</text>
<polygon points=" 218,48 242,48 242,72 218,72" fill="rgb(255,255,170)"/>
<text x="220.0" y="65.0" font-family="courier" font-size="16" fill="rgb(0,0,0)">[]</text>
<polygon points=" 160,8 174,8 174,32 160,32" fill="rgb(255,255,170)"/>
<text x="162.5" y="25.0" font-family="courier" font-size="16" fill="rgb(0,0,0)">$</text></svg>