<svg xmlns="http://www.w3.org/2000/svg"
xmlns:xlink="http://www.w3.org/1999/xlink"
version="1.1" baseProfile="full"
width="232" height="240">
<line x1="150.625" y1="20.0" x2="108.75" y2="60.0" stroke="rgb(255,0,0)" stroke-width="1.5"/>
<line x1="108.75" y1="60.0" x2="70.0" y2="100.0" stroke="rgb(255,0,0)" stroke-width="1.5"/>
<line x1="70.0" y1="100.0" x2="70.0" y2="140.0" stroke="rgb(255,0,0)" stroke-width="1.5"/>
<line x1="70.0" y1="140.0" x2="40.0" y2="180.0" stroke="rgb(255,0,0)" stroke-width="1.5"/>
<line x1="40.0" y1="180.0" x2="25.0" y2="220.0" stroke="rgb(255,0,0)" stroke-width="1.5"/>
<polygon points=" 18,208 32,208 32,232 18,232" fill="rgb(255,255,170)"/>
<text x="20.0" y="225.0" font-family="courier" font-size="16" fill="rgb(0,0,0)">x</text>
<line x1="40.0" y1="180.0" x2="55.0" y2="220.0" stroke="rgb(255,0,0)" stroke-width="1.5"/>
<polygon points=" 48,208 62,208 62,232 48,232" fill="rgb(255,255,170)"/>
<text x="50.0" y="225.0" font-family="courier" font-size="16" fill="rgb(0,0,0)">y</text>
<polygon points=" 28,168 52,168 52,192 28,192" fill="rgb(255,255,170)"/>
<text x="30.0" y="185.0" font-family="courier" font-size="16" fill="rgb(0,0,0)">()</text>
<line x1="70.0" y1="140.0" x2="100.0" y2="180.0" stroke="rgb(255,0,0)" stroke-width="1.5"/>
<line x1="100.0" y1="180.0" x2="85.0" y2="220.0" stroke="rgb(255,0,0)" stroke-width="1.5"/>
<polygon points=" 78,208 92,208 92,232 78,232" fill="rgb(255,255,170)"/>
<text x="80.0" y="225.0" font-family="courier" font-size="16" fill="rgb(0,0,0)">x</text>
<line x1="100.0" y1="180.0" x2="115.0" y2="220.0" stroke="rgb(255,0,0)" stroke-width="1.5"/>
<polygon points=" 108,208 122,208 122,232 108,232" fill="rgb(255,255,170)"/>
<text x="110.0" y="225.0" font-family="courier" font-size="16" fill="rgb(0,0,0)">y</text>
<polygon points=" 93,168 107,168 107,192 93,192" fill="rgb(255,255,170)"/>
<text x="95.0" y="185.0" font-family="courier" font-size="16" fill="rgb(0,0,0)">+</text>
<polygon points=" 63,128 77,128 77,152 63,152" fill="rgb(255,255,170)"/>
<text x="65.0" y="145.0" font-family="courier" font-size="16" fill="rgb(0,0,0)">&#955;</text>
<polygon points=" 43,88 97,88 97,112 43,112" fill="rgb(255,255,170)"/>
<text x="45.0" y="105.0" font-family="courier" font-size="16" fill="rgb(0,0,0)">foldl</text>
<line x1="108.75" y1="60.0" x2="147.5" y2="100.0" stroke="rgb(255,0,0)" stroke-width="1.5"/>
<line x1="147.5" y1="100.0" x2="130.0" y2="140.0" stroke="rgb(255,0,0)" stroke-width="1.5"/>
<polygon points=" 118,128 142,128 142,152 118,152" fill="rgb(170,255,170)"/>
<text x="120.0" y="145.0" font-family="courier" font-size="16" fill="rgb(0,0,0)">20</text>
<line x1="147.5" y1="100.0" x2="165.0" y2="140.0" stroke="rgb(255,0,0)" stroke-width="1.5"/>
<polygon points=" 158,128 172,128 172,152 158,152" fill="rgb(170,255,170)"/>
<text x="160.0" y="145.0" font-family="courier" font-size="16" fill="rgb(0,0,0)">7</text>
<polygon points=" 140,88 154,88 154,112 140,112" fill="rgb(170,255,170)"/>
<text x="142.5" y="105.0" font-family="courier" font-size="16" fill="rgb(0,0,0)">+</text>
<polygon points=" 102,48 116,48 116,72 102,72" fill="rgb(255,255,170)"/>
<text x="103.75" y="65.0" font-family="courier" font-size="16" fill="rgb(0,0,0)">$</text>
<line x1="150.625" y1="20.0" x2="192.5" y2="60.0" stroke="rgb(255,0,0)" stroke-width="1.5"/>
<line x1="192.5" y1="60.0" x2="177.5" y2="100.0" stroke="rgb(255,0,0)" stroke-width="1.5"/>
<polygon points=" 170,88 184,88 184,112 170,112" fill="rgb(255,255,170)"/>
<text x="172.5" y="105.0" font-family="courier" font-size="16" fill="rgb(0,0,0)">8</text>
<line x1="192.5" y1="60.0" x2="207.5" y2="100.0" stroke="rgb(255,0,0)" stroke-width="1.5"/>
<polygon points=" 200,88 214,88 214,112 200,112" fill="rgb(255,255,170)"/>
<text x="202.5" y="105.0" font-family="courier" font-size="16" fill="rgb(0,0,0)">9</text>
<polygon points=" 180,48 204,48 204,72 180,72" fill="rgb(255,255,170)"/>
<text x="182.5" y="65.0" font-family="courier" font-size="16" fill="rgb(0,0,0)">[]</text>
<polygon points=" 144,8 158,8 158,32 144,32" fill="rgb(255,255,170)"/>
<text x="145.625" y="25.0" font-family="courier" font-size="16" fill="rgb(0,0,0)">$</text></svg>