<svg xmlns="http://www.w3.org/2000/svg" 
xmlns:xlink="http://www.w3.org/1999/xlink" 
version="1.1" baseProfile="full" 
width="537" height="568" >
<polygon points=" 497,416 269,20 40,416 497,416" fill="rgb(255,0,0)" />
<polygon points=" 345,328 269,196 192,328 345,328" fill="rgb(128,0,255)" />
<polygon points=" 345,152 269,20 192,152 345,152" fill="rgb(128,0,255)" />
<polygon points=" 421,284 497,152 345,152 421,284" fill="rgb(128,0,255)" />
<polygon points=" 345,416 497,416 421,284 345,416" fill="rgb(128,0,255)" />
<polygon points=" 192,416 269,548 345,416 192,416" fill="rgb(128,0,255)" />
<polygon points=" 116,284 40,416 192,416 116,284" fill="rgb(128,0,255)" />
<polygon points=" 192,152 40,152 116,284 192,152" fill="rgb(128,0,255)" />
<polygon points=" 294,299 269,255 243,299 294,299" fill="rgb(0,254,255)" />
<polygon points=" 294,240 269,196 243,240 294,240" fill="rgb(0,254,255)" />
<polygon points=" 319,284 345,240 294,240 319,284" fill="rgb(0,254,255)" />
<polygon points=" 294,328 345,328 319,284 294,328" fill="rgb(0,254,255)" />
<polygon points=" 243,328 269,372 294,328 243,328" fill="rgb(0,254,255)" />
<polygon points=" 218,284 192,328 243,328 218,284" fill="rgb(0,254,255)" />
<polygon points=" 243,240 192,240 218,284 243,240" fill="rgb(0,254,255)" />
<polygon points=" 294,123 269,79 243,123 294,123" fill="rgb(0,254,255)" />
<polygon points=" 294,64 269,20 243,64 294,64" fill="rgb(0,254,255)" />
<polygon points=" 319,108 345,64 294,64 319,108" fill="rgb(0,254,255)" />
<polygon points=" 294,152 345,152 319,108 294,152" fill="rgb(0,254,255)" />
<polygon points=" 243,152 269,196 294,152 243,152" fill="rgb(0,254,255)" />
<polygon points=" 218,108 192,152 243,152 218,108" fill="rgb(0,254,255)" />
<polygon points=" 243,64 192,64 218,108 243,64" fill="rgb(0,254,255)" />
<polygon points=" 421,225 446,181 396,181 421,225" fill="rgb(0,254,255)" />
<polygon points=" 446,152 421,108 396,152 446,152" fill="rgb(0,254,255)" />
<polygon points=" 472,196 497,152 446,152 472,196" fill="rgb(0,254,255)" />
<polygon points=" 446,240 497,240 472,196 446,240" fill="rgb(0,254,255)" />
<polygon points=" 396,240 421,284 446,240 396,240" fill="rgb(0,254,255)" />
<polygon points=" 370,196 345,240 396,240 370,196" fill="rgb(0,254,255)" />
<polygon points=" 396,152 345,152 370,196 396,152" fill="rgb(0,254,255)" />
<polygon points=" 396,387 446,387 421,343 396,387" fill="rgb(0,254,255)" />
<polygon points=" 446,328 421,284 396,328 446,328" fill="rgb(0,254,255)" />
<polygon points=" 472,372 497,328 446,328 472,372" fill="rgb(0,254,255)" />
<polygon points=" 446,416 497,416 472,372 446,416" fill="rgb(0,254,255)" />
<polygon points=" 396,416 421,460 446,416 396,416" fill="rgb(0,254,255)" />
<polygon points=" 370,372 345,416 396,416 370,372" fill="rgb(0,254,255)" />
<polygon points=" 396,328 345,328 370,372 396,328" fill="rgb(0,254,255)" />
<polygon points=" 243,445 269,489 294,445 243,445" fill="rgb(0,254,255)" />
<polygon points=" 294,416 269,372 243,416 294,416" fill="rgb(0,254,255)" />
<polygon points=" 319,460 345,416 294,416 319,460" fill="rgb(0,254,255)" />
<polygon points=" 294,504 345,504 319,460 294,504" fill="rgb(0,254,255)" />
<polygon points=" 243,504 269,548 294,504 243,504" fill="rgb(0,254,255)" />
<polygon points=" 218,460 192,504 243,504 218,460" fill="rgb(0,254,255)" />
<polygon points=" 243,416 192,416 218,460 243,416" fill="rgb(0,254,255)" />
<polygon points=" 116,343 91,387 142,387 116,343" fill="rgb(0,254,255)" />
<polygon points=" 142,328 116,284 91,328 142,328" fill="rgb(0,254,255)" />
<polygon points=" 167,372 192,328 142,328 167,372" fill="rgb(0,254,255)" />
<polygon points=" 142,416 192,416 167,372 142,416" fill="rgb(0,254,255)" />
<polygon points=" 91,416 116,460 142,416 91,416" fill="rgb(0,254,255)" />
<polygon points=" 65,372 40,416 91,416 65,372" fill="rgb(0,254,255)" />
<polygon points=" 91,328 40,328 65,372 91,328" fill="rgb(0,254,255)" />
<polygon points=" 142,181 91,181 116,225 142,181" fill="rgb(0,254,255)" />
<polygon points=" 142,152 116,108 91,152 142,152" fill="rgb(0,254,255)" />
<polygon points=" 167,196 192,152 142,152 167,196" fill="rgb(0,254,255)" />
<polygon points=" 142,240 192,240 167,196 142,240" fill="rgb(0,254,255)" />
<polygon points=" 91,240 116,284 142,240 91,240" fill="rgb(0,254,255)" />
<polygon points=" 65,196 40,240 91,240 65,196" fill="rgb(0,254,255)" />
<polygon points=" 91,152 40,152 65,196 91,152" fill="rgb(0,254,255)" />
<polygon points=" 277,289 269,274 260,289 277,289" fill="rgb(126,255,0)" />
<polygon points=" 277,269 269,255 260,269 277,269" fill="rgb(126,255,0)" />
<polygon points=" 286,284 294,269 277,269 286,284" fill="rgb(126,255,0)" />
<polygon points=" 277,299 294,299 286,284 277,299" fill="rgb(126,255,0)" />
<polygon points=" 260,299 269,313 277,299 260,299" fill="rgb(126,255,0)" />
<polygon points=" 252,284 243,299 260,299 252,284" fill="rgb(126,255,0)" />
<polygon points=" 260,269 243,269 252,284 260,269" fill="rgb(126,255,0)" />
<polygon points=" 277,230 269,216 260,230 277,230" fill="rgb(126,255,0)" />
<polygon points=" 277,211 269,196 260,211 277,211" fill="rgb(126,255,0)" />
<polygon points=" 286,225 294,211 277,211 286,225" fill="rgb(126,255,0)" />
<polygon points=" 277,240 294,240 286,225 277,240" fill="rgb(126,255,0)" />
<polygon points=" 260,240 269,255 277,240 260,240" fill="rgb(126,255,0)" />
<polygon points=" 252,225 243,240 260,240 252,225" fill="rgb(126,255,0)" />
<polygon points=" 260,211 243,211 252,225 260,211" fill="rgb(126,255,0)" />
<polygon points=" 319,264 328,250 311,250 319,264" fill="rgb(126,255,0)" />
<polygon points=" 328,240 319,225 311,240 328,240" fill="rgb(126,255,0)" />
<polygon points=" 336,255 345,240 328,240 336,255" fill="rgb(126,255,0)" />
<polygon points=" 328,269 345,269 336,255 328,269" fill="rgb(126,255,0)" />
<polygon points=" 311,269 319,284 328,269 311,269" fill="rgb(126,255,0)" />
<polygon points=" 303,255 294,269 311,269 303,255" fill="rgb(126,255,0)" />
<polygon points=" 311,240 294,240 303,255 311,240" fill="rgb(126,255,0)" />
<polygon points=" 311,318 328,318 319,304 311,318" fill="rgb(126,255,0)" />
<polygon points=" 328,299 319,284 311,299 328,299" fill="rgb(126,255,0)" />
<polygon points=" 336,313 345,299 328,299 336,313" fill="rgb(126,255,0)" />
<polygon points=" 328,328 345,328 336,313 328,328" fill="rgb(126,255,0)" />
<polygon points=" 311,328 319,343 328,328 311,328" fill="rgb(126,255,0)" />
<polygon points=" 303,313 294,328 311,328 303,313" fill="rgb(126,255,0)" />
<polygon points=" 311,299 294,299 303,313 311,299" fill="rgb(126,255,0)" />
<polygon points=" 260,338 269,352 277,338 260,338" fill="rgb(126,255,0)" />
<polygon points=" 277,328 269,313 260,328 277,328" fill="rgb(126,255,0)" />
<polygon points=" 286,343 294,328 277,328 286,343" fill="rgb(126,255,0)" />
<polygon points=" 277,357 294,357 286,343 277,357" fill="rgb(126,255,0)" />
<polygon points=" 260,357 269,372 277,357 260,357" fill="rgb(126,255,0)" />
<polygon points=" 252,343 243,357 260,357 252,343" fill="rgb(126,255,0)" />
<polygon points=" 260,328 243,328 252,343 260,328" fill="rgb(126,255,0)" />
<polygon points=" 218,304 209,318 226,318 218,304" fill="rgb(126,255,0)" />
<polygon points=" 226,299 218,284 209,299 226,299" fill="rgb(126,255,0)" />
<polygon points=" 235,313 243,299 226,299 235,313" fill="rgb(126,255,0)" />
<polygon points=" 226,328 243,328 235,313 226,328" fill="rgb(126,255,0)" />
<polygon points=" 209,328 218,343 226,328 209,328" fill="rgb(126,255,0)" />
<polygon points=" 201,313 192,328 209,328 201,313" fill="rgb(126,255,0)" />
<polygon points=" 209,299 192,299 201,313 209,299" fill="rgb(126,255,0)" />
<polygon points=" 226,250 209,250 218,264 226,250" fill="rgb(126,255,0)" />
<polygon points=" 226,240 218,225 209,240 226,240" fill="rgb(126,255,0)" />
<polygon points=" 235,255 243,240 226,240 235,255" fill="rgb(126,255,0)" />
<polygon points=" 226,269 243,269 235,255 226,269" fill="rgb(126,255,0)" />
<polygon points=" 209,269 218,284 226,269 209,269" fill="rgb(126,255,0)" />
<polygon points=" 201,255 192,269 209,269 201,255" fill="rgb(126,255,0)" />
<polygon points=" 209,240 192,240 201,255 209,240" fill="rgb(126,255,0)" />
<polygon points=" 277,113 269,98 260,113 277,113" fill="rgb(126,255,0)" />
<polygon points=" 277,93 269,79 260,93 277,93" fill="rgb(126,255,0)" />
<polygon points=" 286,108 294,93 277,93 286,108" fill="rgb(126,255,0)" />
<polygon points=" 277,123 294,123 286,108 277,123" fill="rgb(126,255,0)" />
<polygon points=" 260,123 269,137 277,123 260,123" fill="rgb(126,255,0)" />
<polygon points=" 252,108 243,123 260,123 252,108" fill="rgb(126,255,0)" />
<polygon points=" 260,93 243,93 252,108 260,93" fill="rgb(126,255,0)" />
<polygon points=" 277,54 269,40 260,54 277,54" fill="rgb(126,255,0)" />
<polygon points=" 277,35 269,20 260,35 277,35" fill="rgb(126,255,0)" />
<polygon points=" 286,49 294,35 277,35 286,49" fill="rgb(126,255,0)" />
<polygon points=" 277,64 294,64 286,49 277,64" fill="rgb(126,255,0)" />
<polygon points=" 260,64 269,79 277,64 260,64" fill="rgb(126,255,0)" />
<polygon points=" 252,49 243,64 260,64 252,49" fill="rgb(126,255,0)" />
<polygon points=" 260,35 243,35 252,49 260,35" fill="rgb(126,255,0)" />
<polygon points=" 319,88 328,74 311,74 319,88" fill="rgb(126,255,0)" />
<polygon points=" 328,64 319,49 311,64 328,64" fill="rgb(126,255,0)" />
<polygon points=" 336,79 345,64 328,64 336,79" fill="rgb(126,255,0)" />
<polygon points=" 328,93 345,93 336,79 328,93" fill="rgb(126,255,0)" />
<polygon points=" 311,93 319,108 328,93 311,93" fill="rgb(126,255,0)" />
<polygon points=" 303,79 294,93 311,93 303,79" fill="rgb(126,255,0)" />
<polygon points=" 311,64 294,64 303,79 311,64" fill="rgb(126,255,0)" />
<polygon points=" 311,142 328,142 319,128 311,142" fill="rgb(126,255,0)" />
<polygon points=" 328,123 319,108 311,123 328,123" fill="rgb(126,255,0)" />
<polygon points=" 336,137 345,123 328,123 336,137" fill="rgb(126,255,0)" />
<polygon points=" 328,152 345,152 336,137 328,152" fill="rgb(126,255,0)" />
<polygon points=" 311,152 319,167 328,152 311,152" fill="rgb(126,255,0)" />
<polygon points=" 303,137 294,152 311,152 303,137" fill="rgb(126,255,0)" />
<polygon points=" 311,123 294,123 303,137 311,123" fill="rgb(126,255,0)" />
<polygon points=" 260,162 269,176 277,162 260,162" fill="rgb(126,255,0)" />
<polygon points=" 277,152 269,137 260,152 277,152" fill="rgb(126,255,0)" />
<polygon points=" 286,167 294,152 277,152 286,167" fill="rgb(126,255,0)" />
<polygon points=" 277,181 294,181 286,167 277,181" fill="rgb(126,255,0)" />
<polygon points=" 260,181 269,196 277,181 260,181" fill="rgb(126,255,0)" />
<polygon points=" 252,167 243,181 260,181 252,167" fill="rgb(126,255,0)" />
<polygon points=" 260,152 243,152 252,167 260,152" fill="rgb(126,255,0)" />
<polygon points=" 218,128 209,142 226,142 218,128" fill="rgb(126,255,0)" />
<polygon points=" 226,123 218,108 209,123 226,123" fill="rgb(126,255,0)" />
<polygon points=" 235,137 243,123 226,123 235,137" fill="rgb(126,255,0)" />
<polygon points=" 226,152 243,152 235,137 226,152" fill="rgb(126,255,0)" />
<polygon points=" 209,152 218,167 226,152 209,152" fill="rgb(126,255,0)" />
<polygon points=" 201,137 192,152 209,152 201,137" fill="rgb(126,255,0)" />
<polygon points=" 209,123 192,123 201,137 209,123" fill="rgb(126,255,0)" />
<polygon points=" 226,74 209,74 218,88 226,74" fill="rgb(126,255,0)" />
<polygon points=" 226,64 218,49 209,64 226,64" fill="rgb(126,255,0)" />
<polygon points=" 235,79 243,64 226,64 235,79" fill="rgb(126,255,0)" />
<polygon points=" 226,93 243,93 235,79 226,93" fill="rgb(126,255,0)" />
<polygon points=" 209,93 218,108 226,93 209,93" fill="rgb(126,255,0)" />
<polygon points=" 201,79 192,93 209,93 201,79" fill="rgb(126,255,0)" />
<polygon points=" 209,64 192,64 201,79 209,64" fill="rgb(126,255,0)" />
<polygon points=" 421,206 430,191 413,191 421,206" fill="rgb(126,255,0)" />
<polygon points=" 430,181 421,167 413,181 430,181" fill="rgb(126,255,0)" />
<polygon points=" 438,196 446,181 430,181 438,196" fill="rgb(126,255,0)" />
<polygon points=" 430,211 446,211 438,196 430,211" fill="rgb(126,255,0)" />
<polygon points=" 413,211 421,225 430,211 413,211" fill="rgb(126,255,0)" />
<polygon points=" 404,196 396,211 413,211 404,196" fill="rgb(126,255,0)" />
<polygon points=" 413,181 396,181 404,196 413,181" fill="rgb(126,255,0)" />
<polygon points=" 430,142 421,128 413,142 430,142" fill="rgb(126,255,0)" />
<polygon points=" 430,123 421,108 413,123 430,123" fill="rgb(126,255,0)" />
<polygon points=" 438,137 446,123 430,123 438,137" fill="rgb(126,255,0)" />
<polygon points=" 430,152 446,152 438,137 430,152" fill="rgb(126,255,0)" />
<polygon points=" 413,152 421,167 430,152 413,152" fill="rgb(126,255,0)" />
<polygon points=" 404,137 396,152 413,152 404,137" fill="rgb(126,255,0)" />
<polygon points=" 413,123 396,123 404,137 413,123" fill="rgb(126,255,0)" />
<polygon points=" 472,176 480,162 463,162 472,176" fill="rgb(126,255,0)" />
<polygon points=" 480,152 472,137 463,152 480,152" fill="rgb(126,255,0)" />
<polygon points=" 489,167 497,152 480,152 489,167" fill="rgb(126,255,0)" />
<polygon points=" 480,181 497,181 489,167 480,181" fill="rgb(126,255,0)" />
<polygon points=" 463,181 472,196 480,181 463,181" fill="rgb(126,255,0)" />
<polygon points=" 455,167 446,181 463,181 455,167" fill="rgb(126,255,0)" />
<polygon points=" 463,152 446,152 455,167 463,152" fill="rgb(126,255,0)" />
<polygon points=" 463,230 480,230 472,216 463,230" fill="rgb(126,255,0)" />
<polygon points=" 480,211 472,196 463,211 480,211" fill="rgb(126,255,0)" />
<polygon points=" 489,225 497,211 480,211 489,225" fill="rgb(126,255,0)" />
<polygon points=" 480,240 497,240 489,225 480,240" fill="rgb(126,255,0)" />
<polygon points=" 463,240 472,255 480,240 463,240" fill="rgb(126,255,0)" />
<polygon points=" 455,225 446,240 463,240 455,225" fill="rgb(126,255,0)" />
<polygon points=" 463,211 446,211 455,225 463,211" fill="rgb(126,255,0)" />
<polygon points=" 413,250 421,264 430,250 413,250" fill="rgb(126,255,0)" />
<polygon points=" 430,240 421,225 413,240 430,240" fill="rgb(126,255,0)" />
<polygon points=" 438,255 446,240 430,240 438,255" fill="rgb(126,255,0)" />
<polygon points=" 430,269 446,269 438,255 430,269" fill="rgb(126,255,0)" />
<polygon points=" 413,269 421,284 430,269 413,269" fill="rgb(126,255,0)" />
<polygon points=" 404,255 396,269 413,269 404,255" fill="rgb(126,255,0)" />
<polygon points=" 413,240 396,240 404,255 413,240" fill="rgb(126,255,0)" />
<polygon points=" 370,216 362,230 379,230 370,216" fill="rgb(126,255,0)" />
<polygon points=" 379,211 370,196 362,211 379,211" fill="rgb(126,255,0)" />
<polygon points=" 387,225 396,211 379,211 387,225" fill="rgb(126,255,0)" />
<polygon points=" 379,240 396,240 387,225 379,240" fill="rgb(126,255,0)" />
<polygon points=" 362,240 370,255 379,240 362,240" fill="rgb(126,255,0)" />
<polygon points=" 353,225 345,240 362,240 353,225" fill="rgb(126,255,0)" />
<polygon points=" 362,211 345,211 353,225 362,211" fill="rgb(126,255,0)" />
<polygon points=" 379,162 362,162 370,176 379,162" fill="rgb(126,255,0)" />
<polygon points=" 379,152 370,137 362,152 379,152" fill="rgb(126,255,0)" />
<polygon points=" 387,167 396,152 379,152 387,167" fill="rgb(126,255,0)" />
<polygon points=" 379,181 396,181 387,167 379,181" fill="rgb(126,255,0)" />
<polygon points=" 362,181 370,196 379,181 362,181" fill="rgb(126,255,0)" />
<polygon points=" 353,167 345,181 362,181 353,167" fill="rgb(126,255,0)" />
<polygon points=" 362,152 345,152 353,167 362,152" fill="rgb(126,255,0)" />
<polygon points=" 413,377 430,377 421,362 413,377" fill="rgb(126,255,0)" />
<polygon points=" 430,357 421,343 413,357 430,357" fill="rgb(126,255,0)" />
<polygon points=" 438,372 446,357 430,357 438,372" fill="rgb(126,255,0)" />
<polygon points=" 430,387 446,387 438,372 430,387" fill="rgb(126,255,0)" />
<polygon points=" 413,387 421,401 430,387 413,387" fill="rgb(126,255,0)" />
<polygon points=" 404,372 396,387 413,387 404,372" fill="rgb(126,255,0)" />
<polygon points=" 413,357 396,357 404,372 413,357" fill="rgb(126,255,0)" />
<polygon points=" 430,318 421,304 413,318 430,318" fill="rgb(126,255,0)" />
<polygon points=" 430,299 421,284 413,299 430,299" fill="rgb(126,255,0)" />
<polygon points=" 438,313 446,299 430,299 438,313" fill="rgb(126,255,0)" />
<polygon points=" 430,328 446,328 438,313 430,328" fill="rgb(126,255,0)" />
<polygon points=" 413,328 421,343 430,328 413,328" fill="rgb(126,255,0)" />
<polygon points=" 404,313 396,328 413,328 404,313" fill="rgb(126,255,0)" />
<polygon points=" 413,299 396,299 404,313 413,299" fill="rgb(126,255,0)" />
<polygon points=" 472,352 480,338 463,338 472,352" fill="rgb(126,255,0)" />
<polygon points=" 480,328 472,313 463,328 480,328" fill="rgb(126,255,0)" />
<polygon points=" 489,343 497,328 480,328 489,343" fill="rgb(126,255,0)" />
<polygon points=" 480,357 497,357 489,343 480,357" fill="rgb(126,255,0)" />
<polygon points=" 463,357 472,372 480,357 463,357" fill="rgb(126,255,0)" />
<polygon points=" 455,343 446,357 463,357 455,343" fill="rgb(126,255,0)" />
<polygon points=" 463,328 446,328 455,343 463,328" fill="rgb(126,255,0)" />
<polygon points=" 463,406 480,406 472,392 463,406" fill="rgb(126,255,0)" />
<polygon points=" 480,387 472,372 463,387 480,387" fill="rgb(126,255,0)" />
<polygon points=" 489,401 497,387 480,387 489,401" fill="rgb(126,255,0)" />
<polygon points=" 480,416 497,416 489,401 480,416" fill="rgb(126,255,0)" />
<polygon points=" 463,416 472,431 480,416 463,416" fill="rgb(126,255,0)" />
<polygon points=" 455,401 446,416 463,416 455,401" fill="rgb(126,255,0)" />
<polygon points=" 463,387 446,387 455,401 463,387" fill="rgb(126,255,0)" />
<polygon points=" 413,426 421,440 430,426 413,426" fill="rgb(126,255,0)" />
<polygon points=" 430,416 421,401 413,416 430,416" fill="rgb(126,255,0)" />
<polygon points=" 438,431 446,416 430,416 438,431" fill="rgb(126,255,0)" />
<polygon points=" 430,445 446,445 438,431 430,445" fill="rgb(126,255,0)" />
<polygon points=" 413,445 421,460 430,445 413,445" fill="rgb(126,255,0)" />
<polygon points=" 404,431 396,445 413,445 404,431" fill="rgb(126,255,0)" />
<polygon points=" 413,416 396,416 404,431 413,416" fill="rgb(126,255,0)" />
<polygon points=" 370,392 362,406 379,406 370,392" fill="rgb(126,255,0)" />
<polygon points=" 379,387 370,372 362,387 379,387" fill="rgb(126,255,0)" />
<polygon points=" 387,401 396,387 379,387 387,401" fill="rgb(126,255,0)" />
<polygon points=" 379,416 396,416 387,401 379,416" fill="rgb(126,255,0)" />
<polygon points=" 362,416 370,431 379,416 362,416" fill="rgb(126,255,0)" />
<polygon points=" 353,401 345,416 362,416 353,401" fill="rgb(126,255,0)" />
<polygon points=" 362,387 345,387 353,401 362,387" fill="rgb(126,255,0)" />
<polygon points=" 379,338 362,338 370,352 379,338" fill="rgb(126,255,0)" />
<polygon points=" 379,328 370,313 362,328 379,328" fill="rgb(126,255,0)" />
<polygon points=" 387,343 396,328 379,328 387,343" fill="rgb(126,255,0)" />
<polygon points=" 379,357 396,357 387,343 379,357" fill="rgb(126,255,0)" />
<polygon points=" 362,357 370,372 379,357 362,357" fill="rgb(126,255,0)" />
<polygon points=" 353,343 345,357 362,357 353,343" fill="rgb(126,255,0)" />
<polygon points=" 362,328 345,328 353,343 362,328" fill="rgb(126,255,0)" />
<polygon points=" 260,455 269,470 277,455 260,455" fill="rgb(126,255,0)" />
<polygon points=" 277,445 269,431 260,445 277,445" fill="rgb(126,255,0)" />
<polygon points=" 286,460 294,445 277,445 286,460" fill="rgb(126,255,0)" />
<polygon points=" 277,475 294,475 286,460 277,475" fill="rgb(126,255,0)" />
<polygon points=" 260,475 269,489 277,475 260,475" fill="rgb(126,255,0)" />
<polygon points=" 252,460 243,475 260,475 252,460" fill="rgb(126,255,0)" />
<polygon points=" 260,445 243,445 252,460 260,445" fill="rgb(126,255,0)" />
<polygon points=" 277,406 269,392 260,406 277,406" fill="rgb(126,255,0)" />
<polygon points=" 277,387 269,372 260,387 277,387" fill="rgb(126,255,0)" />
<polygon points=" 286,401 294,387 277,387 286,401" fill="rgb(126,255,0)" />
<polygon points=" 277,416 294,416 286,401 277,416" fill="rgb(126,255,0)" />
<polygon points=" 260,416 269,431 277,416 260,416" fill="rgb(126,255,0)" />
<polygon points=" 252,401 243,416 260,416 252,401" fill="rgb(126,255,0)" />
<polygon points=" 260,387 243,387 252,401 260,387" fill="rgb(126,255,0)" />
<polygon points=" 319,440 328,426 311,426 319,440" fill="rgb(126,255,0)" />
<polygon points=" 328,416 319,401 311,416 328,416" fill="rgb(126,255,0)" />
<polygon points=" 336,431 345,416 328,416 336,431" fill="rgb(126,255,0)" />
<polygon points=" 328,445 345,445 336,431 328,445" fill="rgb(126,255,0)" />
<polygon points=" 311,445 319,460 328,445 311,445" fill="rgb(126,255,0)" />
<polygon points=" 303,431 294,445 311,445 303,431" fill="rgb(126,255,0)" />
<polygon points=" 311,416 294,416 303,431 311,416" fill="rgb(126,255,0)" />
<polygon points=" 311,494 328,494 319,480 311,494" fill="rgb(126,255,0)" />
<polygon points=" 328,475 319,460 311,475 328,475" fill="rgb(126,255,0)" />
<polygon points=" 336,489 345,475 328,475 336,489" fill="rgb(126,255,0)" />
<polygon points=" 328,504 345,504 336,489 328,504" fill="rgb(126,255,0)" />
<polygon points=" 311,504 319,519 328,504 311,504" fill="rgb(126,255,0)" />
<polygon points=" 303,489 294,504 311,504 303,489" fill="rgb(126,255,0)" />
<polygon points=" 311,475 294,475 303,489 311,475" fill="rgb(126,255,0)" />
<polygon points=" 260,514 269,528 277,514 260,514" fill="rgb(126,255,0)" />
<polygon points=" 277,504 269,489 260,504 277,504" fill="rgb(126,255,0)" />
<polygon points=" 286,519 294,504 277,504 286,519" fill="rgb(126,255,0)" />
<polygon points=" 277,533 294,533 286,519 277,533" fill="rgb(126,255,0)" />
<polygon points=" 260,533 269,548 277,533 260,533" fill="rgb(126,255,0)" />
<polygon points=" 252,519 243,533 260,533 252,519" fill="rgb(126,255,0)" />
<polygon points=" 260,504 243,504 252,519 260,504" fill="rgb(126,255,0)" />
<polygon points=" 218,480 209,494 226,494 218,480" fill="rgb(126,255,0)" />
<polygon points=" 226,475 218,460 209,475 226,475" fill="rgb(126,255,0)" />
<polygon points=" 235,489 243,475 226,475 235,489" fill="rgb(126,255,0)" />
<polygon points=" 226,504 243,504 235,489 226,504" fill="rgb(126,255,0)" />
<polygon points=" 209,504 218,519 226,504 209,504" fill="rgb(126,255,0)" />
<polygon points=" 201,489 192,504 209,504 201,489" fill="rgb(126,255,0)" />
<polygon points=" 209,475 192,475 201,489 209,475" fill="rgb(126,255,0)" />
<polygon points=" 226,426 209,426 218,440 226,426" fill="rgb(126,255,0)" />
<polygon points=" 226,416 218,401 209,416 226,416" fill="rgb(126,255,0)" />
<polygon points=" 235,431 243,416 226,416 235,431" fill="rgb(126,255,0)" />
<polygon points=" 226,445 243,445 235,431 226,445" fill="rgb(126,255,0)" />
<polygon points=" 209,445 218,460 226,445 209,445" fill="rgb(126,255,0)" />
<polygon points=" 201,431 192,445 209,445 201,431" fill="rgb(126,255,0)" />
<polygon points=" 209,416 192,416 201,431 209,416" fill="rgb(126,255,0)" />
<polygon points=" 116,362 108,377 125,377 116,362" fill="rgb(126,255,0)" />
<polygon points=" 125,357 116,343 108,357 125,357" fill="rgb(126,255,0)" />
<polygon points=" 133,372 142,357 125,357 133,372" fill="rgb(126,255,0)" />
<polygon points=" 125,387 142,387 133,372 125,387" fill="rgb(126,255,0)" />
<polygon points=" 108,387 116,401 125,387 108,387" fill="rgb(126,255,0)" />
<polygon points=" 99,372 91,387 108,387 99,372" fill="rgb(126,255,0)" />
<polygon points=" 108,357 91,357 99,372 108,357" fill="rgb(126,255,0)" />
<polygon points=" 125,318 116,304 108,318 125,318" fill="rgb(126,255,0)" />
<polygon points=" 125,299 116,284 108,299 125,299" fill="rgb(126,255,0)" />
<polygon points=" 133,313 142,299 125,299 133,313" fill="rgb(126,255,0)" />
<polygon points=" 125,328 142,328 133,313 125,328" fill="rgb(126,255,0)" />
<polygon points=" 108,328 116,343 125,328 108,328" fill="rgb(126,255,0)" />
<polygon points=" 99,313 91,328 108,328 99,313" fill="rgb(126,255,0)" />
<polygon points=" 108,299 91,299 99,313 108,299" fill="rgb(126,255,0)" />
<polygon points=" 167,352 175,338 159,338 167,352" fill="rgb(126,255,0)" />
<polygon points=" 175,328 167,313 159,328 175,328" fill="rgb(126,255,0)" />
<polygon points=" 184,343 192,328 175,328 184,343" fill="rgb(126,255,0)" />
<polygon points=" 175,357 192,357 184,343 175,357" fill="rgb(126,255,0)" />
<polygon points=" 159,357 167,372 175,357 159,357" fill="rgb(126,255,0)" />
<polygon points=" 150,343 142,357 159,357 150,343" fill="rgb(126,255,0)" />
<polygon points=" 159,328 142,328 150,343 159,328" fill="rgb(126,255,0)" />
<polygon points=" 159,406 175,406 167,392 159,406" fill="rgb(126,255,0)" />
<polygon points=" 175,387 167,372 159,387 175,387" fill="rgb(126,255,0)" />
<polygon points=" 184,401 192,387 175,387 184,401" fill="rgb(126,255,0)" />
<polygon points=" 175,416 192,416 184,401 175,416" fill="rgb(126,255,0)" />
<polygon points=" 159,416 167,431 175,416 159,416" fill="rgb(126,255,0)" />
<polygon points=" 150,401 142,416 159,416 150,401" fill="rgb(126,255,0)" />
<polygon points=" 159,387 142,387 150,401 159,387" fill="rgb(126,255,0)" />
<polygon points=" 108,426 116,440 125,426 108,426" fill="rgb(126,255,0)" />
<polygon points=" 125,416 116,401 108,416 125,416" fill="rgb(126,255,0)" />
<polygon points=" 133,431 142,416 125,416 133,431" fill="rgb(126,255,0)" />
<polygon points=" 125,445 142,445 133,431 125,445" fill="rgb(126,255,0)" />
<polygon points=" 108,445 116,460 125,445 108,445" fill="rgb(126,255,0)" />
<polygon points=" 99,431 91,445 108,445 99,431" fill="rgb(126,255,0)" />
<polygon points=" 108,416 91,416 99,431 108,416" fill="rgb(126,255,0)" />
<polygon points=" 65,392 57,406 74,406 65,392" fill="rgb(126,255,0)" />
<polygon points=" 74,387 65,372 57,387 74,387" fill="rgb(126,255,0)" />
<polygon points=" 82,401 91,387 74,387 82,401" fill="rgb(126,255,0)" />
<polygon points=" 74,416 91,416 82,401 74,416" fill="rgb(126,255,0)" />
<polygon points=" 57,416 65,431 74,416 57,416" fill="rgb(126,255,0)" />
<polygon points=" 48,401 40,416 57,416 48,401" fill="rgb(126,255,0)" />
<polygon points=" 57,387 40,387 48,401 57,387" fill="rgb(126,255,0)" />
<polygon points=" 74,338 57,338 65,352 74,338" fill="rgb(126,255,0)" />
<polygon points=" 74,328 65,313 57,328 74,328" fill="rgb(126,255,0)" />
<polygon points=" 82,343 91,328 74,328 82,343" fill="rgb(126,255,0)" />
<polygon points=" 74,357 91,357 82,343 74,357" fill="rgb(126,255,0)" />
<polygon points=" 57,357 65,372 74,357 57,357" fill="rgb(126,255,0)" />
<polygon points=" 48,343 40,357 57,357 48,343" fill="rgb(126,255,0)" />
<polygon points=" 57,328 40,328 48,343 57,328" fill="rgb(126,255,0)" />
<polygon points=" 125,191 108,191 116,206 125,191" fill="rgb(126,255,0)" />
<polygon points=" 125,181 116,167 108,181 125,181" fill="rgb(126,255,0)" />
<polygon points=" 133,196 142,181 125,181 133,196" fill="rgb(126,255,0)" />
<polygon points=" 125,211 142,211 133,196 125,211" fill="rgb(126,255,0)" />
<polygon points=" 108,211 116,225 125,211 108,211" fill="rgb(126,255,0)" />
<polygon points=" 99,196 91,211 108,211 99,196" fill="rgb(126,255,0)" />
<polygon points=" 108,181 91,181 99,196 108,181" fill="rgb(126,255,0)" />
<polygon points=" 125,142 116,128 108,142 125,142" fill="rgb(126,255,0)" />
<polygon points=" 125,123 116,108 108,123 125,123" fill="rgb(126,255,0)" />
<polygon points=" 133,137 142,123 125,123 133,137" fill="rgb(126,255,0)" />
<polygon points=" 125,152 142,152 133,137 125,152" fill="rgb(126,255,0)" />
<polygon points=" 108,152 116,167 125,152 108,152" fill="rgb(126,255,0)" />
<polygon points=" 99,137 91,152 108,152 99,137" fill="rgb(126,255,0)" />
<polygon points=" 108,123 91,123 99,137 108,123" fill="rgb(126,255,0)" />
<polygon points=" 167,176 175,162 159,162 167,176" fill="rgb(126,255,0)" />
<polygon points=" 175,152 167,137 159,152 175,152" fill="rgb(126,255,0)" />
<polygon points=" 184,167 192,152 175,152 184,167" fill="rgb(126,255,0)" />
<polygon points=" 175,181 192,181 184,167 175,181" fill="rgb(126,255,0)" />
<polygon points=" 159,181 167,196 175,181 159,181" fill="rgb(126,255,0)" />
<polygon points=" 150,167 142,181 159,181 150,167" fill="rgb(126,255,0)" />
<polygon points=" 159,152 142,152 150,167 159,152" fill="rgb(126,255,0)" />
<polygon points=" 159,230 175,230 167,216 159,230" fill="rgb(126,255,0)" />
<polygon points=" 175,211 167,196 159,211 175,211" fill="rgb(126,255,0)" />
<polygon points=" 184,225 192,211 175,211 184,225" fill="rgb(126,255,0)" />
<polygon points=" 175,240 192,240 184,225 175,240" fill="rgb(126,255,0)" />
<polygon points=" 159,240 167,255 175,240 159,240" fill="rgb(126,255,0)" />
<polygon points=" 150,225 142,240 159,240 150,225" fill="rgb(126,255,0)" />
<polygon points=" 159,211 142,211 150,225 159,211" fill="rgb(126,255,0)" />
<polygon points=" 108,250 116,264 125,250 108,250" fill="rgb(126,255,0)" />
<polygon points=" 125,240 116,225 108,240 125,240" fill="rgb(126,255,0)" />
<polygon points=" 133,255 142,240 125,240 133,255" fill="rgb(126,255,0)" />
<polygon points=" 125,269 142,269 133,255 125,269" fill="rgb(126,255,0)" />
<polygon points=" 108,269 116,284 125,269 108,269" fill="rgb(126,255,0)" />
<polygon points=" 99,255 91,269 108,269 99,255" fill="rgb(126,255,0)" />
<polygon points=" 108,240 91,240 99,255 108,240" fill="rgb(126,255,0)" />
<polygon points=" 65,216 57,230 74,230 65,216" fill="rgb(126,255,0)" />
<polygon points=" 74,211 65,196 57,211 74,211" fill="rgb(126,255,0)" />
<polygon points=" 82,225 91,211 74,211 82,225" fill="rgb(126,255,0)" />
<polygon points=" 74,240 91,240 82,225 74,240" fill="rgb(126,255,0)" />
<polygon points=" 57,240 65,255 74,240 57,240" fill="rgb(126,255,0)" />
<polygon points=" 48,225 40,240 57,240 48,225" fill="rgb(126,255,0)" />
<polygon points=" 57,211 40,211 48,225 57,211" fill="rgb(126,255,0)" />
<polygon points=" 74,162 57,162 65,176 74,162" fill="rgb(126,255,0)" />
<polygon points=" 74,152 65,137 57,152 74,152" fill="rgb(126,255,0)" />
<polygon points=" 82,167 91,152 74,152 82,167" fill="rgb(126,255,0)" />
<polygon points=" 74,181 91,181 82,167 74,181" fill="rgb(126,255,0)" />
<polygon points=" 57,181 65,196 74,181 57,181" fill="rgb(126,255,0)" />
<polygon points=" 48,167 40,181 57,181 48,167" fill="rgb(126,255,0)" />
<polygon points=" 57,152 40,152 48,167 57,152" fill="rgb(126,255,0)" />
<polygon points=" 421,372 269,108 116,372 421,372" fill="rgb(0,0,255)" />
<polygon points=" 319,313 269,225 218,313 319,313" fill="rgb(0,255,128)" />
<polygon points=" 319,196 269,108 218,196 319,196" fill="rgb(0,255,128)" />
<polygon points=" 370,284 421,196 319,196 370,284" fill="rgb(0,255,128)" />
<polygon points=" 319,372 421,372 370,284 319,372" fill="rgb(0,255,128)" />
<polygon points=" 218,372 269,460 319,372 218,372" fill="rgb(0,255,128)" />
<polygon points=" 167,284 116,372 218,372 167,284" fill="rgb(0,255,128)" />
<polygon points=" 218,196 116,196 167,284 218,196" fill="rgb(0,255,128)" />
<polygon points=" 286,294 269,264 252,294 286,294" fill="rgb(254,255,0)" />
<polygon points=" 286,255 269,225 252,255 286,255" fill="rgb(254,255,0)" />
<polygon points=" 303,284 319,255 286,255 303,284" fill="rgb(254,255,0)" />
<polygon points=" 286,313 319,313 303,284 286,313" fill="rgb(254,255,0)" />
<polygon points=" 252,313 269,343 286,313 252,313" fill="rgb(254,255,0)" />
<polygon points=" 235,284 218,313 252,313 235,284" fill="rgb(254,255,0)" />
<polygon points=" 252,255 218,255 235,284 252,255" fill="rgb(254,255,0)" />
<polygon points=" 286,176 269,147 252,176 286,176" fill="rgb(254,255,0)" />
<polygon points=" 286,137 269,108 252,137 286,137" fill="rgb(254,255,0)" />
<polygon points=" 303,167 319,137 286,137 303,167" fill="rgb(254,255,0)" />
<polygon points=" 286,196 319,196 303,167 286,196" fill="rgb(254,255,0)" />
<polygon points=" 252,196 269,225 286,196 252,196" fill="rgb(254,255,0)" />
<polygon points=" 235,167 218,196 252,196 235,167" fill="rgb(254,255,0)" />
<polygon points=" 252,137 218,137 235,167 252,137" fill="rgb(254,255,0)" />
<polygon points=" 370,245 387,216 353,216 370,245" fill="rgb(254,255,0)" />
<polygon points=" 387,196 370,167 353,196 387,196" fill="rgb(254,255,0)" />
<polygon points=" 404,225 421,196 387,196 404,225" fill="rgb(254,255,0)" />
<polygon points=" 387,255 421,255 404,225 387,255" fill="rgb(254,255,0)" />
<polygon points=" 353,255 370,284 387,255 353,255" fill="rgb(254,255,0)" />
<polygon points=" 336,225 319,255 353,255 336,225" fill="rgb(254,255,0)" />
<polygon points=" 353,196 319,196 336,225 353,196" fill="rgb(254,255,0)" />
<polygon points=" 353,352 387,352 370,323 353,352" fill="rgb(254,255,0)" />
<polygon points=" 387,313 370,284 353,313 387,313" fill="rgb(254,255,0)" />
<polygon points=" 404,343 421,313 387,313 404,343" fill="rgb(254,255,0)" />
<polygon points=" 387,372 421,372 404,343 387,372" fill="rgb(254,255,0)" />
<polygon points=" 353,372 370,401 387,372 353,372" fill="rgb(254,255,0)" />
<polygon points=" 336,343 319,372 353,372 336,343" fill="rgb(254,255,0)" />
<polygon points=" 353,313 319,313 336,343 353,313" fill="rgb(254,255,0)" />
<polygon points=" 252,392 269,421 286,392 252,392" fill="rgb(254,255,0)" />
<polygon points=" 286,372 269,343 252,372 286,372" fill="rgb(254,255,0)" />
<polygon points=" 303,401 319,372 286,372 303,401" fill="rgb(254,255,0)" />
<polygon points=" 286,431 319,431 303,401 286,431" fill="rgb(254,255,0)" />
<polygon points=" 252,431 269,460 286,431 252,431" fill="rgb(254,255,0)" />
<polygon points=" 235,401 218,431 252,431 235,401" fill="rgb(254,255,0)" />
<polygon points=" 252,372 218,372 235,401 252,372" fill="rgb(254,255,0)" />
<polygon points=" 167,323 150,352 184,352 167,323" fill="rgb(254,255,0)" />
<polygon points=" 184,313 167,284 150,313 184,313" fill="rgb(254,255,0)" />
<polygon points=" 201,343 218,313 184,313 201,343" fill="rgb(254,255,0)" />
<polygon points=" 184,372 218,372 201,343 184,372" fill="rgb(254,255,0)" />
<polygon points=" 150,372 167,401 184,372 150,372" fill="rgb(254,255,0)" />
<polygon points=" 133,343 116,372 150,372 133,343" fill="rgb(254,255,0)" />
<polygon points=" 150,313 116,313 133,343 150,313" fill="rgb(254,255,0)" />
<polygon points=" 184,216 150,216 167,245 184,216" fill="rgb(254,255,0)" />
<polygon points=" 184,196 167,167 150,196 184,196" fill="rgb(254,255,0)" />
<polygon points=" 201,225 218,196 184,196 201,225" fill="rgb(254,255,0)" />
<polygon points=" 184,255 218,255 201,225 184,255" fill="rgb(254,255,0)" />
<polygon points=" 150,255 167,284 184,255 150,255" fill="rgb(254,255,0)" />
<polygon points=" 133,225 116,255 150,255 133,225" fill="rgb(254,255,0)" />
<polygon points=" 150,196 116,196 133,225 150,196" fill="rgb(254,255,0)" />
<polygon points=" 274,287 269,277 263,287 274,287" fill="rgb(255,0,126)" />
<polygon points=" 274,274 269,264 263,274 274,274" fill="rgb(255,0,126)" />
<polygon points=" 280,284 286,274 274,274 280,284" fill="rgb(255,0,126)" />
<polygon points=" 274,294 286,294 280,284 274,294" fill="rgb(255,0,126)" />
<polygon points=" 263,294 269,304 274,294 263,294" fill="rgb(255,0,126)" />
<polygon points=" 257,284 252,294 263,294 257,284" fill="rgb(255,0,126)" />
<polygon points=" 263,274 252,274 257,284 263,274" fill="rgb(255,0,126)" />
<polygon points=" 274,248 269,238 263,248 274,248" fill="rgb(255,0,126)" />
<polygon points=" 274,235 269,225 263,235 274,235" fill="rgb(255,0,126)" />
<polygon points=" 280,245 286,235 274,235 280,245" fill="rgb(255,0,126)" />
<polygon points=" 274,255 286,255 280,245 274,255" fill="rgb(255,0,126)" />
<polygon points=" 263,255 269,264 274,255 263,255" fill="rgb(255,0,126)" />
<polygon points=" 257,245 252,255 263,255 257,245" fill="rgb(255,0,126)" />
<polygon points=" 263,235 252,235 257,245 263,235" fill="rgb(255,0,126)" />
<polygon points=" 303,271 308,261 297,261 303,271" fill="rgb(255,0,126)" />
<polygon points=" 308,255 303,245 297,255 308,255" fill="rgb(255,0,126)" />
<polygon points=" 314,264 319,255 308,255 314,264" fill="rgb(255,0,126)" />
<polygon points=" 308,274 319,274 314,264 308,274" fill="rgb(255,0,126)" />
<polygon points=" 297,274 303,284 308,274 297,274" fill="rgb(255,0,126)" />
<polygon points=" 291,264 286,274 297,274 291,264" fill="rgb(255,0,126)" />
<polygon points=" 297,255 286,255 291,264 297,255" fill="rgb(255,0,126)" />
<polygon points=" 297,307 308,307 303,297 297,307" fill="rgb(255,0,126)" />
<polygon points=" 308,294 303,284 297,294 308,294" fill="rgb(255,0,126)" />
<polygon points=" 314,304 319,294 308,294 314,304" fill="rgb(255,0,126)" />
<polygon points=" 308,313 319,313 314,304 308,313" fill="rgb(255,0,126)" />
<polygon points=" 297,313 303,323 308,313 297,313" fill="rgb(255,0,126)" />
<polygon points=" 291,304 286,313 297,313 291,304" fill="rgb(255,0,126)" />
<polygon points=" 297,294 286,294 291,304 297,294" fill="rgb(255,0,126)" />
<polygon points=" 263,320 269,330 274,320 263,320" fill="rgb(255,0,126)" />
<polygon points=" 274,313 269,304 263,313 274,313" fill="rgb(255,0,126)" />
<polygon points=" 280,323 286,313 274,313 280,323" fill="rgb(255,0,126)" />
<polygon points=" 274,333 286,333 280,323 274,333" fill="rgb(255,0,126)" />
<polygon points=" 263,333 269,343 274,333 263,333" fill="rgb(255,0,126)" />
<polygon points=" 257,323 252,333 263,333 257,323" fill="rgb(255,0,126)" />
<polygon points=" 263,313 252,313 257,323 263,313" fill="rgb(255,0,126)" />
<polygon points=" 235,297 229,307 240,307 235,297" fill="rgb(255,0,126)" />
<polygon points=" 240,294 235,284 229,294 240,294" fill="rgb(255,0,126)" />
<polygon points=" 246,304 252,294 240,294 246,304" fill="rgb(255,0,126)" />
<polygon points=" 240,313 252,313 246,304 240,313" fill="rgb(255,0,126)" />
<polygon points=" 229,313 235,323 240,313 229,313" fill="rgb(255,0,126)" />
<polygon points=" 223,304 218,313 229,313 223,304" fill="rgb(255,0,126)" />
<polygon points=" 229,294 218,294 223,304 229,294" fill="rgb(255,0,126)" />
<polygon points=" 240,261 229,261 235,271 240,261" fill="rgb(255,0,126)" />
<polygon points=" 240,255 235,245 229,255 240,255" fill="rgb(255,0,126)" />
<polygon points=" 246,264 252,255 240,255 246,264" fill="rgb(255,0,126)" />
<polygon points=" 240,274 252,274 246,264 240,274" fill="rgb(255,0,126)" />
<polygon points=" 229,274 235,284 240,274 229,274" fill="rgb(255,0,126)" />
<polygon points=" 223,264 218,274 229,274 223,264" fill="rgb(255,0,126)" />
<polygon points=" 229,255 218,255 223,264 229,255" fill="rgb(255,0,126)" />
<polygon points=" 274,170 269,160 263,170 274,170" fill="rgb(255,0,126)" />
<polygon points=" 274,157 269,147 263,157 274,157" fill="rgb(255,0,126)" />
<polygon points=" 280,167 286,157 274,157 280,167" fill="rgb(255,0,126)" />
<polygon points=" 274,176 286,176 280,167 274,176" fill="rgb(255,0,126)" />
<polygon points=" 263,176 269,186 274,176 263,176" fill="rgb(255,0,126)" />
<polygon points=" 257,167 252,176 263,176 257,167" fill="rgb(255,0,126)" />
<polygon points=" 263,157 252,157 257,167 263,157" fill="rgb(255,0,126)" />
<polygon points=" 274,131 269,121 263,131 274,131" fill="rgb(255,0,126)" />
<polygon points=" 274,118 269,108 263,118 274,118" fill="rgb(255,0,126)" />
<polygon points=" 280,128 286,118 274,118 280,128" fill="rgb(255,0,126)" />
<polygon points=" 274,137 286,137 280,128 274,137" fill="rgb(255,0,126)" />
<polygon points=" 263,137 269,147 274,137 263,137" fill="rgb(255,0,126)" />
<polygon points=" 257,128 252,137 263,137 257,128" fill="rgb(255,0,126)" />
<polygon points=" 263,118 252,118 257,128 263,118" fill="rgb(255,0,126)" />
<polygon points=" 303,154 308,144 297,144 303,154" fill="rgb(255,0,126)" />
<polygon points=" 308,137 303,128 297,137 308,137" fill="rgb(255,0,126)" />
<polygon points=" 314,147 319,137 308,137 314,147" fill="rgb(255,0,126)" />
<polygon points=" 308,157 319,157 314,147 308,157" fill="rgb(255,0,126)" />
<polygon points=" 297,157 303,167 308,157 297,157" fill="rgb(255,0,126)" />
<polygon points=" 291,147 286,157 297,157 291,147" fill="rgb(255,0,126)" />
<polygon points=" 297,137 286,137 291,147 297,137" fill="rgb(255,0,126)" />
<polygon points=" 297,189 308,189 303,180 297,189" fill="rgb(255,0,126)" />
<polygon points=" 308,176 303,167 297,176 308,176" fill="rgb(255,0,126)" />
<polygon points=" 314,186 319,176 308,176 314,186" fill="rgb(255,0,126)" />
<polygon points=" 308,196 319,196 314,186 308,196" fill="rgb(255,0,126)" />
<polygon points=" 297,196 303,206 308,196 297,196" fill="rgb(255,0,126)" />
<polygon points=" 291,186 286,196 297,196 291,186" fill="rgb(255,0,126)" />
<polygon points=" 297,176 286,176 291,186 297,176" fill="rgb(255,0,126)" />
<polygon points=" 263,203 269,212 274,203 263,203" fill="rgb(255,0,126)" />
<polygon points=" 274,196 269,186 263,196 274,196" fill="rgb(255,0,126)" />
<polygon points=" 280,206 286,196 274,196 280,206" fill="rgb(255,0,126)" />
<polygon points=" 274,216 286,216 280,206 274,216" fill="rgb(255,0,126)" />
<polygon points=" 263,216 269,225 274,216 263,216" fill="rgb(255,0,126)" />
<polygon points=" 257,206 252,216 263,216 257,206" fill="rgb(255,0,126)" />
<polygon points=" 263,196 252,196 257,206 263,196" fill="rgb(255,0,126)" />
<polygon points=" 235,180 229,189 240,189 235,180" fill="rgb(255,0,126)" />
<polygon points=" 240,176 235,167 229,176 240,176" fill="rgb(255,0,126)" />
<polygon points=" 246,186 252,176 240,176 246,186" fill="rgb(255,0,126)" />
<polygon points=" 240,196 252,196 246,186 240,196" fill="rgb(255,0,126)" />
<polygon points=" 229,196 235,206 240,196 229,196" fill="rgb(255,0,126)" />
<polygon points=" 223,186 218,196 229,196 223,186" fill="rgb(255,0,126)" />
<polygon points=" 229,176 218,176 223,186 229,176" fill="rgb(255,0,126)" />
<polygon points=" 240,144 229,144 235,154 240,144" fill="rgb(255,0,126)" />
<polygon points=" 240,137 235,128 229,137 240,137" fill="rgb(255,0,126)" />
<polygon points=" 246,147 252,137 240,137 246,147" fill="rgb(255,0,126)" />
<polygon points=" 240,157 252,157 246,147 240,157" fill="rgb(255,0,126)" />
<polygon points=" 229,157 235,167 240,157 229,157" fill="rgb(255,0,126)" />
<polygon points=" 223,147 218,157 229,157 223,147" fill="rgb(255,0,126)" />
<polygon points=" 229,137 218,137 223,147 229,137" fill="rgb(255,0,126)" />
<polygon points=" 370,232 376,222 365,222 370,232" fill="rgb(255,0,126)" />
<polygon points=" 376,216 370,206 365,216 376,216" fill="rgb(255,0,126)" />
<polygon points=" 382,225 387,216 376,216 382,225" fill="rgb(255,0,126)" />
<polygon points=" 376,235 387,235 382,225 376,235" fill="rgb(255,0,126)" />
<polygon points=" 365,235 370,245 376,235 365,235" fill="rgb(255,0,126)" />
<polygon points=" 359,225 353,235 365,235 359,225" fill="rgb(255,0,126)" />
<polygon points=" 365,216 353,216 359,225 365,216" fill="rgb(255,0,126)" />
<polygon points=" 376,189 370,180 365,189 376,189" fill="rgb(255,0,126)" />
<polygon points=" 376,176 370,167 365,176 376,176" fill="rgb(255,0,126)" />
<polygon points=" 382,186 387,176 376,176 382,186" fill="rgb(255,0,126)" />
<polygon points=" 376,196 387,196 382,186 376,196" fill="rgb(255,0,126)" />
<polygon points=" 365,196 370,206 376,196 365,196" fill="rgb(255,0,126)" />
<polygon points=" 359,186 353,196 365,196 359,186" fill="rgb(255,0,126)" />
<polygon points=" 365,176 353,176 359,186 365,176" fill="rgb(255,0,126)" />
<polygon points=" 404,212 410,203 398,203 404,212" fill="rgb(255,0,126)" />
<polygon points=" 410,196 404,186 398,196 410,196" fill="rgb(255,0,126)" />
<polygon points=" 415,206 421,196 410,196 415,206" fill="rgb(255,0,126)" />
<polygon points=" 410,216 421,216 415,206 410,216" fill="rgb(255,0,126)" />
<polygon points=" 398,216 404,225 410,216 398,216" fill="rgb(255,0,126)" />
<polygon points=" 393,206 387,216 398,216 393,206" fill="rgb(255,0,126)" />
<polygon points=" 398,196 387,196 393,206 398,196" fill="rgb(255,0,126)" />
<polygon points=" 398,248 410,248 404,238 398,248" fill="rgb(255,0,126)" />
<polygon points=" 410,235 404,225 398,235 410,235" fill="rgb(255,0,126)" />
<polygon points=" 415,245 421,235 410,235 415,245" fill="rgb(255,0,126)" />
<polygon points=" 410,255 421,255 415,245 410,255" fill="rgb(255,0,126)" />
<polygon points=" 398,255 404,264 410,255 398,255" fill="rgb(255,0,126)" />
<polygon points=" 393,245 387,255 398,255 393,245" fill="rgb(255,0,126)" />
<polygon points=" 398,235 387,235 393,245 398,235" fill="rgb(255,0,126)" />
<polygon points=" 365,261 370,271 376,261 365,261" fill="rgb(255,0,126)" />
<polygon points=" 376,255 370,245 365,255 376,255" fill="rgb(255,0,126)" />
<polygon points=" 382,264 387,255 376,255 382,264" fill="rgb(255,0,126)" />
<polygon points=" 376,274 387,274 382,264 376,274" fill="rgb(255,0,126)" />
<polygon points=" 365,274 370,284 376,274 365,274" fill="rgb(255,0,126)" />
<polygon points=" 359,264 353,274 365,274 359,264" fill="rgb(255,0,126)" />
<polygon points=" 365,255 353,255 359,264 365,255" fill="rgb(255,0,126)" />
<polygon points=" 336,238 331,248 342,248 336,238" fill="rgb(255,0,126)" />
<polygon points=" 342,235 336,225 331,235 342,235" fill="rgb(255,0,126)" />
<polygon points=" 348,245 353,235 342,235 348,245" fill="rgb(255,0,126)" />
<polygon points=" 342,255 353,255 348,245 342,255" fill="rgb(255,0,126)" />
<polygon points=" 331,255 336,264 342,255 331,255" fill="rgb(255,0,126)" />
<polygon points=" 325,245 319,255 331,255 325,245" fill="rgb(255,0,126)" />
<polygon points=" 331,235 319,235 325,245 331,235" fill="rgb(255,0,126)" />
<polygon points=" 342,203 331,203 336,212 342,203" fill="rgb(255,0,126)" />
<polygon points=" 342,196 336,186 331,196 342,196" fill="rgb(255,0,126)" />
<polygon points=" 348,206 353,196 342,196 348,206" fill="rgb(255,0,126)" />
<polygon points=" 342,216 353,216 348,206 342,216" fill="rgb(255,0,126)" />
<polygon points=" 331,216 336,225 342,216 331,216" fill="rgb(255,0,126)" />
<polygon points=" 325,206 319,216 331,216 325,206" fill="rgb(255,0,126)" />
<polygon points=" 331,196 319,196 325,206 331,196" fill="rgb(255,0,126)" />
<polygon points=" 365,346 376,346 370,336 365,346" fill="rgb(255,0,126)" />
<polygon points=" 376,333 370,323 365,333 376,333" fill="rgb(255,0,126)" />
<polygon points=" 382,343 387,333 376,333 382,343" fill="rgb(255,0,126)" />
<polygon points=" 376,352 387,352 382,343 376,352" fill="rgb(255,0,126)" />
<polygon points=" 365,352 370,362 376,352 365,352" fill="rgb(255,0,126)" />
<polygon points=" 359,343 353,352 365,352 359,343" fill="rgb(255,0,126)" />
<polygon points=" 365,333 353,333 359,343 365,333" fill="rgb(255,0,126)" />
<polygon points=" 376,307 370,297 365,307 376,307" fill="rgb(255,0,126)" />
<polygon points=" 376,294 370,284 365,294 376,294" fill="rgb(255,0,126)" />
<polygon points=" 382,304 387,294 376,294 382,304" fill="rgb(255,0,126)" />
<polygon points=" 376,313 387,313 382,304 376,313" fill="rgb(255,0,126)" />
<polygon points=" 365,313 370,323 376,313 365,313" fill="rgb(255,0,126)" />
<polygon points=" 359,304 353,313 365,313 359,304" fill="rgb(255,0,126)" />
<polygon points=" 365,294 353,294 359,304 365,294" fill="rgb(255,0,126)" />
<polygon points=" 404,330 410,320 398,320 404,330" fill="rgb(255,0,126)" />
<polygon points=" 410,313 404,304 398,313 410,313" fill="rgb(255,0,126)" />
<polygon points=" 415,323 421,313 410,313 415,323" fill="rgb(255,0,126)" />
<polygon points=" 410,333 421,333 415,323 410,333" fill="rgb(255,0,126)" />
<polygon points=" 398,333 404,343 410,333 398,333" fill="rgb(255,0,126)" />
<polygon points=" 393,323 387,333 398,333 393,323" fill="rgb(255,0,126)" />
<polygon points=" 398,313 387,313 393,323 398,313" fill="rgb(255,0,126)" />
<polygon points=" 398,365 410,365 404,356 398,365" fill="rgb(255,0,126)" />
<polygon points=" 410,352 404,343 398,352 410,352" fill="rgb(255,0,126)" />
<polygon points=" 415,362 421,352 410,352 415,362" fill="rgb(255,0,126)" />
<polygon points=" 410,372 421,372 415,362 410,372" fill="rgb(255,0,126)" />
<polygon points=" 398,372 404,382 410,372 398,372" fill="rgb(255,0,126)" />
<polygon points=" 393,362 387,372 398,372 393,362" fill="rgb(255,0,126)" />
<polygon points=" 398,352 387,352 393,362 398,352" fill="rgb(255,0,126)" />
<polygon points=" 365,379 370,388 376,379 365,379" fill="rgb(255,0,126)" />
<polygon points=" 376,372 370,362 365,372 376,372" fill="rgb(255,0,126)" />
<polygon points=" 382,382 387,372 376,372 382,382" fill="rgb(255,0,126)" />
<polygon points=" 376,392 387,392 382,382 376,392" fill="rgb(255,0,126)" />
<polygon points=" 365,392 370,401 376,392 365,392" fill="rgb(255,0,126)" />
<polygon points=" 359,382 353,392 365,392 359,382" fill="rgb(255,0,126)" />
<polygon points=" 365,372 353,372 359,382 365,372" fill="rgb(255,0,126)" />
<polygon points=" 336,356 331,365 342,365 336,356" fill="rgb(255,0,126)" />
<polygon points=" 342,352 336,343 331,352 342,352" fill="rgb(255,0,126)" />
<polygon points=" 348,362 353,352 342,352 348,362" fill="rgb(255,0,126)" />
<polygon points=" 342,372 353,372 348,362 342,372" fill="rgb(255,0,126)" />
<polygon points=" 331,372 336,382 342,372 331,372" fill="rgb(255,0,126)" />
<polygon points=" 325,362 319,372 331,372 325,362" fill="rgb(255,0,126)" />
<polygon points=" 331,352 319,352 325,362 331,352" fill="rgb(255,0,126)" />
<polygon points=" 342,320 331,320 336,330 342,320" fill="rgb(255,0,126)" />
<polygon points=" 342,313 336,304 331,313 342,313" fill="rgb(255,0,126)" />
<polygon points=" 348,323 353,313 342,313 348,323" fill="rgb(255,0,126)" />
<polygon points=" 342,333 353,333 348,323 342,333" fill="rgb(255,0,126)" />
<polygon points=" 331,333 336,343 342,333 331,333" fill="rgb(255,0,126)" />
<polygon points=" 325,323 319,333 331,333 325,323" fill="rgb(255,0,126)" />
<polygon points=" 331,313 319,313 325,323 331,313" fill="rgb(255,0,126)" />
<polygon points=" 263,398 269,408 274,398 263,398" fill="rgb(255,0,126)" />
<polygon points=" 274,392 269,382 263,392 274,392" fill="rgb(255,0,126)" />
<polygon points=" 280,401 286,392 274,392 280,401" fill="rgb(255,0,126)" />
<polygon points=" 274,411 286,411 280,401 274,411" fill="rgb(255,0,126)" />
<polygon points=" 263,411 269,421 274,411 263,411" fill="rgb(255,0,126)" />
<polygon points=" 257,401 252,411 263,411 257,401" fill="rgb(255,0,126)" />
<polygon points=" 263,392 252,392 257,401 263,392" fill="rgb(255,0,126)" />
<polygon points=" 274,365 269,356 263,365 274,365" fill="rgb(255,0,126)" />
<polygon points=" 274,352 269,343 263,352 274,352" fill="rgb(255,0,126)" />
<polygon points=" 280,362 286,352 274,352 280,362" fill="rgb(255,0,126)" />
<polygon points=" 274,372 286,372 280,362 274,372" fill="rgb(255,0,126)" />
<polygon points=" 263,372 269,382 274,372 263,372" fill="rgb(255,0,126)" />
<polygon points=" 257,362 252,372 263,372 257,362" fill="rgb(255,0,126)" />
<polygon points=" 263,352 252,352 257,362 263,352" fill="rgb(255,0,126)" />
<polygon points=" 303,388 308,379 297,379 303,388" fill="rgb(255,0,126)" />
<polygon points=" 308,372 303,362 297,372 308,372" fill="rgb(255,0,126)" />
<polygon points=" 314,382 319,372 308,372 314,382" fill="rgb(255,0,126)" />
<polygon points=" 308,392 319,392 314,382 308,392" fill="rgb(255,0,126)" />
<polygon points=" 297,392 303,401 308,392 297,392" fill="rgb(255,0,126)" />
<polygon points=" 291,382 286,392 297,392 291,382" fill="rgb(255,0,126)" />
<polygon points=" 297,372 286,372 291,382 297,372" fill="rgb(255,0,126)" />
<polygon points=" 297,424 308,424 303,414 297,424" fill="rgb(255,0,126)" />
<polygon points=" 308,411 303,401 297,411 308,411" fill="rgb(255,0,126)" />
<polygon points=" 314,421 319,411 308,411 314,421" fill="rgb(255,0,126)" />
<polygon points=" 308,431 319,431 314,421 308,431" fill="rgb(255,0,126)" />
<polygon points=" 297,431 303,440 308,431 297,431" fill="rgb(255,0,126)" />
<polygon points=" 291,421 286,431 297,431 291,421" fill="rgb(255,0,126)" />
<polygon points=" 297,411 286,411 291,421 297,411" fill="rgb(255,0,126)" />
<polygon points=" 263,437 269,447 274,437 263,437" fill="rgb(255,0,126)" />
<polygon points=" 274,431 269,421 263,431 274,431" fill="rgb(255,0,126)" />
<polygon points=" 280,440 286,431 274,431 280,440" fill="rgb(255,0,126)" />
<polygon points=" 274,450 286,450 280,440 274,450" fill="rgb(255,0,126)" />
<polygon points=" 263,450 269,460 274,450 263,450" fill="rgb(255,0,126)" />
<polygon points=" 257,440 252,450 263,450 257,440" fill="rgb(255,0,126)" />
<polygon points=" 263,431 252,431 257,440 263,431" fill="rgb(255,0,126)" />
<polygon points=" 235,414 229,424 240,424 235,414" fill="rgb(255,0,126)" />
<polygon points=" 240,411 235,401 229,411 240,411" fill="rgb(255,0,126)" />
<polygon points=" 246,421 252,411 240,411 246,421" fill="rgb(255,0,126)" />
<polygon points=" 240,431 252,431 246,421 240,431" fill="rgb(255,0,126)" />
<polygon points=" 229,431 235,440 240,431 229,431" fill="rgb(255,0,126)" />
<polygon points=" 223,421 218,431 229,431 223,421" fill="rgb(255,0,126)" />
<polygon points=" 229,411 218,411 223,421 229,411" fill="rgb(255,0,126)" />
<polygon points=" 240,379 229,379 235,388 240,379" fill="rgb(255,0,126)" />
<polygon points=" 240,372 235,362 229,372 240,372" fill="rgb(255,0,126)" />
<polygon points=" 246,382 252,372 240,372 246,382" fill="rgb(255,0,126)" />
<polygon points=" 240,392 252,392 246,382 240,392" fill="rgb(255,0,126)" />
<polygon points=" 229,392 235,401 240,392 229,392" fill="rgb(255,0,126)" />
<polygon points=" 223,382 218,392 229,392 223,382" fill="rgb(255,0,126)" />
<polygon points=" 229,372 218,372 223,382 229,372" fill="rgb(255,0,126)" />
<polygon points=" 167,336 161,346 173,346 167,336" fill="rgb(255,0,126)" />
<polygon points=" 173,333 167,323 161,333 173,333" fill="rgb(255,0,126)" />
<polygon points=" 178,343 184,333 173,333 178,343" fill="rgb(255,0,126)" />
<polygon points=" 173,352 184,352 178,343 173,352" fill="rgb(255,0,126)" />
<polygon points=" 161,352 167,362 173,352 161,352" fill="rgb(255,0,126)" />
<polygon points=" 156,343 150,352 161,352 156,343" fill="rgb(255,0,126)" />
<polygon points=" 161,333 150,333 156,343 161,333" fill="rgb(255,0,126)" />
<polygon points=" 173,307 167,297 161,307 173,307" fill="rgb(255,0,126)" />
<polygon points=" 173,294 167,284 161,294 173,294" fill="rgb(255,0,126)" />
<polygon points=" 178,304 184,294 173,294 178,304" fill="rgb(255,0,126)" />
<polygon points=" 173,313 184,313 178,304 173,313" fill="rgb(255,0,126)" />
<polygon points=" 161,313 167,323 173,313 161,313" fill="rgb(255,0,126)" />
<polygon points=" 156,304 150,313 161,313 156,304" fill="rgb(255,0,126)" />
<polygon points=" 161,294 150,294 156,304 161,294" fill="rgb(255,0,126)" />
<polygon points=" 201,330 207,320 195,320 201,330" fill="rgb(255,0,126)" />
<polygon points=" 207,313 201,304 195,313 207,313" fill="rgb(255,0,126)" />
<polygon points=" 212,323 218,313 207,313 212,323" fill="rgb(255,0,126)" />
<polygon points=" 207,333 218,333 212,323 207,333" fill="rgb(255,0,126)" />
<polygon points=" 195,333 201,343 207,333 195,333" fill="rgb(255,0,126)" />
<polygon points=" 190,323 184,333 195,333 190,323" fill="rgb(255,0,126)" />
<polygon points=" 195,313 184,313 190,323 195,313" fill="rgb(255,0,126)" />
<polygon points=" 195,365 207,365 201,356 195,365" fill="rgb(255,0,126)" />
<polygon points=" 207,352 201,343 195,352 207,352" fill="rgb(255,0,126)" />
<polygon points=" 212,362 218,352 207,352 212,362" fill="rgb(255,0,126)" />
<polygon points=" 207,372 218,372 212,362 207,372" fill="rgb(255,0,126)" />
<polygon points=" 195,372 201,382 207,372 195,372" fill="rgb(255,0,126)" />
<polygon points=" 190,362 184,372 195,372 190,362" fill="rgb(255,0,126)" />
<polygon points=" 195,352 184,352 190,362 195,352" fill="rgb(255,0,126)" />
<polygon points=" 161,379 167,388 173,379 161,379" fill="rgb(255,0,126)" />
<polygon points=" 173,372 167,362 161,372 173,372" fill="rgb(255,0,126)" />
<polygon points=" 178,382 184,372 173,372 178,382" fill="rgb(255,0,126)" />
<polygon points=" 173,392 184,392 178,382 173,392" fill="rgb(255,0,126)" />
<polygon points=" 161,392 167,401 173,392 161,392" fill="rgb(255,0,126)" />
<polygon points=" 156,382 150,392 161,392 156,382" fill="rgb(255,0,126)" />
<polygon points=" 161,372 150,372 156,382 161,372" fill="rgb(255,0,126)" />
<polygon points=" 133,356 128,365 139,365 133,356" fill="rgb(255,0,126)" />
<polygon points=" 139,352 133,343 128,352 139,352" fill="rgb(255,0,126)" />
<polygon points=" 144,362 150,352 139,352 144,362" fill="rgb(255,0,126)" />
<polygon points=" 139,372 150,372 144,362 139,372" fill="rgb(255,0,126)" />
<polygon points=" 128,372 133,382 139,372 128,372" fill="rgb(255,0,126)" />
<polygon points=" 122,362 116,372 128,372 122,362" fill="rgb(255,0,126)" />
<polygon points=" 128,352 116,352 122,362 128,352" fill="rgb(255,0,126)" />
<polygon points=" 139,320 128,320 133,330 139,320" fill="rgb(255,0,126)" />
<polygon points=" 139,313 133,304 128,313 139,313" fill="rgb(255,0,126)" />
<polygon points=" 144,323 150,313 139,313 144,323" fill="rgb(255,0,126)" />
<polygon points=" 139,333 150,333 144,323 139,333" fill="rgb(255,0,126)" />
<polygon points=" 128,333 133,343 139,333 128,333" fill="rgb(255,0,126)" />
<polygon points=" 122,323 116,333 128,333 122,323" fill="rgb(255,0,126)" />
<polygon points=" 128,313 116,313 122,323 128,313" fill="rgb(255,0,126)" />
<polygon points=" 173,222 161,222 167,232 173,222" fill="rgb(255,0,126)" />
<polygon points=" 173,216 167,206 161,216 173,216" fill="rgb(255,0,126)" />
<polygon points=" 178,225 184,216 173,216 178,225" fill="rgb(255,0,126)" />
<polygon points=" 173,235 184,235 178,225 173,235" fill="rgb(255,0,126)" />
<polygon points=" 161,235 167,245 173,235 161,235" fill="rgb(255,0,126)" />
<polygon points=" 156,225 150,235 161,235 156,225" fill="rgb(255,0,126)" />
<polygon points=" 161,216 150,216 156,225 161,216" fill="rgb(255,0,126)" />
<polygon points=" 173,189 167,180 161,189 173,189" fill="rgb(255,0,126)" />
<polygon points=" 173,176 167,167 161,176 173,176" fill="rgb(255,0,126)" />
<polygon points=" 178,186 184,176 173,176 178,186" fill="rgb(255,0,126)" />
<polygon points=" 173,196 184,196 178,186 173,196" fill="rgb(255,0,126)" />
<polygon points=" 161,196 167,206 173,196 161,196" fill="rgb(255,0,126)" />
<polygon points=" 156,186 150,196 161,196 156,186" fill="rgb(255,0,126)" />
<polygon points=" 161,176 150,176 156,186 161,176" fill="rgb(255,0,126)" />
<polygon points=" 201,212 207,203 195,203 201,212" fill="rgb(255,0,126)" />
<polygon points=" 207,196 201,186 195,196 207,196" fill="rgb(255,0,126)" />
<polygon points=" 212,206 218,196 207,196 212,206" fill="rgb(255,0,126)" />
<polygon points=" 207,216 218,216 212,206 207,216" fill="rgb(255,0,126)" />
<polygon points=" 195,216 201,225 207,216 195,216" fill="rgb(255,0,126)" />
<polygon points=" 190,206 184,216 195,216 190,206" fill="rgb(255,0,126)" />
<polygon points=" 195,196 184,196 190,206 195,196" fill="rgb(255,0,126)" />
<polygon points=" 195,248 207,248 201,238 195,248" fill="rgb(255,0,126)" />
<polygon points=" 207,235 201,225 195,235 207,235" fill="rgb(255,0,126)" />
<polygon points=" 212,245 218,235 207,235 212,245" fill="rgb(255,0,126)" />
<polygon points=" 207,255 218,255 212,245 207,255" fill="rgb(255,0,126)" />
<polygon points=" 195,255 201,264 207,255 195,255" fill="rgb(255,0,126)" />
<polygon points=" 190,245 184,255 195,255 190,245" fill="rgb(255,0,126)" />
<polygon points=" 195,235 184,235 190,245 195,235" fill="rgb(255,0,126)" />
<polygon points=" 161,261 167,271 173,261 161,261" fill="rgb(255,0,126)" />
<polygon points=" 173,255 167,245 161,255 173,255" fill="rgb(255,0,126)" />
<polygon points=" 178,264 184,255 173,255 178,264" fill="rgb(255,0,126)" />
<polygon points=" 173,274 184,274 178,264 173,274" fill="rgb(255,0,126)" />
<polygon points=" 161,274 167,284 173,274 161,274" fill="rgb(255,0,126)" />
<polygon points=" 156,264 150,274 161,274 156,264" fill="rgb(255,0,126)" />
<polygon points=" 161,255 150,255 156,264 161,255" fill="rgb(255,0,126)" />
<polygon points=" 133,238 128,248 139,248 133,238" fill="rgb(255,0,126)" />
<polygon points=" 139,235 133,225 128,235 139,235" fill="rgb(255,0,126)" />
<polygon points=" 144,245 150,235 139,235 144,245" fill="rgb(255,0,126)" />
<polygon points=" 139,255 150,255 144,245 139,255" fill="rgb(255,0,126)" />
<polygon points=" 128,255 133,264 139,255 128,255" fill="rgb(255,0,126)" />
<polygon points=" 122,245 116,255 128,255 122,245" fill="rgb(255,0,126)" />
<polygon points=" 128,235 116,235 122,245 128,235" fill="rgb(255,0,126)" />
<polygon points=" 139,203 128,203 133,212 139,203" fill="rgb(255,0,126)" />
<polygon points=" 139,196 133,186 128,196 139,196" fill="rgb(255,0,126)" />
<polygon points=" 144,206 150,196 139,196 144,206" fill="rgb(255,0,126)" />
<polygon points=" 139,216 150,216 144,206 139,216" fill="rgb(255,0,126)" />
<polygon points=" 128,216 133,225 139,216 128,216" fill="rgb(255,0,126)" />
<polygon points=" 122,206 116,216 128,216 122,206" fill="rgb(255,0,126)" />
<polygon points=" 128,196 116,196 122,206 128,196" fill="rgb(255,0,126)" />
<polygon points=" 345,328 269,196 192,328 345,328" fill="rgb(0,255,0)" />
<polygon points=" 294,299 269,255 243,299 294,299" fill="rgb(255,128,0)" />
<polygon points=" 294,240 269,196 243,240 294,240" fill="rgb(255,128,0)" />
<polygon points=" 319,284 345,240 294,240 319,284" fill="rgb(255,128,0)" />
<polygon points=" 294,328 345,328 319,284 294,328" fill="rgb(255,128,0)" />
<polygon points=" 243,328 269,372 294,328 243,328" fill="rgb(255,128,0)" />
<polygon points=" 218,284 192,328 243,328 218,284" fill="rgb(255,128,0)" />
<polygon points=" 243,240 192,240 218,284 243,240" fill="rgb(255,128,0)" />
<polygon points=" 277,289 269,274 260,289 277,289" fill="rgb(255,0,254)" />
<polygon points=" 277,269 269,255 260,269 277,269" fill="rgb(255,0,254)" />
<polygon points=" 286,284 294,269 277,269 286,284" fill="rgb(255,0,254)" />
<polygon points=" 277,299 294,299 286,284 277,299" fill="rgb(255,0,254)" />
<polygon points=" 260,299 269,313 277,299 260,299" fill="rgb(255,0,254)" />
<polygon points=" 252,284 243,299 260,299 252,284" fill="rgb(255,0,254)" />
<polygon points=" 260,269 243,269 252,284 260,269" fill="rgb(255,0,254)" />
<polygon points=" 277,230 269,216 260,230 277,230" fill="rgb(255,0,254)" />
<polygon points=" 277,211 269,196 260,211 277,211" fill="rgb(255,0,254)" />
<polygon points=" 286,225 294,211 277,211 286,225" fill="rgb(255,0,254)" />
<polygon points=" 277,240 294,240 286,225 277,240" fill="rgb(255,0,254)" />
<polygon points=" 260,240 269,255 277,240 260,240" fill="rgb(255,0,254)" />
<polygon points=" 252,225 243,240 260,240 252,225" fill="rgb(255,0,254)" />
<polygon points=" 260,211 243,211 252,225 260,211" fill="rgb(255,0,254)" />
<polygon points=" 319,264 328,250 311,250 319,264" fill="rgb(255,0,254)" />
<polygon points=" 328,240 319,225 311,240 328,240" fill="rgb(255,0,254)" />
<polygon points=" 336,255 345,240 328,240 336,255" fill="rgb(255,0,254)" />
<polygon points=" 328,269 345,269 336,255 328,269" fill="rgb(255,0,254)" />
<polygon points=" 311,269 319,284 328,269 311,269" fill="rgb(255,0,254)" />
<polygon points=" 303,255 294,269 311,269 303,255" fill="rgb(255,0,254)" />
<polygon points=" 311,240 294,240 303,255 311,240" fill="rgb(255,0,254)" />
<polygon points=" 311,318 328,318 319,304 311,318" fill="rgb(255,0,254)" />
<polygon points=" 328,299 319,284 311,299 328,299" fill="rgb(255,0,254)" />
<polygon points=" 336,313 345,299 328,299 336,313" fill="rgb(255,0,254)" />
<polygon points=" 328,328 345,328 336,313 328,328" fill="rgb(255,0,254)" />
<polygon points=" 311,328 319,343 328,328 311,328" fill="rgb(255,0,254)" />
<polygon points=" 303,313 294,328 311,328 303,313" fill="rgb(255,0,254)" />
<polygon points=" 311,299 294,299 303,313 311,299" fill="rgb(255,0,254)" />
<polygon points=" 260,338 269,352 277,338 260,338" fill="rgb(255,0,254)" />
<polygon points=" 277,328 269,313 260,328 277,328" fill="rgb(255,0,254)" />
<polygon points=" 286,343 294,328 277,328 286,343" fill="rgb(255,0,254)" />
<polygon points=" 277,357 294,357 286,343 277,357" fill="rgb(255,0,254)" />
<polygon points=" 260,357 269,372 277,357 260,357" fill="rgb(255,0,254)" />
<polygon points=" 252,343 243,357 260,357 252,343" fill="rgb(255,0,254)" />
<polygon points=" 260,328 243,328 252,343 260,328" fill="rgb(255,0,254)" />
<polygon points=" 218,304 209,318 226,318 218,304" fill="rgb(255,0,254)" />
<polygon points=" 226,299 218,284 209,299 226,299" fill="rgb(255,0,254)" />
<polygon points=" 235,313 243,299 226,299 235,313" fill="rgb(255,0,254)" />
<polygon points=" 226,328 243,328 235,313 226,328" fill="rgb(255,0,254)" />
<polygon points=" 209,328 218,343 226,328 209,328" fill="rgb(255,0,254)" />
<polygon points=" 201,313 192,328 209,328 201,313" fill="rgb(255,0,254)" />
<polygon points=" 209,299 192,299 201,313 209,299" fill="rgb(255,0,254)" />
<polygon points=" 226,250 209,250 218,264 226,250" fill="rgb(255,0,254)" />
<polygon points=" 226,240 218,225 209,240 226,240" fill="rgb(255,0,254)" />
<polygon points=" 235,255 243,240 226,240 235,255" fill="rgb(255,0,254)" />
<polygon points=" 226,269 243,269 235,255 226,269" fill="rgb(255,0,254)" />
<polygon points=" 209,269 218,284 226,269 209,269" fill="rgb(255,0,254)" />
<polygon points=" 201,255 192,269 209,269 201,255" fill="rgb(255,0,254)" />
<polygon points=" 209,240 192,240 201,255 209,240" fill="rgb(255,0,254)" />
<polygon points=" 271,286 269,281 266,286 271,286" fill="rgb(0,126,255)" />
<polygon points=" 271,279 269,274 266,279 271,279" fill="rgb(0,126,255)" />
<polygon points=" 274,284 277,279 271,279 274,284" fill="rgb(0,126,255)" />
<polygon points=" 271,289 277,289 274,284 271,289" fill="rgb(0,126,255)" />
<polygon points=" 266,289 269,294 271,289 266,289" fill="rgb(0,126,255)" />
<polygon points=" 263,284 260,289 266,289 263,284" fill="rgb(0,126,255)" />
<polygon points=" 266,279 260,279 263,284 266,279" fill="rgb(0,126,255)" />
<polygon points=" 271,266 269,261 266,266 271,266" fill="rgb(0,126,255)" />
<polygon points=" 271,260 269,255 266,260 271,260" fill="rgb(0,126,255)" />
<polygon points=" 274,264 277,260 271,260 274,264" fill="rgb(0,126,255)" />
<polygon points=" 271,269 277,269 274,264 271,269" fill="rgb(0,126,255)" />
<polygon points=" 266,269 269,274 271,269 266,269" fill="rgb(0,126,255)" />
<polygon points=" 263,264 260,269 266,269 263,264" fill="rgb(0,126,255)" />
<polygon points=" 266,260 260,260 263,264 266,260" fill="rgb(0,126,255)" />
<polygon points=" 286,277 288,273 283,273 286,277" fill="rgb(0,126,255)" />
<polygon points=" 288,269 286,264 283,269 288,269" fill="rgb(0,126,255)" />
<polygon points=" 291,274 294,269 288,269 291,274" fill="rgb(0,126,255)" />
<polygon points=" 288,279 294,279 291,274 288,279" fill="rgb(0,126,255)" />
<polygon points=" 283,279 286,284 288,279 283,279" fill="rgb(0,126,255)" />
<polygon points=" 280,274 277,279 283,279 280,274" fill="rgb(0,126,255)" />
<polygon points=" 283,269 277,269 280,274 283,269" fill="rgb(0,126,255)" />
<polygon points=" 283,295 288,295 286,291 283,295" fill="rgb(0,126,255)" />
<polygon points=" 288,289 286,284 283,289 288,289" fill="rgb(0,126,255)" />
<polygon points=" 291,294 294,289 288,289 291,294" fill="rgb(0,126,255)" />
<polygon points=" 288,299 294,299 291,294 288,299" fill="rgb(0,126,255)" />
<polygon points=" 283,299 286,304 288,299 283,299" fill="rgb(0,126,255)" />
<polygon points=" 280,294 277,299 283,299 280,294" fill="rgb(0,126,255)" />
<polygon points=" 283,289 277,289 280,294 283,289" fill="rgb(0,126,255)" />
<polygon points=" 266,302 269,307 271,302 266,302" fill="rgb(0,126,255)" />
<polygon points=" 271,299 269,294 266,299 271,299" fill="rgb(0,126,255)" />
<polygon points=" 274,304 277,299 271,299 274,304" fill="rgb(0,126,255)" />
<polygon points=" 271,308 277,308 274,304 271,308" fill="rgb(0,126,255)" />
<polygon points=" 266,308 269,313 271,308 266,308" fill="rgb(0,126,255)" />
<polygon points=" 263,304 260,308 266,308 263,304" fill="rgb(0,126,255)" />
<polygon points=" 266,299 260,299 263,304 266,299" fill="rgb(0,126,255)" />
<polygon points=" 252,291 249,295 255,295 252,291" fill="rgb(0,126,255)" />
<polygon points=" 255,289 252,284 249,289 255,289" fill="rgb(0,126,255)" />
<polygon points=" 257,294 260,289 255,289 257,294" fill="rgb(0,126,255)" />
<polygon points=" 255,299 260,299 257,294 255,299" fill="rgb(0,126,255)" />
<polygon points=" 249,299 252,304 255,299 249,299" fill="rgb(0,126,255)" />
<polygon points=" 246,294 243,299 249,299 246,294" fill="rgb(0,126,255)" />
<polygon points=" 249,289 243,289 246,294 249,289" fill="rgb(0,126,255)" />
<polygon points=" 255,273 249,273 252,277 255,273" fill="rgb(0,126,255)" />
<polygon points=" 255,269 252,264 249,269 255,269" fill="rgb(0,126,255)" />
<polygon points=" 257,274 260,269 255,269 257,274" fill="rgb(0,126,255)" />
<polygon points=" 255,279 260,279 257,274 255,279" fill="rgb(0,126,255)" />
<polygon points=" 249,279 252,284 255,279 249,279" fill="rgb(0,126,255)" />
<polygon points=" 246,274 243,279 249,279 246,274" fill="rgb(0,126,255)" />
<polygon points=" 249,269 243,269 246,274 249,269" fill="rgb(0,126,255)" />
<polygon points=" 271,227 269,222 266,227 271,227" fill="rgb(0,126,255)" />
<polygon points=" 271,220 269,216 266,220 271,220" fill="rgb(0,126,255)" />
<polygon points=" 274,225 277,220 271,220 274,225" fill="rgb(0,126,255)" />
<polygon points=" 271,230 277,230 274,225 271,230" fill="rgb(0,126,255)" />
<polygon points=" 266,230 269,235 271,230 266,230" fill="rgb(0,126,255)" />
<polygon points=" 263,225 260,230 266,230 263,225" fill="rgb(0,126,255)" />
<polygon points=" 266,220 260,220 263,225 266,220" fill="rgb(0,126,255)" />
<polygon points=" 271,207 269,203 266,207 271,207" fill="rgb(0,126,255)" />
<polygon points=" 271,201 269,196 266,201 271,201" fill="rgb(0,126,255)" />
<polygon points=" 274,206 277,201 271,201 274,206" fill="rgb(0,126,255)" />
<polygon points=" 271,211 277,211 274,206 271,211" fill="rgb(0,126,255)" />
<polygon points=" 266,211 269,216 271,211 266,211" fill="rgb(0,126,255)" />
<polygon points=" 263,206 260,211 266,211 263,206" fill="rgb(0,126,255)" />
<polygon points=" 266,201 260,201 263,206 266,201" fill="rgb(0,126,255)" />
<polygon points=" 286,219 288,214 283,214 286,219" fill="rgb(0,126,255)" />
<polygon points=" 288,211 286,206 283,211 288,211" fill="rgb(0,126,255)" />
<polygon points=" 291,216 294,211 288,211 291,216" fill="rgb(0,126,255)" />
<polygon points=" 288,220 294,220 291,216 288,220" fill="rgb(0,126,255)" />
<polygon points=" 283,220 286,225 288,220 283,220" fill="rgb(0,126,255)" />
<polygon points=" 280,216 277,220 283,220 280,216" fill="rgb(0,126,255)" />
<polygon points=" 283,211 277,211 280,216 283,211" fill="rgb(0,126,255)" />
<polygon points=" 283,237 288,237 286,232 283,237" fill="rgb(0,126,255)" />
<polygon points=" 288,230 286,225 283,230 288,230" fill="rgb(0,126,255)" />
<polygon points=" 291,235 294,230 288,230 291,235" fill="rgb(0,126,255)" />
<polygon points=" 288,240 294,240 291,235 288,240" fill="rgb(0,126,255)" />
<polygon points=" 283,240 286,245 288,240 283,240" fill="rgb(0,126,255)" />
<polygon points=" 280,235 277,240 283,240 280,235" fill="rgb(0,126,255)" />
<polygon points=" 283,230 277,230 280,235 283,230" fill="rgb(0,126,255)" />
<polygon points=" 266,243 269,248 271,243 266,243" fill="rgb(0,126,255)" />
<polygon points=" 271,240 269,235 266,240 271,240" fill="rgb(0,126,255)" />
<polygon points=" 274,245 277,240 271,240 274,245" fill="rgb(0,126,255)" />
<polygon points=" 271,250 277,250 274,245 271,250" fill="rgb(0,126,255)" />
<polygon points=" 266,250 269,255 271,250 266,250" fill="rgb(0,126,255)" />
<polygon points=" 263,245 260,250 266,250 263,245" fill="rgb(0,126,255)" />
<polygon points=" 266,240 260,240 263,245 266,240" fill="rgb(0,126,255)" />
<polygon points=" 252,232 249,237 255,237 252,232" fill="rgb(0,126,255)" />
<polygon points=" 255,230 252,225 249,230 255,230" fill="rgb(0,126,255)" />
<polygon points=" 257,235 260,230 255,230 257,235" fill="rgb(0,126,255)" />
<polygon points=" 255,240 260,240 257,235 255,240" fill="rgb(0,126,255)" />
<polygon points=" 249,240 252,245 255,240 249,240" fill="rgb(0,126,255)" />
<polygon points=" 246,235 243,240 249,240 246,235" fill="rgb(0,126,255)" />
<polygon points=" 249,230 243,230 246,235 249,230" fill="rgb(0,126,255)" />
<polygon points=" 255,214 249,214 252,219 255,214" fill="rgb(0,126,255)" />
<polygon points=" 255,211 252,206 249,211 255,211" fill="rgb(0,126,255)" />
<polygon points=" 257,216 260,211 255,211 257,216" fill="rgb(0,126,255)" />
<polygon points=" 255,220 260,220 257,216 255,220" fill="rgb(0,126,255)" />
<polygon points=" 249,220 252,225 255,220 249,220" fill="rgb(0,126,255)" />
<polygon points=" 246,216 243,220 249,220 246,216" fill="rgb(0,126,255)" />
<polygon points=" 249,211 243,211 246,216 249,211" fill="rgb(0,126,255)" />
<polygon points=" 319,258 322,253 317,253 319,258" fill="rgb(0,126,255)" />
<polygon points=" 322,250 319,245 317,250 322,250" fill="rgb(0,126,255)" />
<polygon points=" 325,255 328,250 322,250 325,255" fill="rgb(0,126,255)" />
<polygon points=" 322,260 328,260 325,255 322,260" fill="rgb(0,126,255)" />
<polygon points=" 317,260 319,264 322,260 317,260" fill="rgb(0,126,255)" />
<polygon points=" 314,255 311,260 317,260 314,255" fill="rgb(0,126,255)" />
<polygon points=" 317,250 311,250 314,255 317,250" fill="rgb(0,126,255)" />
<polygon points=" 322,237 319,232 317,237 322,237" fill="rgb(0,126,255)" />
<polygon points=" 322,230 319,225 317,230 322,230" fill="rgb(0,126,255)" />
<polygon points=" 325,235 328,230 322,230 325,235" fill="rgb(0,126,255)" />
<polygon points=" 322,240 328,240 325,235 322,240" fill="rgb(0,126,255)" />
<polygon points=" 317,240 319,245 322,240 317,240" fill="rgb(0,126,255)" />
<polygon points=" 314,235 311,240 317,240 314,235" fill="rgb(0,126,255)" />
<polygon points=" 317,230 311,230 314,235 317,230" fill="rgb(0,126,255)" />
<polygon points=" 336,248 339,243 334,243 336,248" fill="rgb(0,126,255)" />
<polygon points=" 339,240 336,235 334,240 339,240" fill="rgb(0,126,255)" />
<polygon points=" 342,245 345,240 339,240 342,245" fill="rgb(0,126,255)" />
<polygon points=" 339,250 345,250 342,245 339,250" fill="rgb(0,126,255)" />
<polygon points=" 334,250 336,255 339,250 334,250" fill="rgb(0,126,255)" />
<polygon points=" 331,245 328,250 334,250 331,245" fill="rgb(0,126,255)" />
<polygon points=" 334,240 328,240 331,245 334,240" fill="rgb(0,126,255)" />
<polygon points=" 334,266 339,266 336,261 334,266" fill="rgb(0,126,255)" />
<polygon points=" 339,260 336,255 334,260 339,260" fill="rgb(0,126,255)" />
<polygon points=" 342,264 345,260 339,260 342,264" fill="rgb(0,126,255)" />
<polygon points=" 339,269 345,269 342,264 339,269" fill="rgb(0,126,255)" />
<polygon points=" 334,269 336,274 339,269 334,269" fill="rgb(0,126,255)" />
<polygon points=" 331,264 328,269 334,269 331,264" fill="rgb(0,126,255)" />
<polygon points=" 334,260 328,260 331,264 334,260" fill="rgb(0,126,255)" />
<polygon points=" 317,273 319,277 322,273 317,273" fill="rgb(0,126,255)" />
<polygon points=" 322,269 319,264 317,269 322,269" fill="rgb(0,126,255)" />
<polygon points=" 325,274 328,269 322,269 325,274" fill="rgb(0,126,255)" />
<polygon points=" 322,279 328,279 325,274 322,279" fill="rgb(0,126,255)" />
<polygon points=" 317,279 319,284 322,279 317,279" fill="rgb(0,126,255)" />
<polygon points=" 314,274 311,279 317,279 314,274" fill="rgb(0,126,255)" />
<polygon points=" 317,269 311,269 314,274 317,269" fill="rgb(0,126,255)" />
<polygon points=" 303,261 300,266 305,266 303,261" fill="rgb(0,126,255)" />
<polygon points=" 305,260 303,255 300,260 305,260" fill="rgb(0,126,255)" />
<polygon points=" 308,264 311,260 305,260 308,264" fill="rgb(0,126,255)" />
<polygon points=" 305,269 311,269 308,264 305,269" fill="rgb(0,126,255)" />
<polygon points=" 300,269 303,274 305,269 300,269" fill="rgb(0,126,255)" />
<polygon points=" 297,264 294,269 300,269 297,264" fill="rgb(0,126,255)" />
<polygon points=" 300,260 294,260 297,264 300,260" fill="rgb(0,126,255)" />
<polygon points=" 305,243 300,243 303,248 305,243" fill="rgb(0,126,255)" />
<polygon points=" 305,240 303,235 300,240 305,240" fill="rgb(0,126,255)" />
<polygon points=" 308,245 311,240 305,240 308,245" fill="rgb(0,126,255)" />
<polygon points=" 305,250 311,250 308,245 305,250" fill="rgb(0,126,255)" />
<polygon points=" 300,250 303,255 305,250 300,250" fill="rgb(0,126,255)" />
<polygon points=" 297,245 294,250 300,250 297,245" fill="rgb(0,126,255)" />
<polygon points=" 300,240 294,240 297,245 300,240" fill="rgb(0,126,255)" />
<polygon points=" 317,315 322,315 319,310 317,315" fill="rgb(0,126,255)" />
<polygon points=" 322,308 319,304 317,308 322,308" fill="rgb(0,126,255)" />
<polygon points=" 325,313 328,308 322,308 325,313" fill="rgb(0,126,255)" />
<polygon points=" 322,318 328,318 325,313 322,318" fill="rgb(0,126,255)" />
<polygon points=" 317,318 319,323 322,318 317,318" fill="rgb(0,126,255)" />
<polygon points=" 314,313 311,318 317,318 314,313" fill="rgb(0,126,255)" />
<polygon points=" 317,308 311,308 314,313 317,308" fill="rgb(0,126,255)" />
<polygon points=" 322,295 319,291 317,295 322,295" fill="rgb(0,126,255)" />
<polygon points=" 322,289 319,284 317,289 322,289" fill="rgb(0,126,255)" />
<polygon points=" 325,294 328,289 322,289 325,294" fill="rgb(0,126,255)" />
<polygon points=" 322,299 328,299 325,294 322,299" fill="rgb(0,126,255)" />
<polygon points=" 317,299 319,304 322,299 317,299" fill="rgb(0,126,255)" />
<polygon points=" 314,294 311,299 317,299 314,294" fill="rgb(0,126,255)" />
<polygon points=" 317,289 311,289 314,294 317,289" fill="rgb(0,126,255)" />
<polygon points=" 336,307 339,302 334,302 336,307" fill="rgb(0,126,255)" />
<polygon points=" 339,299 336,294 334,299 339,299" fill="rgb(0,126,255)" />
<polygon points=" 342,304 345,299 339,299 342,304" fill="rgb(0,126,255)" />
<polygon points=" 339,308 345,308 342,304 339,308" fill="rgb(0,126,255)" />
<polygon points=" 334,308 336,313 339,308 334,308" fill="rgb(0,126,255)" />
<polygon points=" 331,304 328,308 334,308 331,304" fill="rgb(0,126,255)" />
<polygon points=" 334,299 328,299 331,304 334,299" fill="rgb(0,126,255)" />
<polygon points=" 334,325 339,325 336,320 334,325" fill="rgb(0,126,255)" />
<polygon points=" 339,318 336,313 334,318 339,318" fill="rgb(0,126,255)" />
<polygon points=" 342,323 345,318 339,318 342,323" fill="rgb(0,126,255)" />
<polygon points=" 339,328 345,328 342,323 339,328" fill="rgb(0,126,255)" />
<polygon points=" 334,328 336,333 339,328 334,328" fill="rgb(0,126,255)" />
<polygon points=" 331,323 328,328 334,328 331,323" fill="rgb(0,126,255)" />
<polygon points=" 334,318 328,318 331,323 334,318" fill="rgb(0,126,255)" />
<polygon points=" 317,331 319,336 322,331 317,331" fill="rgb(0,126,255)" />
<polygon points=" 322,328 319,323 317,328 322,328" fill="rgb(0,126,255)" />
<polygon points=" 325,333 328,328 322,328 325,333" fill="rgb(0,126,255)" />
<polygon points=" 322,338 328,338 325,333 322,338" fill="rgb(0,126,255)" />
<polygon points=" 317,338 319,343 322,338 317,338" fill="rgb(0,126,255)" />
<polygon points=" 314,333 311,338 317,338 314,333" fill="rgb(0,126,255)" />
<polygon points=" 317,328 311,328 314,333 317,328" fill="rgb(0,126,255)" />
<polygon points=" 303,320 300,325 305,325 303,320" fill="rgb(0,126,255)" />
<polygon points=" 305,318 303,313 300,318 305,318" fill="rgb(0,126,255)" />
<polygon points=" 308,323 311,318 305,318 308,323" fill="rgb(0,126,255)" />
<polygon points=" 305,328 311,328 308,323 305,328" fill="rgb(0,126,255)" />
<polygon points=" 300,328 303,333 305,328 300,328" fill="rgb(0,126,255)" />
<polygon points=" 297,323 294,328 300,328 297,323" fill="rgb(0,126,255)" />
<polygon points=" 300,318 294,318 297,323 300,318" fill="rgb(0,126,255)" />
<polygon points=" 305,302 300,302 303,307 305,302" fill="rgb(0,126,255)" />
<polygon points=" 305,299 303,294 300,299 305,299" fill="rgb(0,126,255)" />
<polygon points=" 308,304 311,299 305,299 308,304" fill="rgb(0,126,255)" />
<polygon points=" 305,308 311,308 308,304 305,308" fill="rgb(0,126,255)" />
<polygon points=" 300,308 303,313 305,308 300,308" fill="rgb(0,126,255)" />
<polygon points=" 297,304 294,308 300,308 297,304" fill="rgb(0,126,255)" />
<polygon points=" 300,299 294,299 297,304 300,299" fill="rgb(0,126,255)" />
<polygon points=" 266,341 269,346 271,341 266,341" fill="rgb(0,126,255)" />
<polygon points=" 271,338 269,333 266,338 271,338" fill="rgb(0,126,255)" />
<polygon points=" 274,343 277,338 271,338 274,343" fill="rgb(0,126,255)" />
<polygon points=" 271,348 277,348 274,343 271,348" fill="rgb(0,126,255)" />
<polygon points=" 266,348 269,352 271,348 266,348" fill="rgb(0,126,255)" />
<polygon points=" 263,343 260,348 266,348 263,343" fill="rgb(0,126,255)" />
<polygon points=" 266,338 260,338 263,343 266,338" fill="rgb(0,126,255)" />
<polygon points=" 271,325 269,320 266,325 271,325" fill="rgb(0,126,255)" />
<polygon points=" 271,318 269,313 266,318 271,318" fill="rgb(0,126,255)" />
<polygon points=" 274,323 277,318 271,318 274,323" fill="rgb(0,126,255)" />
<polygon points=" 271,328 277,328 274,323 271,328" fill="rgb(0,126,255)" />
<polygon points=" 266,328 269,333 271,328 266,328" fill="rgb(0,126,255)" />
<polygon points=" 263,323 260,328 266,328 263,323" fill="rgb(0,126,255)" />
<polygon points=" 266,318 260,318 263,323 266,318" fill="rgb(0,126,255)" />
<polygon points=" 286,336 288,331 283,331 286,336" fill="rgb(0,126,255)" />
<polygon points=" 288,328 286,323 283,328 288,328" fill="rgb(0,126,255)" />
<polygon points=" 291,333 294,328 288,328 291,333" fill="rgb(0,126,255)" />
<polygon points=" 288,338 294,338 291,333 288,338" fill="rgb(0,126,255)" />
<polygon points=" 283,338 286,343 288,338 283,338" fill="rgb(0,126,255)" />
<polygon points=" 280,333 277,338 283,338 280,333" fill="rgb(0,126,255)" />
<polygon points=" 283,328 277,328 280,333 283,328" fill="rgb(0,126,255)" />
<polygon points=" 283,354 288,354 286,349 283,354" fill="rgb(0,126,255)" />
<polygon points=" 288,348 286,343 283,348 288,348" fill="rgb(0,126,255)" />
<polygon points=" 291,352 294,348 288,348 291,352" fill="rgb(0,126,255)" />
<polygon points=" 288,357 294,357 291,352 288,357" fill="rgb(0,126,255)" />
<polygon points=" 283,357 286,362 288,357 283,357" fill="rgb(0,126,255)" />
<polygon points=" 280,352 277,357 283,357 280,352" fill="rgb(0,126,255)" />
<polygon points=" 283,348 277,348 280,352 283,348" fill="rgb(0,126,255)" />
<polygon points=" 266,361 269,365 271,361 266,361" fill="rgb(0,126,255)" />
<polygon points=" 271,357 269,352 266,357 271,357" fill="rgb(0,126,255)" />
<polygon points=" 274,362 277,357 271,357 274,362" fill="rgb(0,126,255)" />
<polygon points=" 271,367 277,367 274,362 271,367" fill="rgb(0,126,255)" />
<polygon points=" 266,367 269,372 271,367 266,367" fill="rgb(0,126,255)" />
<polygon points=" 263,362 260,367 266,367 263,362" fill="rgb(0,126,255)" />
<polygon points=" 266,357 260,357 263,362 266,357" fill="rgb(0,126,255)" />
<polygon points=" 252,349 249,354 255,354 252,349" fill="rgb(0,126,255)" />
<polygon points=" 255,348 252,343 249,348 255,348" fill="rgb(0,126,255)" />
<polygon points=" 257,352 260,348 255,348 257,352" fill="rgb(0,126,255)" />
<polygon points=" 255,357 260,357 257,352 255,357" fill="rgb(0,126,255)" />
<polygon points=" 249,357 252,362 255,357 249,357" fill="rgb(0,126,255)" />
<polygon points=" 246,352 243,357 249,357 246,352" fill="rgb(0,126,255)" />
<polygon points=" 249,348 243,348 246,352 249,348" fill="rgb(0,126,255)" />
<polygon points=" 255,331 249,331 252,336 255,331" fill="rgb(0,126,255)" />
<polygon points=" 255,328 252,323 249,328 255,328" fill="rgb(0,126,255)" />
<polygon points=" 257,333 260,328 255,328 257,333" fill="rgb(0,126,255)" />
<polygon points=" 255,338 260,338 257,333 255,338" fill="rgb(0,126,255)" />
<polygon points=" 249,338 252,343 255,338 249,338" fill="rgb(0,126,255)" />
<polygon points=" 246,333 243,338 249,338 246,333" fill="rgb(0,126,255)" />
<polygon points=" 249,328 243,328 246,333 249,328" fill="rgb(0,126,255)" />
<polygon points=" 218,310 215,315 221,315 218,310" fill="rgb(0,126,255)" />
<polygon points=" 221,308 218,304 215,308 221,308" fill="rgb(0,126,255)" />
<polygon points=" 223,313 226,308 221,308 223,313" fill="rgb(0,126,255)" />
<polygon points=" 221,318 226,318 223,313 221,318" fill="rgb(0,126,255)" />
<polygon points=" 215,318 218,323 221,318 215,318" fill="rgb(0,126,255)" />
<polygon points=" 212,313 209,318 215,318 212,313" fill="rgb(0,126,255)" />
<polygon points=" 215,308 209,308 212,313 215,308" fill="rgb(0,126,255)" />
<polygon points=" 221,295 218,291 215,295 221,295" fill="rgb(0,126,255)" />
<polygon points=" 221,289 218,284 215,289 221,289" fill="rgb(0,126,255)" />
<polygon points=" 223,294 226,289 221,289 223,294" fill="rgb(0,126,255)" />
<polygon points=" 221,299 226,299 223,294 221,299" fill="rgb(0,126,255)" />
<polygon points=" 215,299 218,304 221,299 215,299" fill="rgb(0,126,255)" />
<polygon points=" 212,294 209,299 215,299 212,294" fill="rgb(0,126,255)" />
<polygon points=" 215,289 209,289 212,294 215,289" fill="rgb(0,126,255)" />
<polygon points=" 235,307 238,302 232,302 235,307" fill="rgb(0,126,255)" />
<polygon points=" 238,299 235,294 232,299 238,299" fill="rgb(0,126,255)" />
<polygon points=" 240,304 243,299 238,299 240,304" fill="rgb(0,126,255)" />
<polygon points=" 238,308 243,308 240,304 238,308" fill="rgb(0,126,255)" />
<polygon points=" 232,308 235,313 238,308 232,308" fill="rgb(0,126,255)" />
<polygon points=" 229,304 226,308 232,308 229,304" fill="rgb(0,126,255)" />
<polygon points=" 232,299 226,299 229,304 232,299" fill="rgb(0,126,255)" />
<polygon points=" 232,325 238,325 235,320 232,325" fill="rgb(0,126,255)" />
<polygon points=" 238,318 235,313 232,318 238,318" fill="rgb(0,126,255)" />
<polygon points=" 240,323 243,318 238,318 240,323" fill="rgb(0,126,255)" />
<polygon points=" 238,328 243,328 240,323 238,328" fill="rgb(0,126,255)" />
<polygon points=" 232,328 235,333 238,328 232,328" fill="rgb(0,126,255)" />
<polygon points=" 229,323 226,328 232,328 229,323" fill="rgb(0,126,255)" />
<polygon points=" 232,318 226,318 229,323 232,318" fill="rgb(0,126,255)" />
<polygon points=" 215,331 218,336 221,331 215,331" fill="rgb(0,126,255)" />
<polygon points=" 221,328 218,323 215,328 221,328" fill="rgb(0,126,255)" />
<polygon points=" 223,333 226,328 221,328 223,333" fill="rgb(0,126,255)" />
<polygon points=" 221,338 226,338 223,333 221,338" fill="rgb(0,126,255)" />
<polygon points=" 215,338 218,343 221,338 215,338" fill="rgb(0,126,255)" />
<polygon points=" 212,333 209,338 215,338 212,333" fill="rgb(0,126,255)" />
<polygon points=" 215,328 209,328 212,333 215,328" fill="rgb(0,126,255)" />
<polygon points=" 201,320 198,325 204,325 201,320" fill="rgb(0,126,255)" />
<polygon points=" 204,318 201,313 198,318 204,318" fill="rgb(0,126,255)" />
<polygon points=" 207,323 209,318 204,318 207,323" fill="rgb(0,126,255)" />
<polygon points=" 204,328 209,328 207,323 204,328" fill="rgb(0,126,255)" />
<polygon points=" 198,328 201,333 204,328 198,328" fill="rgb(0,126,255)" />
<polygon points=" 195,323 192,328 198,328 195,323" fill="rgb(0,126,255)" />
<polygon points=" 198,318 192,318 195,323 198,318" fill="rgb(0,126,255)" />
<polygon points=" 204,302 198,302 201,307 204,302" fill="rgb(0,126,255)" />
<polygon points=" 204,299 201,294 198,299 204,299" fill="rgb(0,126,255)" />
<polygon points=" 207,304 209,299 204,299 207,304" fill="rgb(0,126,255)" />
<polygon points=" 204,308 209,308 207,304 204,308" fill="rgb(0,126,255)" />
<polygon points=" 198,308 201,313 204,308 198,308" fill="rgb(0,126,255)" />
<polygon points=" 195,304 192,308 198,308 195,304" fill="rgb(0,126,255)" />
<polygon points=" 198,299 192,299 195,304 198,299" fill="rgb(0,126,255)" />
<polygon points=" 221,253 215,253 218,258 221,253" fill="rgb(0,126,255)" />
<polygon points=" 221,250 218,245 215,250 221,250" fill="rgb(0,126,255)" />
<polygon points=" 223,255 226,250 221,250 223,255" fill="rgb(0,126,255)" />
<polygon points=" 221,260 226,260 223,255 221,260" fill="rgb(0,126,255)" />
<polygon points=" 215,260 218,264 221,260 215,260" fill="rgb(0,126,255)" />
<polygon points=" 212,255 209,260 215,260 212,255" fill="rgb(0,126,255)" />
<polygon points=" 215,250 209,250 212,255 215,250" fill="rgb(0,126,255)" />
<polygon points=" 221,237 218,232 215,237 221,237" fill="rgb(0,126,255)" />
<polygon points=" 221,230 218,225 215,230 221,230" fill="rgb(0,126,255)" />
<polygon points=" 223,235 226,230 221,230 223,235" fill="rgb(0,126,255)" />
<polygon points=" 221,240 226,240 223,235 221,240" fill="rgb(0,126,255)" />
<polygon points=" 215,240 218,245 221,240 215,240" fill="rgb(0,126,255)" />
<polygon points=" 212,235 209,240 215,240 212,235" fill="rgb(0,126,255)" />
<polygon points=" 215,230 209,230 212,235 215,230" fill="rgb(0,126,255)" />
<polygon points=" 235,248 238,243 232,243 235,248" fill="rgb(0,126,255)" />
<polygon points=" 238,240 235,235 232,240 238,240" fill="rgb(0,126,255)" />
<polygon points=" 240,245 243,240 238,240 240,245" fill="rgb(0,126,255)" />
<polygon points=" 238,250 243,250 240,245 238,250" fill="rgb(0,126,255)" />
<polygon points=" 232,250 235,255 238,250 232,250" fill="rgb(0,126,255)" />
<polygon points=" 229,245 226,250 232,250 229,245" fill="rgb(0,126,255)" />
<polygon points=" 232,240 226,240 229,245 232,240" fill="rgb(0,126,255)" />
<polygon points=" 232,266 238,266 235,261 232,266" fill="rgb(0,126,255)" />
<polygon points=" 238,260 235,255 232,260 238,260" fill="rgb(0,126,255)" />
<polygon points=" 240,264 243,260 238,260 240,264" fill="rgb(0,126,255)" />
<polygon points=" 238,269 243,269 240,264 238,269" fill="rgb(0,126,255)" />
<polygon points=" 232,269 235,274 238,269 232,269" fill="rgb(0,126,255)" />
<polygon points=" 229,264 226,269 232,269 229,264" fill="rgb(0,126,255)" />
<polygon points=" 232,260 226,260 229,264 232,260" fill="rgb(0,126,255)" />
<polygon points=" 215,273 218,277 221,273 215,273" fill="rgb(0,126,255)" />
<polygon points=" 221,269 218,264 215,269 221,269" fill="rgb(0,126,255)" />
<polygon points=" 223,274 226,269 221,269 223,274" fill="rgb(0,126,255)" />
<polygon points=" 221,279 226,279 223,274 221,279" fill="rgb(0,126,255)" />
<polygon points=" 215,279 218,284 221,279 215,279" fill="rgb(0,126,255)" />
<polygon points=" 212,274 209,279 215,279 212,274" fill="rgb(0,126,255)" />
<polygon points=" 215,269 209,269 212,274 215,269" fill="rgb(0,126,255)" />
<polygon points=" 201,261 198,266 204,266 201,261" fill="rgb(0,126,255)" />
<polygon points=" 204,260 201,255 198,260 204,260" fill="rgb(0,126,255)" />
<polygon points=" 207,264 209,260 204,260 207,264" fill="rgb(0,126,255)" />
<polygon points=" 204,269 209,269 207,264 204,269" fill="rgb(0,126,255)" />
<polygon points=" 198,269 201,274 204,269 198,269" fill="rgb(0,126,255)" />
<polygon points=" 195,264 192,269 198,269 195,264" fill="rgb(0,126,255)" />
<polygon points=" 198,260 192,260 195,264 198,260" fill="rgb(0,126,255)" />
<polygon points=" 204,243 198,243 201,248 204,243" fill="rgb(0,126,255)" />
<polygon points=" 204,240 201,235 198,240 204,240" fill="rgb(0,126,255)" />
<polygon points=" 207,245 209,240 204,240 207,245" fill="rgb(0,126,255)" />
<polygon points=" 204,250 209,250 207,245 204,250" fill="rgb(0,126,255)" />
<polygon points=" 198,250 201,255 204,250 198,250" fill="rgb(0,126,255)" />
<polygon points=" 195,245 192,250 198,250 195,245" fill="rgb(0,126,255)" />
<polygon points=" 198,240 192,240 195,245 198,240" fill="rgb(0,126,255)" /></svg>