<svg xmlns="http://www.w3.org/2000/svg"
xmlns:xlink="http://www.w3.org/1999/xlink"
version="1.1" baseProfile="full"
width="137" height="172">
<line x1="99.5" y1="20.0" x2="89.0" y2="53.0" stroke="rgb(255,0,0)" stroke-width="1.5"/>
<line x1="89.0" y1="53.0" x2="66.0" y2="86.0" stroke="rgb(255,0,0)" stroke-width="1.5"/>
<line x1="66.0" y1="86.0" x2="66.0" y2="119.0" stroke="rgb(255,0,0)" stroke-width="1.5"/>
<line x1="66.0" y1="119.0" x2="30.0" y2="152.0" stroke="rgb(255,0,0)" stroke-width="1.5"/>
<polygon points=" 18,140 42,140 42,164 18,164" fill="rgb(170,255,170)"/>
<text x="20.0" y="157.0" font-family="courier" font-size="16" fill="rgb(0,0,0)">-5</text>
<line x1="66.0" y1="119.0" x2="66.0" y2="152.0" stroke="rgb(255,0,0)" stroke-width="1.5"/>
<polygon points=" 49,140 83,140 83,164 49,164" fill="rgb(170,255,170)"/>
<text x="51.0" y="157.0" font-family="courier" font-size="16" fill="rgb(0,0,0)">222</text>
<line x1="66.0" y1="119.0" x2="102.0" y2="152.0" stroke="rgb(255,0,0)" stroke-width="1.5"/>
<polygon points=" 90,140 114,140 114,164 90,164" fill="rgb(170,255,170)"/>
<text x="92.0" y="157.0" font-family="courier" font-size="16" fill="rgb(0,0,0)">29</text>
<polygon points=" 54,107 78,107 78,131 54,131" fill="rgb(170,255,170)"/>
<text x="56.0" y="124.0" font-family="courier" font-size="16" fill="rgb(0,0,0)">[]</text>
<polygon points=" 34,74 98,74 98,98 34,98" fill="rgb(170,255,170)"/>
<text x="36.0" y="91.0" font-family="courier" font-size="16" fill="rgb(0,0,0)">length</text>
<line x1="89.0" y1="53.0" x2="112.0" y2="86.0" stroke="rgb(255,0,0)" stroke-width="1.5"/>
<polygon points=" 105,74 119,74 119,98 105,98" fill="rgb(170,255,170)"/>
<text x="107.0" y="91.0" font-family="courier" font-size="16" fill="rgb(0,0,0)">1</text>
<polygon points=" 82,41 96,41 96,65 82,65" fill="rgb(170,255,170)"/>
<text x="84.0" y="58.0" font-family="courier" font-size="16" fill="rgb(0,0,0)">+</text>
<line x1="99.5" y1="20.0" x2="110.0" y2="53.0" stroke="rgb(255,0,0)" stroke-width="1.5"/>
<polygon points=" 103,41 117,41 117,65 103,65" fill="rgb(255,255,170)"/>
<text x="105.0" y="58.0" font-family="courier" font-size="16" fill="rgb(0,0,0)">1</text>
<polygon points=" 92,8 106,8 106,32 92,32" fill="rgb(255,255,170)"/>
<text x="94.5" y="25.0" font-family="courier" font-size="16" fill="rgb(0,0,0)">+</text></svg>