<svg xmlns="http://www.w3.org/2000/svg"
xmlns:xlink="http://www.w3.org/1999/xlink"
version="1.1" baseProfile="full"
width="132" height="205">
<line x1="97.0" y1="20.0" x2="86.5" y2="53.0" stroke="rgb(255,0,0)" stroke-width="1.5"/>
<line x1="86.5" y1="53.0" x2="76.0" y2="86.0" stroke="rgb(255,0,0)" stroke-width="1.5"/>
<line x1="76.0" y1="86.0" x2="53.0" y2="119.0" stroke="rgb(255,0,0)" stroke-width="1.5"/>
<line x1="53.0" y1="119.0" x2="53.0" y2="152.0" stroke="rgb(255,0,0)" stroke-width="1.5"/>
<line x1="53.0" y1="152.0" x2="35.0" y2="185.0" stroke="rgb(255,0,0)" stroke-width="1.5"/>
<polygon points=" 18,173 52,173 52,197 18,197" fill="rgb(170,255,170)"/>
<text x="20.0" y="190.0" font-family="courier" font-size="16" fill="rgb(0,0,0)">222</text>
<line x1="53.0" y1="152.0" x2="71.0" y2="185.0" stroke="rgb(255,0,0)" stroke-width="1.5"/>
<polygon points=" 59,173 83,173 83,197 59,197" fill="rgb(170,255,170)"/>
<text x="61.0" y="190.0" font-family="courier" font-size="16" fill="rgb(0,0,0)">29</text>
<polygon points=" 41,140 65,140 65,164 41,164" fill="rgb(170,255,170)"/>
<text x="43.0" y="157.0" font-family="courier" font-size="16" fill="rgb(0,0,0)">[]</text>
<polygon points=" 21,107 85,107 85,131 21,131" fill="rgb(170,255,170)"/>
<text x="23.0" y="124.0" font-family="courier" font-size="16" fill="rgb(0,0,0)">length</text>
<line x1="76.0" y1="86.0" x2="99.0" y2="119.0" stroke="rgb(255,0,0)" stroke-width="1.5"/>
<polygon points=" 92,107 106,107 106,131 92,131" fill="rgb(170,255,170)"/>
<text x="94.0" y="124.0" font-family="courier" font-size="16" fill="rgb(0,0,0)">1</text>
<polygon points=" 69,74 83,74 83,98 69,98" fill="rgb(170,255,170)"/>
<text x="71.0" y="91.0" font-family="courier" font-size="16" fill="rgb(0,0,0)">+</text>
<line x1="86.5" y1="53.0" x2="97.0" y2="86.0" stroke="rgb(255,0,0)" stroke-width="1.5"/>
<polygon points=" 90,74 104,74 104,98 90,98" fill="rgb(255,255,170)"/>
<text x="92.0" y="91.0" font-family="courier" font-size="16" fill="rgb(0,0,0)">1</text>
<polygon points=" 80,41 94,41 94,65 80,65" fill="rgb(255,255,170)"/>
<text x="81.5" y="58.0" font-family="courier" font-size="16" fill="rgb(0,0,0)">+</text>
<line x1="97.0" y1="20.0" x2="107.5" y2="53.0" stroke="rgb(255,0,0)" stroke-width="1.5"/>
<polygon points=" 100,41 114,41 114,65 100,65" fill="rgb(255,255,170)"/>
<text x="102.5" y="58.0" font-family="courier" font-size="16" fill="rgb(0,0,0)">1</text>
<polygon points=" 90,8 104,8 104,32 90,32" fill="rgb(255,255,170)"/>
<text x="92.0" y="25.0" font-family="courier" font-size="16" fill="rgb(0,0,0)">+</text></svg>