<svg xmlns="http://www.w3.org/2000/svg"
xmlns:xlink="http://www.w3.org/1999/xlink"
version="1.1" baseProfile="full"
width="113" height="205">
<line x1="77.5" y1="20.0" x2="67.0" y2="53.0" stroke="rgb(255,0,0)" stroke-width="1.5"/>
<line x1="67.0" y1="53.0" x2="56.5" y2="86.0" stroke="rgb(255,0,0)" stroke-width="1.5"/>
<line x1="56.5" y1="86.0" x2="46.0" y2="119.0" stroke="rgb(255,0,0)" stroke-width="1.5"/>
<line x1="46.0" y1="119.0" x2="35.5" y2="152.0" stroke="rgb(255,0,0)" stroke-width="1.5"/>
<line x1="35.5" y1="152.0" x2="25.0" y2="185.0" stroke="rgb(255,0,0)" stroke-width="1.5"/>
<polygon points=" 18,173 32,173 32,197 18,197" fill="rgb(170,255,170)"/>
<text x="20.0" y="190.0" font-family="courier" font-size="16" fill="rgb(0,0,0)">0</text>
<line x1="35.5" y1="152.0" x2="46.0" y2="185.0" stroke="rgb(255,0,0)" stroke-width="1.5"/>
<polygon points=" 39,173 53,173 53,197 39,197" fill="rgb(255,255,170)"/>
<text x="41.0" y="190.0" font-family="courier" font-size="16" fill="rgb(0,0,0)">1</text>
<polygon points=" 28,140 42,140 42,164 28,164" fill="rgb(255,255,170)"/>
<text x="30.5" y="157.0" font-family="courier" font-size="16" fill="rgb(0,0,0)">+</text>
<line x1="46.0" y1="119.0" x2="56.5" y2="152.0" stroke="rgb(255,0,0)" stroke-width="1.5"/>
<polygon points=" 50,140 64,140 64,164 50,164" fill="rgb(255,255,170)"/>
<text x="51.5" y="157.0" font-family="courier" font-size="16" fill="rgb(0,0,0)">1</text>
<polygon points=" 39,107 53,107 53,131 39,131" fill="rgb(255,255,170)"/>
<text x="41.0" y="124.0" font-family="courier" font-size="16" fill="rgb(0,0,0)">+</text>
<line x1="56.5" y1="86.0" x2="67.0" y2="119.0" stroke="rgb(255,0,0)" stroke-width="1.5"/>
<polygon points=" 60,107 74,107 74,131 60,131" fill="rgb(255,255,170)"/>
<text x="62.0" y="124.0" font-family="courier" font-size="16" fill="rgb(0,0,0)">1</text>
<polygon points=" 50,74 64,74 64,98 50,98" fill="rgb(255,255,170)"/>
<text x="51.5" y="91.0" font-family="courier" font-size="16" fill="rgb(0,0,0)">+</text>
<line x1="67.0" y1="53.0" x2="77.5" y2="86.0" stroke="rgb(255,0,0)" stroke-width="1.5"/>
<polygon points=" 70,74 84,74 84,98 70,98" fill="rgb(255,255,170)"/>
<text x="72.5" y="91.0" font-family="courier" font-size="16" fill="rgb(0,0,0)">1</text>
<polygon points=" 60,41 74,41 74,65 60,65" fill="rgb(255,255,170)"/>
<text x="62.0" y="58.0" font-family="courier" font-size="16" fill="rgb(0,0,0)">+</text>
<line x1="77.5" y1="20.0" x2="88.0" y2="53.0" stroke="rgb(255,0,0)" stroke-width="1.5"/>
<polygon points=" 81,41 95,41 95,65 81,65" fill="rgb(255,255,170)"/>
<text x="83.0" y="58.0" font-family="courier" font-size="16" fill="rgb(0,0,0)">1</text>
<polygon points=" 70,8 84,8 84,32 70,32" fill="rgb(255,255,170)"/>
<text x="72.5" y="25.0" font-family="courier" font-size="16" fill="rgb(0,0,0)">+</text></svg>