<svg xmlns="http://www.w3.org/2000/svg"
xmlns:xlink="http://www.w3.org/1999/xlink"
version="1.1" baseProfile="full"
width="102" height="172">
<line x1="67.0" y1="20.0" x2="56.5" y2="53.0" stroke="rgb(255,0,0)" stroke-width="1.5"/>
<line x1="56.5" y1="53.0" x2="46.0" y2="86.0" stroke="rgb(255,0,0)" stroke-width="1.5"/>
<line x1="46.0" y1="86.0" x2="35.5" y2="119.0" stroke="rgb(255,0,0)" stroke-width="1.5"/>
<line x1="35.5" y1="119.0" x2="25.0" y2="152.0" stroke="rgb(255,0,0)" stroke-width="1.5"/>
<polygon points=" 18,140 32,140 32,164 18,164" fill="rgb(255,170,170)"/>
<text x="20.0" y="157.0" font-family="courier" font-size="16" fill="rgb(0,0,0)">1</text>
<line x1="35.5" y1="119.0" x2="46.0" y2="152.0" stroke="rgb(255,0,0)" stroke-width="1.5"/>
<polygon points=" 39,140 53,140 53,164 39,164" fill="rgb(255,170,170)"/>
<text x="41.0" y="157.0" font-family="courier" font-size="16" fill="rgb(0,0,0)">1</text>
<polygon points=" 28,107 42,107 42,131 28,131" fill="rgb(255,170,170)"/>
<text x="30.5" y="124.0" font-family="courier" font-size="16" fill="rgb(0,0,0)">+</text>
<line x1="46.0" y1="86.0" x2="56.5" y2="119.0" stroke="rgb(255,0,0)" stroke-width="1.5"/>
<polygon points=" 50,107 64,107 64,131 50,131" fill="rgb(255,255,170)"/>
<text x="51.5" y="124.0" font-family="courier" font-size="16" fill="rgb(0,0,0)">1</text>
<polygon points=" 39,74 53,74 53,98 39,98" fill="rgb(255,255,170)"/>
<text x="41.0" y="91.0" font-family="courier" font-size="16" fill="rgb(0,0,0)">+</text>
<line x1="56.5" y1="53.0" x2="67.0" y2="86.0" stroke="rgb(255,0,0)" stroke-width="1.5"/>
<polygon points=" 60,74 74,74 74,98 60,98" fill="rgb(255,255,170)"/>
<text x="62.0" y="91.0" font-family="courier" font-size="16" fill="rgb(0,0,0)">1</text>
<polygon points=" 50,41 64,41 64,65 50,65" fill="rgb(255,255,170)"/>
<text x="51.5" y="58.0" font-family="courier" font-size="16" fill="rgb(0,0,0)">+</text>
<line x1="67.0" y1="20.0" x2="77.5" y2="53.0" stroke="rgb(255,0,0)" stroke-width="1.5"/>
<polygon points=" 70,41 84,41 84,65 70,65" fill="rgb(255,255,170)"/>
<text x="72.5" y="58.0" font-family="courier" font-size="16" fill="rgb(0,0,0)">1</text>
<polygon points=" 60,8 74,8 74,32 60,32" fill="rgb(255,255,170)"/>
<text x="62.0" y="25.0" font-family="courier" font-size="16" fill="rgb(0,0,0)">+</text></svg>