<svg xmlns="http://www.w3.org/2000/svg"
xmlns:xlink="http://www.w3.org/1999/xlink"
version="1.1" baseProfile="full"
width="598" height="260">
<line x1="212.8125" y1="20.0" x2="89.25" y2="64.0" stroke="rgb(255,0,0)" stroke-width="1.5"/>
<line x1="89.25" y1="64.0" x2="51.0" y2="108.0" stroke="rgb(255,0,0)" stroke-width="1.5"/>
<line x1="51.0" y1="108.0" x2="30.0" y2="152.0" stroke="rgb(255,0,0)" stroke-width="1.5"/>
<polygon points=" 18,140 42,140 42,164 18,164" fill="rgb(255,255,170)"/>
<text x="20.0" y="157.0" font-family="courier" font-size="16" fill="rgb(0,0,0)">ys</text>
<line x1="51.0" y1="108.0" x2="72.0" y2="152.0" stroke="rgb(255,0,0)" stroke-width="1.5"/>
<polygon points=" 60,140 84,140 84,164 60,164" fill="rgb(255,255,170)"/>
<text x="62.0" y="157.0" font-family="courier" font-size="16" fill="rgb(0,0,0)">zs</text>
<polygon points=" 39,96 63,96 63,120 39,120" fill="rgb(255,255,170)"/>
<text x="41.0" y="113.0" font-family="courier" font-size="16" fill="rgb(0,0,0)">()</text>
<line x1="89.25" y1="64.0" x2="127.5" y2="108.0" stroke="rgb(255,0,0)" stroke-width="1.5"/>
<line x1="127.5" y1="108.0" x2="109.0" y2="152.0" stroke="rgb(255,0,0)" stroke-width="1.5"/>
<line x1="109.0" y1="152.0" x2="90.5" y2="196.0" stroke="rgb(255,0,0)" stroke-width="1.5"/>
<polygon points=" 84,184 98,184 98,208 84,208" fill="rgb(255,255,170)"/>
<text x="85.5" y="201.0" font-family="courier" font-size="16" fill="rgb(0,0,0)">5</text>
<line x1="109.0" y1="152.0" x2="127.5" y2="196.0" stroke="rgb(255,0,0)" stroke-width="1.5"/>
<polygon points=" 116,184 140,184 140,208 116,208" fill="rgb(255,255,170)"/>
<text x="117.5" y="201.0" font-family="courier" font-size="16" fill="rgb(0,0,0)">ys</text>
<polygon points=" 102,140 116,140 116,164 102,164" fill="rgb(255,255,170)"/>
<text x="104.0" y="157.0" font-family="courier" font-size="16" fill="rgb(0,0,0)">:</text>
<line x1="127.5" y1="108.0" x2="146.0" y2="152.0" stroke="rgb(255,0,0)" stroke-width="1.5"/>
<polygon points=" 134,140 158,140 158,164 134,164" fill="rgb(255,255,170)"/>
<text x="136.0" y="157.0" font-family="courier" font-size="16" fill="rgb(0,0,0)">zs</text>
<polygon points=" 116,96 140,96 140,120 116,120" fill="rgb(255,255,170)"/>
<text x="117.5" y="113.0" font-family="courier" font-size="16" fill="rgb(0,0,0)">()</text>
<polygon points=" 82,52 96,52 96,76 82,76" fill="rgb(255,255,170)"/>
<text x="84.25" y="69.0" font-family="courier" font-size="16" fill="rgb(0,0,0)">&#955;</text>
<line x1="212.8125" y1="20.0" x2="336.375" y2="64.0" stroke="rgb(255,0,0)" stroke-width="1.5"/>
<line x1="336.375" y1="64.0" x2="247.25" y2="108.0" stroke="rgb(255,0,0)" stroke-width="1.5"/>
<line x1="247.25" y1="108.0" x2="209.0" y2="152.0" stroke="rgb(255,0,0)" stroke-width="1.5"/>
<line x1="209.0" y1="152.0" x2="188.0" y2="196.0" stroke="rgb(255,0,0)" stroke-width="1.5"/>
<polygon points=" 176,184 200,184 200,208 176,208" fill="rgb(255,170,170)"/>
<text x="178.0" y="201.0" font-family="courier" font-size="16" fill="rgb(0,0,0)">ys</text>
<line x1="209.0" y1="152.0" x2="230.0" y2="196.0" stroke="rgb(255,0,0)" stroke-width="1.5"/>
<polygon points=" 218,184 242,184 242,208 218,208" fill="rgb(255,170,170)"/>
<text x="220.0" y="201.0" font-family="courier" font-size="16" fill="rgb(0,0,0)">zs</text>
<polygon points=" 197,140 221,140 221,164 197,164" fill="rgb(255,170,170)"/>
<text x="199.0" y="157.0" font-family="courier" font-size="16" fill="rgb(0,0,0)">()</text>
<line x1="247.25" y1="108.0" x2="285.5" y2="152.0" stroke="rgb(255,0,0)" stroke-width="1.5"/>
<line x1="285.5" y1="152.0" x2="267.0" y2="196.0" stroke="rgb(255,0,0)" stroke-width="1.5"/>
<line x1="267.0" y1="196.0" x2="248.5" y2="240.0" stroke="rgb(255,0,0)" stroke-width="1.5"/>
<polygon points=" 242,228 256,228 256,252 242,252" fill="rgb(255,170,170)"/>
<text x="243.5" y="245.0" font-family="courier" font-size="16" fill="rgb(0,0,0)">6</text>
<line x1="267.0" y1="196.0" x2="285.5" y2="240.0" stroke="rgb(255,0,0)" stroke-width="1.5"/>
<polygon points=" 274,228 298,228 298,252 274,252" fill="rgb(255,170,170)"/>
<text x="275.5" y="245.0" font-family="courier" font-size="16" fill="rgb(0,0,0)">ys</text>
<polygon points=" 260,184 274,184 274,208 260,208" fill="rgb(255,170,170)"/>
<text x="262.0" y="201.0" font-family="courier" font-size="16" fill="rgb(0,0,0)">:</text>
<line x1="285.5" y1="152.0" x2="304.0" y2="196.0" stroke="rgb(255,0,0)" stroke-width="1.5"/>
<polygon points=" 292,184 316,184 316,208 292,208" fill="rgb(255,170,170)"/>
<text x="294.0" y="201.0" font-family="courier" font-size="16" fill="rgb(0,0,0)">zs</text>
<polygon points=" 274,140 298,140 298,164 274,164" fill="rgb(255,170,170)"/>
<text x="275.5" y="157.0" font-family="courier" font-size="16" fill="rgb(0,0,0)">()</text>
<polygon points=" 240,96 254,96 254,120 240,120" fill="rgb(255,170,170)"/>
<text x="242.25" y="113.0" font-family="courier" font-size="16" fill="rgb(0,0,0)">&#955;</text>
<line x1="336.375" y1="64.0" x2="425.5" y2="108.0" stroke="rgb(255,0,0)" stroke-width="1.5"/>
<line x1="425.5" y1="108.0" x2="359.5" y2="152.0" stroke="rgb(255,0,0)" stroke-width="1.5"/>
<line x1="359.5" y1="152.0" x2="341.0" y2="196.0" stroke="rgb(255,0,0)" stroke-width="1.5"/>
<polygon points=" 334,184 348,184 348,208 334,208" fill="rgb(255,170,170)"/>
<text x="336.0" y="201.0" font-family="courier" font-size="16" fill="rgb(0,0,0)">7</text>
<line x1="359.5" y1="152.0" x2="378.0" y2="196.0" stroke="rgb(255,0,0)" stroke-width="1.5"/>
<polygon points=" 366,184 390,184 390,208 366,208" fill="rgb(255,170,170)"/>
<text x="368.0" y="201.0" font-family="courier" font-size="16" fill="rgb(0,0,0)">[]</text>
<polygon points=" 352,140 366,140 366,164 352,164" fill="rgb(255,170,170)"/>
<text x="354.5" y="157.0" font-family="courier" font-size="16" fill="rgb(0,0,0)">:</text>
<line x1="425.5" y1="108.0" x2="491.5" y2="152.0" stroke="rgb(255,0,0)" stroke-width="1.5"/>
<line x1="491.5" y1="152.0" x2="415.0" y2="196.0" stroke="rgb(255,0,0)" stroke-width="1.5"/>
<polygon points=" 408,184 422,184 422,208 408,208" fill="rgb(255,170,170)"/>
<text x="410.0" y="201.0" font-family="courier" font-size="16" fill="rgb(0,0,0)">8</text>
<line x1="491.5" y1="152.0" x2="447.0" y2="196.0" stroke="rgb(255,0,0)" stroke-width="1.5"/>
<polygon points=" 440,184 454,184 454,208 440,208" fill="rgb(255,170,170)"/>
<text x="442.0" y="201.0" font-family="courier" font-size="16" fill="rgb(0,0,0)">9</text>
<line x1="491.5" y1="152.0" x2="484.0" y2="196.0" stroke="rgb(255,0,0)" stroke-width="1.5"/>
<polygon points=" 472,184 496,184 496,208 472,208" fill="rgb(255,170,170)"/>
<text x="474.0" y="201.0" font-family="courier" font-size="16" fill="rgb(0,0,0)">10</text>
<line x1="491.5" y1="152.0" x2="526.0" y2="196.0" stroke="rgb(255,0,0)" stroke-width="1.5"/>
<polygon points=" 514,184 538,184 538,208 514,208" fill="rgb(255,170,170)"/>
<text x="516.0" y="201.0" font-family="courier" font-size="16" fill="rgb(0,0,0)">11</text>
<line x1="491.5" y1="152.0" x2="568.0" y2="196.0" stroke="rgb(255,0,0)" stroke-width="1.5"/>
<polygon points=" 556,184 580,184 580,208 556,208" fill="rgb(255,170,170)"/>
<text x="558.0" y="201.0" font-family="courier" font-size="16" fill="rgb(0,0,0)">12</text>
<polygon points=" 480,140 504,140 504,164 480,164" fill="rgb(255,170,170)"/>
<text x="481.5" y="157.0" font-family="courier" font-size="16" fill="rgb(0,0,0)">[]</text>
<polygon points=" 414,96 438,96 438,120 414,120" fill="rgb(255,170,170)"/>
<text x="415.5" y="113.0" font-family="courier" font-size="16" fill="rgb(0,0,0)">()</text>
<polygon points=" 329,52 343,52 343,76 329,76" fill="rgb(255,170,170)"/>
<text x="331.375" y="69.0" font-family="courier" font-size="16" fill="rgb(0,0,0)">$</text>
<polygon points=" 206,8 220,8 220,32 206,32" fill="rgb(255,255,170)"/>
<text x="207.8125" y="25.0" font-family="courier" font-size="16" fill="rgb(0,0,0)">$</text></svg>