<svg xmlns="http://www.w3.org/2000/svg"
xmlns:xlink="http://www.w3.org/1999/xlink"
version="1.1" baseProfile="full"
width="430" height="216">
<line x1="175.25" y1="20.0" x2="89.25" y2="64.0" stroke="rgb(255,0,0)" stroke-width="1.5"/>
<line x1="89.25" y1="64.0" x2="51.0" y2="108.0" stroke="rgb(255,0,0)" stroke-width="1.5"/>
<line x1="51.0" y1="108.0" x2="30.0" y2="152.0" stroke="rgb(255,0,0)" stroke-width="1.5"/>
<polygon points=" 18,140 42,140 42,164 18,164" fill="rgb(255,170,170)"/>
<text x="20.0" y="157.0" font-family="courier" font-size="16" fill="rgb(0,0,0)">ys</text>
<line x1="51.0" y1="108.0" x2="72.0" y2="152.0" stroke="rgb(255,0,0)" stroke-width="1.5"/>
<polygon points=" 60,140 84,140 84,164 60,164" fill="rgb(255,170,170)"/>
<text x="62.0" y="157.0" font-family="courier" font-size="16" fill="rgb(0,0,0)">zs</text>
<polygon points=" 39,96 63,96 63,120 39,120" fill="rgb(255,170,170)"/>
<text x="41.0" y="113.0" font-family="courier" font-size="16" fill="rgb(0,0,0)">()</text>
<line x1="89.25" y1="64.0" x2="127.5" y2="108.0" stroke="rgb(255,0,0)" stroke-width="1.5"/>
<line x1="127.5" y1="108.0" x2="109.0" y2="152.0" stroke="rgb(255,0,0)" stroke-width="1.5"/>
<line x1="109.0" y1="152.0" x2="90.5" y2="196.0" stroke="rgb(255,0,0)" stroke-width="1.5"/>
<polygon points=" 84,184 98,184 98,208 84,208" fill="rgb(255,170,170)"/>
<text x="85.5" y="201.0" font-family="courier" font-size="16" fill="rgb(0,0,0)">5</text>
<line x1="109.0" y1="152.0" x2="127.5" y2="196.0" stroke="rgb(255,0,0)" stroke-width="1.5"/>
<polygon points=" 116,184 140,184 140,208 116,208" fill="rgb(255,170,170)"/>
<text x="117.5" y="201.0" font-family="courier" font-size="16" fill="rgb(0,0,0)">ys</text>
<polygon points=" 102,140 116,140 116,164 102,164" fill="rgb(255,170,170)"/>
<text x="104.0" y="157.0" font-family="courier" font-size="16" fill="rgb(0,0,0)">:</text>
<line x1="127.5" y1="108.0" x2="146.0" y2="152.0" stroke="rgb(255,0,0)" stroke-width="1.5"/>
<polygon points=" 134,140 158,140 158,164 134,164" fill="rgb(255,170,170)"/>
<text x="136.0" y="157.0" font-family="courier" font-size="16" fill="rgb(0,0,0)">zs</text>
<polygon points=" 116,96 140,96 140,120 116,120" fill="rgb(255,170,170)"/>
<text x="117.5" y="113.0" font-family="courier" font-size="16" fill="rgb(0,0,0)">()</text>
<polygon points=" 82,52 96,52 96,76 82,76" fill="rgb(255,170,170)"/>
<text x="84.25" y="69.0" font-family="courier" font-size="16" fill="rgb(0,0,0)">&#955;</text>
<line x1="175.25" y1="20.0" x2="261.25" y2="64.0" stroke="rgb(255,0,0)" stroke-width="1.5"/>
<line x1="261.25" y1="64.0" x2="199.0" y2="108.0" stroke="rgb(255,0,0)" stroke-width="1.5"/>
<line x1="199.0" y1="108.0" x2="183.0" y2="152.0" stroke="rgb(255,0,0)" stroke-width="1.5"/>
<polygon points=" 176,140 190,140 190,164 176,164" fill="rgb(255,170,170)"/>
<text x="178.0" y="157.0" font-family="courier" font-size="16" fill="rgb(0,0,0)">6</text>
<line x1="199.0" y1="108.0" x2="215.0" y2="152.0" stroke="rgb(255,0,0)" stroke-width="1.5"/>
<line x1="215.0" y1="152.0" x2="196.5" y2="196.0" stroke="rgb(255,0,0)" stroke-width="1.5"/>
<polygon points=" 190,184 204,184 204,208 190,208" fill="rgb(255,170,170)"/>
<text x="191.5" y="201.0" font-family="courier" font-size="16" fill="rgb(0,0,0)">7</text>
<line x1="215.0" y1="152.0" x2="233.5" y2="196.0" stroke="rgb(255,0,0)" stroke-width="1.5"/>
<polygon points=" 222,184 246,184 246,208 222,208" fill="rgb(255,170,170)"/>
<text x="223.5" y="201.0" font-family="courier" font-size="16" fill="rgb(0,0,0)">[]</text>
<polygon points=" 208,140 222,140 222,164 208,164" fill="rgb(255,170,170)"/>
<text x="210.0" y="157.0" font-family="courier" font-size="16" fill="rgb(0,0,0)">:</text>
<polygon points=" 192,96 206,96 206,120 192,120" fill="rgb(255,170,170)"/>
<text x="194.0" y="113.0" font-family="courier" font-size="16" fill="rgb(0,0,0)">:</text>
<line x1="261.25" y1="64.0" x2="323.5" y2="108.0" stroke="rgb(255,0,0)" stroke-width="1.5"/>
<line x1="323.5" y1="108.0" x2="247.0" y2="152.0" stroke="rgb(255,0,0)" stroke-width="1.5"/>
<polygon points=" 240,140 254,140 254,164 240,164" fill="rgb(255,170,170)"/>
<text x="242.0" y="157.0" font-family="courier" font-size="16" fill="rgb(0,0,0)">8</text>
<line x1="323.5" y1="108.0" x2="279.0" y2="152.0" stroke="rgb(255,0,0)" stroke-width="1.5"/>
<polygon points=" 272,140 286,140 286,164 272,164" fill="rgb(255,170,170)"/>
<text x="274.0" y="157.0" font-family="courier" font-size="16" fill="rgb(0,0,0)">9</text>
<line x1="323.5" y1="108.0" x2="316.0" y2="152.0" stroke="rgb(255,0,0)" stroke-width="1.5"/>
<polygon points=" 304,140 328,140 328,164 304,164" fill="rgb(255,170,170)"/>
<text x="306.0" y="157.0" font-family="courier" font-size="16" fill="rgb(0,0,0)">10</text>
<line x1="323.5" y1="108.0" x2="358.0" y2="152.0" stroke="rgb(255,0,0)" stroke-width="1.5"/>
<polygon points=" 346,140 370,140 370,164 346,164" fill="rgb(255,170,170)"/>
<text x="348.0" y="157.0" font-family="courier" font-size="16" fill="rgb(0,0,0)">11</text>
<line x1="323.5" y1="108.0" x2="400.0" y2="152.0" stroke="rgb(255,0,0)" stroke-width="1.5"/>
<polygon points=" 388,140 412,140 412,164 388,164" fill="rgb(255,170,170)"/>
<text x="390.0" y="157.0" font-family="courier" font-size="16" fill="rgb(0,0,0)">12</text>
<polygon points=" 312,96 336,96 336,120 312,120" fill="rgb(255,170,170)"/>
<text x="313.5" y="113.0" font-family="courier" font-size="16" fill="rgb(0,0,0)">[]</text>
<polygon points=" 249,52 273,52 273,76 249,76" fill="rgb(255,170,170)"/>
<text x="251.25" y="69.0" font-family="courier" font-size="16" fill="rgb(0,0,0)">()</text>
<polygon points=" 168,8 182,8 182,32 168,32" fill="rgb(255,170,170)"/>
<text x="170.25" y="25.0" font-family="courier" font-size="16" fill="rgb(0,0,0)">$</text></svg>