<svg xmlns="http://www.w3.org/2000/svg" 
xmlns:xlink="http://www.w3.org/1999/xlink" 
version="1.1" baseProfile="full" 
width="537" height="563" >
<polygon points=" 40,147 269,543 497,147 40,147" fill="rgb(255,0,0)" />
<polygon points=" 192,235 269,367 345,235 192,235" fill="rgb(128,0,255)" />
<polygon points=" 192,59 269,191 345,59 192,59" fill="rgb(128,0,255)" />
<polygon points=" 421,103 345,235 497,235 421,103" fill="rgb(128,0,255)" />
<polygon points=" 497,323 345,323 421,455 497,323" fill="rgb(128,0,255)" />
<polygon points=" 345,499 269,367 192,499 345,499" fill="rgb(128,0,255)" />
<polygon points=" 116,455 192,323 40,323 116,455" fill="rgb(128,0,255)" />
<polygon points=" 40,235 192,235 116,103 40,235" fill="rgb(128,0,255)" />
<polygon points=" 243,264 269,308 294,264 243,264" fill="rgb(0,254,255)" />
<polygon points=" 243,206 269,250 294,206 243,206" fill="rgb(0,254,255)" />
<polygon points=" 319,220 294,264 345,264 319,220" fill="rgb(0,254,255)" />
<polygon points=" 345,294 294,294 319,338 345,294" fill="rgb(0,254,255)" />
<polygon points=" 294,352 269,308 243,352 294,352" fill="rgb(0,254,255)" />
<polygon points=" 218,338 243,294 192,294 218,338" fill="rgb(0,254,255)" />
<polygon points=" 192,264 243,264 218,220 192,264" fill="rgb(0,254,255)" />
<polygon points=" 243,88 269,132 294,88 243,88" fill="rgb(0,254,255)" />
<polygon points=" 243,30 269,74 294,30 243,30" fill="rgb(0,254,255)" />
<polygon points=" 319,44 294,88 345,88 319,44" fill="rgb(0,254,255)" />
<polygon points=" 345,118 294,118 319,162 345,118" fill="rgb(0,254,255)" />
<polygon points=" 294,176 269,132 243,176 294,176" fill="rgb(0,254,255)" />
<polygon points=" 218,162 243,118 192,118 218,162" fill="rgb(0,254,255)" />
<polygon points=" 192,88 243,88 218,44 192,88" fill="rgb(0,254,255)" />
<polygon points=" 421,162 396,206 446,206 421,162" fill="rgb(0,254,255)" />
<polygon points=" 396,118 421,162 446,118 396,118" fill="rgb(0,254,255)" />
<polygon points=" 472,132 446,176 497,176 472,132" fill="rgb(0,254,255)" />
<polygon points=" 497,206 446,206 472,250 497,206" fill="rgb(0,254,255)" />
<polygon points=" 446,264 421,220 396,264 446,264" fill="rgb(0,254,255)" />
<polygon points=" 370,250 396,206 345,206 370,250" fill="rgb(0,254,255)" />
<polygon points=" 345,176 396,176 370,132 345,176" fill="rgb(0,254,255)" />
<polygon points=" 446,352 396,352 421,396 446,352" fill="rgb(0,254,255)" />
<polygon points=" 396,294 421,338 446,294 396,294" fill="rgb(0,254,255)" />
<polygon points=" 472,308 446,352 497,352 472,308" fill="rgb(0,254,255)" />
<polygon points=" 497,382 446,382 472,426 497,382" fill="rgb(0,254,255)" />
<polygon points=" 446,440 421,396 396,440 446,440" fill="rgb(0,254,255)" />
<polygon points=" 370,426 396,382 345,382 370,426" fill="rgb(0,254,255)" />
<polygon points=" 345,352 396,352 370,308 345,352" fill="rgb(0,254,255)" />
<polygon points=" 294,470 269,426 243,470 294,470" fill="rgb(0,254,255)" />
<polygon points=" 243,382 269,426 294,382 243,382" fill="rgb(0,254,255)" />
<polygon points=" 319,396 294,440 345,440 319,396" fill="rgb(0,254,255)" />
<polygon points=" 345,470 294,470 319,514 345,470" fill="rgb(0,254,255)" />
<polygon points=" 294,528 269,484 243,528 294,528" fill="rgb(0,254,255)" />
<polygon points=" 218,514 243,470 192,470 218,514" fill="rgb(0,254,255)" />
<polygon points=" 192,440 243,440 218,396 192,440" fill="rgb(0,254,255)" />
<polygon points=" 116,396 142,352 91,352 116,396" fill="rgb(0,254,255)" />
<polygon points=" 91,294 116,338 142,294 91,294" fill="rgb(0,254,255)" />
<polygon points=" 167,308 142,352 192,352 167,308" fill="rgb(0,254,255)" />
<polygon points=" 192,382 142,382 167,426 192,382" fill="rgb(0,254,255)" />
<polygon points=" 142,440 116,396 91,440 142,440" fill="rgb(0,254,255)" />
<polygon points=" 65,426 91,382 40,382 65,426" fill="rgb(0,254,255)" />
<polygon points=" 40,352 91,352 65,308 40,352" fill="rgb(0,254,255)" />
<polygon points=" 91,206 142,206 116,162 91,206" fill="rgb(0,254,255)" />
<polygon points=" 91,118 116,162 142,118 91,118" fill="rgb(0,254,255)" />
<polygon points=" 167,132 142,176 192,176 167,132" fill="rgb(0,254,255)" />
<polygon points=" 192,206 142,206 167,250 192,206" fill="rgb(0,254,255)" />
<polygon points=" 142,264 116,220 91,264 142,264" fill="rgb(0,254,255)" />
<polygon points=" 65,250 91,206 40,206 65,250" fill="rgb(0,254,255)" />
<polygon points=" 40,176 91,176 65,132 40,176" fill="rgb(0,254,255)" />
<polygon points=" 260,274 269,289 277,274 260,274" fill="rgb(126,255,0)" />
<polygon points=" 260,255 269,269 277,255 260,255" fill="rgb(126,255,0)" />
<polygon points=" 286,260 277,274 294,274 286,260" fill="rgb(126,255,0)" />
<polygon points=" 294,284 277,284 286,299 294,284" fill="rgb(126,255,0)" />
<polygon points=" 277,304 269,289 260,304 277,304" fill="rgb(126,255,0)" />
<polygon points=" 252,299 260,284 243,284 252,299" fill="rgb(126,255,0)" />
<polygon points=" 243,274 260,274 252,260 243,274" fill="rgb(126,255,0)" />
<polygon points=" 260,216 269,230 277,216 260,216" fill="rgb(126,255,0)" />
<polygon points=" 260,196 269,211 277,196 260,196" fill="rgb(126,255,0)" />
<polygon points=" 286,201 277,216 294,216 286,201" fill="rgb(126,255,0)" />
<polygon points=" 294,225 277,225 286,240 294,225" fill="rgb(126,255,0)" />
<polygon points=" 277,245 269,230 260,245 277,245" fill="rgb(126,255,0)" />
<polygon points=" 252,240 260,225 243,225 252,240" fill="rgb(126,255,0)" />
<polygon points=" 243,216 260,216 252,201 243,216" fill="rgb(126,255,0)" />
<polygon points=" 319,240 311,255 328,255 319,240" fill="rgb(126,255,0)" />
<polygon points=" 311,225 319,240 328,225 311,225" fill="rgb(126,255,0)" />
<polygon points=" 336,230 328,245 345,245 336,230" fill="rgb(126,255,0)" />
<polygon points=" 345,255 328,255 336,269 345,255" fill="rgb(126,255,0)" />
<polygon points=" 328,274 319,260 311,274 328,274" fill="rgb(126,255,0)" />
<polygon points=" 303,269 311,255 294,255 303,269" fill="rgb(126,255,0)" />
<polygon points=" 294,245 311,245 303,230 294,245" fill="rgb(126,255,0)" />
<polygon points=" 328,304 311,304 319,318 328,304" fill="rgb(126,255,0)" />
<polygon points=" 311,284 319,299 328,284 311,284" fill="rgb(126,255,0)" />
<polygon points=" 336,289 328,304 345,304 336,289" fill="rgb(126,255,0)" />
<polygon points=" 345,313 328,313 336,328 345,313" fill="rgb(126,255,0)" />
<polygon points=" 328,333 319,318 311,333 328,333" fill="rgb(126,255,0)" />
<polygon points=" 303,328 311,313 294,313 303,328" fill="rgb(126,255,0)" />
<polygon points=" 294,304 311,304 303,289 294,304" fill="rgb(126,255,0)" />
<polygon points=" 277,343 269,328 260,343 277,343" fill="rgb(126,255,0)" />
<polygon points=" 260,313 269,328 277,313 260,313" fill="rgb(126,255,0)" />
<polygon points=" 286,318 277,333 294,333 286,318" fill="rgb(126,255,0)" />
<polygon points=" 294,343 277,343 286,357 294,343" fill="rgb(126,255,0)" />
<polygon points=" 277,362 269,348 260,362 277,362" fill="rgb(126,255,0)" />
<polygon points=" 252,357 260,343 243,343 252,357" fill="rgb(126,255,0)" />
<polygon points=" 243,333 260,333 252,318 243,333" fill="rgb(126,255,0)" />
<polygon points=" 218,318 226,304 209,304 218,318" fill="rgb(126,255,0)" />
<polygon points=" 209,284 218,299 226,284 209,284" fill="rgb(126,255,0)" />
<polygon points=" 235,289 226,304 243,304 235,289" fill="rgb(126,255,0)" />
<polygon points=" 243,313 226,313 235,328 243,313" fill="rgb(126,255,0)" />
<polygon points=" 226,333 218,318 209,333 226,333" fill="rgb(126,255,0)" />
<polygon points=" 201,328 209,313 192,313 201,328" fill="rgb(126,255,0)" />
<polygon points=" 192,304 209,304 201,289 192,304" fill="rgb(126,255,0)" />
<polygon points=" 209,255 226,255 218,240 209,255" fill="rgb(126,255,0)" />
<polygon points=" 209,225 218,240 226,225 209,225" fill="rgb(126,255,0)" />
<polygon points=" 235,230 226,245 243,245 235,230" fill="rgb(126,255,0)" />
<polygon points=" 243,255 226,255 235,269 243,255" fill="rgb(126,255,0)" />
<polygon points=" 226,274 218,260 209,274 226,274" fill="rgb(126,255,0)" />
<polygon points=" 201,269 209,255 192,255 201,269" fill="rgb(126,255,0)" />
<polygon points=" 192,245 209,245 201,230 192,245" fill="rgb(126,255,0)" />
<polygon points=" 260,98 269,113 277,98 260,98" fill="rgb(126,255,0)" />
<polygon points=" 260,79 269,93 277,79 260,79" fill="rgb(126,255,0)" />
<polygon points=" 286,84 277,98 294,98 286,84" fill="rgb(126,255,0)" />
<polygon points=" 294,108 277,108 286,123 294,108" fill="rgb(126,255,0)" />
<polygon points=" 277,128 269,113 260,128 277,128" fill="rgb(126,255,0)" />
<polygon points=" 252,123 260,108 243,108 252,123" fill="rgb(126,255,0)" />
<polygon points=" 243,98 260,98 252,84 243,98" fill="rgb(126,255,0)" />
<polygon points=" 260,40 269,54 277,40 260,40" fill="rgb(126,255,0)" />
<polygon points=" 260,20 269,35 277,20 260,20" fill="rgb(126,255,0)" />
<polygon points=" 286,25 277,40 294,40 286,25" fill="rgb(126,255,0)" />
<polygon points=" 294,49 277,49 286,64 294,49" fill="rgb(126,255,0)" />
<polygon points=" 277,69 269,54 260,69 277,69" fill="rgb(126,255,0)" />
<polygon points=" 252,64 260,49 243,49 252,64" fill="rgb(126,255,0)" />
<polygon points=" 243,40 260,40 252,25 243,40" fill="rgb(126,255,0)" />
<polygon points=" 319,64 311,79 328,79 319,64" fill="rgb(126,255,0)" />
<polygon points=" 311,49 319,64 328,49 311,49" fill="rgb(126,255,0)" />
<polygon points=" 336,54 328,69 345,69 336,54" fill="rgb(126,255,0)" />
<polygon points=" 345,79 328,79 336,93 345,79" fill="rgb(126,255,0)" />
<polygon points=" 328,98 319,84 311,98 328,98" fill="rgb(126,255,0)" />
<polygon points=" 303,93 311,79 294,79 303,93" fill="rgb(126,255,0)" />
<polygon points=" 294,69 311,69 303,54 294,69" fill="rgb(126,255,0)" />
<polygon points=" 328,128 311,128 319,142 328,128" fill="rgb(126,255,0)" />
<polygon points=" 311,108 319,123 328,108 311,108" fill="rgb(126,255,0)" />
<polygon points=" 336,113 328,128 345,128 336,113" fill="rgb(126,255,0)" />
<polygon points=" 345,137 328,137 336,152 345,137" fill="rgb(126,255,0)" />
<polygon points=" 328,157 319,142 311,157 328,157" fill="rgb(126,255,0)" />
<polygon points=" 303,152 311,137 294,137 303,152" fill="rgb(126,255,0)" />
<polygon points=" 294,128 311,128 303,113 294,128" fill="rgb(126,255,0)" />
<polygon points=" 277,167 269,152 260,167 277,167" fill="rgb(126,255,0)" />
<polygon points=" 260,137 269,152 277,137 260,137" fill="rgb(126,255,0)" />
<polygon points=" 286,142 277,157 294,157 286,142" fill="rgb(126,255,0)" />
<polygon points=" 294,167 277,167 286,181 294,167" fill="rgb(126,255,0)" />
<polygon points=" 277,186 269,172 260,186 277,186" fill="rgb(126,255,0)" />
<polygon points=" 252,181 260,167 243,167 252,181" fill="rgb(126,255,0)" />
<polygon points=" 243,157 260,157 252,142 243,157" fill="rgb(126,255,0)" />
<polygon points=" 218,142 226,128 209,128 218,142" fill="rgb(126,255,0)" />
<polygon points=" 209,108 218,123 226,108 209,108" fill="rgb(126,255,0)" />
<polygon points=" 235,113 226,128 243,128 235,113" fill="rgb(126,255,0)" />
<polygon points=" 243,137 226,137 235,152 243,137" fill="rgb(126,255,0)" />
<polygon points=" 226,157 218,142 209,157 226,157" fill="rgb(126,255,0)" />
<polygon points=" 201,152 209,137 192,137 201,152" fill="rgb(126,255,0)" />
<polygon points=" 192,128 209,128 201,113 192,128" fill="rgb(126,255,0)" />
<polygon points=" 209,79 226,79 218,64 209,79" fill="rgb(126,255,0)" />
<polygon points=" 209,49 218,64 226,49 209,49" fill="rgb(126,255,0)" />
<polygon points=" 235,54 226,69 243,69 235,54" fill="rgb(126,255,0)" />
<polygon points=" 243,79 226,79 235,93 243,79" fill="rgb(126,255,0)" />
<polygon points=" 226,98 218,84 209,98 226,98" fill="rgb(126,255,0)" />
<polygon points=" 201,93 209,79 192,79 201,93" fill="rgb(126,255,0)" />
<polygon points=" 192,69 209,69 201,54 192,69" fill="rgb(126,255,0)" />
<polygon points=" 421,181 413,196 430,196 421,181" fill="rgb(126,255,0)" />
<polygon points=" 413,167 421,181 430,167 413,167" fill="rgb(126,255,0)" />
<polygon points=" 438,172 430,186 446,186 438,172" fill="rgb(126,255,0)" />
<polygon points=" 446,196 430,196 438,211 446,196" fill="rgb(126,255,0)" />
<polygon points=" 430,216 421,201 413,216 430,216" fill="rgb(126,255,0)" />
<polygon points=" 404,211 413,196 396,196 404,211" fill="rgb(126,255,0)" />
<polygon points=" 396,186 413,186 404,172 396,186" fill="rgb(126,255,0)" />
<polygon points=" 413,128 421,142 430,128 413,128" fill="rgb(126,255,0)" />
<polygon points=" 413,108 421,123 430,108 413,108" fill="rgb(126,255,0)" />
<polygon points=" 438,113 430,128 446,128 438,113" fill="rgb(126,255,0)" />
<polygon points=" 446,137 430,137 438,152 446,137" fill="rgb(126,255,0)" />
<polygon points=" 430,157 421,142 413,157 430,157" fill="rgb(126,255,0)" />
<polygon points=" 404,152 413,137 396,137 404,152" fill="rgb(126,255,0)" />
<polygon points=" 396,128 413,128 404,113 396,128" fill="rgb(126,255,0)" />
<polygon points=" 472,152 463,167 480,167 472,152" fill="rgb(126,255,0)" />
<polygon points=" 463,137 472,152 480,137 463,137" fill="rgb(126,255,0)" />
<polygon points=" 489,142 480,157 497,157 489,142" fill="rgb(126,255,0)" />
<polygon points=" 497,167 480,167 489,181 497,167" fill="rgb(126,255,0)" />
<polygon points=" 480,186 472,172 463,186 480,186" fill="rgb(126,255,0)" />
<polygon points=" 455,181 463,167 446,167 455,181" fill="rgb(126,255,0)" />
<polygon points=" 446,157 463,157 455,142 446,157" fill="rgb(126,255,0)" />
<polygon points=" 480,216 463,216 472,230 480,216" fill="rgb(126,255,0)" />
<polygon points=" 463,196 472,211 480,196 463,196" fill="rgb(126,255,0)" />
<polygon points=" 489,201 480,216 497,216 489,201" fill="rgb(126,255,0)" />
<polygon points=" 497,225 480,225 489,240 497,225" fill="rgb(126,255,0)" />
<polygon points=" 480,245 472,230 463,245 480,245" fill="rgb(126,255,0)" />
<polygon points=" 455,240 463,225 446,225 455,240" fill="rgb(126,255,0)" />
<polygon points=" 446,216 463,216 455,201 446,216" fill="rgb(126,255,0)" />
<polygon points=" 430,255 421,240 413,255 430,255" fill="rgb(126,255,0)" />
<polygon points=" 413,225 421,240 430,225 413,225" fill="rgb(126,255,0)" />
<polygon points=" 438,230 430,245 446,245 438,230" fill="rgb(126,255,0)" />
<polygon points=" 446,255 430,255 438,269 446,255" fill="rgb(126,255,0)" />
<polygon points=" 430,274 421,260 413,274 430,274" fill="rgb(126,255,0)" />
<polygon points=" 404,269 413,255 396,255 404,269" fill="rgb(126,255,0)" />
<polygon points=" 396,245 413,245 404,230 396,245" fill="rgb(126,255,0)" />
<polygon points=" 370,230 379,216 362,216 370,230" fill="rgb(126,255,0)" />
<polygon points=" 362,196 370,211 379,196 362,196" fill="rgb(126,255,0)" />
<polygon points=" 387,201 379,216 396,216 387,201" fill="rgb(126,255,0)" />
<polygon points=" 396,225 379,225 387,240 396,225" fill="rgb(126,255,0)" />
<polygon points=" 379,245 370,230 362,245 379,245" fill="rgb(126,255,0)" />
<polygon points=" 353,240 362,225 345,225 353,240" fill="rgb(126,255,0)" />
<polygon points=" 345,216 362,216 353,201 345,216" fill="rgb(126,255,0)" />
<polygon points=" 362,167 379,167 370,152 362,167" fill="rgb(126,255,0)" />
<polygon points=" 362,137 370,152 379,137 362,137" fill="rgb(126,255,0)" />
<polygon points=" 387,142 379,157 396,157 387,142" fill="rgb(126,255,0)" />
<polygon points=" 396,167 379,167 387,181 396,167" fill="rgb(126,255,0)" />
<polygon points=" 379,186 370,172 362,186 379,186" fill="rgb(126,255,0)" />
<polygon points=" 353,181 362,167 345,167 353,181" fill="rgb(126,255,0)" />
<polygon points=" 345,157 362,157 353,142 345,157" fill="rgb(126,255,0)" />
<polygon points=" 430,362 413,362 421,377 430,362" fill="rgb(126,255,0)" />
<polygon points=" 413,343 421,357 430,343 413,343" fill="rgb(126,255,0)" />
<polygon points=" 438,348 430,362 446,362 438,348" fill="rgb(126,255,0)" />
<polygon points=" 446,372 430,372 438,387 446,372" fill="rgb(126,255,0)" />
<polygon points=" 430,392 421,377 413,392 430,392" fill="rgb(126,255,0)" />
<polygon points=" 404,387 413,372 396,372 404,387" fill="rgb(126,255,0)" />
<polygon points=" 396,362 413,362 404,348 396,362" fill="rgb(126,255,0)" />
<polygon points=" 413,304 421,318 430,304 413,304" fill="rgb(126,255,0)" />
<polygon points=" 413,284 421,299 430,284 413,284" fill="rgb(126,255,0)" />
<polygon points=" 438,289 430,304 446,304 438,289" fill="rgb(126,255,0)" />
<polygon points=" 446,313 430,313 438,328 446,313" fill="rgb(126,255,0)" />
<polygon points=" 430,333 421,318 413,333 430,333" fill="rgb(126,255,0)" />
<polygon points=" 404,328 413,313 396,313 404,328" fill="rgb(126,255,0)" />
<polygon points=" 396,304 413,304 404,289 396,304" fill="rgb(126,255,0)" />
<polygon points=" 472,328 463,343 480,343 472,328" fill="rgb(126,255,0)" />
<polygon points=" 463,313 472,328 480,313 463,313" fill="rgb(126,255,0)" />
<polygon points=" 489,318 480,333 497,333 489,318" fill="rgb(126,255,0)" />
<polygon points=" 497,343 480,343 489,357 497,343" fill="rgb(126,255,0)" />
<polygon points=" 480,362 472,348 463,362 480,362" fill="rgb(126,255,0)" />
<polygon points=" 455,357 463,343 446,343 455,357" fill="rgb(126,255,0)" />
<polygon points=" 446,333 463,333 455,318 446,333" fill="rgb(126,255,0)" />
<polygon points=" 480,392 463,392 472,406 480,392" fill="rgb(126,255,0)" />
<polygon points=" 463,372 472,387 480,372 463,372" fill="rgb(126,255,0)" />
<polygon points=" 489,377 480,392 497,392 489,377" fill="rgb(126,255,0)" />
<polygon points=" 497,401 480,401 489,416 497,401" fill="rgb(126,255,0)" />
<polygon points=" 480,421 472,406 463,421 480,421" fill="rgb(126,255,0)" />
<polygon points=" 455,416 463,401 446,401 455,416" fill="rgb(126,255,0)" />
<polygon points=" 446,392 463,392 455,377 446,392" fill="rgb(126,255,0)" />
<polygon points=" 430,431 421,416 413,431 430,431" fill="rgb(126,255,0)" />
<polygon points=" 413,401 421,416 430,401 413,401" fill="rgb(126,255,0)" />
<polygon points=" 438,406 430,421 446,421 438,406" fill="rgb(126,255,0)" />
<polygon points=" 446,431 430,431 438,445 446,431" fill="rgb(126,255,0)" />
<polygon points=" 430,450 421,436 413,450 430,450" fill="rgb(126,255,0)" />
<polygon points=" 404,445 413,431 396,431 404,445" fill="rgb(126,255,0)" />
<polygon points=" 396,421 413,421 404,406 396,421" fill="rgb(126,255,0)" />
<polygon points=" 370,406 379,392 362,392 370,406" fill="rgb(126,255,0)" />
<polygon points=" 362,372 370,387 379,372 362,372" fill="rgb(126,255,0)" />
<polygon points=" 387,377 379,392 396,392 387,377" fill="rgb(126,255,0)" />
<polygon points=" 396,401 379,401 387,416 396,401" fill="rgb(126,255,0)" />
<polygon points=" 379,421 370,406 362,421 379,421" fill="rgb(126,255,0)" />
<polygon points=" 353,416 362,401 345,401 353,416" fill="rgb(126,255,0)" />
<polygon points=" 345,392 362,392 353,377 345,392" fill="rgb(126,255,0)" />
<polygon points=" 362,343 379,343 370,328 362,343" fill="rgb(126,255,0)" />
<polygon points=" 362,313 370,328 379,313 362,313" fill="rgb(126,255,0)" />
<polygon points=" 387,318 379,333 396,333 387,318" fill="rgb(126,255,0)" />
<polygon points=" 396,343 379,343 387,357 396,343" fill="rgb(126,255,0)" />
<polygon points=" 379,362 370,348 362,362 379,362" fill="rgb(126,255,0)" />
<polygon points=" 353,357 362,343 345,343 353,357" fill="rgb(126,255,0)" />
<polygon points=" 345,333 362,333 353,318 345,333" fill="rgb(126,255,0)" />
<polygon points=" 277,460 269,445 260,460 277,460" fill="rgb(126,255,0)" />
<polygon points=" 260,431 269,445 277,431 260,431" fill="rgb(126,255,0)" />
<polygon points=" 286,436 277,450 294,450 286,436" fill="rgb(126,255,0)" />
<polygon points=" 294,460 277,460 286,475 294,460" fill="rgb(126,255,0)" />
<polygon points=" 277,480 269,465 260,480 277,480" fill="rgb(126,255,0)" />
<polygon points=" 252,475 260,460 243,460 252,475" fill="rgb(126,255,0)" />
<polygon points=" 243,450 260,450 252,436 243,450" fill="rgb(126,255,0)" />
<polygon points=" 260,392 269,406 277,392 260,392" fill="rgb(126,255,0)" />
<polygon points=" 260,372 269,387 277,372 260,372" fill="rgb(126,255,0)" />
<polygon points=" 286,377 277,392 294,392 286,377" fill="rgb(126,255,0)" />
<polygon points=" 294,401 277,401 286,416 294,401" fill="rgb(126,255,0)" />
<polygon points=" 277,421 269,406 260,421 277,421" fill="rgb(126,255,0)" />
<polygon points=" 252,416 260,401 243,401 252,416" fill="rgb(126,255,0)" />
<polygon points=" 243,392 260,392 252,377 243,392" fill="rgb(126,255,0)" />
<polygon points=" 319,416 311,431 328,431 319,416" fill="rgb(126,255,0)" />
<polygon points=" 311,401 319,416 328,401 311,401" fill="rgb(126,255,0)" />
<polygon points=" 336,406 328,421 345,421 336,406" fill="rgb(126,255,0)" />
<polygon points=" 345,431 328,431 336,445 345,431" fill="rgb(126,255,0)" />
<polygon points=" 328,450 319,436 311,450 328,450" fill="rgb(126,255,0)" />
<polygon points=" 303,445 311,431 294,431 303,445" fill="rgb(126,255,0)" />
<polygon points=" 294,421 311,421 303,406 294,421" fill="rgb(126,255,0)" />
<polygon points=" 328,480 311,480 319,494 328,480" fill="rgb(126,255,0)" />
<polygon points=" 311,460 319,475 328,460 311,460" fill="rgb(126,255,0)" />
<polygon points=" 336,465 328,480 345,480 336,465" fill="rgb(126,255,0)" />
<polygon points=" 345,489 328,489 336,504 345,489" fill="rgb(126,255,0)" />
<polygon points=" 328,509 319,494 311,509 328,509" fill="rgb(126,255,0)" />
<polygon points=" 303,504 311,489 294,489 303,504" fill="rgb(126,255,0)" />
<polygon points=" 294,480 311,480 303,465 294,480" fill="rgb(126,255,0)" />
<polygon points=" 277,519 269,504 260,519 277,519" fill="rgb(126,255,0)" />
<polygon points=" 260,489 269,504 277,489 260,489" fill="rgb(126,255,0)" />
<polygon points=" 286,494 277,509 294,509 286,494" fill="rgb(126,255,0)" />
<polygon points=" 294,519 277,519 286,533 294,519" fill="rgb(126,255,0)" />
<polygon points=" 277,538 269,524 260,538 277,538" fill="rgb(126,255,0)" />
<polygon points=" 252,533 260,519 243,519 252,533" fill="rgb(126,255,0)" />
<polygon points=" 243,509 260,509 252,494 243,509" fill="rgb(126,255,0)" />
<polygon points=" 218,494 226,480 209,480 218,494" fill="rgb(126,255,0)" />
<polygon points=" 209,460 218,475 226,460 209,460" fill="rgb(126,255,0)" />
<polygon points=" 235,465 226,480 243,480 235,465" fill="rgb(126,255,0)" />
<polygon points=" 243,489 226,489 235,504 243,489" fill="rgb(126,255,0)" />
<polygon points=" 226,509 218,494 209,509 226,509" fill="rgb(126,255,0)" />
<polygon points=" 201,504 209,489 192,489 201,504" fill="rgb(126,255,0)" />
<polygon points=" 192,480 209,480 201,465 192,480" fill="rgb(126,255,0)" />
<polygon points=" 209,431 226,431 218,416 209,431" fill="rgb(126,255,0)" />
<polygon points=" 209,401 218,416 226,401 209,401" fill="rgb(126,255,0)" />
<polygon points=" 235,406 226,421 243,421 235,406" fill="rgb(126,255,0)" />
<polygon points=" 243,431 226,431 235,445 243,431" fill="rgb(126,255,0)" />
<polygon points=" 226,450 218,436 209,450 226,450" fill="rgb(126,255,0)" />
<polygon points=" 201,445 209,431 192,431 201,445" fill="rgb(126,255,0)" />
<polygon points=" 192,421 209,421 201,406 192,421" fill="rgb(126,255,0)" />
<polygon points=" 116,377 125,362 108,362 116,377" fill="rgb(126,255,0)" />
<polygon points=" 108,343 116,357 125,343 108,343" fill="rgb(126,255,0)" />
<polygon points=" 133,348 125,362 142,362 133,348" fill="rgb(126,255,0)" />
<polygon points=" 142,372 125,372 133,387 142,372" fill="rgb(126,255,0)" />
<polygon points=" 125,392 116,377 108,392 125,392" fill="rgb(126,255,0)" />
<polygon points=" 99,387 108,372 91,372 99,387" fill="rgb(126,255,0)" />
<polygon points=" 91,362 108,362 99,348 91,362" fill="rgb(126,255,0)" />
<polygon points=" 108,304 116,318 125,304 108,304" fill="rgb(126,255,0)" />
<polygon points=" 108,284 116,299 125,284 108,284" fill="rgb(126,255,0)" />
<polygon points=" 133,289 125,304 142,304 133,289" fill="rgb(126,255,0)" />
<polygon points=" 142,313 125,313 133,328 142,313" fill="rgb(126,255,0)" />
<polygon points=" 125,333 116,318 108,333 125,333" fill="rgb(126,255,0)" />
<polygon points=" 99,328 108,313 91,313 99,328" fill="rgb(126,255,0)" />
<polygon points=" 91,304 108,304 99,289 91,304" fill="rgb(126,255,0)" />
<polygon points=" 167,328 159,343 175,343 167,328" fill="rgb(126,255,0)" />
<polygon points=" 159,313 167,328 175,313 159,313" fill="rgb(126,255,0)" />
<polygon points=" 184,318 175,333 192,333 184,318" fill="rgb(126,255,0)" />
<polygon points=" 192,343 175,343 184,357 192,343" fill="rgb(126,255,0)" />
<polygon points=" 175,362 167,348 159,362 175,362" fill="rgb(126,255,0)" />
<polygon points=" 150,357 159,343 142,343 150,357" fill="rgb(126,255,0)" />
<polygon points=" 142,333 159,333 150,318 142,333" fill="rgb(126,255,0)" />
<polygon points=" 175,392 159,392 167,406 175,392" fill="rgb(126,255,0)" />
<polygon points=" 159,372 167,387 175,372 159,372" fill="rgb(126,255,0)" />
<polygon points=" 184,377 175,392 192,392 184,377" fill="rgb(126,255,0)" />
<polygon points=" 192,401 175,401 184,416 192,401" fill="rgb(126,255,0)" />
<polygon points=" 175,421 167,406 159,421 175,421" fill="rgb(126,255,0)" />
<polygon points=" 150,416 159,401 142,401 150,416" fill="rgb(126,255,0)" />
<polygon points=" 142,392 159,392 150,377 142,392" fill="rgb(126,255,0)" />
<polygon points=" 125,431 116,416 108,431 125,431" fill="rgb(126,255,0)" />
<polygon points=" 108,401 116,416 125,401 108,401" fill="rgb(126,255,0)" />
<polygon points=" 133,406 125,421 142,421 133,406" fill="rgb(126,255,0)" />
<polygon points=" 142,431 125,431 133,445 142,431" fill="rgb(126,255,0)" />
<polygon points=" 125,450 116,436 108,450 125,450" fill="rgb(126,255,0)" />
<polygon points=" 99,445 108,431 91,431 99,445" fill="rgb(126,255,0)" />
<polygon points=" 91,421 108,421 99,406 91,421" fill="rgb(126,255,0)" />
<polygon points=" 65,406 74,392 57,392 65,406" fill="rgb(126,255,0)" />
<polygon points=" 57,372 65,387 74,372 57,372" fill="rgb(126,255,0)" />
<polygon points=" 82,377 74,392 91,392 82,377" fill="rgb(126,255,0)" />
<polygon points=" 91,401 74,401 82,416 91,401" fill="rgb(126,255,0)" />
<polygon points=" 74,421 65,406 57,421 74,421" fill="rgb(126,255,0)" />
<polygon points=" 48,416 57,401 40,401 48,416" fill="rgb(126,255,0)" />
<polygon points=" 40,392 57,392 48,377 40,392" fill="rgb(126,255,0)" />
<polygon points=" 57,343 74,343 65,328 57,343" fill="rgb(126,255,0)" />
<polygon points=" 57,313 65,328 74,313 57,313" fill="rgb(126,255,0)" />
<polygon points=" 82,318 74,333 91,333 82,318" fill="rgb(126,255,0)" />
<polygon points=" 91,343 74,343 82,357 91,343" fill="rgb(126,255,0)" />
<polygon points=" 74,362 65,348 57,362 74,362" fill="rgb(126,255,0)" />
<polygon points=" 48,357 57,343 40,343 48,357" fill="rgb(126,255,0)" />
<polygon points=" 40,333 57,333 48,318 40,333" fill="rgb(126,255,0)" />
<polygon points=" 108,196 125,196 116,181 108,196" fill="rgb(126,255,0)" />
<polygon points=" 108,167 116,181 125,167 108,167" fill="rgb(126,255,0)" />
<polygon points=" 133,172 125,186 142,186 133,172" fill="rgb(126,255,0)" />
<polygon points=" 142,196 125,196 133,211 142,196" fill="rgb(126,255,0)" />
<polygon points=" 125,216 116,201 108,216 125,216" fill="rgb(126,255,0)" />
<polygon points=" 99,211 108,196 91,196 99,211" fill="rgb(126,255,0)" />
<polygon points=" 91,186 108,186 99,172 91,186" fill="rgb(126,255,0)" />
<polygon points=" 108,128 116,142 125,128 108,128" fill="rgb(126,255,0)" />
<polygon points=" 108,108 116,123 125,108 108,108" fill="rgb(126,255,0)" />
<polygon points=" 133,113 125,128 142,128 133,113" fill="rgb(126,255,0)" />
<polygon points=" 142,137 125,137 133,152 142,137" fill="rgb(126,255,0)" />
<polygon points=" 125,157 116,142 108,157 125,157" fill="rgb(126,255,0)" />
<polygon points=" 99,152 108,137 91,137 99,152" fill="rgb(126,255,0)" />
<polygon points=" 91,128 108,128 99,113 91,128" fill="rgb(126,255,0)" />
<polygon points=" 167,152 159,167 175,167 167,152" fill="rgb(126,255,0)" />
<polygon points=" 159,137 167,152 175,137 159,137" fill="rgb(126,255,0)" />
<polygon points=" 184,142 175,157 192,157 184,142" fill="rgb(126,255,0)" />
<polygon points=" 192,167 175,167 184,181 192,167" fill="rgb(126,255,0)" />
<polygon points=" 175,186 167,172 159,186 175,186" fill="rgb(126,255,0)" />
<polygon points=" 150,181 159,167 142,167 150,181" fill="rgb(126,255,0)" />
<polygon points=" 142,157 159,157 150,142 142,157" fill="rgb(126,255,0)" />
<polygon points=" 175,216 159,216 167,230 175,216" fill="rgb(126,255,0)" />
<polygon points=" 159,196 167,211 175,196 159,196" fill="rgb(126,255,0)" />
<polygon points=" 184,201 175,216 192,216 184,201" fill="rgb(126,255,0)" />
<polygon points=" 192,225 175,225 184,240 192,225" fill="rgb(126,255,0)" />
<polygon points=" 175,245 167,230 159,245 175,245" fill="rgb(126,255,0)" />
<polygon points=" 150,240 159,225 142,225 150,240" fill="rgb(126,255,0)" />
<polygon points=" 142,216 159,216 150,201 142,216" fill="rgb(126,255,0)" />
<polygon points=" 125,255 116,240 108,255 125,255" fill="rgb(126,255,0)" />
<polygon points=" 108,225 116,240 125,225 108,225" fill="rgb(126,255,0)" />
<polygon points=" 133,230 125,245 142,245 133,230" fill="rgb(126,255,0)" />
<polygon points=" 142,255 125,255 133,269 142,255" fill="rgb(126,255,0)" />
<polygon points=" 125,274 116,260 108,274 125,274" fill="rgb(126,255,0)" />
<polygon points=" 99,269 108,255 91,255 99,269" fill="rgb(126,255,0)" />
<polygon points=" 91,245 108,245 99,230 91,245" fill="rgb(126,255,0)" />
<polygon points=" 65,230 74,216 57,216 65,230" fill="rgb(126,255,0)" />
<polygon points=" 57,196 65,211 74,196 57,196" fill="rgb(126,255,0)" />
<polygon points=" 82,201 74,216 91,216 82,201" fill="rgb(126,255,0)" />
<polygon points=" 91,225 74,225 82,240 91,225" fill="rgb(126,255,0)" />
<polygon points=" 74,245 65,230 57,245 74,245" fill="rgb(126,255,0)" />
<polygon points=" 48,240 57,225 40,225 48,240" fill="rgb(126,255,0)" />
<polygon points=" 40,216 57,216 48,201 40,216" fill="rgb(126,255,0)" />
<polygon points=" 57,167 74,167 65,152 57,167" fill="rgb(126,255,0)" />
<polygon points=" 57,137 65,152 74,137 57,137" fill="rgb(126,255,0)" />
<polygon points=" 82,142 74,157 91,157 82,142" fill="rgb(126,255,0)" />
<polygon points=" 91,167 74,167 82,181 91,167" fill="rgb(126,255,0)" />
<polygon points=" 74,186 65,172 57,186 74,186" fill="rgb(126,255,0)" />
<polygon points=" 48,181 57,167 40,167 48,181" fill="rgb(126,255,0)" />
<polygon points=" 40,157 57,157 48,142 40,157" fill="rgb(126,255,0)" />
<polygon points=" 116,191 269,455 421,191 116,191" fill="rgb(0,0,255)" />
<polygon points=" 218,250 269,338 319,250 218,250" fill="rgb(0,255,128)" />
<polygon points=" 218,132 269,220 319,132 218,132" fill="rgb(0,255,128)" />
<polygon points=" 370,162 319,250 421,250 370,162" fill="rgb(0,255,128)" />
<polygon points=" 421,308 319,308 370,396 421,308" fill="rgb(0,255,128)" />
<polygon points=" 319,426 269,338 218,426 319,426" fill="rgb(0,255,128)" />
<polygon points=" 167,396 218,308 116,308 167,396" fill="rgb(0,255,128)" />
<polygon points=" 116,250 218,250 167,162 116,250" fill="rgb(0,255,128)" />
<polygon points=" 252,269 269,299 286,269 252,269" fill="rgb(254,255,0)" />
<polygon points=" 252,230 269,260 286,230 252,230" fill="rgb(254,255,0)" />
<polygon points=" 303,240 286,269 319,269 303,240" fill="rgb(254,255,0)" />
<polygon points=" 319,289 286,289 303,318 319,289" fill="rgb(254,255,0)" />
<polygon points=" 286,328 269,299 252,328 286,328" fill="rgb(254,255,0)" />
<polygon points=" 235,318 252,289 218,289 235,318" fill="rgb(254,255,0)" />
<polygon points=" 218,269 252,269 235,240 218,269" fill="rgb(254,255,0)" />
<polygon points=" 252,152 269,181 286,152 252,152" fill="rgb(254,255,0)" />
<polygon points=" 252,113 269,142 286,113 252,113" fill="rgb(254,255,0)" />
<polygon points=" 303,123 286,152 319,152 303,123" fill="rgb(254,255,0)" />
<polygon points=" 319,172 286,172 303,201 319,172" fill="rgb(254,255,0)" />
<polygon points=" 286,211 269,181 252,211 286,211" fill="rgb(254,255,0)" />
<polygon points=" 235,201 252,172 218,172 235,201" fill="rgb(254,255,0)" />
<polygon points=" 218,152 252,152 235,123 218,152" fill="rgb(254,255,0)" />
<polygon points=" 370,201 353,230 387,230 370,201" fill="rgb(254,255,0)" />
<polygon points=" 353,172 370,201 387,172 353,172" fill="rgb(254,255,0)" />
<polygon points=" 404,181 387,211 421,211 404,181" fill="rgb(254,255,0)" />
<polygon points=" 421,230 387,230 404,260 421,230" fill="rgb(254,255,0)" />
<polygon points=" 387,269 370,240 353,269 387,269" fill="rgb(254,255,0)" />
<polygon points=" 336,260 353,230 319,230 336,260" fill="rgb(254,255,0)" />
<polygon points=" 319,211 353,211 336,181 319,211" fill="rgb(254,255,0)" />
<polygon points=" 387,328 353,328 370,357 387,328" fill="rgb(254,255,0)" />
<polygon points=" 353,289 370,318 387,289 353,289" fill="rgb(254,255,0)" />
<polygon points=" 404,299 387,328 421,328 404,299" fill="rgb(254,255,0)" />
<polygon points=" 421,348 387,348 404,377 421,348" fill="rgb(254,255,0)" />
<polygon points=" 387,387 370,357 353,387 387,387" fill="rgb(254,255,0)" />
<polygon points=" 336,377 353,348 319,348 336,377" fill="rgb(254,255,0)" />
<polygon points=" 319,328 353,328 336,299 319,328" fill="rgb(254,255,0)" />
<polygon points=" 286,406 269,377 252,406 286,406" fill="rgb(254,255,0)" />
<polygon points=" 252,348 269,377 286,348 252,348" fill="rgb(254,255,0)" />
<polygon points=" 303,357 286,387 319,387 303,357" fill="rgb(254,255,0)" />
<polygon points=" 319,406 286,406 303,436 319,406" fill="rgb(254,255,0)" />
<polygon points=" 286,445 269,416 252,445 286,445" fill="rgb(254,255,0)" />
<polygon points=" 235,436 252,406 218,406 235,436" fill="rgb(254,255,0)" />
<polygon points=" 218,387 252,387 235,357 218,387" fill="rgb(254,255,0)" />
<polygon points=" 167,357 184,328 150,328 167,357" fill="rgb(254,255,0)" />
<polygon points=" 150,289 167,318 184,289 150,289" fill="rgb(254,255,0)" />
<polygon points=" 201,299 184,328 218,328 201,299" fill="rgb(254,255,0)" />
<polygon points=" 218,348 184,348 201,377 218,348" fill="rgb(254,255,0)" />
<polygon points=" 184,387 167,357 150,387 184,387" fill="rgb(254,255,0)" />
<polygon points=" 133,377 150,348 116,348 133,377" fill="rgb(254,255,0)" />
<polygon points=" 116,328 150,328 133,299 116,328" fill="rgb(254,255,0)" />
<polygon points=" 150,230 184,230 167,201 150,230" fill="rgb(254,255,0)" />
<polygon points=" 150,172 167,201 184,172 150,172" fill="rgb(254,255,0)" />
<polygon points=" 201,181 184,211 218,211 201,181" fill="rgb(254,255,0)" />
<polygon points=" 218,230 184,230 201,260 218,230" fill="rgb(254,255,0)" />
<polygon points=" 184,269 167,240 150,269 184,269" fill="rgb(254,255,0)" />
<polygon points=" 133,260 150,230 116,230 133,260" fill="rgb(254,255,0)" />
<polygon points=" 116,211 150,211 133,181 116,211" fill="rgb(254,255,0)" />
<polygon points=" 263,276 269,286 274,276 263,276" fill="rgb(255,0,126)" />
<polygon points=" 263,263 269,273 274,263 263,263" fill="rgb(255,0,126)" />
<polygon points=" 280,266 274,276 286,276 280,266" fill="rgb(255,0,126)" />
<polygon points=" 286,282 274,282 280,292 286,282" fill="rgb(255,0,126)" />
<polygon points=" 274,295 269,286 263,295 274,295" fill="rgb(255,0,126)" />
<polygon points=" 257,292 263,282 252,282 257,292" fill="rgb(255,0,126)" />
<polygon points=" 252,276 263,276 257,266 252,276" fill="rgb(255,0,126)" />
<polygon points=" 263,237 269,247 274,237 263,237" fill="rgb(255,0,126)" />
<polygon points=" 263,224 269,233 274,224 263,224" fill="rgb(255,0,126)" />
<polygon points=" 280,227 274,237 286,237 280,227" fill="rgb(255,0,126)" />
<polygon points=" 286,243 274,243 280,253 286,243" fill="rgb(255,0,126)" />
<polygon points=" 274,256 269,247 263,256 274,256" fill="rgb(255,0,126)" />
<polygon points=" 257,253 263,243 252,243 257,253" fill="rgb(255,0,126)" />
<polygon points=" 252,237 263,237 257,227 252,237" fill="rgb(255,0,126)" />
<polygon points=" 303,253 297,263 308,263 303,253" fill="rgb(255,0,126)" />
<polygon points=" 297,243 303,253 308,243 297,243" fill="rgb(255,0,126)" />
<polygon points=" 314,247 308,256 319,256 314,247" fill="rgb(255,0,126)" />
<polygon points=" 319,263 308,263 314,273 319,263" fill="rgb(255,0,126)" />
<polygon points=" 308,276 303,266 297,276 308,276" fill="rgb(255,0,126)" />
<polygon points=" 291,273 297,263 286,263 291,273" fill="rgb(255,0,126)" />
<polygon points=" 286,256 297,256 291,247 286,256" fill="rgb(255,0,126)" />
<polygon points=" 308,295 297,295 303,305 308,295" fill="rgb(255,0,126)" />
<polygon points=" 297,282 303,292 308,282 297,282" fill="rgb(255,0,126)" />
<polygon points=" 314,286 308,295 319,295 314,286" fill="rgb(255,0,126)" />
<polygon points=" 319,302 308,302 314,312 319,302" fill="rgb(255,0,126)" />
<polygon points=" 308,315 303,305 297,315 308,315" fill="rgb(255,0,126)" />
<polygon points=" 291,312 297,302 286,302 291,312" fill="rgb(255,0,126)" />
<polygon points=" 286,295 297,295 291,286 286,295" fill="rgb(255,0,126)" />
<polygon points=" 274,321 269,312 263,321 274,321" fill="rgb(255,0,126)" />
<polygon points=" 263,302 269,312 274,302 263,302" fill="rgb(255,0,126)" />
<polygon points=" 280,305 274,315 286,315 280,305" fill="rgb(255,0,126)" />
<polygon points=" 286,321 274,321 280,331 286,321" fill="rgb(255,0,126)" />
<polygon points=" 274,335 269,325 263,335 274,335" fill="rgb(255,0,126)" />
<polygon points=" 257,331 263,321 252,321 257,331" fill="rgb(255,0,126)" />
<polygon points=" 252,315 263,315 257,305 252,315" fill="rgb(255,0,126)" />
<polygon points=" 235,305 240,295 229,295 235,305" fill="rgb(255,0,126)" />
<polygon points=" 229,282 235,292 240,282 229,282" fill="rgb(255,0,126)" />
<polygon points=" 246,286 240,295 252,295 246,286" fill="rgb(255,0,126)" />
<polygon points=" 252,302 240,302 246,312 252,302" fill="rgb(255,0,126)" />
<polygon points=" 240,315 235,305 229,315 240,315" fill="rgb(255,0,126)" />
<polygon points=" 223,312 229,302 218,302 223,312" fill="rgb(255,0,126)" />
<polygon points=" 218,295 229,295 223,286 218,295" fill="rgb(255,0,126)" />
<polygon points=" 229,263 240,263 235,253 229,263" fill="rgb(255,0,126)" />
<polygon points=" 229,243 235,253 240,243 229,243" fill="rgb(255,0,126)" />
<polygon points=" 246,247 240,256 252,256 246,247" fill="rgb(255,0,126)" />
<polygon points=" 252,263 240,263 246,273 252,263" fill="rgb(255,0,126)" />
<polygon points=" 240,276 235,266 229,276 240,276" fill="rgb(255,0,126)" />
<polygon points=" 223,273 229,263 218,263 223,273" fill="rgb(255,0,126)" />
<polygon points=" 218,256 229,256 223,247 218,256" fill="rgb(255,0,126)" />
<polygon points=" 263,159 269,168 274,159 263,159" fill="rgb(255,0,126)" />
<polygon points=" 263,145 269,155 274,145 263,145" fill="rgb(255,0,126)" />
<polygon points=" 280,149 274,159 286,159 280,149" fill="rgb(255,0,126)" />
<polygon points=" 286,165 274,165 280,175 286,165" fill="rgb(255,0,126)" />
<polygon points=" 274,178 269,168 263,178 274,178" fill="rgb(255,0,126)" />
<polygon points=" 257,175 263,165 252,165 257,175" fill="rgb(255,0,126)" />
<polygon points=" 252,159 263,159 257,149 252,159" fill="rgb(255,0,126)" />
<polygon points=" 263,119 269,129 274,119 263,119" fill="rgb(255,0,126)" />
<polygon points=" 263,106 269,116 274,106 263,106" fill="rgb(255,0,126)" />
<polygon points=" 280,110 274,119 286,119 280,110" fill="rgb(255,0,126)" />
<polygon points=" 286,126 274,126 280,136 286,126" fill="rgb(255,0,126)" />
<polygon points=" 274,139 269,129 263,139 274,139" fill="rgb(255,0,126)" />
<polygon points=" 257,136 263,126 252,126 257,136" fill="rgb(255,0,126)" />
<polygon points=" 252,119 263,119 257,110 252,119" fill="rgb(255,0,126)" />
<polygon points=" 303,136 297,145 308,145 303,136" fill="rgb(255,0,126)" />
<polygon points=" 297,126 303,136 308,126 297,126" fill="rgb(255,0,126)" />
<polygon points=" 314,129 308,139 319,139 314,129" fill="rgb(255,0,126)" />
<polygon points=" 319,145 308,145 314,155 319,145" fill="rgb(255,0,126)" />
<polygon points=" 308,159 303,149 297,159 308,159" fill="rgb(255,0,126)" />
<polygon points=" 291,155 297,145 286,145 291,155" fill="rgb(255,0,126)" />
<polygon points=" 286,139 297,139 291,129 286,139" fill="rgb(255,0,126)" />
<polygon points=" 308,178 297,178 303,188 308,178" fill="rgb(255,0,126)" />
<polygon points=" 297,165 303,175 308,165 297,165" fill="rgb(255,0,126)" />
<polygon points=" 314,168 308,178 319,178 314,168" fill="rgb(255,0,126)" />
<polygon points=" 319,185 308,185 314,194 319,185" fill="rgb(255,0,126)" />
<polygon points=" 308,198 303,188 297,198 308,198" fill="rgb(255,0,126)" />
<polygon points=" 291,194 297,185 286,185 291,194" fill="rgb(255,0,126)" />
<polygon points=" 286,178 297,178 291,168 286,178" fill="rgb(255,0,126)" />
<polygon points=" 274,204 269,194 263,204 274,204" fill="rgb(255,0,126)" />
<polygon points=" 263,185 269,194 274,185 263,185" fill="rgb(255,0,126)" />
<polygon points=" 280,188 274,198 286,198 280,188" fill="rgb(255,0,126)" />
<polygon points=" 286,204 274,204 280,214 286,204" fill="rgb(255,0,126)" />
<polygon points=" 274,217 269,207 263,217 274,217" fill="rgb(255,0,126)" />
<polygon points=" 257,214 263,204 252,204 257,214" fill="rgb(255,0,126)" />
<polygon points=" 252,198 263,198 257,188 252,198" fill="rgb(255,0,126)" />
<polygon points=" 235,188 240,178 229,178 235,188" fill="rgb(255,0,126)" />
<polygon points=" 229,165 235,175 240,165 229,165" fill="rgb(255,0,126)" />
<polygon points=" 246,168 240,178 252,178 246,168" fill="rgb(255,0,126)" />
<polygon points=" 252,185 240,185 246,194 252,185" fill="rgb(255,0,126)" />
<polygon points=" 240,198 235,188 229,198 240,198" fill="rgb(255,0,126)" />
<polygon points=" 223,194 229,185 218,185 223,194" fill="rgb(255,0,126)" />
<polygon points=" 218,178 229,178 223,168 218,178" fill="rgb(255,0,126)" />
<polygon points=" 229,145 240,145 235,136 229,145" fill="rgb(255,0,126)" />
<polygon points=" 229,126 235,136 240,126 229,126" fill="rgb(255,0,126)" />
<polygon points=" 246,129 240,139 252,139 246,129" fill="rgb(255,0,126)" />
<polygon points=" 252,145 240,145 246,155 252,145" fill="rgb(255,0,126)" />
<polygon points=" 240,159 235,149 229,159 240,159" fill="rgb(255,0,126)" />
<polygon points=" 223,155 229,145 218,145 223,155" fill="rgb(255,0,126)" />
<polygon points=" 218,139 229,139 223,129 218,139" fill="rgb(255,0,126)" />
<polygon points=" 370,214 365,224 376,224 370,214" fill="rgb(255,0,126)" />
<polygon points=" 365,204 370,214 376,204 365,204" fill="rgb(255,0,126)" />
<polygon points=" 382,207 376,217 387,217 382,207" fill="rgb(255,0,126)" />
<polygon points=" 387,224 376,224 382,233 387,224" fill="rgb(255,0,126)" />
<polygon points=" 376,237 370,227 365,237 376,237" fill="rgb(255,0,126)" />
<polygon points=" 359,233 365,224 353,224 359,233" fill="rgb(255,0,126)" />
<polygon points=" 353,217 365,217 359,207 353,217" fill="rgb(255,0,126)" />
<polygon points=" 365,178 370,188 376,178 365,178" fill="rgb(255,0,126)" />
<polygon points=" 365,165 370,175 376,165 365,165" fill="rgb(255,0,126)" />
<polygon points=" 382,168 376,178 387,178 382,168" fill="rgb(255,0,126)" />
<polygon points=" 387,185 376,185 382,194 387,185" fill="rgb(255,0,126)" />
<polygon points=" 376,198 370,188 365,198 376,198" fill="rgb(255,0,126)" />
<polygon points=" 359,194 365,185 353,185 359,194" fill="rgb(255,0,126)" />
<polygon points=" 353,178 365,178 359,168 353,178" fill="rgb(255,0,126)" />
<polygon points=" 404,194 398,204 410,204 404,194" fill="rgb(255,0,126)" />
<polygon points=" 398,185 404,194 410,185 398,185" fill="rgb(255,0,126)" />
<polygon points=" 415,188 410,198 421,198 415,188" fill="rgb(255,0,126)" />
<polygon points=" 421,204 410,204 415,214 421,204" fill="rgb(255,0,126)" />
<polygon points=" 410,217 404,207 398,217 410,217" fill="rgb(255,0,126)" />
<polygon points=" 393,214 398,204 387,204 393,214" fill="rgb(255,0,126)" />
<polygon points=" 387,198 398,198 393,188 387,198" fill="rgb(255,0,126)" />
<polygon points=" 410,237 398,237 404,247 410,237" fill="rgb(255,0,126)" />
<polygon points=" 398,224 404,233 410,224 398,224" fill="rgb(255,0,126)" />
<polygon points=" 415,227 410,237 421,237 415,227" fill="rgb(255,0,126)" />
<polygon points=" 421,243 410,243 415,253 421,243" fill="rgb(255,0,126)" />
<polygon points=" 410,256 404,247 398,256 410,256" fill="rgb(255,0,126)" />
<polygon points=" 393,253 398,243 387,243 393,253" fill="rgb(255,0,126)" />
<polygon points=" 387,237 398,237 393,227 387,237" fill="rgb(255,0,126)" />
<polygon points=" 376,263 370,253 365,263 376,263" fill="rgb(255,0,126)" />
<polygon points=" 365,243 370,253 376,243 365,243" fill="rgb(255,0,126)" />
<polygon points=" 382,247 376,256 387,256 382,247" fill="rgb(255,0,126)" />
<polygon points=" 387,263 376,263 382,273 387,263" fill="rgb(255,0,126)" />
<polygon points=" 376,276 370,266 365,276 376,276" fill="rgb(255,0,126)" />
<polygon points=" 359,273 365,263 353,263 359,273" fill="rgb(255,0,126)" />
<polygon points=" 353,256 365,256 359,247 353,256" fill="rgb(255,0,126)" />
<polygon points=" 336,247 342,237 331,237 336,247" fill="rgb(255,0,126)" />
<polygon points=" 331,224 336,233 342,224 331,224" fill="rgb(255,0,126)" />
<polygon points=" 348,227 342,237 353,237 348,227" fill="rgb(255,0,126)" />
<polygon points=" 353,243 342,243 348,253 353,243" fill="rgb(255,0,126)" />
<polygon points=" 342,256 336,247 331,256 342,256" fill="rgb(255,0,126)" />
<polygon points=" 325,253 331,243 319,243 325,253" fill="rgb(255,0,126)" />
<polygon points=" 319,237 331,237 325,227 319,237" fill="rgb(255,0,126)" />
<polygon points=" 331,204 342,204 336,194 331,204" fill="rgb(255,0,126)" />
<polygon points=" 331,185 336,194 342,185 331,185" fill="rgb(255,0,126)" />
<polygon points=" 348,188 342,198 353,198 348,188" fill="rgb(255,0,126)" />
<polygon points=" 353,204 342,204 348,214 353,204" fill="rgb(255,0,126)" />
<polygon points=" 342,217 336,207 331,217 342,217" fill="rgb(255,0,126)" />
<polygon points=" 325,214 331,204 319,204 325,214" fill="rgb(255,0,126)" />
<polygon points=" 319,198 331,198 325,188 319,198" fill="rgb(255,0,126)" />
<polygon points=" 376,335 365,335 370,344 376,335" fill="rgb(255,0,126)" />
<polygon points=" 365,321 370,331 376,321 365,321" fill="rgb(255,0,126)" />
<polygon points=" 382,325 376,335 387,335 382,325" fill="rgb(255,0,126)" />
<polygon points=" 387,341 376,341 382,351 387,341" fill="rgb(255,0,126)" />
<polygon points=" 376,354 370,344 365,354 376,354" fill="rgb(255,0,126)" />
<polygon points=" 359,351 365,341 353,341 359,351" fill="rgb(255,0,126)" />
<polygon points=" 353,335 365,335 359,325 353,335" fill="rgb(255,0,126)" />
<polygon points=" 365,295 370,305 376,295 365,295" fill="rgb(255,0,126)" />
<polygon points=" 365,282 370,292 376,282 365,282" fill="rgb(255,0,126)" />
<polygon points=" 382,286 376,295 387,295 382,286" fill="rgb(255,0,126)" />
<polygon points=" 387,302 376,302 382,312 387,302" fill="rgb(255,0,126)" />
<polygon points=" 376,315 370,305 365,315 376,315" fill="rgb(255,0,126)" />
<polygon points=" 359,312 365,302 353,302 359,312" fill="rgb(255,0,126)" />
<polygon points=" 353,295 365,295 359,286 353,295" fill="rgb(255,0,126)" />
<polygon points=" 404,312 398,321 410,321 404,312" fill="rgb(255,0,126)" />
<polygon points=" 398,302 404,312 410,302 398,302" fill="rgb(255,0,126)" />
<polygon points=" 415,305 410,315 421,315 415,305" fill="rgb(255,0,126)" />
<polygon points=" 421,321 410,321 415,331 421,321" fill="rgb(255,0,126)" />
<polygon points=" 410,335 404,325 398,335 410,335" fill="rgb(255,0,126)" />
<polygon points=" 393,331 398,321 387,321 393,331" fill="rgb(255,0,126)" />
<polygon points=" 387,315 398,315 393,305 387,315" fill="rgb(255,0,126)" />
<polygon points=" 410,354 398,354 404,364 410,354" fill="rgb(255,0,126)" />
<polygon points=" 398,341 404,351 410,341 398,341" fill="rgb(255,0,126)" />
<polygon points=" 415,344 410,354 421,354 415,344" fill="rgb(255,0,126)" />
<polygon points=" 421,361 410,361 415,370 421,361" fill="rgb(255,0,126)" />
<polygon points=" 410,374 404,364 398,374 410,374" fill="rgb(255,0,126)" />
<polygon points=" 393,370 398,361 387,361 393,370" fill="rgb(255,0,126)" />
<polygon points=" 387,354 398,354 393,344 387,354" fill="rgb(255,0,126)" />
<polygon points=" 376,380 370,370 365,380 376,380" fill="rgb(255,0,126)" />
<polygon points=" 365,361 370,370 376,361 365,361" fill="rgb(255,0,126)" />
<polygon points=" 382,364 376,374 387,374 382,364" fill="rgb(255,0,126)" />
<polygon points=" 387,380 376,380 382,390 387,380" fill="rgb(255,0,126)" />
<polygon points=" 376,393 370,383 365,393 376,393" fill="rgb(255,0,126)" />
<polygon points=" 359,390 365,380 353,380 359,390" fill="rgb(255,0,126)" />
<polygon points=" 353,374 365,374 359,364 353,374" fill="rgb(255,0,126)" />
<polygon points=" 336,364 342,354 331,354 336,364" fill="rgb(255,0,126)" />
<polygon points=" 331,341 336,351 342,341 331,341" fill="rgb(255,0,126)" />
<polygon points=" 348,344 342,354 353,354 348,344" fill="rgb(255,0,126)" />
<polygon points=" 353,361 342,361 348,370 353,361" fill="rgb(255,0,126)" />
<polygon points=" 342,374 336,364 331,374 342,374" fill="rgb(255,0,126)" />
<polygon points=" 325,370 331,361 319,361 325,370" fill="rgb(255,0,126)" />
<polygon points=" 319,354 331,354 325,344 319,354" fill="rgb(255,0,126)" />
<polygon points=" 331,321 342,321 336,312 331,321" fill="rgb(255,0,126)" />
<polygon points=" 331,302 336,312 342,302 331,302" fill="rgb(255,0,126)" />
<polygon points=" 348,305 342,315 353,315 348,305" fill="rgb(255,0,126)" />
<polygon points=" 353,321 342,321 348,331 353,321" fill="rgb(255,0,126)" />
<polygon points=" 342,335 336,325 331,335 342,335" fill="rgb(255,0,126)" />
<polygon points=" 325,331 331,321 319,321 325,331" fill="rgb(255,0,126)" />
<polygon points=" 319,315 331,315 325,305 319,315" fill="rgb(255,0,126)" />
<polygon points=" 274,400 269,390 263,400 274,400" fill="rgb(255,0,126)" />
<polygon points=" 263,380 269,390 274,380 263,380" fill="rgb(255,0,126)" />
<polygon points=" 280,383 274,393 286,393 280,383" fill="rgb(255,0,126)" />
<polygon points=" 286,400 274,400 280,409 286,400" fill="rgb(255,0,126)" />
<polygon points=" 274,413 269,403 263,413 274,413" fill="rgb(255,0,126)" />
<polygon points=" 257,409 263,400 252,400 257,409" fill="rgb(255,0,126)" />
<polygon points=" 252,393 263,393 257,383 252,393" fill="rgb(255,0,126)" />
<polygon points=" 263,354 269,364 274,354 263,354" fill="rgb(255,0,126)" />
<polygon points=" 263,341 269,351 274,341 263,341" fill="rgb(255,0,126)" />
<polygon points=" 280,344 274,354 286,354 280,344" fill="rgb(255,0,126)" />
<polygon points=" 286,361 274,361 280,370 286,361" fill="rgb(255,0,126)" />
<polygon points=" 274,374 269,364 263,374 274,374" fill="rgb(255,0,126)" />
<polygon points=" 257,370 263,361 252,361 257,370" fill="rgb(255,0,126)" />
<polygon points=" 252,354 263,354 257,344 252,354" fill="rgb(255,0,126)" />
<polygon points=" 303,370 297,380 308,380 303,370" fill="rgb(255,0,126)" />
<polygon points=" 297,361 303,370 308,361 297,361" fill="rgb(255,0,126)" />
<polygon points=" 314,364 308,374 319,374 314,364" fill="rgb(255,0,126)" />
<polygon points=" 319,380 308,380 314,390 319,380" fill="rgb(255,0,126)" />
<polygon points=" 308,393 303,383 297,393 308,393" fill="rgb(255,0,126)" />
<polygon points=" 291,390 297,380 286,380 291,390" fill="rgb(255,0,126)" />
<polygon points=" 286,374 297,374 291,364 286,374" fill="rgb(255,0,126)" />
<polygon points=" 308,413 297,413 303,423 308,413" fill="rgb(255,0,126)" />
<polygon points=" 297,400 303,409 308,400 297,400" fill="rgb(255,0,126)" />
<polygon points=" 314,403 308,413 319,413 314,403" fill="rgb(255,0,126)" />
<polygon points=" 319,419 308,419 314,429 319,419" fill="rgb(255,0,126)" />
<polygon points=" 308,432 303,423 297,432 308,432" fill="rgb(255,0,126)" />
<polygon points=" 291,429 297,419 286,419 291,429" fill="rgb(255,0,126)" />
<polygon points=" 286,413 297,413 291,403 286,413" fill="rgb(255,0,126)" />
<polygon points=" 274,439 269,429 263,439 274,439" fill="rgb(255,0,126)" />
<polygon points=" 263,419 269,429 274,419 263,419" fill="rgb(255,0,126)" />
<polygon points=" 280,423 274,432 286,432 280,423" fill="rgb(255,0,126)" />
<polygon points=" 286,439 274,439 280,449 286,439" fill="rgb(255,0,126)" />
<polygon points=" 274,452 269,442 263,452 274,452" fill="rgb(255,0,126)" />
<polygon points=" 257,449 263,439 252,439 257,449" fill="rgb(255,0,126)" />
<polygon points=" 252,432 263,432 257,423 252,432" fill="rgb(255,0,126)" />
<polygon points=" 235,423 240,413 229,413 235,423" fill="rgb(255,0,126)" />
<polygon points=" 229,400 235,409 240,400 229,400" fill="rgb(255,0,126)" />
<polygon points=" 246,403 240,413 252,413 246,403" fill="rgb(255,0,126)" />
<polygon points=" 252,419 240,419 246,429 252,419" fill="rgb(255,0,126)" />
<polygon points=" 240,432 235,423 229,432 240,432" fill="rgb(255,0,126)" />
<polygon points=" 223,429 229,419 218,419 223,429" fill="rgb(255,0,126)" />
<polygon points=" 218,413 229,413 223,403 218,413" fill="rgb(255,0,126)" />
<polygon points=" 229,380 240,380 235,370 229,380" fill="rgb(255,0,126)" />
<polygon points=" 229,361 235,370 240,361 229,361" fill="rgb(255,0,126)" />
<polygon points=" 246,364 240,374 252,374 246,364" fill="rgb(255,0,126)" />
<polygon points=" 252,380 240,380 246,390 252,380" fill="rgb(255,0,126)" />
<polygon points=" 240,393 235,383 229,393 240,393" fill="rgb(255,0,126)" />
<polygon points=" 223,390 229,380 218,380 223,390" fill="rgb(255,0,126)" />
<polygon points=" 218,374 229,374 223,364 218,374" fill="rgb(255,0,126)" />
<polygon points=" 167,344 173,335 161,335 167,344" fill="rgb(255,0,126)" />
<polygon points=" 161,321 167,331 173,321 161,321" fill="rgb(255,0,126)" />
<polygon points=" 178,325 173,335 184,335 178,325" fill="rgb(255,0,126)" />
<polygon points=" 184,341 173,341 178,351 184,341" fill="rgb(255,0,126)" />
<polygon points=" 173,354 167,344 161,354 173,354" fill="rgb(255,0,126)" />
<polygon points=" 156,351 161,341 150,341 156,351" fill="rgb(255,0,126)" />
<polygon points=" 150,335 161,335 156,325 150,335" fill="rgb(255,0,126)" />
<polygon points=" 161,295 167,305 173,295 161,295" fill="rgb(255,0,126)" />
<polygon points=" 161,282 167,292 173,282 161,282" fill="rgb(255,0,126)" />
<polygon points=" 178,286 173,295 184,295 178,286" fill="rgb(255,0,126)" />
<polygon points=" 184,302 173,302 178,312 184,302" fill="rgb(255,0,126)" />
<polygon points=" 173,315 167,305 161,315 173,315" fill="rgb(255,0,126)" />
<polygon points=" 156,312 161,302 150,302 156,312" fill="rgb(255,0,126)" />
<polygon points=" 150,295 161,295 156,286 150,295" fill="rgb(255,0,126)" />
<polygon points=" 201,312 195,321 207,321 201,312" fill="rgb(255,0,126)" />
<polygon points=" 195,302 201,312 207,302 195,302" fill="rgb(255,0,126)" />
<polygon points=" 212,305 207,315 218,315 212,305" fill="rgb(255,0,126)" />
<polygon points=" 218,321 207,321 212,331 218,321" fill="rgb(255,0,126)" />
<polygon points=" 207,335 201,325 195,335 207,335" fill="rgb(255,0,126)" />
<polygon points=" 190,331 195,321 184,321 190,331" fill="rgb(255,0,126)" />
<polygon points=" 184,315 195,315 190,305 184,315" fill="rgb(255,0,126)" />
<polygon points=" 207,354 195,354 201,364 207,354" fill="rgb(255,0,126)" />
<polygon points=" 195,341 201,351 207,341 195,341" fill="rgb(255,0,126)" />
<polygon points=" 212,344 207,354 218,354 212,344" fill="rgb(255,0,126)" />
<polygon points=" 218,361 207,361 212,370 218,361" fill="rgb(255,0,126)" />
<polygon points=" 207,374 201,364 195,374 207,374" fill="rgb(255,0,126)" />
<polygon points=" 190,370 195,361 184,361 190,370" fill="rgb(255,0,126)" />
<polygon points=" 184,354 195,354 190,344 184,354" fill="rgb(255,0,126)" />
<polygon points=" 173,380 167,370 161,380 173,380" fill="rgb(255,0,126)" />
<polygon points=" 161,361 167,370 173,361 161,361" fill="rgb(255,0,126)" />
<polygon points=" 178,364 173,374 184,374 178,364" fill="rgb(255,0,126)" />
<polygon points=" 184,380 173,380 178,390 184,380" fill="rgb(255,0,126)" />
<polygon points=" 173,393 167,383 161,393 173,393" fill="rgb(255,0,126)" />
<polygon points=" 156,390 161,380 150,380 156,390" fill="rgb(255,0,126)" />
<polygon points=" 150,374 161,374 156,364 150,374" fill="rgb(255,0,126)" />
<polygon points=" 133,364 139,354 128,354 133,364" fill="rgb(255,0,126)" />
<polygon points=" 128,341 133,351 139,341 128,341" fill="rgb(255,0,126)" />
<polygon points=" 144,344 139,354 150,354 144,344" fill="rgb(255,0,126)" />
<polygon points=" 150,361 139,361 144,370 150,361" fill="rgb(255,0,126)" />
<polygon points=" 139,374 133,364 128,374 139,374" fill="rgb(255,0,126)" />
<polygon points=" 122,370 128,361 116,361 122,370" fill="rgb(255,0,126)" />
<polygon points=" 116,354 128,354 122,344 116,354" fill="rgb(255,0,126)" />
<polygon points=" 128,321 139,321 133,312 128,321" fill="rgb(255,0,126)" />
<polygon points=" 128,302 133,312 139,302 128,302" fill="rgb(255,0,126)" />
<polygon points=" 144,305 139,315 150,315 144,305" fill="rgb(255,0,126)" />
<polygon points=" 150,321 139,321 144,331 150,321" fill="rgb(255,0,126)" />
<polygon points=" 139,335 133,325 128,335 139,335" fill="rgb(255,0,126)" />
<polygon points=" 122,331 128,321 116,321 122,331" fill="rgb(255,0,126)" />
<polygon points=" 116,315 128,315 122,305 116,315" fill="rgb(255,0,126)" />
<polygon points=" 161,224 173,224 167,214 161,224" fill="rgb(255,0,126)" />
<polygon points=" 161,204 167,214 173,204 161,204" fill="rgb(255,0,126)" />
<polygon points=" 178,207 173,217 184,217 178,207" fill="rgb(255,0,126)" />
<polygon points=" 184,224 173,224 178,233 184,224" fill="rgb(255,0,126)" />
<polygon points=" 173,237 167,227 161,237 173,237" fill="rgb(255,0,126)" />
<polygon points=" 156,233 161,224 150,224 156,233" fill="rgb(255,0,126)" />
<polygon points=" 150,217 161,217 156,207 150,217" fill="rgb(255,0,126)" />
<polygon points=" 161,178 167,188 173,178 161,178" fill="rgb(255,0,126)" />
<polygon points=" 161,165 167,175 173,165 161,165" fill="rgb(255,0,126)" />
<polygon points=" 178,168 173,178 184,178 178,168" fill="rgb(255,0,126)" />
<polygon points=" 184,185 173,185 178,194 184,185" fill="rgb(255,0,126)" />
<polygon points=" 173,198 167,188 161,198 173,198" fill="rgb(255,0,126)" />
<polygon points=" 156,194 161,185 150,185 156,194" fill="rgb(255,0,126)" />
<polygon points=" 150,178 161,178 156,168 150,178" fill="rgb(255,0,126)" />
<polygon points=" 201,194 195,204 207,204 201,194" fill="rgb(255,0,126)" />
<polygon points=" 195,185 201,194 207,185 195,185" fill="rgb(255,0,126)" />
<polygon points=" 212,188 207,198 218,198 212,188" fill="rgb(255,0,126)" />
<polygon points=" 218,204 207,204 212,214 218,204" fill="rgb(255,0,126)" />
<polygon points=" 207,217 201,207 195,217 207,217" fill="rgb(255,0,126)" />
<polygon points=" 190,214 195,204 184,204 190,214" fill="rgb(255,0,126)" />
<polygon points=" 184,198 195,198 190,188 184,198" fill="rgb(255,0,126)" />
<polygon points=" 207,237 195,237 201,247 207,237" fill="rgb(255,0,126)" />
<polygon points=" 195,224 201,233 207,224 195,224" fill="rgb(255,0,126)" />
<polygon points=" 212,227 207,237 218,237 212,227" fill="rgb(255,0,126)" />
<polygon points=" 218,243 207,243 212,253 218,243" fill="rgb(255,0,126)" />
<polygon points=" 207,256 201,247 195,256 207,256" fill="rgb(255,0,126)" />
<polygon points=" 190,253 195,243 184,243 190,253" fill="rgb(255,0,126)" />
<polygon points=" 184,237 195,237 190,227 184,237" fill="rgb(255,0,126)" />
<polygon points=" 173,263 167,253 161,263 173,263" fill="rgb(255,0,126)" />
<polygon points=" 161,243 167,253 173,243 161,243" fill="rgb(255,0,126)" />
<polygon points=" 178,247 173,256 184,256 178,247" fill="rgb(255,0,126)" />
<polygon points=" 184,263 173,263 178,273 184,263" fill="rgb(255,0,126)" />
<polygon points=" 173,276 167,266 161,276 173,276" fill="rgb(255,0,126)" />
<polygon points=" 156,273 161,263 150,263 156,273" fill="rgb(255,0,126)" />
<polygon points=" 150,256 161,256 156,247 150,256" fill="rgb(255,0,126)" />
<polygon points=" 133,247 139,237 128,237 133,247" fill="rgb(255,0,126)" />
<polygon points=" 128,224 133,233 139,224 128,224" fill="rgb(255,0,126)" />
<polygon points=" 144,227 139,237 150,237 144,227" fill="rgb(255,0,126)" />
<polygon points=" 150,243 139,243 144,253 150,243" fill="rgb(255,0,126)" />
<polygon points=" 139,256 133,247 128,256 139,256" fill="rgb(255,0,126)" />
<polygon points=" 122,253 128,243 116,243 122,253" fill="rgb(255,0,126)" />
<polygon points=" 116,237 128,237 122,227 116,237" fill="rgb(255,0,126)" />
<polygon points=" 128,204 139,204 133,194 128,204" fill="rgb(255,0,126)" />
<polygon points=" 128,185 133,194 139,185 128,185" fill="rgb(255,0,126)" />
<polygon points=" 144,188 139,198 150,198 144,188" fill="rgb(255,0,126)" />
<polygon points=" 150,204 139,204 144,214 150,204" fill="rgb(255,0,126)" />
<polygon points=" 139,217 133,207 128,217 139,217" fill="rgb(255,0,126)" />
<polygon points=" 122,214 128,204 116,204 122,214" fill="rgb(255,0,126)" />
<polygon points=" 116,198 128,198 122,188 116,198" fill="rgb(255,0,126)" />
<polygon points=" 192,235 269,367 345,235 192,235" fill="rgb(0,255,0)" />
<polygon points=" 243,264 269,308 294,264 243,264" fill="rgb(255,128,0)" />
<polygon points=" 243,206 269,250 294,206 243,206" fill="rgb(255,128,0)" />
<polygon points=" 319,220 294,264 345,264 319,220" fill="rgb(255,128,0)" />
<polygon points=" 345,294 294,294 319,338 345,294" fill="rgb(255,128,0)" />
<polygon points=" 294,352 269,308 243,352 294,352" fill="rgb(255,128,0)" />
<polygon points=" 218,338 243,294 192,294 218,338" fill="rgb(255,128,0)" />
<polygon points=" 192,264 243,264 218,220 192,264" fill="rgb(255,128,0)" />
<polygon points=" 260,274 269,289 277,274 260,274" fill="rgb(255,0,254)" />
<polygon points=" 260,255 269,269 277,255 260,255" fill="rgb(255,0,254)" />
<polygon points=" 286,260 277,274 294,274 286,260" fill="rgb(255,0,254)" />
<polygon points=" 294,284 277,284 286,299 294,284" fill="rgb(255,0,254)" />
<polygon points=" 277,304 269,289 260,304 277,304" fill="rgb(255,0,254)" />
<polygon points=" 252,299 260,284 243,284 252,299" fill="rgb(255,0,254)" />
<polygon points=" 243,274 260,274 252,260 243,274" fill="rgb(255,0,254)" />
<polygon points=" 260,216 269,230 277,216 260,216" fill="rgb(255,0,254)" />
<polygon points=" 260,196 269,211 277,196 260,196" fill="rgb(255,0,254)" />
<polygon points=" 286,201 277,216 294,216 286,201" fill="rgb(255,0,254)" />
<polygon points=" 294,225 277,225 286,240 294,225" fill="rgb(255,0,254)" />
<polygon points=" 277,245 269,230 260,245 277,245" fill="rgb(255,0,254)" />
<polygon points=" 252,240 260,225 243,225 252,240" fill="rgb(255,0,254)" />
<polygon points=" 243,216 260,216 252,201 243,216" fill="rgb(255,0,254)" />
<polygon points=" 319,240 311,255 328,255 319,240" fill="rgb(255,0,254)" />
<polygon points=" 311,225 319,240 328,225 311,225" fill="rgb(255,0,254)" />
<polygon points=" 336,230 328,245 345,245 336,230" fill="rgb(255,0,254)" />
<polygon points=" 345,255 328,255 336,269 345,255" fill="rgb(255,0,254)" />
<polygon points=" 328,274 319,260 311,274 328,274" fill="rgb(255,0,254)" />
<polygon points=" 303,269 311,255 294,255 303,269" fill="rgb(255,0,254)" />
<polygon points=" 294,245 311,245 303,230 294,245" fill="rgb(255,0,254)" />
<polygon points=" 328,304 311,304 319,318 328,304" fill="rgb(255,0,254)" />
<polygon points=" 311,284 319,299 328,284 311,284" fill="rgb(255,0,254)" />
<polygon points=" 336,289 328,304 345,304 336,289" fill="rgb(255,0,254)" />
<polygon points=" 345,313 328,313 336,328 345,313" fill="rgb(255,0,254)" />
<polygon points=" 328,333 319,318 311,333 328,333" fill="rgb(255,0,254)" />
<polygon points=" 303,328 311,313 294,313 303,328" fill="rgb(255,0,254)" />
<polygon points=" 294,304 311,304 303,289 294,304" fill="rgb(255,0,254)" />
<polygon points=" 277,343 269,328 260,343 277,343" fill="rgb(255,0,254)" />
<polygon points=" 260,313 269,328 277,313 260,313" fill="rgb(255,0,254)" />
<polygon points=" 286,318 277,333 294,333 286,318" fill="rgb(255,0,254)" />
<polygon points=" 294,343 277,343 286,357 294,343" fill="rgb(255,0,254)" />
<polygon points=" 277,362 269,348 260,362 277,362" fill="rgb(255,0,254)" />
<polygon points=" 252,357 260,343 243,343 252,357" fill="rgb(255,0,254)" />
<polygon points=" 243,333 260,333 252,318 243,333" fill="rgb(255,0,254)" />
<polygon points=" 218,318 226,304 209,304 218,318" fill="rgb(255,0,254)" />
<polygon points=" 209,284 218,299 226,284 209,284" fill="rgb(255,0,254)" />
<polygon points=" 235,289 226,304 243,304 235,289" fill="rgb(255,0,254)" />
<polygon points=" 243,313 226,313 235,328 243,313" fill="rgb(255,0,254)" />
<polygon points=" 226,333 218,318 209,333 226,333" fill="rgb(255,0,254)" />
<polygon points=" 201,328 209,313 192,313 201,328" fill="rgb(255,0,254)" />
<polygon points=" 192,304 209,304 201,289 192,304" fill="rgb(255,0,254)" />
<polygon points=" 209,255 226,255 218,240 209,255" fill="rgb(255,0,254)" />
<polygon points=" 209,225 218,240 226,225 209,225" fill="rgb(255,0,254)" />
<polygon points=" 235,230 226,245 243,245 235,230" fill="rgb(255,0,254)" />
<polygon points=" 243,255 226,255 235,269 243,255" fill="rgb(255,0,254)" />
<polygon points=" 226,274 218,260 209,274 226,274" fill="rgb(255,0,254)" />
<polygon points=" 201,269 209,255 192,255 201,269" fill="rgb(255,0,254)" />
<polygon points=" 192,245 209,245 201,230 192,245" fill="rgb(255,0,254)" />
<polygon points=" 266,277 269,282 271,277 266,277" fill="rgb(0,126,255)" />
<polygon points=" 266,271 269,276 271,271 266,271" fill="rgb(0,126,255)" />
<polygon points=" 274,273 271,277 277,277 274,273" fill="rgb(0,126,255)" />
<polygon points=" 277,281 271,281 274,286 277,281" fill="rgb(0,126,255)" />
<polygon points=" 271,287 269,282 266,287 271,287" fill="rgb(0,126,255)" />
<polygon points=" 263,286 266,281 260,281 263,286" fill="rgb(0,126,255)" />
<polygon points=" 260,277 266,277 263,273 260,277" fill="rgb(0,126,255)" />
<polygon points=" 266,258 269,263 271,258 266,258" fill="rgb(0,126,255)" />
<polygon points=" 266,251 269,256 271,251 266,251" fill="rgb(0,126,255)" />
<polygon points=" 274,253 271,258 277,258 274,253" fill="rgb(0,126,255)" />
<polygon points=" 277,261 271,261 274,266 277,261" fill="rgb(0,126,255)" />
<polygon points=" 271,268 269,263 266,268 271,268" fill="rgb(0,126,255)" />
<polygon points=" 263,266 266,261 260,261 263,266" fill="rgb(0,126,255)" />
<polygon points=" 260,258 266,258 263,253 260,258" fill="rgb(0,126,255)" />
<polygon points=" 286,266 283,271 288,271 286,266" fill="rgb(0,126,255)" />
<polygon points=" 283,261 286,266 288,261 283,261" fill="rgb(0,126,255)" />
<polygon points=" 291,263 288,268 294,268 291,263" fill="rgb(0,126,255)" />
<polygon points=" 294,271 288,271 291,276 294,271" fill="rgb(0,126,255)" />
<polygon points=" 288,277 286,273 283,277 288,277" fill="rgb(0,126,255)" />
<polygon points=" 280,276 283,271 277,271 280,276" fill="rgb(0,126,255)" />
<polygon points=" 277,268 283,268 280,263 277,268" fill="rgb(0,126,255)" />
<polygon points=" 288,287 283,287 286,292 288,287" fill="rgb(0,126,255)" />
<polygon points=" 283,281 286,286 288,281 283,281" fill="rgb(0,126,255)" />
<polygon points=" 291,282 288,287 294,287 291,282" fill="rgb(0,126,255)" />
<polygon points=" 294,291 288,291 291,295 294,291" fill="rgb(0,126,255)" />
<polygon points=" 288,297 286,292 283,297 288,297" fill="rgb(0,126,255)" />
<polygon points=" 280,295 283,291 277,291 280,295" fill="rgb(0,126,255)" />
<polygon points=" 277,287 283,287 280,282 277,287" fill="rgb(0,126,255)" />
<polygon points=" 271,300 269,295 266,300 271,300" fill="rgb(0,126,255)" />
<polygon points=" 266,291 269,295 271,291 266,291" fill="rgb(0,126,255)" />
<polygon points=" 274,292 271,297 277,297 274,292" fill="rgb(0,126,255)" />
<polygon points=" 277,300 271,300 274,305 277,300" fill="rgb(0,126,255)" />
<polygon points=" 271,307 269,302 266,307 271,307" fill="rgb(0,126,255)" />
<polygon points=" 263,305 266,300 260,300 263,305" fill="rgb(0,126,255)" />
<polygon points=" 260,297 266,297 263,292 260,297" fill="rgb(0,126,255)" />
<polygon points=" 252,292 255,287 249,287 252,292" fill="rgb(0,126,255)" />
<polygon points=" 249,281 252,286 255,281 249,281" fill="rgb(0,126,255)" />
<polygon points=" 257,282 255,287 260,287 257,282" fill="rgb(0,126,255)" />
<polygon points=" 260,291 255,291 257,295 260,291" fill="rgb(0,126,255)" />
<polygon points=" 255,297 252,292 249,297 255,297" fill="rgb(0,126,255)" />
<polygon points=" 246,295 249,291 243,291 246,295" fill="rgb(0,126,255)" />
<polygon points=" 243,287 249,287 246,282 243,287" fill="rgb(0,126,255)" />
<polygon points=" 249,271 255,271 252,266 249,271" fill="rgb(0,126,255)" />
<polygon points=" 249,261 252,266 255,261 249,261" fill="rgb(0,126,255)" />
<polygon points=" 257,263 255,268 260,268 257,263" fill="rgb(0,126,255)" />
<polygon points=" 260,271 255,271 257,276 260,271" fill="rgb(0,126,255)" />
<polygon points=" 255,277 252,273 249,277 255,277" fill="rgb(0,126,255)" />
<polygon points=" 246,276 249,271 243,271 246,276" fill="rgb(0,126,255)" />
<polygon points=" 243,268 249,268 246,263 243,268" fill="rgb(0,126,255)" />
<polygon points=" 266,219 269,224 271,219 266,219" fill="rgb(0,126,255)" />
<polygon points=" 266,212 269,217 271,212 266,212" fill="rgb(0,126,255)" />
<polygon points=" 274,214 271,219 277,219 274,214" fill="rgb(0,126,255)" />
<polygon points=" 277,222 271,222 274,227 277,222" fill="rgb(0,126,255)" />
<polygon points=" 271,229 269,224 266,229 271,229" fill="rgb(0,126,255)" />
<polygon points=" 263,227 266,222 260,222 263,227" fill="rgb(0,126,255)" />
<polygon points=" 260,219 266,219 263,214 260,219" fill="rgb(0,126,255)" />
<polygon points=" 266,199 269,204 271,199 266,199" fill="rgb(0,126,255)" />
<polygon points=" 266,193 269,198 271,193 266,193" fill="rgb(0,126,255)" />
<polygon points=" 274,194 271,199 277,199 274,194" fill="rgb(0,126,255)" />
<polygon points=" 277,203 271,203 274,207 277,203" fill="rgb(0,126,255)" />
<polygon points=" 271,209 269,204 266,209 271,209" fill="rgb(0,126,255)" />
<polygon points=" 263,207 266,203 260,203 263,207" fill="rgb(0,126,255)" />
<polygon points=" 260,199 266,199 263,194 260,199" fill="rgb(0,126,255)" />
<polygon points=" 286,207 283,212 288,212 286,207" fill="rgb(0,126,255)" />
<polygon points=" 283,203 286,207 288,203 283,203" fill="rgb(0,126,255)" />
<polygon points=" 291,204 288,209 294,209 291,204" fill="rgb(0,126,255)" />
<polygon points=" 294,212 288,212 291,217 294,212" fill="rgb(0,126,255)" />
<polygon points=" 288,219 286,214 283,219 288,219" fill="rgb(0,126,255)" />
<polygon points=" 280,217 283,212 277,212 280,217" fill="rgb(0,126,255)" />
<polygon points=" 277,209 283,209 280,204 277,209" fill="rgb(0,126,255)" />
<polygon points=" 288,229 283,229 286,233 288,229" fill="rgb(0,126,255)" />
<polygon points=" 283,222 286,227 288,222 283,222" fill="rgb(0,126,255)" />
<polygon points=" 291,224 288,229 294,229 291,224" fill="rgb(0,126,255)" />
<polygon points=" 294,232 288,232 291,237 294,232" fill="rgb(0,126,255)" />
<polygon points=" 288,238 286,233 283,238 288,238" fill="rgb(0,126,255)" />
<polygon points=" 280,237 283,232 277,232 280,237" fill="rgb(0,126,255)" />
<polygon points=" 277,229 283,229 280,224 277,229" fill="rgb(0,126,255)" />
<polygon points=" 271,242 269,237 266,242 271,242" fill="rgb(0,126,255)" />
<polygon points=" 266,232 269,237 271,232 266,232" fill="rgb(0,126,255)" />
<polygon points=" 274,233 271,238 277,238 274,233" fill="rgb(0,126,255)" />
<polygon points=" 277,242 271,242 274,247 277,242" fill="rgb(0,126,255)" />
<polygon points=" 271,248 269,243 266,248 271,248" fill="rgb(0,126,255)" />
<polygon points=" 263,247 266,242 260,242 263,247" fill="rgb(0,126,255)" />
<polygon points=" 260,238 266,238 263,233 260,238" fill="rgb(0,126,255)" />
<polygon points=" 252,233 255,229 249,229 252,233" fill="rgb(0,126,255)" />
<polygon points=" 249,222 252,227 255,222 249,222" fill="rgb(0,126,255)" />
<polygon points=" 257,224 255,229 260,229 257,224" fill="rgb(0,126,255)" />
<polygon points=" 260,232 255,232 257,237 260,232" fill="rgb(0,126,255)" />
<polygon points=" 255,238 252,233 249,238 255,238" fill="rgb(0,126,255)" />
<polygon points=" 246,237 249,232 243,232 246,237" fill="rgb(0,126,255)" />
<polygon points=" 243,229 249,229 246,224 243,229" fill="rgb(0,126,255)" />
<polygon points=" 249,212 255,212 252,207 249,212" fill="rgb(0,126,255)" />
<polygon points=" 249,203 252,207 255,203 249,203" fill="rgb(0,126,255)" />
<polygon points=" 257,204 255,209 260,209 257,204" fill="rgb(0,126,255)" />
<polygon points=" 260,212 255,212 257,217 260,212" fill="rgb(0,126,255)" />
<polygon points=" 255,219 252,214 249,219 255,219" fill="rgb(0,126,255)" />
<polygon points=" 246,217 249,212 243,212 246,217" fill="rgb(0,126,255)" />
<polygon points=" 243,209 249,209 246,204 243,209" fill="rgb(0,126,255)" />
<polygon points=" 319,247 317,251 322,251 319,247" fill="rgb(0,126,255)" />
<polygon points=" 317,242 319,247 322,242 317,242" fill="rgb(0,126,255)" />
<polygon points=" 325,243 322,248 328,248 325,243" fill="rgb(0,126,255)" />
<polygon points=" 328,251 322,251 325,256 328,251" fill="rgb(0,126,255)" />
<polygon points=" 322,258 319,253 317,258 322,258" fill="rgb(0,126,255)" />
<polygon points=" 314,256 317,251 311,251 314,256" fill="rgb(0,126,255)" />
<polygon points=" 311,248 317,248 314,243 311,248" fill="rgb(0,126,255)" />
<polygon points=" 317,229 319,233 322,229 317,229" fill="rgb(0,126,255)" />
<polygon points=" 317,222 319,227 322,222 317,222" fill="rgb(0,126,255)" />
<polygon points=" 325,224 322,229 328,229 325,224" fill="rgb(0,126,255)" />
<polygon points=" 328,232 322,232 325,237 328,232" fill="rgb(0,126,255)" />
<polygon points=" 322,238 319,233 317,238 322,238" fill="rgb(0,126,255)" />
<polygon points=" 314,237 317,232 311,232 314,237" fill="rgb(0,126,255)" />
<polygon points=" 311,229 317,229 314,224 311,229" fill="rgb(0,126,255)" />
<polygon points=" 336,237 334,242 339,242 336,237" fill="rgb(0,126,255)" />
<polygon points=" 334,232 336,237 339,232 334,232" fill="rgb(0,126,255)" />
<polygon points=" 342,233 339,238 345,238 342,233" fill="rgb(0,126,255)" />
<polygon points=" 345,242 339,242 342,247 345,242" fill="rgb(0,126,255)" />
<polygon points=" 339,248 336,243 334,248 339,248" fill="rgb(0,126,255)" />
<polygon points=" 331,247 334,242 328,242 331,247" fill="rgb(0,126,255)" />
<polygon points=" 328,238 334,238 331,233 328,238" fill="rgb(0,126,255)" />
<polygon points=" 339,258 334,258 336,263 339,258" fill="rgb(0,126,255)" />
<polygon points=" 334,251 336,256 339,251 334,251" fill="rgb(0,126,255)" />
<polygon points=" 342,253 339,258 345,258 342,253" fill="rgb(0,126,255)" />
<polygon points=" 345,261 339,261 342,266 345,261" fill="rgb(0,126,255)" />
<polygon points=" 339,268 336,263 334,268 339,268" fill="rgb(0,126,255)" />
<polygon points=" 331,266 334,261 328,261 331,266" fill="rgb(0,126,255)" />
<polygon points=" 328,258 334,258 331,253 328,258" fill="rgb(0,126,255)" />
<polygon points=" 322,271 319,266 317,271 322,271" fill="rgb(0,126,255)" />
<polygon points=" 317,261 319,266 322,261 317,261" fill="rgb(0,126,255)" />
<polygon points=" 325,263 322,268 328,268 325,263" fill="rgb(0,126,255)" />
<polygon points=" 328,271 322,271 325,276 328,271" fill="rgb(0,126,255)" />
<polygon points=" 322,277 319,273 317,277 322,277" fill="rgb(0,126,255)" />
<polygon points=" 314,276 317,271 311,271 314,276" fill="rgb(0,126,255)" />
<polygon points=" 311,268 317,268 314,263 311,268" fill="rgb(0,126,255)" />
<polygon points=" 303,263 305,258 300,258 303,263" fill="rgb(0,126,255)" />
<polygon points=" 300,251 303,256 305,251 300,251" fill="rgb(0,126,255)" />
<polygon points=" 308,253 305,258 311,258 308,253" fill="rgb(0,126,255)" />
<polygon points=" 311,261 305,261 308,266 311,261" fill="rgb(0,126,255)" />
<polygon points=" 305,268 303,263 300,268 305,268" fill="rgb(0,126,255)" />
<polygon points=" 297,266 300,261 294,261 297,266" fill="rgb(0,126,255)" />
<polygon points=" 294,258 300,258 297,253 294,258" fill="rgb(0,126,255)" />
<polygon points=" 300,242 305,242 303,237 300,242" fill="rgb(0,126,255)" />
<polygon points=" 300,232 303,237 305,232 300,232" fill="rgb(0,126,255)" />
<polygon points=" 308,233 305,238 311,238 308,233" fill="rgb(0,126,255)" />
<polygon points=" 311,242 305,242 308,247 311,242" fill="rgb(0,126,255)" />
<polygon points=" 305,248 303,243 300,248 305,248" fill="rgb(0,126,255)" />
<polygon points=" 297,247 300,242 294,242 297,247" fill="rgb(0,126,255)" />
<polygon points=" 294,238 300,238 297,233 294,238" fill="rgb(0,126,255)" />
<polygon points=" 322,307 317,307 319,312 322,307" fill="rgb(0,126,255)" />
<polygon points=" 317,300 319,305 322,300 317,300" fill="rgb(0,126,255)" />
<polygon points=" 325,302 322,307 328,307 325,302" fill="rgb(0,126,255)" />
<polygon points=" 328,310 322,310 325,315 328,310" fill="rgb(0,126,255)" />
<polygon points=" 322,317 319,312 317,317 322,317" fill="rgb(0,126,255)" />
<polygon points=" 314,315 317,310 311,310 314,315" fill="rgb(0,126,255)" />
<polygon points=" 311,307 317,307 314,302 311,307" fill="rgb(0,126,255)" />
<polygon points=" 317,287 319,292 322,287 317,287" fill="rgb(0,126,255)" />
<polygon points=" 317,281 319,286 322,281 317,281" fill="rgb(0,126,255)" />
<polygon points=" 325,282 322,287 328,287 325,282" fill="rgb(0,126,255)" />
<polygon points=" 328,291 322,291 325,295 328,291" fill="rgb(0,126,255)" />
<polygon points=" 322,297 319,292 317,297 322,297" fill="rgb(0,126,255)" />
<polygon points=" 314,295 317,291 311,291 314,295" fill="rgb(0,126,255)" />
<polygon points=" 311,287 317,287 314,282 311,287" fill="rgb(0,126,255)" />
<polygon points=" 336,295 334,300 339,300 336,295" fill="rgb(0,126,255)" />
<polygon points=" 334,291 336,295 339,291 334,291" fill="rgb(0,126,255)" />
<polygon points=" 342,292 339,297 345,297 342,292" fill="rgb(0,126,255)" />
<polygon points=" 345,300 339,300 342,305 345,300" fill="rgb(0,126,255)" />
<polygon points=" 339,307 336,302 334,307 339,307" fill="rgb(0,126,255)" />
<polygon points=" 331,305 334,300 328,300 331,305" fill="rgb(0,126,255)" />
<polygon points=" 328,297 334,297 331,292 328,297" fill="rgb(0,126,255)" />
<polygon points=" 339,317 334,317 336,321 339,317" fill="rgb(0,126,255)" />
<polygon points=" 334,310 336,315 339,310 334,310" fill="rgb(0,126,255)" />
<polygon points=" 342,312 339,317 345,317 342,312" fill="rgb(0,126,255)" />
<polygon points=" 345,320 339,320 342,325 345,320" fill="rgb(0,126,255)" />
<polygon points=" 339,326 336,321 334,326 339,326" fill="rgb(0,126,255)" />
<polygon points=" 331,325 334,320 328,320 331,325" fill="rgb(0,126,255)" />
<polygon points=" 328,317 334,317 331,312 328,317" fill="rgb(0,126,255)" />
<polygon points=" 322,330 319,325 317,330 322,330" fill="rgb(0,126,255)" />
<polygon points=" 317,320 319,325 322,320 317,320" fill="rgb(0,126,255)" />
<polygon points=" 325,321 322,326 328,326 325,321" fill="rgb(0,126,255)" />
<polygon points=" 328,330 322,330 325,335 328,330" fill="rgb(0,126,255)" />
<polygon points=" 322,336 319,331 317,336 322,336" fill="rgb(0,126,255)" />
<polygon points=" 314,335 317,330 311,330 314,335" fill="rgb(0,126,255)" />
<polygon points=" 311,326 317,326 314,321 311,326" fill="rgb(0,126,255)" />
<polygon points=" 303,321 305,317 300,317 303,321" fill="rgb(0,126,255)" />
<polygon points=" 300,310 303,315 305,310 300,310" fill="rgb(0,126,255)" />
<polygon points=" 308,312 305,317 311,317 308,312" fill="rgb(0,126,255)" />
<polygon points=" 311,320 305,320 308,325 311,320" fill="rgb(0,126,255)" />
<polygon points=" 305,326 303,321 300,326 305,326" fill="rgb(0,126,255)" />
<polygon points=" 297,325 300,320 294,320 297,325" fill="rgb(0,126,255)" />
<polygon points=" 294,317 300,317 297,312 294,317" fill="rgb(0,126,255)" />
<polygon points=" 300,300 305,300 303,295 300,300" fill="rgb(0,126,255)" />
<polygon points=" 300,291 303,295 305,291 300,291" fill="rgb(0,126,255)" />
<polygon points=" 308,292 305,297 311,297 308,292" fill="rgb(0,126,255)" />
<polygon points=" 311,300 305,300 308,305 311,300" fill="rgb(0,126,255)" />
<polygon points=" 305,307 303,302 300,307 305,307" fill="rgb(0,126,255)" />
<polygon points=" 297,305 300,300 294,300 297,305" fill="rgb(0,126,255)" />
<polygon points=" 294,297 300,297 297,292 294,297" fill="rgb(0,126,255)" />
<polygon points=" 271,339 269,335 266,339 271,339" fill="rgb(0,126,255)" />
<polygon points=" 266,330 269,335 271,330 266,330" fill="rgb(0,126,255)" />
<polygon points=" 274,331 271,336 277,336 274,331" fill="rgb(0,126,255)" />
<polygon points=" 277,339 271,339 274,344 277,339" fill="rgb(0,126,255)" />
<polygon points=" 271,346 269,341 266,346 271,346" fill="rgb(0,126,255)" />
<polygon points=" 263,344 266,339 260,339 263,344" fill="rgb(0,126,255)" />
<polygon points=" 260,336 266,336 263,331 260,336" fill="rgb(0,126,255)" />
<polygon points=" 266,317 269,321 271,317 266,317" fill="rgb(0,126,255)" />
<polygon points=" 266,310 269,315 271,310 266,310" fill="rgb(0,126,255)" />
<polygon points=" 274,312 271,317 277,317 274,312" fill="rgb(0,126,255)" />
<polygon points=" 277,320 271,320 274,325 277,320" fill="rgb(0,126,255)" />
<polygon points=" 271,326 269,321 266,326 271,326" fill="rgb(0,126,255)" />
<polygon points=" 263,325 266,320 260,320 263,325" fill="rgb(0,126,255)" />
<polygon points=" 260,317 266,317 263,312 260,317" fill="rgb(0,126,255)" />
<polygon points=" 286,325 283,330 288,330 286,325" fill="rgb(0,126,255)" />
<polygon points=" 283,320 286,325 288,320 283,320" fill="rgb(0,126,255)" />
<polygon points=" 291,321 288,326 294,326 291,321" fill="rgb(0,126,255)" />
<polygon points=" 294,330 288,330 291,335 294,330" fill="rgb(0,126,255)" />
<polygon points=" 288,336 286,331 283,336 288,336" fill="rgb(0,126,255)" />
<polygon points=" 280,335 283,330 277,330 280,335" fill="rgb(0,126,255)" />
<polygon points=" 277,326 283,326 280,321 277,326" fill="rgb(0,126,255)" />
<polygon points=" 288,346 283,346 286,351 288,346" fill="rgb(0,126,255)" />
<polygon points=" 283,339 286,344 288,339 283,339" fill="rgb(0,126,255)" />
<polygon points=" 291,341 288,346 294,346 291,341" fill="rgb(0,126,255)" />
<polygon points=" 294,349 288,349 291,354 294,349" fill="rgb(0,126,255)" />
<polygon points=" 288,356 286,351 283,356 288,356" fill="rgb(0,126,255)" />
<polygon points=" 280,354 283,349 277,349 280,354" fill="rgb(0,126,255)" />
<polygon points=" 277,346 283,346 280,341 277,346" fill="rgb(0,126,255)" />
<polygon points=" 271,359 269,354 266,359 271,359" fill="rgb(0,126,255)" />
<polygon points=" 266,349 269,354 271,349 266,349" fill="rgb(0,126,255)" />
<polygon points=" 274,351 271,356 277,356 274,351" fill="rgb(0,126,255)" />
<polygon points=" 277,359 271,359 274,364 277,359" fill="rgb(0,126,255)" />
<polygon points=" 271,365 269,361 266,365 271,365" fill="rgb(0,126,255)" />
<polygon points=" 263,364 266,359 260,359 263,364" fill="rgb(0,126,255)" />
<polygon points=" 260,356 266,356 263,351 260,356" fill="rgb(0,126,255)" />
<polygon points=" 252,351 255,346 249,346 252,351" fill="rgb(0,126,255)" />
<polygon points=" 249,339 252,344 255,339 249,339" fill="rgb(0,126,255)" />
<polygon points=" 257,341 255,346 260,346 257,341" fill="rgb(0,126,255)" />
<polygon points=" 260,349 255,349 257,354 260,349" fill="rgb(0,126,255)" />
<polygon points=" 255,356 252,351 249,356 255,356" fill="rgb(0,126,255)" />
<polygon points=" 246,354 249,349 243,349 246,354" fill="rgb(0,126,255)" />
<polygon points=" 243,346 249,346 246,341 243,346" fill="rgb(0,126,255)" />
<polygon points=" 249,330 255,330 252,325 249,330" fill="rgb(0,126,255)" />
<polygon points=" 249,320 252,325 255,320 249,320" fill="rgb(0,126,255)" />
<polygon points=" 257,321 255,326 260,326 257,321" fill="rgb(0,126,255)" />
<polygon points=" 260,330 255,330 257,335 260,330" fill="rgb(0,126,255)" />
<polygon points=" 255,336 252,331 249,336 255,336" fill="rgb(0,126,255)" />
<polygon points=" 246,335 249,330 243,330 246,335" fill="rgb(0,126,255)" />
<polygon points=" 243,326 249,326 246,321 243,326" fill="rgb(0,126,255)" />
<polygon points=" 218,312 221,307 215,307 218,312" fill="rgb(0,126,255)" />
<polygon points=" 215,300 218,305 221,300 215,300" fill="rgb(0,126,255)" />
<polygon points=" 223,302 221,307 226,307 223,302" fill="rgb(0,126,255)" />
<polygon points=" 226,310 221,310 223,315 226,310" fill="rgb(0,126,255)" />
<polygon points=" 221,317 218,312 215,317 221,317" fill="rgb(0,126,255)" />
<polygon points=" 212,315 215,310 209,310 212,315" fill="rgb(0,126,255)" />
<polygon points=" 209,307 215,307 212,302 209,307" fill="rgb(0,126,255)" />
<polygon points=" 215,287 218,292 221,287 215,287" fill="rgb(0,126,255)" />
<polygon points=" 215,281 218,286 221,281 215,281" fill="rgb(0,126,255)" />
<polygon points=" 223,282 221,287 226,287 223,282" fill="rgb(0,126,255)" />
<polygon points=" 226,291 221,291 223,295 226,291" fill="rgb(0,126,255)" />
<polygon points=" 221,297 218,292 215,297 221,297" fill="rgb(0,126,255)" />
<polygon points=" 212,295 215,291 209,291 212,295" fill="rgb(0,126,255)" />
<polygon points=" 209,287 215,287 212,282 209,287" fill="rgb(0,126,255)" />
<polygon points=" 235,295 232,300 238,300 235,295" fill="rgb(0,126,255)" />
<polygon points=" 232,291 235,295 238,291 232,291" fill="rgb(0,126,255)" />
<polygon points=" 240,292 238,297 243,297 240,292" fill="rgb(0,126,255)" />
<polygon points=" 243,300 238,300 240,305 243,300" fill="rgb(0,126,255)" />
<polygon points=" 238,307 235,302 232,307 238,307" fill="rgb(0,126,255)" />
<polygon points=" 229,305 232,300 226,300 229,305" fill="rgb(0,126,255)" />
<polygon points=" 226,297 232,297 229,292 226,297" fill="rgb(0,126,255)" />
<polygon points=" 238,317 232,317 235,321 238,317" fill="rgb(0,126,255)" />
<polygon points=" 232,310 235,315 238,310 232,310" fill="rgb(0,126,255)" />
<polygon points=" 240,312 238,317 243,317 240,312" fill="rgb(0,126,255)" />
<polygon points=" 243,320 238,320 240,325 243,320" fill="rgb(0,126,255)" />
<polygon points=" 238,326 235,321 232,326 238,326" fill="rgb(0,126,255)" />
<polygon points=" 229,325 232,320 226,320 229,325" fill="rgb(0,126,255)" />
<polygon points=" 226,317 232,317 229,312 226,317" fill="rgb(0,126,255)" />
<polygon points=" 221,330 218,325 215,330 221,330" fill="rgb(0,126,255)" />
<polygon points=" 215,320 218,325 221,320 215,320" fill="rgb(0,126,255)" />
<polygon points=" 223,321 221,326 226,326 223,321" fill="rgb(0,126,255)" />
<polygon points=" 226,330 221,330 223,335 226,330" fill="rgb(0,126,255)" />
<polygon points=" 221,336 218,331 215,336 221,336" fill="rgb(0,126,255)" />
<polygon points=" 212,335 215,330 209,330 212,335" fill="rgb(0,126,255)" />
<polygon points=" 209,326 215,326 212,321 209,326" fill="rgb(0,126,255)" />
<polygon points=" 201,321 204,317 198,317 201,321" fill="rgb(0,126,255)" />
<polygon points=" 198,310 201,315 204,310 198,310" fill="rgb(0,126,255)" />
<polygon points=" 207,312 204,317 209,317 207,312" fill="rgb(0,126,255)" />
<polygon points=" 209,320 204,320 207,325 209,320" fill="rgb(0,126,255)" />
<polygon points=" 204,326 201,321 198,326 204,326" fill="rgb(0,126,255)" />
<polygon points=" 195,325 198,320 192,320 195,325" fill="rgb(0,126,255)" />
<polygon points=" 192,317 198,317 195,312 192,317" fill="rgb(0,126,255)" />
<polygon points=" 198,300 204,300 201,295 198,300" fill="rgb(0,126,255)" />
<polygon points=" 198,291 201,295 204,291 198,291" fill="rgb(0,126,255)" />
<polygon points=" 207,292 204,297 209,297 207,292" fill="rgb(0,126,255)" />
<polygon points=" 209,300 204,300 207,305 209,300" fill="rgb(0,126,255)" />
<polygon points=" 204,307 201,302 198,307 204,307" fill="rgb(0,126,255)" />
<polygon points=" 195,305 198,300 192,300 195,305" fill="rgb(0,126,255)" />
<polygon points=" 192,297 198,297 195,292 192,297" fill="rgb(0,126,255)" />
<polygon points=" 215,251 221,251 218,247 215,251" fill="rgb(0,126,255)" />
<polygon points=" 215,242 218,247 221,242 215,242" fill="rgb(0,126,255)" />
<polygon points=" 223,243 221,248 226,248 223,243" fill="rgb(0,126,255)" />
<polygon points=" 226,251 221,251 223,256 226,251" fill="rgb(0,126,255)" />
<polygon points=" 221,258 218,253 215,258 221,258" fill="rgb(0,126,255)" />
<polygon points=" 212,256 215,251 209,251 212,256" fill="rgb(0,126,255)" />
<polygon points=" 209,248 215,248 212,243 209,248" fill="rgb(0,126,255)" />
<polygon points=" 215,229 218,233 221,229 215,229" fill="rgb(0,126,255)" />
<polygon points=" 215,222 218,227 221,222 215,222" fill="rgb(0,126,255)" />
<polygon points=" 223,224 221,229 226,229 223,224" fill="rgb(0,126,255)" />
<polygon points=" 226,232 221,232 223,237 226,232" fill="rgb(0,126,255)" />
<polygon points=" 221,238 218,233 215,238 221,238" fill="rgb(0,126,255)" />
<polygon points=" 212,237 215,232 209,232 212,237" fill="rgb(0,126,255)" />
<polygon points=" 209,229 215,229 212,224 209,229" fill="rgb(0,126,255)" />
<polygon points=" 235,237 232,242 238,242 235,237" fill="rgb(0,126,255)" />
<polygon points=" 232,232 235,237 238,232 232,232" fill="rgb(0,126,255)" />
<polygon points=" 240,233 238,238 243,238 240,233" fill="rgb(0,126,255)" />
<polygon points=" 243,242 238,242 240,247 243,242" fill="rgb(0,126,255)" />
<polygon points=" 238,248 235,243 232,248 238,248" fill="rgb(0,126,255)" />
<polygon points=" 229,247 232,242 226,242 229,247" fill="rgb(0,126,255)" />
<polygon points=" 226,238 232,238 229,233 226,238" fill="rgb(0,126,255)" />
<polygon points=" 238,258 232,258 235,263 238,258" fill="rgb(0,126,255)" />
<polygon points=" 232,251 235,256 238,251 232,251" fill="rgb(0,126,255)" />
<polygon points=" 240,253 238,258 243,258 240,253" fill="rgb(0,126,255)" />
<polygon points=" 243,261 238,261 240,266 243,261" fill="rgb(0,126,255)" />
<polygon points=" 238,268 235,263 232,268 238,268" fill="rgb(0,126,255)" />
<polygon points=" 229,266 232,261 226,261 229,266" fill="rgb(0,126,255)" />
<polygon points=" 226,258 232,258 229,253 226,258" fill="rgb(0,126,255)" />
<polygon points=" 221,271 218,266 215,271 221,271" fill="rgb(0,126,255)" />
<polygon points=" 215,261 218,266 221,261 215,261" fill="rgb(0,126,255)" />
<polygon points=" 223,263 221,268 226,268 223,263" fill="rgb(0,126,255)" />
<polygon points=" 226,271 221,271 223,276 226,271" fill="rgb(0,126,255)" />
<polygon points=" 221,277 218,273 215,277 221,277" fill="rgb(0,126,255)" />
<polygon points=" 212,276 215,271 209,271 212,276" fill="rgb(0,126,255)" />
<polygon points=" 209,268 215,268 212,263 209,268" fill="rgb(0,126,255)" />
<polygon points=" 201,263 204,258 198,258 201,263" fill="rgb(0,126,255)" />
<polygon points=" 198,251 201,256 204,251 198,251" fill="rgb(0,126,255)" />
<polygon points=" 207,253 204,258 209,258 207,253" fill="rgb(0,126,255)" />
<polygon points=" 209,261 204,261 207,266 209,261" fill="rgb(0,126,255)" />
<polygon points=" 204,268 201,263 198,268 204,268" fill="rgb(0,126,255)" />
<polygon points=" 195,266 198,261 192,261 195,266" fill="rgb(0,126,255)" />
<polygon points=" 192,258 198,258 195,253 192,258" fill="rgb(0,126,255)" />
<polygon points=" 198,242 204,242 201,237 198,242" fill="rgb(0,126,255)" />
<polygon points=" 198,232 201,237 204,232 198,232" fill="rgb(0,126,255)" />
<polygon points=" 207,233 204,238 209,238 207,233" fill="rgb(0,126,255)" />
<polygon points=" 209,242 204,242 207,247 209,242" fill="rgb(0,126,255)" />
<polygon points=" 204,248 201,243 198,248 204,248" fill="rgb(0,126,255)" />
<polygon points=" 195,247 198,242 192,242 195,247" fill="rgb(0,126,255)" />
<polygon points=" 192,238 198,238 195,233 192,238" fill="rgb(0,126,255)" /></svg>