<svg xmlns="http://www.w3.org/2000/svg"
xmlns:xlink="http://www.w3.org/1999/xlink"
version="1.1" baseProfile="full"
width="150" height="200">
<line x1="87.5" y1="20.0" x2="60.0" y2="60.0" stroke="rgb(255,0,0)" stroke-width="1.5"/>
<line x1="60.0" y1="60.0" x2="35.0" y2="100.0" stroke="rgb(255,0,0)" stroke-width="1.5"/>
<line x1="35.0" y1="100.0" x2="25.0" y2="140.0" stroke="rgb(255,0,0)" stroke-width="1.5"/>
<polygon points=" 18,128 32,128 32,152 18,152" fill="rgb(255,170,170)"/>
<text x="20.0" y="145.0" font-family="courier" font-size="16" fill="rgb(0,0,0)">x</text>
<line x1="35.0" y1="100.0" x2="45.0" y2="140.0" stroke="rgb(255,0,0)" stroke-width="1.5"/>
<polygon points=" 38,128 52,128 52,152 38,152" fill="rgb(255,170,170)"/>
<text x="40.0" y="145.0" font-family="courier" font-size="16" fill="rgb(0,0,0)">y</text>
<polygon points=" 23,88 47,88 47,112 23,112" fill="rgb(255,170,170)"/>
<text x="25.0" y="105.0" font-family="courier" font-size="16" fill="rgb(0,0,0)">()</text>
<line x1="60.0" y1="60.0" x2="85.0" y2="100.0" stroke="rgb(255,0,0)" stroke-width="1.5"/>
<line x1="85.0" y1="100.0" x2="65.0" y2="140.0" stroke="rgb(255,0,0)" stroke-width="1.5"/>
<line x1="65.0" y1="140.0" x2="55.0" y2="180.0" stroke="rgb(255,0,0)" stroke-width="1.5"/>
<polygon points=" 48,168 62,168 62,192 48,192" fill="rgb(255,170,170)"/>
<text x="50.0" y="185.0" font-family="courier" font-size="16" fill="rgb(0,0,0)">x</text>
<line x1="65.0" y1="140.0" x2="75.0" y2="180.0" stroke="rgb(255,0,0)" stroke-width="1.5"/>
<polygon points=" 68,168 82,168 82,192 68,192" fill="rgb(255,170,170)"/>
<text x="70.0" y="185.0" font-family="courier" font-size="16" fill="rgb(0,0,0)">y</text>
<polygon points=" 58,128 72,128 72,152 58,152" fill="rgb(255,170,170)"/>
<text x="60.0" y="145.0" font-family="courier" font-size="16" fill="rgb(0,0,0)">*</text>
<line x1="85.0" y1="100.0" x2="85.0" y2="140.0" stroke="rgb(255,0,0)" stroke-width="1.5"/>
<polygon points=" 78,128 92,128 92,152 78,152" fill="rgb(255,170,170)"/>
<text x="80.0" y="145.0" font-family="courier" font-size="16" fill="rgb(0,0,0)">5</text>
<line x1="85.0" y1="100.0" x2="105.0" y2="140.0" stroke="rgb(255,0,0)" stroke-width="1.5"/>
<polygon points=" 98,128 112,128 112,152 98,152" fill="rgb(255,170,170)"/>
<text x="100.0" y="145.0" font-family="courier" font-size="16" fill="rgb(0,0,0)">x</text>
<polygon points=" 78,88 92,88 92,112 78,112" fill="rgb(255,170,170)"/>
<text x="80.0" y="105.0" font-family="courier" font-size="16" fill="rgb(0,0,0)">+</text>
<polygon points=" 53,48 67,48 67,72 53,72" fill="rgb(255,170,170)"/>
<text x="55.0" y="65.0" font-family="courier" font-size="16" fill="rgb(0,0,0)">&#955;</text>
<line x1="87.5" y1="20.0" x2="115.0" y2="60.0" stroke="rgb(255,0,0)" stroke-width="1.5"/>
<line x1="115.0" y1="60.0" x2="105.0" y2="100.0" stroke="rgb(255,0,0)" stroke-width="1.5"/>
<polygon points=" 98,88 112,88 112,112 98,112" fill="rgb(255,170,170)"/>
<text x="100.0" y="105.0" font-family="courier" font-size="16" fill="rgb(0,0,0)">7</text>
<line x1="115.0" y1="60.0" x2="125.0" y2="100.0" stroke="rgb(255,0,0)" stroke-width="1.5"/>
<polygon points=" 118,88 132,88 132,112 118,112" fill="rgb(255,170,170)"/>
<text x="120.0" y="105.0" font-family="courier" font-size="16" fill="rgb(0,0,0)">8</text>
<polygon points=" 103,48 127,48 127,72 103,72" fill="rgb(255,170,170)"/>
<text x="105.0" y="65.0" font-family="courier" font-size="16" fill="rgb(0,0,0)">()</text>
<polygon points=" 80,8 94,8 94,32 80,32" fill="rgb(255,170,170)"/>
<text x="82.5" y="25.0" font-family="courier" font-size="16" fill="rgb(0,0,0)">$</text></svg>