<svg xmlns="http://www.w3.org/2000/svg"
xmlns:xlink="http://www.w3.org/1999/xlink"
version="1.1" baseProfile="full"
width="150" height="160">
<line x1="72.5" y1="20.0" x2="40.0" y2="60.0" stroke="rgb(255,0,0)" stroke-width="1.5"/>
<line x1="40.0" y1="60.0" x2="40.0" y2="100.0" stroke="rgb(255,0,0)" stroke-width="1.5"/>
<line x1="40.0" y1="100.0" x2="25.0" y2="140.0" stroke="rgb(255,0,0)" stroke-width="1.5"/>
<polygon points=" 18,128 32,128 32,152 18,152" fill="rgb(255,255,170)"/>
<text x="20.0" y="145.0" font-family="courier" font-size="16" fill="rgb(0,0,0)">+</text>
<line x1="40.0" y1="100.0" x2="55.0" y2="140.0" stroke="rgb(255,0,0)" stroke-width="1.5"/>
<polygon points=" 48,128 62,128 62,152 48,152" fill="rgb(255,255,170)"/>
<text x="50.0" y="145.0" font-family="courier" font-size="16" fill="rgb(0,0,0)">3</text>
<polygon points=" 18,88 62,88 62,112 18,112" fill="rgb(255,255,170)"/>
<text x="20.0" y="105.0" font-family="courier" font-size="16" fill="rgb(0,0,0)">rsec</text>
<polygon points=" 23,48 57,48 57,72 23,72" fill="rgb(255,255,170)"/>
<text x="25.0" y="65.0" font-family="courier" font-size="16" fill="rgb(0,0,0)">map</text>
<line x1="72.5" y1="20.0" x2="105.0" y2="60.0" stroke="rgb(255,0,0)" stroke-width="1.5"/>
<line x1="105.0" y1="60.0" x2="90.0" y2="100.0" stroke="rgb(255,0,0)" stroke-width="1.5"/>
<polygon points=" 83,88 97,88 97,112 83,112" fill="rgb(255,255,170)"/>
<text x="85.0" y="105.0" font-family="courier" font-size="16" fill="rgb(0,0,0)">2</text>
<line x1="105.0" y1="60.0" x2="120.0" y2="100.0" stroke="rgb(255,0,0)" stroke-width="1.5"/>
<polygon points=" 113,88 127,88 127,112 113,112" fill="rgb(255,255,170)"/>
<text x="115.0" y="105.0" font-family="courier" font-size="16" fill="rgb(0,0,0)">9</text>
<polygon points=" 78,48 132,48 132,72 78,72" fill="rgb(255,255,170)"/>
<text x="80.0" y="65.0" font-family="courier" font-size="16" fill="rgb(0,0,0)">range</text>
<polygon points=" 66,8 80,8 80,32 66,32" fill="rgb(255,255,170)"/>
<text x="67.5" y="25.0" font-family="courier" font-size="16" fill="rgb(0,0,0)">$</text></svg>