<svg xmlns="http://www.w3.org/2000/svg"
xmlns:xlink="http://www.w3.org/1999/xlink"
version="1.1" baseProfile="full"
width="380" height="200">
<line x1="130.0" y1="20.0" x2="62.5" y2="60.0" stroke="rgb(255,0,0)" stroke-width="1.5"/>
<line x1="62.5" y1="60.0" x2="40.0" y2="100.0" stroke="rgb(255,0,0)" stroke-width="1.5"/>
<line x1="40.0" y1="100.0" x2="25.0" y2="140.0" stroke="rgb(255,0,0)" stroke-width="1.5"/>
<polygon points=" 18,128 32,128 32,152 18,152" fill="rgb(170,255,170)"/>
<text x="20.0" y="145.0" font-family="courier" font-size="16" fill="rgb(0,0,0)">+</text>
<line x1="40.0" y1="100.0" x2="55.0" y2="140.0" stroke="rgb(255,0,0)" stroke-width="1.5"/>
<polygon points=" 48,128 62,128 62,152 48,152" fill="rgb(170,255,170)"/>
<text x="50.0" y="145.0" font-family="courier" font-size="16" fill="rgb(0,0,0)">3</text>
<polygon points=" 18,88 62,88 62,112 18,112" fill="rgb(170,255,170)"/>
<text x="20.0" y="105.0" font-family="courier" font-size="16" fill="rgb(0,0,0)">rsec</text>
<line x1="62.5" y1="60.0" x2="85.0" y2="100.0" stroke="rgb(255,0,0)" stroke-width="1.5"/>
<polygon points=" 78,88 92,88 92,112 78,112" fill="rgb(170,255,170)"/>
<text x="80.0" y="105.0" font-family="courier" font-size="16" fill="rgb(0,0,0)">2</text>
<polygon points=" 56,48 70,48 70,72 56,72" fill="rgb(170,255,170)"/>
<text x="57.5" y="65.0" font-family="courier" font-size="16" fill="rgb(0,0,0)">$</text>
<line x1="130.0" y1="20.0" x2="197.5" y2="60.0" stroke="rgb(255,0,0)" stroke-width="1.5"/>
<line x1="197.5" y1="60.0" x2="130.0" y2="100.0" stroke="rgb(255,0,0)" stroke-width="1.5"/>
<line x1="130.0" y1="100.0" x2="130.0" y2="140.0" stroke="rgb(255,0,0)" stroke-width="1.5"/>
<line x1="130.0" y1="140.0" x2="115.0" y2="180.0" stroke="rgb(255,0,0)" stroke-width="1.5"/>
<polygon points=" 108,168 122,168 122,192 108,192" fill="rgb(170,255,170)"/>
<text x="110.0" y="185.0" font-family="courier" font-size="16" fill="rgb(0,0,0)">+</text>
<line x1="130.0" y1="140.0" x2="145.0" y2="180.0" stroke="rgb(255,0,0)" stroke-width="1.5"/>
<polygon points=" 138,168 152,168 152,192 138,192" fill="rgb(170,255,170)"/>
<text x="140.0" y="185.0" font-family="courier" font-size="16" fill="rgb(0,0,0)">3</text>
<polygon points=" 108,128 152,128 152,152 108,152" fill="rgb(170,255,170)"/>
<text x="110.0" y="145.0" font-family="courier" font-size="16" fill="rgb(0,0,0)">rsec</text>
<polygon points=" 113,88 147,88 147,112 113,112" fill="rgb(170,255,170)"/>
<text x="115.0" y="105.0" font-family="courier" font-size="16" fill="rgb(0,0,0)">map</text>
<line x1="197.5" y1="60.0" x2="265.0" y2="100.0" stroke="rgb(255,0,0)" stroke-width="1.5"/>
<line x1="265.0" y1="100.0" x2="175.0" y2="140.0" stroke="rgb(255,0,0)" stroke-width="1.5"/>
<polygon points=" 168,128 182,128 182,152 168,152" fill="rgb(170,255,170)"/>
<text x="170.0" y="145.0" font-family="courier" font-size="16" fill="rgb(0,0,0)">3</text>
<line x1="265.0" y1="100.0" x2="205.0" y2="140.0" stroke="rgb(255,0,0)" stroke-width="1.5"/>
<polygon points=" 198,128 212,128 212,152 198,152" fill="rgb(170,255,170)"/>
<text x="200.0" y="145.0" font-family="courier" font-size="16" fill="rgb(0,0,0)">4</text>
<line x1="265.0" y1="100.0" x2="235.0" y2="140.0" stroke="rgb(255,0,0)" stroke-width="1.5"/>
<polygon points=" 228,128 242,128 242,152 228,152" fill="rgb(170,255,170)"/>
<text x="230.0" y="145.0" font-family="courier" font-size="16" fill="rgb(0,0,0)">5</text>
<line x1="265.0" y1="100.0" x2="265.0" y2="140.0" stroke="rgb(255,0,0)" stroke-width="1.5"/>
<polygon points=" 258,128 272,128 272,152 258,152" fill="rgb(170,255,170)"/>
<text x="260.0" y="145.0" font-family="courier" font-size="16" fill="rgb(0,0,0)">6</text>
<line x1="265.0" y1="100.0" x2="295.0" y2="140.0" stroke="rgb(255,0,0)" stroke-width="1.5"/>
<polygon points=" 288,128 302,128 302,152 288,152" fill="rgb(170,255,170)"/>
<text x="290.0" y="145.0" font-family="courier" font-size="16" fill="rgb(0,0,0)">7</text>
<line x1="265.0" y1="100.0" x2="325.0" y2="140.0" stroke="rgb(255,0,0)" stroke-width="1.5"/>
<polygon points=" 318,128 332,128 332,152 318,152" fill="rgb(170,255,170)"/>
<text x="320.0" y="145.0" font-family="courier" font-size="16" fill="rgb(0,0,0)">8</text>
<line x1="265.0" y1="100.0" x2="355.0" y2="140.0" stroke="rgb(255,0,0)" stroke-width="1.5"/>
<polygon points=" 348,128 362,128 362,152 348,152" fill="rgb(170,255,170)"/>
<text x="350.0" y="145.0" font-family="courier" font-size="16" fill="rgb(0,0,0)">9</text>
<polygon points=" 253,88 277,88 277,112 253,112" fill="rgb(170,255,170)"/>
<text x="255.0" y="105.0" font-family="courier" font-size="16" fill="rgb(0,0,0)">[]</text>
<polygon points=" 190,48 204,48 204,72 190,72" fill="rgb(170,255,170)"/>
<text x="192.5" y="65.0" font-family="courier" font-size="16" fill="rgb(0,0,0)">$</text>
<polygon points=" 123,8 137,8 137,32 123,32" fill="rgb(170,255,170)"/>
<text x="125.0" y="25.0" font-family="courier" font-size="16" fill="rgb(0,0,0)">:</text></svg>