<svg xmlns="http://www.w3.org/2000/svg"
xmlns:xlink="http://www.w3.org/1999/xlink"
version="1.1" baseProfile="full"
width="290" height="200">
<line x1="66.25" y1="20.0" x2="25.0" y2="60.0" stroke="rgb(255,0,0)" stroke-width="1.5"/>
<polygon points=" 18,48 32,48 32,72 18,72" fill="rgb(170,255,170)"/>
<text x="20.0" y="65.0" font-family="courier" font-size="16" fill="rgb(0,0,0)">5</text>
<line x1="66.25" y1="20.0" x2="107.5" y2="60.0" stroke="rgb(255,0,0)" stroke-width="1.5"/>
<line x1="107.5" y1="60.0" x2="40.0" y2="100.0" stroke="rgb(255,0,0)" stroke-width="1.5"/>
<line x1="40.0" y1="100.0" x2="40.0" y2="140.0" stroke="rgb(255,0,0)" stroke-width="1.5"/>
<line x1="40.0" y1="140.0" x2="25.0" y2="180.0" stroke="rgb(255,0,0)" stroke-width="1.5"/>
<polygon points=" 18,168 32,168 32,192 18,192" fill="rgb(255,255,170)"/>
<text x="20.0" y="185.0" font-family="courier" font-size="16" fill="rgb(0,0,0)">+</text>
<line x1="40.0" y1="140.0" x2="55.0" y2="180.0" stroke="rgb(255,0,0)" stroke-width="1.5"/>
<polygon points=" 48,168 62,168 62,192 48,192" fill="rgb(255,255,170)"/>
<text x="50.0" y="185.0" font-family="courier" font-size="16" fill="rgb(0,0,0)">3</text>
<polygon points=" 18,128 62,128 62,152 18,152" fill="rgb(255,255,170)"/>
<text x="20.0" y="145.0" font-family="courier" font-size="16" fill="rgb(0,0,0)">rsec</text>
<polygon points=" 23,88 57,88 57,112 23,112" fill="rgb(255,255,170)"/>
<text x="25.0" y="105.0" font-family="courier" font-size="16" fill="rgb(0,0,0)">map</text>
<line x1="107.5" y1="60.0" x2="175.0" y2="100.0" stroke="rgb(255,0,0)" stroke-width="1.5"/>
<line x1="175.0" y1="100.0" x2="85.0" y2="140.0" stroke="rgb(255,0,0)" stroke-width="1.5"/>
<polygon points=" 78,128 92,128 92,152 78,152" fill="rgb(255,255,170)"/>
<text x="80.0" y="145.0" font-family="courier" font-size="16" fill="rgb(0,0,0)">3</text>
<line x1="175.0" y1="100.0" x2="115.0" y2="140.0" stroke="rgb(255,0,0)" stroke-width="1.5"/>
<polygon points=" 108,128 122,128 122,152 108,152" fill="rgb(255,255,170)"/>
<text x="110.0" y="145.0" font-family="courier" font-size="16" fill="rgb(0,0,0)">4</text>
<line x1="175.0" y1="100.0" x2="145.0" y2="140.0" stroke="rgb(255,0,0)" stroke-width="1.5"/>
<polygon points=" 138,128 152,128 152,152 138,152" fill="rgb(255,255,170)"/>
<text x="140.0" y="145.0" font-family="courier" font-size="16" fill="rgb(0,0,0)">5</text>
<line x1="175.0" y1="100.0" x2="175.0" y2="140.0" stroke="rgb(255,0,0)" stroke-width="1.5"/>
<polygon points=" 168,128 182,128 182,152 168,152" fill="rgb(255,255,170)"/>
<text x="170.0" y="145.0" font-family="courier" font-size="16" fill="rgb(0,0,0)">6</text>
<line x1="175.0" y1="100.0" x2="205.0" y2="140.0" stroke="rgb(255,0,0)" stroke-width="1.5"/>
<polygon points=" 198,128 212,128 212,152 198,152" fill="rgb(255,255,170)"/>
<text x="200.0" y="145.0" font-family="courier" font-size="16" fill="rgb(0,0,0)">7</text>
<line x1="175.0" y1="100.0" x2="235.0" y2="140.0" stroke="rgb(255,0,0)" stroke-width="1.5"/>
<polygon points=" 228,128 242,128 242,152 228,152" fill="rgb(255,255,170)"/>
<text x="230.0" y="145.0" font-family="courier" font-size="16" fill="rgb(0,0,0)">8</text>
<line x1="175.0" y1="100.0" x2="265.0" y2="140.0" stroke="rgb(255,0,0)" stroke-width="1.5"/>
<polygon points=" 258,128 272,128 272,152 258,152" fill="rgb(255,255,170)"/>
<text x="260.0" y="145.0" font-family="courier" font-size="16" fill="rgb(0,0,0)">9</text>
<polygon points=" 163,88 187,88 187,112 163,112" fill="rgb(255,255,170)"/>
<text x="165.0" y="105.0" font-family="courier" font-size="16" fill="rgb(0,0,0)">[]</text>
<polygon points=" 100,48 114,48 114,72 100,72" fill="rgb(255,255,170)"/>
<text x="102.5" y="65.0" font-family="courier" font-size="16" fill="rgb(0,0,0)">$</text>
<polygon points=" 59,8 73,8 73,32 59,32" fill="rgb(255,255,170)"/>
<text x="61.25" y="25.0" font-family="courier" font-size="16" fill="rgb(0,0,0)">:</text></svg>