<svg xmlns="http://www.w3.org/2000/svg"
xmlns:xlink="http://www.w3.org/1999/xlink"
version="1.1" baseProfile="full"
width="350" height="240">
<line x1="75.625" y1="20.0" x2="25.0" y2="60.0" stroke="rgb(255,0,0)" stroke-width="1.5"/>
<polygon points=" 18,48 32,48 32,72 18,72" fill="rgb(255,255,170)"/>
<text x="20.0" y="65.0" font-family="courier" font-size="16" fill="rgb(0,0,0)">5</text>
<line x1="75.625" y1="20.0" x2="126.25" y2="60.0" stroke="rgb(255,0,0)" stroke-width="1.5"/>
<line x1="126.25" y1="60.0" x2="62.5" y2="100.0" stroke="rgb(255,0,0)" stroke-width="1.5"/>
<line x1="62.5" y1="100.0" x2="40.0" y2="140.0" stroke="rgb(255,0,0)" stroke-width="1.5"/>
<line x1="40.0" y1="140.0" x2="25.0" y2="180.0" stroke="rgb(255,0,0)" stroke-width="1.5"/>
<polygon points=" 18,168 32,168 32,192 18,192" fill="rgb(170,255,170)"/>
<text x="20.0" y="185.0" font-family="courier" font-size="16" fill="rgb(0,0,0)">+</text>
<line x1="40.0" y1="140.0" x2="55.0" y2="180.0" stroke="rgb(255,0,0)" stroke-width="1.5"/>
<polygon points=" 48,168 62,168 62,192 48,192" fill="rgb(170,255,170)"/>
<text x="50.0" y="185.0" font-family="courier" font-size="16" fill="rgb(0,0,0)">3</text>
<polygon points=" 18,128 62,128 62,152 18,152" fill="rgb(170,255,170)"/>
<text x="20.0" y="145.0" font-family="courier" font-size="16" fill="rgb(0,0,0)">rsec</text>
<line x1="62.5" y1="100.0" x2="85.0" y2="140.0" stroke="rgb(255,0,0)" stroke-width="1.5"/>
<polygon points=" 78,128 92,128 92,152 78,152" fill="rgb(170,255,170)"/>
<text x="80.0" y="145.0" font-family="courier" font-size="16" fill="rgb(0,0,0)">3</text>
<polygon points=" 56,88 70,88 70,112 56,112" fill="rgb(170,255,170)"/>
<text x="57.5" y="105.0" font-family="courier" font-size="16" fill="rgb(0,0,0)">$</text>
<line x1="126.25" y1="60.0" x2="190.0" y2="100.0" stroke="rgb(255,0,0)" stroke-width="1.5"/>
<line x1="190.0" y1="100.0" x2="130.0" y2="140.0" stroke="rgb(255,0,0)" stroke-width="1.5"/>
<line x1="130.0" y1="140.0" x2="130.0" y2="180.0" stroke="rgb(255,0,0)" stroke-width="1.5"/>
<line x1="130.0" y1="180.0" x2="115.0" y2="220.0" stroke="rgb(255,0,0)" stroke-width="1.5"/>
<polygon points=" 108,208 122,208 122,232 108,232" fill="rgb(170,255,170)"/>
<text x="110.0" y="225.0" font-family="courier" font-size="16" fill="rgb(0,0,0)">+</text>
<line x1="130.0" y1="180.0" x2="145.0" y2="220.0" stroke="rgb(255,0,0)" stroke-width="1.5"/>
<polygon points=" 138,208 152,208 152,232 138,232" fill="rgb(170,255,170)"/>
<text x="140.0" y="225.0" font-family="courier" font-size="16" fill="rgb(0,0,0)">3</text>
<polygon points=" 108,168 152,168 152,192 108,192" fill="rgb(170,255,170)"/>
<text x="110.0" y="185.0" font-family="courier" font-size="16" fill="rgb(0,0,0)">rsec</text>
<polygon points=" 113,128 147,128 147,152 113,152" fill="rgb(170,255,170)"/>
<text x="115.0" y="145.0" font-family="courier" font-size="16" fill="rgb(0,0,0)">map</text>
<line x1="190.0" y1="100.0" x2="250.0" y2="140.0" stroke="rgb(255,0,0)" stroke-width="1.5"/>
<line x1="250.0" y1="140.0" x2="175.0" y2="180.0" stroke="rgb(255,0,0)" stroke-width="1.5"/>
<polygon points=" 168,168 182,168 182,192 168,192" fill="rgb(170,255,170)"/>
<text x="170.0" y="185.0" font-family="courier" font-size="16" fill="rgb(0,0,0)">4</text>
<line x1="250.0" y1="140.0" x2="205.0" y2="180.0" stroke="rgb(255,0,0)" stroke-width="1.5"/>
<polygon points=" 198,168 212,168 212,192 198,192" fill="rgb(170,255,170)"/>
<text x="200.0" y="185.0" font-family="courier" font-size="16" fill="rgb(0,0,0)">5</text>
<line x1="250.0" y1="140.0" x2="235.0" y2="180.0" stroke="rgb(255,0,0)" stroke-width="1.5"/>
<polygon points=" 228,168 242,168 242,192 228,192" fill="rgb(170,255,170)"/>
<text x="230.0" y="185.0" font-family="courier" font-size="16" fill="rgb(0,0,0)">6</text>
<line x1="250.0" y1="140.0" x2="265.0" y2="180.0" stroke="rgb(255,0,0)" stroke-width="1.5"/>
<polygon points=" 258,168 272,168 272,192 258,192" fill="rgb(170,255,170)"/>
<text x="260.0" y="185.0" font-family="courier" font-size="16" fill="rgb(0,0,0)">7</text>
<line x1="250.0" y1="140.0" x2="295.0" y2="180.0" stroke="rgb(255,0,0)" stroke-width="1.5"/>
<polygon points=" 288,168 302,168 302,192 288,192" fill="rgb(170,255,170)"/>
<text x="290.0" y="185.0" font-family="courier" font-size="16" fill="rgb(0,0,0)">8</text>
<line x1="250.0" y1="140.0" x2="325.0" y2="180.0" stroke="rgb(255,0,0)" stroke-width="1.5"/>
<polygon points=" 318,168 332,168 332,192 318,192" fill="rgb(170,255,170)"/>
<text x="320.0" y="185.0" font-family="courier" font-size="16" fill="rgb(0,0,0)">9</text>
<polygon points=" 238,128 262,128 262,152 238,152" fill="rgb(170,255,170)"/>
<text x="240.0" y="145.0" font-family="courier" font-size="16" fill="rgb(0,0,0)">[]</text>
<polygon points=" 183,88 197,88 197,112 183,112" fill="rgb(170,255,170)"/>
<text x="185.0" y="105.0" font-family="courier" font-size="16" fill="rgb(0,0,0)">$</text>
<polygon points=" 119,48 133,48 133,72 119,72" fill="rgb(170,255,170)"/>
<text x="121.25" y="65.0" font-family="courier" font-size="16" fill="rgb(0,0,0)">:</text>
<polygon points=" 69,8 83,8 83,32 69,32" fill="rgb(255,255,170)"/>
<text x="70.625" y="25.0" font-family="courier" font-size="16" fill="rgb(0,0,0)">:</text></svg>