<svg xmlns="http://www.w3.org/2000/svg"
xmlns:xlink="http://www.w3.org/1999/xlink"
version="1.1" baseProfile="full"
width="285" height="280">
<line x1="42.1875" y1="20.0" x2="25.0" y2="60.0" stroke="rgb(255,0,0)" stroke-width="1.5"/>
<polygon points=" 18,48 32,48 32,72 18,72" fill="rgb(255,255,170)"/>
<text x="20.0" y="65.0" font-family="courier" font-size="16" fill="rgb(0,0,0)">5</text>
<line x1="42.1875" y1="20.0" x2="59.375" y2="60.0" stroke="rgb(255,0,0)" stroke-width="1.5"/>
<line x1="59.375" y1="60.0" x2="25.0" y2="100.0" stroke="rgb(255,0,0)" stroke-width="1.5"/>
<polygon points=" 18,88 32,88 32,112 18,112" fill="rgb(255,255,170)"/>
<text x="20.0" y="105.0" font-family="courier" font-size="16" fill="rgb(0,0,0)">6</text>
<line x1="59.375" y1="60.0" x2="93.75" y2="100.0" stroke="rgb(255,0,0)" stroke-width="1.5"/>
<line x1="93.75" y1="100.0" x2="40.0" y2="140.0" stroke="rgb(255,0,0)" stroke-width="1.5"/>
<line x1="40.0" y1="140.0" x2="25.0" y2="180.0" stroke="rgb(255,0,0)" stroke-width="1.5"/>
<polygon points=" 18,168 32,168 32,192 18,192" fill="rgb(255,170,170)"/>
<text x="20.0" y="185.0" font-family="courier" font-size="16" fill="rgb(0,0,0)">4</text>
<line x1="40.0" y1="140.0" x2="55.0" y2="180.0" stroke="rgb(255,0,0)" stroke-width="1.5"/>
<polygon points=" 48,168 62,168 62,192 48,192" fill="rgb(255,170,170)"/>
<text x="50.0" y="185.0" font-family="courier" font-size="16" fill="rgb(0,0,0)">3</text>
<polygon points=" 33,128 47,128 47,152 33,152" fill="rgb(255,170,170)"/>
<text x="35.0" y="145.0" font-family="courier" font-size="16" fill="rgb(0,0,0)">+</text>
<line x1="93.75" y1="100.0" x2="147.5" y2="140.0" stroke="rgb(255,0,0)" stroke-width="1.5"/>
<line x1="147.5" y1="140.0" x2="95.0" y2="180.0" stroke="rgb(255,0,0)" stroke-width="1.5"/>
<line x1="95.0" y1="180.0" x2="95.0" y2="220.0" stroke="rgb(255,0,0)" stroke-width="1.5"/>
<line x1="95.0" y1="220.0" x2="80.0" y2="260.0" stroke="rgb(255,0,0)" stroke-width="1.5"/>
<polygon points=" 73,248 87,248 87,272 73,272" fill="rgb(255,255,170)"/>
<text x="75.0" y="265.0" font-family="courier" font-size="16" fill="rgb(0,0,0)">+</text>
<line x1="95.0" y1="220.0" x2="110.0" y2="260.0" stroke="rgb(255,0,0)" stroke-width="1.5"/>
<polygon points=" 103,248 117,248 117,272 103,272" fill="rgb(255,255,170)"/>
<text x="105.0" y="265.0" font-family="courier" font-size="16" fill="rgb(0,0,0)">3</text>
<polygon points=" 73,208 117,208 117,232 73,232" fill="rgb(255,255,170)"/>
<text x="75.0" y="225.0" font-family="courier" font-size="16" fill="rgb(0,0,0)">rsec</text>
<polygon points=" 78,168 112,168 112,192 78,192" fill="rgb(255,255,170)"/>
<text x="80.0" y="185.0" font-family="courier" font-size="16" fill="rgb(0,0,0)">map</text>
<line x1="147.5" y1="140.0" x2="200.0" y2="180.0" stroke="rgb(255,0,0)" stroke-width="1.5"/>
<line x1="200.0" y1="180.0" x2="140.0" y2="220.0" stroke="rgb(255,0,0)" stroke-width="1.5"/>
<polygon points=" 133,208 147,208 147,232 133,232" fill="rgb(255,255,170)"/>
<text x="135.0" y="225.0" font-family="courier" font-size="16" fill="rgb(0,0,0)">5</text>
<line x1="200.0" y1="180.0" x2="170.0" y2="220.0" stroke="rgb(255,0,0)" stroke-width="1.5"/>
<polygon points=" 163,208 177,208 177,232 163,232" fill="rgb(255,255,170)"/>
<text x="165.0" y="225.0" font-family="courier" font-size="16" fill="rgb(0,0,0)">6</text>
<line x1="200.0" y1="180.0" x2="200.0" y2="220.0" stroke="rgb(255,0,0)" stroke-width="1.5"/>
<polygon points=" 193,208 207,208 207,232 193,232" fill="rgb(255,255,170)"/>
<text x="195.0" y="225.0" font-family="courier" font-size="16" fill="rgb(0,0,0)">7</text>
<line x1="200.0" y1="180.0" x2="230.0" y2="220.0" stroke="rgb(255,0,0)" stroke-width="1.5"/>
<polygon points=" 223,208 237,208 237,232 223,232" fill="rgb(255,255,170)"/>
<text x="225.0" y="225.0" font-family="courier" font-size="16" fill="rgb(0,0,0)">8</text>
<line x1="200.0" y1="180.0" x2="260.0" y2="220.0" stroke="rgb(255,0,0)" stroke-width="1.5"/>
<polygon points=" 253,208 267,208 267,232 253,232" fill="rgb(255,255,170)"/>
<text x="255.0" y="225.0" font-family="courier" font-size="16" fill="rgb(0,0,0)">9</text>
<polygon points=" 188,168 212,168 212,192 188,192" fill="rgb(255,255,170)"/>
<text x="190.0" y="185.0" font-family="courier" font-size="16" fill="rgb(0,0,0)">[]</text>
<polygon points=" 140,128 154,128 154,152 140,152" fill="rgb(255,255,170)"/>
<text x="142.5" y="145.0" font-family="courier" font-size="16" fill="rgb(0,0,0)">$</text>
<polygon points=" 87,88 101,88 101,112 87,112" fill="rgb(255,255,170)"/>
<text x="88.75" y="105.0" font-family="courier" font-size="16" fill="rgb(0,0,0)">:</text>
<polygon points=" 52,48 66,48 66,72 52,72" fill="rgb(255,255,170)"/>
<text x="54.375" y="65.0" font-family="courier" font-size="16" fill="rgb(0,0,0)">:</text>
<polygon points=" 35,8 49,8 49,32 35,32" fill="rgb(255,255,170)"/>
<text x="37.1875" y="25.0" font-family="courier" font-size="16" fill="rgb(0,0,0)">:</text></svg>