<svg xmlns="http://www.w3.org/2000/svg"
xmlns:xlink="http://www.w3.org/1999/xlink"
version="1.1" baseProfile="full"
width="243" height="280">
<line x1="40.0" y1="20.0" x2="25.0" y2="60.0" stroke="rgb(255,0,0)" stroke-width="1.5"/>
<polygon points=" 18,48 32,48 32,72 18,72" fill="rgb(255,255,170)"/>
<text x="20.0" y="65.0" font-family="courier" font-size="16" fill="rgb(0,0,0)">5</text>
<line x1="40.0" y1="20.0" x2="55.0" y2="60.0" stroke="rgb(255,0,0)" stroke-width="1.5"/>
<line x1="55.0" y1="60.0" x2="38.125" y2="100.0" stroke="rgb(255,0,0)" stroke-width="1.5"/>
<polygon points=" 31,88 45,88 45,112 31,112" fill="rgb(255,255,170)"/>
<text x="33.125" y="105.0" font-family="courier" font-size="16" fill="rgb(0,0,0)">6</text>
<line x1="55.0" y1="60.0" x2="71.875" y2="100.0" stroke="rgb(255,0,0)" stroke-width="1.5"/>
<line x1="71.875" y1="100.0" x2="38.125" y2="140.0" stroke="rgb(255,0,0)" stroke-width="1.5"/>
<polygon points=" 31,128 45,128 45,152 31,152" fill="rgb(255,255,170)"/>
<text x="33.125" y="145.0" font-family="courier" font-size="16" fill="rgb(0,0,0)">7</text>
<line x1="71.875" y1="100.0" x2="105.625" y2="140.0" stroke="rgb(255,0,0)" stroke-width="1.5"/>
<line x1="105.625" y1="140.0" x2="53.125" y2="180.0" stroke="rgb(255,0,0)" stroke-width="1.5"/>
<line x1="53.125" y1="180.0" x2="53.125" y2="220.0" stroke="rgb(255,0,0)" stroke-width="1.5"/>
<line x1="53.125" y1="220.0" x2="38.125" y2="260.0" stroke="rgb(255,0,0)" stroke-width="1.5"/>
<polygon points=" 31,248 45,248 45,272 31,272" fill="rgb(255,170,170)"/>
<text x="33.125" y="265.0" font-family="courier" font-size="16" fill="rgb(0,0,0)">+</text>
<line x1="53.125" y1="220.0" x2="68.125" y2="260.0" stroke="rgb(255,0,0)" stroke-width="1.5"/>
<polygon points=" 61,248 75,248 75,272 61,272" fill="rgb(255,170,170)"/>
<text x="63.125" y="265.0" font-family="courier" font-size="16" fill="rgb(0,0,0)">3</text>
<polygon points=" 31,208 75,208 75,232 31,232" fill="rgb(255,170,170)"/>
<text x="33.125" y="225.0" font-family="courier" font-size="16" fill="rgb(0,0,0)">rsec</text>
<polygon points=" 36,168 70,168 70,192 36,192" fill="rgb(255,170,170)"/>
<text x="38.125" y="185.0" font-family="courier" font-size="16" fill="rgb(0,0,0)">map</text>
<line x1="105.625" y1="140.0" x2="158.125" y2="180.0" stroke="rgb(255,0,0)" stroke-width="1.5"/>
<line x1="158.125" y1="180.0" x2="98.125" y2="220.0" stroke="rgb(255,0,0)" stroke-width="1.5"/>
<polygon points=" 91,208 105,208 105,232 91,232" fill="rgb(255,170,170)"/>
<text x="93.125" y="225.0" font-family="courier" font-size="16" fill="rgb(0,0,0)">5</text>
<line x1="158.125" y1="180.0" x2="128.125" y2="220.0" stroke="rgb(255,0,0)" stroke-width="1.5"/>
<polygon points=" 121,208 135,208 135,232 121,232" fill="rgb(255,170,170)"/>
<text x="123.125" y="225.0" font-family="courier" font-size="16" fill="rgb(0,0,0)">6</text>
<line x1="158.125" y1="180.0" x2="158.125" y2="220.0" stroke="rgb(255,0,0)" stroke-width="1.5"/>
<polygon points=" 151,208 165,208 165,232 151,232" fill="rgb(255,170,170)"/>
<text x="153.125" y="225.0" font-family="courier" font-size="16" fill="rgb(0,0,0)">7</text>
<line x1="158.125" y1="180.0" x2="188.125" y2="220.0" stroke="rgb(255,0,0)" stroke-width="1.5"/>
<polygon points=" 181,208 195,208 195,232 181,232" fill="rgb(255,170,170)"/>
<text x="183.125" y="225.0" font-family="courier" font-size="16" fill="rgb(0,0,0)">8</text>
<line x1="158.125" y1="180.0" x2="218.125" y2="220.0" stroke="rgb(255,0,0)" stroke-width="1.5"/>
<polygon points=" 211,208 225,208 225,232 211,232" fill="rgb(255,170,170)"/>
<text x="213.125" y="225.0" font-family="courier" font-size="16" fill="rgb(0,0,0)">9</text>
<polygon points=" 146,168 170,168 170,192 146,192" fill="rgb(255,170,170)"/>
<text x="148.125" y="185.0" font-family="courier" font-size="16" fill="rgb(0,0,0)">[]</text>
<polygon points=" 99,128 113,128 113,152 99,152" fill="rgb(255,170,170)"/>
<text x="100.625" y="145.0" font-family="courier" font-size="16" fill="rgb(0,0,0)">$</text>
<polygon points=" 65,88 79,88 79,112 65,112" fill="rgb(255,255,170)"/>
<text x="66.875" y="105.0" font-family="courier" font-size="16" fill="rgb(0,0,0)">:</text>
<polygon points=" 48,48 62,48 62,72 48,72" fill="rgb(255,255,170)"/>
<text x="50.0" y="65.0" font-family="courier" font-size="16" fill="rgb(0,0,0)">:</text>
<polygon points=" 33,8 47,8 47,32 33,32" fill="rgb(255,255,170)"/>
<text x="35.0" y="25.0" font-family="courier" font-size="16" fill="rgb(0,0,0)">:</text></svg>