<svg xmlns="http://www.w3.org/2000/svg"
xmlns:xlink="http://www.w3.org/1999/xlink"
version="1.1" baseProfile="full"
width="269" height="320">
<line x1="40.0" y1="20.0" x2="25.0" y2="60.0" stroke="rgb(255,0,0)" stroke-width="1.5"/>
<polygon points=" 18,48 32,48 32,72 18,72" fill="rgb(255,255,170)"/>
<text x="20.0" y="65.0" font-family="courier" font-size="16" fill="rgb(0,0,0)">5</text>
<line x1="40.0" y1="20.0" x2="55.0" y2="60.0" stroke="rgb(255,0,0)" stroke-width="1.5"/>
<line x1="55.0" y1="60.0" x2="38.75" y2="100.0" stroke="rgb(255,0,0)" stroke-width="1.5"/>
<polygon points=" 32,88 46,88 46,112 32,112" fill="rgb(255,255,170)"/>
<text x="33.75" y="105.0" font-family="courier" font-size="16" fill="rgb(0,0,0)">6</text>
<line x1="55.0" y1="60.0" x2="71.25" y2="100.0" stroke="rgb(255,0,0)" stroke-width="1.5"/>
<line x1="71.25" y1="100.0" x2="38.75" y2="140.0" stroke="rgb(255,0,0)" stroke-width="1.5"/>
<polygon points=" 32,128 46,128 46,152 32,152" fill="rgb(255,255,170)"/>
<text x="33.75" y="145.0" font-family="courier" font-size="16" fill="rgb(0,0,0)">7</text>
<line x1="71.25" y1="100.0" x2="103.75" y2="140.0" stroke="rgb(255,0,0)" stroke-width="1.5"/>
<line x1="103.75" y1="140.0" x2="53.75" y2="180.0" stroke="rgb(255,0,0)" stroke-width="1.5"/>
<line x1="53.75" y1="180.0" x2="38.75" y2="220.0" stroke="rgb(255,0,0)" stroke-width="1.5"/>
<polygon points=" 32,208 46,208 46,232 32,232" fill="rgb(255,170,170)"/>
<text x="33.75" y="225.0" font-family="courier" font-size="16" fill="rgb(0,0,0)">5</text>
<line x1="53.75" y1="180.0" x2="68.75" y2="220.0" stroke="rgb(255,0,0)" stroke-width="1.5"/>
<polygon points=" 62,208 76,208 76,232 62,232" fill="rgb(255,170,170)"/>
<text x="63.75" y="225.0" font-family="courier" font-size="16" fill="rgb(0,0,0)">3</text>
<polygon points=" 47,168 61,168 61,192 47,192" fill="rgb(255,170,170)"/>
<text x="48.75" y="185.0" font-family="courier" font-size="16" fill="rgb(0,0,0)">+</text>
<line x1="103.75" y1="140.0" x2="153.75" y2="180.0" stroke="rgb(255,0,0)" stroke-width="1.5"/>
<line x1="153.75" y1="180.0" x2="108.75" y2="220.0" stroke="rgb(255,0,0)" stroke-width="1.5"/>
<line x1="108.75" y1="220.0" x2="108.75" y2="260.0" stroke="rgb(255,0,0)" stroke-width="1.5"/>
<line x1="108.75" y1="260.0" x2="93.75" y2="300.0" stroke="rgb(255,0,0)" stroke-width="1.5"/>
<polygon points=" 87,288 101,288 101,312 87,312" fill="rgb(255,255,170)"/>
<text x="88.75" y="305.0" font-family="courier" font-size="16" fill="rgb(0,0,0)">+</text>
<line x1="108.75" y1="260.0" x2="123.75" y2="300.0" stroke="rgb(255,0,0)" stroke-width="1.5"/>
<polygon points=" 117,288 131,288 131,312 117,312" fill="rgb(255,255,170)"/>
<text x="118.75" y="305.0" font-family="courier" font-size="16" fill="rgb(0,0,0)">3</text>
<polygon points=" 87,248 131,248 131,272 87,272" fill="rgb(255,255,170)"/>
<text x="88.75" y="265.0" font-family="courier" font-size="16" fill="rgb(0,0,0)">rsec</text>
<polygon points=" 92,208 126,208 126,232 92,232" fill="rgb(255,255,170)"/>
<text x="93.75" y="225.0" font-family="courier" font-size="16" fill="rgb(0,0,0)">map</text>
<line x1="153.75" y1="180.0" x2="198.75" y2="220.0" stroke="rgb(255,0,0)" stroke-width="1.5"/>
<line x1="198.75" y1="220.0" x2="153.75" y2="260.0" stroke="rgb(255,0,0)" stroke-width="1.5"/>
<polygon points=" 147,248 161,248 161,272 147,272" fill="rgb(255,255,170)"/>
<text x="148.75" y="265.0" font-family="courier" font-size="16" fill="rgb(0,0,0)">6</text>
<line x1="198.75" y1="220.0" x2="183.75" y2="260.0" stroke="rgb(255,0,0)" stroke-width="1.5"/>
<polygon points=" 177,248 191,248 191,272 177,272" fill="rgb(255,255,170)"/>
<text x="178.75" y="265.0" font-family="courier" font-size="16" fill="rgb(0,0,0)">7</text>
<line x1="198.75" y1="220.0" x2="213.75" y2="260.0" stroke="rgb(255,0,0)" stroke-width="1.5"/>
<polygon points=" 207,248 221,248 221,272 207,272" fill="rgb(255,255,170)"/>
<text x="208.75" y="265.0" font-family="courier" font-size="16" fill="rgb(0,0,0)">8</text>
<line x1="198.75" y1="220.0" x2="243.75" y2="260.0" stroke="rgb(255,0,0)" stroke-width="1.5"/>
<polygon points=" 237,248 251,248 251,272 237,272" fill="rgb(255,255,170)"/>
<text x="238.75" y="265.0" font-family="courier" font-size="16" fill="rgb(0,0,0)">9</text>
<polygon points=" 187,208 211,208 211,232 187,232" fill="rgb(255,255,170)"/>
<text x="188.75" y="225.0" font-family="courier" font-size="16" fill="rgb(0,0,0)">[]</text>
<polygon points=" 147,168 161,168 161,192 147,192" fill="rgb(255,255,170)"/>
<text x="148.75" y="185.0" font-family="courier" font-size="16" fill="rgb(0,0,0)">$</text>
<polygon points=" 97,128 111,128 111,152 97,152" fill="rgb(255,255,170)"/>
<text x="98.75" y="145.0" font-family="courier" font-size="16" fill="rgb(0,0,0)">:</text>
<polygon points=" 64,88 78,88 78,112 64,112" fill="rgb(255,255,170)"/>
<text x="66.25" y="105.0" font-family="courier" font-size="16" fill="rgb(0,0,0)">:</text>
<polygon points=" 48,48 62,48 62,72 48,72" fill="rgb(255,255,170)"/>
<text x="50.0" y="65.0" font-family="courier" font-size="16" fill="rgb(0,0,0)">:</text>
<polygon points=" 33,8 47,8 47,32 33,32" fill="rgb(255,255,170)"/>
<text x="35.0" y="25.0" font-family="courier" font-size="16" fill="rgb(0,0,0)">:</text></svg>