<svg xmlns="http://www.w3.org/2000/svg"
xmlns:xlink="http://www.w3.org/1999/xlink"
version="1.1" baseProfile="full"
width="282" height="360">
<line x1="40.0" y1="20.0" x2="25.0" y2="60.0" stroke="rgb(255,0,0)" stroke-width="1.5"/>
<polygon points=" 18,48 32,48 32,72 18,72" fill="rgb(255,255,170)"/>
<text x="20.0" y="65.0" font-family="courier" font-size="16" fill="rgb(0,0,0)">5</text>
<line x1="40.0" y1="20.0" x2="55.0" y2="60.0" stroke="rgb(255,0,0)" stroke-width="1.5"/>
<line x1="55.0" y1="60.0" x2="40.0" y2="100.0" stroke="rgb(255,0,0)" stroke-width="1.5"/>
<polygon points=" 33,88 47,88 47,112 33,112" fill="rgb(255,255,170)"/>
<text x="35.0" y="105.0" font-family="courier" font-size="16" fill="rgb(0,0,0)">6</text>
<line x1="55.0" y1="60.0" x2="70.0" y2="100.0" stroke="rgb(255,0,0)" stroke-width="1.5"/>
<line x1="70.0" y1="100.0" x2="47.5" y2="140.0" stroke="rgb(255,0,0)" stroke-width="1.5"/>
<polygon points=" 40,128 54,128 54,152 40,152" fill="rgb(255,255,170)"/>
<text x="42.5" y="145.0" font-family="courier" font-size="16" fill="rgb(0,0,0)">7</text>
<line x1="70.0" y1="100.0" x2="92.5" y2="140.0" stroke="rgb(255,0,0)" stroke-width="1.5"/>
<line x1="92.5" y1="140.0" x2="47.5" y2="180.0" stroke="rgb(255,0,0)" stroke-width="1.5"/>
<polygon points=" 40,168 54,168 54,192 40,192" fill="rgb(255,255,170)"/>
<text x="42.5" y="185.0" font-family="courier" font-size="16" fill="rgb(0,0,0)">8</text>
<line x1="92.5" y1="140.0" x2="137.5" y2="180.0" stroke="rgb(255,0,0)" stroke-width="1.5"/>
<line x1="137.5" y1="180.0" x2="85.0" y2="220.0" stroke="rgb(255,0,0)" stroke-width="1.5"/>
<line x1="85.0" y1="220.0" x2="62.5" y2="260.0" stroke="rgb(255,0,0)" stroke-width="1.5"/>
<line x1="62.5" y1="260.0" x2="47.5" y2="300.0" stroke="rgb(255,0,0)" stroke-width="1.5"/>
<polygon points=" 40,288 54,288 54,312 40,312" fill="rgb(255,170,170)"/>
<text x="42.5" y="305.0" font-family="courier" font-size="16" fill="rgb(0,0,0)">+</text>
<line x1="62.5" y1="260.0" x2="77.5" y2="300.0" stroke="rgb(255,0,0)" stroke-width="1.5"/>
<polygon points=" 70,288 84,288 84,312 70,312" fill="rgb(255,170,170)"/>
<text x="72.5" y="305.0" font-family="courier" font-size="16" fill="rgb(0,0,0)">3</text>
<polygon points=" 40,248 84,248 84,272 40,272" fill="rgb(255,170,170)"/>
<text x="42.5" y="265.0" font-family="courier" font-size="16" fill="rgb(0,0,0)">rsec</text>
<line x1="85.0" y1="220.0" x2="107.5" y2="260.0" stroke="rgb(255,0,0)" stroke-width="1.5"/>
<polygon points=" 100,248 114,248 114,272 100,272" fill="rgb(255,170,170)"/>
<text x="102.5" y="265.0" font-family="courier" font-size="16" fill="rgb(0,0,0)">6</text>
<polygon points=" 78,208 92,208 92,232 78,232" fill="rgb(255,170,170)"/>
<text x="80.0" y="225.0" font-family="courier" font-size="16" fill="rgb(0,0,0)">$</text>
<line x1="137.5" y1="180.0" x2="190.0" y2="220.0" stroke="rgb(255,0,0)" stroke-width="1.5"/>
<line x1="190.0" y1="220.0" x2="152.5" y2="260.0" stroke="rgb(255,0,0)" stroke-width="1.5"/>
<line x1="152.5" y1="260.0" x2="152.5" y2="300.0" stroke="rgb(255,0,0)" stroke-width="1.5"/>
<line x1="152.5" y1="300.0" x2="137.5" y2="340.0" stroke="rgb(255,0,0)" stroke-width="1.5"/>
<polygon points=" 130,328 144,328 144,352 130,352" fill="rgb(255,255,170)"/>
<text x="132.5" y="345.0" font-family="courier" font-size="16" fill="rgb(0,0,0)">+</text>
<line x1="152.5" y1="300.0" x2="167.5" y2="340.0" stroke="rgb(255,0,0)" stroke-width="1.5"/>
<polygon points=" 160,328 174,328 174,352 160,352" fill="rgb(255,255,170)"/>
<text x="162.5" y="345.0" font-family="courier" font-size="16" fill="rgb(0,0,0)">3</text>
<polygon points=" 130,288 174,288 174,312 130,312" fill="rgb(255,255,170)"/>
<text x="132.5" y="305.0" font-family="courier" font-size="16" fill="rgb(0,0,0)">rsec</text>
<polygon points=" 136,248 170,248 170,272 136,272" fill="rgb(255,255,170)"/>
<text x="137.5" y="265.0" font-family="courier" font-size="16" fill="rgb(0,0,0)">map</text>
<line x1="190.0" y1="220.0" x2="227.5" y2="260.0" stroke="rgb(255,0,0)" stroke-width="1.5"/>
<line x1="227.5" y1="260.0" x2="197.5" y2="300.0" stroke="rgb(255,0,0)" stroke-width="1.5"/>
<polygon points=" 190,288 204,288 204,312 190,312" fill="rgb(255,255,170)"/>
<text x="192.5" y="305.0" font-family="courier" font-size="16" fill="rgb(0,0,0)">7</text>
<line x1="227.5" y1="260.0" x2="227.5" y2="300.0" stroke="rgb(255,0,0)" stroke-width="1.5"/>
<polygon points=" 220,288 234,288 234,312 220,312" fill="rgb(255,255,170)"/>
<text x="222.5" y="305.0" font-family="courier" font-size="16" fill="rgb(0,0,0)">8</text>
<line x1="227.5" y1="260.0" x2="257.5" y2="300.0" stroke="rgb(255,0,0)" stroke-width="1.5"/>
<polygon points=" 250,288 264,288 264,312 250,312" fill="rgb(255,255,170)"/>
<text x="252.5" y="305.0" font-family="courier" font-size="16" fill="rgb(0,0,0)">9</text>
<polygon points=" 216,248 240,248 240,272 216,272" fill="rgb(255,255,170)"/>
<text x="217.5" y="265.0" font-family="courier" font-size="16" fill="rgb(0,0,0)">[]</text>
<polygon points=" 183,208 197,208 197,232 183,232" fill="rgb(255,255,170)"/>
<text x="185.0" y="225.0" font-family="courier" font-size="16" fill="rgb(0,0,0)">$</text>
<polygon points=" 130,168 144,168 144,192 130,192" fill="rgb(255,255,170)"/>
<text x="132.5" y="185.0" font-family="courier" font-size="16" fill="rgb(0,0,0)">:</text>
<polygon points=" 86,128 100,128 100,152 86,152" fill="rgb(255,255,170)"/>
<text x="87.5" y="145.0" font-family="courier" font-size="16" fill="rgb(0,0,0)">:</text>
<polygon points=" 63,88 77,88 77,112 63,112" fill="rgb(255,255,170)"/>
<text x="65.0" y="105.0" font-family="courier" font-size="16" fill="rgb(0,0,0)">:</text>
<polygon points=" 48,48 62,48 62,72 48,72" fill="rgb(255,255,170)"/>
<text x="50.0" y="65.0" font-family="courier" font-size="16" fill="rgb(0,0,0)">:</text>
<polygon points=" 33,8 47,8 47,32 33,32" fill="rgb(255,255,170)"/>
<text x="35.0" y="25.0" font-family="courier" font-size="16" fill="rgb(0,0,0)">:</text></svg>