<svg xmlns="http://www.w3.org/2000/svg"
xmlns:xlink="http://www.w3.org/1999/xlink"
version="1.1" baseProfile="full"
width="255" height="360">
<line x1="40.0" y1="20.0" x2="25.0" y2="60.0" stroke="rgb(255,0,0)" stroke-width="1.5"/>
<polygon points=" 18,48 32,48 32,72 18,72" fill="rgb(255,255,170)"/>
<text x="20.0" y="65.0" font-family="courier" font-size="16" fill="rgb(0,0,0)">5</text>
<line x1="40.0" y1="20.0" x2="55.0" y2="60.0" stroke="rgb(255,0,0)" stroke-width="1.5"/>
<line x1="55.0" y1="60.0" x2="40.0" y2="100.0" stroke="rgb(255,0,0)" stroke-width="1.5"/>
<polygon points=" 33,88 47,88 47,112 33,112" fill="rgb(255,255,170)"/>
<text x="35.0" y="105.0" font-family="courier" font-size="16" fill="rgb(0,0,0)">6</text>
<line x1="55.0" y1="60.0" x2="70.0" y2="100.0" stroke="rgb(255,0,0)" stroke-width="1.5"/>
<line x1="70.0" y1="100.0" x2="54.6875" y2="140.0" stroke="rgb(255,0,0)" stroke-width="1.5"/>
<polygon points=" 48,128 62,128 62,152 48,152" fill="rgb(255,255,170)"/>
<text x="49.6875" y="145.0" font-family="courier" font-size="16" fill="rgb(0,0,0)">7</text>
<line x1="70.0" y1="100.0" x2="85.3125" y2="140.0" stroke="rgb(255,0,0)" stroke-width="1.5"/>
<line x1="85.3125" y1="140.0" x2="54.6875" y2="180.0" stroke="rgb(255,0,0)" stroke-width="1.5"/>
<polygon points=" 48,168 62,168 62,192 48,192" fill="rgb(255,255,170)"/>
<text x="49.6875" y="185.0" font-family="courier" font-size="16" fill="rgb(0,0,0)">8</text>
<line x1="85.3125" y1="140.0" x2="115.9375" y2="180.0" stroke="rgb(255,0,0)" stroke-width="1.5"/>
<line x1="115.9375" y1="180.0" x2="69.6875" y2="220.0" stroke="rgb(255,0,0)" stroke-width="1.5"/>
<line x1="69.6875" y1="220.0" x2="54.6875" y2="260.0" stroke="rgb(255,0,0)" stroke-width="1.5"/>
<polygon points=" 48,248 62,248 62,272 48,272" fill="rgb(170,255,170)"/>
<text x="49.6875" y="265.0" font-family="courier" font-size="16" fill="rgb(0,0,0)">6</text>
<line x1="69.6875" y1="220.0" x2="84.6875" y2="260.0" stroke="rgb(255,0,0)" stroke-width="1.5"/>
<polygon points=" 78,248 92,248 92,272 78,272" fill="rgb(170,255,170)"/>
<text x="79.6875" y="265.0" font-family="courier" font-size="16" fill="rgb(0,0,0)">3</text>
<polygon points=" 63,208 77,208 77,232 63,232" fill="rgb(170,255,170)"/>
<text x="64.6875" y="225.0" font-family="courier" font-size="16" fill="rgb(0,0,0)">+</text>
<line x1="115.9375" y1="180.0" x2="162.1875" y2="220.0" stroke="rgb(255,0,0)" stroke-width="1.5"/>
<line x1="162.1875" y1="220.0" x2="124.6875" y2="260.0" stroke="rgb(255,0,0)" stroke-width="1.5"/>
<line x1="124.6875" y1="260.0" x2="124.6875" y2="300.0" stroke="rgb(255,0,0)" stroke-width="1.5"/>
<line x1="124.6875" y1="300.0" x2="109.6875" y2="340.0" stroke="rgb(255,0,0)" stroke-width="1.5"/>
<polygon points=" 103,328 117,328 117,352 103,352" fill="rgb(255,255,170)"/>
<text x="104.6875" y="345.0" font-family="courier" font-size="16" fill="rgb(0,0,0)">+</text>
<line x1="124.6875" y1="300.0" x2="139.6875" y2="340.0" stroke="rgb(255,0,0)" stroke-width="1.5"/>
<polygon points=" 133,328 147,328 147,352 133,352" fill="rgb(255,255,170)"/>
<text x="134.6875" y="345.0" font-family="courier" font-size="16" fill="rgb(0,0,0)">3</text>
<polygon points=" 103,288 147,288 147,312 103,312" fill="rgb(255,255,170)"/>
<text x="104.6875" y="305.0" font-family="courier" font-size="16" fill="rgb(0,0,0)">rsec</text>
<polygon points=" 108,248 142,248 142,272 108,272" fill="rgb(255,255,170)"/>
<text x="109.6875" y="265.0" font-family="courier" font-size="16" fill="rgb(0,0,0)">map</text>
<line x1="162.1875" y1="220.0" x2="199.6875" y2="260.0" stroke="rgb(255,0,0)" stroke-width="1.5"/>
<line x1="199.6875" y1="260.0" x2="169.6875" y2="300.0" stroke="rgb(255,0,0)" stroke-width="1.5"/>
<polygon points=" 163,288 177,288 177,312 163,312" fill="rgb(255,255,170)"/>
<text x="164.6875" y="305.0" font-family="courier" font-size="16" fill="rgb(0,0,0)">7</text>
<line x1="199.6875" y1="260.0" x2="199.6875" y2="300.0" stroke="rgb(255,0,0)" stroke-width="1.5"/>
<polygon points=" 193,288 207,288 207,312 193,312" fill="rgb(255,255,170)"/>
<text x="194.6875" y="305.0" font-family="courier" font-size="16" fill="rgb(0,0,0)">8</text>
<line x1="199.6875" y1="260.0" x2="229.6875" y2="300.0" stroke="rgb(255,0,0)" stroke-width="1.5"/>
<polygon points=" 223,288 237,288 237,312 223,312" fill="rgb(255,255,170)"/>
<text x="224.6875" y="305.0" font-family="courier" font-size="16" fill="rgb(0,0,0)">9</text>
<polygon points=" 188,248 212,248 212,272 188,272" fill="rgb(255,255,170)"/>
<text x="189.6875" y="265.0" font-family="courier" font-size="16" fill="rgb(0,0,0)">[]</text>
<polygon points=" 155,208 169,208 169,232 155,232" fill="rgb(255,255,170)"/>
<text x="157.1875" y="225.0" font-family="courier" font-size="16" fill="rgb(0,0,0)">$</text>
<polygon points=" 109,168 123,168 123,192 109,192" fill="rgb(255,255,170)"/>
<text x="110.9375" y="185.0" font-family="courier" font-size="16" fill="rgb(0,0,0)">:</text>
<polygon points=" 78,128 92,128 92,152 78,152" fill="rgb(255,255,170)"/>
<text x="80.3125" y="145.0" font-family="courier" font-size="16" fill="rgb(0,0,0)">:</text>
<polygon points=" 63,88 77,88 77,112 63,112" fill="rgb(255,255,170)"/>
<text x="65.0" y="105.0" font-family="courier" font-size="16" fill="rgb(0,0,0)">:</text>
<polygon points=" 48,48 62,48 62,72 48,72" fill="rgb(255,255,170)"/>
<text x="50.0" y="65.0" font-family="courier" font-size="16" fill="rgb(0,0,0)">:</text>
<polygon points=" 33,8 47,8 47,32 33,32" fill="rgb(255,255,170)"/>
<text x="35.0" y="25.0" font-family="courier" font-size="16" fill="rgb(0,0,0)">:</text></svg>