<svg xmlns="http://www.w3.org/2000/svg"
xmlns:xlink="http://www.w3.org/1999/xlink"
version="1.1" baseProfile="full"
width="219" height="360">
<line x1="40.0" y1="20.0" x2="25.0" y2="60.0" stroke="rgb(255,0,0)" stroke-width="1.5"/>
<polygon points=" 18,48 32,48 32,72 18,72" fill="rgb(255,255,170)"/>
<text x="20.0" y="65.0" font-family="courier" font-size="16" fill="rgb(0,0,0)">5</text>
<line x1="40.0" y1="20.0" x2="55.0" y2="60.0" stroke="rgb(255,0,0)" stroke-width="1.5"/>
<line x1="55.0" y1="60.0" x2="40.0" y2="100.0" stroke="rgb(255,0,0)" stroke-width="1.5"/>
<polygon points=" 33,88 47,88 47,112 33,112" fill="rgb(255,255,170)"/>
<text x="35.0" y="105.0" font-family="courier" font-size="16" fill="rgb(0,0,0)">6</text>
<line x1="55.0" y1="60.0" x2="70.0" y2="100.0" stroke="rgb(255,0,0)" stroke-width="1.5"/>
<line x1="70.0" y1="100.0" x2="55.0" y2="140.0" stroke="rgb(255,0,0)" stroke-width="1.5"/>
<polygon points=" 48,128 62,128 62,152 48,152" fill="rgb(255,255,170)"/>
<text x="50.0" y="145.0" font-family="courier" font-size="16" fill="rgb(0,0,0)">7</text>
<line x1="70.0" y1="100.0" x2="85.0" y2="140.0" stroke="rgb(255,0,0)" stroke-width="1.5"/>
<line x1="85.0" y1="140.0" x2="70.0" y2="180.0" stroke="rgb(255,0,0)" stroke-width="1.5"/>
<polygon points=" 63,168 77,168 77,192 63,192" fill="rgb(255,255,170)"/>
<text x="65.0" y="185.0" font-family="courier" font-size="16" fill="rgb(0,0,0)">8</text>
<line x1="85.0" y1="140.0" x2="100.0" y2="180.0" stroke="rgb(255,0,0)" stroke-width="1.5"/>
<line x1="100.0" y1="180.0" x2="73.75" y2="220.0" stroke="rgb(255,0,0)" stroke-width="1.5"/>
<polygon points=" 67,208 81,208 81,232 67,232" fill="rgb(255,255,170)"/>
<text x="68.75" y="225.0" font-family="courier" font-size="16" fill="rgb(0,0,0)">9</text>
<line x1="100.0" y1="180.0" x2="126.25" y2="220.0" stroke="rgb(255,0,0)" stroke-width="1.5"/>
<line x1="126.25" y1="220.0" x2="88.75" y2="260.0" stroke="rgb(255,0,0)" stroke-width="1.5"/>
<line x1="88.75" y1="260.0" x2="88.75" y2="300.0" stroke="rgb(255,0,0)" stroke-width="1.5"/>
<line x1="88.75" y1="300.0" x2="73.75" y2="340.0" stroke="rgb(255,0,0)" stroke-width="1.5"/>
<polygon points=" 67,328 81,328 81,352 67,352" fill="rgb(255,170,170)"/>
<text x="68.75" y="345.0" font-family="courier" font-size="16" fill="rgb(0,0,0)">+</text>
<line x1="88.75" y1="300.0" x2="103.75" y2="340.0" stroke="rgb(255,0,0)" stroke-width="1.5"/>
<polygon points=" 97,328 111,328 111,352 97,352" fill="rgb(255,170,170)"/>
<text x="98.75" y="345.0" font-family="courier" font-size="16" fill="rgb(0,0,0)">3</text>
<polygon points=" 67,288 111,288 111,312 67,312" fill="rgb(255,170,170)"/>
<text x="68.75" y="305.0" font-family="courier" font-size="16" fill="rgb(0,0,0)">rsec</text>
<polygon points=" 72,248 106,248 106,272 72,272" fill="rgb(255,170,170)"/>
<text x="73.75" y="265.0" font-family="courier" font-size="16" fill="rgb(0,0,0)">map</text>
<line x1="126.25" y1="220.0" x2="163.75" y2="260.0" stroke="rgb(255,0,0)" stroke-width="1.5"/>
<line x1="163.75" y1="260.0" x2="133.75" y2="300.0" stroke="rgb(255,0,0)" stroke-width="1.5"/>
<polygon points=" 127,288 141,288 141,312 127,312" fill="rgb(255,170,170)"/>
<text x="128.75" y="305.0" font-family="courier" font-size="16" fill="rgb(0,0,0)">7</text>
<line x1="163.75" y1="260.0" x2="163.75" y2="300.0" stroke="rgb(255,0,0)" stroke-width="1.5"/>
<polygon points=" 157,288 171,288 171,312 157,312" fill="rgb(255,170,170)"/>
<text x="158.75" y="305.0" font-family="courier" font-size="16" fill="rgb(0,0,0)">8</text>
<line x1="163.75" y1="260.0" x2="193.75" y2="300.0" stroke="rgb(255,0,0)" stroke-width="1.5"/>
<polygon points=" 187,288 201,288 201,312 187,312" fill="rgb(255,170,170)"/>
<text x="188.75" y="305.0" font-family="courier" font-size="16" fill="rgb(0,0,0)">9</text>
<polygon points=" 152,248 176,248 176,272 152,272" fill="rgb(255,170,170)"/>
<text x="153.75" y="265.0" font-family="courier" font-size="16" fill="rgb(0,0,0)">[]</text>
<polygon points=" 119,208 133,208 133,232 119,232" fill="rgb(255,170,170)"/>
<text x="121.25" y="225.0" font-family="courier" font-size="16" fill="rgb(0,0,0)">$</text>
<polygon points=" 93,168 107,168 107,192 93,192" fill="rgb(255,255,170)"/>
<text x="95.0" y="185.0" font-family="courier" font-size="16" fill="rgb(0,0,0)">:</text>
<polygon points=" 78,128 92,128 92,152 78,152" fill="rgb(255,255,170)"/>
<text x="80.0" y="145.0" font-family="courier" font-size="16" fill="rgb(0,0,0)">:</text>
<polygon points=" 63,88 77,88 77,112 63,112" fill="rgb(255,255,170)"/>
<text x="65.0" y="105.0" font-family="courier" font-size="16" fill="rgb(0,0,0)">:</text>
<polygon points=" 48,48 62,48 62,72 48,72" fill="rgb(255,255,170)"/>
<text x="50.0" y="65.0" font-family="courier" font-size="16" fill="rgb(0,0,0)">:</text>
<polygon points=" 33,8 47,8 47,32 33,32" fill="rgb(255,255,170)"/>
<text x="35.0" y="25.0" font-family="courier" font-size="16" fill="rgb(0,0,0)">:</text></svg>