<svg xmlns="http://www.w3.org/2000/svg"
xmlns:xlink="http://www.w3.org/1999/xlink"
version="1.1" baseProfile="full"
width="268" height="400">
<line x1="40.0" y1="20.0" x2="25.0" y2="60.0" stroke="rgb(255,0,0)" stroke-width="1.5"/>
<polygon points=" 18,48 32,48 32,72 18,72" fill="rgb(255,255,170)"/>
<text x="20.0" y="65.0" font-family="courier" font-size="16" fill="rgb(0,0,0)">5</text>
<line x1="40.0" y1="20.0" x2="55.0" y2="60.0" stroke="rgb(255,0,0)" stroke-width="1.5"/>
<line x1="55.0" y1="60.0" x2="40.0" y2="100.0" stroke="rgb(255,0,0)" stroke-width="1.5"/>
<polygon points=" 33,88 47,88 47,112 33,112" fill="rgb(255,255,170)"/>
<text x="35.0" y="105.0" font-family="courier" font-size="16" fill="rgb(0,0,0)">6</text>
<line x1="55.0" y1="60.0" x2="70.0" y2="100.0" stroke="rgb(255,0,0)" stroke-width="1.5"/>
<line x1="70.0" y1="100.0" x2="55.0" y2="140.0" stroke="rgb(255,0,0)" stroke-width="1.5"/>
<polygon points=" 48,128 62,128 62,152 48,152" fill="rgb(255,255,170)"/>
<text x="50.0" y="145.0" font-family="courier" font-size="16" fill="rgb(0,0,0)">7</text>
<line x1="70.0" y1="100.0" x2="85.0" y2="140.0" stroke="rgb(255,0,0)" stroke-width="1.5"/>
<line x1="85.0" y1="140.0" x2="63.4375" y2="180.0" stroke="rgb(255,0,0)" stroke-width="1.5"/>
<polygon points=" 56,168 70,168 70,192 56,192" fill="rgb(255,255,170)"/>
<text x="58.4375" y="185.0" font-family="courier" font-size="16" fill="rgb(0,0,0)">8</text>
<line x1="85.0" y1="140.0" x2="106.5625" y2="180.0" stroke="rgb(255,0,0)" stroke-width="1.5"/>
<line x1="106.5625" y1="180.0" x2="63.4375" y2="220.0" stroke="rgb(255,0,0)" stroke-width="1.5"/>
<polygon points=" 56,208 70,208 70,232 56,232" fill="rgb(255,255,170)"/>
<text x="58.4375" y="225.0" font-family="courier" font-size="16" fill="rgb(0,0,0)">9</text>
<line x1="106.5625" y1="180.0" x2="149.6875" y2="220.0" stroke="rgb(255,0,0)" stroke-width="1.5"/>
<line x1="149.6875" y1="220.0" x2="100.9375" y2="260.0" stroke="rgb(255,0,0)" stroke-width="1.5"/>
<line x1="100.9375" y1="260.0" x2="78.4375" y2="300.0" stroke="rgb(255,0,0)" stroke-width="1.5"/>
<line x1="78.4375" y1="300.0" x2="63.4375" y2="340.0" stroke="rgb(255,0,0)" stroke-width="1.5"/>
<polygon points=" 56,328 70,328 70,352 56,352" fill="rgb(255,170,170)"/>
<text x="58.4375" y="345.0" font-family="courier" font-size="16" fill="rgb(0,0,0)">+</text>
<line x1="78.4375" y1="300.0" x2="93.4375" y2="340.0" stroke="rgb(255,0,0)" stroke-width="1.5"/>
<polygon points=" 86,328 100,328 100,352 86,352" fill="rgb(255,170,170)"/>
<text x="88.4375" y="345.0" font-family="courier" font-size="16" fill="rgb(0,0,0)">3</text>
<polygon points=" 56,288 100,288 100,312 56,312" fill="rgb(255,170,170)"/>
<text x="58.4375" y="305.0" font-family="courier" font-size="16" fill="rgb(0,0,0)">rsec</text>
<line x1="100.9375" y1="260.0" x2="123.4375" y2="300.0" stroke="rgb(255,0,0)" stroke-width="1.5"/>
<polygon points=" 116,288 130,288 130,312 116,312" fill="rgb(255,170,170)"/>
<text x="118.4375" y="305.0" font-family="courier" font-size="16" fill="rgb(0,0,0)">7</text>
<polygon points=" 94,248 108,248 108,272 94,272" fill="rgb(255,170,170)"/>
<text x="95.9375" y="265.0" font-family="courier" font-size="16" fill="rgb(0,0,0)">$</text>
<line x1="149.6875" y1="220.0" x2="198.4375" y2="260.0" stroke="rgb(255,0,0)" stroke-width="1.5"/>
<line x1="198.4375" y1="260.0" x2="168.4375" y2="300.0" stroke="rgb(255,0,0)" stroke-width="1.5"/>
<line x1="168.4375" y1="300.0" x2="168.4375" y2="340.0" stroke="rgb(255,0,0)" stroke-width="1.5"/>
<line x1="168.4375" y1="340.0" x2="153.4375" y2="380.0" stroke="rgb(255,0,0)" stroke-width="1.5"/>
<polygon points=" 146,368 160,368 160,392 146,392" fill="rgb(255,255,170)"/>
<text x="148.4375" y="385.0" font-family="courier" font-size="16" fill="rgb(0,0,0)">+</text>
<line x1="168.4375" y1="340.0" x2="183.4375" y2="380.0" stroke="rgb(255,0,0)" stroke-width="1.5"/>
<polygon points=" 176,368 190,368 190,392 176,392" fill="rgb(255,255,170)"/>
<text x="178.4375" y="385.0" font-family="courier" font-size="16" fill="rgb(0,0,0)">3</text>
<polygon points=" 146,328 190,328 190,352 146,352" fill="rgb(255,255,170)"/>
<text x="148.4375" y="345.0" font-family="courier" font-size="16" fill="rgb(0,0,0)">rsec</text>
<polygon points=" 151,288 185,288 185,312 151,312" fill="rgb(255,255,170)"/>
<text x="153.4375" y="305.0" font-family="courier" font-size="16" fill="rgb(0,0,0)">map</text>
<line x1="198.4375" y1="260.0" x2="228.4375" y2="300.0" stroke="rgb(255,0,0)" stroke-width="1.5"/>
<line x1="228.4375" y1="300.0" x2="213.4375" y2="340.0" stroke="rgb(255,0,0)" stroke-width="1.5"/>
<polygon points=" 206,328 220,328 220,352 206,352" fill="rgb(255,255,170)"/>
<text x="208.4375" y="345.0" font-family="courier" font-size="16" fill="rgb(0,0,0)">8</text>
<line x1="228.4375" y1="300.0" x2="243.4375" y2="340.0" stroke="rgb(255,0,0)" stroke-width="1.5"/>
<polygon points=" 236,328 250,328 250,352 236,352" fill="rgb(255,255,170)"/>
<text x="238.4375" y="345.0" font-family="courier" font-size="16" fill="rgb(0,0,0)">9</text>
<polygon points=" 216,288 240,288 240,312 216,312" fill="rgb(255,255,170)"/>
<text x="218.4375" y="305.0" font-family="courier" font-size="16" fill="rgb(0,0,0)">[]</text>
<polygon points=" 191,248 205,248 205,272 191,272" fill="rgb(255,255,170)"/>
<text x="193.4375" y="265.0" font-family="courier" font-size="16" fill="rgb(0,0,0)">$</text>
<polygon points=" 143,208 157,208 157,232 143,232" fill="rgb(255,255,170)"/>
<text x="144.6875" y="225.0" font-family="courier" font-size="16" fill="rgb(0,0,0)">:</text>
<polygon points=" 100,168 114,168 114,192 100,192" fill="rgb(255,255,170)"/>
<text x="101.5625" y="185.0" font-family="courier" font-size="16" fill="rgb(0,0,0)">:</text>
<polygon points=" 78,128 92,128 92,152 78,152" fill="rgb(255,255,170)"/>
<text x="80.0" y="145.0" font-family="courier" font-size="16" fill="rgb(0,0,0)">:</text>
<polygon points=" 63,88 77,88 77,112 63,112" fill="rgb(255,255,170)"/>
<text x="65.0" y="105.0" font-family="courier" font-size="16" fill="rgb(0,0,0)">:</text>
<polygon points=" 48,48 62,48 62,72 48,72" fill="rgb(255,255,170)"/>
<text x="50.0" y="65.0" font-family="courier" font-size="16" fill="rgb(0,0,0)">:</text>
<polygon points=" 33,8 47,8 47,32 33,32" fill="rgb(255,255,170)"/>
<text x="35.0" y="25.0" font-family="courier" font-size="16" fill="rgb(0,0,0)">:</text></svg>