<svg xmlns="http://www.w3.org/2000/svg"
xmlns:xlink="http://www.w3.org/1999/xlink"
version="1.1" baseProfile="full"
width="241" height="400">
<line x1="40.0" y1="20.0" x2="25.0" y2="60.0" stroke="rgb(255,0,0)" stroke-width="1.5"/>
<polygon points=" 18,48 32,48 32,72 18,72" fill="rgb(255,255,170)"/>
<text x="20.0" y="65.0" font-family="courier" font-size="16" fill="rgb(0,0,0)">5</text>
<line x1="40.0" y1="20.0" x2="55.0" y2="60.0" stroke="rgb(255,0,0)" stroke-width="1.5"/>
<line x1="55.0" y1="60.0" x2="40.0" y2="100.0" stroke="rgb(255,0,0)" stroke-width="1.5"/>
<polygon points=" 33,88 47,88 47,112 33,112" fill="rgb(255,255,170)"/>
<text x="35.0" y="105.0" font-family="courier" font-size="16" fill="rgb(0,0,0)">6</text>
<line x1="55.0" y1="60.0" x2="70.0" y2="100.0" stroke="rgb(255,0,0)" stroke-width="1.5"/>
<line x1="70.0" y1="100.0" x2="55.0" y2="140.0" stroke="rgb(255,0,0)" stroke-width="1.5"/>
<polygon points=" 48,128 62,128 62,152 48,152" fill="rgb(255,255,170)"/>
<text x="50.0" y="145.0" font-family="courier" font-size="16" fill="rgb(0,0,0)">7</text>
<line x1="70.0" y1="100.0" x2="85.0" y2="140.0" stroke="rgb(255,0,0)" stroke-width="1.5"/>
<line x1="85.0" y1="140.0" x2="70.0" y2="180.0" stroke="rgb(255,0,0)" stroke-width="1.5"/>
<polygon points=" 63,168 77,168 77,192 63,192" fill="rgb(255,255,170)"/>
<text x="65.0" y="185.0" font-family="courier" font-size="16" fill="rgb(0,0,0)">8</text>
<line x1="85.0" y1="140.0" x2="100.0" y2="180.0" stroke="rgb(255,0,0)" stroke-width="1.5"/>
<line x1="100.0" y1="180.0" x2="71.25" y2="220.0" stroke="rgb(255,0,0)" stroke-width="1.5"/>
<polygon points=" 64,208 78,208 78,232 64,232" fill="rgb(255,255,170)"/>
<text x="66.25" y="225.0" font-family="courier" font-size="16" fill="rgb(0,0,0)">9</text>
<line x1="100.0" y1="180.0" x2="128.75" y2="220.0" stroke="rgb(255,0,0)" stroke-width="1.5"/>
<line x1="128.75" y1="220.0" x2="86.25" y2="260.0" stroke="rgb(255,0,0)" stroke-width="1.5"/>
<line x1="86.25" y1="260.0" x2="71.25" y2="300.0" stroke="rgb(255,0,0)" stroke-width="1.5"/>
<polygon points=" 64,288 78,288 78,312 64,312" fill="rgb(170,255,170)"/>
<text x="66.25" y="305.0" font-family="courier" font-size="16" fill="rgb(0,0,0)">7</text>
<line x1="86.25" y1="260.0" x2="101.25" y2="300.0" stroke="rgb(255,0,0)" stroke-width="1.5"/>
<polygon points=" 94,288 108,288 108,312 94,312" fill="rgb(170,255,170)"/>
<text x="96.25" y="305.0" font-family="courier" font-size="16" fill="rgb(0,0,0)">3</text>
<polygon points=" 79,248 93,248 93,272 79,272" fill="rgb(170,255,170)"/>
<text x="81.25" y="265.0" font-family="courier" font-size="16" fill="rgb(0,0,0)">+</text>
<line x1="128.75" y1="220.0" x2="171.25" y2="260.0" stroke="rgb(255,0,0)" stroke-width="1.5"/>
<line x1="171.25" y1="260.0" x2="141.25" y2="300.0" stroke="rgb(255,0,0)" stroke-width="1.5"/>
<line x1="141.25" y1="300.0" x2="141.25" y2="340.0" stroke="rgb(255,0,0)" stroke-width="1.5"/>
<line x1="141.25" y1="340.0" x2="126.25" y2="380.0" stroke="rgb(255,0,0)" stroke-width="1.5"/>
<polygon points=" 119,368 133,368 133,392 119,392" fill="rgb(255,255,170)"/>
<text x="121.25" y="385.0" font-family="courier" font-size="16" fill="rgb(0,0,0)">+</text>
<line x1="141.25" y1="340.0" x2="156.25" y2="380.0" stroke="rgb(255,0,0)" stroke-width="1.5"/>
<polygon points=" 149,368 163,368 163,392 149,392" fill="rgb(255,255,170)"/>
<text x="151.25" y="385.0" font-family="courier" font-size="16" fill="rgb(0,0,0)">3</text>
<polygon points=" 119,328 163,328 163,352 119,352" fill="rgb(255,255,170)"/>
<text x="121.25" y="345.0" font-family="courier" font-size="16" fill="rgb(0,0,0)">rsec</text>
<polygon points=" 124,288 158,288 158,312 124,312" fill="rgb(255,255,170)"/>
<text x="126.25" y="305.0" font-family="courier" font-size="16" fill="rgb(0,0,0)">map</text>
<line x1="171.25" y1="260.0" x2="201.25" y2="300.0" stroke="rgb(255,0,0)" stroke-width="1.5"/>
<line x1="201.25" y1="300.0" x2="186.25" y2="340.0" stroke="rgb(255,0,0)" stroke-width="1.5"/>
<polygon points=" 179,328 193,328 193,352 179,352" fill="rgb(255,255,170)"/>
<text x="181.25" y="345.0" font-family="courier" font-size="16" fill="rgb(0,0,0)">8</text>
<line x1="201.25" y1="300.0" x2="216.25" y2="340.0" stroke="rgb(255,0,0)" stroke-width="1.5"/>
<polygon points=" 209,328 223,328 223,352 209,352" fill="rgb(255,255,170)"/>
<text x="211.25" y="345.0" font-family="courier" font-size="16" fill="rgb(0,0,0)">9</text>
<polygon points=" 189,288 213,288 213,312 189,312" fill="rgb(255,255,170)"/>
<text x="191.25" y="305.0" font-family="courier" font-size="16" fill="rgb(0,0,0)">[]</text>
<polygon points=" 164,248 178,248 178,272 164,272" fill="rgb(255,255,170)"/>
<text x="166.25" y="265.0" font-family="courier" font-size="16" fill="rgb(0,0,0)">$</text>
<polygon points=" 122,208 136,208 136,232 122,232" fill="rgb(255,255,170)"/>
<text x="123.75" y="225.0" font-family="courier" font-size="16" fill="rgb(0,0,0)">:</text>
<polygon points=" 93,168 107,168 107,192 93,192" fill="rgb(255,255,170)"/>
<text x="95.0" y="185.0" font-family="courier" font-size="16" fill="rgb(0,0,0)">:</text>
<polygon points=" 78,128 92,128 92,152 78,152" fill="rgb(255,255,170)"/>
<text x="80.0" y="145.0" font-family="courier" font-size="16" fill="rgb(0,0,0)">:</text>
<polygon points=" 63,88 77,88 77,112 63,112" fill="rgb(255,255,170)"/>
<text x="65.0" y="105.0" font-family="courier" font-size="16" fill="rgb(0,0,0)">:</text>
<polygon points=" 48,48 62,48 62,72 48,72" fill="rgb(255,255,170)"/>
<text x="50.0" y="65.0" font-family="courier" font-size="16" fill="rgb(0,0,0)">:</text>
<polygon points=" 33,8 47,8 47,32 33,32" fill="rgb(255,255,170)"/>
<text x="35.0" y="25.0" font-family="courier" font-size="16" fill="rgb(0,0,0)">:</text></svg>