<svg xmlns="http://www.w3.org/2000/svg"
xmlns:xlink="http://www.w3.org/1999/xlink"
version="1.1" baseProfile="full"
width="205" height="400">
<line x1="40.0" y1="20.0" x2="25.0" y2="60.0" stroke="rgb(255,0,0)" stroke-width="1.5"/>
<polygon points=" 18,48 32,48 32,72 18,72" fill="rgb(255,255,170)"/>
<text x="20.0" y="65.0" font-family="courier" font-size="16" fill="rgb(0,0,0)">5</text>
<line x1="40.0" y1="20.0" x2="55.0" y2="60.0" stroke="rgb(255,0,0)" stroke-width="1.5"/>
<line x1="55.0" y1="60.0" x2="40.0" y2="100.0" stroke="rgb(255,0,0)" stroke-width="1.5"/>
<polygon points=" 33,88 47,88 47,112 33,112" fill="rgb(255,255,170)"/>
<text x="35.0" y="105.0" font-family="courier" font-size="16" fill="rgb(0,0,0)">6</text>
<line x1="55.0" y1="60.0" x2="70.0" y2="100.0" stroke="rgb(255,0,0)" stroke-width="1.5"/>
<line x1="70.0" y1="100.0" x2="55.0" y2="140.0" stroke="rgb(255,0,0)" stroke-width="1.5"/>
<polygon points=" 48,128 62,128 62,152 48,152" fill="rgb(255,255,170)"/>
<text x="50.0" y="145.0" font-family="courier" font-size="16" fill="rgb(0,0,0)">7</text>
<line x1="70.0" y1="100.0" x2="85.0" y2="140.0" stroke="rgb(255,0,0)" stroke-width="1.5"/>
<line x1="85.0" y1="140.0" x2="70.0" y2="180.0" stroke="rgb(255,0,0)" stroke-width="1.5"/>
<polygon points=" 63,168 77,168 77,192 63,192" fill="rgb(255,255,170)"/>
<text x="65.0" y="185.0" font-family="courier" font-size="16" fill="rgb(0,0,0)">8</text>
<line x1="85.0" y1="140.0" x2="100.0" y2="180.0" stroke="rgb(255,0,0)" stroke-width="1.5"/>
<line x1="100.0" y1="180.0" x2="85.0" y2="220.0" stroke="rgb(255,0,0)" stroke-width="1.5"/>
<polygon points=" 78,208 92,208 92,232 78,232" fill="rgb(255,255,170)"/>
<text x="80.0" y="225.0" font-family="courier" font-size="16" fill="rgb(0,0,0)">9</text>
<line x1="100.0" y1="180.0" x2="115.0" y2="220.0" stroke="rgb(255,0,0)" stroke-width="1.5"/>
<line x1="115.0" y1="220.0" x2="95.0" y2="260.0" stroke="rgb(255,0,0)" stroke-width="1.5"/>
<polygon points=" 83,248 107,248 107,272 83,272" fill="rgb(170,255,170)"/>
<text x="85.0" y="265.0" font-family="courier" font-size="16" fill="rgb(0,0,0)">10</text>
<line x1="115.0" y1="220.0" x2="135.0" y2="260.0" stroke="rgb(255,0,0)" stroke-width="1.5"/>
<line x1="135.0" y1="260.0" x2="105.0" y2="300.0" stroke="rgb(255,0,0)" stroke-width="1.5"/>
<line x1="105.0" y1="300.0" x2="105.0" y2="340.0" stroke="rgb(255,0,0)" stroke-width="1.5"/>
<line x1="105.0" y1="340.0" x2="90.0" y2="380.0" stroke="rgb(255,0,0)" stroke-width="1.5"/>
<polygon points=" 83,368 97,368 97,392 83,392" fill="rgb(255,255,170)"/>
<text x="85.0" y="385.0" font-family="courier" font-size="16" fill="rgb(0,0,0)">+</text>
<line x1="105.0" y1="340.0" x2="120.0" y2="380.0" stroke="rgb(255,0,0)" stroke-width="1.5"/>
<polygon points=" 113,368 127,368 127,392 113,392" fill="rgb(255,255,170)"/>
<text x="115.0" y="385.0" font-family="courier" font-size="16" fill="rgb(0,0,0)">3</text>
<polygon points=" 83,328 127,328 127,352 83,352" fill="rgb(255,255,170)"/>
<text x="85.0" y="345.0" font-family="courier" font-size="16" fill="rgb(0,0,0)">rsec</text>
<polygon points=" 88,288 122,288 122,312 88,312" fill="rgb(255,255,170)"/>
<text x="90.0" y="305.0" font-family="courier" font-size="16" fill="rgb(0,0,0)">map</text>
<line x1="135.0" y1="260.0" x2="165.0" y2="300.0" stroke="rgb(255,0,0)" stroke-width="1.5"/>
<line x1="165.0" y1="300.0" x2="150.0" y2="340.0" stroke="rgb(255,0,0)" stroke-width="1.5"/>
<polygon points=" 143,328 157,328 157,352 143,352" fill="rgb(255,255,170)"/>
<text x="145.0" y="345.0" font-family="courier" font-size="16" fill="rgb(0,0,0)">8</text>
<line x1="165.0" y1="300.0" x2="180.0" y2="340.0" stroke="rgb(255,0,0)" stroke-width="1.5"/>
<polygon points=" 173,328 187,328 187,352 173,352" fill="rgb(255,255,170)"/>
<text x="175.0" y="345.0" font-family="courier" font-size="16" fill="rgb(0,0,0)">9</text>
<polygon points=" 153,288 177,288 177,312 153,312" fill="rgb(255,255,170)"/>
<text x="155.0" y="305.0" font-family="courier" font-size="16" fill="rgb(0,0,0)">[]</text>
<polygon points=" 128,248 142,248 142,272 128,272" fill="rgb(255,255,170)"/>
<text x="130.0" y="265.0" font-family="courier" font-size="16" fill="rgb(0,0,0)">$</text>
<polygon points=" 108,208 122,208 122,232 108,232" fill="rgb(255,255,170)"/>
<text x="110.0" y="225.0" font-family="courier" font-size="16" fill="rgb(0,0,0)">:</text>
<polygon points=" 93,168 107,168 107,192 93,192" fill="rgb(255,255,170)"/>
<text x="95.0" y="185.0" font-family="courier" font-size="16" fill="rgb(0,0,0)">:</text>
<polygon points=" 78,128 92,128 92,152 78,152" fill="rgb(255,255,170)"/>
<text x="80.0" y="145.0" font-family="courier" font-size="16" fill="rgb(0,0,0)">:</text>
<polygon points=" 63,88 77,88 77,112 63,112" fill="rgb(255,255,170)"/>
<text x="65.0" y="105.0" font-family="courier" font-size="16" fill="rgb(0,0,0)">:</text>
<polygon points=" 48,48 62,48 62,72 48,72" fill="rgb(255,255,170)"/>
<text x="50.0" y="65.0" font-family="courier" font-size="16" fill="rgb(0,0,0)">:</text>
<polygon points=" 33,8 47,8 47,32 33,32" fill="rgb(255,255,170)"/>
<text x="35.0" y="25.0" font-family="courier" font-size="16" fill="rgb(0,0,0)">:</text></svg>