<svg xmlns="http://www.w3.org/2000/svg"
xmlns:xlink="http://www.w3.org/1999/xlink"
version="1.1" baseProfile="full"
width="263" height="440">
<line x1="40.0" y1="20.0" x2="25.0" y2="60.0" stroke="rgb(255,0,0)" stroke-width="1.5"/>
<polygon points=" 18,48 32,48 32,72 18,72" fill="rgb(255,255,170)"/>
<text x="20.0" y="65.0" font-family="courier" font-size="16" fill="rgb(0,0,0)">5</text>
<line x1="40.0" y1="20.0" x2="55.0" y2="60.0" stroke="rgb(255,0,0)" stroke-width="1.5"/>
<line x1="55.0" y1="60.0" x2="40.0" y2="100.0" stroke="rgb(255,0,0)" stroke-width="1.5"/>
<polygon points=" 33,88 47,88 47,112 33,112" fill="rgb(255,255,170)"/>
<text x="35.0" y="105.0" font-family="courier" font-size="16" fill="rgb(0,0,0)">6</text>
<line x1="55.0" y1="60.0" x2="70.0" y2="100.0" stroke="rgb(255,0,0)" stroke-width="1.5"/>
<line x1="70.0" y1="100.0" x2="55.0" y2="140.0" stroke="rgb(255,0,0)" stroke-width="1.5"/>
<polygon points=" 48,128 62,128 62,152 48,152" fill="rgb(255,255,170)"/>
<text x="50.0" y="145.0" font-family="courier" font-size="16" fill="rgb(0,0,0)">7</text>
<line x1="70.0" y1="100.0" x2="85.0" y2="140.0" stroke="rgb(255,0,0)" stroke-width="1.5"/>
<line x1="85.0" y1="140.0" x2="70.0" y2="180.0" stroke="rgb(255,0,0)" stroke-width="1.5"/>
<polygon points=" 63,168 77,168 77,192 63,192" fill="rgb(255,255,170)"/>
<text x="65.0" y="185.0" font-family="courier" font-size="16" fill="rgb(0,0,0)">8</text>
<line x1="85.0" y1="140.0" x2="100.0" y2="180.0" stroke="rgb(255,0,0)" stroke-width="1.5"/>
<line x1="100.0" y1="180.0" x2="77.8125" y2="220.0" stroke="rgb(255,0,0)" stroke-width="1.5"/>
<polygon points=" 71,208 85,208 85,232 71,232" fill="rgb(255,255,170)"/>
<text x="72.8125" y="225.0" font-family="courier" font-size="16" fill="rgb(0,0,0)">9</text>
<line x1="100.0" y1="180.0" x2="122.1875" y2="220.0" stroke="rgb(255,0,0)" stroke-width="1.5"/>
<line x1="122.1875" y1="220.0" x2="82.8125" y2="260.0" stroke="rgb(255,0,0)" stroke-width="1.5"/>
<polygon points=" 71,248 95,248 95,272 71,272" fill="rgb(255,255,170)"/>
<text x="72.8125" y="265.0" font-family="courier" font-size="16" fill="rgb(0,0,0)">10</text>
<line x1="122.1875" y1="220.0" x2="161.5625" y2="260.0" stroke="rgb(255,0,0)" stroke-width="1.5"/>
<line x1="161.5625" y1="260.0" x2="115.3125" y2="300.0" stroke="rgb(255,0,0)" stroke-width="1.5"/>
<line x1="115.3125" y1="300.0" x2="92.8125" y2="340.0" stroke="rgb(255,0,0)" stroke-width="1.5"/>
<line x1="92.8125" y1="340.0" x2="77.8125" y2="380.0" stroke="rgb(255,0,0)" stroke-width="1.5"/>
<polygon points=" 71,368 85,368 85,392 71,392" fill="rgb(170,255,170)"/>
<text x="72.8125" y="385.0" font-family="courier" font-size="16" fill="rgb(0,0,0)">+</text>
<line x1="92.8125" y1="340.0" x2="107.8125" y2="380.0" stroke="rgb(255,0,0)" stroke-width="1.5"/>
<polygon points=" 101,368 115,368 115,392 101,392" fill="rgb(170,255,170)"/>
<text x="102.8125" y="385.0" font-family="courier" font-size="16" fill="rgb(0,0,0)">3</text>
<polygon points=" 71,328 115,328 115,352 71,352" fill="rgb(170,255,170)"/>
<text x="72.8125" y="345.0" font-family="courier" font-size="16" fill="rgb(0,0,0)">rsec</text>
<line x1="115.3125" y1="300.0" x2="137.8125" y2="340.0" stroke="rgb(255,0,0)" stroke-width="1.5"/>
<polygon points=" 131,328 145,328 145,352 131,352" fill="rgb(170,255,170)"/>
<text x="132.8125" y="345.0" font-family="courier" font-size="16" fill="rgb(0,0,0)">8</text>
<polygon points=" 108,288 122,288 122,312 108,312" fill="rgb(170,255,170)"/>
<text x="110.3125" y="305.0" font-family="courier" font-size="16" fill="rgb(0,0,0)">$</text>
<line x1="161.5625" y1="260.0" x2="207.8125" y2="300.0" stroke="rgb(255,0,0)" stroke-width="1.5"/>
<line x1="207.8125" y1="300.0" x2="182.8125" y2="340.0" stroke="rgb(255,0,0)" stroke-width="1.5"/>
<line x1="182.8125" y1="340.0" x2="182.8125" y2="380.0" stroke="rgb(255,0,0)" stroke-width="1.5"/>
<line x1="182.8125" y1="380.0" x2="167.8125" y2="420.0" stroke="rgb(255,0,0)" stroke-width="1.5"/>
<polygon points=" 161,408 175,408 175,432 161,432" fill="rgb(170,255,170)"/>
<text x="162.8125" y="425.0" font-family="courier" font-size="16" fill="rgb(0,0,0)">+</text>
<line x1="182.8125" y1="380.0" x2="197.8125" y2="420.0" stroke="rgb(255,0,0)" stroke-width="1.5"/>
<polygon points=" 191,408 205,408 205,432 191,432" fill="rgb(170,255,170)"/>
<text x="192.8125" y="425.0" font-family="courier" font-size="16" fill="rgb(0,0,0)">3</text>
<polygon points=" 161,368 205,368 205,392 161,392" fill="rgb(170,255,170)"/>
<text x="162.8125" y="385.0" font-family="courier" font-size="16" fill="rgb(0,0,0)">rsec</text>
<polygon points=" 166,328 200,328 200,352 166,352" fill="rgb(170,255,170)"/>
<text x="167.8125" y="345.0" font-family="courier" font-size="16" fill="rgb(0,0,0)">map</text>
<line x1="207.8125" y1="300.0" x2="232.8125" y2="340.0" stroke="rgb(255,0,0)" stroke-width="1.5"/>
<line x1="232.8125" y1="340.0" x2="232.8125" y2="380.0" stroke="rgb(255,0,0)" stroke-width="1.5"/>
<polygon points=" 226,368 240,368 240,392 226,392" fill="rgb(170,255,170)"/>
<text x="227.8125" y="385.0" font-family="courier" font-size="16" fill="rgb(0,0,0)">9</text>
<polygon points=" 221,328 245,328 245,352 221,352" fill="rgb(170,255,170)"/>
<text x="222.8125" y="345.0" font-family="courier" font-size="16" fill="rgb(0,0,0)">[]</text>
<polygon points=" 201,288 215,288 215,312 201,312" fill="rgb(170,255,170)"/>
<text x="202.8125" y="305.0" font-family="courier" font-size="16" fill="rgb(0,0,0)">$</text>
<polygon points=" 155,248 169,248 169,272 155,272" fill="rgb(170,255,170)"/>
<text x="156.5625" y="265.0" font-family="courier" font-size="16" fill="rgb(0,0,0)">:</text>
<polygon points=" 115,208 129,208 129,232 115,232" fill="rgb(255,255,170)"/>
<text x="117.1875" y="225.0" font-family="courier" font-size="16" fill="rgb(0,0,0)">:</text>
<polygon points=" 93,168 107,168 107,192 93,192" fill="rgb(255,255,170)"/>
<text x="95.0" y="185.0" font-family="courier" font-size="16" fill="rgb(0,0,0)">:</text>
<polygon points=" 78,128 92,128 92,152 78,152" fill="rgb(255,255,170)"/>
<text x="80.0" y="145.0" font-family="courier" font-size="16" fill="rgb(0,0,0)">:</text>
<polygon points=" 63,88 77,88 77,112 63,112" fill="rgb(255,255,170)"/>
<text x="65.0" y="105.0" font-family="courier" font-size="16" fill="rgb(0,0,0)">:</text>
<polygon points=" 48,48 62,48 62,72 48,72" fill="rgb(255,255,170)"/>
<text x="50.0" y="65.0" font-family="courier" font-size="16" fill="rgb(0,0,0)">:</text>
<polygon points=" 33,8 47,8 47,32 33,32" fill="rgb(255,255,170)"/>
<text x="35.0" y="25.0" font-family="courier" font-size="16" fill="rgb(0,0,0)">:</text></svg>