<svg xmlns="http://www.w3.org/2000/svg"
xmlns:xlink="http://www.w3.org/1999/xlink"
version="1.1" baseProfile="full"
width="271" height="480">
<line x1="40.0" y1="20.0" x2="25.0" y2="60.0" stroke="rgb(255,0,0)" stroke-width="1.5"/>
<polygon points=" 18,48 32,48 32,72 18,72" fill="rgb(255,255,170)"/>
<text x="20.0" y="65.0" font-family="courier" font-size="16" fill="rgb(0,0,0)">5</text>
<line x1="40.0" y1="20.0" x2="55.0" y2="60.0" stroke="rgb(255,0,0)" stroke-width="1.5"/>
<line x1="55.0" y1="60.0" x2="40.0" y2="100.0" stroke="rgb(255,0,0)" stroke-width="1.5"/>
<polygon points=" 33,88 47,88 47,112 33,112" fill="rgb(255,255,170)"/>
<text x="35.0" y="105.0" font-family="courier" font-size="16" fill="rgb(0,0,0)">6</text>
<line x1="55.0" y1="60.0" x2="70.0" y2="100.0" stroke="rgb(255,0,0)" stroke-width="1.5"/>
<line x1="70.0" y1="100.0" x2="55.0" y2="140.0" stroke="rgb(255,0,0)" stroke-width="1.5"/>
<polygon points=" 48,128 62,128 62,152 48,152" fill="rgb(255,255,170)"/>
<text x="50.0" y="145.0" font-family="courier" font-size="16" fill="rgb(0,0,0)">7</text>
<line x1="70.0" y1="100.0" x2="85.0" y2="140.0" stroke="rgb(255,0,0)" stroke-width="1.5"/>
<line x1="85.0" y1="140.0" x2="70.0" y2="180.0" stroke="rgb(255,0,0)" stroke-width="1.5"/>
<polygon points=" 63,168 77,168 77,192 63,192" fill="rgb(255,255,170)"/>
<text x="65.0" y="185.0" font-family="courier" font-size="16" fill="rgb(0,0,0)">8</text>
<line x1="85.0" y1="140.0" x2="100.0" y2="180.0" stroke="rgb(255,0,0)" stroke-width="1.5"/>
<line x1="100.0" y1="180.0" x2="85.0" y2="220.0" stroke="rgb(255,0,0)" stroke-width="1.5"/>
<polygon points=" 78,208 92,208 92,232 78,232" fill="rgb(255,255,170)"/>
<text x="80.0" y="225.0" font-family="courier" font-size="16" fill="rgb(0,0,0)">9</text>
<line x1="100.0" y1="180.0" x2="115.0" y2="220.0" stroke="rgb(255,0,0)" stroke-width="1.5"/>
<line x1="115.0" y1="220.0" x2="95.625" y2="260.0" stroke="rgb(255,0,0)" stroke-width="1.5"/>
<polygon points=" 84,248 108,248 108,272 84,272" fill="rgb(255,255,170)"/>
<text x="85.625" y="265.0" font-family="courier" font-size="16" fill="rgb(0,0,0)">10</text>
<line x1="115.0" y1="220.0" x2="134.375" y2="260.0" stroke="rgb(255,0,0)" stroke-width="1.5"/>
<line x1="134.375" y1="260.0" x2="95.625" y2="300.0" stroke="rgb(255,0,0)" stroke-width="1.5"/>
<polygon points=" 84,288 108,288 108,312 84,312" fill="rgb(255,255,170)"/>
<text x="85.625" y="305.0" font-family="courier" font-size="16" fill="rgb(0,0,0)">11</text>
<line x1="134.375" y1="260.0" x2="173.125" y2="300.0" stroke="rgb(255,0,0)" stroke-width="1.5"/>
<line x1="173.125" y1="300.0" x2="128.125" y2="340.0" stroke="rgb(255,0,0)" stroke-width="1.5"/>
<line x1="128.125" y1="340.0" x2="105.625" y2="380.0" stroke="rgb(255,0,0)" stroke-width="1.5"/>
<line x1="105.625" y1="380.0" x2="90.625" y2="420.0" stroke="rgb(255,0,0)" stroke-width="1.5"/>
<polygon points=" 84,408 98,408 98,432 84,432" fill="rgb(255,170,170)"/>
<text x="85.625" y="425.0" font-family="courier" font-size="16" fill="rgb(0,0,0)">+</text>
<line x1="105.625" y1="380.0" x2="120.625" y2="420.0" stroke="rgb(255,0,0)" stroke-width="1.5"/>
<polygon points=" 114,408 128,408 128,432 114,432" fill="rgb(255,170,170)"/>
<text x="115.625" y="425.0" font-family="courier" font-size="16" fill="rgb(0,0,0)">3</text>
<polygon points=" 84,368 128,368 128,392 84,392" fill="rgb(255,170,170)"/>
<text x="85.625" y="385.0" font-family="courier" font-size="16" fill="rgb(0,0,0)">rsec</text>
<line x1="128.125" y1="340.0" x2="150.625" y2="380.0" stroke="rgb(255,0,0)" stroke-width="1.5"/>
<polygon points=" 144,368 158,368 158,392 144,392" fill="rgb(255,170,170)"/>
<text x="145.625" y="385.0" font-family="courier" font-size="16" fill="rgb(0,0,0)">9</text>
<polygon points=" 121,328 135,328 135,352 121,352" fill="rgb(255,170,170)"/>
<text x="123.125" y="345.0" font-family="courier" font-size="16" fill="rgb(0,0,0)">$</text>
<line x1="173.125" y1="300.0" x2="218.125" y2="340.0" stroke="rgb(255,0,0)" stroke-width="1.5"/>
<line x1="218.125" y1="340.0" x2="195.625" y2="380.0" stroke="rgb(255,0,0)" stroke-width="1.5"/>
<line x1="195.625" y1="380.0" x2="195.625" y2="420.0" stroke="rgb(255,0,0)" stroke-width="1.5"/>
<line x1="195.625" y1="420.0" x2="180.625" y2="460.0" stroke="rgb(255,0,0)" stroke-width="1.5"/>
<polygon points=" 174,448 188,448 188,472 174,472" fill="rgb(255,255,170)"/>
<text x="175.625" y="465.0" font-family="courier" font-size="16" fill="rgb(0,0,0)">+</text>
<line x1="195.625" y1="420.0" x2="210.625" y2="460.0" stroke="rgb(255,0,0)" stroke-width="1.5"/>
<polygon points=" 204,448 218,448 218,472 204,472" fill="rgb(255,255,170)"/>
<text x="205.625" y="465.0" font-family="courier" font-size="16" fill="rgb(0,0,0)">3</text>
<polygon points=" 174,408 218,408 218,432 174,432" fill="rgb(255,255,170)"/>
<text x="175.625" y="425.0" font-family="courier" font-size="16" fill="rgb(0,0,0)">rsec</text>
<polygon points=" 179,368 213,368 213,392 179,392" fill="rgb(255,255,170)"/>
<text x="180.625" y="385.0" font-family="courier" font-size="16" fill="rgb(0,0,0)">map</text>
<line x1="218.125" y1="340.0" x2="240.625" y2="380.0" stroke="rgb(255,0,0)" stroke-width="1.5"/>
<polygon points=" 229,368 253,368 253,392 229,392" fill="rgb(255,255,170)"/>
<text x="230.625" y="385.0" font-family="courier" font-size="16" fill="rgb(0,0,0)">[]</text>
<polygon points=" 211,328 225,328 225,352 211,352" fill="rgb(255,255,170)"/>
<text x="213.125" y="345.0" font-family="courier" font-size="16" fill="rgb(0,0,0)">$</text>
<polygon points=" 166,288 180,288 180,312 166,312" fill="rgb(255,255,170)"/>
<text x="168.125" y="305.0" font-family="courier" font-size="16" fill="rgb(0,0,0)">:</text>
<polygon points=" 127,248 141,248 141,272 127,272" fill="rgb(255,255,170)"/>
<text x="129.375" y="265.0" font-family="courier" font-size="16" fill="rgb(0,0,0)">:</text>
<polygon points=" 108,208 122,208 122,232 108,232" fill="rgb(255,255,170)"/>
<text x="110.0" y="225.0" font-family="courier" font-size="16" fill="rgb(0,0,0)">:</text>
<polygon points=" 93,168 107,168 107,192 93,192" fill="rgb(255,255,170)"/>
<text x="95.0" y="185.0" font-family="courier" font-size="16" fill="rgb(0,0,0)">:</text>
<polygon points=" 78,128 92,128 92,152 78,152" fill="rgb(255,255,170)"/>
<text x="80.0" y="145.0" font-family="courier" font-size="16" fill="rgb(0,0,0)">:</text>
<polygon points=" 63,88 77,88 77,112 63,112" fill="rgb(255,255,170)"/>
<text x="65.0" y="105.0" font-family="courier" font-size="16" fill="rgb(0,0,0)">:</text>
<polygon points=" 48,48 62,48 62,72 48,72" fill="rgb(255,255,170)"/>
<text x="50.0" y="65.0" font-family="courier" font-size="16" fill="rgb(0,0,0)">:</text>
<polygon points=" 33,8 47,8 47,32 33,32" fill="rgb(255,255,170)"/>
<text x="35.0" y="25.0" font-family="courier" font-size="16" fill="rgb(0,0,0)">:</text></svg>