<svg xmlns="http://www.w3.org/2000/svg"
xmlns:xlink="http://www.w3.org/1999/xlink"
version="1.1" baseProfile="full"
width="248" height="480">
<line x1="40.0" y1="20.0" x2="25.0" y2="60.0" stroke="rgb(255,0,0)" stroke-width="1.5"/>
<polygon points=" 18,48 32,48 32,72 18,72" fill="rgb(255,255,170)"/>
<text x="20.0" y="65.0" font-family="courier" font-size="16" fill="rgb(0,0,0)">5</text>
<line x1="40.0" y1="20.0" x2="55.0" y2="60.0" stroke="rgb(255,0,0)" stroke-width="1.5"/>
<line x1="55.0" y1="60.0" x2="40.0" y2="100.0" stroke="rgb(255,0,0)" stroke-width="1.5"/>
<polygon points=" 33,88 47,88 47,112 33,112" fill="rgb(255,255,170)"/>
<text x="35.0" y="105.0" font-family="courier" font-size="16" fill="rgb(0,0,0)">6</text>
<line x1="55.0" y1="60.0" x2="70.0" y2="100.0" stroke="rgb(255,0,0)" stroke-width="1.5"/>
<line x1="70.0" y1="100.0" x2="55.0" y2="140.0" stroke="rgb(255,0,0)" stroke-width="1.5"/>
<polygon points=" 48,128 62,128 62,152 48,152" fill="rgb(255,255,170)"/>
<text x="50.0" y="145.0" font-family="courier" font-size="16" fill="rgb(0,0,0)">7</text>
<line x1="70.0" y1="100.0" x2="85.0" y2="140.0" stroke="rgb(255,0,0)" stroke-width="1.5"/>
<line x1="85.0" y1="140.0" x2="70.0" y2="180.0" stroke="rgb(255,0,0)" stroke-width="1.5"/>
<polygon points=" 63,168 77,168 77,192 63,192" fill="rgb(255,255,170)"/>
<text x="65.0" y="185.0" font-family="courier" font-size="16" fill="rgb(0,0,0)">8</text>
<line x1="85.0" y1="140.0" x2="100.0" y2="180.0" stroke="rgb(255,0,0)" stroke-width="1.5"/>
<line x1="100.0" y1="180.0" x2="85.0" y2="220.0" stroke="rgb(255,0,0)" stroke-width="1.5"/>
<polygon points=" 78,208 92,208 92,232 78,232" fill="rgb(255,255,170)"/>
<text x="80.0" y="225.0" font-family="courier" font-size="16" fill="rgb(0,0,0)">9</text>
<line x1="100.0" y1="180.0" x2="115.0" y2="220.0" stroke="rgb(255,0,0)" stroke-width="1.5"/>
<line x1="115.0" y1="220.0" x2="97.5" y2="260.0" stroke="rgb(255,0,0)" stroke-width="1.5"/>
<polygon points=" 86,248 110,248 110,272 86,272" fill="rgb(255,255,170)"/>
<text x="87.5" y="265.0" font-family="courier" font-size="16" fill="rgb(0,0,0)">10</text>
<line x1="115.0" y1="220.0" x2="132.5" y2="260.0" stroke="rgb(255,0,0)" stroke-width="1.5"/>
<line x1="132.5" y1="260.0" x2="108.125" y2="300.0" stroke="rgb(255,0,0)" stroke-width="1.5"/>
<polygon points=" 96,288 120,288 120,312 96,312" fill="rgb(255,255,170)"/>
<text x="98.125" y="305.0" font-family="courier" font-size="16" fill="rgb(0,0,0)">11</text>
<line x1="132.5" y1="260.0" x2="156.875" y2="300.0" stroke="rgb(255,0,0)" stroke-width="1.5"/>
<line x1="156.875" y1="300.0" x2="118.125" y2="340.0" stroke="rgb(255,0,0)" stroke-width="1.5"/>
<line x1="118.125" y1="340.0" x2="103.125" y2="380.0" stroke="rgb(255,0,0)" stroke-width="1.5"/>
<polygon points=" 96,368 110,368 110,392 96,392" fill="rgb(170,255,170)"/>
<text x="98.125" y="385.0" font-family="courier" font-size="16" fill="rgb(0,0,0)">9</text>
<line x1="118.125" y1="340.0" x2="133.125" y2="380.0" stroke="rgb(255,0,0)" stroke-width="1.5"/>
<polygon points=" 126,368 140,368 140,392 126,392" fill="rgb(170,255,170)"/>
<text x="128.125" y="385.0" font-family="courier" font-size="16" fill="rgb(0,0,0)">3</text>
<polygon points=" 111,328 125,328 125,352 111,352" fill="rgb(170,255,170)"/>
<text x="113.125" y="345.0" font-family="courier" font-size="16" fill="rgb(0,0,0)">+</text>
<line x1="156.875" y1="300.0" x2="195.625" y2="340.0" stroke="rgb(255,0,0)" stroke-width="1.5"/>
<line x1="195.625" y1="340.0" x2="173.125" y2="380.0" stroke="rgb(255,0,0)" stroke-width="1.5"/>
<line x1="173.125" y1="380.0" x2="173.125" y2="420.0" stroke="rgb(255,0,0)" stroke-width="1.5"/>
<line x1="173.125" y1="420.0" x2="158.125" y2="460.0" stroke="rgb(255,0,0)" stroke-width="1.5"/>
<polygon points=" 151,448 165,448 165,472 151,472" fill="rgb(255,255,170)"/>
<text x="153.125" y="465.0" font-family="courier" font-size="16" fill="rgb(0,0,0)">+</text>
<line x1="173.125" y1="420.0" x2="188.125" y2="460.0" stroke="rgb(255,0,0)" stroke-width="1.5"/>
<polygon points=" 181,448 195,448 195,472 181,472" fill="rgb(255,255,170)"/>
<text x="183.125" y="465.0" font-family="courier" font-size="16" fill="rgb(0,0,0)">3</text>
<polygon points=" 151,408 195,408 195,432 151,432" fill="rgb(255,255,170)"/>
<text x="153.125" y="425.0" font-family="courier" font-size="16" fill="rgb(0,0,0)">rsec</text>
<polygon points=" 156,368 190,368 190,392 156,392" fill="rgb(255,255,170)"/>
<text x="158.125" y="385.0" font-family="courier" font-size="16" fill="rgb(0,0,0)">map</text>
<line x1="195.625" y1="340.0" x2="218.125" y2="380.0" stroke="rgb(255,0,0)" stroke-width="1.5"/>
<polygon points=" 206,368 230,368 230,392 206,392" fill="rgb(255,255,170)"/>
<text x="208.125" y="385.0" font-family="courier" font-size="16" fill="rgb(0,0,0)">[]</text>
<polygon points=" 189,328 203,328 203,352 189,352" fill="rgb(255,255,170)"/>
<text x="190.625" y="345.0" font-family="courier" font-size="16" fill="rgb(0,0,0)">$</text>
<polygon points=" 150,288 164,288 164,312 150,312" fill="rgb(255,255,170)"/>
<text x="151.875" y="305.0" font-family="courier" font-size="16" fill="rgb(0,0,0)">:</text>
<polygon points=" 126,248 140,248 140,272 126,272" fill="rgb(255,255,170)"/>
<text x="127.5" y="265.0" font-family="courier" font-size="16" fill="rgb(0,0,0)">:</text>
<polygon points=" 108,208 122,208 122,232 108,232" fill="rgb(255,255,170)"/>
<text x="110.0" y="225.0" font-family="courier" font-size="16" fill="rgb(0,0,0)">:</text>
<polygon points=" 93,168 107,168 107,192 93,192" fill="rgb(255,255,170)"/>
<text x="95.0" y="185.0" font-family="courier" font-size="16" fill="rgb(0,0,0)">:</text>
<polygon points=" 78,128 92,128 92,152 78,152" fill="rgb(255,255,170)"/>
<text x="80.0" y="145.0" font-family="courier" font-size="16" fill="rgb(0,0,0)">:</text>
<polygon points=" 63,88 77,88 77,112 63,112" fill="rgb(255,255,170)"/>
<text x="65.0" y="105.0" font-family="courier" font-size="16" fill="rgb(0,0,0)">:</text>
<polygon points=" 48,48 62,48 62,72 48,72" fill="rgb(255,255,170)"/>
<text x="50.0" y="65.0" font-family="courier" font-size="16" fill="rgb(0,0,0)">:</text>
<polygon points=" 33,8 47,8 47,32 33,32" fill="rgb(255,255,170)"/>
<text x="35.0" y="25.0" font-family="courier" font-size="16" fill="rgb(0,0,0)">:</text></svg>