<svg xmlns="http://www.w3.org/2000/svg"
xmlns:xlink="http://www.w3.org/1999/xlink"
version="1.1" baseProfile="full"
width="212" height="200">
<line x1="40.0" y1="20.0" x2="25.0" y2="60.0" stroke="rgb(255,0,0)" stroke-width="1.5"/>
<polygon points=" 18,48 32,48 32,72 18,72" fill="rgb(255,255,170)"/>
<text x="20.0" y="65.0" font-family="courier" font-size="16" fill="rgb(0,0,0)">5</text>
<line x1="40.0" y1="20.0" x2="55.0" y2="60.0" stroke="rgb(255,0,0)" stroke-width="1.5"/>
<line x1="55.0" y1="60.0" x2="36.875" y2="100.0" stroke="rgb(255,0,0)" stroke-width="1.5"/>
<polygon points=" 30,88 44,88 44,112 30,112" fill="rgb(255,255,170)"/>
<text x="31.875" y="105.0" font-family="courier" font-size="16" fill="rgb(0,0,0)">6</text>
<line x1="55.0" y1="60.0" x2="73.125" y2="100.0" stroke="rgb(255,0,0)" stroke-width="1.5"/>
<line x1="73.125" y1="100.0" x2="36.875" y2="140.0" stroke="rgb(255,0,0)" stroke-width="1.5"/>
<polygon points=" 30,128 44,128 44,152 30,152" fill="rgb(255,170,170)"/>
<text x="31.875" y="145.0" font-family="courier" font-size="16" fill="rgb(0,0,0)">7</text>
<line x1="73.125" y1="100.0" x2="109.375" y2="140.0" stroke="rgb(255,0,0)" stroke-width="1.5"/>
<line x1="109.375" y1="140.0" x2="36.875" y2="180.0" stroke="rgb(255,0,0)" stroke-width="1.5"/>
<polygon points=" 30,168 44,168 44,192 30,192" fill="rgb(255,170,170)"/>
<text x="31.875" y="185.0" font-family="courier" font-size="16" fill="rgb(0,0,0)">8</text>
<line x1="109.375" y1="140.0" x2="66.875" y2="180.0" stroke="rgb(255,0,0)" stroke-width="1.5"/>
<polygon points=" 60,168 74,168 74,192 60,192" fill="rgb(255,170,170)"/>
<text x="61.875" y="185.0" font-family="courier" font-size="16" fill="rgb(0,0,0)">9</text>
<line x1="109.375" y1="140.0" x2="101.875" y2="180.0" stroke="rgb(255,0,0)" stroke-width="1.5"/>
<polygon points=" 90,168 114,168 114,192 90,192" fill="rgb(255,170,170)"/>
<text x="91.875" y="185.0" font-family="courier" font-size="16" fill="rgb(0,0,0)">10</text>
<line x1="109.375" y1="140.0" x2="141.875" y2="180.0" stroke="rgb(255,0,0)" stroke-width="1.5"/>
<polygon points=" 130,168 154,168 154,192 130,192" fill="rgb(255,170,170)"/>
<text x="131.875" y="185.0" font-family="courier" font-size="16" fill="rgb(0,0,0)">11</text>
<line x1="109.375" y1="140.0" x2="181.875" y2="180.0" stroke="rgb(255,0,0)" stroke-width="1.5"/>
<polygon points=" 170,168 194,168 194,192 170,192" fill="rgb(255,170,170)"/>
<text x="171.875" y="185.0" font-family="courier" font-size="16" fill="rgb(0,0,0)">12</text>
<polygon points=" 97,128 121,128 121,152 97,152" fill="rgb(255,170,170)"/>
<text x="99.375" y="145.0" font-family="courier" font-size="16" fill="rgb(0,0,0)">[]</text>
<polygon points=" 66,88 80,88 80,112 66,112" fill="rgb(255,170,170)"/>
<text x="68.125" y="105.0" font-family="courier" font-size="16" fill="rgb(0,0,0)">:</text>
<polygon points=" 48,48 62,48 62,72 48,72" fill="rgb(255,255,170)"/>
<text x="50.0" y="65.0" font-family="courier" font-size="16" fill="rgb(0,0,0)">:</text>
<polygon points=" 33,8 47,8 47,32 33,32" fill="rgb(255,255,170)"/>
<text x="35.0" y="25.0" font-family="courier" font-size="16" fill="rgb(0,0,0)">:</text></svg>