<svg xmlns="http://www.w3.org/2000/svg"
xmlns:xlink="http://www.w3.org/1999/xlink"
version="1.1" baseProfile="full"
width="260" height="120">
<line x1="76.25" y1="20.0" x2="25.0" y2="60.0" stroke="rgb(255,0,0)" stroke-width="1.5"/>
<polygon points=" 18,48 32,48 32,72 18,72" fill="rgb(255,255,170)"/>
<text x="20.0" y="65.0" font-family="courier" font-size="16" fill="rgb(0,0,0)">5</text>
<line x1="76.25" y1="20.0" x2="127.5" y2="60.0" stroke="rgb(255,0,0)" stroke-width="1.5"/>
<line x1="127.5" y1="60.0" x2="25.0" y2="100.0" stroke="rgb(255,0,0)" stroke-width="1.5"/>
<polygon points=" 18,88 32,88 32,112 18,112" fill="rgb(170,255,170)"/>
<text x="20.0" y="105.0" font-family="courier" font-size="16" fill="rgb(0,0,0)">6</text>
<line x1="127.5" y1="60.0" x2="55.0" y2="100.0" stroke="rgb(255,0,0)" stroke-width="1.5"/>
<polygon points=" 48,88 62,88 62,112 48,112" fill="rgb(170,255,170)"/>
<text x="50.0" y="105.0" font-family="courier" font-size="16" fill="rgb(0,0,0)">7</text>
<line x1="127.5" y1="60.0" x2="85.0" y2="100.0" stroke="rgb(255,0,0)" stroke-width="1.5"/>
<polygon points=" 78,88 92,88 92,112 78,112" fill="rgb(170,255,170)"/>
<text x="80.0" y="105.0" font-family="courier" font-size="16" fill="rgb(0,0,0)">8</text>
<line x1="127.5" y1="60.0" x2="115.0" y2="100.0" stroke="rgb(255,0,0)" stroke-width="1.5"/>
<polygon points=" 108,88 122,88 122,112 108,112" fill="rgb(170,255,170)"/>
<text x="110.0" y="105.0" font-family="courier" font-size="16" fill="rgb(0,0,0)">9</text>
<line x1="127.5" y1="60.0" x2="150.0" y2="100.0" stroke="rgb(255,0,0)" stroke-width="1.5"/>
<polygon points=" 138,88 162,88 162,112 138,112" fill="rgb(170,255,170)"/>
<text x="140.0" y="105.0" font-family="courier" font-size="16" fill="rgb(0,0,0)">10</text>
<line x1="127.5" y1="60.0" x2="190.0" y2="100.0" stroke="rgb(255,0,0)" stroke-width="1.5"/>
<polygon points=" 178,88 202,88 202,112 178,112" fill="rgb(170,255,170)"/>
<text x="180.0" y="105.0" font-family="courier" font-size="16" fill="rgb(0,0,0)">11</text>
<line x1="127.5" y1="60.0" x2="230.0" y2="100.0" stroke="rgb(255,0,0)" stroke-width="1.5"/>
<polygon points=" 218,88 242,88 242,112 218,112" fill="rgb(170,255,170)"/>
<text x="220.0" y="105.0" font-family="courier" font-size="16" fill="rgb(0,0,0)">12</text>
<polygon points=" 116,48 140,48 140,72 116,72" fill="rgb(170,255,170)"/>
<text x="117.5" y="65.0" font-family="courier" font-size="16" fill="rgb(0,0,0)">[]</text>
<polygon points=" 69,8 83,8 83,32 69,32" fill="rgb(255,255,170)"/>
<text x="71.25" y="25.0" font-family="courier" font-size="16" fill="rgb(0,0,0)">:</text></svg>