<svg xmlns="http://www.w3.org/2000/svg"
xmlns:xlink="http://www.w3.org/1999/xlink"
version="1.1" baseProfile="full"
width="290" height="80">
<line x1="142.5" y1="20.0" x2="25.0" y2="60.0" stroke="rgb(255,0,0)" stroke-width="1.5"/>
<polygon points=" 18,48 32,48 32,72 18,72" fill="rgb(170,255,170)"/>
<text x="20.0" y="65.0" font-family="courier" font-size="16" fill="rgb(0,0,0)">5</text>
<line x1="142.5" y1="20.0" x2="55.0" y2="60.0" stroke="rgb(255,0,0)" stroke-width="1.5"/>
<polygon points=" 48,48 62,48 62,72 48,72" fill="rgb(170,255,170)"/>
<text x="50.0" y="65.0" font-family="courier" font-size="16" fill="rgb(0,0,0)">6</text>
<line x1="142.5" y1="20.0" x2="85.0" y2="60.0" stroke="rgb(255,0,0)" stroke-width="1.5"/>
<polygon points=" 78,48 92,48 92,72 78,72" fill="rgb(170,255,170)"/>
<text x="80.0" y="65.0" font-family="courier" font-size="16" fill="rgb(0,0,0)">7</text>
<line x1="142.5" y1="20.0" x2="115.0" y2="60.0" stroke="rgb(255,0,0)" stroke-width="1.5"/>
<polygon points=" 108,48 122,48 122,72 108,72" fill="rgb(170,255,170)"/>
<text x="110.0" y="65.0" font-family="courier" font-size="16" fill="rgb(0,0,0)">8</text>
<line x1="142.5" y1="20.0" x2="145.0" y2="60.0" stroke="rgb(255,0,0)" stroke-width="1.5"/>
<polygon points=" 138,48 152,48 152,72 138,72" fill="rgb(170,255,170)"/>
<text x="140.0" y="65.0" font-family="courier" font-size="16" fill="rgb(0,0,0)">9</text>
<line x1="142.5" y1="20.0" x2="180.0" y2="60.0" stroke="rgb(255,0,0)" stroke-width="1.5"/>
<polygon points=" 168,48 192,48 192,72 168,72" fill="rgb(170,255,170)"/>
<text x="170.0" y="65.0" font-family="courier" font-size="16" fill="rgb(0,0,0)">10</text>
<line x1="142.5" y1="20.0" x2="220.0" y2="60.0" stroke="rgb(255,0,0)" stroke-width="1.5"/>
<polygon points=" 208,48 232,48 232,72 208,72" fill="rgb(170,255,170)"/>
<text x="210.0" y="65.0" font-family="courier" font-size="16" fill="rgb(0,0,0)">11</text>
<line x1="142.5" y1="20.0" x2="260.0" y2="60.0" stroke="rgb(255,0,0)" stroke-width="1.5"/>
<polygon points=" 248,48 272,48 272,72 248,72" fill="rgb(170,255,170)"/>
<text x="250.0" y="65.0" font-family="courier" font-size="16" fill="rgb(0,0,0)">12</text>
<polygon points=" 130,8 154,8 154,32 130,32" fill="rgb(170,255,170)"/>
<text x="132.5" y="25.0" font-family="courier" font-size="16" fill="rgb(0,0,0)">[]</text></svg>