<svg xmlns="http://www.w3.org/2000/svg"
xmlns:xlink="http://www.w3.org/1999/xlink"
version="1.1" baseProfile="full"
width="140" height="200">
<line x1="68.75" y1="20.0" x2="35.0" y2="60.0" stroke="rgb(255,0,0)" stroke-width="1.5"/>
<line x1="35.0" y1="60.0" x2="25.0" y2="100.0" stroke="rgb(255,0,0)" stroke-width="1.5"/>
<polygon points=" 18,88 32,88 32,112 18,112" fill="rgb(170,255,170)"/>
<text x="20.0" y="105.0" font-family="courier" font-size="16" fill="rgb(0,0,0)">5</text>
<line x1="35.0" y1="60.0" x2="45.0" y2="100.0" stroke="rgb(255,0,0)" stroke-width="1.5"/>
<polygon points=" 38,88 52,88 52,112 38,112" fill="rgb(170,255,170)"/>
<text x="40.0" y="105.0" font-family="courier" font-size="16" fill="rgb(0,0,0)">1</text>
<polygon points=" 28,48 42,48 42,72 28,72" fill="rgb(170,255,170)"/>
<text x="30.0" y="65.0" font-family="courier" font-size="16" fill="rgb(0,0,0)">&gt;</text>
<line x1="68.75" y1="20.0" x2="82.5" y2="60.0" stroke="rgb(255,0,0)" stroke-width="1.5"/>
<line x1="82.5" y1="60.0" x2="65.0" y2="100.0" stroke="rgb(255,0,0)" stroke-width="1.5"/>
<polygon points=" 58,88 72,88 72,112 58,112" fill="rgb(170,255,170)"/>
<text x="60.0" y="105.0" font-family="courier" font-size="16" fill="rgb(0,0,0)">5</text>
<line x1="82.5" y1="60.0" x2="100.0" y2="100.0" stroke="rgb(255,0,0)" stroke-width="1.5"/>
<line x1="100.0" y1="100.0" x2="100.0" y2="140.0" stroke="rgb(255,0,0)" stroke-width="1.5"/>
<line x1="100.0" y1="140.0" x2="90.0" y2="180.0" stroke="rgb(255,0,0)" stroke-width="1.5"/>
<polygon points=" 83,168 97,168 97,192 83,192" fill="rgb(170,255,170)"/>
<text x="85.0" y="185.0" font-family="courier" font-size="16" fill="rgb(0,0,0)">5</text>
<line x1="100.0" y1="140.0" x2="110.0" y2="180.0" stroke="rgb(255,0,0)" stroke-width="1.5"/>
<polygon points=" 103,168 117,168 117,192 103,192" fill="rgb(170,255,170)"/>
<text x="105.0" y="185.0" font-family="courier" font-size="16" fill="rgb(0,0,0)">1</text>
<polygon points=" 93,128 107,128 107,152 93,152" fill="rgb(170,255,170)"/>
<text x="95.0" y="145.0" font-family="courier" font-size="16" fill="rgb(0,0,0)">-</text>
<polygon points=" 78,88 122,88 122,112 78,112" fill="rgb(170,255,170)"/>
<text x="80.0" y="105.0" font-family="courier" font-size="16" fill="rgb(0,0,0)">fact</text>
<polygon points=" 76,48 90,48 90,72 76,72" fill="rgb(170,255,170)"/>
<text x="77.5" y="65.0" font-family="courier" font-size="16" fill="rgb(0,0,0)">*</text>
<line x1="68.75" y1="20.0" x2="102.5" y2="60.0" stroke="rgb(255,0,0)" stroke-width="1.5"/>
<polygon points=" 96,48 110,48 110,72 96,72" fill="rgb(170,255,170)"/>
<text x="97.5" y="65.0" font-family="courier" font-size="16" fill="rgb(0,0,0)">1</text>
<polygon points=" 52,8 86,8 86,32 52,32" fill="rgb(170,255,170)"/>
<text x="53.75" y="25.0" font-family="courier" font-size="16" fill="rgb(0,0,0)">ite</text></svg>