<svg xmlns="http://www.w3.org/2000/svg"
xmlns:xlink="http://www.w3.org/1999/xlink"
version="1.1" baseProfile="full"
width="132" height="200">
<line x1="67.5" y1="20.0" x2="40.0" y2="60.0" stroke="rgb(255,0,0)" stroke-width="1.5"/>
<polygon points=" 18,48 62,48 62,72 18,72" fill="rgb(255,170,170)"/>
<text x="20.0" y="65.0" font-family="courier" font-size="16" fill="rgb(0,0,0)">true</text>
<line x1="67.5" y1="20.0" x2="75.0" y2="60.0" stroke="rgb(255,0,0)" stroke-width="1.5"/>
<line x1="75.0" y1="60.0" x2="57.5" y2="100.0" stroke="rgb(255,0,0)" stroke-width="1.5"/>
<polygon points=" 50,88 64,88 64,112 50,112" fill="rgb(255,170,170)"/>
<text x="52.5" y="105.0" font-family="courier" font-size="16" fill="rgb(0,0,0)">5</text>
<line x1="75.0" y1="60.0" x2="92.5" y2="100.0" stroke="rgb(255,0,0)" stroke-width="1.5"/>
<line x1="92.5" y1="100.0" x2="92.5" y2="140.0" stroke="rgb(255,0,0)" stroke-width="1.5"/>
<line x1="92.5" y1="140.0" x2="82.5" y2="180.0" stroke="rgb(255,0,0)" stroke-width="1.5"/>
<polygon points=" 76,168 90,168 90,192 76,192" fill="rgb(255,170,170)"/>
<text x="77.5" y="185.0" font-family="courier" font-size="16" fill="rgb(0,0,0)">5</text>
<line x1="92.5" y1="140.0" x2="102.5" y2="180.0" stroke="rgb(255,0,0)" stroke-width="1.5"/>
<polygon points=" 96,168 110,168 110,192 96,192" fill="rgb(255,170,170)"/>
<text x="97.5" y="185.0" font-family="courier" font-size="16" fill="rgb(0,0,0)">1</text>
<polygon points=" 86,128 100,128 100,152 86,152" fill="rgb(255,170,170)"/>
<text x="87.5" y="145.0" font-family="courier" font-size="16" fill="rgb(0,0,0)">-</text>
<polygon points=" 70,88 114,88 114,112 70,112" fill="rgb(255,170,170)"/>
<text x="72.5" y="105.0" font-family="courier" font-size="16" fill="rgb(0,0,0)">fact</text>
<polygon points=" 68,48 82,48 82,72 68,72" fill="rgb(255,170,170)"/>
<text x="70.0" y="65.0" font-family="courier" font-size="16" fill="rgb(0,0,0)">*</text>
<line x1="67.5" y1="20.0" x2="95.0" y2="60.0" stroke="rgb(255,0,0)" stroke-width="1.5"/>
<polygon points=" 88,48 102,48 102,72 88,72" fill="rgb(255,170,170)"/>
<text x="90.0" y="65.0" font-family="courier" font-size="16" fill="rgb(0,0,0)">1</text>
<polygon points=" 50,8 84,8 84,32 50,32" fill="rgb(255,170,170)"/>
<text x="52.5" y="25.0" font-family="courier" font-size="16" fill="rgb(0,0,0)">ite</text></svg>