<svg xmlns="http://www.w3.org/2000/svg"
xmlns:xlink="http://www.w3.org/1999/xlink"
version="1.1" baseProfile="full"
width="100" height="160">
<line x1="42.5" y1="20.0" x2="25.0" y2="60.0" stroke="rgb(255,0,0)" stroke-width="1.5"/>
<polygon points=" 18,48 32,48 32,72 18,72" fill="rgb(255,255,170)"/>
<text x="20.0" y="65.0" font-family="courier" font-size="16" fill="rgb(0,0,0)">5</text>
<line x1="42.5" y1="20.0" x2="60.0" y2="60.0" stroke="rgb(255,0,0)" stroke-width="1.5"/>
<line x1="60.0" y1="60.0" x2="60.0" y2="100.0" stroke="rgb(255,0,0)" stroke-width="1.5"/>
<line x1="60.0" y1="100.0" x2="50.0" y2="140.0" stroke="rgb(255,0,0)" stroke-width="1.5"/>
<polygon points=" 43,128 57,128 57,152 43,152" fill="rgb(255,170,170)"/>
<text x="45.0" y="145.0" font-family="courier" font-size="16" fill="rgb(0,0,0)">5</text>
<line x1="60.0" y1="100.0" x2="70.0" y2="140.0" stroke="rgb(255,0,0)" stroke-width="1.5"/>
<polygon points=" 63,128 77,128 77,152 63,152" fill="rgb(255,170,170)"/>
<text x="65.0" y="145.0" font-family="courier" font-size="16" fill="rgb(0,0,0)">1</text>
<polygon points=" 53,88 67,88 67,112 53,112" fill="rgb(255,170,170)"/>
<text x="55.0" y="105.0" font-family="courier" font-size="16" fill="rgb(0,0,0)">-</text>
<polygon points=" 38,48 82,48 82,72 38,72" fill="rgb(255,255,170)"/>
<text x="40.0" y="65.0" font-family="courier" font-size="16" fill="rgb(0,0,0)">fact</text>
<polygon points=" 36,8 50,8 50,32 36,32" fill="rgb(255,255,170)"/>
<text x="37.5" y="25.0" font-family="courier" font-size="16" fill="rgb(0,0,0)">*</text></svg>