<svg xmlns="http://www.w3.org/2000/svg"
xmlns:xlink="http://www.w3.org/1999/xlink"
version="1.1" baseProfile="full"
width="132" height="240">
<line x1="52.5" y1="20.0" x2="37.5" y2="60.0" stroke="rgb(255,0,0)" stroke-width="1.5"/>
<polygon points=" 30,48 44,48 44,72 30,72" fill="rgb(255,255,170)"/>
<text x="32.5" y="65.0" font-family="courier" font-size="16" fill="rgb(0,0,0)">5</text>
<line x1="52.5" y1="20.0" x2="67.5" y2="60.0" stroke="rgb(255,0,0)" stroke-width="1.5"/>
<line x1="67.5" y1="60.0" x2="40.0" y2="100.0" stroke="rgb(255,0,0)" stroke-width="1.5"/>
<polygon points=" 18,88 62,88 62,112 18,112" fill="rgb(170,255,170)"/>
<text x="20.0" y="105.0" font-family="courier" font-size="16" fill="rgb(0,0,0)">true</text>
<line x1="67.5" y1="60.0" x2="75.0" y2="100.0" stroke="rgb(255,0,0)" stroke-width="1.5"/>
<line x1="75.0" y1="100.0" x2="57.5" y2="140.0" stroke="rgb(255,0,0)" stroke-width="1.5"/>
<polygon points=" 50,128 64,128 64,152 50,152" fill="rgb(255,255,170)"/>
<text x="52.5" y="145.0" font-family="courier" font-size="16" fill="rgb(0,0,0)">4</text>
<line x1="75.0" y1="100.0" x2="92.5" y2="140.0" stroke="rgb(255,0,0)" stroke-width="1.5"/>
<line x1="92.5" y1="140.0" x2="92.5" y2="180.0" stroke="rgb(255,0,0)" stroke-width="1.5"/>
<line x1="92.5" y1="180.0" x2="82.5" y2="220.0" stroke="rgb(255,0,0)" stroke-width="1.5"/>
<polygon points=" 76,208 90,208 90,232 76,232" fill="rgb(255,255,170)"/>
<text x="77.5" y="225.0" font-family="courier" font-size="16" fill="rgb(0,0,0)">4</text>
<line x1="92.5" y1="180.0" x2="102.5" y2="220.0" stroke="rgb(255,0,0)" stroke-width="1.5"/>
<polygon points=" 96,208 110,208 110,232 96,232" fill="rgb(255,255,170)"/>
<text x="97.5" y="225.0" font-family="courier" font-size="16" fill="rgb(0,0,0)">1</text>
<polygon points=" 86,168 100,168 100,192 86,192" fill="rgb(255,255,170)"/>
<text x="87.5" y="185.0" font-family="courier" font-size="16" fill="rgb(0,0,0)">-</text>
<polygon points=" 70,128 114,128 114,152 70,152" fill="rgb(255,255,170)"/>
<text x="72.5" y="145.0" font-family="courier" font-size="16" fill="rgb(0,0,0)">fact</text>
<polygon points=" 68,88 82,88 82,112 68,112" fill="rgb(255,255,170)"/>
<text x="70.0" y="105.0" font-family="courier" font-size="16" fill="rgb(0,0,0)">*</text>
<line x1="67.5" y1="60.0" x2="95.0" y2="100.0" stroke="rgb(255,0,0)" stroke-width="1.5"/>
<polygon points=" 88,88 102,88 102,112 88,112" fill="rgb(255,255,170)"/>
<text x="90.0" y="105.0" font-family="courier" font-size="16" fill="rgb(0,0,0)">1</text>
<polygon points=" 50,48 84,48 84,72 50,72" fill="rgb(255,255,170)"/>
<text x="52.5" y="65.0" font-family="courier" font-size="16" fill="rgb(0,0,0)">ite</text>
<polygon points=" 46,8 60,8 60,32 46,32" fill="rgb(255,255,170)"/>
<text x="47.5" y="25.0" font-family="courier" font-size="16" fill="rgb(0,0,0)">*</text></svg>