<svg xmlns="http://www.w3.org/2000/svg"
xmlns:xlink="http://www.w3.org/1999/xlink"
version="1.1" baseProfile="full"
width="141" height="320">
<line x1="35.0" y1="20.0" x2="25.0" y2="60.0" stroke="rgb(255,0,0)" stroke-width="1.5"/>
<polygon points=" 18,48 32,48 32,72 18,72" fill="rgb(255,255,170)"/>
<text x="20.0" y="65.0" font-family="courier" font-size="16" fill="rgb(0,0,0)">5</text>
<line x1="35.0" y1="20.0" x2="45.0" y2="60.0" stroke="rgb(255,0,0)" stroke-width="1.5"/>
<line x1="45.0" y1="60.0" x2="35.0" y2="100.0" stroke="rgb(255,0,0)" stroke-width="1.5"/>
<polygon points=" 28,88 42,88 42,112 28,112" fill="rgb(255,255,170)"/>
<text x="30.0" y="105.0" font-family="courier" font-size="16" fill="rgb(0,0,0)">4</text>
<line x1="45.0" y1="60.0" x2="55.0" y2="100.0" stroke="rgb(255,0,0)" stroke-width="1.5"/>
<line x1="55.0" y1="100.0" x2="40.0" y2="140.0" stroke="rgb(255,0,0)" stroke-width="1.5"/>
<polygon points=" 33,128 47,128 47,152 33,152" fill="rgb(255,255,170)"/>
<text x="35.0" y="145.0" font-family="courier" font-size="16" fill="rgb(0,0,0)">3</text>
<line x1="55.0" y1="100.0" x2="70.0" y2="140.0" stroke="rgb(255,0,0)" stroke-width="1.5"/>
<line x1="70.0" y1="140.0" x2="36.25" y2="180.0" stroke="rgb(255,0,0)" stroke-width="1.5"/>
<line x1="36.25" y1="180.0" x2="26.25" y2="220.0" stroke="rgb(255,0,0)" stroke-width="1.5"/>
<polygon points=" 19,208 33,208 33,232 19,232" fill="rgb(170,255,170)"/>
<text x="21.25" y="225.0" font-family="courier" font-size="16" fill="rgb(0,0,0)">2</text>
<line x1="36.25" y1="180.0" x2="46.25" y2="220.0" stroke="rgb(255,0,0)" stroke-width="1.5"/>
<polygon points=" 39,208 53,208 53,232 39,232" fill="rgb(170,255,170)"/>
<text x="41.25" y="225.0" font-family="courier" font-size="16" fill="rgb(0,0,0)">1</text>
<polygon points=" 29,168 43,168 43,192 29,192" fill="rgb(170,255,170)"/>
<text x="31.25" y="185.0" font-family="courier" font-size="16" fill="rgb(0,0,0)">&gt;</text>
<line x1="70.0" y1="140.0" x2="83.75" y2="180.0" stroke="rgb(255,0,0)" stroke-width="1.5"/>
<line x1="83.75" y1="180.0" x2="66.25" y2="220.0" stroke="rgb(255,0,0)" stroke-width="1.5"/>
<polygon points=" 59,208 73,208 73,232 59,232" fill="rgb(170,255,170)"/>
<text x="61.25" y="225.0" font-family="courier" font-size="16" fill="rgb(0,0,0)">2</text>
<line x1="83.75" y1="180.0" x2="101.25" y2="220.0" stroke="rgb(255,0,0)" stroke-width="1.5"/>
<line x1="101.25" y1="220.0" x2="101.25" y2="260.0" stroke="rgb(255,0,0)" stroke-width="1.5"/>
<line x1="101.25" y1="260.0" x2="91.25" y2="300.0" stroke="rgb(255,0,0)" stroke-width="1.5"/>
<polygon points=" 84,288 98,288 98,312 84,312" fill="rgb(170,255,170)"/>
<text x="86.25" y="305.0" font-family="courier" font-size="16" fill="rgb(0,0,0)">2</text>
<line x1="101.25" y1="260.0" x2="111.25" y2="300.0" stroke="rgb(255,0,0)" stroke-width="1.5"/>
<polygon points=" 104,288 118,288 118,312 104,312" fill="rgb(170,255,170)"/>
<text x="106.25" y="305.0" font-family="courier" font-size="16" fill="rgb(0,0,0)">1</text>
<polygon points=" 94,248 108,248 108,272 94,272" fill="rgb(170,255,170)"/>
<text x="96.25" y="265.0" font-family="courier" font-size="16" fill="rgb(0,0,0)">-</text>
<polygon points=" 79,208 123,208 123,232 79,232" fill="rgb(170,255,170)"/>
<text x="81.25" y="225.0" font-family="courier" font-size="16" fill="rgb(0,0,0)">fact</text>
<polygon points=" 77,168 91,168 91,192 77,192" fill="rgb(170,255,170)"/>
<text x="78.75" y="185.0" font-family="courier" font-size="16" fill="rgb(0,0,0)">*</text>
<line x1="70.0" y1="140.0" x2="103.75" y2="180.0" stroke="rgb(255,0,0)" stroke-width="1.5"/>
<polygon points=" 97,168 111,168 111,192 97,192" fill="rgb(170,255,170)"/>
<text x="98.75" y="185.0" font-family="courier" font-size="16" fill="rgb(0,0,0)">1</text>
<polygon points=" 53,128 87,128 87,152 53,152" fill="rgb(170,255,170)"/>
<text x="55.0" y="145.0" font-family="courier" font-size="16" fill="rgb(0,0,0)">ite</text>
<polygon points=" 48,88 62,88 62,112 48,112" fill="rgb(255,255,170)"/>
<text x="50.0" y="105.0" font-family="courier" font-size="16" fill="rgb(0,0,0)">*</text>
<polygon points=" 38,48 52,48 52,72 38,72" fill="rgb(255,255,170)"/>
<text x="40.0" y="65.0" font-family="courier" font-size="16" fill="rgb(0,0,0)">*</text>
<polygon points=" 28,8 42,8 42,32 28,32" fill="rgb(255,255,170)"/>
<text x="30.0" y="25.0" font-family="courier" font-size="16" fill="rgb(0,0,0)">*</text></svg>