<svg xmlns="http://www.w3.org/2000/svg"
xmlns:xlink="http://www.w3.org/1999/xlink"
version="1.1" baseProfile="full"
width="135" height="320">
<line x1="35.0" y1="20.0" x2="25.0" y2="60.0" stroke="rgb(255,0,0)" stroke-width="1.5"/>
<polygon points=" 18,48 32,48 32,72 18,72" fill="rgb(255,255,170)"/>
<text x="20.0" y="65.0" font-family="courier" font-size="16" fill="rgb(0,0,0)">5</text>
<line x1="35.0" y1="20.0" x2="45.0" y2="60.0" stroke="rgb(255,0,0)" stroke-width="1.5"/>
<line x1="45.0" y1="60.0" x2="35.0" y2="100.0" stroke="rgb(255,0,0)" stroke-width="1.5"/>
<polygon points=" 28,88 42,88 42,112 28,112" fill="rgb(255,255,170)"/>
<text x="30.0" y="105.0" font-family="courier" font-size="16" fill="rgb(0,0,0)">4</text>
<line x1="45.0" y1="60.0" x2="55.0" y2="100.0" stroke="rgb(255,0,0)" stroke-width="1.5"/>
<line x1="55.0" y1="100.0" x2="40.0" y2="140.0" stroke="rgb(255,0,0)" stroke-width="1.5"/>
<polygon points=" 33,128 47,128 47,152 33,152" fill="rgb(255,255,170)"/>
<text x="35.0" y="145.0" font-family="courier" font-size="16" fill="rgb(0,0,0)">3</text>
<line x1="55.0" y1="100.0" x2="70.0" y2="140.0" stroke="rgb(255,0,0)" stroke-width="1.5"/>
<line x1="70.0" y1="140.0" x2="42.5" y2="180.0" stroke="rgb(255,0,0)" stroke-width="1.5"/>
<polygon points=" 20,168 64,168 64,192 20,192" fill="rgb(255,170,170)"/>
<text x="22.5" y="185.0" font-family="courier" font-size="16" fill="rgb(0,0,0)">true</text>
<line x1="70.0" y1="140.0" x2="77.5" y2="180.0" stroke="rgb(255,0,0)" stroke-width="1.5"/>
<line x1="77.5" y1="180.0" x2="60.0" y2="220.0" stroke="rgb(255,0,0)" stroke-width="1.5"/>
<polygon points=" 53,208 67,208 67,232 53,232" fill="rgb(255,170,170)"/>
<text x="55.0" y="225.0" font-family="courier" font-size="16" fill="rgb(0,0,0)">2</text>
<line x1="77.5" y1="180.0" x2="95.0" y2="220.0" stroke="rgb(255,0,0)" stroke-width="1.5"/>
<line x1="95.0" y1="220.0" x2="95.0" y2="260.0" stroke="rgb(255,0,0)" stroke-width="1.5"/>
<line x1="95.0" y1="260.0" x2="85.0" y2="300.0" stroke="rgb(255,0,0)" stroke-width="1.5"/>
<polygon points=" 78,288 92,288 92,312 78,312" fill="rgb(255,170,170)"/>
<text x="80.0" y="305.0" font-family="courier" font-size="16" fill="rgb(0,0,0)">2</text>
<line x1="95.0" y1="260.0" x2="105.0" y2="300.0" stroke="rgb(255,0,0)" stroke-width="1.5"/>
<polygon points=" 98,288 112,288 112,312 98,312" fill="rgb(255,170,170)"/>
<text x="100.0" y="305.0" font-family="courier" font-size="16" fill="rgb(0,0,0)">1</text>
<polygon points=" 88,248 102,248 102,272 88,272" fill="rgb(255,170,170)"/>
<text x="90.0" y="265.0" font-family="courier" font-size="16" fill="rgb(0,0,0)">-</text>
<polygon points=" 73,208 117,208 117,232 73,232" fill="rgb(255,170,170)"/>
<text x="75.0" y="225.0" font-family="courier" font-size="16" fill="rgb(0,0,0)">fact</text>
<polygon points=" 70,168 84,168 84,192 70,192" fill="rgb(255,170,170)"/>
<text x="72.5" y="185.0" font-family="courier" font-size="16" fill="rgb(0,0,0)">*</text>
<line x1="70.0" y1="140.0" x2="97.5" y2="180.0" stroke="rgb(255,0,0)" stroke-width="1.5"/>
<polygon points=" 90,168 104,168 104,192 90,192" fill="rgb(255,170,170)"/>
<text x="92.5" y="185.0" font-family="courier" font-size="16" fill="rgb(0,0,0)">1</text>
<polygon points=" 53,128 87,128 87,152 53,152" fill="rgb(255,170,170)"/>
<text x="55.0" y="145.0" font-family="courier" font-size="16" fill="rgb(0,0,0)">ite</text>
<polygon points=" 48,88 62,88 62,112 48,112" fill="rgb(255,255,170)"/>
<text x="50.0" y="105.0" font-family="courier" font-size="16" fill="rgb(0,0,0)">*</text>
<polygon points=" 38,48 52,48 52,72 38,72" fill="rgb(255,255,170)"/>
<text x="40.0" y="65.0" font-family="courier" font-size="16" fill="rgb(0,0,0)">*</text>
<polygon points=" 28,8 42,8 42,32 28,32" fill="rgb(255,255,170)"/>
<text x="30.0" y="25.0" font-family="courier" font-size="16" fill="rgb(0,0,0)">*</text></svg>