<svg xmlns="http://www.w3.org/2000/svg"
xmlns:xlink="http://www.w3.org/1999/xlink"
version="1.1" baseProfile="full"
width="122" height="240">
<line x1="35.0" y1="20.0" x2="25.0" y2="60.0" stroke="rgb(255,0,0)" stroke-width="1.5"/>
<polygon points=" 18,48 32,48 32,72 18,72" fill="rgb(255,255,170)"/>
<text x="20.0" y="65.0" font-family="courier" font-size="16" fill="rgb(0,0,0)">5</text>
<line x1="35.0" y1="20.0" x2="45.0" y2="60.0" stroke="rgb(255,0,0)" stroke-width="1.5"/>
<line x1="45.0" y1="60.0" x2="35.0" y2="100.0" stroke="rgb(255,0,0)" stroke-width="1.5"/>
<polygon points=" 28,88 42,88 42,112 28,112" fill="rgb(255,255,170)"/>
<text x="30.0" y="105.0" font-family="courier" font-size="16" fill="rgb(0,0,0)">4</text>
<line x1="45.0" y1="60.0" x2="55.0" y2="100.0" stroke="rgb(255,0,0)" stroke-width="1.5"/>
<line x1="55.0" y1="100.0" x2="45.0" y2="140.0" stroke="rgb(255,0,0)" stroke-width="1.5"/>
<polygon points=" 38,128 52,128 52,152 38,152" fill="rgb(255,255,170)"/>
<text x="40.0" y="145.0" font-family="courier" font-size="16" fill="rgb(0,0,0)">3</text>
<line x1="55.0" y1="100.0" x2="65.0" y2="140.0" stroke="rgb(255,0,0)" stroke-width="1.5"/>
<line x1="65.0" y1="140.0" x2="47.5" y2="180.0" stroke="rgb(255,0,0)" stroke-width="1.5"/>
<polygon points=" 40,168 54,168 54,192 40,192" fill="rgb(255,255,170)"/>
<text x="42.5" y="185.0" font-family="courier" font-size="16" fill="rgb(0,0,0)">2</text>
<line x1="65.0" y1="140.0" x2="82.5" y2="180.0" stroke="rgb(255,0,0)" stroke-width="1.5"/>
<line x1="82.5" y1="180.0" x2="82.5" y2="220.0" stroke="rgb(255,0,0)" stroke-width="1.5"/>
<polygon points=" 76,208 90,208 90,232 76,232" fill="rgb(255,170,170)"/>
<text x="77.5" y="225.0" font-family="courier" font-size="16" fill="rgb(0,0,0)">1</text>
<polygon points=" 60,168 104,168 104,192 60,192" fill="rgb(255,170,170)"/>
<text x="62.5" y="185.0" font-family="courier" font-size="16" fill="rgb(0,0,0)">fact</text>
<polygon points=" 58,128 72,128 72,152 58,152" fill="rgb(255,255,170)"/>
<text x="60.0" y="145.0" font-family="courier" font-size="16" fill="rgb(0,0,0)">*</text>
<polygon points=" 48,88 62,88 62,112 48,112" fill="rgb(255,255,170)"/>
<text x="50.0" y="105.0" font-family="courier" font-size="16" fill="rgb(0,0,0)">*</text>
<polygon points=" 38,48 52,48 52,72 38,72" fill="rgb(255,255,170)"/>
<text x="40.0" y="65.0" font-family="courier" font-size="16" fill="rgb(0,0,0)">*</text>
<polygon points=" 28,8 42,8 42,32 28,32" fill="rgb(255,255,170)"/>
<text x="30.0" y="25.0" font-family="courier" font-size="16" fill="rgb(0,0,0)">*</text></svg>