<svg xmlns="http://www.w3.org/2000/svg"
xmlns:xlink="http://www.w3.org/1999/xlink"
version="1.1" baseProfile="full"
width="151" height="360">
<line x1="35.0" y1="20.0" x2="25.0" y2="60.0" stroke="rgb(255,0,0)" stroke-width="1.5"/>
<polygon points=" 18,48 32,48 32,72 18,72" fill="rgb(255,255,170)"/>
<text x="20.0" y="65.0" font-family="courier" font-size="16" fill="rgb(0,0,0)">5</text>
<line x1="35.0" y1="20.0" x2="45.0" y2="60.0" stroke="rgb(255,0,0)" stroke-width="1.5"/>
<line x1="45.0" y1="60.0" x2="35.0" y2="100.0" stroke="rgb(255,0,0)" stroke-width="1.5"/>
<polygon points=" 28,88 42,88 42,112 28,112" fill="rgb(255,255,170)"/>
<text x="30.0" y="105.0" font-family="courier" font-size="16" fill="rgb(0,0,0)">4</text>
<line x1="45.0" y1="60.0" x2="55.0" y2="100.0" stroke="rgb(255,0,0)" stroke-width="1.5"/>
<line x1="55.0" y1="100.0" x2="45.0" y2="140.0" stroke="rgb(255,0,0)" stroke-width="1.5"/>
<polygon points=" 38,128 52,128 52,152 38,152" fill="rgb(255,255,170)"/>
<text x="40.0" y="145.0" font-family="courier" font-size="16" fill="rgb(0,0,0)">3</text>
<line x1="55.0" y1="100.0" x2="65.0" y2="140.0" stroke="rgb(255,0,0)" stroke-width="1.5"/>
<line x1="65.0" y1="140.0" x2="50.0" y2="180.0" stroke="rgb(255,0,0)" stroke-width="1.5"/>
<polygon points=" 43,168 57,168 57,192 43,192" fill="rgb(255,255,170)"/>
<text x="45.0" y="185.0" font-family="courier" font-size="16" fill="rgb(0,0,0)">2</text>
<line x1="65.0" y1="140.0" x2="80.0" y2="180.0" stroke="rgb(255,0,0)" stroke-width="1.5"/>
<line x1="80.0" y1="180.0" x2="46.25" y2="220.0" stroke="rgb(255,0,0)" stroke-width="1.5"/>
<line x1="46.25" y1="220.0" x2="36.25" y2="260.0" stroke="rgb(255,0,0)" stroke-width="1.5"/>
<polygon points=" 29,248 43,248 43,272 29,272" fill="rgb(170,255,170)"/>
<text x="31.25" y="265.0" font-family="courier" font-size="16" fill="rgb(0,0,0)">1</text>
<line x1="46.25" y1="220.0" x2="56.25" y2="260.0" stroke="rgb(255,0,0)" stroke-width="1.5"/>
<polygon points=" 49,248 63,248 63,272 49,272" fill="rgb(170,255,170)"/>
<text x="51.25" y="265.0" font-family="courier" font-size="16" fill="rgb(0,0,0)">1</text>
<polygon points=" 39,208 53,208 53,232 39,232" fill="rgb(170,255,170)"/>
<text x="41.25" y="225.0" font-family="courier" font-size="16" fill="rgb(0,0,0)">&gt;</text>
<line x1="80.0" y1="180.0" x2="93.75" y2="220.0" stroke="rgb(255,0,0)" stroke-width="1.5"/>
<line x1="93.75" y1="220.0" x2="76.25" y2="260.0" stroke="rgb(255,0,0)" stroke-width="1.5"/>
<polygon points=" 69,248 83,248 83,272 69,272" fill="rgb(170,255,170)"/>
<text x="71.25" y="265.0" font-family="courier" font-size="16" fill="rgb(0,0,0)">1</text>
<line x1="93.75" y1="220.0" x2="111.25" y2="260.0" stroke="rgb(255,0,0)" stroke-width="1.5"/>
<line x1="111.25" y1="260.0" x2="111.25" y2="300.0" stroke="rgb(255,0,0)" stroke-width="1.5"/>
<line x1="111.25" y1="300.0" x2="101.25" y2="340.0" stroke="rgb(255,0,0)" stroke-width="1.5"/>
<polygon points=" 94,328 108,328 108,352 94,352" fill="rgb(170,255,170)"/>
<text x="96.25" y="345.0" font-family="courier" font-size="16" fill="rgb(0,0,0)">1</text>
<line x1="111.25" y1="300.0" x2="121.25" y2="340.0" stroke="rgb(255,0,0)" stroke-width="1.5"/>
<polygon points=" 114,328 128,328 128,352 114,352" fill="rgb(170,255,170)"/>
<text x="116.25" y="345.0" font-family="courier" font-size="16" fill="rgb(0,0,0)">1</text>
<polygon points=" 104,288 118,288 118,312 104,312" fill="rgb(170,255,170)"/>
<text x="106.25" y="305.0" font-family="courier" font-size="16" fill="rgb(0,0,0)">-</text>
<polygon points=" 89,248 133,248 133,272 89,272" fill="rgb(170,255,170)"/>
<text x="91.25" y="265.0" font-family="courier" font-size="16" fill="rgb(0,0,0)">fact</text>
<polygon points=" 87,208 101,208 101,232 87,232" fill="rgb(170,255,170)"/>
<text x="88.75" y="225.0" font-family="courier" font-size="16" fill="rgb(0,0,0)">*</text>
<line x1="80.0" y1="180.0" x2="113.75" y2="220.0" stroke="rgb(255,0,0)" stroke-width="1.5"/>
<polygon points=" 107,208 121,208 121,232 107,232" fill="rgb(170,255,170)"/>
<text x="108.75" y="225.0" font-family="courier" font-size="16" fill="rgb(0,0,0)">1</text>
<polygon points=" 63,168 97,168 97,192 63,192" fill="rgb(170,255,170)"/>
<text x="65.0" y="185.0" font-family="courier" font-size="16" fill="rgb(0,0,0)">ite</text>
<polygon points=" 58,128 72,128 72,152 58,152" fill="rgb(255,255,170)"/>
<text x="60.0" y="145.0" font-family="courier" font-size="16" fill="rgb(0,0,0)">*</text>
<polygon points=" 48,88 62,88 62,112 48,112" fill="rgb(255,255,170)"/>
<text x="50.0" y="105.0" font-family="courier" font-size="16" fill="rgb(0,0,0)">*</text>
<polygon points=" 38,48 52,48 52,72 38,72" fill="rgb(255,255,170)"/>
<text x="40.0" y="65.0" font-family="courier" font-size="16" fill="rgb(0,0,0)">*</text>
<polygon points=" 28,8 42,8 42,32 28,32" fill="rgb(255,255,170)"/>
<text x="30.0" y="25.0" font-family="courier" font-size="16" fill="rgb(0,0,0)">*</text></svg>