<svg xmlns="http://www.w3.org/2000/svg"
xmlns:xlink="http://www.w3.org/1999/xlink"
version="1.1" baseProfile="full"
width="148" height="360">
<line x1="35.0" y1="20.0" x2="25.0" y2="60.0" stroke="rgb(255,0,0)" stroke-width="1.5"/>
<polygon points=" 18,48 32,48 32,72 18,72" fill="rgb(255,255,170)"/>
<text x="20.0" y="65.0" font-family="courier" font-size="16" fill="rgb(0,0,0)">5</text>
<line x1="35.0" y1="20.0" x2="45.0" y2="60.0" stroke="rgb(255,0,0)" stroke-width="1.5"/>
<line x1="45.0" y1="60.0" x2="35.0" y2="100.0" stroke="rgb(255,0,0)" stroke-width="1.5"/>
<polygon points=" 28,88 42,88 42,112 28,112" fill="rgb(255,255,170)"/>
<text x="30.0" y="105.0" font-family="courier" font-size="16" fill="rgb(0,0,0)">4</text>
<line x1="45.0" y1="60.0" x2="55.0" y2="100.0" stroke="rgb(255,0,0)" stroke-width="1.5"/>
<line x1="55.0" y1="100.0" x2="45.0" y2="140.0" stroke="rgb(255,0,0)" stroke-width="1.5"/>
<polygon points=" 38,128 52,128 52,152 38,152" fill="rgb(255,255,170)"/>
<text x="40.0" y="145.0" font-family="courier" font-size="16" fill="rgb(0,0,0)">3</text>
<line x1="55.0" y1="100.0" x2="65.0" y2="140.0" stroke="rgb(255,0,0)" stroke-width="1.5"/>
<line x1="65.0" y1="140.0" x2="50.0" y2="180.0" stroke="rgb(255,0,0)" stroke-width="1.5"/>
<polygon points=" 43,168 57,168 57,192 43,192" fill="rgb(255,255,170)"/>
<text x="45.0" y="185.0" font-family="courier" font-size="16" fill="rgb(0,0,0)">2</text>
<line x1="65.0" y1="140.0" x2="80.0" y2="180.0" stroke="rgb(255,0,0)" stroke-width="1.5"/>
<line x1="80.0" y1="180.0" x2="50.0" y2="220.0" stroke="rgb(255,0,0)" stroke-width="1.5"/>
<polygon points=" 23,208 77,208 77,232 23,232" fill="rgb(170,255,170)"/>
<text x="25.0" y="225.0" font-family="courier" font-size="16" fill="rgb(0,0,0)">false</text>
<line x1="80.0" y1="180.0" x2="90.0" y2="220.0" stroke="rgb(255,0,0)" stroke-width="1.5"/>
<line x1="90.0" y1="220.0" x2="72.5" y2="260.0" stroke="rgb(255,0,0)" stroke-width="1.5"/>
<polygon points=" 66,248 80,248 80,272 66,272" fill="rgb(255,255,170)"/>
<text x="67.5" y="265.0" font-family="courier" font-size="16" fill="rgb(0,0,0)">1</text>
<line x1="90.0" y1="220.0" x2="107.5" y2="260.0" stroke="rgb(255,0,0)" stroke-width="1.5"/>
<line x1="107.5" y1="260.0" x2="107.5" y2="300.0" stroke="rgb(255,0,0)" stroke-width="1.5"/>
<line x1="107.5" y1="300.0" x2="97.5" y2="340.0" stroke="rgb(255,0,0)" stroke-width="1.5"/>
<polygon points=" 90,328 104,328 104,352 90,352" fill="rgb(255,255,170)"/>
<text x="92.5" y="345.0" font-family="courier" font-size="16" fill="rgb(0,0,0)">1</text>
<line x1="107.5" y1="300.0" x2="117.5" y2="340.0" stroke="rgb(255,0,0)" stroke-width="1.5"/>
<polygon points=" 110,328 124,328 124,352 110,352" fill="rgb(255,255,170)"/>
<text x="112.5" y="345.0" font-family="courier" font-size="16" fill="rgb(0,0,0)">1</text>
<polygon points=" 100,288 114,288 114,312 100,312" fill="rgb(255,255,170)"/>
<text x="102.5" y="305.0" font-family="courier" font-size="16" fill="rgb(0,0,0)">-</text>
<polygon points=" 86,248 130,248 130,272 86,272" fill="rgb(255,255,170)"/>
<text x="87.5" y="265.0" font-family="courier" font-size="16" fill="rgb(0,0,0)">fact</text>
<polygon points=" 83,208 97,208 97,232 83,232" fill="rgb(255,255,170)"/>
<text x="85.0" y="225.0" font-family="courier" font-size="16" fill="rgb(0,0,0)">*</text>
<line x1="80.0" y1="180.0" x2="110.0" y2="220.0" stroke="rgb(255,0,0)" stroke-width="1.5"/>
<polygon points=" 103,208 117,208 117,232 103,232" fill="rgb(255,255,170)"/>
<text x="105.0" y="225.0" font-family="courier" font-size="16" fill="rgb(0,0,0)">1</text>
<polygon points=" 63,168 97,168 97,192 63,192" fill="rgb(255,255,170)"/>
<text x="65.0" y="185.0" font-family="courier" font-size="16" fill="rgb(0,0,0)">ite</text>
<polygon points=" 58,128 72,128 72,152 58,152" fill="rgb(255,255,170)"/>
<text x="60.0" y="145.0" font-family="courier" font-size="16" fill="rgb(0,0,0)">*</text>
<polygon points=" 48,88 62,88 62,112 48,112" fill="rgb(255,255,170)"/>
<text x="50.0" y="105.0" font-family="courier" font-size="16" fill="rgb(0,0,0)">*</text>
<polygon points=" 38,48 52,48 52,72 38,72" fill="rgb(255,255,170)"/>
<text x="40.0" y="65.0" font-family="courier" font-size="16" fill="rgb(0,0,0)">*</text>
<polygon points=" 28,8 42,8 42,32 28,32" fill="rgb(255,255,170)"/>
<text x="30.0" y="25.0" font-family="courier" font-size="16" fill="rgb(0,0,0)">*</text></svg>