<svg xmlns="http://www.w3.org/2000/svg"
xmlns:xlink="http://www.w3.org/1999/xlink"
version="1.1" baseProfile="full"
width="655" height="320">
<line x1="343.75" y1="20.0" x2="195.0" y2="60.0" stroke="rgb(255,0,0)" stroke-width="1.5"/>
<line x1="195.0" y1="60.0" x2="157.5" y2="100.0" stroke="rgb(255,0,0)" stroke-width="1.5"/>
<line x1="157.5" y1="100.0" x2="157.5" y2="140.0" stroke="rgb(255,0,0)" stroke-width="1.5"/>
<line x1="157.5" y1="140.0" x2="45.0" y2="180.0" stroke="rgb(255,0,0)" stroke-width="1.5"/>
<line x1="45.0" y1="180.0" x2="25.0" y2="220.0" stroke="rgb(255,0,0)" stroke-width="1.5"/>
<line x1="25.0" y1="220.0" x2="25.0" y2="260.0" stroke="rgb(255,0,0)" stroke-width="1.5"/>
<polygon points=" 18,248 32,248 32,272 18,272" fill="rgb(255,170,170)"/>
<text x="20.0" y="265.0" font-family="courier" font-size="16" fill="rgb(0,0,0)">X</text>
<polygon points=" 8,208 42,208 42,232 8,232" fill="rgb(255,170,170)"/>
<text x="10.0" y="225.0" font-family="courier" font-size="16" fill="rgb(0,0,0)">Var</text>
<line x1="45.0" y1="180.0" x2="65.0" y2="220.0" stroke="rgb(255,0,0)" stroke-width="1.5"/>
<polygon points=" 58,208 72,208 72,232 58,232" fill="rgb(255,170,170)"/>
<text x="60.0" y="225.0" font-family="courier" font-size="16" fill="rgb(0,0,0)">4</text>
<polygon points=" 33,168 57,168 57,192 33,192" fill="rgb(255,170,170)"/>
<text x="35.0" y="185.0" font-family="courier" font-size="16" fill="rgb(0,0,0)">:^</text>
<line x1="157.5" y1="140.0" x2="112.5" y2="180.0" stroke="rgb(255,0,0)" stroke-width="1.5"/>
<line x1="112.5" y1="180.0" x2="95.0" y2="220.0" stroke="rgb(255,0,0)" stroke-width="1.5"/>
<polygon points=" 88,208 102,208 102,232 88,232" fill="rgb(255,170,170)"/>
<text x="90.0" y="225.0" font-family="courier" font-size="16" fill="rgb(0,0,0)">5</text>
<line x1="112.5" y1="180.0" x2="130.0" y2="220.0" stroke="rgb(255,0,0)" stroke-width="1.5"/>
<line x1="130.0" y1="220.0" x2="110.0" y2="260.0" stroke="rgb(255,0,0)" stroke-width="1.5"/>
<line x1="110.0" y1="260.0" x2="110.0" y2="300.0" stroke="rgb(255,0,0)" stroke-width="1.5"/>
<polygon points=" 103,288 117,288 117,312 103,312" fill="rgb(255,170,170)"/>
<text x="105.0" y="305.0" font-family="courier" font-size="16" fill="rgb(0,0,0)">X</text>
<polygon points=" 93,248 127,248 127,272 93,272" fill="rgb(255,170,170)"/>
<text x="95.0" y="265.0" font-family="courier" font-size="16" fill="rgb(0,0,0)">Var</text>
<line x1="130.0" y1="220.0" x2="150.0" y2="260.0" stroke="rgb(255,0,0)" stroke-width="1.5"/>
<polygon points=" 143,248 157,248 157,272 143,272" fill="rgb(255,170,170)"/>
<text x="145.0" y="265.0" font-family="courier" font-size="16" fill="rgb(0,0,0)">3</text>
<polygon points=" 118,208 142,208 142,232 118,232" fill="rgb(255,170,170)"/>
<text x="120.0" y="225.0" font-family="courier" font-size="16" fill="rgb(0,0,0)">:^</text>
<polygon points=" 100,168 124,168 124,192 100,192" fill="rgb(255,170,170)"/>
<text x="102.5" y="185.0" font-family="courier" font-size="16" fill="rgb(0,0,0)">:*</text>
<line x1="157.5" y1="140.0" x2="205.0" y2="180.0" stroke="rgb(255,0,0)" stroke-width="1.5"/>
<line x1="205.0" y1="180.0" x2="185.0" y2="220.0" stroke="rgb(255,0,0)" stroke-width="1.5"/>
<polygon points=" 173,208 197,208 197,232 173,232" fill="rgb(255,170,170)"/>
<text x="175.0" y="225.0" font-family="courier" font-size="16" fill="rgb(0,0,0)">11</text>
<line x1="205.0" y1="180.0" x2="225.0" y2="220.0" stroke="rgb(255,0,0)" stroke-width="1.5"/>
<line x1="225.0" y1="220.0" x2="205.0" y2="260.0" stroke="rgb(255,0,0)" stroke-width="1.5"/>
<line x1="205.0" y1="260.0" x2="205.0" y2="300.0" stroke="rgb(255,0,0)" stroke-width="1.5"/>
<polygon points=" 198,288 212,288 212,312 198,312" fill="rgb(255,170,170)"/>
<text x="200.0" y="305.0" font-family="courier" font-size="16" fill="rgb(0,0,0)">X</text>
<polygon points=" 188,248 222,248 222,272 188,272" fill="rgb(255,170,170)"/>
<text x="190.0" y="265.0" font-family="courier" font-size="16" fill="rgb(0,0,0)">Var</text>
<line x1="225.0" y1="220.0" x2="245.0" y2="260.0" stroke="rgb(255,0,0)" stroke-width="1.5"/>
<polygon points=" 238,248 252,248 252,272 238,272" fill="rgb(255,170,170)"/>
<text x="240.0" y="265.0" font-family="courier" font-size="16" fill="rgb(0,0,0)">2</text>
<polygon points=" 213,208 237,208 237,232 213,232" fill="rgb(255,170,170)"/>
<text x="215.0" y="225.0" font-family="courier" font-size="16" fill="rgb(0,0,0)">:^</text>
<polygon points=" 193,168 217,168 217,192 193,192" fill="rgb(255,170,170)"/>
<text x="195.0" y="185.0" font-family="courier" font-size="16" fill="rgb(0,0,0)">:*</text>
<line x1="157.5" y1="140.0" x2="270.0" y2="180.0" stroke="rgb(255,0,0)" stroke-width="1.5"/>
<line x1="270.0" y1="180.0" x2="270.0" y2="220.0" stroke="rgb(255,0,0)" stroke-width="1.5"/>
<polygon points=" 253,208 287,208 287,232 253,232" fill="rgb(255,170,170)"/>
<text x="255.0" y="225.0" font-family="courier" font-size="16" fill="rgb(0,0,0)">222</text>
<polygon points=" 253,168 287,168 287,192 253,192" fill="rgb(255,170,170)"/>
<text x="255.0" y="185.0" font-family="courier" font-size="16" fill="rgb(0,0,0)">Con</text>
<polygon points=" 146,128 170,128 170,152 146,152" fill="rgb(255,170,170)"/>
<text x="147.5" y="145.0" font-family="courier" font-size="16" fill="rgb(0,0,0)">:+</text>
<polygon points=" 130,88 184,88 184,112 130,112" fill="rgb(255,170,170)"/>
<text x="132.5" y="105.0" font-family="courier" font-size="16" fill="rgb(0,0,0)">evalC</text>
<line x1="195.0" y1="60.0" x2="232.5" y2="100.0" stroke="rgb(255,0,0)" stroke-width="1.5"/>
<line x1="232.5" y1="100.0" x2="217.5" y2="140.0" stroke="rgb(255,0,0)" stroke-width="1.5"/>
<polygon points=" 210,128 224,128 224,152 210,152" fill="rgb(255,170,170)"/>
<text x="212.5" y="145.0" font-family="courier" font-size="16" fill="rgb(0,0,0)">X</text>
<line x1="232.5" y1="100.0" x2="247.5" y2="140.0" stroke="rgb(255,0,0)" stroke-width="1.5"/>
<polygon points=" 240,128 254,128 254,152 240,152" fill="rgb(255,170,170)"/>
<text x="242.5" y="145.0" font-family="courier" font-size="16" fill="rgb(0,0,0)">4</text>
<polygon points=" 226,88 240,88 240,112 226,112" fill="rgb(255,170,170)"/>
<text x="227.5" y="105.0" font-family="courier" font-size="16" fill="rgb(0,0,0)">&#955;</text>
<polygon points=" 188,48 202,48 202,72 188,72" fill="rgb(255,170,170)"/>
<text x="190.0" y="65.0" font-family="courier" font-size="16" fill="rgb(0,0,0)">$</text>
<line x1="343.75" y1="20.0" x2="492.5" y2="60.0" stroke="rgb(255,0,0)" stroke-width="1.5"/>
<line x1="492.5" y1="60.0" x2="430.0" y2="100.0" stroke="rgb(255,0,0)" stroke-width="1.5"/>
<line x1="430.0" y1="100.0" x2="430.0" y2="140.0" stroke="rgb(255,0,0)" stroke-width="1.5"/>
<line x1="430.0" y1="140.0" x2="330.0" y2="180.0" stroke="rgb(255,0,0)" stroke-width="1.5"/>
<line x1="330.0" y1="180.0" x2="310.0" y2="220.0" stroke="rgb(255,0,0)" stroke-width="1.5"/>
<polygon points=" 303,208 317,208 317,232 303,232" fill="rgb(255,255,170)"/>
<text x="305.0" y="225.0" font-family="courier" font-size="16" fill="rgb(0,0,0)">5</text>
<line x1="330.0" y1="180.0" x2="350.0" y2="220.0" stroke="rgb(255,0,0)" stroke-width="1.5"/>
<line x1="350.0" y1="220.0" x2="350.0" y2="260.0" stroke="rgb(255,0,0)" stroke-width="1.5"/>
<polygon points=" 338,248 362,248 362,272 338,272" fill="rgb(255,255,170)"/>
<text x="340.0" y="265.0" font-family="courier" font-size="16" fill="rgb(0,0,0)">11</text>
<polygon points=" 333,208 367,208 367,232 333,232" fill="rgb(255,255,170)"/>
<text x="335.0" y="225.0" font-family="courier" font-size="16" fill="rgb(0,0,0)">Con</text>
<polygon points=" 318,168 342,168 342,192 318,192" fill="rgb(255,255,170)"/>
<text x="320.0" y="185.0" font-family="courier" font-size="16" fill="rgb(0,0,0)">:*</text>
<line x1="430.0" y1="140.0" x2="410.0" y2="180.0" stroke="rgb(255,0,0)" stroke-width="1.5"/>
<line x1="410.0" y1="180.0" x2="390.0" y2="220.0" stroke="rgb(255,0,0)" stroke-width="1.5"/>
<polygon points=" 383,208 397,208 397,232 383,232" fill="rgb(255,255,170)"/>
<text x="385.0" y="225.0" font-family="courier" font-size="16" fill="rgb(0,0,0)">6</text>
<line x1="410.0" y1="180.0" x2="430.0" y2="220.0" stroke="rgb(255,0,0)" stroke-width="1.5"/>
<line x1="430.0" y1="220.0" x2="430.0" y2="260.0" stroke="rgb(255,0,0)" stroke-width="1.5"/>
<polygon points=" 418,248 442,248 442,272 418,272" fill="rgb(255,255,170)"/>
<text x="420.0" y="265.0" font-family="courier" font-size="16" fill="rgb(0,0,0)">12</text>
<polygon points=" 413,208 447,208 447,232 413,232" fill="rgb(255,255,170)"/>
<text x="415.0" y="225.0" font-family="courier" font-size="16" fill="rgb(0,0,0)">Con</text>
<polygon points=" 398,168 422,168 422,192 398,192" fill="rgb(255,255,170)"/>
<text x="400.0" y="185.0" font-family="courier" font-size="16" fill="rgb(0,0,0)">:*</text>
<line x1="430.0" y1="140.0" x2="530.0" y2="180.0" stroke="rgb(255,0,0)" stroke-width="1.5"/>
<line x1="530.0" y1="180.0" x2="480.0" y2="220.0" stroke="rgb(255,0,0)" stroke-width="1.5"/>
<line x1="480.0" y1="220.0" x2="480.0" y2="260.0" stroke="rgb(255,0,0)" stroke-width="1.5"/>
<polygon points=" 473,248 487,248 487,272 473,272" fill="rgb(255,255,170)"/>
<text x="475.0" y="265.0" font-family="courier" font-size="16" fill="rgb(0,0,0)">X</text>
<polygon points=" 463,208 497,208 497,232 463,232" fill="rgb(255,255,170)"/>
<text x="465.0" y="225.0" font-family="courier" font-size="16" fill="rgb(0,0,0)">Var</text>
<line x1="530.0" y1="180.0" x2="530.0" y2="220.0" stroke="rgb(255,0,0)" stroke-width="1.5"/>
<line x1="530.0" y1="220.0" x2="530.0" y2="260.0" stroke="rgb(255,0,0)" stroke-width="1.5"/>
<polygon points=" 523,248 537,248 537,272 523,272" fill="rgb(255,255,170)"/>
<text x="525.0" y="265.0" font-family="courier" font-size="16" fill="rgb(0,0,0)">Y</text>
<polygon points=" 513,208 547,208 547,232 513,232" fill="rgb(255,255,170)"/>
<text x="515.0" y="225.0" font-family="courier" font-size="16" fill="rgb(0,0,0)">Var</text>
<line x1="530.0" y1="180.0" x2="580.0" y2="220.0" stroke="rgb(255,0,0)" stroke-width="1.5"/>
<line x1="580.0" y1="220.0" x2="580.0" y2="260.0" stroke="rgb(255,0,0)" stroke-width="1.5"/>
<polygon points=" 573,248 587,248 587,272 573,272" fill="rgb(255,255,170)"/>
<text x="575.0" y="265.0" font-family="courier" font-size="16" fill="rgb(0,0,0)">Z</text>
<polygon points=" 563,208 597,208 597,232 563,232" fill="rgb(255,255,170)"/>
<text x="565.0" y="225.0" font-family="courier" font-size="16" fill="rgb(0,0,0)">Var</text>
<polygon points=" 513,168 547,168 547,192 513,192" fill="rgb(255,255,170)"/>
<text x="515.0" y="185.0" font-family="courier" font-size="16" fill="rgb(0,0,0)">:**</text>
<polygon points=" 418,128 442,128 442,152 418,152" fill="rgb(255,255,170)"/>
<text x="420.0" y="145.0" font-family="courier" font-size="16" fill="rgb(0,0,0)">:+</text>
<polygon points=" 403,88 457,88 457,112 403,112" fill="rgb(255,255,170)"/>
<text x="405.0" y="105.0" font-family="courier" font-size="16" fill="rgb(0,0,0)">evalC</text>
<line x1="492.5" y1="60.0" x2="555.0" y2="100.0" stroke="rgb(255,0,0)" stroke-width="1.5"/>
<line x1="555.0" y1="100.0" x2="480.0" y2="140.0" stroke="rgb(255,0,0)" stroke-width="1.5"/>
<polygon points=" 473,128 487,128 487,152 473,152" fill="rgb(255,255,170)"/>
<text x="475.0" y="145.0" font-family="courier" font-size="16" fill="rgb(0,0,0)">X</text>
<line x1="555.0" y1="100.0" x2="510.0" y2="140.0" stroke="rgb(255,0,0)" stroke-width="1.5"/>
<polygon points=" 503,128 517,128 517,152 503,152" fill="rgb(255,255,170)"/>
<text x="505.0" y="145.0" font-family="courier" font-size="16" fill="rgb(0,0,0)">3</text>
<line x1="555.0" y1="100.0" x2="540.0" y2="140.0" stroke="rgb(255,0,0)" stroke-width="1.5"/>
<polygon points=" 533,128 547,128 547,152 533,152" fill="rgb(255,255,170)"/>
<text x="535.0" y="145.0" font-family="courier" font-size="16" fill="rgb(0,0,0)">Y</text>
<line x1="555.0" y1="100.0" x2="570.0" y2="140.0" stroke="rgb(255,0,0)" stroke-width="1.5"/>
<polygon points=" 563,128 577,128 577,152 563,152" fill="rgb(255,255,170)"/>
<text x="565.0" y="145.0" font-family="courier" font-size="16" fill="rgb(0,0,0)">4</text>
<line x1="555.0" y1="100.0" x2="600.0" y2="140.0" stroke="rgb(255,0,0)" stroke-width="1.5"/>
<polygon points=" 593,128 607,128 607,152 593,152" fill="rgb(255,255,170)"/>
<text x="595.0" y="145.0" font-family="courier" font-size="16" fill="rgb(0,0,0)">Z</text>
<line x1="555.0" y1="100.0" x2="630.0" y2="140.0" stroke="rgb(255,0,0)" stroke-width="1.5"/>
<polygon points=" 623,128 637,128 637,152 623,152" fill="rgb(255,255,170)"/>
<text x="625.0" y="145.0" font-family="courier" font-size="16" fill="rgb(0,0,0)">5</text>
<polygon points=" 548,88 562,88 562,112 548,112" fill="rgb(255,255,170)"/>
<text x="550.0" y="105.0" font-family="courier" font-size="16" fill="rgb(0,0,0)">&#955;</text>
<polygon points=" 486,48 500,48 500,72 486,72" fill="rgb(255,255,170)"/>
<text x="487.5" y="65.0" font-family="courier" font-size="16" fill="rgb(0,0,0)">$</text>
<polygon points=" 322,8 366,8 366,32 322,32" fill="rgb(255,255,170)"/>
<text x="323.75" y="25.0" font-family="courier" font-size="16" fill="rgb(0,0,0)">pair</text></svg>