<svg xmlns="http://www.w3.org/2000/svg"
xmlns:xlink="http://www.w3.org/1999/xlink"
version="1.1" baseProfile="full"
width="686" height="360">
<line x1="344.6875" y1="20.0" x2="165.625" y2="60.0" stroke="rgb(255,0,0)" stroke-width="1.5"/>
<line x1="165.625" y1="60.0" x2="82.5" y2="100.0" stroke="rgb(255,0,0)" stroke-width="1.5"/>
<line x1="82.5" y1="100.0" x2="67.5" y2="140.0" stroke="rgb(255,0,0)" stroke-width="1.5"/>
<line x1="67.5" y1="140.0" x2="40.0" y2="180.0" stroke="rgb(255,0,0)" stroke-width="1.5"/>
<line x1="40.0" y1="180.0" x2="25.0" y2="220.0" stroke="rgb(255,0,0)" stroke-width="1.5"/>
<polygon points=" 18,208 32,208 32,232 18,232" fill="rgb(170,255,170)"/>
<text x="20.0" y="225.0" font-family="courier" font-size="16" fill="rgb(0,0,0)">X</text>
<line x1="40.0" y1="180.0" x2="55.0" y2="220.0" stroke="rgb(255,0,0)" stroke-width="1.5"/>
<polygon points=" 48,208 62,208 62,232 48,232" fill="rgb(170,255,170)"/>
<text x="50.0" y="225.0" font-family="courier" font-size="16" fill="rgb(0,0,0)">4</text>
<polygon points=" 33,168 47,168 47,192 33,192" fill="rgb(170,255,170)"/>
<text x="35.0" y="185.0" font-family="courier" font-size="16" fill="rgb(0,0,0)">&#955;</text>
<line x1="67.5" y1="140.0" x2="95.0" y2="180.0" stroke="rgb(255,0,0)" stroke-width="1.5"/>
<polygon points=" 88,168 102,168 102,192 88,192" fill="rgb(170,255,170)"/>
<text x="90.0" y="185.0" font-family="courier" font-size="16" fill="rgb(0,0,0)">X</text>
<polygon points=" 60,128 74,128 74,152 60,152" fill="rgb(170,255,170)"/>
<text x="62.5" y="145.0" font-family="courier" font-size="16" fill="rgb(0,0,0)">$</text>
<line x1="82.5" y1="100.0" x2="97.5" y2="140.0" stroke="rgb(255,0,0)" stroke-width="1.5"/>
<polygon points=" 90,128 104,128 104,152 90,152" fill="rgb(255,255,170)"/>
<text x="92.5" y="145.0" font-family="courier" font-size="16" fill="rgb(0,0,0)">4</text>
<polygon points=" 76,88 90,88 90,112 76,112" fill="rgb(255,255,170)"/>
<text x="77.5" y="105.0" font-family="courier" font-size="16" fill="rgb(0,0,0)">^</text>
<line x1="165.625" y1="60.0" x2="248.75" y2="100.0" stroke="rgb(255,0,0)" stroke-width="1.5"/>
<line x1="248.75" y1="100.0" x2="211.25" y2="140.0" stroke="rgb(255,0,0)" stroke-width="1.5"/>
<line x1="211.25" y1="140.0" x2="211.25" y2="180.0" stroke="rgb(255,0,0)" stroke-width="1.5"/>
<line x1="211.25" y1="180.0" x2="132.5" y2="220.0" stroke="rgb(255,0,0)" stroke-width="1.5"/>
<line x1="132.5" y1="220.0" x2="115.0" y2="260.0" stroke="rgb(255,0,0)" stroke-width="1.5"/>
<polygon points=" 108,248 122,248 122,272 108,272" fill="rgb(255,255,170)"/>
<text x="110.0" y="265.0" font-family="courier" font-size="16" fill="rgb(0,0,0)">5</text>
<line x1="132.5" y1="220.0" x2="150.0" y2="260.0" stroke="rgb(255,0,0)" stroke-width="1.5"/>
<line x1="150.0" y1="260.0" x2="130.0" y2="300.0" stroke="rgb(255,0,0)" stroke-width="1.5"/>
<line x1="130.0" y1="300.0" x2="130.0" y2="340.0" stroke="rgb(255,0,0)" stroke-width="1.5"/>
<polygon points=" 123,328 137,328 137,352 123,352" fill="rgb(255,255,170)"/>
<text x="125.0" y="345.0" font-family="courier" font-size="16" fill="rgb(0,0,0)">X</text>
<polygon points=" 113,288 147,288 147,312 113,312" fill="rgb(255,255,170)"/>
<text x="115.0" y="305.0" font-family="courier" font-size="16" fill="rgb(0,0,0)">Var</text>
<line x1="150.0" y1="260.0" x2="170.0" y2="300.0" stroke="rgb(255,0,0)" stroke-width="1.5"/>
<polygon points=" 163,288 177,288 177,312 163,312" fill="rgb(255,255,170)"/>
<text x="165.0" y="305.0" font-family="courier" font-size="16" fill="rgb(0,0,0)">3</text>
<polygon points=" 138,248 162,248 162,272 138,272" fill="rgb(255,255,170)"/>
<text x="140.0" y="265.0" font-family="courier" font-size="16" fill="rgb(0,0,0)">:^</text>
<polygon points=" 120,208 144,208 144,232 120,232" fill="rgb(255,255,170)"/>
<text x="122.5" y="225.0" font-family="courier" font-size="16" fill="rgb(0,0,0)">:*</text>
<line x1="211.25" y1="180.0" x2="225.0" y2="220.0" stroke="rgb(255,0,0)" stroke-width="1.5"/>
<line x1="225.0" y1="220.0" x2="205.0" y2="260.0" stroke="rgb(255,0,0)" stroke-width="1.5"/>
<polygon points=" 193,248 217,248 217,272 193,272" fill="rgb(255,255,170)"/>
<text x="195.0" y="265.0" font-family="courier" font-size="16" fill="rgb(0,0,0)">11</text>
<line x1="225.0" y1="220.0" x2="245.0" y2="260.0" stroke="rgb(255,0,0)" stroke-width="1.5"/>
<line x1="245.0" y1="260.0" x2="225.0" y2="300.0" stroke="rgb(255,0,0)" stroke-width="1.5"/>
<line x1="225.0" y1="300.0" x2="225.0" y2="340.0" stroke="rgb(255,0,0)" stroke-width="1.5"/>
<polygon points=" 218,328 232,328 232,352 218,352" fill="rgb(255,255,170)"/>
<text x="220.0" y="345.0" font-family="courier" font-size="16" fill="rgb(0,0,0)">X</text>
<polygon points=" 208,288 242,288 242,312 208,312" fill="rgb(255,255,170)"/>
<text x="210.0" y="305.0" font-family="courier" font-size="16" fill="rgb(0,0,0)">Var</text>
<line x1="245.0" y1="260.0" x2="265.0" y2="300.0" stroke="rgb(255,0,0)" stroke-width="1.5"/>
<polygon points=" 258,288 272,288 272,312 258,312" fill="rgb(255,255,170)"/>
<text x="260.0" y="305.0" font-family="courier" font-size="16" fill="rgb(0,0,0)">2</text>
<polygon points=" 233,248 257,248 257,272 233,272" fill="rgb(255,255,170)"/>
<text x="235.0" y="265.0" font-family="courier" font-size="16" fill="rgb(0,0,0)">:^</text>
<polygon points=" 213,208 237,208 237,232 213,232" fill="rgb(255,255,170)"/>
<text x="215.0" y="225.0" font-family="courier" font-size="16" fill="rgb(0,0,0)">:*</text>
<line x1="211.25" y1="180.0" x2="290.0" y2="220.0" stroke="rgb(255,0,0)" stroke-width="1.5"/>
<line x1="290.0" y1="220.0" x2="290.0" y2="260.0" stroke="rgb(255,0,0)" stroke-width="1.5"/>
<polygon points=" 273,248 307,248 307,272 273,272" fill="rgb(255,255,170)"/>
<text x="275.0" y="265.0" font-family="courier" font-size="16" fill="rgb(0,0,0)">222</text>
<polygon points=" 273,208 307,208 307,232 273,232" fill="rgb(255,255,170)"/>
<text x="275.0" y="225.0" font-family="courier" font-size="16" fill="rgb(0,0,0)">Con</text>
<polygon points=" 199,168 223,168 223,192 199,192" fill="rgb(255,255,170)"/>
<text x="201.25" y="185.0" font-family="courier" font-size="16" fill="rgb(0,0,0)">:+</text>
<polygon points=" 184,128 238,128 238,152 184,152" fill="rgb(255,255,170)"/>
<text x="186.25" y="145.0" font-family="courier" font-size="16" fill="rgb(0,0,0)">evalC</text>
<line x1="248.75" y1="100.0" x2="286.25" y2="140.0" stroke="rgb(255,0,0)" stroke-width="1.5"/>
<line x1="286.25" y1="140.0" x2="271.25" y2="180.0" stroke="rgb(255,0,0)" stroke-width="1.5"/>
<polygon points=" 264,168 278,168 278,192 264,192" fill="rgb(255,255,170)"/>
<text x="266.25" y="185.0" font-family="courier" font-size="16" fill="rgb(0,0,0)">X</text>
<line x1="286.25" y1="140.0" x2="301.25" y2="180.0" stroke="rgb(255,0,0)" stroke-width="1.5"/>
<polygon points=" 294,168 308,168 308,192 294,192" fill="rgb(255,255,170)"/>
<text x="296.25" y="185.0" font-family="courier" font-size="16" fill="rgb(0,0,0)">4</text>
<polygon points=" 279,128 293,128 293,152 279,152" fill="rgb(255,255,170)"/>
<text x="281.25" y="145.0" font-family="courier" font-size="16" fill="rgb(0,0,0)">&#955;</text>
<polygon points=" 242,88 256,88 256,112 242,112" fill="rgb(255,255,170)"/>
<text x="243.75" y="105.0" font-family="courier" font-size="16" fill="rgb(0,0,0)">$</text>
<polygon points=" 159,48 173,48 173,72 159,72" fill="rgb(255,255,170)"/>
<text x="160.625" y="65.0" font-family="courier" font-size="16" fill="rgb(0,0,0)">+</text>
<line x1="344.6875" y1="20.0" x2="523.75" y2="60.0" stroke="rgb(255,0,0)" stroke-width="1.5"/>
<line x1="523.75" y1="60.0" x2="461.25" y2="100.0" stroke="rgb(255,0,0)" stroke-width="1.5"/>
<line x1="461.25" y1="100.0" x2="461.25" y2="140.0" stroke="rgb(255,0,0)" stroke-width="1.5"/>
<line x1="461.25" y1="140.0" x2="361.25" y2="180.0" stroke="rgb(255,0,0)" stroke-width="1.5"/>
<line x1="361.25" y1="180.0" x2="341.25" y2="220.0" stroke="rgb(255,0,0)" stroke-width="1.5"/>
<polygon points=" 334,208 348,208 348,232 334,232" fill="rgb(255,255,170)"/>
<text x="336.25" y="225.0" font-family="courier" font-size="16" fill="rgb(0,0,0)">5</text>
<line x1="361.25" y1="180.0" x2="381.25" y2="220.0" stroke="rgb(255,0,0)" stroke-width="1.5"/>
<line x1="381.25" y1="220.0" x2="381.25" y2="260.0" stroke="rgb(255,0,0)" stroke-width="1.5"/>
<polygon points=" 369,248 393,248 393,272 369,272" fill="rgb(255,255,170)"/>
<text x="371.25" y="265.0" font-family="courier" font-size="16" fill="rgb(0,0,0)">11</text>
<polygon points=" 364,208 398,208 398,232 364,232" fill="rgb(255,255,170)"/>
<text x="366.25" y="225.0" font-family="courier" font-size="16" fill="rgb(0,0,0)">Con</text>
<polygon points=" 349,168 373,168 373,192 349,192" fill="rgb(255,255,170)"/>
<text x="351.25" y="185.0" font-family="courier" font-size="16" fill="rgb(0,0,0)">:*</text>
<line x1="461.25" y1="140.0" x2="441.25" y2="180.0" stroke="rgb(255,0,0)" stroke-width="1.5"/>
<line x1="441.25" y1="180.0" x2="421.25" y2="220.0" stroke="rgb(255,0,0)" stroke-width="1.5"/>
<polygon points=" 414,208 428,208 428,232 414,232" fill="rgb(255,255,170)"/>
<text x="416.25" y="225.0" font-family="courier" font-size="16" fill="rgb(0,0,0)">6</text>
<line x1="441.25" y1="180.0" x2="461.25" y2="220.0" stroke="rgb(255,0,0)" stroke-width="1.5"/>
<line x1="461.25" y1="220.0" x2="461.25" y2="260.0" stroke="rgb(255,0,0)" stroke-width="1.5"/>
<polygon points=" 449,248 473,248 473,272 449,272" fill="rgb(255,255,170)"/>
<text x="451.25" y="265.0" font-family="courier" font-size="16" fill="rgb(0,0,0)">12</text>
<polygon points=" 444,208 478,208 478,232 444,232" fill="rgb(255,255,170)"/>
<text x="446.25" y="225.0" font-family="courier" font-size="16" fill="rgb(0,0,0)">Con</text>
<polygon points=" 429,168 453,168 453,192 429,192" fill="rgb(255,255,170)"/>
<text x="431.25" y="185.0" font-family="courier" font-size="16" fill="rgb(0,0,0)">:*</text>
<line x1="461.25" y1="140.0" x2="561.25" y2="180.0" stroke="rgb(255,0,0)" stroke-width="1.5"/>
<line x1="561.25" y1="180.0" x2="511.25" y2="220.0" stroke="rgb(255,0,0)" stroke-width="1.5"/>
<line x1="511.25" y1="220.0" x2="511.25" y2="260.0" stroke="rgb(255,0,0)" stroke-width="1.5"/>
<polygon points=" 504,248 518,248 518,272 504,272" fill="rgb(255,255,170)"/>
<text x="506.25" y="265.0" font-family="courier" font-size="16" fill="rgb(0,0,0)">X</text>
<polygon points=" 494,208 528,208 528,232 494,232" fill="rgb(255,255,170)"/>
<text x="496.25" y="225.0" font-family="courier" font-size="16" fill="rgb(0,0,0)">Var</text>
<line x1="561.25" y1="180.0" x2="561.25" y2="220.0" stroke="rgb(255,0,0)" stroke-width="1.5"/>
<line x1="561.25" y1="220.0" x2="561.25" y2="260.0" stroke="rgb(255,0,0)" stroke-width="1.5"/>
<polygon points=" 554,248 568,248 568,272 554,272" fill="rgb(255,255,170)"/>
<text x="556.25" y="265.0" font-family="courier" font-size="16" fill="rgb(0,0,0)">Y</text>
<polygon points=" 544,208 578,208 578,232 544,232" fill="rgb(255,255,170)"/>
<text x="546.25" y="225.0" font-family="courier" font-size="16" fill="rgb(0,0,0)">Var</text>
<line x1="561.25" y1="180.0" x2="611.25" y2="220.0" stroke="rgb(255,0,0)" stroke-width="1.5"/>
<line x1="611.25" y1="220.0" x2="611.25" y2="260.0" stroke="rgb(255,0,0)" stroke-width="1.5"/>
<polygon points=" 604,248 618,248 618,272 604,272" fill="rgb(255,255,170)"/>
<text x="606.25" y="265.0" font-family="courier" font-size="16" fill="rgb(0,0,0)">Z</text>
<polygon points=" 594,208 628,208 628,232 594,232" fill="rgb(255,255,170)"/>
<text x="596.25" y="225.0" font-family="courier" font-size="16" fill="rgb(0,0,0)">Var</text>
<polygon points=" 544,168 578,168 578,192 544,192" fill="rgb(255,255,170)"/>
<text x="546.25" y="185.0" font-family="courier" font-size="16" fill="rgb(0,0,0)">:**</text>
<polygon points=" 449,128 473,128 473,152 449,152" fill="rgb(255,255,170)"/>
<text x="451.25" y="145.0" font-family="courier" font-size="16" fill="rgb(0,0,0)">:+</text>
<polygon points=" 434,88 488,88 488,112 434,112" fill="rgb(255,255,170)"/>
<text x="436.25" y="105.0" font-family="courier" font-size="16" fill="rgb(0,0,0)">evalC</text>
<line x1="523.75" y1="60.0" x2="586.25" y2="100.0" stroke="rgb(255,0,0)" stroke-width="1.5"/>
<line x1="586.25" y1="100.0" x2="511.25" y2="140.0" stroke="rgb(255,0,0)" stroke-width="1.5"/>
<polygon points=" 504,128 518,128 518,152 504,152" fill="rgb(255,255,170)"/>
<text x="506.25" y="145.0" font-family="courier" font-size="16" fill="rgb(0,0,0)">X</text>
<line x1="586.25" y1="100.0" x2="541.25" y2="140.0" stroke="rgb(255,0,0)" stroke-width="1.5"/>
<polygon points=" 534,128 548,128 548,152 534,152" fill="rgb(255,255,170)"/>
<text x="536.25" y="145.0" font-family="courier" font-size="16" fill="rgb(0,0,0)">3</text>
<line x1="586.25" y1="100.0" x2="571.25" y2="140.0" stroke="rgb(255,0,0)" stroke-width="1.5"/>
<polygon points=" 564,128 578,128 578,152 564,152" fill="rgb(255,255,170)"/>
<text x="566.25" y="145.0" font-family="courier" font-size="16" fill="rgb(0,0,0)">Y</text>
<line x1="586.25" y1="100.0" x2="601.25" y2="140.0" stroke="rgb(255,0,0)" stroke-width="1.5"/>
<polygon points=" 594,128 608,128 608,152 594,152" fill="rgb(255,255,170)"/>
<text x="596.25" y="145.0" font-family="courier" font-size="16" fill="rgb(0,0,0)">4</text>
<line x1="586.25" y1="100.0" x2="631.25" y2="140.0" stroke="rgb(255,0,0)" stroke-width="1.5"/>
<polygon points=" 624,128 638,128 638,152 624,152" fill="rgb(255,255,170)"/>
<text x="626.25" y="145.0" font-family="courier" font-size="16" fill="rgb(0,0,0)">Z</text>
<line x1="586.25" y1="100.0" x2="661.25" y2="140.0" stroke="rgb(255,0,0)" stroke-width="1.5"/>
<polygon points=" 654,128 668,128 668,152 654,152" fill="rgb(255,255,170)"/>
<text x="656.25" y="145.0" font-family="courier" font-size="16" fill="rgb(0,0,0)">5</text>
<polygon points=" 579,88 593,88 593,112 579,112" fill="rgb(255,255,170)"/>
<text x="581.25" y="105.0" font-family="courier" font-size="16" fill="rgb(0,0,0)">&#955;</text>
<polygon points=" 517,48 531,48 531,72 517,72" fill="rgb(255,255,170)"/>
<text x="518.75" y="65.0" font-family="courier" font-size="16" fill="rgb(0,0,0)">$</text>
<polygon points=" 323,8 367,8 367,32 323,32" fill="rgb(255,255,170)"/>
<text x="324.6875" y="25.0" font-family="courier" font-size="16" fill="rgb(0,0,0)">pair</text></svg>