<svg xmlns="http://www.w3.org/2000/svg"
xmlns:xlink="http://www.w3.org/1999/xlink"
version="1.1" baseProfile="full"
width="688" height="400">
<line x1="308.90625" y1="20.0" x2="92.8125" y2="60.0" stroke="rgb(255,0,0)" stroke-width="1.5"/>
<line x1="92.8125" y1="60.0" x2="35.0" y2="100.0" stroke="rgb(255,0,0)" stroke-width="1.5"/>
<polygon points=" 18,88 52,88 52,112 18,112" fill="rgb(255,255,170)"/>
<text x="20.0" y="105.0" font-family="courier" font-size="16" fill="rgb(0,0,0)">256</text>
<line x1="92.8125" y1="60.0" x2="150.625" y2="100.0" stroke="rgb(255,0,0)" stroke-width="1.5"/>
<line x1="150.625" y1="100.0" x2="51.25" y2="140.0" stroke="rgb(255,0,0)" stroke-width="1.5"/>
<line x1="51.25" y1="140.0" x2="25.0" y2="180.0" stroke="rgb(255,0,0)" stroke-width="1.5"/>
<polygon points=" 18,168 32,168 32,192 18,192" fill="rgb(255,255,170)"/>
<text x="20.0" y="185.0" font-family="courier" font-size="16" fill="rgb(0,0,0)">5</text>
<line x1="51.25" y1="140.0" x2="77.5" y2="180.0" stroke="rgb(255,0,0)" stroke-width="1.5"/>
<line x1="77.5" y1="180.0" x2="62.5" y2="220.0" stroke="rgb(255,0,0)" stroke-width="1.5"/>
<line x1="62.5" y1="220.0" x2="25.0" y2="260.0" stroke="rgb(255,0,0)" stroke-width="1.5"/>
<line x1="25.0" y1="260.0" x2="25.0" y2="300.0" stroke="rgb(255,0,0)" stroke-width="1.5"/>
<line x1="25.0" y1="300.0" x2="25.0" y2="340.0" stroke="rgb(255,0,0)" stroke-width="1.5"/>
<polygon points=" 18,328 32,328 32,352 18,352" fill="rgb(255,170,170)"/>
<text x="20.0" y="345.0" font-family="courier" font-size="16" fill="rgb(0,0,0)">X</text>
<polygon points=" 8,288 42,288 42,312 8,312" fill="rgb(255,170,170)"/>
<text x="10.0" y="305.0" font-family="courier" font-size="16" fill="rgb(0,0,0)">Var</text>
<polygon points=" -2,248 52,248 52,272 -2,272" fill="rgb(255,170,170)"/>
<text x="0.0" y="265.0" font-family="courier" font-size="16" fill="rgb(0,0,0)">evalC</text>
<line x1="62.5" y1="220.0" x2="100.0" y2="260.0" stroke="rgb(255,0,0)" stroke-width="1.5"/>
<line x1="100.0" y1="260.0" x2="85.0" y2="300.0" stroke="rgb(255,0,0)" stroke-width="1.5"/>
<polygon points=" 78,288 92,288 92,312 78,312" fill="rgb(255,170,170)"/>
<text x="80.0" y="305.0" font-family="courier" font-size="16" fill="rgb(0,0,0)">X</text>
<line x1="100.0" y1="260.0" x2="115.0" y2="300.0" stroke="rgb(255,0,0)" stroke-width="1.5"/>
<polygon points=" 108,288 122,288 122,312 108,312" fill="rgb(255,170,170)"/>
<text x="110.0" y="305.0" font-family="courier" font-size="16" fill="rgb(0,0,0)">4</text>
<polygon points=" 93,248 107,248 107,272 93,272" fill="rgb(255,170,170)"/>
<text x="95.0" y="265.0" font-family="courier" font-size="16" fill="rgb(0,0,0)">&#955;</text>
<polygon points=" 56,208 70,208 70,232 56,232" fill="rgb(255,170,170)"/>
<text x="57.5" y="225.0" font-family="courier" font-size="16" fill="rgb(0,0,0)">$</text>
<line x1="77.5" y1="180.0" x2="92.5" y2="220.0" stroke="rgb(255,0,0)" stroke-width="1.5"/>
<polygon points=" 86,208 100,208 100,232 86,232" fill="rgb(255,255,170)"/>
<text x="87.5" y="225.0" font-family="courier" font-size="16" fill="rgb(0,0,0)">3</text>
<polygon points=" 70,168 84,168 84,192 70,192" fill="rgb(255,255,170)"/>
<text x="72.5" y="185.0" font-family="courier" font-size="16" fill="rgb(0,0,0)">^</text>
<polygon points=" 44,128 58,128 58,152 44,152" fill="rgb(255,255,170)"/>
<text x="46.25" y="145.0" font-family="courier" font-size="16" fill="rgb(0,0,0)">*</text>
<line x1="150.625" y1="100.0" x2="250.0" y2="140.0" stroke="rgb(255,0,0)" stroke-width="1.5"/>
<line x1="250.0" y1="140.0" x2="212.5" y2="180.0" stroke="rgb(255,0,0)" stroke-width="1.5"/>
<line x1="212.5" y1="180.0" x2="212.5" y2="220.0" stroke="rgb(255,0,0)" stroke-width="1.5"/>
<line x1="212.5" y1="220.0" x2="180.0" y2="260.0" stroke="rgb(255,0,0)" stroke-width="1.5"/>
<line x1="180.0" y1="260.0" x2="160.0" y2="300.0" stroke="rgb(255,0,0)" stroke-width="1.5"/>
<polygon points=" 148,288 172,288 172,312 148,312" fill="rgb(255,255,170)"/>
<text x="150.0" y="305.0" font-family="courier" font-size="16" fill="rgb(0,0,0)">11</text>
<line x1="180.0" y1="260.0" x2="200.0" y2="300.0" stroke="rgb(255,0,0)" stroke-width="1.5"/>
<line x1="200.0" y1="300.0" x2="180.0" y2="340.0" stroke="rgb(255,0,0)" stroke-width="1.5"/>
<line x1="180.0" y1="340.0" x2="180.0" y2="380.0" stroke="rgb(255,0,0)" stroke-width="1.5"/>
<polygon points=" 173,368 187,368 187,392 173,392" fill="rgb(255,255,170)"/>
<text x="175.0" y="385.0" font-family="courier" font-size="16" fill="rgb(0,0,0)">X</text>
<polygon points=" 163,328 197,328 197,352 163,352" fill="rgb(255,255,170)"/>
<text x="165.0" y="345.0" font-family="courier" font-size="16" fill="rgb(0,0,0)">Var</text>
<line x1="200.0" y1="300.0" x2="220.0" y2="340.0" stroke="rgb(255,0,0)" stroke-width="1.5"/>
<polygon points=" 213,328 227,328 227,352 213,352" fill="rgb(255,255,170)"/>
<text x="215.0" y="345.0" font-family="courier" font-size="16" fill="rgb(0,0,0)">2</text>
<polygon points=" 188,288 212,288 212,312 188,312" fill="rgb(255,255,170)"/>
<text x="190.0" y="305.0" font-family="courier" font-size="16" fill="rgb(0,0,0)">:^</text>
<polygon points=" 168,248 192,248 192,272 168,272" fill="rgb(255,255,170)"/>
<text x="170.0" y="265.0" font-family="courier" font-size="16" fill="rgb(0,0,0)">:*</text>
<line x1="212.5" y1="220.0" x2="245.0" y2="260.0" stroke="rgb(255,0,0)" stroke-width="1.5"/>
<line x1="245.0" y1="260.0" x2="245.0" y2="300.0" stroke="rgb(255,0,0)" stroke-width="1.5"/>
<polygon points=" 228,288 262,288 262,312 228,312" fill="rgb(255,255,170)"/>
<text x="230.0" y="305.0" font-family="courier" font-size="16" fill="rgb(0,0,0)">222</text>
<polygon points=" 228,248 262,248 262,272 228,272" fill="rgb(255,255,170)"/>
<text x="230.0" y="265.0" font-family="courier" font-size="16" fill="rgb(0,0,0)">Con</text>
<polygon points=" 200,208 224,208 224,232 200,232" fill="rgb(255,255,170)"/>
<text x="202.5" y="225.0" font-family="courier" font-size="16" fill="rgb(0,0,0)">:+</text>
<polygon points=" 186,168 240,168 240,192 186,192" fill="rgb(255,255,170)"/>
<text x="187.5" y="185.0" font-family="courier" font-size="16" fill="rgb(0,0,0)">evalC</text>
<line x1="250.0" y1="140.0" x2="287.5" y2="180.0" stroke="rgb(255,0,0)" stroke-width="1.5"/>
<line x1="287.5" y1="180.0" x2="272.5" y2="220.0" stroke="rgb(255,0,0)" stroke-width="1.5"/>
<polygon points=" 266,208 280,208 280,232 266,232" fill="rgb(255,255,170)"/>
<text x="267.5" y="225.0" font-family="courier" font-size="16" fill="rgb(0,0,0)">X</text>
<line x1="287.5" y1="180.0" x2="302.5" y2="220.0" stroke="rgb(255,0,0)" stroke-width="1.5"/>
<polygon points=" 296,208 310,208 310,232 296,232" fill="rgb(255,255,170)"/>
<text x="297.5" y="225.0" font-family="courier" font-size="16" fill="rgb(0,0,0)">4</text>
<polygon points=" 280,168 294,168 294,192 280,192" fill="rgb(255,255,170)"/>
<text x="282.5" y="185.0" font-family="courier" font-size="16" fill="rgb(0,0,0)">&#955;</text>
<polygon points=" 243,128 257,128 257,152 243,152" fill="rgb(255,255,170)"/>
<text x="245.0" y="145.0" font-family="courier" font-size="16" fill="rgb(0,0,0)">$</text>
<polygon points=" 144,88 158,88 158,112 144,112" fill="rgb(255,255,170)"/>
<text x="145.625" y="105.0" font-family="courier" font-size="16" fill="rgb(0,0,0)">+</text>
<polygon points=" 86,48 100,48 100,72 86,72" fill="rgb(255,255,170)"/>
<text x="87.8125" y="65.0" font-family="courier" font-size="16" fill="rgb(0,0,0)">+</text>
<line x1="308.90625" y1="20.0" x2="525.0" y2="60.0" stroke="rgb(255,0,0)" stroke-width="1.5"/>
<line x1="525.0" y1="60.0" x2="462.5" y2="100.0" stroke="rgb(255,0,0)" stroke-width="1.5"/>
<line x1="462.5" y1="100.0" x2="462.5" y2="140.0" stroke="rgb(255,0,0)" stroke-width="1.5"/>
<line x1="462.5" y1="140.0" x2="362.5" y2="180.0" stroke="rgb(255,0,0)" stroke-width="1.5"/>
<line x1="362.5" y1="180.0" x2="342.5" y2="220.0" stroke="rgb(255,0,0)" stroke-width="1.5"/>
<polygon points=" 336,208 350,208 350,232 336,232" fill="rgb(255,255,170)"/>
<text x="337.5" y="225.0" font-family="courier" font-size="16" fill="rgb(0,0,0)">5</text>
<line x1="362.5" y1="180.0" x2="382.5" y2="220.0" stroke="rgb(255,0,0)" stroke-width="1.5"/>
<line x1="382.5" y1="220.0" x2="382.5" y2="260.0" stroke="rgb(255,0,0)" stroke-width="1.5"/>
<polygon points=" 370,248 394,248 394,272 370,272" fill="rgb(255,255,170)"/>
<text x="372.5" y="265.0" font-family="courier" font-size="16" fill="rgb(0,0,0)">11</text>
<polygon points=" 366,208 400,208 400,232 366,232" fill="rgb(255,255,170)"/>
<text x="367.5" y="225.0" font-family="courier" font-size="16" fill="rgb(0,0,0)">Con</text>
<polygon points=" 350,168 374,168 374,192 350,192" fill="rgb(255,255,170)"/>
<text x="352.5" y="185.0" font-family="courier" font-size="16" fill="rgb(0,0,0)">:*</text>
<line x1="462.5" y1="140.0" x2="442.5" y2="180.0" stroke="rgb(255,0,0)" stroke-width="1.5"/>
<line x1="442.5" y1="180.0" x2="422.5" y2="220.0" stroke="rgb(255,0,0)" stroke-width="1.5"/>
<polygon points=" 416,208 430,208 430,232 416,232" fill="rgb(255,255,170)"/>
<text x="417.5" y="225.0" font-family="courier" font-size="16" fill="rgb(0,0,0)">6</text>
<line x1="442.5" y1="180.0" x2="462.5" y2="220.0" stroke="rgb(255,0,0)" stroke-width="1.5"/>
<line x1="462.5" y1="220.0" x2="462.5" y2="260.0" stroke="rgb(255,0,0)" stroke-width="1.5"/>
<polygon points=" 450,248 474,248 474,272 450,272" fill="rgb(255,255,170)"/>
<text x="452.5" y="265.0" font-family="courier" font-size="16" fill="rgb(0,0,0)">12</text>
<polygon points=" 446,208 480,208 480,232 446,232" fill="rgb(255,255,170)"/>
<text x="447.5" y="225.0" font-family="courier" font-size="16" fill="rgb(0,0,0)">Con</text>
<polygon points=" 430,168 454,168 454,192 430,192" fill="rgb(255,255,170)"/>
<text x="432.5" y="185.0" font-family="courier" font-size="16" fill="rgb(0,0,0)">:*</text>
<line x1="462.5" y1="140.0" x2="562.5" y2="180.0" stroke="rgb(255,0,0)" stroke-width="1.5"/>
<line x1="562.5" y1="180.0" x2="512.5" y2="220.0" stroke="rgb(255,0,0)" stroke-width="1.5"/>
<line x1="512.5" y1="220.0" x2="512.5" y2="260.0" stroke="rgb(255,0,0)" stroke-width="1.5"/>
<polygon points=" 506,248 520,248 520,272 506,272" fill="rgb(255,255,170)"/>
<text x="507.5" y="265.0" font-family="courier" font-size="16" fill="rgb(0,0,0)">X</text>
<polygon points=" 496,208 530,208 530,232 496,232" fill="rgb(255,255,170)"/>
<text x="497.5" y="225.0" font-family="courier" font-size="16" fill="rgb(0,0,0)">Var</text>
<line x1="562.5" y1="180.0" x2="562.5" y2="220.0" stroke="rgb(255,0,0)" stroke-width="1.5"/>
<line x1="562.5" y1="220.0" x2="562.5" y2="260.0" stroke="rgb(255,0,0)" stroke-width="1.5"/>
<polygon points=" 556,248 570,248 570,272 556,272" fill="rgb(255,255,170)"/>
<text x="557.5" y="265.0" font-family="courier" font-size="16" fill="rgb(0,0,0)">Y</text>
<polygon points=" 546,208 580,208 580,232 546,232" fill="rgb(255,255,170)"/>
<text x="547.5" y="225.0" font-family="courier" font-size="16" fill="rgb(0,0,0)">Var</text>
<line x1="562.5" y1="180.0" x2="612.5" y2="220.0" stroke="rgb(255,0,0)" stroke-width="1.5"/>
<line x1="612.5" y1="220.0" x2="612.5" y2="260.0" stroke="rgb(255,0,0)" stroke-width="1.5"/>
<polygon points=" 606,248 620,248 620,272 606,272" fill="rgb(255,255,170)"/>
<text x="607.5" y="265.0" font-family="courier" font-size="16" fill="rgb(0,0,0)">Z</text>
<polygon points=" 596,208 630,208 630,232 596,232" fill="rgb(255,255,170)"/>
<text x="597.5" y="225.0" font-family="courier" font-size="16" fill="rgb(0,0,0)">Var</text>
<polygon points=" 546,168 580,168 580,192 546,192" fill="rgb(255,255,170)"/>
<text x="547.5" y="185.0" font-family="courier" font-size="16" fill="rgb(0,0,0)">:**</text>
<polygon points=" 450,128 474,128 474,152 450,152" fill="rgb(255,255,170)"/>
<text x="452.5" y="145.0" font-family="courier" font-size="16" fill="rgb(0,0,0)">:+</text>
<polygon points=" 436,88 490,88 490,112 436,112" fill="rgb(255,255,170)"/>
<text x="437.5" y="105.0" font-family="courier" font-size="16" fill="rgb(0,0,0)">evalC</text>
<line x1="525.0" y1="60.0" x2="587.5" y2="100.0" stroke="rgb(255,0,0)" stroke-width="1.5"/>
<line x1="587.5" y1="100.0" x2="512.5" y2="140.0" stroke="rgb(255,0,0)" stroke-width="1.5"/>
<polygon points=" 506,128 520,128 520,152 506,152" fill="rgb(255,255,170)"/>
<text x="507.5" y="145.0" font-family="courier" font-size="16" fill="rgb(0,0,0)">X</text>
<line x1="587.5" y1="100.0" x2="542.5" y2="140.0" stroke="rgb(255,0,0)" stroke-width="1.5"/>
<polygon points=" 536,128 550,128 550,152 536,152" fill="rgb(255,255,170)"/>
<text x="537.5" y="145.0" font-family="courier" font-size="16" fill="rgb(0,0,0)">3</text>
<line x1="587.5" y1="100.0" x2="572.5" y2="140.0" stroke="rgb(255,0,0)" stroke-width="1.5"/>
<polygon points=" 566,128 580,128 580,152 566,152" fill="rgb(255,255,170)"/>
<text x="567.5" y="145.0" font-family="courier" font-size="16" fill="rgb(0,0,0)">Y</text>
<line x1="587.5" y1="100.0" x2="602.5" y2="140.0" stroke="rgb(255,0,0)" stroke-width="1.5"/>
<polygon points=" 596,128 610,128 610,152 596,152" fill="rgb(255,255,170)"/>
<text x="597.5" y="145.0" font-family="courier" font-size="16" fill="rgb(0,0,0)">4</text>
<line x1="587.5" y1="100.0" x2="632.5" y2="140.0" stroke="rgb(255,0,0)" stroke-width="1.5"/>
<polygon points=" 626,128 640,128 640,152 626,152" fill="rgb(255,255,170)"/>
<text x="627.5" y="145.0" font-family="courier" font-size="16" fill="rgb(0,0,0)">Z</text>
<line x1="587.5" y1="100.0" x2="662.5" y2="140.0" stroke="rgb(255,0,0)" stroke-width="1.5"/>
<polygon points=" 656,128 670,128 670,152 656,152" fill="rgb(255,255,170)"/>
<text x="657.5" y="145.0" font-family="courier" font-size="16" fill="rgb(0,0,0)">5</text>
<polygon points=" 580,88 594,88 594,112 580,112" fill="rgb(255,255,170)"/>
<text x="582.5" y="105.0" font-family="courier" font-size="16" fill="rgb(0,0,0)">&#955;</text>
<polygon points=" 518,48 532,48 532,72 518,72" fill="rgb(255,255,170)"/>
<text x="520.0" y="65.0" font-family="courier" font-size="16" fill="rgb(0,0,0)">$</text>
<polygon points=" 287,8 331,8 331,32 287,32" fill="rgb(255,255,170)"/>
<text x="288.90625" y="25.0" font-family="courier" font-size="16" fill="rgb(0,0,0)">pair</text></svg>