<svg xmlns="http://www.w3.org/2000/svg"
xmlns:xlink="http://www.w3.org/1999/xlink"
version="1.1" baseProfile="full"
width="660" height="400">
<line x1="292.03125" y1="20.0" x2="86.5625" y2="60.0" stroke="rgb(255,0,0)" stroke-width="1.5"/>
<line x1="86.5625" y1="60.0" x2="35.0" y2="100.0" stroke="rgb(255,0,0)" stroke-width="1.5"/>
<polygon points=" 18,88 52,88 52,112 18,112" fill="rgb(255,255,170)"/>
<text x="20.0" y="105.0" font-family="courier" font-size="16" fill="rgb(0,0,0)">256</text>
<line x1="86.5625" y1="60.0" x2="138.125" y2="100.0" stroke="rgb(255,0,0)" stroke-width="1.5"/>
<line x1="138.125" y1="100.0" x2="53.75" y2="140.0" stroke="rgb(255,0,0)" stroke-width="1.5"/>
<line x1="53.75" y1="140.0" x2="25.0" y2="180.0" stroke="rgb(255,0,0)" stroke-width="1.5"/>
<polygon points=" 18,168 32,168 32,192 18,192" fill="rgb(255,255,170)"/>
<text x="20.0" y="185.0" font-family="courier" font-size="16" fill="rgb(0,0,0)">5</text>
<line x1="53.75" y1="140.0" x2="82.5" y2="180.0" stroke="rgb(255,0,0)" stroke-width="1.5"/>
<line x1="82.5" y1="180.0" x2="67.5" y2="220.0" stroke="rgb(255,0,0)" stroke-width="1.5"/>
<line x1="67.5" y1="220.0" x2="40.0" y2="260.0" stroke="rgb(255,0,0)" stroke-width="1.5"/>
<line x1="40.0" y1="260.0" x2="25.0" y2="300.0" stroke="rgb(255,0,0)" stroke-width="1.5"/>
<polygon points=" 18,288 32,288 32,312 18,312" fill="rgb(255,170,170)"/>
<text x="20.0" y="305.0" font-family="courier" font-size="16" fill="rgb(0,0,0)">X</text>
<line x1="40.0" y1="260.0" x2="55.0" y2="300.0" stroke="rgb(255,0,0)" stroke-width="1.5"/>
<polygon points=" 48,288 62,288 62,312 48,312" fill="rgb(255,170,170)"/>
<text x="50.0" y="305.0" font-family="courier" font-size="16" fill="rgb(0,0,0)">4</text>
<polygon points=" 33,248 47,248 47,272 33,272" fill="rgb(255,170,170)"/>
<text x="35.0" y="265.0" font-family="courier" font-size="16" fill="rgb(0,0,0)">&#955;</text>
<line x1="67.5" y1="220.0" x2="95.0" y2="260.0" stroke="rgb(255,0,0)" stroke-width="1.5"/>
<polygon points=" 88,248 102,248 102,272 88,272" fill="rgb(255,170,170)"/>
<text x="90.0" y="265.0" font-family="courier" font-size="16" fill="rgb(0,0,0)">X</text>
<polygon points=" 60,208 74,208 74,232 60,232" fill="rgb(255,170,170)"/>
<text x="62.5" y="225.0" font-family="courier" font-size="16" fill="rgb(0,0,0)">$</text>
<line x1="82.5" y1="180.0" x2="97.5" y2="220.0" stroke="rgb(255,0,0)" stroke-width="1.5"/>
<polygon points=" 90,208 104,208 104,232 90,232" fill="rgb(255,255,170)"/>
<text x="92.5" y="225.0" font-family="courier" font-size="16" fill="rgb(0,0,0)">3</text>
<polygon points=" 76,168 90,168 90,192 76,192" fill="rgb(255,255,170)"/>
<text x="77.5" y="185.0" font-family="courier" font-size="16" fill="rgb(0,0,0)">^</text>
<polygon points=" 47,128 61,128 61,152 47,152" fill="rgb(255,255,170)"/>
<text x="48.75" y="145.0" font-family="courier" font-size="16" fill="rgb(0,0,0)">*</text>
<line x1="138.125" y1="100.0" x2="222.5" y2="140.0" stroke="rgb(255,0,0)" stroke-width="1.5"/>
<line x1="222.5" y1="140.0" x2="185.0" y2="180.0" stroke="rgb(255,0,0)" stroke-width="1.5"/>
<line x1="185.0" y1="180.0" x2="185.0" y2="220.0" stroke="rgb(255,0,0)" stroke-width="1.5"/>
<line x1="185.0" y1="220.0" x2="152.5" y2="260.0" stroke="rgb(255,0,0)" stroke-width="1.5"/>
<line x1="152.5" y1="260.0" x2="132.5" y2="300.0" stroke="rgb(255,0,0)" stroke-width="1.5"/>
<polygon points=" 120,288 144,288 144,312 120,312" fill="rgb(255,255,170)"/>
<text x="122.5" y="305.0" font-family="courier" font-size="16" fill="rgb(0,0,0)">11</text>
<line x1="152.5" y1="260.0" x2="172.5" y2="300.0" stroke="rgb(255,0,0)" stroke-width="1.5"/>
<line x1="172.5" y1="300.0" x2="152.5" y2="340.0" stroke="rgb(255,0,0)" stroke-width="1.5"/>
<line x1="152.5" y1="340.0" x2="152.5" y2="380.0" stroke="rgb(255,0,0)" stroke-width="1.5"/>
<polygon points=" 146,368 160,368 160,392 146,392" fill="rgb(255,255,170)"/>
<text x="147.5" y="385.0" font-family="courier" font-size="16" fill="rgb(0,0,0)">X</text>
<polygon points=" 136,328 170,328 170,352 136,352" fill="rgb(255,255,170)"/>
<text x="137.5" y="345.0" font-family="courier" font-size="16" fill="rgb(0,0,0)">Var</text>
<line x1="172.5" y1="300.0" x2="192.5" y2="340.0" stroke="rgb(255,0,0)" stroke-width="1.5"/>
<polygon points=" 186,328 200,328 200,352 186,352" fill="rgb(255,255,170)"/>
<text x="187.5" y="345.0" font-family="courier" font-size="16" fill="rgb(0,0,0)">2</text>
<polygon points=" 160,288 184,288 184,312 160,312" fill="rgb(255,255,170)"/>
<text x="162.5" y="305.0" font-family="courier" font-size="16" fill="rgb(0,0,0)">:^</text>
<polygon points=" 140,248 164,248 164,272 140,272" fill="rgb(255,255,170)"/>
<text x="142.5" y="265.0" font-family="courier" font-size="16" fill="rgb(0,0,0)">:*</text>
<line x1="185.0" y1="220.0" x2="217.5" y2="260.0" stroke="rgb(255,0,0)" stroke-width="1.5"/>
<line x1="217.5" y1="260.0" x2="217.5" y2="300.0" stroke="rgb(255,0,0)" stroke-width="1.5"/>
<polygon points=" 200,288 234,288 234,312 200,312" fill="rgb(255,255,170)"/>
<text x="202.5" y="305.0" font-family="courier" font-size="16" fill="rgb(0,0,0)">222</text>
<polygon points=" 200,248 234,248 234,272 200,272" fill="rgb(255,255,170)"/>
<text x="202.5" y="265.0" font-family="courier" font-size="16" fill="rgb(0,0,0)">Con</text>
<polygon points=" 173,208 197,208 197,232 173,232" fill="rgb(255,255,170)"/>
<text x="175.0" y="225.0" font-family="courier" font-size="16" fill="rgb(0,0,0)">:+</text>
<polygon points=" 158,168 212,168 212,192 158,192" fill="rgb(255,255,170)"/>
<text x="160.0" y="185.0" font-family="courier" font-size="16" fill="rgb(0,0,0)">evalC</text>
<line x1="222.5" y1="140.0" x2="260.0" y2="180.0" stroke="rgb(255,0,0)" stroke-width="1.5"/>
<line x1="260.0" y1="180.0" x2="245.0" y2="220.0" stroke="rgb(255,0,0)" stroke-width="1.5"/>
<polygon points=" 238,208 252,208 252,232 238,232" fill="rgb(255,255,170)"/>
<text x="240.0" y="225.0" font-family="courier" font-size="16" fill="rgb(0,0,0)">X</text>
<line x1="260.0" y1="180.0" x2="275.0" y2="220.0" stroke="rgb(255,0,0)" stroke-width="1.5"/>
<polygon points=" 268,208 282,208 282,232 268,232" fill="rgb(255,255,170)"/>
<text x="270.0" y="225.0" font-family="courier" font-size="16" fill="rgb(0,0,0)">4</text>
<polygon points=" 253,168 267,168 267,192 253,192" fill="rgb(255,255,170)"/>
<text x="255.0" y="185.0" font-family="courier" font-size="16" fill="rgb(0,0,0)">&#955;</text>
<polygon points=" 216,128 230,128 230,152 216,152" fill="rgb(255,255,170)"/>
<text x="217.5" y="145.0" font-family="courier" font-size="16" fill="rgb(0,0,0)">$</text>
<polygon points=" 131,88 145,88 145,112 131,112" fill="rgb(255,255,170)"/>
<text x="133.125" y="105.0" font-family="courier" font-size="16" fill="rgb(0,0,0)">+</text>
<polygon points=" 80,48 94,48 94,72 80,72" fill="rgb(255,255,170)"/>
<text x="81.5625" y="65.0" font-family="courier" font-size="16" fill="rgb(0,0,0)">+</text>
<line x1="292.03125" y1="20.0" x2="497.5" y2="60.0" stroke="rgb(255,0,0)" stroke-width="1.5"/>
<line x1="497.5" y1="60.0" x2="435.0" y2="100.0" stroke="rgb(255,0,0)" stroke-width="1.5"/>
<line x1="435.0" y1="100.0" x2="435.0" y2="140.0" stroke="rgb(255,0,0)" stroke-width="1.5"/>
<line x1="435.0" y1="140.0" x2="335.0" y2="180.0" stroke="rgb(255,0,0)" stroke-width="1.5"/>
<line x1="335.0" y1="180.0" x2="315.0" y2="220.0" stroke="rgb(255,0,0)" stroke-width="1.5"/>
<polygon points=" 308,208 322,208 322,232 308,232" fill="rgb(255,255,170)"/>
<text x="310.0" y="225.0" font-family="courier" font-size="16" fill="rgb(0,0,0)">5</text>
<line x1="335.0" y1="180.0" x2="355.0" y2="220.0" stroke="rgb(255,0,0)" stroke-width="1.5"/>
<line x1="355.0" y1="220.0" x2="355.0" y2="260.0" stroke="rgb(255,0,0)" stroke-width="1.5"/>
<polygon points=" 343,248 367,248 367,272 343,272" fill="rgb(255,255,170)"/>
<text x="345.0" y="265.0" font-family="courier" font-size="16" fill="rgb(0,0,0)">11</text>
<polygon points=" 338,208 372,208 372,232 338,232" fill="rgb(255,255,170)"/>
<text x="340.0" y="225.0" font-family="courier" font-size="16" fill="rgb(0,0,0)">Con</text>
<polygon points=" 323,168 347,168 347,192 323,192" fill="rgb(255,255,170)"/>
<text x="325.0" y="185.0" font-family="courier" font-size="16" fill="rgb(0,0,0)">:*</text>
<line x1="435.0" y1="140.0" x2="415.0" y2="180.0" stroke="rgb(255,0,0)" stroke-width="1.5"/>
<line x1="415.0" y1="180.0" x2="395.0" y2="220.0" stroke="rgb(255,0,0)" stroke-width="1.5"/>
<polygon points=" 388,208 402,208 402,232 388,232" fill="rgb(255,255,170)"/>
<text x="390.0" y="225.0" font-family="courier" font-size="16" fill="rgb(0,0,0)">6</text>
<line x1="415.0" y1="180.0" x2="435.0" y2="220.0" stroke="rgb(255,0,0)" stroke-width="1.5"/>
<line x1="435.0" y1="220.0" x2="435.0" y2="260.0" stroke="rgb(255,0,0)" stroke-width="1.5"/>
<polygon points=" 423,248 447,248 447,272 423,272" fill="rgb(255,255,170)"/>
<text x="425.0" y="265.0" font-family="courier" font-size="16" fill="rgb(0,0,0)">12</text>
<polygon points=" 418,208 452,208 452,232 418,232" fill="rgb(255,255,170)"/>
<text x="420.0" y="225.0" font-family="courier" font-size="16" fill="rgb(0,0,0)">Con</text>
<polygon points=" 403,168 427,168 427,192 403,192" fill="rgb(255,255,170)"/>
<text x="405.0" y="185.0" font-family="courier" font-size="16" fill="rgb(0,0,0)">:*</text>
<line x1="435.0" y1="140.0" x2="535.0" y2="180.0" stroke="rgb(255,0,0)" stroke-width="1.5"/>
<line x1="535.0" y1="180.0" x2="485.0" y2="220.0" stroke="rgb(255,0,0)" stroke-width="1.5"/>
<line x1="485.0" y1="220.0" x2="485.0" y2="260.0" stroke="rgb(255,0,0)" stroke-width="1.5"/>
<polygon points=" 478,248 492,248 492,272 478,272" fill="rgb(255,255,170)"/>
<text x="480.0" y="265.0" font-family="courier" font-size="16" fill="rgb(0,0,0)">X</text>
<polygon points=" 468,208 502,208 502,232 468,232" fill="rgb(255,255,170)"/>
<text x="470.0" y="225.0" font-family="courier" font-size="16" fill="rgb(0,0,0)">Var</text>
<line x1="535.0" y1="180.0" x2="535.0" y2="220.0" stroke="rgb(255,0,0)" stroke-width="1.5"/>
<line x1="535.0" y1="220.0" x2="535.0" y2="260.0" stroke="rgb(255,0,0)" stroke-width="1.5"/>
<polygon points=" 528,248 542,248 542,272 528,272" fill="rgb(255,255,170)"/>
<text x="530.0" y="265.0" font-family="courier" font-size="16" fill="rgb(0,0,0)">Y</text>
<polygon points=" 518,208 552,208 552,232 518,232" fill="rgb(255,255,170)"/>
<text x="520.0" y="225.0" font-family="courier" font-size="16" fill="rgb(0,0,0)">Var</text>
<line x1="535.0" y1="180.0" x2="585.0" y2="220.0" stroke="rgb(255,0,0)" stroke-width="1.5"/>
<line x1="585.0" y1="220.0" x2="585.0" y2="260.0" stroke="rgb(255,0,0)" stroke-width="1.5"/>
<polygon points=" 578,248 592,248 592,272 578,272" fill="rgb(255,255,170)"/>
<text x="580.0" y="265.0" font-family="courier" font-size="16" fill="rgb(0,0,0)">Z</text>
<polygon points=" 568,208 602,208 602,232 568,232" fill="rgb(255,255,170)"/>
<text x="570.0" y="225.0" font-family="courier" font-size="16" fill="rgb(0,0,0)">Var</text>
<polygon points=" 518,168 552,168 552,192 518,192" fill="rgb(255,255,170)"/>
<text x="520.0" y="185.0" font-family="courier" font-size="16" fill="rgb(0,0,0)">:**</text>
<polygon points=" 423,128 447,128 447,152 423,152" fill="rgb(255,255,170)"/>
<text x="425.0" y="145.0" font-family="courier" font-size="16" fill="rgb(0,0,0)">:+</text>
<polygon points=" 408,88 462,88 462,112 408,112" fill="rgb(255,255,170)"/>
<text x="410.0" y="105.0" font-family="courier" font-size="16" fill="rgb(0,0,0)">evalC</text>
<line x1="497.5" y1="60.0" x2="560.0" y2="100.0" stroke="rgb(255,0,0)" stroke-width="1.5"/>
<line x1="560.0" y1="100.0" x2="485.0" y2="140.0" stroke="rgb(255,0,0)" stroke-width="1.5"/>
<polygon points=" 478,128 492,128 492,152 478,152" fill="rgb(255,255,170)"/>
<text x="480.0" y="145.0" font-family="courier" font-size="16" fill="rgb(0,0,0)">X</text>
<line x1="560.0" y1="100.0" x2="515.0" y2="140.0" stroke="rgb(255,0,0)" stroke-width="1.5"/>
<polygon points=" 508,128 522,128 522,152 508,152" fill="rgb(255,255,170)"/>
<text x="510.0" y="145.0" font-family="courier" font-size="16" fill="rgb(0,0,0)">3</text>
<line x1="560.0" y1="100.0" x2="545.0" y2="140.0" stroke="rgb(255,0,0)" stroke-width="1.5"/>
<polygon points=" 538,128 552,128 552,152 538,152" fill="rgb(255,255,170)"/>
<text x="540.0" y="145.0" font-family="courier" font-size="16" fill="rgb(0,0,0)">Y</text>
<line x1="560.0" y1="100.0" x2="575.0" y2="140.0" stroke="rgb(255,0,0)" stroke-width="1.5"/>
<polygon points=" 568,128 582,128 582,152 568,152" fill="rgb(255,255,170)"/>
<text x="570.0" y="145.0" font-family="courier" font-size="16" fill="rgb(0,0,0)">4</text>
<line x1="560.0" y1="100.0" x2="605.0" y2="140.0" stroke="rgb(255,0,0)" stroke-width="1.5"/>
<polygon points=" 598,128 612,128 612,152 598,152" fill="rgb(255,255,170)"/>
<text x="600.0" y="145.0" font-family="courier" font-size="16" fill="rgb(0,0,0)">Z</text>
<line x1="560.0" y1="100.0" x2="635.0" y2="140.0" stroke="rgb(255,0,0)" stroke-width="1.5"/>
<polygon points=" 628,128 642,128 642,152 628,152" fill="rgb(255,255,170)"/>
<text x="630.0" y="145.0" font-family="courier" font-size="16" fill="rgb(0,0,0)">5</text>
<polygon points=" 553,88 567,88 567,112 553,112" fill="rgb(255,255,170)"/>
<text x="555.0" y="105.0" font-family="courier" font-size="16" fill="rgb(0,0,0)">&#955;</text>
<polygon points=" 490,48 504,48 504,72 490,72" fill="rgb(255,255,170)"/>
<text x="492.5" y="65.0" font-family="courier" font-size="16" fill="rgb(0,0,0)">$</text>
<polygon points=" 270,8 314,8 314,32 270,32" fill="rgb(255,255,170)"/>
<text x="272.03125" y="25.0" font-family="courier" font-size="16" fill="rgb(0,0,0)">pair</text></svg>