<svg xmlns="http://www.w3.org/2000/svg"
xmlns:xlink="http://www.w3.org/1999/xlink"
version="1.1" baseProfile="full"
width="675" height="400">
<line x1="289.6875" y1="20.0" x2="66.875" y2="60.0" stroke="rgb(255,0,0)" stroke-width="1.5"/>
<line x1="66.875" y1="60.0" x2="35.0" y2="100.0" stroke="rgb(255,0,0)" stroke-width="1.5"/>
<polygon points=" 18,88 52,88 52,112 18,112" fill="rgb(255,255,170)"/>
<text x="20.0" y="105.0" font-family="courier" font-size="16" fill="rgb(0,0,0)">256</text>
<line x1="66.875" y1="60.0" x2="98.75" y2="100.0" stroke="rgb(255,0,0)" stroke-width="1.5"/>
<line x1="98.75" y1="100.0" x2="35.0" y2="140.0" stroke="rgb(255,0,0)" stroke-width="1.5"/>
<polygon points=" 18,128 52,128 52,152 18,152" fill="rgb(255,255,170)"/>
<text x="20.0" y="145.0" font-family="courier" font-size="16" fill="rgb(0,0,0)">320</text>
<line x1="98.75" y1="100.0" x2="162.5" y2="140.0" stroke="rgb(255,0,0)" stroke-width="1.5"/>
<line x1="162.5" y1="140.0" x2="87.5" y2="180.0" stroke="rgb(255,0,0)" stroke-width="1.5"/>
<line x1="87.5" y1="180.0" x2="50.0" y2="220.0" stroke="rgb(255,0,0)" stroke-width="1.5"/>
<line x1="50.0" y1="220.0" x2="50.0" y2="260.0" stroke="rgb(255,0,0)" stroke-width="1.5"/>
<line x1="50.0" y1="260.0" x2="30.0" y2="300.0" stroke="rgb(255,0,0)" stroke-width="1.5"/>
<polygon points=" 18,288 42,288 42,312 18,312" fill="rgb(255,170,170)"/>
<text x="20.0" y="305.0" font-family="courier" font-size="16" fill="rgb(0,0,0)">11</text>
<line x1="50.0" y1="260.0" x2="70.0" y2="300.0" stroke="rgb(255,0,0)" stroke-width="1.5"/>
<line x1="70.0" y1="300.0" x2="50.0" y2="340.0" stroke="rgb(255,0,0)" stroke-width="1.5"/>
<line x1="50.0" y1="340.0" x2="50.0" y2="380.0" stroke="rgb(255,0,0)" stroke-width="1.5"/>
<polygon points=" 43,368 57,368 57,392 43,392" fill="rgb(255,170,170)"/>
<text x="45.0" y="385.0" font-family="courier" font-size="16" fill="rgb(0,0,0)">X</text>
<polygon points=" 33,328 67,328 67,352 33,352" fill="rgb(255,170,170)"/>
<text x="35.0" y="345.0" font-family="courier" font-size="16" fill="rgb(0,0,0)">Var</text>
<line x1="70.0" y1="300.0" x2="90.0" y2="340.0" stroke="rgb(255,0,0)" stroke-width="1.5"/>
<polygon points=" 83,328 97,328 97,352 83,352" fill="rgb(255,170,170)"/>
<text x="85.0" y="345.0" font-family="courier" font-size="16" fill="rgb(0,0,0)">2</text>
<polygon points=" 58,288 82,288 82,312 58,312" fill="rgb(255,170,170)"/>
<text x="60.0" y="305.0" font-family="courier" font-size="16" fill="rgb(0,0,0)">:^</text>
<polygon points=" 38,248 62,248 62,272 38,272" fill="rgb(255,170,170)"/>
<text x="40.0" y="265.0" font-family="courier" font-size="16" fill="rgb(0,0,0)">:*</text>
<polygon points=" 23,208 77,208 77,232 23,232" fill="rgb(255,170,170)"/>
<text x="25.0" y="225.0" font-family="courier" font-size="16" fill="rgb(0,0,0)">evalC</text>
<line x1="87.5" y1="180.0" x2="125.0" y2="220.0" stroke="rgb(255,0,0)" stroke-width="1.5"/>
<line x1="125.0" y1="220.0" x2="110.0" y2="260.0" stroke="rgb(255,0,0)" stroke-width="1.5"/>
<polygon points=" 103,248 117,248 117,272 103,272" fill="rgb(255,170,170)"/>
<text x="105.0" y="265.0" font-family="courier" font-size="16" fill="rgb(0,0,0)">X</text>
<line x1="125.0" y1="220.0" x2="140.0" y2="260.0" stroke="rgb(255,0,0)" stroke-width="1.5"/>
<polygon points=" 133,248 147,248 147,272 133,272" fill="rgb(255,170,170)"/>
<text x="135.0" y="265.0" font-family="courier" font-size="16" fill="rgb(0,0,0)">4</text>
<polygon points=" 118,208 132,208 132,232 118,232" fill="rgb(255,170,170)"/>
<text x="120.0" y="225.0" font-family="courier" font-size="16" fill="rgb(0,0,0)">&#955;</text>
<polygon points=" 80,168 94,168 94,192 80,192" fill="rgb(255,170,170)"/>
<text x="82.5" y="185.0" font-family="courier" font-size="16" fill="rgb(0,0,0)">$</text>
<line x1="162.5" y1="140.0" x2="237.5" y2="180.0" stroke="rgb(255,0,0)" stroke-width="1.5"/>
<line x1="237.5" y1="180.0" x2="200.0" y2="220.0" stroke="rgb(255,0,0)" stroke-width="1.5"/>
<line x1="200.0" y1="220.0" x2="200.0" y2="260.0" stroke="rgb(255,0,0)" stroke-width="1.5"/>
<line x1="200.0" y1="260.0" x2="200.0" y2="300.0" stroke="rgb(255,0,0)" stroke-width="1.5"/>
<polygon points=" 183,288 217,288 217,312 183,312" fill="rgb(255,255,170)"/>
<text x="185.0" y="305.0" font-family="courier" font-size="16" fill="rgb(0,0,0)">222</text>
<polygon points=" 183,248 217,248 217,272 183,272" fill="rgb(255,255,170)"/>
<text x="185.0" y="265.0" font-family="courier" font-size="16" fill="rgb(0,0,0)">Con</text>
<polygon points=" 173,208 227,208 227,232 173,232" fill="rgb(255,255,170)"/>
<text x="175.0" y="225.0" font-family="courier" font-size="16" fill="rgb(0,0,0)">evalC</text>
<line x1="237.5" y1="180.0" x2="275.0" y2="220.0" stroke="rgb(255,0,0)" stroke-width="1.5"/>
<line x1="275.0" y1="220.0" x2="260.0" y2="260.0" stroke="rgb(255,0,0)" stroke-width="1.5"/>
<polygon points=" 253,248 267,248 267,272 253,272" fill="rgb(255,255,170)"/>
<text x="255.0" y="265.0" font-family="courier" font-size="16" fill="rgb(0,0,0)">X</text>
<line x1="275.0" y1="220.0" x2="290.0" y2="260.0" stroke="rgb(255,0,0)" stroke-width="1.5"/>
<polygon points=" 283,248 297,248 297,272 283,272" fill="rgb(255,255,170)"/>
<text x="285.0" y="265.0" font-family="courier" font-size="16" fill="rgb(0,0,0)">4</text>
<polygon points=" 268,208 282,208 282,232 268,232" fill="rgb(255,255,170)"/>
<text x="270.0" y="225.0" font-family="courier" font-size="16" fill="rgb(0,0,0)">&#955;</text>
<polygon points=" 230,168 244,168 244,192 230,192" fill="rgb(255,255,170)"/>
<text x="232.5" y="185.0" font-family="courier" font-size="16" fill="rgb(0,0,0)">$</text>
<polygon points=" 156,128 170,128 170,152 156,152" fill="rgb(255,255,170)"/>
<text x="157.5" y="145.0" font-family="courier" font-size="16" fill="rgb(0,0,0)">+</text>
<polygon points=" 92,88 106,88 106,112 92,112" fill="rgb(255,255,170)"/>
<text x="93.75" y="105.0" font-family="courier" font-size="16" fill="rgb(0,0,0)">+</text>
<polygon points=" 60,48 74,48 74,72 60,72" fill="rgb(255,255,170)"/>
<text x="61.875" y="65.0" font-family="courier" font-size="16" fill="rgb(0,0,0)">+</text>
<line x1="289.6875" y1="20.0" x2="512.5" y2="60.0" stroke="rgb(255,0,0)" stroke-width="1.5"/>
<line x1="512.5" y1="60.0" x2="450.0" y2="100.0" stroke="rgb(255,0,0)" stroke-width="1.5"/>
<line x1="450.0" y1="100.0" x2="450.0" y2="140.0" stroke="rgb(255,0,0)" stroke-width="1.5"/>
<line x1="450.0" y1="140.0" x2="350.0" y2="180.0" stroke="rgb(255,0,0)" stroke-width="1.5"/>
<line x1="350.0" y1="180.0" x2="330.0" y2="220.0" stroke="rgb(255,0,0)" stroke-width="1.5"/>
<polygon points=" 323,208 337,208 337,232 323,232" fill="rgb(255,255,170)"/>
<text x="325.0" y="225.0" font-family="courier" font-size="16" fill="rgb(0,0,0)">5</text>
<line x1="350.0" y1="180.0" x2="370.0" y2="220.0" stroke="rgb(255,0,0)" stroke-width="1.5"/>
<line x1="370.0" y1="220.0" x2="370.0" y2="260.0" stroke="rgb(255,0,0)" stroke-width="1.5"/>
<polygon points=" 358,248 382,248 382,272 358,272" fill="rgb(255,255,170)"/>
<text x="360.0" y="265.0" font-family="courier" font-size="16" fill="rgb(0,0,0)">11</text>
<polygon points=" 353,208 387,208 387,232 353,232" fill="rgb(255,255,170)"/>
<text x="355.0" y="225.0" font-family="courier" font-size="16" fill="rgb(0,0,0)">Con</text>
<polygon points=" 338,168 362,168 362,192 338,192" fill="rgb(255,255,170)"/>
<text x="340.0" y="185.0" font-family="courier" font-size="16" fill="rgb(0,0,0)">:*</text>
<line x1="450.0" y1="140.0" x2="430.0" y2="180.0" stroke="rgb(255,0,0)" stroke-width="1.5"/>
<line x1="430.0" y1="180.0" x2="410.0" y2="220.0" stroke="rgb(255,0,0)" stroke-width="1.5"/>
<polygon points=" 403,208 417,208 417,232 403,232" fill="rgb(255,255,170)"/>
<text x="405.0" y="225.0" font-family="courier" font-size="16" fill="rgb(0,0,0)">6</text>
<line x1="430.0" y1="180.0" x2="450.0" y2="220.0" stroke="rgb(255,0,0)" stroke-width="1.5"/>
<line x1="450.0" y1="220.0" x2="450.0" y2="260.0" stroke="rgb(255,0,0)" stroke-width="1.5"/>
<polygon points=" 438,248 462,248 462,272 438,272" fill="rgb(255,255,170)"/>
<text x="440.0" y="265.0" font-family="courier" font-size="16" fill="rgb(0,0,0)">12</text>
<polygon points=" 433,208 467,208 467,232 433,232" fill="rgb(255,255,170)"/>
<text x="435.0" y="225.0" font-family="courier" font-size="16" fill="rgb(0,0,0)">Con</text>
<polygon points=" 418,168 442,168 442,192 418,192" fill="rgb(255,255,170)"/>
<text x="420.0" y="185.0" font-family="courier" font-size="16" fill="rgb(0,0,0)">:*</text>
<line x1="450.0" y1="140.0" x2="550.0" y2="180.0" stroke="rgb(255,0,0)" stroke-width="1.5"/>
<line x1="550.0" y1="180.0" x2="500.0" y2="220.0" stroke="rgb(255,0,0)" stroke-width="1.5"/>
<line x1="500.0" y1="220.0" x2="500.0" y2="260.0" stroke="rgb(255,0,0)" stroke-width="1.5"/>
<polygon points=" 493,248 507,248 507,272 493,272" fill="rgb(255,255,170)"/>
<text x="495.0" y="265.0" font-family="courier" font-size="16" fill="rgb(0,0,0)">X</text>
<polygon points=" 483,208 517,208 517,232 483,232" fill="rgb(255,255,170)"/>
<text x="485.0" y="225.0" font-family="courier" font-size="16" fill="rgb(0,0,0)">Var</text>
<line x1="550.0" y1="180.0" x2="550.0" y2="220.0" stroke="rgb(255,0,0)" stroke-width="1.5"/>
<line x1="550.0" y1="220.0" x2="550.0" y2="260.0" stroke="rgb(255,0,0)" stroke-width="1.5"/>
<polygon points=" 543,248 557,248 557,272 543,272" fill="rgb(255,255,170)"/>
<text x="545.0" y="265.0" font-family="courier" font-size="16" fill="rgb(0,0,0)">Y</text>
<polygon points=" 533,208 567,208 567,232 533,232" fill="rgb(255,255,170)"/>
<text x="535.0" y="225.0" font-family="courier" font-size="16" fill="rgb(0,0,0)">Var</text>
<line x1="550.0" y1="180.0" x2="600.0" y2="220.0" stroke="rgb(255,0,0)" stroke-width="1.5"/>
<line x1="600.0" y1="220.0" x2="600.0" y2="260.0" stroke="rgb(255,0,0)" stroke-width="1.5"/>
<polygon points=" 593,248 607,248 607,272 593,272" fill="rgb(255,255,170)"/>
<text x="595.0" y="265.0" font-family="courier" font-size="16" fill="rgb(0,0,0)">Z</text>
<polygon points=" 583,208 617,208 617,232 583,232" fill="rgb(255,255,170)"/>
<text x="585.0" y="225.0" font-family="courier" font-size="16" fill="rgb(0,0,0)">Var</text>
<polygon points=" 533,168 567,168 567,192 533,192" fill="rgb(255,255,170)"/>
<text x="535.0" y="185.0" font-family="courier" font-size="16" fill="rgb(0,0,0)">:**</text>
<polygon points=" 438,128 462,128 462,152 438,152" fill="rgb(255,255,170)"/>
<text x="440.0" y="145.0" font-family="courier" font-size="16" fill="rgb(0,0,0)">:+</text>
<polygon points=" 423,88 477,88 477,112 423,112" fill="rgb(255,255,170)"/>
<text x="425.0" y="105.0" font-family="courier" font-size="16" fill="rgb(0,0,0)">evalC</text>
<line x1="512.5" y1="60.0" x2="575.0" y2="100.0" stroke="rgb(255,0,0)" stroke-width="1.5"/>
<line x1="575.0" y1="100.0" x2="500.0" y2="140.0" stroke="rgb(255,0,0)" stroke-width="1.5"/>
<polygon points=" 493,128 507,128 507,152 493,152" fill="rgb(255,255,170)"/>
<text x="495.0" y="145.0" font-family="courier" font-size="16" fill="rgb(0,0,0)">X</text>
<line x1="575.0" y1="100.0" x2="530.0" y2="140.0" stroke="rgb(255,0,0)" stroke-width="1.5"/>
<polygon points=" 523,128 537,128 537,152 523,152" fill="rgb(255,255,170)"/>
<text x="525.0" y="145.0" font-family="courier" font-size="16" fill="rgb(0,0,0)">3</text>
<line x1="575.0" y1="100.0" x2="560.0" y2="140.0" stroke="rgb(255,0,0)" stroke-width="1.5"/>
<polygon points=" 553,128 567,128 567,152 553,152" fill="rgb(255,255,170)"/>
<text x="555.0" y="145.0" font-family="courier" font-size="16" fill="rgb(0,0,0)">Y</text>
<line x1="575.0" y1="100.0" x2="590.0" y2="140.0" stroke="rgb(255,0,0)" stroke-width="1.5"/>
<polygon points=" 583,128 597,128 597,152 583,152" fill="rgb(255,255,170)"/>
<text x="585.0" y="145.0" font-family="courier" font-size="16" fill="rgb(0,0,0)">4</text>
<line x1="575.0" y1="100.0" x2="620.0" y2="140.0" stroke="rgb(255,0,0)" stroke-width="1.5"/>
<polygon points=" 613,128 627,128 627,152 613,152" fill="rgb(255,255,170)"/>
<text x="615.0" y="145.0" font-family="courier" font-size="16" fill="rgb(0,0,0)">Z</text>
<line x1="575.0" y1="100.0" x2="650.0" y2="140.0" stroke="rgb(255,0,0)" stroke-width="1.5"/>
<polygon points=" 643,128 657,128 657,152 643,152" fill="rgb(255,255,170)"/>
<text x="645.0" y="145.0" font-family="courier" font-size="16" fill="rgb(0,0,0)">5</text>
<polygon points=" 568,88 582,88 582,112 568,112" fill="rgb(255,255,170)"/>
<text x="570.0" y="105.0" font-family="courier" font-size="16" fill="rgb(0,0,0)">&#955;</text>
<polygon points=" 506,48 520,48 520,72 506,72" fill="rgb(255,255,170)"/>
<text x="507.5" y="65.0" font-family="courier" font-size="16" fill="rgb(0,0,0)">$</text>
<polygon points=" 268,8 312,8 312,32 268,32" fill="rgb(255,255,170)"/>
<text x="269.6875" y="25.0" font-family="courier" font-size="16" fill="rgb(0,0,0)">pair</text></svg>