<svg xmlns="http://www.w3.org/2000/svg"
xmlns:xlink="http://www.w3.org/1999/xlink"
version="1.1" baseProfile="full"
width="670" height="400">
<line x1="284.92188" y1="20.0" x2="62.34375" y2="60.0" stroke="rgb(255,0,0)" stroke-width="1.5"/>
<line x1="62.34375" y1="60.0" x2="35.0" y2="100.0" stroke="rgb(255,0,0)" stroke-width="1.5"/>
<polygon points=" 18,88 52,88 52,112 18,112" fill="rgb(255,255,170)"/>
<text x="20.0" y="105.0" font-family="courier" font-size="16" fill="rgb(0,0,0)">256</text>
<line x1="62.34375" y1="60.0" x2="89.6875" y2="100.0" stroke="rgb(255,0,0)" stroke-width="1.5"/>
<line x1="89.6875" y1="100.0" x2="35.0" y2="140.0" stroke="rgb(255,0,0)" stroke-width="1.5"/>
<polygon points=" 18,128 52,128 52,152 18,152" fill="rgb(255,255,170)"/>
<text x="20.0" y="145.0" font-family="courier" font-size="16" fill="rgb(0,0,0)">320</text>
<line x1="89.6875" y1="100.0" x2="144.375" y2="140.0" stroke="rgb(255,0,0)" stroke-width="1.5"/>
<line x1="144.375" y1="140.0" x2="56.25" y2="180.0" stroke="rgb(255,0,0)" stroke-width="1.5"/>
<line x1="56.25" y1="180.0" x2="30.0" y2="220.0" stroke="rgb(255,0,0)" stroke-width="1.5"/>
<polygon points=" 18,208 42,208 42,232 18,232" fill="rgb(170,255,170)"/>
<text x="20.0" y="225.0" font-family="courier" font-size="16" fill="rgb(0,0,0)">11</text>
<line x1="56.25" y1="180.0" x2="82.5" y2="220.0" stroke="rgb(255,0,0)" stroke-width="1.5"/>
<line x1="82.5" y1="220.0" x2="45.0" y2="260.0" stroke="rgb(255,0,0)" stroke-width="1.5"/>
<line x1="45.0" y1="260.0" x2="45.0" y2="300.0" stroke="rgb(255,0,0)" stroke-width="1.5"/>
<line x1="45.0" y1="300.0" x2="25.0" y2="340.0" stroke="rgb(255,0,0)" stroke-width="1.5"/>
<line x1="25.0" y1="340.0" x2="25.0" y2="380.0" stroke="rgb(255,0,0)" stroke-width="1.5"/>
<polygon points=" 18,368 32,368 32,392 18,392" fill="rgb(170,255,170)"/>
<text x="20.0" y="385.0" font-family="courier" font-size="16" fill="rgb(0,0,0)">X</text>
<polygon points=" 8,328 42,328 42,352 8,352" fill="rgb(170,255,170)"/>
<text x="10.0" y="345.0" font-family="courier" font-size="16" fill="rgb(0,0,0)">Var</text>
<line x1="45.0" y1="300.0" x2="65.0" y2="340.0" stroke="rgb(255,0,0)" stroke-width="1.5"/>
<polygon points=" 58,328 72,328 72,352 58,352" fill="rgb(170,255,170)"/>
<text x="60.0" y="345.0" font-family="courier" font-size="16" fill="rgb(0,0,0)">2</text>
<polygon points=" 33,288 57,288 57,312 33,312" fill="rgb(170,255,170)"/>
<text x="35.0" y="305.0" font-family="courier" font-size="16" fill="rgb(0,0,0)">:^</text>
<polygon points=" 18,248 72,248 72,272 18,272" fill="rgb(170,255,170)"/>
<text x="20.0" y="265.0" font-family="courier" font-size="16" fill="rgb(0,0,0)">evalC</text>
<line x1="82.5" y1="220.0" x2="120.0" y2="260.0" stroke="rgb(255,0,0)" stroke-width="1.5"/>
<line x1="120.0" y1="260.0" x2="105.0" y2="300.0" stroke="rgb(255,0,0)" stroke-width="1.5"/>
<polygon points=" 98,288 112,288 112,312 98,312" fill="rgb(170,255,170)"/>
<text x="100.0" y="305.0" font-family="courier" font-size="16" fill="rgb(0,0,0)">X</text>
<line x1="120.0" y1="260.0" x2="135.0" y2="300.0" stroke="rgb(255,0,0)" stroke-width="1.5"/>
<polygon points=" 128,288 142,288 142,312 128,312" fill="rgb(170,255,170)"/>
<text x="130.0" y="305.0" font-family="courier" font-size="16" fill="rgb(0,0,0)">4</text>
<polygon points=" 113,248 127,248 127,272 113,272" fill="rgb(170,255,170)"/>
<text x="115.0" y="265.0" font-family="courier" font-size="16" fill="rgb(0,0,0)">&#955;</text>
<polygon points=" 76,208 90,208 90,232 76,232" fill="rgb(170,255,170)"/>
<text x="77.5" y="225.0" font-family="courier" font-size="16" fill="rgb(0,0,0)">$</text>
<polygon points=" 49,168 63,168 63,192 49,192" fill="rgb(170,255,170)"/>
<text x="51.25" y="185.0" font-family="courier" font-size="16" fill="rgb(0,0,0)">*</text>
<line x1="144.375" y1="140.0" x2="232.5" y2="180.0" stroke="rgb(255,0,0)" stroke-width="1.5"/>
<line x1="232.5" y1="180.0" x2="195.0" y2="220.0" stroke="rgb(255,0,0)" stroke-width="1.5"/>
<line x1="195.0" y1="220.0" x2="195.0" y2="260.0" stroke="rgb(255,0,0)" stroke-width="1.5"/>
<line x1="195.0" y1="260.0" x2="195.0" y2="300.0" stroke="rgb(255,0,0)" stroke-width="1.5"/>
<polygon points=" 178,288 212,288 212,312 178,312" fill="rgb(255,255,170)"/>
<text x="180.0" y="305.0" font-family="courier" font-size="16" fill="rgb(0,0,0)">222</text>
<polygon points=" 178,248 212,248 212,272 178,272" fill="rgb(255,255,170)"/>
<text x="180.0" y="265.0" font-family="courier" font-size="16" fill="rgb(0,0,0)">Con</text>
<polygon points=" 168,208 222,208 222,232 168,232" fill="rgb(255,255,170)"/>
<text x="170.0" y="225.0" font-family="courier" font-size="16" fill="rgb(0,0,0)">evalC</text>
<line x1="232.5" y1="180.0" x2="270.0" y2="220.0" stroke="rgb(255,0,0)" stroke-width="1.5"/>
<line x1="270.0" y1="220.0" x2="255.0" y2="260.0" stroke="rgb(255,0,0)" stroke-width="1.5"/>
<polygon points=" 248,248 262,248 262,272 248,272" fill="rgb(255,255,170)"/>
<text x="250.0" y="265.0" font-family="courier" font-size="16" fill="rgb(0,0,0)">X</text>
<line x1="270.0" y1="220.0" x2="285.0" y2="260.0" stroke="rgb(255,0,0)" stroke-width="1.5"/>
<polygon points=" 278,248 292,248 292,272 278,272" fill="rgb(255,255,170)"/>
<text x="280.0" y="265.0" font-family="courier" font-size="16" fill="rgb(0,0,0)">4</text>
<polygon points=" 263,208 277,208 277,232 263,232" fill="rgb(255,255,170)"/>
<text x="265.0" y="225.0" font-family="courier" font-size="16" fill="rgb(0,0,0)">&#955;</text>
<polygon points=" 226,168 240,168 240,192 226,192" fill="rgb(255,255,170)"/>
<text x="227.5" y="185.0" font-family="courier" font-size="16" fill="rgb(0,0,0)">$</text>
<polygon points=" 137,128 151,128 151,152 137,152" fill="rgb(255,255,170)"/>
<text x="139.375" y="145.0" font-family="courier" font-size="16" fill="rgb(0,0,0)">+</text>
<polygon points=" 83,88 97,88 97,112 83,112" fill="rgb(255,255,170)"/>
<text x="84.6875" y="105.0" font-family="courier" font-size="16" fill="rgb(0,0,0)">+</text>
<polygon points=" 55,48 69,48 69,72 55,72" fill="rgb(255,255,170)"/>
<text x="57.34375" y="65.0" font-family="courier" font-size="16" fill="rgb(0,0,0)">+</text>
<line x1="284.92188" y1="20.0" x2="507.5" y2="60.0" stroke="rgb(255,0,0)" stroke-width="1.5"/>
<line x1="507.5" y1="60.0" x2="445.0" y2="100.0" stroke="rgb(255,0,0)" stroke-width="1.5"/>
<line x1="445.0" y1="100.0" x2="445.0" y2="140.0" stroke="rgb(255,0,0)" stroke-width="1.5"/>
<line x1="445.0" y1="140.0" x2="345.0" y2="180.0" stroke="rgb(255,0,0)" stroke-width="1.5"/>
<line x1="345.0" y1="180.0" x2="325.0" y2="220.0" stroke="rgb(255,0,0)" stroke-width="1.5"/>
<polygon points=" 318,208 332,208 332,232 318,232" fill="rgb(255,255,170)"/>
<text x="320.0" y="225.0" font-family="courier" font-size="16" fill="rgb(0,0,0)">5</text>
<line x1="345.0" y1="180.0" x2="365.0" y2="220.0" stroke="rgb(255,0,0)" stroke-width="1.5"/>
<line x1="365.0" y1="220.0" x2="365.0" y2="260.0" stroke="rgb(255,0,0)" stroke-width="1.5"/>
<polygon points=" 353,248 377,248 377,272 353,272" fill="rgb(255,255,170)"/>
<text x="355.0" y="265.0" font-family="courier" font-size="16" fill="rgb(0,0,0)">11</text>
<polygon points=" 348,208 382,208 382,232 348,232" fill="rgb(255,255,170)"/>
<text x="350.0" y="225.0" font-family="courier" font-size="16" fill="rgb(0,0,0)">Con</text>
<polygon points=" 333,168 357,168 357,192 333,192" fill="rgb(255,255,170)"/>
<text x="335.0" y="185.0" font-family="courier" font-size="16" fill="rgb(0,0,0)">:*</text>
<line x1="445.0" y1="140.0" x2="425.0" y2="180.0" stroke="rgb(255,0,0)" stroke-width="1.5"/>
<line x1="425.0" y1="180.0" x2="405.0" y2="220.0" stroke="rgb(255,0,0)" stroke-width="1.5"/>
<polygon points=" 398,208 412,208 412,232 398,232" fill="rgb(255,255,170)"/>
<text x="400.0" y="225.0" font-family="courier" font-size="16" fill="rgb(0,0,0)">6</text>
<line x1="425.0" y1="180.0" x2="445.0" y2="220.0" stroke="rgb(255,0,0)" stroke-width="1.5"/>
<line x1="445.0" y1="220.0" x2="445.0" y2="260.0" stroke="rgb(255,0,0)" stroke-width="1.5"/>
<polygon points=" 433,248 457,248 457,272 433,272" fill="rgb(255,255,170)"/>
<text x="435.0" y="265.0" font-family="courier" font-size="16" fill="rgb(0,0,0)">12</text>
<polygon points=" 428,208 462,208 462,232 428,232" fill="rgb(255,255,170)"/>
<text x="430.0" y="225.0" font-family="courier" font-size="16" fill="rgb(0,0,0)">Con</text>
<polygon points=" 413,168 437,168 437,192 413,192" fill="rgb(255,255,170)"/>
<text x="415.0" y="185.0" font-family="courier" font-size="16" fill="rgb(0,0,0)">:*</text>
<line x1="445.0" y1="140.0" x2="545.0" y2="180.0" stroke="rgb(255,0,0)" stroke-width="1.5"/>
<line x1="545.0" y1="180.0" x2="495.0" y2="220.0" stroke="rgb(255,0,0)" stroke-width="1.5"/>
<line x1="495.0" y1="220.0" x2="495.0" y2="260.0" stroke="rgb(255,0,0)" stroke-width="1.5"/>
<polygon points=" 488,248 502,248 502,272 488,272" fill="rgb(255,255,170)"/>
<text x="490.0" y="265.0" font-family="courier" font-size="16" fill="rgb(0,0,0)">X</text>
<polygon points=" 478,208 512,208 512,232 478,232" fill="rgb(255,255,170)"/>
<text x="480.0" y="225.0" font-family="courier" font-size="16" fill="rgb(0,0,0)">Var</text>
<line x1="545.0" y1="180.0" x2="545.0" y2="220.0" stroke="rgb(255,0,0)" stroke-width="1.5"/>
<line x1="545.0" y1="220.0" x2="545.0" y2="260.0" stroke="rgb(255,0,0)" stroke-width="1.5"/>
<polygon points=" 538,248 552,248 552,272 538,272" fill="rgb(255,255,170)"/>
<text x="540.0" y="265.0" font-family="courier" font-size="16" fill="rgb(0,0,0)">Y</text>
<polygon points=" 528,208 562,208 562,232 528,232" fill="rgb(255,255,170)"/>
<text x="530.0" y="225.0" font-family="courier" font-size="16" fill="rgb(0,0,0)">Var</text>
<line x1="545.0" y1="180.0" x2="595.0" y2="220.0" stroke="rgb(255,0,0)" stroke-width="1.5"/>
<line x1="595.0" y1="220.0" x2="595.0" y2="260.0" stroke="rgb(255,0,0)" stroke-width="1.5"/>
<polygon points=" 588,248 602,248 602,272 588,272" fill="rgb(255,255,170)"/>
<text x="590.0" y="265.0" font-family="courier" font-size="16" fill="rgb(0,0,0)">Z</text>
<polygon points=" 578,208 612,208 612,232 578,232" fill="rgb(255,255,170)"/>
<text x="580.0" y="225.0" font-family="courier" font-size="16" fill="rgb(0,0,0)">Var</text>
<polygon points=" 528,168 562,168 562,192 528,192" fill="rgb(255,255,170)"/>
<text x="530.0" y="185.0" font-family="courier" font-size="16" fill="rgb(0,0,0)">:**</text>
<polygon points=" 433,128 457,128 457,152 433,152" fill="rgb(255,255,170)"/>
<text x="435.0" y="145.0" font-family="courier" font-size="16" fill="rgb(0,0,0)">:+</text>
<polygon points=" 418,88 472,88 472,112 418,112" fill="rgb(255,255,170)"/>
<text x="420.0" y="105.0" font-family="courier" font-size="16" fill="rgb(0,0,0)">evalC</text>
<line x1="507.5" y1="60.0" x2="570.0" y2="100.0" stroke="rgb(255,0,0)" stroke-width="1.5"/>
<line x1="570.0" y1="100.0" x2="495.0" y2="140.0" stroke="rgb(255,0,0)" stroke-width="1.5"/>
<polygon points=" 488,128 502,128 502,152 488,152" fill="rgb(255,255,170)"/>
<text x="490.0" y="145.0" font-family="courier" font-size="16" fill="rgb(0,0,0)">X</text>
<line x1="570.0" y1="100.0" x2="525.0" y2="140.0" stroke="rgb(255,0,0)" stroke-width="1.5"/>
<polygon points=" 518,128 532,128 532,152 518,152" fill="rgb(255,255,170)"/>
<text x="520.0" y="145.0" font-family="courier" font-size="16" fill="rgb(0,0,0)">3</text>
<line x1="570.0" y1="100.0" x2="555.0" y2="140.0" stroke="rgb(255,0,0)" stroke-width="1.5"/>
<polygon points=" 548,128 562,128 562,152 548,152" fill="rgb(255,255,170)"/>
<text x="550.0" y="145.0" font-family="courier" font-size="16" fill="rgb(0,0,0)">Y</text>
<line x1="570.0" y1="100.0" x2="585.0" y2="140.0" stroke="rgb(255,0,0)" stroke-width="1.5"/>
<polygon points=" 578,128 592,128 592,152 578,152" fill="rgb(255,255,170)"/>
<text x="580.0" y="145.0" font-family="courier" font-size="16" fill="rgb(0,0,0)">4</text>
<line x1="570.0" y1="100.0" x2="615.0" y2="140.0" stroke="rgb(255,0,0)" stroke-width="1.5"/>
<polygon points=" 608,128 622,128 622,152 608,152" fill="rgb(255,255,170)"/>
<text x="610.0" y="145.0" font-family="courier" font-size="16" fill="rgb(0,0,0)">Z</text>
<line x1="570.0" y1="100.0" x2="645.0" y2="140.0" stroke="rgb(255,0,0)" stroke-width="1.5"/>
<polygon points=" 638,128 652,128 652,152 638,152" fill="rgb(255,255,170)"/>
<text x="640.0" y="145.0" font-family="courier" font-size="16" fill="rgb(0,0,0)">5</text>
<polygon points=" 563,88 577,88 577,112 563,112" fill="rgb(255,255,170)"/>
<text x="565.0" y="105.0" font-family="courier" font-size="16" fill="rgb(0,0,0)">&#955;</text>
<polygon points=" 500,48 514,48 514,72 500,72" fill="rgb(255,255,170)"/>
<text x="502.5" y="65.0" font-family="courier" font-size="16" fill="rgb(0,0,0)">$</text>
<polygon points=" 263,8 307,8 307,32 263,32" fill="rgb(255,255,170)"/>
<text x="264.92188" y="25.0" font-family="courier" font-size="16" fill="rgb(0,0,0)">pair</text></svg>