<svg xmlns="http://www.w3.org/2000/svg"
xmlns:xlink="http://www.w3.org/1999/xlink"
version="1.1" baseProfile="full"
width="385" height="280">
<line x1="138.75" y1="20.0" x2="55.0" y2="60.0" stroke="rgb(255,0,0)" stroke-width="1.5"/>
<line x1="55.0" y1="60.0" x2="35.0" y2="100.0" stroke="rgb(255,0,0)" stroke-width="1.5"/>
<polygon points=" 18,88 52,88 52,112 18,112" fill="rgb(255,255,170)"/>
<text x="20.0" y="105.0" font-family="courier" font-size="16" fill="rgb(0,0,0)">256</text>
<line x1="55.0" y1="60.0" x2="75.0" y2="100.0" stroke="rgb(255,0,0)" stroke-width="1.5"/>
<line x1="75.0" y1="100.0" x2="50.0" y2="140.0" stroke="rgb(255,0,0)" stroke-width="1.5"/>
<polygon points=" 33,128 67,128 67,152 33,152" fill="rgb(255,255,170)"/>
<text x="35.0" y="145.0" font-family="courier" font-size="16" fill="rgb(0,0,0)">320</text>
<line x1="75.0" y1="100.0" x2="100.0" y2="140.0" stroke="rgb(255,0,0)" stroke-width="1.5"/>
<polygon points=" 83,128 117,128 117,152 83,152" fill="rgb(170,255,170)"/>
<text x="85.0" y="145.0" font-family="courier" font-size="16" fill="rgb(0,0,0)">398</text>
<polygon points=" 68,88 82,88 82,112 68,112" fill="rgb(255,255,170)"/>
<text x="70.0" y="105.0" font-family="courier" font-size="16" fill="rgb(0,0,0)">+</text>
<polygon points=" 48,48 62,48 62,72 48,72" fill="rgb(255,255,170)"/>
<text x="50.0" y="65.0" font-family="courier" font-size="16" fill="rgb(0,0,0)">+</text>
<line x1="138.75" y1="20.0" x2="222.5" y2="60.0" stroke="rgb(255,0,0)" stroke-width="1.5"/>
<line x1="222.5" y1="60.0" x2="160.0" y2="100.0" stroke="rgb(255,0,0)" stroke-width="1.5"/>
<line x1="160.0" y1="100.0" x2="160.0" y2="140.0" stroke="rgb(255,0,0)" stroke-width="1.5"/>
<line x1="160.0" y1="140.0" x2="60.0" y2="180.0" stroke="rgb(255,0,0)" stroke-width="1.5"/>
<line x1="60.0" y1="180.0" x2="40.0" y2="220.0" stroke="rgb(255,0,0)" stroke-width="1.5"/>
<polygon points=" 33,208 47,208 47,232 33,232" fill="rgb(255,255,170)"/>
<text x="35.0" y="225.0" font-family="courier" font-size="16" fill="rgb(0,0,0)">5</text>
<line x1="60.0" y1="180.0" x2="80.0" y2="220.0" stroke="rgb(255,0,0)" stroke-width="1.5"/>
<line x1="80.0" y1="220.0" x2="80.0" y2="260.0" stroke="rgb(255,0,0)" stroke-width="1.5"/>
<polygon points=" 68,248 92,248 92,272 68,272" fill="rgb(255,255,170)"/>
<text x="70.0" y="265.0" font-family="courier" font-size="16" fill="rgb(0,0,0)">11</text>
<polygon points=" 63,208 97,208 97,232 63,232" fill="rgb(255,255,170)"/>
<text x="65.0" y="225.0" font-family="courier" font-size="16" fill="rgb(0,0,0)">Con</text>
<polygon points=" 48,168 72,168 72,192 48,192" fill="rgb(255,255,170)"/>
<text x="50.0" y="185.0" font-family="courier" font-size="16" fill="rgb(0,0,0)">:*</text>
<line x1="160.0" y1="140.0" x2="140.0" y2="180.0" stroke="rgb(255,0,0)" stroke-width="1.5"/>
<line x1="140.0" y1="180.0" x2="120.0" y2="220.0" stroke="rgb(255,0,0)" stroke-width="1.5"/>
<polygon points=" 113,208 127,208 127,232 113,232" fill="rgb(255,255,170)"/>
<text x="115.0" y="225.0" font-family="courier" font-size="16" fill="rgb(0,0,0)">6</text>
<line x1="140.0" y1="180.0" x2="160.0" y2="220.0" stroke="rgb(255,0,0)" stroke-width="1.5"/>
<line x1="160.0" y1="220.0" x2="160.0" y2="260.0" stroke="rgb(255,0,0)" stroke-width="1.5"/>
<polygon points=" 148,248 172,248 172,272 148,272" fill="rgb(255,255,170)"/>
<text x="150.0" y="265.0" font-family="courier" font-size="16" fill="rgb(0,0,0)">12</text>
<polygon points=" 143,208 177,208 177,232 143,232" fill="rgb(255,255,170)"/>
<text x="145.0" y="225.0" font-family="courier" font-size="16" fill="rgb(0,0,0)">Con</text>
<polygon points=" 128,168 152,168 152,192 128,192" fill="rgb(255,255,170)"/>
<text x="130.0" y="185.0" font-family="courier" font-size="16" fill="rgb(0,0,0)">:*</text>
<line x1="160.0" y1="140.0" x2="260.0" y2="180.0" stroke="rgb(255,0,0)" stroke-width="1.5"/>
<line x1="260.0" y1="180.0" x2="210.0" y2="220.0" stroke="rgb(255,0,0)" stroke-width="1.5"/>
<line x1="210.0" y1="220.0" x2="210.0" y2="260.0" stroke="rgb(255,0,0)" stroke-width="1.5"/>
<polygon points=" 203,248 217,248 217,272 203,272" fill="rgb(255,255,170)"/>
<text x="205.0" y="265.0" font-family="courier" font-size="16" fill="rgb(0,0,0)">X</text>
<polygon points=" 193,208 227,208 227,232 193,232" fill="rgb(255,255,170)"/>
<text x="195.0" y="225.0" font-family="courier" font-size="16" fill="rgb(0,0,0)">Var</text>
<line x1="260.0" y1="180.0" x2="260.0" y2="220.0" stroke="rgb(255,0,0)" stroke-width="1.5"/>
<line x1="260.0" y1="220.0" x2="260.0" y2="260.0" stroke="rgb(255,0,0)" stroke-width="1.5"/>
<polygon points=" 253,248 267,248 267,272 253,272" fill="rgb(255,255,170)"/>
<text x="255.0" y="265.0" font-family="courier" font-size="16" fill="rgb(0,0,0)">Y</text>
<polygon points=" 243,208 277,208 277,232 243,232" fill="rgb(255,255,170)"/>
<text x="245.0" y="225.0" font-family="courier" font-size="16" fill="rgb(0,0,0)">Var</text>
<line x1="260.0" y1="180.0" x2="310.0" y2="220.0" stroke="rgb(255,0,0)" stroke-width="1.5"/>
<line x1="310.0" y1="220.0" x2="310.0" y2="260.0" stroke="rgb(255,0,0)" stroke-width="1.5"/>
<polygon points=" 303,248 317,248 317,272 303,272" fill="rgb(255,255,170)"/>
<text x="305.0" y="265.0" font-family="courier" font-size="16" fill="rgb(0,0,0)">Z</text>
<polygon points=" 293,208 327,208 327,232 293,232" fill="rgb(255,255,170)"/>
<text x="295.0" y="225.0" font-family="courier" font-size="16" fill="rgb(0,0,0)">Var</text>
<polygon points=" 243,168 277,168 277,192 243,192" fill="rgb(255,255,170)"/>
<text x="245.0" y="185.0" font-family="courier" font-size="16" fill="rgb(0,0,0)">:**</text>
<polygon points=" 148,128 172,128 172,152 148,152" fill="rgb(255,255,170)"/>
<text x="150.0" y="145.0" font-family="courier" font-size="16" fill="rgb(0,0,0)">:+</text>
<polygon points=" 133,88 187,88 187,112 133,112" fill="rgb(255,255,170)"/>
<text x="135.0" y="105.0" font-family="courier" font-size="16" fill="rgb(0,0,0)">evalC</text>
<line x1="222.5" y1="60.0" x2="285.0" y2="100.0" stroke="rgb(255,0,0)" stroke-width="1.5"/>
<line x1="285.0" y1="100.0" x2="210.0" y2="140.0" stroke="rgb(255,0,0)" stroke-width="1.5"/>
<polygon points=" 203,128 217,128 217,152 203,152" fill="rgb(255,255,170)"/>
<text x="205.0" y="145.0" font-family="courier" font-size="16" fill="rgb(0,0,0)">X</text>
<line x1="285.0" y1="100.0" x2="240.0" y2="140.0" stroke="rgb(255,0,0)" stroke-width="1.5"/>
<polygon points=" 233,128 247,128 247,152 233,152" fill="rgb(255,255,170)"/>
<text x="235.0" y="145.0" font-family="courier" font-size="16" fill="rgb(0,0,0)">3</text>
<line x1="285.0" y1="100.0" x2="270.0" y2="140.0" stroke="rgb(255,0,0)" stroke-width="1.5"/>
<polygon points=" 263,128 277,128 277,152 263,152" fill="rgb(255,255,170)"/>
<text x="265.0" y="145.0" font-family="courier" font-size="16" fill="rgb(0,0,0)">Y</text>
<line x1="285.0" y1="100.0" x2="300.0" y2="140.0" stroke="rgb(255,0,0)" stroke-width="1.5"/>
<polygon points=" 293,128 307,128 307,152 293,152" fill="rgb(255,255,170)"/>
<text x="295.0" y="145.0" font-family="courier" font-size="16" fill="rgb(0,0,0)">4</text>
<line x1="285.0" y1="100.0" x2="330.0" y2="140.0" stroke="rgb(255,0,0)" stroke-width="1.5"/>
<polygon points=" 323,128 337,128 337,152 323,152" fill="rgb(255,255,170)"/>
<text x="325.0" y="145.0" font-family="courier" font-size="16" fill="rgb(0,0,0)">Z</text>
<line x1="285.0" y1="100.0" x2="360.0" y2="140.0" stroke="rgb(255,0,0)" stroke-width="1.5"/>
<polygon points=" 353,128 367,128 367,152 353,152" fill="rgb(255,255,170)"/>
<text x="355.0" y="145.0" font-family="courier" font-size="16" fill="rgb(0,0,0)">5</text>
<polygon points=" 278,88 292,88 292,112 278,112" fill="rgb(255,255,170)"/>
<text x="280.0" y="105.0" font-family="courier" font-size="16" fill="rgb(0,0,0)">&#955;</text>
<polygon points=" 216,48 230,48 230,72 216,72" fill="rgb(255,255,170)"/>
<text x="217.5" y="65.0" font-family="courier" font-size="16" fill="rgb(0,0,0)">$</text>
<polygon points=" 117,8 161,8 161,32 117,32" fill="rgb(255,255,170)"/>
<text x="118.75" y="25.0" font-family="courier" font-size="16" fill="rgb(0,0,0)">pair</text></svg>