<svg xmlns="http://www.w3.org/2000/svg"
xmlns:xlink="http://www.w3.org/1999/xlink"
version="1.1" baseProfile="full"
width="580" height="320">
<line x1="148.75" y1="20.0" x2="35.0" y2="60.0" stroke="rgb(255,0,0)" stroke-width="1.5"/>
<polygon points=" 18,48 52,48 52,72 18,72" fill="rgb(255,255,170)"/>
<text x="20.0" y="65.0" font-family="courier" font-size="16" fill="rgb(0,0,0)">974</text>
<line x1="148.75" y1="20.0" x2="262.5" y2="60.0" stroke="rgb(255,0,0)" stroke-width="1.5"/>
<line x1="262.5" y1="60.0" x2="107.5" y2="100.0" stroke="rgb(255,0,0)" stroke-width="1.5"/>
<line x1="107.5" y1="100.0" x2="45.0" y2="140.0" stroke="rgb(255,0,0)" stroke-width="1.5"/>
<line x1="45.0" y1="140.0" x2="45.0" y2="180.0" stroke="rgb(255,0,0)" stroke-width="1.5"/>
<line x1="45.0" y1="180.0" x2="25.0" y2="220.0" stroke="rgb(255,0,0)" stroke-width="1.5"/>
<polygon points=" 18,208 32,208 32,232 18,232" fill="rgb(170,255,170)"/>
<text x="20.0" y="225.0" font-family="courier" font-size="16" fill="rgb(0,0,0)">5</text>
<line x1="45.0" y1="180.0" x2="65.0" y2="220.0" stroke="rgb(255,0,0)" stroke-width="1.5"/>
<line x1="65.0" y1="220.0" x2="65.0" y2="260.0" stroke="rgb(255,0,0)" stroke-width="1.5"/>
<polygon points=" 53,248 77,248 77,272 53,272" fill="rgb(170,255,170)"/>
<text x="55.0" y="265.0" font-family="courier" font-size="16" fill="rgb(0,0,0)">11</text>
<polygon points=" 48,208 82,208 82,232 48,232" fill="rgb(170,255,170)"/>
<text x="50.0" y="225.0" font-family="courier" font-size="16" fill="rgb(0,0,0)">Con</text>
<polygon points=" 33,168 57,168 57,192 33,192" fill="rgb(170,255,170)"/>
<text x="35.0" y="185.0" font-family="courier" font-size="16" fill="rgb(0,0,0)">:*</text>
<polygon points=" 18,128 72,128 72,152 18,152" fill="rgb(170,255,170)"/>
<text x="20.0" y="145.0" font-family="courier" font-size="16" fill="rgb(0,0,0)">evalC</text>
<line x1="107.5" y1="100.0" x2="170.0" y2="140.0" stroke="rgb(255,0,0)" stroke-width="1.5"/>
<line x1="170.0" y1="140.0" x2="95.0" y2="180.0" stroke="rgb(255,0,0)" stroke-width="1.5"/>
<polygon points=" 88,168 102,168 102,192 88,192" fill="rgb(170,255,170)"/>
<text x="90.0" y="185.0" font-family="courier" font-size="16" fill="rgb(0,0,0)">X</text>
<line x1="170.0" y1="140.0" x2="125.0" y2="180.0" stroke="rgb(255,0,0)" stroke-width="1.5"/>
<polygon points=" 118,168 132,168 132,192 118,192" fill="rgb(170,255,170)"/>
<text x="120.0" y="185.0" font-family="courier" font-size="16" fill="rgb(0,0,0)">3</text>
<line x1="170.0" y1="140.0" x2="155.0" y2="180.0" stroke="rgb(255,0,0)" stroke-width="1.5"/>
<polygon points=" 148,168 162,168 162,192 148,192" fill="rgb(170,255,170)"/>
<text x="150.0" y="185.0" font-family="courier" font-size="16" fill="rgb(0,0,0)">Y</text>
<line x1="170.0" y1="140.0" x2="185.0" y2="180.0" stroke="rgb(255,0,0)" stroke-width="1.5"/>
<polygon points=" 178,168 192,168 192,192 178,192" fill="rgb(170,255,170)"/>
<text x="180.0" y="185.0" font-family="courier" font-size="16" fill="rgb(0,0,0)">4</text>
<line x1="170.0" y1="140.0" x2="215.0" y2="180.0" stroke="rgb(255,0,0)" stroke-width="1.5"/>
<polygon points=" 208,168 222,168 222,192 208,192" fill="rgb(170,255,170)"/>
<text x="210.0" y="185.0" font-family="courier" font-size="16" fill="rgb(0,0,0)">Z</text>
<line x1="170.0" y1="140.0" x2="245.0" y2="180.0" stroke="rgb(255,0,0)" stroke-width="1.5"/>
<polygon points=" 238,168 252,168 252,192 238,192" fill="rgb(170,255,170)"/>
<text x="240.0" y="185.0" font-family="courier" font-size="16" fill="rgb(0,0,0)">5</text>
<polygon points=" 163,128 177,128 177,152 163,152" fill="rgb(170,255,170)"/>
<text x="165.0" y="145.0" font-family="courier" font-size="16" fill="rgb(0,0,0)">&#955;</text>
<polygon points=" 100,88 114,88 114,112 100,112" fill="rgb(170,255,170)"/>
<text x="102.5" y="105.0" font-family="courier" font-size="16" fill="rgb(0,0,0)">$</text>
<line x1="262.5" y1="60.0" x2="417.5" y2="100.0" stroke="rgb(255,0,0)" stroke-width="1.5"/>
<line x1="417.5" y1="100.0" x2="355.0" y2="140.0" stroke="rgb(255,0,0)" stroke-width="1.5"/>
<line x1="355.0" y1="140.0" x2="355.0" y2="180.0" stroke="rgb(255,0,0)" stroke-width="1.5"/>
<line x1="355.0" y1="180.0" x2="295.0" y2="220.0" stroke="rgb(255,0,0)" stroke-width="1.5"/>
<line x1="295.0" y1="220.0" x2="275.0" y2="260.0" stroke="rgb(255,0,0)" stroke-width="1.5"/>
<polygon points=" 268,248 282,248 282,272 268,272" fill="rgb(170,255,170)"/>
<text x="270.0" y="265.0" font-family="courier" font-size="16" fill="rgb(0,0,0)">6</text>
<line x1="295.0" y1="220.0" x2="315.0" y2="260.0" stroke="rgb(255,0,0)" stroke-width="1.5"/>
<line x1="315.0" y1="260.0" x2="315.0" y2="300.0" stroke="rgb(255,0,0)" stroke-width="1.5"/>
<polygon points=" 303,288 327,288 327,312 303,312" fill="rgb(170,255,170)"/>
<text x="305.0" y="305.0" font-family="courier" font-size="16" fill="rgb(0,0,0)">12</text>
<polygon points=" 298,248 332,248 332,272 298,272" fill="rgb(170,255,170)"/>
<text x="300.0" y="265.0" font-family="courier" font-size="16" fill="rgb(0,0,0)">Con</text>
<polygon points=" 283,208 307,208 307,232 283,232" fill="rgb(170,255,170)"/>
<text x="285.0" y="225.0" font-family="courier" font-size="16" fill="rgb(0,0,0)">:*</text>
<line x1="355.0" y1="180.0" x2="415.0" y2="220.0" stroke="rgb(255,0,0)" stroke-width="1.5"/>
<line x1="415.0" y1="220.0" x2="365.0" y2="260.0" stroke="rgb(255,0,0)" stroke-width="1.5"/>
<line x1="365.0" y1="260.0" x2="365.0" y2="300.0" stroke="rgb(255,0,0)" stroke-width="1.5"/>
<polygon points=" 358,288 372,288 372,312 358,312" fill="rgb(170,255,170)"/>
<text x="360.0" y="305.0" font-family="courier" font-size="16" fill="rgb(0,0,0)">X</text>
<polygon points=" 348,248 382,248 382,272 348,272" fill="rgb(170,255,170)"/>
<text x="350.0" y="265.0" font-family="courier" font-size="16" fill="rgb(0,0,0)">Var</text>
<line x1="415.0" y1="220.0" x2="415.0" y2="260.0" stroke="rgb(255,0,0)" stroke-width="1.5"/>
<line x1="415.0" y1="260.0" x2="415.0" y2="300.0" stroke="rgb(255,0,0)" stroke-width="1.5"/>
<polygon points=" 408,288 422,288 422,312 408,312" fill="rgb(170,255,170)"/>
<text x="410.0" y="305.0" font-family="courier" font-size="16" fill="rgb(0,0,0)">Y</text>
<polygon points=" 398,248 432,248 432,272 398,272" fill="rgb(170,255,170)"/>
<text x="400.0" y="265.0" font-family="courier" font-size="16" fill="rgb(0,0,0)">Var</text>
<line x1="415.0" y1="220.0" x2="465.0" y2="260.0" stroke="rgb(255,0,0)" stroke-width="1.5"/>
<line x1="465.0" y1="260.0" x2="465.0" y2="300.0" stroke="rgb(255,0,0)" stroke-width="1.5"/>
<polygon points=" 458,288 472,288 472,312 458,312" fill="rgb(170,255,170)"/>
<text x="460.0" y="305.0" font-family="courier" font-size="16" fill="rgb(0,0,0)">Z</text>
<polygon points=" 448,248 482,248 482,272 448,272" fill="rgb(170,255,170)"/>
<text x="450.0" y="265.0" font-family="courier" font-size="16" fill="rgb(0,0,0)">Var</text>
<polygon points=" 398,208 432,208 432,232 398,232" fill="rgb(170,255,170)"/>
<text x="400.0" y="225.0" font-family="courier" font-size="16" fill="rgb(0,0,0)">:**</text>
<polygon points=" 343,168 367,168 367,192 343,192" fill="rgb(170,255,170)"/>
<text x="345.0" y="185.0" font-family="courier" font-size="16" fill="rgb(0,0,0)">:+</text>
<polygon points=" 328,128 382,128 382,152 328,152" fill="rgb(170,255,170)"/>
<text x="330.0" y="145.0" font-family="courier" font-size="16" fill="rgb(0,0,0)">evalC</text>
<line x1="417.5" y1="100.0" x2="480.0" y2="140.0" stroke="rgb(255,0,0)" stroke-width="1.5"/>
<line x1="480.0" y1="140.0" x2="405.0" y2="180.0" stroke="rgb(255,0,0)" stroke-width="1.5"/>
<polygon points=" 398,168 412,168 412,192 398,192" fill="rgb(170,255,170)"/>
<text x="400.0" y="185.0" font-family="courier" font-size="16" fill="rgb(0,0,0)">X</text>
<line x1="480.0" y1="140.0" x2="435.0" y2="180.0" stroke="rgb(255,0,0)" stroke-width="1.5"/>
<polygon points=" 428,168 442,168 442,192 428,192" fill="rgb(170,255,170)"/>
<text x="430.0" y="185.0" font-family="courier" font-size="16" fill="rgb(0,0,0)">3</text>
<line x1="480.0" y1="140.0" x2="465.0" y2="180.0" stroke="rgb(255,0,0)" stroke-width="1.5"/>
<polygon points=" 458,168 472,168 472,192 458,192" fill="rgb(170,255,170)"/>
<text x="460.0" y="185.0" font-family="courier" font-size="16" fill="rgb(0,0,0)">Y</text>
<line x1="480.0" y1="140.0" x2="495.0" y2="180.0" stroke="rgb(255,0,0)" stroke-width="1.5"/>
<polygon points=" 488,168 502,168 502,192 488,192" fill="rgb(170,255,170)"/>
<text x="490.0" y="185.0" font-family="courier" font-size="16" fill="rgb(0,0,0)">4</text>
<line x1="480.0" y1="140.0" x2="525.0" y2="180.0" stroke="rgb(255,0,0)" stroke-width="1.5"/>
<polygon points=" 518,168 532,168 532,192 518,192" fill="rgb(170,255,170)"/>
<text x="520.0" y="185.0" font-family="courier" font-size="16" fill="rgb(0,0,0)">Z</text>
<line x1="480.0" y1="140.0" x2="555.0" y2="180.0" stroke="rgb(255,0,0)" stroke-width="1.5"/>
<polygon points=" 548,168 562,168 562,192 548,192" fill="rgb(170,255,170)"/>
<text x="550.0" y="185.0" font-family="courier" font-size="16" fill="rgb(0,0,0)">5</text>
<polygon points=" 473,128 487,128 487,152 473,152" fill="rgb(170,255,170)"/>
<text x="475.0" y="145.0" font-family="courier" font-size="16" fill="rgb(0,0,0)">&#955;</text>
<polygon points=" 410,88 424,88 424,112 410,112" fill="rgb(170,255,170)"/>
<text x="412.5" y="105.0" font-family="courier" font-size="16" fill="rgb(0,0,0)">$</text>
<polygon points=" 256,48 270,48 270,72 256,72" fill="rgb(170,255,170)"/>
<text x="257.5" y="65.0" font-family="courier" font-size="16" fill="rgb(0,0,0)">+</text>
<polygon points=" 127,8 171,8 171,32 127,32" fill="rgb(255,255,170)"/>
<text x="128.75" y="25.0" font-family="courier" font-size="16" fill="rgb(0,0,0)">pair</text></svg>