<svg xmlns="http://www.w3.org/2000/svg"
xmlns:xlink="http://www.w3.org/1999/xlink"
version="1.1" baseProfile="full"
width="565" height="320">
<line x1="132.8125" y1="20.0" x2="35.0" y2="60.0" stroke="rgb(255,0,0)" stroke-width="1.5"/>
<polygon points=" 18,48 52,48 52,72 18,72" fill="rgb(255,255,170)"/>
<text x="20.0" y="65.0" font-family="courier" font-size="16" fill="rgb(0,0,0)">974</text>
<line x1="132.8125" y1="20.0" x2="230.625" y2="60.0" stroke="rgb(255,0,0)" stroke-width="1.5"/>
<line x1="230.625" y1="60.0" x2="58.75" y2="100.0" stroke="rgb(255,0,0)" stroke-width="1.5"/>
<line x1="58.75" y1="100.0" x2="25.0" y2="140.0" stroke="rgb(255,0,0)" stroke-width="1.5"/>
<polygon points=" 18,128 32,128 32,152 18,152" fill="rgb(255,255,170)"/>
<text x="20.0" y="145.0" font-family="courier" font-size="16" fill="rgb(0,0,0)">5</text>
<line x1="58.75" y1="100.0" x2="92.5" y2="140.0" stroke="rgb(255,0,0)" stroke-width="1.5"/>
<line x1="92.5" y1="140.0" x2="30.0" y2="180.0" stroke="rgb(255,0,0)" stroke-width="1.5"/>
<line x1="30.0" y1="180.0" x2="30.0" y2="220.0" stroke="rgb(255,0,0)" stroke-width="1.5"/>
<line x1="30.0" y1="220.0" x2="30.0" y2="260.0" stroke="rgb(255,0,0)" stroke-width="1.5"/>
<polygon points=" 18,248 42,248 42,272 18,272" fill="rgb(255,170,170)"/>
<text x="20.0" y="265.0" font-family="courier" font-size="16" fill="rgb(0,0,0)">11</text>
<polygon points=" 13,208 47,208 47,232 13,232" fill="rgb(255,170,170)"/>
<text x="15.0" y="225.0" font-family="courier" font-size="16" fill="rgb(0,0,0)">Con</text>
<polygon points=" 3,168 57,168 57,192 3,192" fill="rgb(255,170,170)"/>
<text x="5.0" y="185.0" font-family="courier" font-size="16" fill="rgb(0,0,0)">evalC</text>
<line x1="92.5" y1="140.0" x2="155.0" y2="180.0" stroke="rgb(255,0,0)" stroke-width="1.5"/>
<line x1="155.0" y1="180.0" x2="80.0" y2="220.0" stroke="rgb(255,0,0)" stroke-width="1.5"/>
<polygon points=" 73,208 87,208 87,232 73,232" fill="rgb(255,170,170)"/>
<text x="75.0" y="225.0" font-family="courier" font-size="16" fill="rgb(0,0,0)">X</text>
<line x1="155.0" y1="180.0" x2="110.0" y2="220.0" stroke="rgb(255,0,0)" stroke-width="1.5"/>
<polygon points=" 103,208 117,208 117,232 103,232" fill="rgb(255,170,170)"/>
<text x="105.0" y="225.0" font-family="courier" font-size="16" fill="rgb(0,0,0)">3</text>
<line x1="155.0" y1="180.0" x2="140.0" y2="220.0" stroke="rgb(255,0,0)" stroke-width="1.5"/>
<polygon points=" 133,208 147,208 147,232 133,232" fill="rgb(255,170,170)"/>
<text x="135.0" y="225.0" font-family="courier" font-size="16" fill="rgb(0,0,0)">Y</text>
<line x1="155.0" y1="180.0" x2="170.0" y2="220.0" stroke="rgb(255,0,0)" stroke-width="1.5"/>
<polygon points=" 163,208 177,208 177,232 163,232" fill="rgb(255,170,170)"/>
<text x="165.0" y="225.0" font-family="courier" font-size="16" fill="rgb(0,0,0)">4</text>
<line x1="155.0" y1="180.0" x2="200.0" y2="220.0" stroke="rgb(255,0,0)" stroke-width="1.5"/>
<polygon points=" 193,208 207,208 207,232 193,232" fill="rgb(255,170,170)"/>
<text x="195.0" y="225.0" font-family="courier" font-size="16" fill="rgb(0,0,0)">Z</text>
<line x1="155.0" y1="180.0" x2="230.0" y2="220.0" stroke="rgb(255,0,0)" stroke-width="1.5"/>
<polygon points=" 223,208 237,208 237,232 223,232" fill="rgb(255,170,170)"/>
<text x="225.0" y="225.0" font-family="courier" font-size="16" fill="rgb(0,0,0)">5</text>
<polygon points=" 148,168 162,168 162,192 148,192" fill="rgb(255,170,170)"/>
<text x="150.0" y="185.0" font-family="courier" font-size="16" fill="rgb(0,0,0)">&#955;</text>
<polygon points=" 86,128 100,128 100,152 86,152" fill="rgb(255,170,170)"/>
<text x="87.5" y="145.0" font-family="courier" font-size="16" fill="rgb(0,0,0)">$</text>
<polygon points=" 52,88 66,88 66,112 52,112" fill="rgb(255,255,170)"/>
<text x="53.75" y="105.0" font-family="courier" font-size="16" fill="rgb(0,0,0)">*</text>
<line x1="230.625" y1="60.0" x2="402.5" y2="100.0" stroke="rgb(255,0,0)" stroke-width="1.5"/>
<line x1="402.5" y1="100.0" x2="340.0" y2="140.0" stroke="rgb(255,0,0)" stroke-width="1.5"/>
<line x1="340.0" y1="140.0" x2="340.0" y2="180.0" stroke="rgb(255,0,0)" stroke-width="1.5"/>
<line x1="340.0" y1="180.0" x2="280.0" y2="220.0" stroke="rgb(255,0,0)" stroke-width="1.5"/>
<line x1="280.0" y1="220.0" x2="260.0" y2="260.0" stroke="rgb(255,0,0)" stroke-width="1.5"/>
<polygon points=" 253,248 267,248 267,272 253,272" fill="rgb(255,255,170)"/>
<text x="255.0" y="265.0" font-family="courier" font-size="16" fill="rgb(0,0,0)">6</text>
<line x1="280.0" y1="220.0" x2="300.0" y2="260.0" stroke="rgb(255,0,0)" stroke-width="1.5"/>
<line x1="300.0" y1="260.0" x2="300.0" y2="300.0" stroke="rgb(255,0,0)" stroke-width="1.5"/>
<polygon points=" 288,288 312,288 312,312 288,312" fill="rgb(255,255,170)"/>
<text x="290.0" y="305.0" font-family="courier" font-size="16" fill="rgb(0,0,0)">12</text>
<polygon points=" 283,248 317,248 317,272 283,272" fill="rgb(255,255,170)"/>
<text x="285.0" y="265.0" font-family="courier" font-size="16" fill="rgb(0,0,0)">Con</text>
<polygon points=" 268,208 292,208 292,232 268,232" fill="rgb(255,255,170)"/>
<text x="270.0" y="225.0" font-family="courier" font-size="16" fill="rgb(0,0,0)">:*</text>
<line x1="340.0" y1="180.0" x2="400.0" y2="220.0" stroke="rgb(255,0,0)" stroke-width="1.5"/>
<line x1="400.0" y1="220.0" x2="350.0" y2="260.0" stroke="rgb(255,0,0)" stroke-width="1.5"/>
<line x1="350.0" y1="260.0" x2="350.0" y2="300.0" stroke="rgb(255,0,0)" stroke-width="1.5"/>
<polygon points=" 343,288 357,288 357,312 343,312" fill="rgb(255,255,170)"/>
<text x="345.0" y="305.0" font-family="courier" font-size="16" fill="rgb(0,0,0)">X</text>
<polygon points=" 333,248 367,248 367,272 333,272" fill="rgb(255,255,170)"/>
<text x="335.0" y="265.0" font-family="courier" font-size="16" fill="rgb(0,0,0)">Var</text>
<line x1="400.0" y1="220.0" x2="400.0" y2="260.0" stroke="rgb(255,0,0)" stroke-width="1.5"/>
<line x1="400.0" y1="260.0" x2="400.0" y2="300.0" stroke="rgb(255,0,0)" stroke-width="1.5"/>
<polygon points=" 393,288 407,288 407,312 393,312" fill="rgb(255,255,170)"/>
<text x="395.0" y="305.0" font-family="courier" font-size="16" fill="rgb(0,0,0)">Y</text>
<polygon points=" 383,248 417,248 417,272 383,272" fill="rgb(255,255,170)"/>
<text x="385.0" y="265.0" font-family="courier" font-size="16" fill="rgb(0,0,0)">Var</text>
<line x1="400.0" y1="220.0" x2="450.0" y2="260.0" stroke="rgb(255,0,0)" stroke-width="1.5"/>
<line x1="450.0" y1="260.0" x2="450.0" y2="300.0" stroke="rgb(255,0,0)" stroke-width="1.5"/>
<polygon points=" 443,288 457,288 457,312 443,312" fill="rgb(255,255,170)"/>
<text x="445.0" y="305.0" font-family="courier" font-size="16" fill="rgb(0,0,0)">Z</text>
<polygon points=" 433,248 467,248 467,272 433,272" fill="rgb(255,255,170)"/>
<text x="435.0" y="265.0" font-family="courier" font-size="16" fill="rgb(0,0,0)">Var</text>
<polygon points=" 383,208 417,208 417,232 383,232" fill="rgb(255,255,170)"/>
<text x="385.0" y="225.0" font-family="courier" font-size="16" fill="rgb(0,0,0)">:**</text>
<polygon points=" 328,168 352,168 352,192 328,192" fill="rgb(255,255,170)"/>
<text x="330.0" y="185.0" font-family="courier" font-size="16" fill="rgb(0,0,0)">:+</text>
<polygon points=" 313,128 367,128 367,152 313,152" fill="rgb(255,255,170)"/>
<text x="315.0" y="145.0" font-family="courier" font-size="16" fill="rgb(0,0,0)">evalC</text>
<line x1="402.5" y1="100.0" x2="465.0" y2="140.0" stroke="rgb(255,0,0)" stroke-width="1.5"/>
<line x1="465.0" y1="140.0" x2="390.0" y2="180.0" stroke="rgb(255,0,0)" stroke-width="1.5"/>
<polygon points=" 383,168 397,168 397,192 383,192" fill="rgb(255,255,170)"/>
<text x="385.0" y="185.0" font-family="courier" font-size="16" fill="rgb(0,0,0)">X</text>
<line x1="465.0" y1="140.0" x2="420.0" y2="180.0" stroke="rgb(255,0,0)" stroke-width="1.5"/>
<polygon points=" 413,168 427,168 427,192 413,192" fill="rgb(255,255,170)"/>
<text x="415.0" y="185.0" font-family="courier" font-size="16" fill="rgb(0,0,0)">3</text>
<line x1="465.0" y1="140.0" x2="450.0" y2="180.0" stroke="rgb(255,0,0)" stroke-width="1.5"/>
<polygon points=" 443,168 457,168 457,192 443,192" fill="rgb(255,255,170)"/>
<text x="445.0" y="185.0" font-family="courier" font-size="16" fill="rgb(0,0,0)">Y</text>
<line x1="465.0" y1="140.0" x2="480.0" y2="180.0" stroke="rgb(255,0,0)" stroke-width="1.5"/>
<polygon points=" 473,168 487,168 487,192 473,192" fill="rgb(255,255,170)"/>
<text x="475.0" y="185.0" font-family="courier" font-size="16" fill="rgb(0,0,0)">4</text>
<line x1="465.0" y1="140.0" x2="510.0" y2="180.0" stroke="rgb(255,0,0)" stroke-width="1.5"/>
<polygon points=" 503,168 517,168 517,192 503,192" fill="rgb(255,255,170)"/>
<text x="505.0" y="185.0" font-family="courier" font-size="16" fill="rgb(0,0,0)">Z</text>
<line x1="465.0" y1="140.0" x2="540.0" y2="180.0" stroke="rgb(255,0,0)" stroke-width="1.5"/>
<polygon points=" 533,168 547,168 547,192 533,192" fill="rgb(255,255,170)"/>
<text x="535.0" y="185.0" font-family="courier" font-size="16" fill="rgb(0,0,0)">5</text>
<polygon points=" 458,128 472,128 472,152 458,152" fill="rgb(255,255,170)"/>
<text x="460.0" y="145.0" font-family="courier" font-size="16" fill="rgb(0,0,0)">&#955;</text>
<polygon points=" 396,88 410,88 410,112 396,112" fill="rgb(255,255,170)"/>
<text x="397.5" y="105.0" font-family="courier" font-size="16" fill="rgb(0,0,0)">$</text>
<polygon points=" 224,48 238,48 238,72 224,72" fill="rgb(255,255,170)"/>
<text x="225.625" y="65.0" font-family="courier" font-size="16" fill="rgb(0,0,0)">+</text>
<polygon points=" 111,8 155,8 155,32 111,32" fill="rgb(255,255,170)"/>
<text x="112.8125" y="25.0" font-family="courier" font-size="16" fill="rgb(0,0,0)">pair</text></svg>