<svg xmlns="http://www.w3.org/2000/svg"
xmlns:xlink="http://www.w3.org/1999/xlink"
version="1.1" baseProfile="full"
width="340" height="320">
<line x1="72.5" y1="20.0" x2="35.0" y2="60.0" stroke="rgb(255,0,0)" stroke-width="1.5"/>
<polygon points=" 18,48 52,48 52,72 18,72" fill="rgb(255,255,170)"/>
<text x="20.0" y="65.0" font-family="courier" font-size="16" fill="rgb(0,0,0)">974</text>
<line x1="72.5" y1="20.0" x2="110.0" y2="60.0" stroke="rgb(255,0,0)" stroke-width="1.5"/>
<line x1="110.0" y1="60.0" x2="42.5" y2="100.0" stroke="rgb(255,0,0)" stroke-width="1.5"/>
<line x1="42.5" y1="100.0" x2="25.0" y2="140.0" stroke="rgb(255,0,0)" stroke-width="1.5"/>
<polygon points=" 18,128 32,128 32,152 18,152" fill="rgb(255,170,170)"/>
<text x="20.0" y="145.0" font-family="courier" font-size="16" fill="rgb(0,0,0)">5</text>
<line x1="42.5" y1="100.0" x2="60.0" y2="140.0" stroke="rgb(255,0,0)" stroke-width="1.5"/>
<polygon points=" 48,128 72,128 72,152 48,152" fill="rgb(255,170,170)"/>
<text x="50.0" y="145.0" font-family="courier" font-size="16" fill="rgb(0,0,0)">11</text>
<polygon points=" 36,88 50,88 50,112 36,112" fill="rgb(255,170,170)"/>
<text x="37.5" y="105.0" font-family="courier" font-size="16" fill="rgb(0,0,0)">*</text>
<line x1="110.0" y1="60.0" x2="177.5" y2="100.0" stroke="rgb(255,0,0)" stroke-width="1.5"/>
<line x1="177.5" y1="100.0" x2="115.0" y2="140.0" stroke="rgb(255,0,0)" stroke-width="1.5"/>
<line x1="115.0" y1="140.0" x2="115.0" y2="180.0" stroke="rgb(255,0,0)" stroke-width="1.5"/>
<line x1="115.0" y1="180.0" x2="55.0" y2="220.0" stroke="rgb(255,0,0)" stroke-width="1.5"/>
<line x1="55.0" y1="220.0" x2="35.0" y2="260.0" stroke="rgb(255,0,0)" stroke-width="1.5"/>
<polygon points=" 28,248 42,248 42,272 28,272" fill="rgb(255,255,170)"/>
<text x="30.0" y="265.0" font-family="courier" font-size="16" fill="rgb(0,0,0)">6</text>
<line x1="55.0" y1="220.0" x2="75.0" y2="260.0" stroke="rgb(255,0,0)" stroke-width="1.5"/>
<line x1="75.0" y1="260.0" x2="75.0" y2="300.0" stroke="rgb(255,0,0)" stroke-width="1.5"/>
<polygon points=" 63,288 87,288 87,312 63,312" fill="rgb(255,255,170)"/>
<text x="65.0" y="305.0" font-family="courier" font-size="16" fill="rgb(0,0,0)">12</text>
<polygon points=" 58,248 92,248 92,272 58,272" fill="rgb(255,255,170)"/>
<text x="60.0" y="265.0" font-family="courier" font-size="16" fill="rgb(0,0,0)">Con</text>
<polygon points=" 43,208 67,208 67,232 43,232" fill="rgb(255,255,170)"/>
<text x="45.0" y="225.0" font-family="courier" font-size="16" fill="rgb(0,0,0)">:*</text>
<line x1="115.0" y1="180.0" x2="175.0" y2="220.0" stroke="rgb(255,0,0)" stroke-width="1.5"/>
<line x1="175.0" y1="220.0" x2="125.0" y2="260.0" stroke="rgb(255,0,0)" stroke-width="1.5"/>
<line x1="125.0" y1="260.0" x2="125.0" y2="300.0" stroke="rgb(255,0,0)" stroke-width="1.5"/>
<polygon points=" 118,288 132,288 132,312 118,312" fill="rgb(255,255,170)"/>
<text x="120.0" y="305.0" font-family="courier" font-size="16" fill="rgb(0,0,0)">X</text>
<polygon points=" 108,248 142,248 142,272 108,272" fill="rgb(255,255,170)"/>
<text x="110.0" y="265.0" font-family="courier" font-size="16" fill="rgb(0,0,0)">Var</text>
<line x1="175.0" y1="220.0" x2="175.0" y2="260.0" stroke="rgb(255,0,0)" stroke-width="1.5"/>
<line x1="175.0" y1="260.0" x2="175.0" y2="300.0" stroke="rgb(255,0,0)" stroke-width="1.5"/>
<polygon points=" 168,288 182,288 182,312 168,312" fill="rgb(255,255,170)"/>
<text x="170.0" y="305.0" font-family="courier" font-size="16" fill="rgb(0,0,0)">Y</text>
<polygon points=" 158,248 192,248 192,272 158,272" fill="rgb(255,255,170)"/>
<text x="160.0" y="265.0" font-family="courier" font-size="16" fill="rgb(0,0,0)">Var</text>
<line x1="175.0" y1="220.0" x2="225.0" y2="260.0" stroke="rgb(255,0,0)" stroke-width="1.5"/>
<line x1="225.0" y1="260.0" x2="225.0" y2="300.0" stroke="rgb(255,0,0)" stroke-width="1.5"/>
<polygon points=" 218,288 232,288 232,312 218,312" fill="rgb(255,255,170)"/>
<text x="220.0" y="305.0" font-family="courier" font-size="16" fill="rgb(0,0,0)">Z</text>
<polygon points=" 208,248 242,248 242,272 208,272" fill="rgb(255,255,170)"/>
<text x="210.0" y="265.0" font-family="courier" font-size="16" fill="rgb(0,0,0)">Var</text>
<polygon points=" 158,208 192,208 192,232 158,232" fill="rgb(255,255,170)"/>
<text x="160.0" y="225.0" font-family="courier" font-size="16" fill="rgb(0,0,0)">:**</text>
<polygon points=" 103,168 127,168 127,192 103,192" fill="rgb(255,255,170)"/>
<text x="105.0" y="185.0" font-family="courier" font-size="16" fill="rgb(0,0,0)">:+</text>
<polygon points=" 88,128 142,128 142,152 88,152" fill="rgb(255,255,170)"/>
<text x="90.0" y="145.0" font-family="courier" font-size="16" fill="rgb(0,0,0)">evalC</text>
<line x1="177.5" y1="100.0" x2="240.0" y2="140.0" stroke="rgb(255,0,0)" stroke-width="1.5"/>
<line x1="240.0" y1="140.0" x2="165.0" y2="180.0" stroke="rgb(255,0,0)" stroke-width="1.5"/>
<polygon points=" 158,168 172,168 172,192 158,192" fill="rgb(255,255,170)"/>
<text x="160.0" y="185.0" font-family="courier" font-size="16" fill="rgb(0,0,0)">X</text>
<line x1="240.0" y1="140.0" x2="195.0" y2="180.0" stroke="rgb(255,0,0)" stroke-width="1.5"/>
<polygon points=" 188,168 202,168 202,192 188,192" fill="rgb(255,255,170)"/>
<text x="190.0" y="185.0" font-family="courier" font-size="16" fill="rgb(0,0,0)">3</text>
<line x1="240.0" y1="140.0" x2="225.0" y2="180.0" stroke="rgb(255,0,0)" stroke-width="1.5"/>
<polygon points=" 218,168 232,168 232,192 218,192" fill="rgb(255,255,170)"/>
<text x="220.0" y="185.0" font-family="courier" font-size="16" fill="rgb(0,0,0)">Y</text>
<line x1="240.0" y1="140.0" x2="255.0" y2="180.0" stroke="rgb(255,0,0)" stroke-width="1.5"/>
<polygon points=" 248,168 262,168 262,192 248,192" fill="rgb(255,255,170)"/>
<text x="250.0" y="185.0" font-family="courier" font-size="16" fill="rgb(0,0,0)">4</text>
<line x1="240.0" y1="140.0" x2="285.0" y2="180.0" stroke="rgb(255,0,0)" stroke-width="1.5"/>
<polygon points=" 278,168 292,168 292,192 278,192" fill="rgb(255,255,170)"/>
<text x="280.0" y="185.0" font-family="courier" font-size="16" fill="rgb(0,0,0)">Z</text>
<line x1="240.0" y1="140.0" x2="315.0" y2="180.0" stroke="rgb(255,0,0)" stroke-width="1.5"/>
<polygon points=" 308,168 322,168 322,192 308,192" fill="rgb(255,255,170)"/>
<text x="310.0" y="185.0" font-family="courier" font-size="16" fill="rgb(0,0,0)">5</text>
<polygon points=" 233,128 247,128 247,152 233,152" fill="rgb(255,255,170)"/>
<text x="235.0" y="145.0" font-family="courier" font-size="16" fill="rgb(0,0,0)">&#955;</text>
<polygon points=" 170,88 184,88 184,112 170,112" fill="rgb(255,255,170)"/>
<text x="172.5" y="105.0" font-family="courier" font-size="16" fill="rgb(0,0,0)">$</text>
<polygon points=" 103,48 117,48 117,72 103,72" fill="rgb(255,255,170)"/>
<text x="105.0" y="65.0" font-family="courier" font-size="16" fill="rgb(0,0,0)">+</text>
<polygon points=" 50,8 94,8 94,32 50,32" fill="rgb(255,255,170)"/>
<text x="52.5" y="25.0" font-family="courier" font-size="16" fill="rgb(0,0,0)">pair</text></svg>