<svg xmlns="http://www.w3.org/2000/svg"
xmlns:xlink="http://www.w3.org/1999/xlink"
version="1.1" baseProfile="full"
width="330" height="320">
<line x1="66.875" y1="20.0" x2="35.0" y2="60.0" stroke="rgb(255,0,0)" stroke-width="1.5"/>
<polygon points=" 18,48 52,48 52,72 18,72" fill="rgb(255,255,170)"/>
<text x="20.0" y="65.0" font-family="courier" font-size="16" fill="rgb(0,0,0)">974</text>
<line x1="66.875" y1="20.0" x2="98.75" y2="60.0" stroke="rgb(255,0,0)" stroke-width="1.5"/>
<line x1="98.75" y1="60.0" x2="30.0" y2="100.0" stroke="rgb(255,0,0)" stroke-width="1.5"/>
<polygon points=" 18,88 42,88 42,112 18,112" fill="rgb(170,255,170)"/>
<text x="20.0" y="105.0" font-family="courier" font-size="16" fill="rgb(0,0,0)">55</text>
<line x1="98.75" y1="60.0" x2="167.5" y2="100.0" stroke="rgb(255,0,0)" stroke-width="1.5"/>
<line x1="167.5" y1="100.0" x2="105.0" y2="140.0" stroke="rgb(255,0,0)" stroke-width="1.5"/>
<line x1="105.0" y1="140.0" x2="105.0" y2="180.0" stroke="rgb(255,0,0)" stroke-width="1.5"/>
<line x1="105.0" y1="180.0" x2="45.0" y2="220.0" stroke="rgb(255,0,0)" stroke-width="1.5"/>
<line x1="45.0" y1="220.0" x2="25.0" y2="260.0" stroke="rgb(255,0,0)" stroke-width="1.5"/>
<polygon points=" 18,248 32,248 32,272 18,272" fill="rgb(255,255,170)"/>
<text x="20.0" y="265.0" font-family="courier" font-size="16" fill="rgb(0,0,0)">6</text>
<line x1="45.0" y1="220.0" x2="65.0" y2="260.0" stroke="rgb(255,0,0)" stroke-width="1.5"/>
<line x1="65.0" y1="260.0" x2="65.0" y2="300.0" stroke="rgb(255,0,0)" stroke-width="1.5"/>
<polygon points=" 53,288 77,288 77,312 53,312" fill="rgb(255,255,170)"/>
<text x="55.0" y="305.0" font-family="courier" font-size="16" fill="rgb(0,0,0)">12</text>
<polygon points=" 48,248 82,248 82,272 48,272" fill="rgb(255,255,170)"/>
<text x="50.0" y="265.0" font-family="courier" font-size="16" fill="rgb(0,0,0)">Con</text>
<polygon points=" 33,208 57,208 57,232 33,232" fill="rgb(255,255,170)"/>
<text x="35.0" y="225.0" font-family="courier" font-size="16" fill="rgb(0,0,0)">:*</text>
<line x1="105.0" y1="180.0" x2="165.0" y2="220.0" stroke="rgb(255,0,0)" stroke-width="1.5"/>
<line x1="165.0" y1="220.0" x2="115.0" y2="260.0" stroke="rgb(255,0,0)" stroke-width="1.5"/>
<line x1="115.0" y1="260.0" x2="115.0" y2="300.0" stroke="rgb(255,0,0)" stroke-width="1.5"/>
<polygon points=" 108,288 122,288 122,312 108,312" fill="rgb(255,255,170)"/>
<text x="110.0" y="305.0" font-family="courier" font-size="16" fill="rgb(0,0,0)">X</text>
<polygon points=" 98,248 132,248 132,272 98,272" fill="rgb(255,255,170)"/>
<text x="100.0" y="265.0" font-family="courier" font-size="16" fill="rgb(0,0,0)">Var</text>
<line x1="165.0" y1="220.0" x2="165.0" y2="260.0" stroke="rgb(255,0,0)" stroke-width="1.5"/>
<line x1="165.0" y1="260.0" x2="165.0" y2="300.0" stroke="rgb(255,0,0)" stroke-width="1.5"/>
<polygon points=" 158,288 172,288 172,312 158,312" fill="rgb(255,255,170)"/>
<text x="160.0" y="305.0" font-family="courier" font-size="16" fill="rgb(0,0,0)">Y</text>
<polygon points=" 148,248 182,248 182,272 148,272" fill="rgb(255,255,170)"/>
<text x="150.0" y="265.0" font-family="courier" font-size="16" fill="rgb(0,0,0)">Var</text>
<line x1="165.0" y1="220.0" x2="215.0" y2="260.0" stroke="rgb(255,0,0)" stroke-width="1.5"/>
<line x1="215.0" y1="260.0" x2="215.0" y2="300.0" stroke="rgb(255,0,0)" stroke-width="1.5"/>
<polygon points=" 208,288 222,288 222,312 208,312" fill="rgb(255,255,170)"/>
<text x="210.0" y="305.0" font-family="courier" font-size="16" fill="rgb(0,0,0)">Z</text>
<polygon points=" 198,248 232,248 232,272 198,272" fill="rgb(255,255,170)"/>
<text x="200.0" y="265.0" font-family="courier" font-size="16" fill="rgb(0,0,0)">Var</text>
<polygon points=" 148,208 182,208 182,232 148,232" fill="rgb(255,255,170)"/>
<text x="150.0" y="225.0" font-family="courier" font-size="16" fill="rgb(0,0,0)">:**</text>
<polygon points=" 93,168 117,168 117,192 93,192" fill="rgb(255,255,170)"/>
<text x="95.0" y="185.0" font-family="courier" font-size="16" fill="rgb(0,0,0)">:+</text>
<polygon points=" 78,128 132,128 132,152 78,152" fill="rgb(255,255,170)"/>
<text x="80.0" y="145.0" font-family="courier" font-size="16" fill="rgb(0,0,0)">evalC</text>
<line x1="167.5" y1="100.0" x2="230.0" y2="140.0" stroke="rgb(255,0,0)" stroke-width="1.5"/>
<line x1="230.0" y1="140.0" x2="155.0" y2="180.0" stroke="rgb(255,0,0)" stroke-width="1.5"/>
<polygon points=" 148,168 162,168 162,192 148,192" fill="rgb(255,255,170)"/>
<text x="150.0" y="185.0" font-family="courier" font-size="16" fill="rgb(0,0,0)">X</text>
<line x1="230.0" y1="140.0" x2="185.0" y2="180.0" stroke="rgb(255,0,0)" stroke-width="1.5"/>
<polygon points=" 178,168 192,168 192,192 178,192" fill="rgb(255,255,170)"/>
<text x="180.0" y="185.0" font-family="courier" font-size="16" fill="rgb(0,0,0)">3</text>
<line x1="230.0" y1="140.0" x2="215.0" y2="180.0" stroke="rgb(255,0,0)" stroke-width="1.5"/>
<polygon points=" 208,168 222,168 222,192 208,192" fill="rgb(255,255,170)"/>
<text x="210.0" y="185.0" font-family="courier" font-size="16" fill="rgb(0,0,0)">Y</text>
<line x1="230.0" y1="140.0" x2="245.0" y2="180.0" stroke="rgb(255,0,0)" stroke-width="1.5"/>
<polygon points=" 238,168 252,168 252,192 238,192" fill="rgb(255,255,170)"/>
<text x="240.0" y="185.0" font-family="courier" font-size="16" fill="rgb(0,0,0)">4</text>
<line x1="230.0" y1="140.0" x2="275.0" y2="180.0" stroke="rgb(255,0,0)" stroke-width="1.5"/>
<polygon points=" 268,168 282,168 282,192 268,192" fill="rgb(255,255,170)"/>
<text x="270.0" y="185.0" font-family="courier" font-size="16" fill="rgb(0,0,0)">Z</text>
<line x1="230.0" y1="140.0" x2="305.0" y2="180.0" stroke="rgb(255,0,0)" stroke-width="1.5"/>
<polygon points=" 298,168 312,168 312,192 298,192" fill="rgb(255,255,170)"/>
<text x="300.0" y="185.0" font-family="courier" font-size="16" fill="rgb(0,0,0)">5</text>
<polygon points=" 223,128 237,128 237,152 223,152" fill="rgb(255,255,170)"/>
<text x="225.0" y="145.0" font-family="courier" font-size="16" fill="rgb(0,0,0)">&#955;</text>
<polygon points=" 160,88 174,88 174,112 160,112" fill="rgb(255,255,170)"/>
<text x="162.5" y="105.0" font-family="courier" font-size="16" fill="rgb(0,0,0)">$</text>
<polygon points=" 92,48 106,48 106,72 92,72" fill="rgb(255,255,170)"/>
<text x="93.75" y="65.0" font-family="courier" font-size="16" fill="rgb(0,0,0)">+</text>
<polygon points=" 45,8 89,8 89,32 45,32" fill="rgb(255,255,170)"/>
<text x="46.875" y="25.0" font-family="courier" font-size="16" fill="rgb(0,0,0)">pair</text></svg>