<svg xmlns="http://www.w3.org/2000/svg"
xmlns:xlink="http://www.w3.org/1999/xlink"
version="1.1" baseProfile="full"
width="345" height="320">
<line x1="55.0" y1="20.0" x2="35.0" y2="60.0" stroke="rgb(255,0,0)" stroke-width="1.5"/>
<polygon points=" 18,48 52,48 52,72 18,72" fill="rgb(255,255,170)"/>
<text x="20.0" y="65.0" font-family="courier" font-size="16" fill="rgb(0,0,0)">974</text>
<line x1="55.0" y1="20.0" x2="75.0" y2="60.0" stroke="rgb(255,0,0)" stroke-width="1.5"/>
<line x1="75.0" y1="60.0" x2="35.0" y2="100.0" stroke="rgb(255,0,0)" stroke-width="1.5"/>
<polygon points=" 23,88 47,88 47,112 23,112" fill="rgb(255,255,170)"/>
<text x="25.0" y="105.0" font-family="courier" font-size="16" fill="rgb(0,0,0)">55</text>
<line x1="75.0" y1="60.0" x2="115.0" y2="100.0" stroke="rgb(255,0,0)" stroke-width="1.5"/>
<line x1="115.0" y1="100.0" x2="47.5" y2="140.0" stroke="rgb(255,0,0)" stroke-width="1.5"/>
<line x1="47.5" y1="140.0" x2="30.0" y2="180.0" stroke="rgb(255,0,0)" stroke-width="1.5"/>
<polygon points=" 23,168 37,168 37,192 23,192" fill="rgb(255,170,170)"/>
<text x="25.0" y="185.0" font-family="courier" font-size="16" fill="rgb(0,0,0)">6</text>
<line x1="47.5" y1="140.0" x2="65.0" y2="180.0" stroke="rgb(255,0,0)" stroke-width="1.5"/>
<polygon points=" 53,168 77,168 77,192 53,192" fill="rgb(255,170,170)"/>
<text x="55.0" y="185.0" font-family="courier" font-size="16" fill="rgb(0,0,0)">12</text>
<polygon points=" 40,128 54,128 54,152 40,152" fill="rgb(255,170,170)"/>
<text x="42.5" y="145.0" font-family="courier" font-size="16" fill="rgb(0,0,0)">*</text>
<line x1="115.0" y1="100.0" x2="182.5" y2="140.0" stroke="rgb(255,0,0)" stroke-width="1.5"/>
<line x1="182.5" y1="140.0" x2="120.0" y2="180.0" stroke="rgb(255,0,0)" stroke-width="1.5"/>
<line x1="120.0" y1="180.0" x2="120.0" y2="220.0" stroke="rgb(255,0,0)" stroke-width="1.5"/>
<line x1="120.0" y1="220.0" x2="70.0" y2="260.0" stroke="rgb(255,0,0)" stroke-width="1.5"/>
<line x1="70.0" y1="260.0" x2="70.0" y2="300.0" stroke="rgb(255,0,0)" stroke-width="1.5"/>
<polygon points=" 63,288 77,288 77,312 63,312" fill="rgb(255,255,170)"/>
<text x="65.0" y="305.0" font-family="courier" font-size="16" fill="rgb(0,0,0)">X</text>
<polygon points=" 53,248 87,248 87,272 53,272" fill="rgb(255,255,170)"/>
<text x="55.0" y="265.0" font-family="courier" font-size="16" fill="rgb(0,0,0)">Var</text>
<line x1="120.0" y1="220.0" x2="120.0" y2="260.0" stroke="rgb(255,0,0)" stroke-width="1.5"/>
<line x1="120.0" y1="260.0" x2="120.0" y2="300.0" stroke="rgb(255,0,0)" stroke-width="1.5"/>
<polygon points=" 113,288 127,288 127,312 113,312" fill="rgb(255,255,170)"/>
<text x="115.0" y="305.0" font-family="courier" font-size="16" fill="rgb(0,0,0)">Y</text>
<polygon points=" 103,248 137,248 137,272 103,272" fill="rgb(255,255,170)"/>
<text x="105.0" y="265.0" font-family="courier" font-size="16" fill="rgb(0,0,0)">Var</text>
<line x1="120.0" y1="220.0" x2="170.0" y2="260.0" stroke="rgb(255,0,0)" stroke-width="1.5"/>
<line x1="170.0" y1="260.0" x2="170.0" y2="300.0" stroke="rgb(255,0,0)" stroke-width="1.5"/>
<polygon points=" 163,288 177,288 177,312 163,312" fill="rgb(255,255,170)"/>
<text x="165.0" y="305.0" font-family="courier" font-size="16" fill="rgb(0,0,0)">Z</text>
<polygon points=" 153,248 187,248 187,272 153,272" fill="rgb(255,255,170)"/>
<text x="155.0" y="265.0" font-family="courier" font-size="16" fill="rgb(0,0,0)">Var</text>
<polygon points=" 103,208 137,208 137,232 103,232" fill="rgb(255,255,170)"/>
<text x="105.0" y="225.0" font-family="courier" font-size="16" fill="rgb(0,0,0)">:**</text>
<polygon points=" 93,168 147,168 147,192 93,192" fill="rgb(255,255,170)"/>
<text x="95.0" y="185.0" font-family="courier" font-size="16" fill="rgb(0,0,0)">evalC</text>
<line x1="182.5" y1="140.0" x2="245.0" y2="180.0" stroke="rgb(255,0,0)" stroke-width="1.5"/>
<line x1="245.0" y1="180.0" x2="170.0" y2="220.0" stroke="rgb(255,0,0)" stroke-width="1.5"/>
<polygon points=" 163,208 177,208 177,232 163,232" fill="rgb(255,255,170)"/>
<text x="165.0" y="225.0" font-family="courier" font-size="16" fill="rgb(0,0,0)">X</text>
<line x1="245.0" y1="180.0" x2="200.0" y2="220.0" stroke="rgb(255,0,0)" stroke-width="1.5"/>
<polygon points=" 193,208 207,208 207,232 193,232" fill="rgb(255,255,170)"/>
<text x="195.0" y="225.0" font-family="courier" font-size="16" fill="rgb(0,0,0)">3</text>
<line x1="245.0" y1="180.0" x2="230.0" y2="220.0" stroke="rgb(255,0,0)" stroke-width="1.5"/>
<polygon points=" 223,208 237,208 237,232 223,232" fill="rgb(255,255,170)"/>
<text x="225.0" y="225.0" font-family="courier" font-size="16" fill="rgb(0,0,0)">Y</text>
<line x1="245.0" y1="180.0" x2="260.0" y2="220.0" stroke="rgb(255,0,0)" stroke-width="1.5"/>
<polygon points=" 253,208 267,208 267,232 253,232" fill="rgb(255,255,170)"/>
<text x="255.0" y="225.0" font-family="courier" font-size="16" fill="rgb(0,0,0)">4</text>
<line x1="245.0" y1="180.0" x2="290.0" y2="220.0" stroke="rgb(255,0,0)" stroke-width="1.5"/>
<polygon points=" 283,208 297,208 297,232 283,232" fill="rgb(255,255,170)"/>
<text x="285.0" y="225.0" font-family="courier" font-size="16" fill="rgb(0,0,0)">Z</text>
<line x1="245.0" y1="180.0" x2="320.0" y2="220.0" stroke="rgb(255,0,0)" stroke-width="1.5"/>
<polygon points=" 313,208 327,208 327,232 313,232" fill="rgb(255,255,170)"/>
<text x="315.0" y="225.0" font-family="courier" font-size="16" fill="rgb(0,0,0)">5</text>
<polygon points=" 238,168 252,168 252,192 238,192" fill="rgb(255,255,170)"/>
<text x="240.0" y="185.0" font-family="courier" font-size="16" fill="rgb(0,0,0)">&#955;</text>
<polygon points=" 176,128 190,128 190,152 176,152" fill="rgb(255,255,170)"/>
<text x="177.5" y="145.0" font-family="courier" font-size="16" fill="rgb(0,0,0)">$</text>
<polygon points=" 108,88 122,88 122,112 108,112" fill="rgb(255,255,170)"/>
<text x="110.0" y="105.0" font-family="courier" font-size="16" fill="rgb(0,0,0)">+</text>
<polygon points=" 68,48 82,48 82,72 68,72" fill="rgb(255,255,170)"/>
<text x="70.0" y="65.0" font-family="courier" font-size="16" fill="rgb(0,0,0)">+</text>
<polygon points=" 33,8 77,8 77,32 33,32" fill="rgb(255,255,170)"/>
<text x="35.0" y="25.0" font-family="courier" font-size="16" fill="rgb(0,0,0)">pair</text></svg>