<svg xmlns="http://www.w3.org/2000/svg"
xmlns:xlink="http://www.w3.org/1999/xlink"
version="1.1" baseProfile="full"
width="515" height="360">
<line x1="56.25" y1="20.0" x2="35.0" y2="60.0" stroke="rgb(255,0,0)" stroke-width="1.5"/>
<polygon points=" 18,48 52,48 52,72 18,72" fill="rgb(255,255,170)"/>
<text x="20.0" y="65.0" font-family="courier" font-size="16" fill="rgb(0,0,0)">974</text>
<line x1="56.25" y1="20.0" x2="77.5" y2="60.0" stroke="rgb(255,0,0)" stroke-width="1.5"/>
<line x1="77.5" y1="60.0" x2="30.0" y2="100.0" stroke="rgb(255,0,0)" stroke-width="1.5"/>
<polygon points=" 18,88 42,88 42,112 18,112" fill="rgb(255,255,170)"/>
<text x="20.0" y="105.0" font-family="courier" font-size="16" fill="rgb(0,0,0)">55</text>
<line x1="77.5" y1="60.0" x2="125.0" y2="100.0" stroke="rgb(255,0,0)" stroke-width="1.5"/>
<line x1="125.0" y1="100.0" x2="30.0" y2="140.0" stroke="rgb(255,0,0)" stroke-width="1.5"/>
<polygon points=" 18,128 42,128 42,152 18,152" fill="rgb(255,255,170)"/>
<text x="20.0" y="145.0" font-family="courier" font-size="16" fill="rgb(0,0,0)">72</text>
<line x1="125.0" y1="100.0" x2="220.0" y2="140.0" stroke="rgb(255,0,0)" stroke-width="1.5"/>
<line x1="220.0" y1="140.0" x2="87.5" y2="180.0" stroke="rgb(255,0,0)" stroke-width="1.5"/>
<line x1="87.5" y1="180.0" x2="25.0" y2="220.0" stroke="rgb(255,0,0)" stroke-width="1.5"/>
<line x1="25.0" y1="220.0" x2="25.0" y2="260.0" stroke="rgb(255,0,0)" stroke-width="1.5"/>
<line x1="25.0" y1="260.0" x2="25.0" y2="300.0" stroke="rgb(255,0,0)" stroke-width="1.5"/>
<polygon points=" 18,288 32,288 32,312 18,312" fill="rgb(255,170,170)"/>
<text x="20.0" y="305.0" font-family="courier" font-size="16" fill="rgb(0,0,0)">X</text>
<polygon points=" 8,248 42,248 42,272 8,272" fill="rgb(255,170,170)"/>
<text x="10.0" y="265.0" font-family="courier" font-size="16" fill="rgb(0,0,0)">Var</text>
<polygon points=" -2,208 52,208 52,232 -2,232" fill="rgb(255,170,170)"/>
<text x="0.0" y="225.0" font-family="courier" font-size="16" fill="rgb(0,0,0)">evalC</text>
<line x1="87.5" y1="180.0" x2="150.0" y2="220.0" stroke="rgb(255,0,0)" stroke-width="1.5"/>
<line x1="150.0" y1="220.0" x2="75.0" y2="260.0" stroke="rgb(255,0,0)" stroke-width="1.5"/>
<polygon points=" 68,248 82,248 82,272 68,272" fill="rgb(255,170,170)"/>
<text x="70.0" y="265.0" font-family="courier" font-size="16" fill="rgb(0,0,0)">X</text>
<line x1="150.0" y1="220.0" x2="105.0" y2="260.0" stroke="rgb(255,0,0)" stroke-width="1.5"/>
<polygon points=" 98,248 112,248 112,272 98,272" fill="rgb(255,170,170)"/>
<text x="100.0" y="265.0" font-family="courier" font-size="16" fill="rgb(0,0,0)">3</text>
<line x1="150.0" y1="220.0" x2="135.0" y2="260.0" stroke="rgb(255,0,0)" stroke-width="1.5"/>
<polygon points=" 128,248 142,248 142,272 128,272" fill="rgb(255,170,170)"/>
<text x="130.0" y="265.0" font-family="courier" font-size="16" fill="rgb(0,0,0)">Y</text>
<line x1="150.0" y1="220.0" x2="165.0" y2="260.0" stroke="rgb(255,0,0)" stroke-width="1.5"/>
<polygon points=" 158,248 172,248 172,272 158,272" fill="rgb(255,170,170)"/>
<text x="160.0" y="265.0" font-family="courier" font-size="16" fill="rgb(0,0,0)">4</text>
<line x1="150.0" y1="220.0" x2="195.0" y2="260.0" stroke="rgb(255,0,0)" stroke-width="1.5"/>
<polygon points=" 188,248 202,248 202,272 188,272" fill="rgb(255,170,170)"/>
<text x="190.0" y="265.0" font-family="courier" font-size="16" fill="rgb(0,0,0)">Z</text>
<line x1="150.0" y1="220.0" x2="225.0" y2="260.0" stroke="rgb(255,0,0)" stroke-width="1.5"/>
<polygon points=" 218,248 232,248 232,272 218,272" fill="rgb(255,170,170)"/>
<text x="220.0" y="265.0" font-family="courier" font-size="16" fill="rgb(0,0,0)">5</text>
<polygon points=" 143,208 157,208 157,232 143,232" fill="rgb(255,170,170)"/>
<text x="145.0" y="225.0" font-family="courier" font-size="16" fill="rgb(0,0,0)">&#955;</text>
<polygon points=" 80,168 94,168 94,192 80,192" fill="rgb(255,170,170)"/>
<text x="82.5" y="185.0" font-family="courier" font-size="16" fill="rgb(0,0,0)">$</text>
<line x1="220.0" y1="140.0" x2="352.5" y2="180.0" stroke="rgb(255,0,0)" stroke-width="1.5"/>
<line x1="352.5" y1="180.0" x2="290.0" y2="220.0" stroke="rgb(255,0,0)" stroke-width="1.5"/>
<line x1="290.0" y1="220.0" x2="290.0" y2="260.0" stroke="rgb(255,0,0)" stroke-width="1.5"/>
<line x1="290.0" y1="260.0" x2="265.0" y2="300.0" stroke="rgb(255,0,0)" stroke-width="1.5"/>
<line x1="265.0" y1="300.0" x2="265.0" y2="340.0" stroke="rgb(255,0,0)" stroke-width="1.5"/>
<polygon points=" 258,328 272,328 272,352 258,352" fill="rgb(255,255,170)"/>
<text x="260.0" y="345.0" font-family="courier" font-size="16" fill="rgb(0,0,0)">Y</text>
<polygon points=" 248,288 282,288 282,312 248,312" fill="rgb(255,255,170)"/>
<text x="250.0" y="305.0" font-family="courier" font-size="16" fill="rgb(0,0,0)">Var</text>
<line x1="290.0" y1="260.0" x2="315.0" y2="300.0" stroke="rgb(255,0,0)" stroke-width="1.5"/>
<line x1="315.0" y1="300.0" x2="315.0" y2="340.0" stroke="rgb(255,0,0)" stroke-width="1.5"/>
<polygon points=" 308,328 322,328 322,352 308,352" fill="rgb(255,255,170)"/>
<text x="310.0" y="345.0" font-family="courier" font-size="16" fill="rgb(0,0,0)">Z</text>
<polygon points=" 298,288 332,288 332,312 298,312" fill="rgb(255,255,170)"/>
<text x="300.0" y="305.0" font-family="courier" font-size="16" fill="rgb(0,0,0)">Var</text>
<polygon points=" 273,248 307,248 307,272 273,272" fill="rgb(255,255,170)"/>
<text x="275.0" y="265.0" font-family="courier" font-size="16" fill="rgb(0,0,0)">:**</text>
<polygon points=" 263,208 317,208 317,232 263,232" fill="rgb(255,255,170)"/>
<text x="265.0" y="225.0" font-family="courier" font-size="16" fill="rgb(0,0,0)">evalC</text>
<line x1="352.5" y1="180.0" x2="415.0" y2="220.0" stroke="rgb(255,0,0)" stroke-width="1.5"/>
<line x1="415.0" y1="220.0" x2="340.0" y2="260.0" stroke="rgb(255,0,0)" stroke-width="1.5"/>
<polygon points=" 333,248 347,248 347,272 333,272" fill="rgb(255,255,170)"/>
<text x="335.0" y="265.0" font-family="courier" font-size="16" fill="rgb(0,0,0)">X</text>
<line x1="415.0" y1="220.0" x2="370.0" y2="260.0" stroke="rgb(255,0,0)" stroke-width="1.5"/>
<polygon points=" 363,248 377,248 377,272 363,272" fill="rgb(255,255,170)"/>
<text x="365.0" y="265.0" font-family="courier" font-size="16" fill="rgb(0,0,0)">3</text>
<line x1="415.0" y1="220.0" x2="400.0" y2="260.0" stroke="rgb(255,0,0)" stroke-width="1.5"/>
<polygon points=" 393,248 407,248 407,272 393,272" fill="rgb(255,255,170)"/>
<text x="395.0" y="265.0" font-family="courier" font-size="16" fill="rgb(0,0,0)">Y</text>
<line x1="415.0" y1="220.0" x2="430.0" y2="260.0" stroke="rgb(255,0,0)" stroke-width="1.5"/>
<polygon points=" 423,248 437,248 437,272 423,272" fill="rgb(255,255,170)"/>
<text x="425.0" y="265.0" font-family="courier" font-size="16" fill="rgb(0,0,0)">4</text>
<line x1="415.0" y1="220.0" x2="460.0" y2="260.0" stroke="rgb(255,0,0)" stroke-width="1.5"/>
<polygon points=" 453,248 467,248 467,272 453,272" fill="rgb(255,255,170)"/>
<text x="455.0" y="265.0" font-family="courier" font-size="16" fill="rgb(0,0,0)">Z</text>
<line x1="415.0" y1="220.0" x2="490.0" y2="260.0" stroke="rgb(255,0,0)" stroke-width="1.5"/>
<polygon points=" 483,248 497,248 497,272 483,272" fill="rgb(255,255,170)"/>
<text x="485.0" y="265.0" font-family="courier" font-size="16" fill="rgb(0,0,0)">5</text>
<polygon points=" 408,208 422,208 422,232 408,232" fill="rgb(255,255,170)"/>
<text x="410.0" y="225.0" font-family="courier" font-size="16" fill="rgb(0,0,0)">&#955;</text>
<polygon points=" 346,168 360,168 360,192 346,192" fill="rgb(255,255,170)"/>
<text x="347.5" y="185.0" font-family="courier" font-size="16" fill="rgb(0,0,0)">$</text>
<polygon points=" 213,128 227,128 227,152 213,152" fill="rgb(255,255,170)"/>
<text x="215.0" y="145.0" font-family="courier" font-size="16" fill="rgb(0,0,0)">*</text>
<polygon points=" 118,88 132,88 132,112 118,112" fill="rgb(255,255,170)"/>
<text x="120.0" y="105.0" font-family="courier" font-size="16" fill="rgb(0,0,0)">+</text>
<polygon points=" 70,48 84,48 84,72 70,72" fill="rgb(255,255,170)"/>
<text x="72.5" y="65.0" font-family="courier" font-size="16" fill="rgb(0,0,0)">+</text>
<polygon points=" 34,8 78,8 78,32 34,32" fill="rgb(255,255,170)"/>
<text x="36.25" y="25.0" font-family="courier" font-size="16" fill="rgb(0,0,0)">pair</text></svg>