<svg xmlns="http://www.w3.org/2000/svg"
xmlns:xlink="http://www.w3.org/1999/xlink"
version="1.1" baseProfile="full"
width="451" height="360">
<line x1="55.0" y1="20.0" x2="35.0" y2="60.0" stroke="rgb(255,0,0)" stroke-width="1.5"/>
<polygon points=" 18,48 52,48 52,72 18,72" fill="rgb(255,255,170)"/>
<text x="20.0" y="65.0" font-family="courier" font-size="16" fill="rgb(0,0,0)">974</text>
<line x1="55.0" y1="20.0" x2="75.0" y2="60.0" stroke="rgb(255,0,0)" stroke-width="1.5"/>
<line x1="75.0" y1="60.0" x2="30.625" y2="100.0" stroke="rgb(255,0,0)" stroke-width="1.5"/>
<polygon points=" 19,88 43,88 43,112 19,112" fill="rgb(255,255,170)"/>
<text x="20.625" y="105.0" font-family="courier" font-size="16" fill="rgb(0,0,0)">55</text>
<line x1="75.0" y1="60.0" x2="119.375" y2="100.0" stroke="rgb(255,0,0)" stroke-width="1.5"/>
<line x1="119.375" y1="100.0" x2="30.625" y2="140.0" stroke="rgb(255,0,0)" stroke-width="1.5"/>
<polygon points=" 19,128 43,128 43,152 19,152" fill="rgb(255,255,170)"/>
<text x="20.625" y="145.0" font-family="courier" font-size="16" fill="rgb(0,0,0)">72</text>
<line x1="119.375" y1="100.0" x2="208.125" y2="140.0" stroke="rgb(255,0,0)" stroke-width="1.5"/>
<line x1="208.125" y1="140.0" x2="128.125" y2="180.0" stroke="rgb(255,0,0)" stroke-width="1.5"/>
<line x1="128.125" y1="180.0" x2="100.625" y2="220.0" stroke="rgb(255,0,0)" stroke-width="1.5"/>
<line x1="100.625" y1="220.0" x2="25.625" y2="260.0" stroke="rgb(255,0,0)" stroke-width="1.5"/>
<polygon points=" 19,248 33,248 33,272 19,272" fill="rgb(170,255,170)"/>
<text x="20.625" y="265.0" font-family="courier" font-size="16" fill="rgb(0,0,0)">X</text>
<line x1="100.625" y1="220.0" x2="55.625" y2="260.0" stroke="rgb(255,0,0)" stroke-width="1.5"/>
<polygon points=" 49,248 63,248 63,272 49,272" fill="rgb(170,255,170)"/>
<text x="50.625" y="265.0" font-family="courier" font-size="16" fill="rgb(0,0,0)">3</text>
<line x1="100.625" y1="220.0" x2="85.625" y2="260.0" stroke="rgb(255,0,0)" stroke-width="1.5"/>
<polygon points=" 79,248 93,248 93,272 79,272" fill="rgb(170,255,170)"/>
<text x="80.625" y="265.0" font-family="courier" font-size="16" fill="rgb(0,0,0)">Y</text>
<line x1="100.625" y1="220.0" x2="115.625" y2="260.0" stroke="rgb(255,0,0)" stroke-width="1.5"/>
<polygon points=" 109,248 123,248 123,272 109,272" fill="rgb(170,255,170)"/>
<text x="110.625" y="265.0" font-family="courier" font-size="16" fill="rgb(0,0,0)">4</text>
<line x1="100.625" y1="220.0" x2="145.625" y2="260.0" stroke="rgb(255,0,0)" stroke-width="1.5"/>
<polygon points=" 139,248 153,248 153,272 139,272" fill="rgb(170,255,170)"/>
<text x="140.625" y="265.0" font-family="courier" font-size="16" fill="rgb(0,0,0)">Z</text>
<line x1="100.625" y1="220.0" x2="175.625" y2="260.0" stroke="rgb(255,0,0)" stroke-width="1.5"/>
<polygon points=" 169,248 183,248 183,272 169,272" fill="rgb(170,255,170)"/>
<text x="170.625" y="265.0" font-family="courier" font-size="16" fill="rgb(0,0,0)">5</text>
<polygon points=" 94,208 108,208 108,232 94,232" fill="rgb(170,255,170)"/>
<text x="95.625" y="225.0" font-family="courier" font-size="16" fill="rgb(0,0,0)">&#955;</text>
<line x1="128.125" y1="180.0" x2="155.625" y2="220.0" stroke="rgb(255,0,0)" stroke-width="1.5"/>
<polygon points=" 149,208 163,208 163,232 149,232" fill="rgb(170,255,170)"/>
<text x="150.625" y="225.0" font-family="courier" font-size="16" fill="rgb(0,0,0)">X</text>
<polygon points=" 121,168 135,168 135,192 121,192" fill="rgb(170,255,170)"/>
<text x="123.125" y="185.0" font-family="courier" font-size="16" fill="rgb(0,0,0)">$</text>
<line x1="208.125" y1="140.0" x2="288.125" y2="180.0" stroke="rgb(255,0,0)" stroke-width="1.5"/>
<line x1="288.125" y1="180.0" x2="225.625" y2="220.0" stroke="rgb(255,0,0)" stroke-width="1.5"/>
<line x1="225.625" y1="220.0" x2="225.625" y2="260.0" stroke="rgb(255,0,0)" stroke-width="1.5"/>
<line x1="225.625" y1="260.0" x2="200.625" y2="300.0" stroke="rgb(255,0,0)" stroke-width="1.5"/>
<line x1="200.625" y1="300.0" x2="200.625" y2="340.0" stroke="rgb(255,0,0)" stroke-width="1.5"/>
<polygon points=" 194,328 208,328 208,352 194,352" fill="rgb(255,255,170)"/>
<text x="195.625" y="345.0" font-family="courier" font-size="16" fill="rgb(0,0,0)">Y</text>
<polygon points=" 184,288 218,288 218,312 184,312" fill="rgb(255,255,170)"/>
<text x="185.625" y="305.0" font-family="courier" font-size="16" fill="rgb(0,0,0)">Var</text>
<line x1="225.625" y1="260.0" x2="250.625" y2="300.0" stroke="rgb(255,0,0)" stroke-width="1.5"/>
<line x1="250.625" y1="300.0" x2="250.625" y2="340.0" stroke="rgb(255,0,0)" stroke-width="1.5"/>
<polygon points=" 244,328 258,328 258,352 244,352" fill="rgb(255,255,170)"/>
<text x="245.625" y="345.0" font-family="courier" font-size="16" fill="rgb(0,0,0)">Z</text>
<polygon points=" 234,288 268,288 268,312 234,312" fill="rgb(255,255,170)"/>
<text x="235.625" y="305.0" font-family="courier" font-size="16" fill="rgb(0,0,0)">Var</text>
<polygon points=" 209,248 243,248 243,272 209,272" fill="rgb(255,255,170)"/>
<text x="210.625" y="265.0" font-family="courier" font-size="16" fill="rgb(0,0,0)">:**</text>
<polygon points=" 199,208 253,208 253,232 199,232" fill="rgb(255,255,170)"/>
<text x="200.625" y="225.0" font-family="courier" font-size="16" fill="rgb(0,0,0)">evalC</text>
<line x1="288.125" y1="180.0" x2="350.625" y2="220.0" stroke="rgb(255,0,0)" stroke-width="1.5"/>
<line x1="350.625" y1="220.0" x2="275.625" y2="260.0" stroke="rgb(255,0,0)" stroke-width="1.5"/>
<polygon points=" 269,248 283,248 283,272 269,272" fill="rgb(255,255,170)"/>
<text x="270.625" y="265.0" font-family="courier" font-size="16" fill="rgb(0,0,0)">X</text>
<line x1="350.625" y1="220.0" x2="305.625" y2="260.0" stroke="rgb(255,0,0)" stroke-width="1.5"/>
<polygon points=" 299,248 313,248 313,272 299,272" fill="rgb(255,255,170)"/>
<text x="300.625" y="265.0" font-family="courier" font-size="16" fill="rgb(0,0,0)">3</text>
<line x1="350.625" y1="220.0" x2="335.625" y2="260.0" stroke="rgb(255,0,0)" stroke-width="1.5"/>
<polygon points=" 329,248 343,248 343,272 329,272" fill="rgb(255,255,170)"/>
<text x="330.625" y="265.0" font-family="courier" font-size="16" fill="rgb(0,0,0)">Y</text>
<line x1="350.625" y1="220.0" x2="365.625" y2="260.0" stroke="rgb(255,0,0)" stroke-width="1.5"/>
<polygon points=" 359,248 373,248 373,272 359,272" fill="rgb(255,255,170)"/>
<text x="360.625" y="265.0" font-family="courier" font-size="16" fill="rgb(0,0,0)">4</text>
<line x1="350.625" y1="220.0" x2="395.625" y2="260.0" stroke="rgb(255,0,0)" stroke-width="1.5"/>
<polygon points=" 389,248 403,248 403,272 389,272" fill="rgb(255,255,170)"/>
<text x="390.625" y="265.0" font-family="courier" font-size="16" fill="rgb(0,0,0)">Z</text>
<line x1="350.625" y1="220.0" x2="425.625" y2="260.0" stroke="rgb(255,0,0)" stroke-width="1.5"/>
<polygon points=" 419,248 433,248 433,272 419,272" fill="rgb(255,255,170)"/>
<text x="420.625" y="265.0" font-family="courier" font-size="16" fill="rgb(0,0,0)">5</text>
<polygon points=" 344,208 358,208 358,232 344,232" fill="rgb(255,255,170)"/>
<text x="345.625" y="225.0" font-family="courier" font-size="16" fill="rgb(0,0,0)">&#955;</text>
<polygon points=" 281,168 295,168 295,192 281,192" fill="rgb(255,255,170)"/>
<text x="283.125" y="185.0" font-family="courier" font-size="16" fill="rgb(0,0,0)">$</text>
<polygon points=" 201,128 215,128 215,152 201,152" fill="rgb(255,255,170)"/>
<text x="203.125" y="145.0" font-family="courier" font-size="16" fill="rgb(0,0,0)">*</text>
<polygon points=" 112,88 126,88 126,112 112,112" fill="rgb(255,255,170)"/>
<text x="114.375" y="105.0" font-family="courier" font-size="16" fill="rgb(0,0,0)">+</text>
<polygon points=" 68,48 82,48 82,72 68,72" fill="rgb(255,255,170)"/>
<text x="70.0" y="65.0" font-family="courier" font-size="16" fill="rgb(0,0,0)">+</text>
<polygon points=" 33,8 77,8 77,32 33,32" fill="rgb(255,255,170)"/>
<text x="35.0" y="25.0" font-family="courier" font-size="16" fill="rgb(0,0,0)">pair</text></svg>