<svg xmlns="http://www.w3.org/2000/svg"
xmlns:xlink="http://www.w3.org/1999/xlink"
version="1.1" baseProfile="full"
width="318" height="360">
<line x1="55.0" y1="20.0" x2="35.0" y2="60.0" stroke="rgb(255,0,0)" stroke-width="1.5"/>
<polygon points=" 18,48 52,48 52,72 18,72" fill="rgb(255,255,170)"/>
<text x="20.0" y="65.0" font-family="courier" font-size="16" fill="rgb(0,0,0)">974</text>
<line x1="55.0" y1="20.0" x2="75.0" y2="60.0" stroke="rgb(255,0,0)" stroke-width="1.5"/>
<line x1="75.0" y1="60.0" x2="57.5" y2="100.0" stroke="rgb(255,0,0)" stroke-width="1.5"/>
<polygon points=" 46,88 70,88 70,112 46,112" fill="rgb(255,255,170)"/>
<text x="47.5" y="105.0" font-family="courier" font-size="16" fill="rgb(0,0,0)">55</text>
<line x1="75.0" y1="60.0" x2="92.5" y2="100.0" stroke="rgb(255,0,0)" stroke-width="1.5"/>
<line x1="92.5" y1="100.0" x2="73.125" y2="140.0" stroke="rgb(255,0,0)" stroke-width="1.5"/>
<polygon points=" 61,128 85,128 85,152 61,152" fill="rgb(255,255,170)"/>
<text x="63.125" y="145.0" font-family="courier" font-size="16" fill="rgb(0,0,0)">72</text>
<line x1="92.5" y1="100.0" x2="111.875" y2="140.0" stroke="rgb(255,0,0)" stroke-width="1.5"/>
<line x1="111.875" y1="140.0" x2="68.125" y2="180.0" stroke="rgb(255,0,0)" stroke-width="1.5"/>
<polygon points=" 61,168 75,168 75,192 61,192" fill="rgb(255,255,170)"/>
<text x="63.125" y="185.0" font-family="courier" font-size="16" fill="rgb(0,0,0)">3</text>
<line x1="111.875" y1="140.0" x2="155.625" y2="180.0" stroke="rgb(255,0,0)" stroke-width="1.5"/>
<line x1="155.625" y1="180.0" x2="93.125" y2="220.0" stroke="rgb(255,0,0)" stroke-width="1.5"/>
<line x1="93.125" y1="220.0" x2="93.125" y2="260.0" stroke="rgb(255,0,0)" stroke-width="1.5"/>
<line x1="93.125" y1="260.0" x2="68.125" y2="300.0" stroke="rgb(255,0,0)" stroke-width="1.5"/>
<line x1="68.125" y1="300.0" x2="68.125" y2="340.0" stroke="rgb(255,0,0)" stroke-width="1.5"/>
<polygon points=" 61,328 75,328 75,352 61,352" fill="rgb(255,170,170)"/>
<text x="63.125" y="345.0" font-family="courier" font-size="16" fill="rgb(0,0,0)">Y</text>
<polygon points=" 51,288 85,288 85,312 51,312" fill="rgb(255,170,170)"/>
<text x="53.125" y="305.0" font-family="courier" font-size="16" fill="rgb(0,0,0)">Var</text>
<line x1="93.125" y1="260.0" x2="118.125" y2="300.0" stroke="rgb(255,0,0)" stroke-width="1.5"/>
<line x1="118.125" y1="300.0" x2="118.125" y2="340.0" stroke="rgb(255,0,0)" stroke-width="1.5"/>
<polygon points=" 111,328 125,328 125,352 111,352" fill="rgb(255,170,170)"/>
<text x="113.125" y="345.0" font-family="courier" font-size="16" fill="rgb(0,0,0)">Z</text>
<polygon points=" 101,288 135,288 135,312 101,312" fill="rgb(255,170,170)"/>
<text x="103.125" y="305.0" font-family="courier" font-size="16" fill="rgb(0,0,0)">Var</text>
<polygon points=" 76,248 110,248 110,272 76,272" fill="rgb(255,170,170)"/>
<text x="78.125" y="265.0" font-family="courier" font-size="16" fill="rgb(0,0,0)">:**</text>
<polygon points=" 66,208 120,208 120,232 66,232" fill="rgb(255,170,170)"/>
<text x="68.125" y="225.0" font-family="courier" font-size="16" fill="rgb(0,0,0)">evalC</text>
<line x1="155.625" y1="180.0" x2="218.125" y2="220.0" stroke="rgb(255,0,0)" stroke-width="1.5"/>
<line x1="218.125" y1="220.0" x2="143.125" y2="260.0" stroke="rgb(255,0,0)" stroke-width="1.5"/>
<polygon points=" 136,248 150,248 150,272 136,272" fill="rgb(255,170,170)"/>
<text x="138.125" y="265.0" font-family="courier" font-size="16" fill="rgb(0,0,0)">X</text>
<line x1="218.125" y1="220.0" x2="173.125" y2="260.0" stroke="rgb(255,0,0)" stroke-width="1.5"/>
<polygon points=" 166,248 180,248 180,272 166,272" fill="rgb(255,170,170)"/>
<text x="168.125" y="265.0" font-family="courier" font-size="16" fill="rgb(0,0,0)">3</text>
<line x1="218.125" y1="220.0" x2="203.125" y2="260.0" stroke="rgb(255,0,0)" stroke-width="1.5"/>
<polygon points=" 196,248 210,248 210,272 196,272" fill="rgb(255,170,170)"/>
<text x="198.125" y="265.0" font-family="courier" font-size="16" fill="rgb(0,0,0)">Y</text>
<line x1="218.125" y1="220.0" x2="233.125" y2="260.0" stroke="rgb(255,0,0)" stroke-width="1.5"/>
<polygon points=" 226,248 240,248 240,272 226,272" fill="rgb(255,170,170)"/>
<text x="228.125" y="265.0" font-family="courier" font-size="16" fill="rgb(0,0,0)">4</text>
<line x1="218.125" y1="220.0" x2="263.125" y2="260.0" stroke="rgb(255,0,0)" stroke-width="1.5"/>
<polygon points=" 256,248 270,248 270,272 256,272" fill="rgb(255,170,170)"/>
<text x="258.125" y="265.0" font-family="courier" font-size="16" fill="rgb(0,0,0)">Z</text>
<line x1="218.125" y1="220.0" x2="293.125" y2="260.0" stroke="rgb(255,0,0)" stroke-width="1.5"/>
<polygon points=" 286,248 300,248 300,272 286,272" fill="rgb(255,170,170)"/>
<text x="288.125" y="265.0" font-family="courier" font-size="16" fill="rgb(0,0,0)">5</text>
<polygon points=" 211,208 225,208 225,232 211,232" fill="rgb(255,170,170)"/>
<text x="213.125" y="225.0" font-family="courier" font-size="16" fill="rgb(0,0,0)">&#955;</text>
<polygon points=" 149,168 163,168 163,192 149,192" fill="rgb(255,170,170)"/>
<text x="150.625" y="185.0" font-family="courier" font-size="16" fill="rgb(0,0,0)">$</text>
<polygon points=" 105,128 119,128 119,152 105,152" fill="rgb(255,255,170)"/>
<text x="106.875" y="145.0" font-family="courier" font-size="16" fill="rgb(0,0,0)">*</text>
<polygon points=" 86,88 100,88 100,112 86,112" fill="rgb(255,255,170)"/>
<text x="87.5" y="105.0" font-family="courier" font-size="16" fill="rgb(0,0,0)">+</text>
<polygon points=" 68,48 82,48 82,72 68,72" fill="rgb(255,255,170)"/>
<text x="70.0" y="65.0" font-family="courier" font-size="16" fill="rgb(0,0,0)">+</text>
<polygon points=" 33,8 77,8 77,32 33,32" fill="rgb(255,255,170)"/>
<text x="35.0" y="25.0" font-family="courier" font-size="16" fill="rgb(0,0,0)">pair</text></svg>