<svg xmlns="http://www.w3.org/2000/svg"
xmlns:xlink="http://www.w3.org/1999/xlink"
version="1.1" baseProfile="full"
width="473" height="360">
<line x1="55.0" y1="20.0" x2="35.0" y2="60.0" stroke="rgb(255,0,0)" stroke-width="1.5"/>
<polygon points=" 18,48 52,48 52,72 18,72" fill="rgb(255,255,170)"/>
<text x="20.0" y="65.0" font-family="courier" font-size="16" fill="rgb(0,0,0)">974</text>
<line x1="55.0" y1="20.0" x2="75.0" y2="60.0" stroke="rgb(255,0,0)" stroke-width="1.5"/>
<line x1="75.0" y1="60.0" x2="53.4375" y2="100.0" stroke="rgb(255,0,0)" stroke-width="1.5"/>
<polygon points=" 41,88 65,88 65,112 41,112" fill="rgb(255,255,170)"/>
<text x="43.4375" y="105.0" font-family="courier" font-size="16" fill="rgb(0,0,0)">55</text>
<line x1="75.0" y1="60.0" x2="96.5625" y2="100.0" stroke="rgb(255,0,0)" stroke-width="1.5"/>
<line x1="96.5625" y1="100.0" x2="53.4375" y2="140.0" stroke="rgb(255,0,0)" stroke-width="1.5"/>
<polygon points=" 41,128 65,128 65,152 41,152" fill="rgb(255,255,170)"/>
<text x="43.4375" y="145.0" font-family="courier" font-size="16" fill="rgb(0,0,0)">72</text>
<line x1="96.5625" y1="100.0" x2="139.6875" y2="140.0" stroke="rgb(255,0,0)" stroke-width="1.5"/>
<line x1="139.6875" y1="140.0" x2="48.4375" y2="180.0" stroke="rgb(255,0,0)" stroke-width="1.5"/>
<polygon points=" 41,168 55,168 55,192 41,192" fill="rgb(255,255,170)"/>
<text x="43.4375" y="185.0" font-family="courier" font-size="16" fill="rgb(0,0,0)">3</text>
<line x1="139.6875" y1="140.0" x2="230.9375" y2="180.0" stroke="rgb(255,0,0)" stroke-width="1.5"/>
<line x1="230.9375" y1="180.0" x2="150.9375" y2="220.0" stroke="rgb(255,0,0)" stroke-width="1.5"/>
<line x1="150.9375" y1="220.0" x2="123.4375" y2="260.0" stroke="rgb(255,0,0)" stroke-width="1.5"/>
<line x1="123.4375" y1="260.0" x2="48.4375" y2="300.0" stroke="rgb(255,0,0)" stroke-width="1.5"/>
<polygon points=" 41,288 55,288 55,312 41,312" fill="rgb(255,170,170)"/>
<text x="43.4375" y="305.0" font-family="courier" font-size="16" fill="rgb(0,0,0)">X</text>
<line x1="123.4375" y1="260.0" x2="78.4375" y2="300.0" stroke="rgb(255,0,0)" stroke-width="1.5"/>
<polygon points=" 71,288 85,288 85,312 71,312" fill="rgb(255,170,170)"/>
<text x="73.4375" y="305.0" font-family="courier" font-size="16" fill="rgb(0,0,0)">3</text>
<line x1="123.4375" y1="260.0" x2="108.4375" y2="300.0" stroke="rgb(255,0,0)" stroke-width="1.5"/>
<polygon points=" 101,288 115,288 115,312 101,312" fill="rgb(255,170,170)"/>
<text x="103.4375" y="305.0" font-family="courier" font-size="16" fill="rgb(0,0,0)">Y</text>
<line x1="123.4375" y1="260.0" x2="138.4375" y2="300.0" stroke="rgb(255,0,0)" stroke-width="1.5"/>
<polygon points=" 131,288 145,288 145,312 131,312" fill="rgb(255,170,170)"/>
<text x="133.4375" y="305.0" font-family="courier" font-size="16" fill="rgb(0,0,0)">4</text>
<line x1="123.4375" y1="260.0" x2="168.4375" y2="300.0" stroke="rgb(255,0,0)" stroke-width="1.5"/>
<polygon points=" 161,288 175,288 175,312 161,312" fill="rgb(255,170,170)"/>
<text x="163.4375" y="305.0" font-family="courier" font-size="16" fill="rgb(0,0,0)">Z</text>
<line x1="123.4375" y1="260.0" x2="198.4375" y2="300.0" stroke="rgb(255,0,0)" stroke-width="1.5"/>
<polygon points=" 191,288 205,288 205,312 191,312" fill="rgb(255,170,170)"/>
<text x="193.4375" y="305.0" font-family="courier" font-size="16" fill="rgb(0,0,0)">5</text>
<polygon points=" 116,248 130,248 130,272 116,272" fill="rgb(255,170,170)"/>
<text x="118.4375" y="265.0" font-family="courier" font-size="16" fill="rgb(0,0,0)">&#955;</text>
<line x1="150.9375" y1="220.0" x2="178.4375" y2="260.0" stroke="rgb(255,0,0)" stroke-width="1.5"/>
<polygon points=" 171,248 185,248 185,272 171,272" fill="rgb(255,170,170)"/>
<text x="173.4375" y="265.0" font-family="courier" font-size="16" fill="rgb(0,0,0)">Y</text>
<polygon points=" 144,208 158,208 158,232 144,232" fill="rgb(255,170,170)"/>
<text x="145.9375" y="225.0" font-family="courier" font-size="16" fill="rgb(0,0,0)">$</text>
<line x1="230.9375" y1="180.0" x2="310.9375" y2="220.0" stroke="rgb(255,0,0)" stroke-width="1.5"/>
<line x1="310.9375" y1="220.0" x2="248.4375" y2="260.0" stroke="rgb(255,0,0)" stroke-width="1.5"/>
<line x1="248.4375" y1="260.0" x2="248.4375" y2="300.0" stroke="rgb(255,0,0)" stroke-width="1.5"/>
<line x1="248.4375" y1="300.0" x2="248.4375" y2="340.0" stroke="rgb(255,0,0)" stroke-width="1.5"/>
<polygon points=" 241,328 255,328 255,352 241,352" fill="rgb(255,255,170)"/>
<text x="243.4375" y="345.0" font-family="courier" font-size="16" fill="rgb(0,0,0)">Z</text>
<polygon points=" 231,288 265,288 265,312 231,312" fill="rgb(255,255,170)"/>
<text x="233.4375" y="305.0" font-family="courier" font-size="16" fill="rgb(0,0,0)">Var</text>
<polygon points=" 221,248 275,248 275,272 221,272" fill="rgb(255,255,170)"/>
<text x="223.4375" y="265.0" font-family="courier" font-size="16" fill="rgb(0,0,0)">evalC</text>
<line x1="310.9375" y1="220.0" x2="373.4375" y2="260.0" stroke="rgb(255,0,0)" stroke-width="1.5"/>
<line x1="373.4375" y1="260.0" x2="298.4375" y2="300.0" stroke="rgb(255,0,0)" stroke-width="1.5"/>
<polygon points=" 291,288 305,288 305,312 291,312" fill="rgb(255,255,170)"/>
<text x="293.4375" y="305.0" font-family="courier" font-size="16" fill="rgb(0,0,0)">X</text>
<line x1="373.4375" y1="260.0" x2="328.4375" y2="300.0" stroke="rgb(255,0,0)" stroke-width="1.5"/>
<polygon points=" 321,288 335,288 335,312 321,312" fill="rgb(255,255,170)"/>
<text x="323.4375" y="305.0" font-family="courier" font-size="16" fill="rgb(0,0,0)">3</text>
<line x1="373.4375" y1="260.0" x2="358.4375" y2="300.0" stroke="rgb(255,0,0)" stroke-width="1.5"/>
<polygon points=" 351,288 365,288 365,312 351,312" fill="rgb(255,255,170)"/>
<text x="353.4375" y="305.0" font-family="courier" font-size="16" fill="rgb(0,0,0)">Y</text>
<line x1="373.4375" y1="260.0" x2="388.4375" y2="300.0" stroke="rgb(255,0,0)" stroke-width="1.5"/>
<polygon points=" 381,288 395,288 395,312 381,312" fill="rgb(255,255,170)"/>
<text x="383.4375" y="305.0" font-family="courier" font-size="16" fill="rgb(0,0,0)">4</text>
<line x1="373.4375" y1="260.0" x2="418.4375" y2="300.0" stroke="rgb(255,0,0)" stroke-width="1.5"/>
<polygon points=" 411,288 425,288 425,312 411,312" fill="rgb(255,255,170)"/>
<text x="413.4375" y="305.0" font-family="courier" font-size="16" fill="rgb(0,0,0)">Z</text>
<line x1="373.4375" y1="260.0" x2="448.4375" y2="300.0" stroke="rgb(255,0,0)" stroke-width="1.5"/>
<polygon points=" 441,288 455,288 455,312 441,312" fill="rgb(255,255,170)"/>
<text x="443.4375" y="305.0" font-family="courier" font-size="16" fill="rgb(0,0,0)">5</text>
<polygon points=" 366,248 380,248 380,272 366,272" fill="rgb(255,255,170)"/>
<text x="368.4375" y="265.0" font-family="courier" font-size="16" fill="rgb(0,0,0)">&#955;</text>
<polygon points=" 304,208 318,208 318,232 304,232" fill="rgb(255,255,170)"/>
<text x="305.9375" y="225.0" font-family="courier" font-size="16" fill="rgb(0,0,0)">$</text>
<polygon points=" 224,168 238,168 238,192 224,192" fill="rgb(255,255,170)"/>
<text x="225.9375" y="185.0" font-family="courier" font-size="16" fill="rgb(0,0,0)">*</text>
<polygon points=" 133,128 147,128 147,152 133,152" fill="rgb(255,255,170)"/>
<text x="134.6875" y="145.0" font-family="courier" font-size="16" fill="rgb(0,0,0)">*</text>
<polygon points=" 90,88 104,88 104,112 90,112" fill="rgb(255,255,170)"/>
<text x="91.5625" y="105.0" font-family="courier" font-size="16" fill="rgb(0,0,0)">+</text>
<polygon points=" 68,48 82,48 82,72 68,72" fill="rgb(255,255,170)"/>
<text x="70.0" y="65.0" font-family="courier" font-size="16" fill="rgb(0,0,0)">+</text>
<polygon points=" 33,8 77,8 77,32 33,32" fill="rgb(255,255,170)"/>
<text x="35.0" y="25.0" font-family="courier" font-size="16" fill="rgb(0,0,0)">pair</text></svg>