<svg xmlns="http://www.w3.org/2000/svg"
xmlns:xlink="http://www.w3.org/1999/xlink"
version="1.1" baseProfile="full"
width="259" height="320">
<line x1="55.0" y1="20.0" x2="35.0" y2="60.0" stroke="rgb(255,0,0)" stroke-width="1.5"/>
<polygon points=" 18,48 52,48 52,72 18,72" fill="rgb(255,255,170)"/>
<text x="20.0" y="65.0" font-family="courier" font-size="16" fill="rgb(0,0,0)">974</text>
<line x1="55.0" y1="20.0" x2="75.0" y2="60.0" stroke="rgb(255,0,0)" stroke-width="1.5"/>
<line x1="75.0" y1="60.0" x2="57.5" y2="100.0" stroke="rgb(255,0,0)" stroke-width="1.5"/>
<polygon points=" 46,88 70,88 70,112 46,112" fill="rgb(255,255,170)"/>
<text x="47.5" y="105.0" font-family="courier" font-size="16" fill="rgb(0,0,0)">55</text>
<line x1="75.0" y1="60.0" x2="92.5" y2="100.0" stroke="rgb(255,0,0)" stroke-width="1.5"/>
<line x1="92.5" y1="100.0" x2="75.0" y2="140.0" stroke="rgb(255,0,0)" stroke-width="1.5"/>
<polygon points=" 63,128 87,128 87,152 63,152" fill="rgb(255,255,170)"/>
<text x="65.0" y="145.0" font-family="courier" font-size="16" fill="rgb(0,0,0)">72</text>
<line x1="92.5" y1="100.0" x2="110.0" y2="140.0" stroke="rgb(255,0,0)" stroke-width="1.5"/>
<line x1="110.0" y1="140.0" x2="84.375" y2="180.0" stroke="rgb(255,0,0)" stroke-width="1.5"/>
<polygon points=" 77,168 91,168 91,192 77,192" fill="rgb(255,255,170)"/>
<text x="79.375" y="185.0" font-family="courier" font-size="16" fill="rgb(0,0,0)">3</text>
<line x1="110.0" y1="140.0" x2="135.625" y2="180.0" stroke="rgb(255,0,0)" stroke-width="1.5"/>
<line x1="135.625" y1="180.0" x2="84.375" y2="220.0" stroke="rgb(255,0,0)" stroke-width="1.5"/>
<polygon points=" 77,208 91,208 91,232 77,232" fill="rgb(255,255,170)"/>
<text x="79.375" y="225.0" font-family="courier" font-size="16" fill="rgb(0,0,0)">4</text>
<line x1="135.625" y1="180.0" x2="186.875" y2="220.0" stroke="rgb(255,0,0)" stroke-width="1.5"/>
<line x1="186.875" y1="220.0" x2="159.375" y2="260.0" stroke="rgb(255,0,0)" stroke-width="1.5"/>
<line x1="159.375" y1="260.0" x2="84.375" y2="300.0" stroke="rgb(255,0,0)" stroke-width="1.5"/>
<polygon points=" 77,288 91,288 91,312 77,312" fill="rgb(255,170,170)"/>
<text x="79.375" y="305.0" font-family="courier" font-size="16" fill="rgb(0,0,0)">X</text>
<line x1="159.375" y1="260.0" x2="114.375" y2="300.0" stroke="rgb(255,0,0)" stroke-width="1.5"/>
<polygon points=" 107,288 121,288 121,312 107,312" fill="rgb(255,170,170)"/>
<text x="109.375" y="305.0" font-family="courier" font-size="16" fill="rgb(0,0,0)">3</text>
<line x1="159.375" y1="260.0" x2="144.375" y2="300.0" stroke="rgb(255,0,0)" stroke-width="1.5"/>
<polygon points=" 137,288 151,288 151,312 137,312" fill="rgb(255,170,170)"/>
<text x="139.375" y="305.0" font-family="courier" font-size="16" fill="rgb(0,0,0)">Y</text>
<line x1="159.375" y1="260.0" x2="174.375" y2="300.0" stroke="rgb(255,0,0)" stroke-width="1.5"/>
<polygon points=" 167,288 181,288 181,312 167,312" fill="rgb(255,170,170)"/>
<text x="169.375" y="305.0" font-family="courier" font-size="16" fill="rgb(0,0,0)">4</text>
<line x1="159.375" y1="260.0" x2="204.375" y2="300.0" stroke="rgb(255,0,0)" stroke-width="1.5"/>
<polygon points=" 197,288 211,288 211,312 197,312" fill="rgb(255,170,170)"/>
<text x="199.375" y="305.0" font-family="courier" font-size="16" fill="rgb(0,0,0)">Z</text>
<line x1="159.375" y1="260.0" x2="234.375" y2="300.0" stroke="rgb(255,0,0)" stroke-width="1.5"/>
<polygon points=" 227,288 241,288 241,312 227,312" fill="rgb(255,170,170)"/>
<text x="229.375" y="305.0" font-family="courier" font-size="16" fill="rgb(0,0,0)">5</text>
<polygon points=" 152,248 166,248 166,272 152,272" fill="rgb(255,170,170)"/>
<text x="154.375" y="265.0" font-family="courier" font-size="16" fill="rgb(0,0,0)">&#955;</text>
<line x1="186.875" y1="220.0" x2="214.375" y2="260.0" stroke="rgb(255,0,0)" stroke-width="1.5"/>
<polygon points=" 207,248 221,248 221,272 207,272" fill="rgb(255,170,170)"/>
<text x="209.375" y="265.0" font-family="courier" font-size="16" fill="rgb(0,0,0)">Z</text>
<polygon points=" 180,208 194,208 194,232 180,232" fill="rgb(255,170,170)"/>
<text x="181.875" y="225.0" font-family="courier" font-size="16" fill="rgb(0,0,0)">$</text>
<polygon points=" 129,168 143,168 143,192 129,192" fill="rgb(255,255,170)"/>
<text x="130.625" y="185.0" font-family="courier" font-size="16" fill="rgb(0,0,0)">*</text>
<polygon points=" 103,128 117,128 117,152 103,152" fill="rgb(255,255,170)"/>
<text x="105.0" y="145.0" font-family="courier" font-size="16" fill="rgb(0,0,0)">*</text>
<polygon points=" 86,88 100,88 100,112 86,112" fill="rgb(255,255,170)"/>
<text x="87.5" y="105.0" font-family="courier" font-size="16" fill="rgb(0,0,0)">+</text>
<polygon points=" 68,48 82,48 82,72 68,72" fill="rgb(255,255,170)"/>
<text x="70.0" y="65.0" font-family="courier" font-size="16" fill="rgb(0,0,0)">+</text>
<polygon points=" 33,8 77,8 77,32 33,32" fill="rgb(255,255,170)"/>
<text x="35.0" y="25.0" font-family="courier" font-size="16" fill="rgb(0,0,0)">pair</text></svg>