<svg xmlns="http://www.w3.org/2000/svg"
xmlns:xlink="http://www.w3.org/1999/xlink"
version="1.1" baseProfile="full"
width="165" height="240">
<line x1="55.0" y1="20.0" x2="35.0" y2="60.0" stroke="rgb(255,0,0)" stroke-width="1.5"/>
<polygon points=" 18,48 52,48 52,72 18,72" fill="rgb(255,255,170)"/>
<text x="20.0" y="65.0" font-family="courier" font-size="16" fill="rgb(0,0,0)">974</text>
<line x1="55.0" y1="20.0" x2="75.0" y2="60.0" stroke="rgb(255,0,0)" stroke-width="1.5"/>
<line x1="75.0" y1="60.0" x2="57.5" y2="100.0" stroke="rgb(255,0,0)" stroke-width="1.5"/>
<polygon points=" 46,88 70,88 70,112 46,112" fill="rgb(255,255,170)"/>
<text x="47.5" y="105.0" font-family="courier" font-size="16" fill="rgb(0,0,0)">55</text>
<line x1="75.0" y1="60.0" x2="92.5" y2="100.0" stroke="rgb(255,0,0)" stroke-width="1.5"/>
<line x1="92.5" y1="100.0" x2="75.0" y2="140.0" stroke="rgb(255,0,0)" stroke-width="1.5"/>
<polygon points=" 63,128 87,128 87,152 63,152" fill="rgb(255,255,170)"/>
<text x="65.0" y="145.0" font-family="courier" font-size="16" fill="rgb(0,0,0)">72</text>
<line x1="92.5" y1="100.0" x2="110.0" y2="140.0" stroke="rgb(255,0,0)" stroke-width="1.5"/>
<line x1="110.0" y1="140.0" x2="95.0" y2="180.0" stroke="rgb(255,0,0)" stroke-width="1.5"/>
<polygon points=" 88,168 102,168 102,192 88,192" fill="rgb(255,255,170)"/>
<text x="90.0" y="185.0" font-family="courier" font-size="16" fill="rgb(0,0,0)">3</text>
<line x1="110.0" y1="140.0" x2="125.0" y2="180.0" stroke="rgb(255,0,0)" stroke-width="1.5"/>
<line x1="125.0" y1="180.0" x2="110.0" y2="220.0" stroke="rgb(255,0,0)" stroke-width="1.5"/>
<polygon points=" 103,208 117,208 117,232 103,232" fill="rgb(255,170,170)"/>
<text x="105.0" y="225.0" font-family="courier" font-size="16" fill="rgb(0,0,0)">4</text>
<line x1="125.0" y1="180.0" x2="140.0" y2="220.0" stroke="rgb(255,0,0)" stroke-width="1.5"/>
<polygon points=" 133,208 147,208 147,232 133,232" fill="rgb(255,170,170)"/>
<text x="135.0" y="225.0" font-family="courier" font-size="16" fill="rgb(0,0,0)">5</text>
<polygon points=" 118,168 132,168 132,192 118,192" fill="rgb(255,170,170)"/>
<text x="120.0" y="185.0" font-family="courier" font-size="16" fill="rgb(0,0,0)">*</text>
<polygon points=" 103,128 117,128 117,152 103,152" fill="rgb(255,255,170)"/>
<text x="105.0" y="145.0" font-family="courier" font-size="16" fill="rgb(0,0,0)">*</text>
<polygon points=" 86,88 100,88 100,112 86,112" fill="rgb(255,255,170)"/>
<text x="87.5" y="105.0" font-family="courier" font-size="16" fill="rgb(0,0,0)">+</text>
<polygon points=" 68,48 82,48 82,72 68,72" fill="rgb(255,255,170)"/>
<text x="70.0" y="65.0" font-family="courier" font-size="16" fill="rgb(0,0,0)">+</text>
<polygon points=" 33,8 77,8 77,32 33,32" fill="rgb(255,255,170)"/>
<text x="35.0" y="25.0" font-family="courier" font-size="16" fill="rgb(0,0,0)">pair</text></svg>