<svg xmlns="http://www.w3.org/2000/svg"
xmlns:xlink="http://www.w3.org/1999/xlink"
version="1.1" baseProfile="full"
width="260" height="160">
<line x1="125.0" y1="20.0" x2="50.0" y2="60.0" stroke="rgb(255,0,0)" stroke-width="1.5"/>
<line x1="50.0" y1="60.0" x2="25.0" y2="100.0" stroke="rgb(255,0,0)" stroke-width="1.5"/>
<line x1="25.0" y1="100.0" x2="25.0" y2="140.0" stroke="rgb(255,0,0)" stroke-width="1.5"/>
<polygon points=" 18,128 32,128 32,152 18,152" fill="rgb(255,170,170)"/>
<text x="20.0" y="145.0" font-family="courier" font-size="16" fill="rgb(0,0,0)">x</text>
<polygon points=" 8,88 42,88 42,112 8,112" fill="rgb(255,170,170)"/>
<text x="10.0" y="105.0" font-family="courier" font-size="16" fill="rgb(0,0,0)">not</text>
<line x1="50.0" y1="60.0" x2="55.0" y2="100.0" stroke="rgb(255,0,0)" stroke-width="1.5"/>
<polygon points=" 48,88 62,88 62,112 48,112" fill="rgb(255,170,170)"/>
<text x="50.0" y="105.0" font-family="courier" font-size="16" fill="rgb(0,0,0)">y</text>
<line x1="50.0" y1="60.0" x2="75.0" y2="100.0" stroke="rgb(255,0,0)" stroke-width="1.5"/>
<polygon points=" 68,88 82,88 82,112 68,112" fill="rgb(255,170,170)"/>
<text x="70.0" y="105.0" font-family="courier" font-size="16" fill="rgb(0,0,0)">z</text>
<polygon points=" 38,48 62,48 62,72 38,72" fill="rgb(255,170,170)"/>
<text x="40.0" y="65.0" font-family="courier" font-size="16" fill="rgb(0,0,0)">/&#92;</text>
<line x1="125.0" y1="20.0" x2="125.0" y2="60.0" stroke="rgb(255,0,0)" stroke-width="1.5"/>
<line x1="125.0" y1="60.0" x2="95.0" y2="100.0" stroke="rgb(255,0,0)" stroke-width="1.5"/>
<polygon points=" 88,88 102,88 102,112 88,112" fill="rgb(255,170,170)"/>
<text x="90.0" y="105.0" font-family="courier" font-size="16" fill="rgb(0,0,0)">x</text>
<line x1="125.0" y1="60.0" x2="125.0" y2="100.0" stroke="rgb(255,0,0)" stroke-width="1.5"/>
<line x1="125.0" y1="100.0" x2="125.0" y2="140.0" stroke="rgb(255,0,0)" stroke-width="1.5"/>
<polygon points=" 118,128 132,128 132,152 118,152" fill="rgb(255,170,170)"/>
<text x="120.0" y="145.0" font-family="courier" font-size="16" fill="rgb(0,0,0)">y</text>
<polygon points=" 108,88 142,88 142,112 108,112" fill="rgb(255,170,170)"/>
<text x="110.0" y="105.0" font-family="courier" font-size="16" fill="rgb(0,0,0)">not</text>
<line x1="125.0" y1="60.0" x2="155.0" y2="100.0" stroke="rgb(255,0,0)" stroke-width="1.5"/>
<polygon points=" 148,88 162,88 162,112 148,112" fill="rgb(255,170,170)"/>
<text x="150.0" y="105.0" font-family="courier" font-size="16" fill="rgb(0,0,0)">z</text>
<polygon points=" 113,48 137,48 137,72 113,72" fill="rgb(255,170,170)"/>
<text x="115.0" y="65.0" font-family="courier" font-size="16" fill="rgb(0,0,0)">/&#92;</text>
<line x1="125.0" y1="20.0" x2="200.0" y2="60.0" stroke="rgb(255,0,0)" stroke-width="1.5"/>
<line x1="200.0" y1="60.0" x2="175.0" y2="100.0" stroke="rgb(255,0,0)" stroke-width="1.5"/>
<polygon points=" 168,88 182,88 182,112 168,112" fill="rgb(255,170,170)"/>
<text x="170.0" y="105.0" font-family="courier" font-size="16" fill="rgb(0,0,0)">x</text>
<line x1="200.0" y1="60.0" x2="195.0" y2="100.0" stroke="rgb(255,0,0)" stroke-width="1.5"/>
<polygon points=" 188,88 202,88 202,112 188,112" fill="rgb(255,170,170)"/>
<text x="190.0" y="105.0" font-family="courier" font-size="16" fill="rgb(0,0,0)">y</text>
<line x1="200.0" y1="60.0" x2="225.0" y2="100.0" stroke="rgb(255,0,0)" stroke-width="1.5"/>
<line x1="225.0" y1="100.0" x2="225.0" y2="140.0" stroke="rgb(255,0,0)" stroke-width="1.5"/>
<polygon points=" 218,128 232,128 232,152 218,152" fill="rgb(255,170,170)"/>
<text x="220.0" y="145.0" font-family="courier" font-size="16" fill="rgb(0,0,0)">z</text>
<polygon points=" 208,88 242,88 242,112 208,112" fill="rgb(255,170,170)"/>
<text x="210.0" y="105.0" font-family="courier" font-size="16" fill="rgb(0,0,0)">not</text>
<polygon points=" 188,48 212,48 212,72 188,72" fill="rgb(255,170,170)"/>
<text x="190.0" y="65.0" font-family="courier" font-size="16" fill="rgb(0,0,0)">/&#92;</text>
<polygon points=" 113,8 137,8 137,32 113,32" fill="rgb(255,170,170)"/>
<text x="115.0" y="25.0" font-family="courier" font-size="16" fill="rgb(0,0,0)">&#92;/</text></svg>