<svg xmlns="http://www.w3.org/2000/svg"
xmlns:xlink="http://www.w3.org/1999/xlink"
version="1.1" baseProfile="full"
width="740" height="240">
<line x1="411.25" y1="20.0" x2="192.5" y2="60.0" stroke="rgb(255,0,0)" stroke-width="1.5"/>
<line x1="192.5" y1="60.0" x2="52.5" y2="100.0" stroke="rgb(255,0,0)" stroke-width="1.5"/>
<line x1="52.5" y1="100.0" x2="25.0" y2="140.0" stroke="rgb(255,0,0)" stroke-width="1.5"/>
<line x1="25.0" y1="140.0" x2="25.0" y2="180.0" stroke="rgb(255,0,0)" stroke-width="1.5"/>
<polygon points=" 18,168 32,168 32,192 18,192" fill="rgb(170,255,170)"/>
<text x="20.0" y="185.0" font-family="courier" font-size="16" fill="rgb(0,0,0)">x</text>
<polygon points=" 8,128 42,128 42,152 8,152" fill="rgb(170,255,170)"/>
<text x="10.0" y="145.0" font-family="courier" font-size="16" fill="rgb(0,0,0)">not</text>
<line x1="52.5" y1="100.0" x2="55.0" y2="140.0" stroke="rgb(255,0,0)" stroke-width="1.5"/>
<polygon points=" 48,128 62,128 62,152 48,152" fill="rgb(170,255,170)"/>
<text x="50.0" y="145.0" font-family="courier" font-size="16" fill="rgb(0,0,0)">x</text>
<line x1="52.5" y1="100.0" x2="80.0" y2="140.0" stroke="rgb(255,0,0)" stroke-width="1.5"/>
<line x1="80.0" y1="140.0" x2="55.0" y2="180.0" stroke="rgb(255,0,0)" stroke-width="1.5"/>
<polygon points=" 48,168 62,168 62,192 48,192" fill="rgb(170,255,170)"/>
<text x="50.0" y="185.0" font-family="courier" font-size="16" fill="rgb(0,0,0)">x</text>
<line x1="80.0" y1="140.0" x2="75.0" y2="180.0" stroke="rgb(255,0,0)" stroke-width="1.5"/>
<polygon points=" 68,168 82,168 82,192 68,192" fill="rgb(170,255,170)"/>
<text x="70.0" y="185.0" font-family="courier" font-size="16" fill="rgb(0,0,0)">y</text>
<line x1="80.0" y1="140.0" x2="105.0" y2="180.0" stroke="rgb(255,0,0)" stroke-width="1.5"/>
<line x1="105.0" y1="180.0" x2="105.0" y2="220.0" stroke="rgb(255,0,0)" stroke-width="1.5"/>
<polygon points=" 98,208 112,208 112,232 98,232" fill="rgb(170,255,170)"/>
<text x="100.0" y="225.0" font-family="courier" font-size="16" fill="rgb(0,0,0)">z</text>
<polygon points=" 88,168 122,168 122,192 88,192" fill="rgb(170,255,170)"/>
<text x="90.0" y="185.0" font-family="courier" font-size="16" fill="rgb(0,0,0)">not</text>
<polygon points=" 68,128 92,128 92,152 68,152" fill="rgb(170,255,170)"/>
<text x="70.0" y="145.0" font-family="courier" font-size="16" fill="rgb(0,0,0)">/&#92;</text>
<polygon points=" 40,88 64,88 64,112 40,112" fill="rgb(170,255,170)"/>
<text x="42.5" y="105.0" font-family="courier" font-size="16" fill="rgb(0,0,0)">&#92;/</text>
<line x1="192.5" y1="60.0" x2="192.5" y2="100.0" stroke="rgb(255,0,0)" stroke-width="1.5"/>
<line x1="192.5" y1="100.0" x2="145.0" y2="140.0" stroke="rgb(255,0,0)" stroke-width="1.5"/>
<line x1="145.0" y1="140.0" x2="145.0" y2="180.0" stroke="rgb(255,0,0)" stroke-width="1.5"/>
<polygon points=" 138,168 152,168 152,192 138,192" fill="rgb(170,255,170)"/>
<text x="140.0" y="185.0" font-family="courier" font-size="16" fill="rgb(0,0,0)">x</text>
<polygon points=" 128,128 162,128 162,152 128,152" fill="rgb(170,255,170)"/>
<text x="130.0" y="145.0" font-family="courier" font-size="16" fill="rgb(0,0,0)">not</text>
<line x1="192.5" y1="100.0" x2="185.0" y2="140.0" stroke="rgb(255,0,0)" stroke-width="1.5"/>
<line x1="185.0" y1="140.0" x2="185.0" y2="180.0" stroke="rgb(255,0,0)" stroke-width="1.5"/>
<polygon points=" 178,168 192,168 192,192 178,192" fill="rgb(170,255,170)"/>
<text x="180.0" y="185.0" font-family="courier" font-size="16" fill="rgb(0,0,0)">y</text>
<polygon points=" 168,128 202,128 202,152 168,152" fill="rgb(170,255,170)"/>
<text x="170.0" y="145.0" font-family="courier" font-size="16" fill="rgb(0,0,0)">not</text>
<line x1="192.5" y1="100.0" x2="240.0" y2="140.0" stroke="rgb(255,0,0)" stroke-width="1.5"/>
<line x1="240.0" y1="140.0" x2="215.0" y2="180.0" stroke="rgb(255,0,0)" stroke-width="1.5"/>
<polygon points=" 208,168 222,168 222,192 208,192" fill="rgb(170,255,170)"/>
<text x="210.0" y="185.0" font-family="courier" font-size="16" fill="rgb(0,0,0)">x</text>
<line x1="240.0" y1="140.0" x2="235.0" y2="180.0" stroke="rgb(255,0,0)" stroke-width="1.5"/>
<polygon points=" 228,168 242,168 242,192 228,192" fill="rgb(170,255,170)"/>
<text x="230.0" y="185.0" font-family="courier" font-size="16" fill="rgb(0,0,0)">y</text>
<line x1="240.0" y1="140.0" x2="265.0" y2="180.0" stroke="rgb(255,0,0)" stroke-width="1.5"/>
<line x1="265.0" y1="180.0" x2="265.0" y2="220.0" stroke="rgb(255,0,0)" stroke-width="1.5"/>
<polygon points=" 258,208 272,208 272,232 258,232" fill="rgb(170,255,170)"/>
<text x="260.0" y="225.0" font-family="courier" font-size="16" fill="rgb(0,0,0)">z</text>
<polygon points=" 248,168 282,168 282,192 248,192" fill="rgb(170,255,170)"/>
<text x="250.0" y="185.0" font-family="courier" font-size="16" fill="rgb(0,0,0)">not</text>
<polygon points=" 228,128 252,128 252,152 228,152" fill="rgb(170,255,170)"/>
<text x="230.0" y="145.0" font-family="courier" font-size="16" fill="rgb(0,0,0)">/&#92;</text>
<polygon points=" 180,88 204,88 204,112 180,112" fill="rgb(170,255,170)"/>
<text x="182.5" y="105.0" font-family="courier" font-size="16" fill="rgb(0,0,0)">&#92;/</text>
<line x1="192.5" y1="60.0" x2="332.5" y2="100.0" stroke="rgb(255,0,0)" stroke-width="1.5"/>
<line x1="332.5" y1="100.0" x2="305.0" y2="140.0" stroke="rgb(255,0,0)" stroke-width="1.5"/>
<line x1="305.0" y1="140.0" x2="305.0" y2="180.0" stroke="rgb(255,0,0)" stroke-width="1.5"/>
<polygon points=" 298,168 312,168 312,192 298,192" fill="rgb(170,255,170)"/>
<text x="300.0" y="185.0" font-family="courier" font-size="16" fill="rgb(0,0,0)">x</text>
<polygon points=" 288,128 322,128 322,152 288,152" fill="rgb(170,255,170)"/>
<text x="290.0" y="145.0" font-family="courier" font-size="16" fill="rgb(0,0,0)">not</text>
<line x1="332.5" y1="100.0" x2="335.0" y2="140.0" stroke="rgb(255,0,0)" stroke-width="1.5"/>
<polygon points=" 328,128 342,128 342,152 328,152" fill="rgb(170,255,170)"/>
<text x="330.0" y="145.0" font-family="courier" font-size="16" fill="rgb(0,0,0)">z</text>
<line x1="332.5" y1="100.0" x2="360.0" y2="140.0" stroke="rgb(255,0,0)" stroke-width="1.5"/>
<line x1="360.0" y1="140.0" x2="335.0" y2="180.0" stroke="rgb(255,0,0)" stroke-width="1.5"/>
<polygon points=" 328,168 342,168 342,192 328,192" fill="rgb(170,255,170)"/>
<text x="330.0" y="185.0" font-family="courier" font-size="16" fill="rgb(0,0,0)">x</text>
<line x1="360.0" y1="140.0" x2="355.0" y2="180.0" stroke="rgb(255,0,0)" stroke-width="1.5"/>
<polygon points=" 348,168 362,168 362,192 348,192" fill="rgb(170,255,170)"/>
<text x="350.0" y="185.0" font-family="courier" font-size="16" fill="rgb(0,0,0)">y</text>
<line x1="360.0" y1="140.0" x2="385.0" y2="180.0" stroke="rgb(255,0,0)" stroke-width="1.5"/>
<line x1="385.0" y1="180.0" x2="385.0" y2="220.0" stroke="rgb(255,0,0)" stroke-width="1.5"/>
<polygon points=" 378,208 392,208 392,232 378,232" fill="rgb(170,255,170)"/>
<text x="380.0" y="225.0" font-family="courier" font-size="16" fill="rgb(0,0,0)">z</text>
<polygon points=" 368,168 402,168 402,192 368,192" fill="rgb(170,255,170)"/>
<text x="370.0" y="185.0" font-family="courier" font-size="16" fill="rgb(0,0,0)">not</text>
<polygon points=" 348,128 372,128 372,152 348,152" fill="rgb(170,255,170)"/>
<text x="350.0" y="145.0" font-family="courier" font-size="16" fill="rgb(0,0,0)">/&#92;</text>
<polygon points=" 320,88 344,88 344,112 320,112" fill="rgb(170,255,170)"/>
<text x="322.5" y="105.0" font-family="courier" font-size="16" fill="rgb(0,0,0)">&#92;/</text>
<polygon points=" 180,48 204,48 204,72 180,72" fill="rgb(170,255,170)"/>
<text x="182.5" y="65.0" font-family="courier" font-size="16" fill="rgb(0,0,0)">/&#92;</text>
<line x1="411.25" y1="20.0" x2="470.0" y2="60.0" stroke="rgb(255,0,0)" stroke-width="1.5"/>
<line x1="470.0" y1="60.0" x2="420.0" y2="100.0" stroke="rgb(255,0,0)" stroke-width="1.5"/>
<polygon points=" 413,88 427,88 427,112 413,112" fill="rgb(255,255,170)"/>
<text x="415.0" y="105.0" font-family="courier" font-size="16" fill="rgb(0,0,0)">y</text>
<line x1="470.0" y1="60.0" x2="445.0" y2="100.0" stroke="rgb(255,0,0)" stroke-width="1.5"/>
<line x1="445.0" y1="100.0" x2="415.0" y2="140.0" stroke="rgb(255,0,0)" stroke-width="1.5"/>
<polygon points=" 408,128 422,128 422,152 408,152" fill="rgb(255,255,170)"/>
<text x="410.0" y="145.0" font-family="courier" font-size="16" fill="rgb(0,0,0)">x</text>
<line x1="445.0" y1="100.0" x2="445.0" y2="140.0" stroke="rgb(255,0,0)" stroke-width="1.5"/>
<line x1="445.0" y1="140.0" x2="445.0" y2="180.0" stroke="rgb(255,0,0)" stroke-width="1.5"/>
<polygon points=" 438,168 452,168 452,192 438,192" fill="rgb(255,255,170)"/>
<text x="440.0" y="185.0" font-family="courier" font-size="16" fill="rgb(0,0,0)">y</text>
<polygon points=" 428,128 462,128 462,152 428,152" fill="rgb(255,255,170)"/>
<text x="430.0" y="145.0" font-family="courier" font-size="16" fill="rgb(0,0,0)">not</text>
<line x1="445.0" y1="100.0" x2="475.0" y2="140.0" stroke="rgb(255,0,0)" stroke-width="1.5"/>
<polygon points=" 468,128 482,128 482,152 468,152" fill="rgb(255,255,170)"/>
<text x="470.0" y="145.0" font-family="courier" font-size="16" fill="rgb(0,0,0)">z</text>
<polygon points=" 433,88 457,88 457,112 433,112" fill="rgb(255,255,170)"/>
<text x="435.0" y="105.0" font-family="courier" font-size="16" fill="rgb(0,0,0)">/&#92;</text>
<line x1="470.0" y1="60.0" x2="520.0" y2="100.0" stroke="rgb(255,0,0)" stroke-width="1.5"/>
<line x1="520.0" y1="100.0" x2="495.0" y2="140.0" stroke="rgb(255,0,0)" stroke-width="1.5"/>
<polygon points=" 488,128 502,128 502,152 488,152" fill="rgb(255,255,170)"/>
<text x="490.0" y="145.0" font-family="courier" font-size="16" fill="rgb(0,0,0)">x</text>
<line x1="520.0" y1="100.0" x2="515.0" y2="140.0" stroke="rgb(255,0,0)" stroke-width="1.5"/>
<polygon points=" 508,128 522,128 522,152 508,152" fill="rgb(255,255,170)"/>
<text x="510.0" y="145.0" font-family="courier" font-size="16" fill="rgb(0,0,0)">y</text>
<line x1="520.0" y1="100.0" x2="545.0" y2="140.0" stroke="rgb(255,0,0)" stroke-width="1.5"/>
<line x1="545.0" y1="140.0" x2="545.0" y2="180.0" stroke="rgb(255,0,0)" stroke-width="1.5"/>
<polygon points=" 538,168 552,168 552,192 538,192" fill="rgb(255,255,170)"/>
<text x="540.0" y="185.0" font-family="courier" font-size="16" fill="rgb(0,0,0)">z</text>
<polygon points=" 528,128 562,128 562,152 528,152" fill="rgb(255,255,170)"/>
<text x="530.0" y="145.0" font-family="courier" font-size="16" fill="rgb(0,0,0)">not</text>
<polygon points=" 508,88 532,88 532,112 508,112" fill="rgb(255,255,170)"/>
<text x="510.0" y="105.0" font-family="courier" font-size="16" fill="rgb(0,0,0)">/&#92;</text>
<polygon points=" 458,48 482,48 482,72 458,72" fill="rgb(255,255,170)"/>
<text x="460.0" y="65.0" font-family="courier" font-size="16" fill="rgb(0,0,0)">&#92;/</text>
<line x1="411.25" y1="20.0" x2="630.0" y2="60.0" stroke="rgb(255,0,0)" stroke-width="1.5"/>
<line x1="630.0" y1="60.0" x2="580.0" y2="100.0" stroke="rgb(255,0,0)" stroke-width="1.5"/>
<polygon points=" 573,88 587,88 587,112 573,112" fill="rgb(255,255,170)"/>
<text x="575.0" y="105.0" font-family="courier" font-size="16" fill="rgb(0,0,0)">z</text>
<line x1="630.0" y1="60.0" x2="605.0" y2="100.0" stroke="rgb(255,0,0)" stroke-width="1.5"/>
<line x1="605.0" y1="100.0" x2="575.0" y2="140.0" stroke="rgb(255,0,0)" stroke-width="1.5"/>
<polygon points=" 568,128 582,128 582,152 568,152" fill="rgb(255,255,170)"/>
<text x="570.0" y="145.0" font-family="courier" font-size="16" fill="rgb(0,0,0)">x</text>
<line x1="605.0" y1="100.0" x2="605.0" y2="140.0" stroke="rgb(255,0,0)" stroke-width="1.5"/>
<line x1="605.0" y1="140.0" x2="605.0" y2="180.0" stroke="rgb(255,0,0)" stroke-width="1.5"/>
<polygon points=" 598,168 612,168 612,192 598,192" fill="rgb(255,255,170)"/>
<text x="600.0" y="185.0" font-family="courier" font-size="16" fill="rgb(0,0,0)">y</text>
<polygon points=" 588,128 622,128 622,152 588,152" fill="rgb(255,255,170)"/>
<text x="590.0" y="145.0" font-family="courier" font-size="16" fill="rgb(0,0,0)">not</text>
<line x1="605.0" y1="100.0" x2="635.0" y2="140.0" stroke="rgb(255,0,0)" stroke-width="1.5"/>
<polygon points=" 628,128 642,128 642,152 628,152" fill="rgb(255,255,170)"/>
<text x="630.0" y="145.0" font-family="courier" font-size="16" fill="rgb(0,0,0)">z</text>
<polygon points=" 593,88 617,88 617,112 593,112" fill="rgb(255,255,170)"/>
<text x="595.0" y="105.0" font-family="courier" font-size="16" fill="rgb(0,0,0)">/&#92;</text>
<line x1="630.0" y1="60.0" x2="680.0" y2="100.0" stroke="rgb(255,0,0)" stroke-width="1.5"/>
<line x1="680.0" y1="100.0" x2="655.0" y2="140.0" stroke="rgb(255,0,0)" stroke-width="1.5"/>
<polygon points=" 648,128 662,128 662,152 648,152" fill="rgb(255,255,170)"/>
<text x="650.0" y="145.0" font-family="courier" font-size="16" fill="rgb(0,0,0)">x</text>
<line x1="680.0" y1="100.0" x2="675.0" y2="140.0" stroke="rgb(255,0,0)" stroke-width="1.5"/>
<polygon points=" 668,128 682,128 682,152 668,152" fill="rgb(255,255,170)"/>
<text x="670.0" y="145.0" font-family="courier" font-size="16" fill="rgb(0,0,0)">y</text>
<line x1="680.0" y1="100.0" x2="705.0" y2="140.0" stroke="rgb(255,0,0)" stroke-width="1.5"/>
<line x1="705.0" y1="140.0" x2="705.0" y2="180.0" stroke="rgb(255,0,0)" stroke-width="1.5"/>
<polygon points=" 698,168 712,168 712,192 698,192" fill="rgb(255,255,170)"/>
<text x="700.0" y="185.0" font-family="courier" font-size="16" fill="rgb(0,0,0)">z</text>
<polygon points=" 688,128 722,128 722,152 688,152" fill="rgb(255,255,170)"/>
<text x="690.0" y="145.0" font-family="courier" font-size="16" fill="rgb(0,0,0)">not</text>
<polygon points=" 668,88 692,88 692,112 668,112" fill="rgb(255,255,170)"/>
<text x="670.0" y="105.0" font-family="courier" font-size="16" fill="rgb(0,0,0)">/&#92;</text>
<polygon points=" 618,48 642,48 642,72 618,72" fill="rgb(255,255,170)"/>
<text x="620.0" y="65.0" font-family="courier" font-size="16" fill="rgb(0,0,0)">&#92;/</text>
<polygon points=" 399,8 423,8 423,32 399,32" fill="rgb(255,255,170)"/>
<text x="401.25" y="25.0" font-family="courier" font-size="16" fill="rgb(0,0,0)">/&#92;</text></svg>