<svg xmlns="http://www.w3.org/2000/svg"
xmlns:xlink="http://www.w3.org/1999/xlink"
version="1.1" baseProfile="full"
width="880" height="240">
<line x1="536.25" y1="20.0" x2="302.5" y2="60.0" stroke="rgb(255,0,0)" stroke-width="1.5"/>
<line x1="302.5" y1="60.0" x2="132.5" y2="100.0" stroke="rgb(255,0,0)" stroke-width="1.5"/>
<line x1="132.5" y1="100.0" x2="50.0" y2="140.0" stroke="rgb(255,0,0)" stroke-width="1.5"/>
<line x1="50.0" y1="140.0" x2="25.0" y2="180.0" stroke="rgb(255,0,0)" stroke-width="1.5"/>
<line x1="25.0" y1="180.0" x2="25.0" y2="220.0" stroke="rgb(255,0,0)" stroke-width="1.5"/>
<polygon points=" 18,208 32,208 32,232 18,232" fill="rgb(255,255,170)"/>
<text x="20.0" y="225.0" font-family="courier" font-size="16" fill="rgb(0,0,0)">x</text>
<polygon points=" 8,168 42,168 42,192 8,192" fill="rgb(255,255,170)"/>
<text x="10.0" y="185.0" font-family="courier" font-size="16" fill="rgb(0,0,0)">not</text>
<line x1="50.0" y1="140.0" x2="55.0" y2="180.0" stroke="rgb(255,0,0)" stroke-width="1.5"/>
<polygon points=" 48,168 62,168 62,192 48,192" fill="rgb(255,255,170)"/>
<text x="50.0" y="185.0" font-family="courier" font-size="16" fill="rgb(0,0,0)">x</text>
<line x1="50.0" y1="140.0" x2="75.0" y2="180.0" stroke="rgb(255,0,0)" stroke-width="1.5"/>
<polygon points=" 68,168 82,168 82,192 68,192" fill="rgb(255,255,170)"/>
<text x="70.0" y="185.0" font-family="courier" font-size="16" fill="rgb(0,0,0)">x</text>
<polygon points=" 38,128 62,128 62,152 38,152" fill="rgb(255,255,170)"/>
<text x="40.0" y="145.0" font-family="courier" font-size="16" fill="rgb(0,0,0)">&#92;/</text>
<line x1="132.5" y1="100.0" x2="130.0" y2="140.0" stroke="rgb(255,0,0)" stroke-width="1.5"/>
<line x1="130.0" y1="140.0" x2="105.0" y2="180.0" stroke="rgb(255,0,0)" stroke-width="1.5"/>
<line x1="105.0" y1="180.0" x2="105.0" y2="220.0" stroke="rgb(255,0,0)" stroke-width="1.5"/>
<polygon points=" 98,208 112,208 112,232 98,232" fill="rgb(255,255,170)"/>
<text x="100.0" y="225.0" font-family="courier" font-size="16" fill="rgb(0,0,0)">x</text>
<polygon points=" 88,168 122,168 122,192 88,192" fill="rgb(255,255,170)"/>
<text x="90.0" y="185.0" font-family="courier" font-size="16" fill="rgb(0,0,0)">not</text>
<line x1="130.0" y1="140.0" x2="135.0" y2="180.0" stroke="rgb(255,0,0)" stroke-width="1.5"/>
<polygon points=" 128,168 142,168 142,192 128,192" fill="rgb(255,255,170)"/>
<text x="130.0" y="185.0" font-family="courier" font-size="16" fill="rgb(0,0,0)">x</text>
<line x1="130.0" y1="140.0" x2="155.0" y2="180.0" stroke="rgb(255,0,0)" stroke-width="1.5"/>
<polygon points=" 148,168 162,168 162,192 148,192" fill="rgb(255,255,170)"/>
<text x="150.0" y="185.0" font-family="courier" font-size="16" fill="rgb(0,0,0)">y</text>
<polygon points=" 118,128 142,128 142,152 118,152" fill="rgb(255,255,170)"/>
<text x="120.0" y="145.0" font-family="courier" font-size="16" fill="rgb(0,0,0)">&#92;/</text>
<line x1="132.5" y1="100.0" x2="215.0" y2="140.0" stroke="rgb(255,0,0)" stroke-width="1.5"/>
<line x1="215.0" y1="140.0" x2="185.0" y2="180.0" stroke="rgb(255,0,0)" stroke-width="1.5"/>
<line x1="185.0" y1="180.0" x2="185.0" y2="220.0" stroke="rgb(255,0,0)" stroke-width="1.5"/>
<polygon points=" 178,208 192,208 192,232 178,232" fill="rgb(255,255,170)"/>
<text x="180.0" y="225.0" font-family="courier" font-size="16" fill="rgb(0,0,0)">x</text>
<polygon points=" 168,168 202,168 202,192 168,192" fill="rgb(255,255,170)"/>
<text x="170.0" y="185.0" font-family="courier" font-size="16" fill="rgb(0,0,0)">not</text>
<line x1="215.0" y1="140.0" x2="215.0" y2="180.0" stroke="rgb(255,0,0)" stroke-width="1.5"/>
<polygon points=" 208,168 222,168 222,192 208,192" fill="rgb(255,255,170)"/>
<text x="210.0" y="185.0" font-family="courier" font-size="16" fill="rgb(0,0,0)">x</text>
<line x1="215.0" y1="140.0" x2="245.0" y2="180.0" stroke="rgb(255,0,0)" stroke-width="1.5"/>
<line x1="245.0" y1="180.0" x2="245.0" y2="220.0" stroke="rgb(255,0,0)" stroke-width="1.5"/>
<polygon points=" 238,208 252,208 252,232 238,232" fill="rgb(255,255,170)"/>
<text x="240.0" y="225.0" font-family="courier" font-size="16" fill="rgb(0,0,0)">z</text>
<polygon points=" 228,168 262,168 262,192 228,192" fill="rgb(255,255,170)"/>
<text x="230.0" y="185.0" font-family="courier" font-size="16" fill="rgb(0,0,0)">not</text>
<polygon points=" 203,128 227,128 227,152 203,152" fill="rgb(255,255,170)"/>
<text x="205.0" y="145.0" font-family="courier" font-size="16" fill="rgb(0,0,0)">&#92;/</text>
<polygon points=" 120,88 144,88 144,112 120,112" fill="rgb(255,255,170)"/>
<text x="122.5" y="105.0" font-family="courier" font-size="16" fill="rgb(0,0,0)">/&#92;</text>
<line x1="302.5" y1="60.0" x2="332.5" y2="100.0" stroke="rgb(255,0,0)" stroke-width="1.5"/>
<line x1="332.5" y1="100.0" x2="285.0" y2="140.0" stroke="rgb(255,0,0)" stroke-width="1.5"/>
<line x1="285.0" y1="140.0" x2="285.0" y2="180.0" stroke="rgb(255,0,0)" stroke-width="1.5"/>
<polygon points=" 278,168 292,168 292,192 278,192" fill="rgb(255,170,170)"/>
<text x="280.0" y="185.0" font-family="courier" font-size="16" fill="rgb(0,0,0)">x</text>
<polygon points=" 268,128 302,128 302,152 268,152" fill="rgb(255,170,170)"/>
<text x="270.0" y="145.0" font-family="courier" font-size="16" fill="rgb(0,0,0)">not</text>
<line x1="332.5" y1="100.0" x2="325.0" y2="140.0" stroke="rgb(255,0,0)" stroke-width="1.5"/>
<line x1="325.0" y1="140.0" x2="325.0" y2="180.0" stroke="rgb(255,0,0)" stroke-width="1.5"/>
<polygon points=" 318,168 332,168 332,192 318,192" fill="rgb(255,170,170)"/>
<text x="320.0" y="185.0" font-family="courier" font-size="16" fill="rgb(0,0,0)">y</text>
<polygon points=" 308,128 342,128 342,152 308,152" fill="rgb(255,170,170)"/>
<text x="310.0" y="145.0" font-family="courier" font-size="16" fill="rgb(0,0,0)">not</text>
<line x1="332.5" y1="100.0" x2="380.0" y2="140.0" stroke="rgb(255,0,0)" stroke-width="1.5"/>
<line x1="380.0" y1="140.0" x2="355.0" y2="180.0" stroke="rgb(255,0,0)" stroke-width="1.5"/>
<polygon points=" 348,168 362,168 362,192 348,192" fill="rgb(255,170,170)"/>
<text x="350.0" y="185.0" font-family="courier" font-size="16" fill="rgb(0,0,0)">x</text>
<line x1="380.0" y1="140.0" x2="375.0" y2="180.0" stroke="rgb(255,0,0)" stroke-width="1.5"/>
<polygon points=" 368,168 382,168 382,192 368,192" fill="rgb(255,170,170)"/>
<text x="370.0" y="185.0" font-family="courier" font-size="16" fill="rgb(0,0,0)">y</text>
<line x1="380.0" y1="140.0" x2="405.0" y2="180.0" stroke="rgb(255,0,0)" stroke-width="1.5"/>
<line x1="405.0" y1="180.0" x2="405.0" y2="220.0" stroke="rgb(255,0,0)" stroke-width="1.5"/>
<polygon points=" 398,208 412,208 412,232 398,232" fill="rgb(255,170,170)"/>
<text x="400.0" y="225.0" font-family="courier" font-size="16" fill="rgb(0,0,0)">z</text>
<polygon points=" 388,168 422,168 422,192 388,192" fill="rgb(255,170,170)"/>
<text x="390.0" y="185.0" font-family="courier" font-size="16" fill="rgb(0,0,0)">not</text>
<polygon points=" 368,128 392,128 392,152 368,152" fill="rgb(255,170,170)"/>
<text x="370.0" y="145.0" font-family="courier" font-size="16" fill="rgb(0,0,0)">/&#92;</text>
<polygon points=" 320,88 344,88 344,112 320,112" fill="rgb(255,170,170)"/>
<text x="322.5" y="105.0" font-family="courier" font-size="16" fill="rgb(0,0,0)">&#92;/</text>
<line x1="302.5" y1="60.0" x2="472.5" y2="100.0" stroke="rgb(255,0,0)" stroke-width="1.5"/>
<line x1="472.5" y1="100.0" x2="445.0" y2="140.0" stroke="rgb(255,0,0)" stroke-width="1.5"/>
<line x1="445.0" y1="140.0" x2="445.0" y2="180.0" stroke="rgb(255,0,0)" stroke-width="1.5"/>
<polygon points=" 438,168 452,168 452,192 438,192" fill="rgb(255,255,170)"/>
<text x="440.0" y="185.0" font-family="courier" font-size="16" fill="rgb(0,0,0)">x</text>
<polygon points=" 428,128 462,128 462,152 428,152" fill="rgb(255,255,170)"/>
<text x="430.0" y="145.0" font-family="courier" font-size="16" fill="rgb(0,0,0)">not</text>
<line x1="472.5" y1="100.0" x2="475.0" y2="140.0" stroke="rgb(255,0,0)" stroke-width="1.5"/>
<polygon points=" 468,128 482,128 482,152 468,152" fill="rgb(255,255,170)"/>
<text x="470.0" y="145.0" font-family="courier" font-size="16" fill="rgb(0,0,0)">z</text>
<line x1="472.5" y1="100.0" x2="500.0" y2="140.0" stroke="rgb(255,0,0)" stroke-width="1.5"/>
<line x1="500.0" y1="140.0" x2="475.0" y2="180.0" stroke="rgb(255,0,0)" stroke-width="1.5"/>
<polygon points=" 468,168 482,168 482,192 468,192" fill="rgb(255,255,170)"/>
<text x="470.0" y="185.0" font-family="courier" font-size="16" fill="rgb(0,0,0)">x</text>
<line x1="500.0" y1="140.0" x2="495.0" y2="180.0" stroke="rgb(255,0,0)" stroke-width="1.5"/>
<polygon points=" 488,168 502,168 502,192 488,192" fill="rgb(255,255,170)"/>
<text x="490.0" y="185.0" font-family="courier" font-size="16" fill="rgb(0,0,0)">y</text>
<line x1="500.0" y1="140.0" x2="525.0" y2="180.0" stroke="rgb(255,0,0)" stroke-width="1.5"/>
<line x1="525.0" y1="180.0" x2="525.0" y2="220.0" stroke="rgb(255,0,0)" stroke-width="1.5"/>
<polygon points=" 518,208 532,208 532,232 518,232" fill="rgb(255,255,170)"/>
<text x="520.0" y="225.0" font-family="courier" font-size="16" fill="rgb(0,0,0)">z</text>
<polygon points=" 508,168 542,168 542,192 508,192" fill="rgb(255,255,170)"/>
<text x="510.0" y="185.0" font-family="courier" font-size="16" fill="rgb(0,0,0)">not</text>
<polygon points=" 488,128 512,128 512,152 488,152" fill="rgb(255,255,170)"/>
<text x="490.0" y="145.0" font-family="courier" font-size="16" fill="rgb(0,0,0)">/&#92;</text>
<polygon points=" 460,88 484,88 484,112 460,112" fill="rgb(255,255,170)"/>
<text x="462.5" y="105.0" font-family="courier" font-size="16" fill="rgb(0,0,0)">&#92;/</text>
<polygon points=" 290,48 314,48 314,72 290,72" fill="rgb(255,255,170)"/>
<text x="292.5" y="65.0" font-family="courier" font-size="16" fill="rgb(0,0,0)">/&#92;</text>
<line x1="536.25" y1="20.0" x2="610.0" y2="60.0" stroke="rgb(255,0,0)" stroke-width="1.5"/>
<line x1="610.0" y1="60.0" x2="560.0" y2="100.0" stroke="rgb(255,0,0)" stroke-width="1.5"/>
<polygon points=" 553,88 567,88 567,112 553,112" fill="rgb(255,255,170)"/>
<text x="555.0" y="105.0" font-family="courier" font-size="16" fill="rgb(0,0,0)">y</text>
<line x1="610.0" y1="60.0" x2="585.0" y2="100.0" stroke="rgb(255,0,0)" stroke-width="1.5"/>
<line x1="585.0" y1="100.0" x2="555.0" y2="140.0" stroke="rgb(255,0,0)" stroke-width="1.5"/>
<polygon points=" 548,128 562,128 562,152 548,152" fill="rgb(255,255,170)"/>
<text x="550.0" y="145.0" font-family="courier" font-size="16" fill="rgb(0,0,0)">x</text>
<line x1="585.0" y1="100.0" x2="585.0" y2="140.0" stroke="rgb(255,0,0)" stroke-width="1.5"/>
<line x1="585.0" y1="140.0" x2="585.0" y2="180.0" stroke="rgb(255,0,0)" stroke-width="1.5"/>
<polygon points=" 578,168 592,168 592,192 578,192" fill="rgb(255,255,170)"/>
<text x="580.0" y="185.0" font-family="courier" font-size="16" fill="rgb(0,0,0)">y</text>
<polygon points=" 568,128 602,128 602,152 568,152" fill="rgb(255,255,170)"/>
<text x="570.0" y="145.0" font-family="courier" font-size="16" fill="rgb(0,0,0)">not</text>
<line x1="585.0" y1="100.0" x2="615.0" y2="140.0" stroke="rgb(255,0,0)" stroke-width="1.5"/>
<polygon points=" 608,128 622,128 622,152 608,152" fill="rgb(255,255,170)"/>
<text x="610.0" y="145.0" font-family="courier" font-size="16" fill="rgb(0,0,0)">z</text>
<polygon points=" 573,88 597,88 597,112 573,112" fill="rgb(255,255,170)"/>
<text x="575.0" y="105.0" font-family="courier" font-size="16" fill="rgb(0,0,0)">/&#92;</text>
<line x1="610.0" y1="60.0" x2="660.0" y2="100.0" stroke="rgb(255,0,0)" stroke-width="1.5"/>
<line x1="660.0" y1="100.0" x2="635.0" y2="140.0" stroke="rgb(255,0,0)" stroke-width="1.5"/>
<polygon points=" 628,128 642,128 642,152 628,152" fill="rgb(255,255,170)"/>
<text x="630.0" y="145.0" font-family="courier" font-size="16" fill="rgb(0,0,0)">x</text>
<line x1="660.0" y1="100.0" x2="655.0" y2="140.0" stroke="rgb(255,0,0)" stroke-width="1.5"/>
<polygon points=" 648,128 662,128 662,152 648,152" fill="rgb(255,255,170)"/>
<text x="650.0" y="145.0" font-family="courier" font-size="16" fill="rgb(0,0,0)">y</text>
<line x1="660.0" y1="100.0" x2="685.0" y2="140.0" stroke="rgb(255,0,0)" stroke-width="1.5"/>
<line x1="685.0" y1="140.0" x2="685.0" y2="180.0" stroke="rgb(255,0,0)" stroke-width="1.5"/>
<polygon points=" 678,168 692,168 692,192 678,192" fill="rgb(255,255,170)"/>
<text x="680.0" y="185.0" font-family="courier" font-size="16" fill="rgb(0,0,0)">z</text>
<polygon points=" 668,128 702,128 702,152 668,152" fill="rgb(255,255,170)"/>
<text x="670.0" y="145.0" font-family="courier" font-size="16" fill="rgb(0,0,0)">not</text>
<polygon points=" 648,88 672,88 672,112 648,112" fill="rgb(255,255,170)"/>
<text x="650.0" y="105.0" font-family="courier" font-size="16" fill="rgb(0,0,0)">/&#92;</text>
<polygon points=" 598,48 622,48 622,72 598,72" fill="rgb(255,255,170)"/>
<text x="600.0" y="65.0" font-family="courier" font-size="16" fill="rgb(0,0,0)">&#92;/</text>
<line x1="536.25" y1="20.0" x2="770.0" y2="60.0" stroke="rgb(255,0,0)" stroke-width="1.5"/>
<line x1="770.0" y1="60.0" x2="720.0" y2="100.0" stroke="rgb(255,0,0)" stroke-width="1.5"/>
<polygon points=" 713,88 727,88 727,112 713,112" fill="rgb(255,255,170)"/>
<text x="715.0" y="105.0" font-family="courier" font-size="16" fill="rgb(0,0,0)">z</text>
<line x1="770.0" y1="60.0" x2="745.0" y2="100.0" stroke="rgb(255,0,0)" stroke-width="1.5"/>
<line x1="745.0" y1="100.0" x2="715.0" y2="140.0" stroke="rgb(255,0,0)" stroke-width="1.5"/>
<polygon points=" 708,128 722,128 722,152 708,152" fill="rgb(255,255,170)"/>
<text x="710.0" y="145.0" font-family="courier" font-size="16" fill="rgb(0,0,0)">x</text>
<line x1="745.0" y1="100.0" x2="745.0" y2="140.0" stroke="rgb(255,0,0)" stroke-width="1.5"/>
<line x1="745.0" y1="140.0" x2="745.0" y2="180.0" stroke="rgb(255,0,0)" stroke-width="1.5"/>
<polygon points=" 738,168 752,168 752,192 738,192" fill="rgb(255,255,170)"/>
<text x="740.0" y="185.0" font-family="courier" font-size="16" fill="rgb(0,0,0)">y</text>
<polygon points=" 728,128 762,128 762,152 728,152" fill="rgb(255,255,170)"/>
<text x="730.0" y="145.0" font-family="courier" font-size="16" fill="rgb(0,0,0)">not</text>
<line x1="745.0" y1="100.0" x2="775.0" y2="140.0" stroke="rgb(255,0,0)" stroke-width="1.5"/>
<polygon points=" 768,128 782,128 782,152 768,152" fill="rgb(255,255,170)"/>
<text x="770.0" y="145.0" font-family="courier" font-size="16" fill="rgb(0,0,0)">z</text>
<polygon points=" 733,88 757,88 757,112 733,112" fill="rgb(255,255,170)"/>
<text x="735.0" y="105.0" font-family="courier" font-size="16" fill="rgb(0,0,0)">/&#92;</text>
<line x1="770.0" y1="60.0" x2="820.0" y2="100.0" stroke="rgb(255,0,0)" stroke-width="1.5"/>
<line x1="820.0" y1="100.0" x2="795.0" y2="140.0" stroke="rgb(255,0,0)" stroke-width="1.5"/>
<polygon points=" 788,128 802,128 802,152 788,152" fill="rgb(255,255,170)"/>
<text x="790.0" y="145.0" font-family="courier" font-size="16" fill="rgb(0,0,0)">x</text>
<line x1="820.0" y1="100.0" x2="815.0" y2="140.0" stroke="rgb(255,0,0)" stroke-width="1.5"/>
<polygon points=" 808,128 822,128 822,152 808,152" fill="rgb(255,255,170)"/>
<text x="810.0" y="145.0" font-family="courier" font-size="16" fill="rgb(0,0,0)">y</text>
<line x1="820.0" y1="100.0" x2="845.0" y2="140.0" stroke="rgb(255,0,0)" stroke-width="1.5"/>
<line x1="845.0" y1="140.0" x2="845.0" y2="180.0" stroke="rgb(255,0,0)" stroke-width="1.5"/>
<polygon points=" 838,168 852,168 852,192 838,192" fill="rgb(255,255,170)"/>
<text x="840.0" y="185.0" font-family="courier" font-size="16" fill="rgb(0,0,0)">z</text>
<polygon points=" 828,128 862,128 862,152 828,152" fill="rgb(255,255,170)"/>
<text x="830.0" y="145.0" font-family="courier" font-size="16" fill="rgb(0,0,0)">not</text>
<polygon points=" 808,88 832,88 832,112 808,112" fill="rgb(255,255,170)"/>
<text x="810.0" y="105.0" font-family="courier" font-size="16" fill="rgb(0,0,0)">/&#92;</text>
<polygon points=" 758,48 782,48 782,72 758,72" fill="rgb(255,255,170)"/>
<text x="760.0" y="65.0" font-family="courier" font-size="16" fill="rgb(0,0,0)">&#92;/</text>
<polygon points=" 524,8 548,8 548,32 524,32" fill="rgb(255,255,170)"/>
<text x="526.25" y="25.0" font-family="courier" font-size="16" fill="rgb(0,0,0)">/&#92;</text></svg>