<svg xmlns="http://www.w3.org/2000/svg"
xmlns:xlink="http://www.w3.org/1999/xlink"
version="1.1" baseProfile="full"
width="1040" height="240">
<line x1="656.25" y1="20.0" x2="382.5" y2="60.0" stroke="rgb(255,0,0)" stroke-width="1.5"/>
<line x1="382.5" y1="60.0" x2="132.5" y2="100.0" stroke="rgb(255,0,0)" stroke-width="1.5"/>
<line x1="132.5" y1="100.0" x2="50.0" y2="140.0" stroke="rgb(255,0,0)" stroke-width="1.5"/>
<line x1="50.0" y1="140.0" x2="25.0" y2="180.0" stroke="rgb(255,0,0)" stroke-width="1.5"/>
<line x1="25.0" y1="180.0" x2="25.0" y2="220.0" stroke="rgb(255,0,0)" stroke-width="1.5"/>
<polygon points=" 18,208 32,208 32,232 18,232" fill="rgb(255,255,170)"/>
<text x="20.0" y="225.0" font-family="courier" font-size="16" fill="rgb(0,0,0)">x</text>
<polygon points=" 8,168 42,168 42,192 8,192" fill="rgb(255,255,170)"/>
<text x="10.0" y="185.0" font-family="courier" font-size="16" fill="rgb(0,0,0)">not</text>
<line x1="50.0" y1="140.0" x2="55.0" y2="180.0" stroke="rgb(255,0,0)" stroke-width="1.5"/>
<polygon points=" 48,168 62,168 62,192 48,192" fill="rgb(255,255,170)"/>
<text x="50.0" y="185.0" font-family="courier" font-size="16" fill="rgb(0,0,0)">x</text>
<line x1="50.0" y1="140.0" x2="75.0" y2="180.0" stroke="rgb(255,0,0)" stroke-width="1.5"/>
<polygon points=" 68,168 82,168 82,192 68,192" fill="rgb(255,255,170)"/>
<text x="70.0" y="185.0" font-family="courier" font-size="16" fill="rgb(0,0,0)">x</text>
<polygon points=" 38,128 62,128 62,152 38,152" fill="rgb(255,255,170)"/>
<text x="40.0" y="145.0" font-family="courier" font-size="16" fill="rgb(0,0,0)">&#92;/</text>
<line x1="132.5" y1="100.0" x2="130.0" y2="140.0" stroke="rgb(255,0,0)" stroke-width="1.5"/>
<line x1="130.0" y1="140.0" x2="105.0" y2="180.0" stroke="rgb(255,0,0)" stroke-width="1.5"/>
<line x1="105.0" y1="180.0" x2="105.0" y2="220.0" stroke="rgb(255,0,0)" stroke-width="1.5"/>
<polygon points=" 98,208 112,208 112,232 98,232" fill="rgb(255,255,170)"/>
<text x="100.0" y="225.0" font-family="courier" font-size="16" fill="rgb(0,0,0)">x</text>
<polygon points=" 88,168 122,168 122,192 88,192" fill="rgb(255,255,170)"/>
<text x="90.0" y="185.0" font-family="courier" font-size="16" fill="rgb(0,0,0)">not</text>
<line x1="130.0" y1="140.0" x2="135.0" y2="180.0" stroke="rgb(255,0,0)" stroke-width="1.5"/>
<polygon points=" 128,168 142,168 142,192 128,192" fill="rgb(255,255,170)"/>
<text x="130.0" y="185.0" font-family="courier" font-size="16" fill="rgb(0,0,0)">x</text>
<line x1="130.0" y1="140.0" x2="155.0" y2="180.0" stroke="rgb(255,0,0)" stroke-width="1.5"/>
<polygon points=" 148,168 162,168 162,192 148,192" fill="rgb(255,255,170)"/>
<text x="150.0" y="185.0" font-family="courier" font-size="16" fill="rgb(0,0,0)">y</text>
<polygon points=" 118,128 142,128 142,152 118,152" fill="rgb(255,255,170)"/>
<text x="120.0" y="145.0" font-family="courier" font-size="16" fill="rgb(0,0,0)">&#92;/</text>
<line x1="132.5" y1="100.0" x2="215.0" y2="140.0" stroke="rgb(255,0,0)" stroke-width="1.5"/>
<line x1="215.0" y1="140.0" x2="185.0" y2="180.0" stroke="rgb(255,0,0)" stroke-width="1.5"/>
<line x1="185.0" y1="180.0" x2="185.0" y2="220.0" stroke="rgb(255,0,0)" stroke-width="1.5"/>
<polygon points=" 178,208 192,208 192,232 178,232" fill="rgb(255,255,170)"/>
<text x="180.0" y="225.0" font-family="courier" font-size="16" fill="rgb(0,0,0)">x</text>
<polygon points=" 168,168 202,168 202,192 168,192" fill="rgb(255,255,170)"/>
<text x="170.0" y="185.0" font-family="courier" font-size="16" fill="rgb(0,0,0)">not</text>
<line x1="215.0" y1="140.0" x2="215.0" y2="180.0" stroke="rgb(255,0,0)" stroke-width="1.5"/>
<polygon points=" 208,168 222,168 222,192 208,192" fill="rgb(255,255,170)"/>
<text x="210.0" y="185.0" font-family="courier" font-size="16" fill="rgb(0,0,0)">x</text>
<line x1="215.0" y1="140.0" x2="245.0" y2="180.0" stroke="rgb(255,0,0)" stroke-width="1.5"/>
<line x1="245.0" y1="180.0" x2="245.0" y2="220.0" stroke="rgb(255,0,0)" stroke-width="1.5"/>
<polygon points=" 238,208 252,208 252,232 238,232" fill="rgb(255,255,170)"/>
<text x="240.0" y="225.0" font-family="courier" font-size="16" fill="rgb(0,0,0)">z</text>
<polygon points=" 228,168 262,168 262,192 228,192" fill="rgb(255,255,170)"/>
<text x="230.0" y="185.0" font-family="courier" font-size="16" fill="rgb(0,0,0)">not</text>
<polygon points=" 203,128 227,128 227,152 203,152" fill="rgb(255,255,170)"/>
<text x="205.0" y="145.0" font-family="courier" font-size="16" fill="rgb(0,0,0)">&#92;/</text>
<polygon points=" 120,88 144,88 144,112 120,112" fill="rgb(255,255,170)"/>
<text x="122.5" y="105.0" font-family="courier" font-size="16" fill="rgb(0,0,0)">/&#92;</text>
<line x1="382.5" y1="60.0" x2="422.5" y2="100.0" stroke="rgb(255,0,0)" stroke-width="1.5"/>
<line x1="422.5" y1="100.0" x2="320.0" y2="140.0" stroke="rgb(255,0,0)" stroke-width="1.5"/>
<line x1="320.0" y1="140.0" x2="285.0" y2="180.0" stroke="rgb(255,0,0)" stroke-width="1.5"/>
<line x1="285.0" y1="180.0" x2="285.0" y2="220.0" stroke="rgb(255,0,0)" stroke-width="1.5"/>
<polygon points=" 278,208 292,208 292,232 278,232" fill="rgb(170,255,170)"/>
<text x="280.0" y="225.0" font-family="courier" font-size="16" fill="rgb(0,0,0)">x</text>
<polygon points=" 268,168 302,168 302,192 268,192" fill="rgb(170,255,170)"/>
<text x="270.0" y="185.0" font-family="courier" font-size="16" fill="rgb(0,0,0)">not</text>
<line x1="320.0" y1="140.0" x2="325.0" y2="180.0" stroke="rgb(255,0,0)" stroke-width="1.5"/>
<line x1="325.0" y1="180.0" x2="325.0" y2="220.0" stroke="rgb(255,0,0)" stroke-width="1.5"/>
<polygon points=" 318,208 332,208 332,232 318,232" fill="rgb(170,255,170)"/>
<text x="320.0" y="225.0" font-family="courier" font-size="16" fill="rgb(0,0,0)">y</text>
<polygon points=" 308,168 342,168 342,192 308,192" fill="rgb(170,255,170)"/>
<text x="310.0" y="185.0" font-family="courier" font-size="16" fill="rgb(0,0,0)">not</text>
<line x1="320.0" y1="140.0" x2="355.0" y2="180.0" stroke="rgb(255,0,0)" stroke-width="1.5"/>
<polygon points=" 348,168 362,168 362,192 348,192" fill="rgb(170,255,170)"/>
<text x="350.0" y="185.0" font-family="courier" font-size="16" fill="rgb(0,0,0)">x</text>
<polygon points=" 308,128 332,128 332,152 308,152" fill="rgb(170,255,170)"/>
<text x="310.0" y="145.0" font-family="courier" font-size="16" fill="rgb(0,0,0)">&#92;/</text>
<line x1="422.5" y1="100.0" x2="420.0" y2="140.0" stroke="rgb(255,0,0)" stroke-width="1.5"/>
<line x1="420.0" y1="140.0" x2="385.0" y2="180.0" stroke="rgb(255,0,0)" stroke-width="1.5"/>
<line x1="385.0" y1="180.0" x2="385.0" y2="220.0" stroke="rgb(255,0,0)" stroke-width="1.5"/>
<polygon points=" 378,208 392,208 392,232 378,232" fill="rgb(170,255,170)"/>
<text x="380.0" y="225.0" font-family="courier" font-size="16" fill="rgb(0,0,0)">x</text>
<polygon points=" 368,168 402,168 402,192 368,192" fill="rgb(170,255,170)"/>
<text x="370.0" y="185.0" font-family="courier" font-size="16" fill="rgb(0,0,0)">not</text>
<line x1="420.0" y1="140.0" x2="425.0" y2="180.0" stroke="rgb(255,0,0)" stroke-width="1.5"/>
<line x1="425.0" y1="180.0" x2="425.0" y2="220.0" stroke="rgb(255,0,0)" stroke-width="1.5"/>
<polygon points=" 418,208 432,208 432,232 418,232" fill="rgb(170,255,170)"/>
<text x="420.0" y="225.0" font-family="courier" font-size="16" fill="rgb(0,0,0)">y</text>
<polygon points=" 408,168 442,168 442,192 408,192" fill="rgb(170,255,170)"/>
<text x="410.0" y="185.0" font-family="courier" font-size="16" fill="rgb(0,0,0)">not</text>
<line x1="420.0" y1="140.0" x2="455.0" y2="180.0" stroke="rgb(255,0,0)" stroke-width="1.5"/>
<polygon points=" 448,168 462,168 462,192 448,192" fill="rgb(170,255,170)"/>
<text x="450.0" y="185.0" font-family="courier" font-size="16" fill="rgb(0,0,0)">y</text>
<polygon points=" 408,128 432,128 432,152 408,152" fill="rgb(170,255,170)"/>
<text x="410.0" y="145.0" font-family="courier" font-size="16" fill="rgb(0,0,0)">&#92;/</text>
<line x1="422.5" y1="100.0" x2="525.0" y2="140.0" stroke="rgb(255,0,0)" stroke-width="1.5"/>
<line x1="525.0" y1="140.0" x2="485.0" y2="180.0" stroke="rgb(255,0,0)" stroke-width="1.5"/>
<line x1="485.0" y1="180.0" x2="485.0" y2="220.0" stroke="rgb(255,0,0)" stroke-width="1.5"/>
<polygon points=" 478,208 492,208 492,232 478,232" fill="rgb(170,255,170)"/>
<text x="480.0" y="225.0" font-family="courier" font-size="16" fill="rgb(0,0,0)">x</text>
<polygon points=" 468,168 502,168 502,192 468,192" fill="rgb(170,255,170)"/>
<text x="470.0" y="185.0" font-family="courier" font-size="16" fill="rgb(0,0,0)">not</text>
<line x1="525.0" y1="140.0" x2="525.0" y2="180.0" stroke="rgb(255,0,0)" stroke-width="1.5"/>
<line x1="525.0" y1="180.0" x2="525.0" y2="220.0" stroke="rgb(255,0,0)" stroke-width="1.5"/>
<polygon points=" 518,208 532,208 532,232 518,232" fill="rgb(170,255,170)"/>
<text x="520.0" y="225.0" font-family="courier" font-size="16" fill="rgb(0,0,0)">y</text>
<polygon points=" 508,168 542,168 542,192 508,192" fill="rgb(170,255,170)"/>
<text x="510.0" y="185.0" font-family="courier" font-size="16" fill="rgb(0,0,0)">not</text>
<line x1="525.0" y1="140.0" x2="565.0" y2="180.0" stroke="rgb(255,0,0)" stroke-width="1.5"/>
<line x1="565.0" y1="180.0" x2="565.0" y2="220.0" stroke="rgb(255,0,0)" stroke-width="1.5"/>
<polygon points=" 558,208 572,208 572,232 558,232" fill="rgb(170,255,170)"/>
<text x="560.0" y="225.0" font-family="courier" font-size="16" fill="rgb(0,0,0)">z</text>
<polygon points=" 548,168 582,168 582,192 548,192" fill="rgb(170,255,170)"/>
<text x="550.0" y="185.0" font-family="courier" font-size="16" fill="rgb(0,0,0)">not</text>
<polygon points=" 513,128 537,128 537,152 513,152" fill="rgb(170,255,170)"/>
<text x="515.0" y="145.0" font-family="courier" font-size="16" fill="rgb(0,0,0)">&#92;/</text>
<polygon points=" 410,88 434,88 434,112 410,112" fill="rgb(170,255,170)"/>
<text x="412.5" y="105.0" font-family="courier" font-size="16" fill="rgb(0,0,0)">/&#92;</text>
<line x1="382.5" y1="60.0" x2="632.5" y2="100.0" stroke="rgb(255,0,0)" stroke-width="1.5"/>
<line x1="632.5" y1="100.0" x2="605.0" y2="140.0" stroke="rgb(255,0,0)" stroke-width="1.5"/>
<line x1="605.0" y1="140.0" x2="605.0" y2="180.0" stroke="rgb(255,0,0)" stroke-width="1.5"/>
<polygon points=" 598,168 612,168 612,192 598,192" fill="rgb(255,255,170)"/>
<text x="600.0" y="185.0" font-family="courier" font-size="16" fill="rgb(0,0,0)">x</text>
<polygon points=" 588,128 622,128 622,152 588,152" fill="rgb(255,255,170)"/>
<text x="590.0" y="145.0" font-family="courier" font-size="16" fill="rgb(0,0,0)">not</text>
<line x1="632.5" y1="100.0" x2="635.0" y2="140.0" stroke="rgb(255,0,0)" stroke-width="1.5"/>
<polygon points=" 628,128 642,128 642,152 628,152" fill="rgb(255,255,170)"/>
<text x="630.0" y="145.0" font-family="courier" font-size="16" fill="rgb(0,0,0)">z</text>
<line x1="632.5" y1="100.0" x2="660.0" y2="140.0" stroke="rgb(255,0,0)" stroke-width="1.5"/>
<line x1="660.0" y1="140.0" x2="635.0" y2="180.0" stroke="rgb(255,0,0)" stroke-width="1.5"/>
<polygon points=" 628,168 642,168 642,192 628,192" fill="rgb(255,255,170)"/>
<text x="630.0" y="185.0" font-family="courier" font-size="16" fill="rgb(0,0,0)">x</text>
<line x1="660.0" y1="140.0" x2="655.0" y2="180.0" stroke="rgb(255,0,0)" stroke-width="1.5"/>
<polygon points=" 648,168 662,168 662,192 648,192" fill="rgb(255,255,170)"/>
<text x="650.0" y="185.0" font-family="courier" font-size="16" fill="rgb(0,0,0)">y</text>
<line x1="660.0" y1="140.0" x2="685.0" y2="180.0" stroke="rgb(255,0,0)" stroke-width="1.5"/>
<line x1="685.0" y1="180.0" x2="685.0" y2="220.0" stroke="rgb(255,0,0)" stroke-width="1.5"/>
<polygon points=" 678,208 692,208 692,232 678,232" fill="rgb(255,255,170)"/>
<text x="680.0" y="225.0" font-family="courier" font-size="16" fill="rgb(0,0,0)">z</text>
<polygon points=" 668,168 702,168 702,192 668,192" fill="rgb(255,255,170)"/>
<text x="670.0" y="185.0" font-family="courier" font-size="16" fill="rgb(0,0,0)">not</text>
<polygon points=" 648,128 672,128 672,152 648,152" fill="rgb(255,255,170)"/>
<text x="650.0" y="145.0" font-family="courier" font-size="16" fill="rgb(0,0,0)">/&#92;</text>
<polygon points=" 620,88 644,88 644,112 620,112" fill="rgb(255,255,170)"/>
<text x="622.5" y="105.0" font-family="courier" font-size="16" fill="rgb(0,0,0)">&#92;/</text>
<polygon points=" 370,48 394,48 394,72 370,72" fill="rgb(255,255,170)"/>
<text x="372.5" y="65.0" font-family="courier" font-size="16" fill="rgb(0,0,0)">/&#92;</text>
<line x1="656.25" y1="20.0" x2="770.0" y2="60.0" stroke="rgb(255,0,0)" stroke-width="1.5"/>
<line x1="770.0" y1="60.0" x2="720.0" y2="100.0" stroke="rgb(255,0,0)" stroke-width="1.5"/>
<polygon points=" 713,88 727,88 727,112 713,112" fill="rgb(255,255,170)"/>
<text x="715.0" y="105.0" font-family="courier" font-size="16" fill="rgb(0,0,0)">y</text>
<line x1="770.0" y1="60.0" x2="745.0" y2="100.0" stroke="rgb(255,0,0)" stroke-width="1.5"/>
<line x1="745.0" y1="100.0" x2="715.0" y2="140.0" stroke="rgb(255,0,0)" stroke-width="1.5"/>
<polygon points=" 708,128 722,128 722,152 708,152" fill="rgb(255,255,170)"/>
<text x="710.0" y="145.0" font-family="courier" font-size="16" fill="rgb(0,0,0)">x</text>
<line x1="745.0" y1="100.0" x2="745.0" y2="140.0" stroke="rgb(255,0,0)" stroke-width="1.5"/>
<line x1="745.0" y1="140.0" x2="745.0" y2="180.0" stroke="rgb(255,0,0)" stroke-width="1.5"/>
<polygon points=" 738,168 752,168 752,192 738,192" fill="rgb(255,255,170)"/>
<text x="740.0" y="185.0" font-family="courier" font-size="16" fill="rgb(0,0,0)">y</text>
<polygon points=" 728,128 762,128 762,152 728,152" fill="rgb(255,255,170)"/>
<text x="730.0" y="145.0" font-family="courier" font-size="16" fill="rgb(0,0,0)">not</text>
<line x1="745.0" y1="100.0" x2="775.0" y2="140.0" stroke="rgb(255,0,0)" stroke-width="1.5"/>
<polygon points=" 768,128 782,128 782,152 768,152" fill="rgb(255,255,170)"/>
<text x="770.0" y="145.0" font-family="courier" font-size="16" fill="rgb(0,0,0)">z</text>
<polygon points=" 733,88 757,88 757,112 733,112" fill="rgb(255,255,170)"/>
<text x="735.0" y="105.0" font-family="courier" font-size="16" fill="rgb(0,0,0)">/&#92;</text>
<line x1="770.0" y1="60.0" x2="820.0" y2="100.0" stroke="rgb(255,0,0)" stroke-width="1.5"/>
<line x1="820.0" y1="100.0" x2="795.0" y2="140.0" stroke="rgb(255,0,0)" stroke-width="1.5"/>
<polygon points=" 788,128 802,128 802,152 788,152" fill="rgb(255,255,170)"/>
<text x="790.0" y="145.0" font-family="courier" font-size="16" fill="rgb(0,0,0)">x</text>
<line x1="820.0" y1="100.0" x2="815.0" y2="140.0" stroke="rgb(255,0,0)" stroke-width="1.5"/>
<polygon points=" 808,128 822,128 822,152 808,152" fill="rgb(255,255,170)"/>
<text x="810.0" y="145.0" font-family="courier" font-size="16" fill="rgb(0,0,0)">y</text>
<line x1="820.0" y1="100.0" x2="845.0" y2="140.0" stroke="rgb(255,0,0)" stroke-width="1.5"/>
<line x1="845.0" y1="140.0" x2="845.0" y2="180.0" stroke="rgb(255,0,0)" stroke-width="1.5"/>
<polygon points=" 838,168 852,168 852,192 838,192" fill="rgb(255,255,170)"/>
<text x="840.0" y="185.0" font-family="courier" font-size="16" fill="rgb(0,0,0)">z</text>
<polygon points=" 828,128 862,128 862,152 828,152" fill="rgb(255,255,170)"/>
<text x="830.0" y="145.0" font-family="courier" font-size="16" fill="rgb(0,0,0)">not</text>
<polygon points=" 808,88 832,88 832,112 808,112" fill="rgb(255,255,170)"/>
<text x="810.0" y="105.0" font-family="courier" font-size="16" fill="rgb(0,0,0)">/&#92;</text>
<polygon points=" 758,48 782,48 782,72 758,72" fill="rgb(255,255,170)"/>
<text x="760.0" y="65.0" font-family="courier" font-size="16" fill="rgb(0,0,0)">&#92;/</text>
<line x1="656.25" y1="20.0" x2="930.0" y2="60.0" stroke="rgb(255,0,0)" stroke-width="1.5"/>
<line x1="930.0" y1="60.0" x2="880.0" y2="100.0" stroke="rgb(255,0,0)" stroke-width="1.5"/>
<polygon points=" 873,88 887,88 887,112 873,112" fill="rgb(255,255,170)"/>
<text x="875.0" y="105.0" font-family="courier" font-size="16" fill="rgb(0,0,0)">z</text>
<line x1="930.0" y1="60.0" x2="905.0" y2="100.0" stroke="rgb(255,0,0)" stroke-width="1.5"/>
<line x1="905.0" y1="100.0" x2="875.0" y2="140.0" stroke="rgb(255,0,0)" stroke-width="1.5"/>
<polygon points=" 868,128 882,128 882,152 868,152" fill="rgb(255,255,170)"/>
<text x="870.0" y="145.0" font-family="courier" font-size="16" fill="rgb(0,0,0)">x</text>
<line x1="905.0" y1="100.0" x2="905.0" y2="140.0" stroke="rgb(255,0,0)" stroke-width="1.5"/>
<line x1="905.0" y1="140.0" x2="905.0" y2="180.0" stroke="rgb(255,0,0)" stroke-width="1.5"/>
<polygon points=" 898,168 912,168 912,192 898,192" fill="rgb(255,255,170)"/>
<text x="900.0" y="185.0" font-family="courier" font-size="16" fill="rgb(0,0,0)">y</text>
<polygon points=" 888,128 922,128 922,152 888,152" fill="rgb(255,255,170)"/>
<text x="890.0" y="145.0" font-family="courier" font-size="16" fill="rgb(0,0,0)">not</text>
<line x1="905.0" y1="100.0" x2="935.0" y2="140.0" stroke="rgb(255,0,0)" stroke-width="1.5"/>
<polygon points=" 928,128 942,128 942,152 928,152" fill="rgb(255,255,170)"/>
<text x="930.0" y="145.0" font-family="courier" font-size="16" fill="rgb(0,0,0)">z</text>
<polygon points=" 893,88 917,88 917,112 893,112" fill="rgb(255,255,170)"/>
<text x="895.0" y="105.0" font-family="courier" font-size="16" fill="rgb(0,0,0)">/&#92;</text>
<line x1="930.0" y1="60.0" x2="980.0" y2="100.0" stroke="rgb(255,0,0)" stroke-width="1.5"/>
<line x1="980.0" y1="100.0" x2="955.0" y2="140.0" stroke="rgb(255,0,0)" stroke-width="1.5"/>
<polygon points=" 948,128 962,128 962,152 948,152" fill="rgb(255,255,170)"/>
<text x="950.0" y="145.0" font-family="courier" font-size="16" fill="rgb(0,0,0)">x</text>
<line x1="980.0" y1="100.0" x2="975.0" y2="140.0" stroke="rgb(255,0,0)" stroke-width="1.5"/>
<polygon points=" 968,128 982,128 982,152 968,152" fill="rgb(255,255,170)"/>
<text x="970.0" y="145.0" font-family="courier" font-size="16" fill="rgb(0,0,0)">y</text>
<line x1="980.0" y1="100.0" x2="1005.0" y2="140.0" stroke="rgb(255,0,0)" stroke-width="1.5"/>
<line x1="1005.0" y1="140.0" x2="1005.0" y2="180.0" stroke="rgb(255,0,0)" stroke-width="1.5"/>
<polygon points=" 998,168 1012,168 1012,192 998,192" fill="rgb(255,255,170)"/>
<text x="1000.0" y="185.0" font-family="courier" font-size="16" fill="rgb(0,0,0)">z</text>
<polygon points=" 988,128 1022,128 1022,152 988,152" fill="rgb(255,255,170)"/>
<text x="990.0" y="145.0" font-family="courier" font-size="16" fill="rgb(0,0,0)">not</text>
<polygon points=" 968,88 992,88 992,112 968,112" fill="rgb(255,255,170)"/>
<text x="970.0" y="105.0" font-family="courier" font-size="16" fill="rgb(0,0,0)">/&#92;</text>
<polygon points=" 918,48 942,48 942,72 918,72" fill="rgb(255,255,170)"/>
<text x="920.0" y="65.0" font-family="courier" font-size="16" fill="rgb(0,0,0)">&#92;/</text>
<polygon points=" 644,8 668,8 668,32 644,32" fill="rgb(255,255,170)"/>
<text x="646.25" y="25.0" font-family="courier" font-size="16" fill="rgb(0,0,0)">/&#92;</text></svg>