<svg xmlns="http://www.w3.org/2000/svg"
xmlns:xlink="http://www.w3.org/1999/xlink"
version="1.1" baseProfile="full"
width="1460" height="240">
<line x1="886.25" y1="20.0" x2="422.5" y2="60.0" stroke="rgb(255,0,0)" stroke-width="1.5"/>
<line x1="422.5" y1="60.0" x2="132.5" y2="100.0" stroke="rgb(255,0,0)" stroke-width="1.5"/>
<line x1="132.5" y1="100.0" x2="50.0" y2="140.0" stroke="rgb(255,0,0)" stroke-width="1.5"/>
<line x1="50.0" y1="140.0" x2="25.0" y2="180.0" stroke="rgb(255,0,0)" stroke-width="1.5"/>
<line x1="25.0" y1="180.0" x2="25.0" y2="220.0" stroke="rgb(255,0,0)" stroke-width="1.5"/>
<polygon points=" 18,208 32,208 32,232 18,232" fill="rgb(255,255,170)"/>
<text x="20.0" y="225.0" font-family="courier" font-size="16" fill="rgb(0,0,0)">x</text>
<polygon points=" 8,168 42,168 42,192 8,192" fill="rgb(255,255,170)"/>
<text x="10.0" y="185.0" font-family="courier" font-size="16" fill="rgb(0,0,0)">not</text>
<line x1="50.0" y1="140.0" x2="55.0" y2="180.0" stroke="rgb(255,0,0)" stroke-width="1.5"/>
<polygon points=" 48,168 62,168 62,192 48,192" fill="rgb(255,255,170)"/>
<text x="50.0" y="185.0" font-family="courier" font-size="16" fill="rgb(0,0,0)">x</text>
<line x1="50.0" y1="140.0" x2="75.0" y2="180.0" stroke="rgb(255,0,0)" stroke-width="1.5"/>
<polygon points=" 68,168 82,168 82,192 68,192" fill="rgb(255,255,170)"/>
<text x="70.0" y="185.0" font-family="courier" font-size="16" fill="rgb(0,0,0)">x</text>
<polygon points=" 38,128 62,128 62,152 38,152" fill="rgb(255,255,170)"/>
<text x="40.0" y="145.0" font-family="courier" font-size="16" fill="rgb(0,0,0)">&#92;/</text>
<line x1="132.5" y1="100.0" x2="130.0" y2="140.0" stroke="rgb(255,0,0)" stroke-width="1.5"/>
<line x1="130.0" y1="140.0" x2="105.0" y2="180.0" stroke="rgb(255,0,0)" stroke-width="1.5"/>
<line x1="105.0" y1="180.0" x2="105.0" y2="220.0" stroke="rgb(255,0,0)" stroke-width="1.5"/>
<polygon points=" 98,208 112,208 112,232 98,232" fill="rgb(255,255,170)"/>
<text x="100.0" y="225.0" font-family="courier" font-size="16" fill="rgb(0,0,0)">x</text>
<polygon points=" 88,168 122,168 122,192 88,192" fill="rgb(255,255,170)"/>
<text x="90.0" y="185.0" font-family="courier" font-size="16" fill="rgb(0,0,0)">not</text>
<line x1="130.0" y1="140.0" x2="135.0" y2="180.0" stroke="rgb(255,0,0)" stroke-width="1.5"/>
<polygon points=" 128,168 142,168 142,192 128,192" fill="rgb(255,255,170)"/>
<text x="130.0" y="185.0" font-family="courier" font-size="16" fill="rgb(0,0,0)">x</text>
<line x1="130.0" y1="140.0" x2="155.0" y2="180.0" stroke="rgb(255,0,0)" stroke-width="1.5"/>
<polygon points=" 148,168 162,168 162,192 148,192" fill="rgb(255,255,170)"/>
<text x="150.0" y="185.0" font-family="courier" font-size="16" fill="rgb(0,0,0)">y</text>
<polygon points=" 118,128 142,128 142,152 118,152" fill="rgb(255,255,170)"/>
<text x="120.0" y="145.0" font-family="courier" font-size="16" fill="rgb(0,0,0)">&#92;/</text>
<line x1="132.5" y1="100.0" x2="215.0" y2="140.0" stroke="rgb(255,0,0)" stroke-width="1.5"/>
<line x1="215.0" y1="140.0" x2="185.0" y2="180.0" stroke="rgb(255,0,0)" stroke-width="1.5"/>
<line x1="185.0" y1="180.0" x2="185.0" y2="220.0" stroke="rgb(255,0,0)" stroke-width="1.5"/>
<polygon points=" 178,208 192,208 192,232 178,232" fill="rgb(255,255,170)"/>
<text x="180.0" y="225.0" font-family="courier" font-size="16" fill="rgb(0,0,0)">x</text>
<polygon points=" 168,168 202,168 202,192 168,192" fill="rgb(255,255,170)"/>
<text x="170.0" y="185.0" font-family="courier" font-size="16" fill="rgb(0,0,0)">not</text>
<line x1="215.0" y1="140.0" x2="215.0" y2="180.0" stroke="rgb(255,0,0)" stroke-width="1.5"/>
<polygon points=" 208,168 222,168 222,192 208,192" fill="rgb(255,255,170)"/>
<text x="210.0" y="185.0" font-family="courier" font-size="16" fill="rgb(0,0,0)">x</text>
<line x1="215.0" y1="140.0" x2="245.0" y2="180.0" stroke="rgb(255,0,0)" stroke-width="1.5"/>
<line x1="245.0" y1="180.0" x2="245.0" y2="220.0" stroke="rgb(255,0,0)" stroke-width="1.5"/>
<polygon points=" 238,208 252,208 252,232 238,232" fill="rgb(255,255,170)"/>
<text x="240.0" y="225.0" font-family="courier" font-size="16" fill="rgb(0,0,0)">z</text>
<polygon points=" 228,168 262,168 262,192 228,192" fill="rgb(255,255,170)"/>
<text x="230.0" y="185.0" font-family="courier" font-size="16" fill="rgb(0,0,0)">not</text>
<polygon points=" 203,128 227,128 227,152 203,152" fill="rgb(255,255,170)"/>
<text x="205.0" y="145.0" font-family="courier" font-size="16" fill="rgb(0,0,0)">&#92;/</text>
<polygon points=" 120,88 144,88 144,112 120,112" fill="rgb(255,255,170)"/>
<text x="122.5" y="105.0" font-family="courier" font-size="16" fill="rgb(0,0,0)">/&#92;</text>
<line x1="422.5" y1="60.0" x2="422.5" y2="100.0" stroke="rgb(255,0,0)" stroke-width="1.5"/>
<line x1="422.5" y1="100.0" x2="320.0" y2="140.0" stroke="rgb(255,0,0)" stroke-width="1.5"/>
<line x1="320.0" y1="140.0" x2="285.0" y2="180.0" stroke="rgb(255,0,0)" stroke-width="1.5"/>
<line x1="285.0" y1="180.0" x2="285.0" y2="220.0" stroke="rgb(255,0,0)" stroke-width="1.5"/>
<polygon points=" 278,208 292,208 292,232 278,232" fill="rgb(255,255,170)"/>
<text x="280.0" y="225.0" font-family="courier" font-size="16" fill="rgb(0,0,0)">x</text>
<polygon points=" 268,168 302,168 302,192 268,192" fill="rgb(255,255,170)"/>
<text x="270.0" y="185.0" font-family="courier" font-size="16" fill="rgb(0,0,0)">not</text>
<line x1="320.0" y1="140.0" x2="325.0" y2="180.0" stroke="rgb(255,0,0)" stroke-width="1.5"/>
<line x1="325.0" y1="180.0" x2="325.0" y2="220.0" stroke="rgb(255,0,0)" stroke-width="1.5"/>
<polygon points=" 318,208 332,208 332,232 318,232" fill="rgb(255,255,170)"/>
<text x="320.0" y="225.0" font-family="courier" font-size="16" fill="rgb(0,0,0)">y</text>
<polygon points=" 308,168 342,168 342,192 308,192" fill="rgb(255,255,170)"/>
<text x="310.0" y="185.0" font-family="courier" font-size="16" fill="rgb(0,0,0)">not</text>
<line x1="320.0" y1="140.0" x2="355.0" y2="180.0" stroke="rgb(255,0,0)" stroke-width="1.5"/>
<polygon points=" 348,168 362,168 362,192 348,192" fill="rgb(255,255,170)"/>
<text x="350.0" y="185.0" font-family="courier" font-size="16" fill="rgb(0,0,0)">x</text>
<polygon points=" 308,128 332,128 332,152 308,152" fill="rgb(255,255,170)"/>
<text x="310.0" y="145.0" font-family="courier" font-size="16" fill="rgb(0,0,0)">&#92;/</text>
<line x1="422.5" y1="100.0" x2="420.0" y2="140.0" stroke="rgb(255,0,0)" stroke-width="1.5"/>
<line x1="420.0" y1="140.0" x2="385.0" y2="180.0" stroke="rgb(255,0,0)" stroke-width="1.5"/>
<line x1="385.0" y1="180.0" x2="385.0" y2="220.0" stroke="rgb(255,0,0)" stroke-width="1.5"/>
<polygon points=" 378,208 392,208 392,232 378,232" fill="rgb(255,255,170)"/>
<text x="380.0" y="225.0" font-family="courier" font-size="16" fill="rgb(0,0,0)">x</text>
<polygon points=" 368,168 402,168 402,192 368,192" fill="rgb(255,255,170)"/>
<text x="370.0" y="185.0" font-family="courier" font-size="16" fill="rgb(0,0,0)">not</text>
<line x1="420.0" y1="140.0" x2="425.0" y2="180.0" stroke="rgb(255,0,0)" stroke-width="1.5"/>
<line x1="425.0" y1="180.0" x2="425.0" y2="220.0" stroke="rgb(255,0,0)" stroke-width="1.5"/>
<polygon points=" 418,208 432,208 432,232 418,232" fill="rgb(255,255,170)"/>
<text x="420.0" y="225.0" font-family="courier" font-size="16" fill="rgb(0,0,0)">y</text>
<polygon points=" 408,168 442,168 442,192 408,192" fill="rgb(255,255,170)"/>
<text x="410.0" y="185.0" font-family="courier" font-size="16" fill="rgb(0,0,0)">not</text>
<line x1="420.0" y1="140.0" x2="455.0" y2="180.0" stroke="rgb(255,0,0)" stroke-width="1.5"/>
<polygon points=" 448,168 462,168 462,192 448,192" fill="rgb(255,255,170)"/>
<text x="450.0" y="185.0" font-family="courier" font-size="16" fill="rgb(0,0,0)">y</text>
<polygon points=" 408,128 432,128 432,152 408,152" fill="rgb(255,255,170)"/>
<text x="410.0" y="145.0" font-family="courier" font-size="16" fill="rgb(0,0,0)">&#92;/</text>
<line x1="422.5" y1="100.0" x2="525.0" y2="140.0" stroke="rgb(255,0,0)" stroke-width="1.5"/>
<line x1="525.0" y1="140.0" x2="485.0" y2="180.0" stroke="rgb(255,0,0)" stroke-width="1.5"/>
<line x1="485.0" y1="180.0" x2="485.0" y2="220.0" stroke="rgb(255,0,0)" stroke-width="1.5"/>
<polygon points=" 478,208 492,208 492,232 478,232" fill="rgb(255,255,170)"/>
<text x="480.0" y="225.0" font-family="courier" font-size="16" fill="rgb(0,0,0)">x</text>
<polygon points=" 468,168 502,168 502,192 468,192" fill="rgb(255,255,170)"/>
<text x="470.0" y="185.0" font-family="courier" font-size="16" fill="rgb(0,0,0)">not</text>
<line x1="525.0" y1="140.0" x2="525.0" y2="180.0" stroke="rgb(255,0,0)" stroke-width="1.5"/>
<line x1="525.0" y1="180.0" x2="525.0" y2="220.0" stroke="rgb(255,0,0)" stroke-width="1.5"/>
<polygon points=" 518,208 532,208 532,232 518,232" fill="rgb(255,255,170)"/>
<text x="520.0" y="225.0" font-family="courier" font-size="16" fill="rgb(0,0,0)">y</text>
<polygon points=" 508,168 542,168 542,192 508,192" fill="rgb(255,255,170)"/>
<text x="510.0" y="185.0" font-family="courier" font-size="16" fill="rgb(0,0,0)">not</text>
<line x1="525.0" y1="140.0" x2="565.0" y2="180.0" stroke="rgb(255,0,0)" stroke-width="1.5"/>
<line x1="565.0" y1="180.0" x2="565.0" y2="220.0" stroke="rgb(255,0,0)" stroke-width="1.5"/>
<polygon points=" 558,208 572,208 572,232 558,232" fill="rgb(255,255,170)"/>
<text x="560.0" y="225.0" font-family="courier" font-size="16" fill="rgb(0,0,0)">z</text>
<polygon points=" 548,168 582,168 582,192 548,192" fill="rgb(255,255,170)"/>
<text x="550.0" y="185.0" font-family="courier" font-size="16" fill="rgb(0,0,0)">not</text>
<polygon points=" 513,128 537,128 537,152 513,152" fill="rgb(255,255,170)"/>
<text x="515.0" y="145.0" font-family="courier" font-size="16" fill="rgb(0,0,0)">&#92;/</text>
<polygon points=" 410,88 434,88 434,112 410,112" fill="rgb(255,255,170)"/>
<text x="412.5" y="105.0" font-family="courier" font-size="16" fill="rgb(0,0,0)">/&#92;</text>
<line x1="422.5" y1="60.0" x2="712.5" y2="100.0" stroke="rgb(255,0,0)" stroke-width="1.5"/>
<line x1="712.5" y1="100.0" x2="630.0" y2="140.0" stroke="rgb(255,0,0)" stroke-width="1.5"/>
<line x1="630.0" y1="140.0" x2="605.0" y2="180.0" stroke="rgb(255,0,0)" stroke-width="1.5"/>
<line x1="605.0" y1="180.0" x2="605.0" y2="220.0" stroke="rgb(255,0,0)" stroke-width="1.5"/>
<polygon points=" 598,208 612,208 612,232 598,232" fill="rgb(255,255,170)"/>
<text x="600.0" y="225.0" font-family="courier" font-size="16" fill="rgb(0,0,0)">x</text>
<polygon points=" 588,168 622,168 622,192 588,192" fill="rgb(255,255,170)"/>
<text x="590.0" y="185.0" font-family="courier" font-size="16" fill="rgb(0,0,0)">not</text>
<line x1="630.0" y1="140.0" x2="635.0" y2="180.0" stroke="rgb(255,0,0)" stroke-width="1.5"/>
<polygon points=" 628,168 642,168 642,192 628,192" fill="rgb(255,255,170)"/>
<text x="630.0" y="185.0" font-family="courier" font-size="16" fill="rgb(0,0,0)">z</text>
<line x1="630.0" y1="140.0" x2="655.0" y2="180.0" stroke="rgb(255,0,0)" stroke-width="1.5"/>
<polygon points=" 648,168 662,168 662,192 648,192" fill="rgb(255,255,170)"/>
<text x="650.0" y="185.0" font-family="courier" font-size="16" fill="rgb(0,0,0)">x</text>
<polygon points=" 618,128 642,128 642,152 618,152" fill="rgb(255,255,170)"/>
<text x="620.0" y="145.0" font-family="courier" font-size="16" fill="rgb(0,0,0)">&#92;/</text>
<line x1="712.5" y1="100.0" x2="710.0" y2="140.0" stroke="rgb(255,0,0)" stroke-width="1.5"/>
<line x1="710.0" y1="140.0" x2="685.0" y2="180.0" stroke="rgb(255,0,0)" stroke-width="1.5"/>
<line x1="685.0" y1="180.0" x2="685.0" y2="220.0" stroke="rgb(255,0,0)" stroke-width="1.5"/>
<polygon points=" 678,208 692,208 692,232 678,232" fill="rgb(255,255,170)"/>
<text x="680.0" y="225.0" font-family="courier" font-size="16" fill="rgb(0,0,0)">x</text>
<polygon points=" 668,168 702,168 702,192 668,192" fill="rgb(255,255,170)"/>
<text x="670.0" y="185.0" font-family="courier" font-size="16" fill="rgb(0,0,0)">not</text>
<line x1="710.0" y1="140.0" x2="715.0" y2="180.0" stroke="rgb(255,0,0)" stroke-width="1.5"/>
<polygon points=" 708,168 722,168 722,192 708,192" fill="rgb(255,255,170)"/>
<text x="710.0" y="185.0" font-family="courier" font-size="16" fill="rgb(0,0,0)">z</text>
<line x1="710.0" y1="140.0" x2="735.0" y2="180.0" stroke="rgb(255,0,0)" stroke-width="1.5"/>
<polygon points=" 728,168 742,168 742,192 728,192" fill="rgb(255,255,170)"/>
<text x="730.0" y="185.0" font-family="courier" font-size="16" fill="rgb(0,0,0)">y</text>
<polygon points=" 698,128 722,128 722,152 698,152" fill="rgb(255,255,170)"/>
<text x="700.0" y="145.0" font-family="courier" font-size="16" fill="rgb(0,0,0)">&#92;/</text>
<line x1="712.5" y1="100.0" x2="795.0" y2="140.0" stroke="rgb(255,0,0)" stroke-width="1.5"/>
<line x1="795.0" y1="140.0" x2="765.0" y2="180.0" stroke="rgb(255,0,0)" stroke-width="1.5"/>
<line x1="765.0" y1="180.0" x2="765.0" y2="220.0" stroke="rgb(255,0,0)" stroke-width="1.5"/>
<polygon points=" 758,208 772,208 772,232 758,232" fill="rgb(255,255,170)"/>
<text x="760.0" y="225.0" font-family="courier" font-size="16" fill="rgb(0,0,0)">x</text>
<polygon points=" 748,168 782,168 782,192 748,192" fill="rgb(255,255,170)"/>
<text x="750.0" y="185.0" font-family="courier" font-size="16" fill="rgb(0,0,0)">not</text>
<line x1="795.0" y1="140.0" x2="795.0" y2="180.0" stroke="rgb(255,0,0)" stroke-width="1.5"/>
<polygon points=" 788,168 802,168 802,192 788,192" fill="rgb(255,255,170)"/>
<text x="790.0" y="185.0" font-family="courier" font-size="16" fill="rgb(0,0,0)">z</text>
<line x1="795.0" y1="140.0" x2="825.0" y2="180.0" stroke="rgb(255,0,0)" stroke-width="1.5"/>
<line x1="825.0" y1="180.0" x2="825.0" y2="220.0" stroke="rgb(255,0,0)" stroke-width="1.5"/>
<polygon points=" 818,208 832,208 832,232 818,232" fill="rgb(255,255,170)"/>
<text x="820.0" y="225.0" font-family="courier" font-size="16" fill="rgb(0,0,0)">z</text>
<polygon points=" 808,168 842,168 842,192 808,192" fill="rgb(255,255,170)"/>
<text x="810.0" y="185.0" font-family="courier" font-size="16" fill="rgb(0,0,0)">not</text>
<polygon points=" 783,128 807,128 807,152 783,152" fill="rgb(255,255,170)"/>
<text x="785.0" y="145.0" font-family="courier" font-size="16" fill="rgb(0,0,0)">&#92;/</text>
<polygon points=" 700,88 724,88 724,112 700,112" fill="rgb(255,255,170)"/>
<text x="702.5" y="105.0" font-family="courier" font-size="16" fill="rgb(0,0,0)">/&#92;</text>
<polygon points=" 410,48 434,48 434,72 410,72" fill="rgb(255,255,170)"/>
<text x="412.5" y="65.0" font-family="courier" font-size="16" fill="rgb(0,0,0)">/&#92;</text>
<line x1="886.25" y1="20.0" x2="1077.5" y2="60.0" stroke="rgb(255,0,0)" stroke-width="1.5"/>
<line x1="1077.5" y1="60.0" x2="937.5" y2="100.0" stroke="rgb(255,0,0)" stroke-width="1.5"/>
<line x1="937.5" y1="100.0" x2="875.0" y2="140.0" stroke="rgb(255,0,0)" stroke-width="1.5"/>
<line x1="875.0" y1="140.0" x2="855.0" y2="180.0" stroke="rgb(255,0,0)" stroke-width="1.5"/>
<polygon points=" 848,168 862,168 862,192 848,192" fill="rgb(170,255,170)"/>
<text x="850.0" y="185.0" font-family="courier" font-size="16" fill="rgb(0,0,0)">y</text>
<line x1="875.0" y1="140.0" x2="875.0" y2="180.0" stroke="rgb(255,0,0)" stroke-width="1.5"/>
<polygon points=" 868,168 882,168 882,192 868,192" fill="rgb(170,255,170)"/>
<text x="870.0" y="185.0" font-family="courier" font-size="16" fill="rgb(0,0,0)">x</text>
<line x1="875.0" y1="140.0" x2="895.0" y2="180.0" stroke="rgb(255,0,0)" stroke-width="1.5"/>
<polygon points=" 888,168 902,168 902,192 888,192" fill="rgb(170,255,170)"/>
<text x="890.0" y="185.0" font-family="courier" font-size="16" fill="rgb(0,0,0)">x</text>
<polygon points=" 863,128 887,128 887,152 863,152" fill="rgb(170,255,170)"/>
<text x="865.0" y="145.0" font-family="courier" font-size="16" fill="rgb(0,0,0)">&#92;/</text>
<line x1="937.5" y1="100.0" x2="935.0" y2="140.0" stroke="rgb(255,0,0)" stroke-width="1.5"/>
<line x1="935.0" y1="140.0" x2="915.0" y2="180.0" stroke="rgb(255,0,0)" stroke-width="1.5"/>
<polygon points=" 908,168 922,168 922,192 908,192" fill="rgb(170,255,170)"/>
<text x="910.0" y="185.0" font-family="courier" font-size="16" fill="rgb(0,0,0)">y</text>
<line x1="935.0" y1="140.0" x2="935.0" y2="180.0" stroke="rgb(255,0,0)" stroke-width="1.5"/>
<polygon points=" 928,168 942,168 942,192 928,192" fill="rgb(170,255,170)"/>
<text x="930.0" y="185.0" font-family="courier" font-size="16" fill="rgb(0,0,0)">x</text>
<line x1="935.0" y1="140.0" x2="955.0" y2="180.0" stroke="rgb(255,0,0)" stroke-width="1.5"/>
<polygon points=" 948,168 962,168 962,192 948,192" fill="rgb(170,255,170)"/>
<text x="950.0" y="185.0" font-family="courier" font-size="16" fill="rgb(0,0,0)">y</text>
<polygon points=" 923,128 947,128 947,152 923,152" fill="rgb(170,255,170)"/>
<text x="925.0" y="145.0" font-family="courier" font-size="16" fill="rgb(0,0,0)">&#92;/</text>
<line x1="937.5" y1="100.0" x2="1000.0" y2="140.0" stroke="rgb(255,0,0)" stroke-width="1.5"/>
<line x1="1000.0" y1="140.0" x2="975.0" y2="180.0" stroke="rgb(255,0,0)" stroke-width="1.5"/>
<polygon points=" 968,168 982,168 982,192 968,192" fill="rgb(170,255,170)"/>
<text x="970.0" y="185.0" font-family="courier" font-size="16" fill="rgb(0,0,0)">y</text>
<line x1="1000.0" y1="140.0" x2="995.0" y2="180.0" stroke="rgb(255,0,0)" stroke-width="1.5"/>
<polygon points=" 988,168 1002,168 1002,192 988,192" fill="rgb(170,255,170)"/>
<text x="990.0" y="185.0" font-family="courier" font-size="16" fill="rgb(0,0,0)">x</text>
<line x1="1000.0" y1="140.0" x2="1025.0" y2="180.0" stroke="rgb(255,0,0)" stroke-width="1.5"/>
<line x1="1025.0" y1="180.0" x2="1025.0" y2="220.0" stroke="rgb(255,0,0)" stroke-width="1.5"/>
<polygon points=" 1018,208 1032,208 1032,232 1018,232" fill="rgb(170,255,170)"/>
<text x="1020.0" y="225.0" font-family="courier" font-size="16" fill="rgb(0,0,0)">z</text>
<polygon points=" 1008,168 1042,168 1042,192 1008,192" fill="rgb(170,255,170)"/>
<text x="1010.0" y="185.0" font-family="courier" font-size="16" fill="rgb(0,0,0)">not</text>
<polygon points=" 988,128 1012,128 1012,152 988,152" fill="rgb(170,255,170)"/>
<text x="990.0" y="145.0" font-family="courier" font-size="16" fill="rgb(0,0,0)">&#92;/</text>
<polygon points=" 926,88 950,88 950,112 926,112" fill="rgb(170,255,170)"/>
<text x="927.5" y="105.0" font-family="courier" font-size="16" fill="rgb(0,0,0)">/&#92;</text>
<line x1="1077.5" y1="60.0" x2="1097.5" y2="100.0" stroke="rgb(255,0,0)" stroke-width="1.5"/>
<line x1="1097.5" y1="100.0" x2="1055.0" y2="140.0" stroke="rgb(255,0,0)" stroke-width="1.5"/>
<polygon points=" 1048,128 1062,128 1062,152 1048,152" fill="rgb(255,255,170)"/>
<text x="1050.0" y="145.0" font-family="courier" font-size="16" fill="rgb(0,0,0)">y</text>
<line x1="1097.5" y1="100.0" x2="1085.0" y2="140.0" stroke="rgb(255,0,0)" stroke-width="1.5"/>
<line x1="1085.0" y1="140.0" x2="1085.0" y2="180.0" stroke="rgb(255,0,0)" stroke-width="1.5"/>
<polygon points=" 1078,168 1092,168 1092,192 1078,192" fill="rgb(255,255,170)"/>
<text x="1080.0" y="185.0" font-family="courier" font-size="16" fill="rgb(0,0,0)">y</text>
<polygon points=" 1068,128 1102,128 1102,152 1068,152" fill="rgb(255,255,170)"/>
<text x="1070.0" y="145.0" font-family="courier" font-size="16" fill="rgb(0,0,0)">not</text>
<line x1="1097.5" y1="100.0" x2="1140.0" y2="140.0" stroke="rgb(255,0,0)" stroke-width="1.5"/>
<line x1="1140.0" y1="140.0" x2="1115.0" y2="180.0" stroke="rgb(255,0,0)" stroke-width="1.5"/>
<polygon points=" 1108,168 1122,168 1122,192 1108,192" fill="rgb(255,255,170)"/>
<text x="1110.0" y="185.0" font-family="courier" font-size="16" fill="rgb(0,0,0)">x</text>
<line x1="1140.0" y1="140.0" x2="1135.0" y2="180.0" stroke="rgb(255,0,0)" stroke-width="1.5"/>
<polygon points=" 1128,168 1142,168 1142,192 1128,192" fill="rgb(255,255,170)"/>
<text x="1130.0" y="185.0" font-family="courier" font-size="16" fill="rgb(0,0,0)">y</text>
<line x1="1140.0" y1="140.0" x2="1165.0" y2="180.0" stroke="rgb(255,0,0)" stroke-width="1.5"/>
<line x1="1165.0" y1="180.0" x2="1165.0" y2="220.0" stroke="rgb(255,0,0)" stroke-width="1.5"/>
<polygon points=" 1158,208 1172,208 1172,232 1158,232" fill="rgb(255,255,170)"/>
<text x="1160.0" y="225.0" font-family="courier" font-size="16" fill="rgb(0,0,0)">z</text>
<polygon points=" 1148,168 1182,168 1182,192 1148,192" fill="rgb(255,255,170)"/>
<text x="1150.0" y="185.0" font-family="courier" font-size="16" fill="rgb(0,0,0)">not</text>
<polygon points=" 1128,128 1152,128 1152,152 1128,152" fill="rgb(255,255,170)"/>
<text x="1130.0" y="145.0" font-family="courier" font-size="16" fill="rgb(0,0,0)">/&#92;</text>
<polygon points=" 1086,88 1110,88 1110,112 1086,112" fill="rgb(255,255,170)"/>
<text x="1087.5" y="105.0" font-family="courier" font-size="16" fill="rgb(0,0,0)">&#92;/</text>
<line x1="1077.5" y1="60.0" x2="1217.5" y2="100.0" stroke="rgb(255,0,0)" stroke-width="1.5"/>
<line x1="1217.5" y1="100.0" x2="1195.0" y2="140.0" stroke="rgb(255,0,0)" stroke-width="1.5"/>
<polygon points=" 1188,128 1202,128 1202,152 1188,152" fill="rgb(255,255,170)"/>
<text x="1190.0" y="145.0" font-family="courier" font-size="16" fill="rgb(0,0,0)">y</text>
<line x1="1217.5" y1="100.0" x2="1215.0" y2="140.0" stroke="rgb(255,0,0)" stroke-width="1.5"/>
<polygon points=" 1208,128 1222,128 1222,152 1208,152" fill="rgb(255,255,170)"/>
<text x="1210.0" y="145.0" font-family="courier" font-size="16" fill="rgb(0,0,0)">z</text>
<line x1="1217.5" y1="100.0" x2="1240.0" y2="140.0" stroke="rgb(255,0,0)" stroke-width="1.5"/>
<line x1="1240.0" y1="140.0" x2="1215.0" y2="180.0" stroke="rgb(255,0,0)" stroke-width="1.5"/>
<polygon points=" 1208,168 1222,168 1222,192 1208,192" fill="rgb(255,255,170)"/>
<text x="1210.0" y="185.0" font-family="courier" font-size="16" fill="rgb(0,0,0)">x</text>
<line x1="1240.0" y1="140.0" x2="1235.0" y2="180.0" stroke="rgb(255,0,0)" stroke-width="1.5"/>
<polygon points=" 1228,168 1242,168 1242,192 1228,192" fill="rgb(255,255,170)"/>
<text x="1230.0" y="185.0" font-family="courier" font-size="16" fill="rgb(0,0,0)">y</text>
<line x1="1240.0" y1="140.0" x2="1265.0" y2="180.0" stroke="rgb(255,0,0)" stroke-width="1.5"/>
<line x1="1265.0" y1="180.0" x2="1265.0" y2="220.0" stroke="rgb(255,0,0)" stroke-width="1.5"/>
<polygon points=" 1258,208 1272,208 1272,232 1258,232" fill="rgb(255,255,170)"/>
<text x="1260.0" y="225.0" font-family="courier" font-size="16" fill="rgb(0,0,0)">z</text>
<polygon points=" 1248,168 1282,168 1282,192 1248,192" fill="rgb(255,255,170)"/>
<text x="1250.0" y="185.0" font-family="courier" font-size="16" fill="rgb(0,0,0)">not</text>
<polygon points=" 1228,128 1252,128 1252,152 1228,152" fill="rgb(255,255,170)"/>
<text x="1230.0" y="145.0" font-family="courier" font-size="16" fill="rgb(0,0,0)">/&#92;</text>
<polygon points=" 1206,88 1230,88 1230,112 1206,112" fill="rgb(255,255,170)"/>
<text x="1207.5" y="105.0" font-family="courier" font-size="16" fill="rgb(0,0,0)">&#92;/</text>
<polygon points=" 1066,48 1090,48 1090,72 1066,72" fill="rgb(255,255,170)"/>
<text x="1067.5" y="65.0" font-family="courier" font-size="16" fill="rgb(0,0,0)">/&#92;</text>
<line x1="886.25" y1="20.0" x2="1350.0" y2="60.0" stroke="rgb(255,0,0)" stroke-width="1.5"/>
<line x1="1350.0" y1="60.0" x2="1300.0" y2="100.0" stroke="rgb(255,0,0)" stroke-width="1.5"/>
<polygon points=" 1293,88 1307,88 1307,112 1293,112" fill="rgb(255,255,170)"/>
<text x="1295.0" y="105.0" font-family="courier" font-size="16" fill="rgb(0,0,0)">z</text>
<line x1="1350.0" y1="60.0" x2="1325.0" y2="100.0" stroke="rgb(255,0,0)" stroke-width="1.5"/>
<line x1="1325.0" y1="100.0" x2="1295.0" y2="140.0" stroke="rgb(255,0,0)" stroke-width="1.5"/>
<polygon points=" 1288,128 1302,128 1302,152 1288,152" fill="rgb(255,255,170)"/>
<text x="1290.0" y="145.0" font-family="courier" font-size="16" fill="rgb(0,0,0)">x</text>
<line x1="1325.0" y1="100.0" x2="1325.0" y2="140.0" stroke="rgb(255,0,0)" stroke-width="1.5"/>
<line x1="1325.0" y1="140.0" x2="1325.0" y2="180.0" stroke="rgb(255,0,0)" stroke-width="1.5"/>
<polygon points=" 1318,168 1332,168 1332,192 1318,192" fill="rgb(255,255,170)"/>
<text x="1320.0" y="185.0" font-family="courier" font-size="16" fill="rgb(0,0,0)">y</text>
<polygon points=" 1308,128 1342,128 1342,152 1308,152" fill="rgb(255,255,170)"/>
<text x="1310.0" y="145.0" font-family="courier" font-size="16" fill="rgb(0,0,0)">not</text>
<line x1="1325.0" y1="100.0" x2="1355.0" y2="140.0" stroke="rgb(255,0,0)" stroke-width="1.5"/>
<polygon points=" 1348,128 1362,128 1362,152 1348,152" fill="rgb(255,255,170)"/>
<text x="1350.0" y="145.0" font-family="courier" font-size="16" fill="rgb(0,0,0)">z</text>
<polygon points=" 1313,88 1337,88 1337,112 1313,112" fill="rgb(255,255,170)"/>
<text x="1315.0" y="105.0" font-family="courier" font-size="16" fill="rgb(0,0,0)">/&#92;</text>
<line x1="1350.0" y1="60.0" x2="1400.0" y2="100.0" stroke="rgb(255,0,0)" stroke-width="1.5"/>
<line x1="1400.0" y1="100.0" x2="1375.0" y2="140.0" stroke="rgb(255,0,0)" stroke-width="1.5"/>
<polygon points=" 1368,128 1382,128 1382,152 1368,152" fill="rgb(255,255,170)"/>
<text x="1370.0" y="145.0" font-family="courier" font-size="16" fill="rgb(0,0,0)">x</text>
<line x1="1400.0" y1="100.0" x2="1395.0" y2="140.0" stroke="rgb(255,0,0)" stroke-width="1.5"/>
<polygon points=" 1388,128 1402,128 1402,152 1388,152" fill="rgb(255,255,170)"/>
<text x="1390.0" y="145.0" font-family="courier" font-size="16" fill="rgb(0,0,0)">y</text>
<line x1="1400.0" y1="100.0" x2="1425.0" y2="140.0" stroke="rgb(255,0,0)" stroke-width="1.5"/>
<line x1="1425.0" y1="140.0" x2="1425.0" y2="180.0" stroke="rgb(255,0,0)" stroke-width="1.5"/>
<polygon points=" 1418,168 1432,168 1432,192 1418,192" fill="rgb(255,255,170)"/>
<text x="1420.0" y="185.0" font-family="courier" font-size="16" fill="rgb(0,0,0)">z</text>
<polygon points=" 1408,128 1442,128 1442,152 1408,152" fill="rgb(255,255,170)"/>
<text x="1410.0" y="145.0" font-family="courier" font-size="16" fill="rgb(0,0,0)">not</text>
<polygon points=" 1388,88 1412,88 1412,112 1388,112" fill="rgb(255,255,170)"/>
<text x="1390.0" y="105.0" font-family="courier" font-size="16" fill="rgb(0,0,0)">/&#92;</text>
<polygon points=" 1338,48 1362,48 1362,72 1338,72" fill="rgb(255,255,170)"/>
<text x="1340.0" y="65.0" font-family="courier" font-size="16" fill="rgb(0,0,0)">&#92;/</text>
<polygon points=" 874,8 898,8 898,32 874,32" fill="rgb(255,255,170)"/>
<text x="876.25" y="25.0" font-family="courier" font-size="16" fill="rgb(0,0,0)">/&#92;</text></svg>