<svg xmlns="http://www.w3.org/2000/svg"
xmlns:xlink="http://www.w3.org/1999/xlink"
version="1.1" baseProfile="full"
width="1580" height="240">
<line x1="946.25" y1="20.0" x2="422.5" y2="60.0" stroke="rgb(255,0,0)" stroke-width="1.5"/>
<line x1="422.5" y1="60.0" x2="132.5" y2="100.0" stroke="rgb(255,0,0)" stroke-width="1.5"/>
<line x1="132.5" y1="100.0" x2="50.0" y2="140.0" stroke="rgb(255,0,0)" stroke-width="1.5"/>
<line x1="50.0" y1="140.0" x2="25.0" y2="180.0" stroke="rgb(255,0,0)" stroke-width="1.5"/>
<line x1="25.0" y1="180.0" x2="25.0" y2="220.0" stroke="rgb(255,0,0)" stroke-width="1.5"/>
<polygon points=" 18,208 32,208 32,232 18,232" fill="rgb(255,255,170)"/>
<text x="20.0" y="225.0" font-family="courier" font-size="16" fill="rgb(0,0,0)">x</text>
<polygon points=" 8,168 42,168 42,192 8,192" fill="rgb(255,255,170)"/>
<text x="10.0" y="185.0" font-family="courier" font-size="16" fill="rgb(0,0,0)">not</text>
<line x1="50.0" y1="140.0" x2="55.0" y2="180.0" stroke="rgb(255,0,0)" stroke-width="1.5"/>
<polygon points=" 48,168 62,168 62,192 48,192" fill="rgb(255,255,170)"/>
<text x="50.0" y="185.0" font-family="courier" font-size="16" fill="rgb(0,0,0)">x</text>
<line x1="50.0" y1="140.0" x2="75.0" y2="180.0" stroke="rgb(255,0,0)" stroke-width="1.5"/>
<polygon points=" 68,168 82,168 82,192 68,192" fill="rgb(255,255,170)"/>
<text x="70.0" y="185.0" font-family="courier" font-size="16" fill="rgb(0,0,0)">x</text>
<polygon points=" 38,128 62,128 62,152 38,152" fill="rgb(255,255,170)"/>
<text x="40.0" y="145.0" font-family="courier" font-size="16" fill="rgb(0,0,0)">&#92;/</text>
<line x1="132.5" y1="100.0" x2="130.0" y2="140.0" stroke="rgb(255,0,0)" stroke-width="1.5"/>
<line x1="130.0" y1="140.0" x2="105.0" y2="180.0" stroke="rgb(255,0,0)" stroke-width="1.5"/>
<line x1="105.0" y1="180.0" x2="105.0" y2="220.0" stroke="rgb(255,0,0)" stroke-width="1.5"/>
<polygon points=" 98,208 112,208 112,232 98,232" fill="rgb(255,255,170)"/>
<text x="100.0" y="225.0" font-family="courier" font-size="16" fill="rgb(0,0,0)">x</text>
<polygon points=" 88,168 122,168 122,192 88,192" fill="rgb(255,255,170)"/>
<text x="90.0" y="185.0" font-family="courier" font-size="16" fill="rgb(0,0,0)">not</text>
<line x1="130.0" y1="140.0" x2="135.0" y2="180.0" stroke="rgb(255,0,0)" stroke-width="1.5"/>
<polygon points=" 128,168 142,168 142,192 128,192" fill="rgb(255,255,170)"/>
<text x="130.0" y="185.0" font-family="courier" font-size="16" fill="rgb(0,0,0)">x</text>
<line x1="130.0" y1="140.0" x2="155.0" y2="180.0" stroke="rgb(255,0,0)" stroke-width="1.5"/>
<polygon points=" 148,168 162,168 162,192 148,192" fill="rgb(255,255,170)"/>
<text x="150.0" y="185.0" font-family="courier" font-size="16" fill="rgb(0,0,0)">y</text>
<polygon points=" 118,128 142,128 142,152 118,152" fill="rgb(255,255,170)"/>
<text x="120.0" y="145.0" font-family="courier" font-size="16" fill="rgb(0,0,0)">&#92;/</text>
<line x1="132.5" y1="100.0" x2="215.0" y2="140.0" stroke="rgb(255,0,0)" stroke-width="1.5"/>
<line x1="215.0" y1="140.0" x2="185.0" y2="180.0" stroke="rgb(255,0,0)" stroke-width="1.5"/>
<line x1="185.0" y1="180.0" x2="185.0" y2="220.0" stroke="rgb(255,0,0)" stroke-width="1.5"/>
<polygon points=" 178,208 192,208 192,232 178,232" fill="rgb(255,255,170)"/>
<text x="180.0" y="225.0" font-family="courier" font-size="16" fill="rgb(0,0,0)">x</text>
<polygon points=" 168,168 202,168 202,192 168,192" fill="rgb(255,255,170)"/>
<text x="170.0" y="185.0" font-family="courier" font-size="16" fill="rgb(0,0,0)">not</text>
<line x1="215.0" y1="140.0" x2="215.0" y2="180.0" stroke="rgb(255,0,0)" stroke-width="1.5"/>
<polygon points=" 208,168 222,168 222,192 208,192" fill="rgb(255,255,170)"/>
<text x="210.0" y="185.0" font-family="courier" font-size="16" fill="rgb(0,0,0)">x</text>
<line x1="215.0" y1="140.0" x2="245.0" y2="180.0" stroke="rgb(255,0,0)" stroke-width="1.5"/>
<line x1="245.0" y1="180.0" x2="245.0" y2="220.0" stroke="rgb(255,0,0)" stroke-width="1.5"/>
<polygon points=" 238,208 252,208 252,232 238,232" fill="rgb(255,255,170)"/>
<text x="240.0" y="225.0" font-family="courier" font-size="16" fill="rgb(0,0,0)">z</text>
<polygon points=" 228,168 262,168 262,192 228,192" fill="rgb(255,255,170)"/>
<text x="230.0" y="185.0" font-family="courier" font-size="16" fill="rgb(0,0,0)">not</text>
<polygon points=" 203,128 227,128 227,152 203,152" fill="rgb(255,255,170)"/>
<text x="205.0" y="145.0" font-family="courier" font-size="16" fill="rgb(0,0,0)">&#92;/</text>
<polygon points=" 120,88 144,88 144,112 120,112" fill="rgb(255,255,170)"/>
<text x="122.5" y="105.0" font-family="courier" font-size="16" fill="rgb(0,0,0)">/&#92;</text>
<line x1="422.5" y1="60.0" x2="422.5" y2="100.0" stroke="rgb(255,0,0)" stroke-width="1.5"/>
<line x1="422.5" y1="100.0" x2="320.0" y2="140.0" stroke="rgb(255,0,0)" stroke-width="1.5"/>
<line x1="320.0" y1="140.0" x2="285.0" y2="180.0" stroke="rgb(255,0,0)" stroke-width="1.5"/>
<line x1="285.0" y1="180.0" x2="285.0" y2="220.0" stroke="rgb(255,0,0)" stroke-width="1.5"/>
<polygon points=" 278,208 292,208 292,232 278,232" fill="rgb(255,255,170)"/>
<text x="280.0" y="225.0" font-family="courier" font-size="16" fill="rgb(0,0,0)">x</text>
<polygon points=" 268,168 302,168 302,192 268,192" fill="rgb(255,255,170)"/>
<text x="270.0" y="185.0" font-family="courier" font-size="16" fill="rgb(0,0,0)">not</text>
<line x1="320.0" y1="140.0" x2="325.0" y2="180.0" stroke="rgb(255,0,0)" stroke-width="1.5"/>
<line x1="325.0" y1="180.0" x2="325.0" y2="220.0" stroke="rgb(255,0,0)" stroke-width="1.5"/>
<polygon points=" 318,208 332,208 332,232 318,232" fill="rgb(255,255,170)"/>
<text x="320.0" y="225.0" font-family="courier" font-size="16" fill="rgb(0,0,0)">y</text>
<polygon points=" 308,168 342,168 342,192 308,192" fill="rgb(255,255,170)"/>
<text x="310.0" y="185.0" font-family="courier" font-size="16" fill="rgb(0,0,0)">not</text>
<line x1="320.0" y1="140.0" x2="355.0" y2="180.0" stroke="rgb(255,0,0)" stroke-width="1.5"/>
<polygon points=" 348,168 362,168 362,192 348,192" fill="rgb(255,255,170)"/>
<text x="350.0" y="185.0" font-family="courier" font-size="16" fill="rgb(0,0,0)">x</text>
<polygon points=" 308,128 332,128 332,152 308,152" fill="rgb(255,255,170)"/>
<text x="310.0" y="145.0" font-family="courier" font-size="16" fill="rgb(0,0,0)">&#92;/</text>
<line x1="422.5" y1="100.0" x2="420.0" y2="140.0" stroke="rgb(255,0,0)" stroke-width="1.5"/>
<line x1="420.0" y1="140.0" x2="385.0" y2="180.0" stroke="rgb(255,0,0)" stroke-width="1.5"/>
<line x1="385.0" y1="180.0" x2="385.0" y2="220.0" stroke="rgb(255,0,0)" stroke-width="1.5"/>
<polygon points=" 378,208 392,208 392,232 378,232" fill="rgb(255,255,170)"/>
<text x="380.0" y="225.0" font-family="courier" font-size="16" fill="rgb(0,0,0)">x</text>
<polygon points=" 368,168 402,168 402,192 368,192" fill="rgb(255,255,170)"/>
<text x="370.0" y="185.0" font-family="courier" font-size="16" fill="rgb(0,0,0)">not</text>
<line x1="420.0" y1="140.0" x2="425.0" y2="180.0" stroke="rgb(255,0,0)" stroke-width="1.5"/>
<line x1="425.0" y1="180.0" x2="425.0" y2="220.0" stroke="rgb(255,0,0)" stroke-width="1.5"/>
<polygon points=" 418,208 432,208 432,232 418,232" fill="rgb(255,255,170)"/>
<text x="420.0" y="225.0" font-family="courier" font-size="16" fill="rgb(0,0,0)">y</text>
<polygon points=" 408,168 442,168 442,192 408,192" fill="rgb(255,255,170)"/>
<text x="410.0" y="185.0" font-family="courier" font-size="16" fill="rgb(0,0,0)">not</text>
<line x1="420.0" y1="140.0" x2="455.0" y2="180.0" stroke="rgb(255,0,0)" stroke-width="1.5"/>
<polygon points=" 448,168 462,168 462,192 448,192" fill="rgb(255,255,170)"/>
<text x="450.0" y="185.0" font-family="courier" font-size="16" fill="rgb(0,0,0)">y</text>
<polygon points=" 408,128 432,128 432,152 408,152" fill="rgb(255,255,170)"/>
<text x="410.0" y="145.0" font-family="courier" font-size="16" fill="rgb(0,0,0)">&#92;/</text>
<line x1="422.5" y1="100.0" x2="525.0" y2="140.0" stroke="rgb(255,0,0)" stroke-width="1.5"/>
<line x1="525.0" y1="140.0" x2="485.0" y2="180.0" stroke="rgb(255,0,0)" stroke-width="1.5"/>
<line x1="485.0" y1="180.0" x2="485.0" y2="220.0" stroke="rgb(255,0,0)" stroke-width="1.5"/>
<polygon points=" 478,208 492,208 492,232 478,232" fill="rgb(255,255,170)"/>
<text x="480.0" y="225.0" font-family="courier" font-size="16" fill="rgb(0,0,0)">x</text>
<polygon points=" 468,168 502,168 502,192 468,192" fill="rgb(255,255,170)"/>
<text x="470.0" y="185.0" font-family="courier" font-size="16" fill="rgb(0,0,0)">not</text>
<line x1="525.0" y1="140.0" x2="525.0" y2="180.0" stroke="rgb(255,0,0)" stroke-width="1.5"/>
<line x1="525.0" y1="180.0" x2="525.0" y2="220.0" stroke="rgb(255,0,0)" stroke-width="1.5"/>
<polygon points=" 518,208 532,208 532,232 518,232" fill="rgb(255,255,170)"/>
<text x="520.0" y="225.0" font-family="courier" font-size="16" fill="rgb(0,0,0)">y</text>
<polygon points=" 508,168 542,168 542,192 508,192" fill="rgb(255,255,170)"/>
<text x="510.0" y="185.0" font-family="courier" font-size="16" fill="rgb(0,0,0)">not</text>
<line x1="525.0" y1="140.0" x2="565.0" y2="180.0" stroke="rgb(255,0,0)" stroke-width="1.5"/>
<line x1="565.0" y1="180.0" x2="565.0" y2="220.0" stroke="rgb(255,0,0)" stroke-width="1.5"/>
<polygon points=" 558,208 572,208 572,232 558,232" fill="rgb(255,255,170)"/>
<text x="560.0" y="225.0" font-family="courier" font-size="16" fill="rgb(0,0,0)">z</text>
<polygon points=" 548,168 582,168 582,192 548,192" fill="rgb(255,255,170)"/>
<text x="550.0" y="185.0" font-family="courier" font-size="16" fill="rgb(0,0,0)">not</text>
<polygon points=" 513,128 537,128 537,152 513,152" fill="rgb(255,255,170)"/>
<text x="515.0" y="145.0" font-family="courier" font-size="16" fill="rgb(0,0,0)">&#92;/</text>
<polygon points=" 410,88 434,88 434,112 410,112" fill="rgb(255,255,170)"/>
<text x="412.5" y="105.0" font-family="courier" font-size="16" fill="rgb(0,0,0)">/&#92;</text>
<line x1="422.5" y1="60.0" x2="712.5" y2="100.0" stroke="rgb(255,0,0)" stroke-width="1.5"/>
<line x1="712.5" y1="100.0" x2="630.0" y2="140.0" stroke="rgb(255,0,0)" stroke-width="1.5"/>
<line x1="630.0" y1="140.0" x2="605.0" y2="180.0" stroke="rgb(255,0,0)" stroke-width="1.5"/>
<line x1="605.0" y1="180.0" x2="605.0" y2="220.0" stroke="rgb(255,0,0)" stroke-width="1.5"/>
<polygon points=" 598,208 612,208 612,232 598,232" fill="rgb(255,255,170)"/>
<text x="600.0" y="225.0" font-family="courier" font-size="16" fill="rgb(0,0,0)">x</text>
<polygon points=" 588,168 622,168 622,192 588,192" fill="rgb(255,255,170)"/>
<text x="590.0" y="185.0" font-family="courier" font-size="16" fill="rgb(0,0,0)">not</text>
<line x1="630.0" y1="140.0" x2="635.0" y2="180.0" stroke="rgb(255,0,0)" stroke-width="1.5"/>
<polygon points=" 628,168 642,168 642,192 628,192" fill="rgb(255,255,170)"/>
<text x="630.0" y="185.0" font-family="courier" font-size="16" fill="rgb(0,0,0)">z</text>
<line x1="630.0" y1="140.0" x2="655.0" y2="180.0" stroke="rgb(255,0,0)" stroke-width="1.5"/>
<polygon points=" 648,168 662,168 662,192 648,192" fill="rgb(255,255,170)"/>
<text x="650.0" y="185.0" font-family="courier" font-size="16" fill="rgb(0,0,0)">x</text>
<polygon points=" 618,128 642,128 642,152 618,152" fill="rgb(255,255,170)"/>
<text x="620.0" y="145.0" font-family="courier" font-size="16" fill="rgb(0,0,0)">&#92;/</text>
<line x1="712.5" y1="100.0" x2="710.0" y2="140.0" stroke="rgb(255,0,0)" stroke-width="1.5"/>
<line x1="710.0" y1="140.0" x2="685.0" y2="180.0" stroke="rgb(255,0,0)" stroke-width="1.5"/>
<line x1="685.0" y1="180.0" x2="685.0" y2="220.0" stroke="rgb(255,0,0)" stroke-width="1.5"/>
<polygon points=" 678,208 692,208 692,232 678,232" fill="rgb(255,255,170)"/>
<text x="680.0" y="225.0" font-family="courier" font-size="16" fill="rgb(0,0,0)">x</text>
<polygon points=" 668,168 702,168 702,192 668,192" fill="rgb(255,255,170)"/>
<text x="670.0" y="185.0" font-family="courier" font-size="16" fill="rgb(0,0,0)">not</text>
<line x1="710.0" y1="140.0" x2="715.0" y2="180.0" stroke="rgb(255,0,0)" stroke-width="1.5"/>
<polygon points=" 708,168 722,168 722,192 708,192" fill="rgb(255,255,170)"/>
<text x="710.0" y="185.0" font-family="courier" font-size="16" fill="rgb(0,0,0)">z</text>
<line x1="710.0" y1="140.0" x2="735.0" y2="180.0" stroke="rgb(255,0,0)" stroke-width="1.5"/>
<polygon points=" 728,168 742,168 742,192 728,192" fill="rgb(255,255,170)"/>
<text x="730.0" y="185.0" font-family="courier" font-size="16" fill="rgb(0,0,0)">y</text>
<polygon points=" 698,128 722,128 722,152 698,152" fill="rgb(255,255,170)"/>
<text x="700.0" y="145.0" font-family="courier" font-size="16" fill="rgb(0,0,0)">&#92;/</text>
<line x1="712.5" y1="100.0" x2="795.0" y2="140.0" stroke="rgb(255,0,0)" stroke-width="1.5"/>
<line x1="795.0" y1="140.0" x2="765.0" y2="180.0" stroke="rgb(255,0,0)" stroke-width="1.5"/>
<line x1="765.0" y1="180.0" x2="765.0" y2="220.0" stroke="rgb(255,0,0)" stroke-width="1.5"/>
<polygon points=" 758,208 772,208 772,232 758,232" fill="rgb(255,255,170)"/>
<text x="760.0" y="225.0" font-family="courier" font-size="16" fill="rgb(0,0,0)">x</text>
<polygon points=" 748,168 782,168 782,192 748,192" fill="rgb(255,255,170)"/>
<text x="750.0" y="185.0" font-family="courier" font-size="16" fill="rgb(0,0,0)">not</text>
<line x1="795.0" y1="140.0" x2="795.0" y2="180.0" stroke="rgb(255,0,0)" stroke-width="1.5"/>
<polygon points=" 788,168 802,168 802,192 788,192" fill="rgb(255,255,170)"/>
<text x="790.0" y="185.0" font-family="courier" font-size="16" fill="rgb(0,0,0)">z</text>
<line x1="795.0" y1="140.0" x2="825.0" y2="180.0" stroke="rgb(255,0,0)" stroke-width="1.5"/>
<line x1="825.0" y1="180.0" x2="825.0" y2="220.0" stroke="rgb(255,0,0)" stroke-width="1.5"/>
<polygon points=" 818,208 832,208 832,232 818,232" fill="rgb(255,255,170)"/>
<text x="820.0" y="225.0" font-family="courier" font-size="16" fill="rgb(0,0,0)">z</text>
<polygon points=" 808,168 842,168 842,192 808,192" fill="rgb(255,255,170)"/>
<text x="810.0" y="185.0" font-family="courier" font-size="16" fill="rgb(0,0,0)">not</text>
<polygon points=" 783,128 807,128 807,152 783,152" fill="rgb(255,255,170)"/>
<text x="785.0" y="145.0" font-family="courier" font-size="16" fill="rgb(0,0,0)">&#92;/</text>
<polygon points=" 700,88 724,88 724,112 700,112" fill="rgb(255,255,170)"/>
<text x="702.5" y="105.0" font-family="courier" font-size="16" fill="rgb(0,0,0)">/&#92;</text>
<polygon points=" 410,48 434,48 434,72 410,72" fill="rgb(255,255,170)"/>
<text x="412.5" y="65.0" font-family="courier" font-size="16" fill="rgb(0,0,0)">/&#92;</text>
<line x1="946.25" y1="20.0" x2="1137.5" y2="60.0" stroke="rgb(255,0,0)" stroke-width="1.5"/>
<line x1="1137.5" y1="60.0" x2="937.5" y2="100.0" stroke="rgb(255,0,0)" stroke-width="1.5"/>
<line x1="937.5" y1="100.0" x2="875.0" y2="140.0" stroke="rgb(255,0,0)" stroke-width="1.5"/>
<line x1="875.0" y1="140.0" x2="855.0" y2="180.0" stroke="rgb(255,0,0)" stroke-width="1.5"/>
<polygon points=" 848,168 862,168 862,192 848,192" fill="rgb(255,255,170)"/>
<text x="850.0" y="185.0" font-family="courier" font-size="16" fill="rgb(0,0,0)">y</text>
<line x1="875.0" y1="140.0" x2="875.0" y2="180.0" stroke="rgb(255,0,0)" stroke-width="1.5"/>
<polygon points=" 868,168 882,168 882,192 868,192" fill="rgb(255,255,170)"/>
<text x="870.0" y="185.0" font-family="courier" font-size="16" fill="rgb(0,0,0)">x</text>
<line x1="875.0" y1="140.0" x2="895.0" y2="180.0" stroke="rgb(255,0,0)" stroke-width="1.5"/>
<polygon points=" 888,168 902,168 902,192 888,192" fill="rgb(255,255,170)"/>
<text x="890.0" y="185.0" font-family="courier" font-size="16" fill="rgb(0,0,0)">x</text>
<polygon points=" 863,128 887,128 887,152 863,152" fill="rgb(255,255,170)"/>
<text x="865.0" y="145.0" font-family="courier" font-size="16" fill="rgb(0,0,0)">&#92;/</text>
<line x1="937.5" y1="100.0" x2="935.0" y2="140.0" stroke="rgb(255,0,0)" stroke-width="1.5"/>
<line x1="935.0" y1="140.0" x2="915.0" y2="180.0" stroke="rgb(255,0,0)" stroke-width="1.5"/>
<polygon points=" 908,168 922,168 922,192 908,192" fill="rgb(255,255,170)"/>
<text x="910.0" y="185.0" font-family="courier" font-size="16" fill="rgb(0,0,0)">y</text>
<line x1="935.0" y1="140.0" x2="935.0" y2="180.0" stroke="rgb(255,0,0)" stroke-width="1.5"/>
<polygon points=" 928,168 942,168 942,192 928,192" fill="rgb(255,255,170)"/>
<text x="930.0" y="185.0" font-family="courier" font-size="16" fill="rgb(0,0,0)">x</text>
<line x1="935.0" y1="140.0" x2="955.0" y2="180.0" stroke="rgb(255,0,0)" stroke-width="1.5"/>
<polygon points=" 948,168 962,168 962,192 948,192" fill="rgb(255,255,170)"/>
<text x="950.0" y="185.0" font-family="courier" font-size="16" fill="rgb(0,0,0)">y</text>
<polygon points=" 923,128 947,128 947,152 923,152" fill="rgb(255,255,170)"/>
<text x="925.0" y="145.0" font-family="courier" font-size="16" fill="rgb(0,0,0)">&#92;/</text>
<line x1="937.5" y1="100.0" x2="1000.0" y2="140.0" stroke="rgb(255,0,0)" stroke-width="1.5"/>
<line x1="1000.0" y1="140.0" x2="975.0" y2="180.0" stroke="rgb(255,0,0)" stroke-width="1.5"/>
<polygon points=" 968,168 982,168 982,192 968,192" fill="rgb(255,255,170)"/>
<text x="970.0" y="185.0" font-family="courier" font-size="16" fill="rgb(0,0,0)">y</text>
<line x1="1000.0" y1="140.0" x2="995.0" y2="180.0" stroke="rgb(255,0,0)" stroke-width="1.5"/>
<polygon points=" 988,168 1002,168 1002,192 988,192" fill="rgb(255,255,170)"/>
<text x="990.0" y="185.0" font-family="courier" font-size="16" fill="rgb(0,0,0)">x</text>
<line x1="1000.0" y1="140.0" x2="1025.0" y2="180.0" stroke="rgb(255,0,0)" stroke-width="1.5"/>
<line x1="1025.0" y1="180.0" x2="1025.0" y2="220.0" stroke="rgb(255,0,0)" stroke-width="1.5"/>
<polygon points=" 1018,208 1032,208 1032,232 1018,232" fill="rgb(255,255,170)"/>
<text x="1020.0" y="225.0" font-family="courier" font-size="16" fill="rgb(0,0,0)">z</text>
<polygon points=" 1008,168 1042,168 1042,192 1008,192" fill="rgb(255,255,170)"/>
<text x="1010.0" y="185.0" font-family="courier" font-size="16" fill="rgb(0,0,0)">not</text>
<polygon points=" 988,128 1012,128 1012,152 988,152" fill="rgb(255,255,170)"/>
<text x="990.0" y="145.0" font-family="courier" font-size="16" fill="rgb(0,0,0)">&#92;/</text>
<polygon points=" 926,88 950,88 950,112 926,112" fill="rgb(255,255,170)"/>
<text x="927.5" y="105.0" font-family="courier" font-size="16" fill="rgb(0,0,0)">/&#92;</text>
<line x1="1137.5" y1="60.0" x2="1167.5" y2="100.0" stroke="rgb(255,0,0)" stroke-width="1.5"/>
<line x1="1167.5" y1="100.0" x2="1085.0" y2="140.0" stroke="rgb(255,0,0)" stroke-width="1.5"/>
<line x1="1085.0" y1="140.0" x2="1055.0" y2="180.0" stroke="rgb(255,0,0)" stroke-width="1.5"/>
<polygon points=" 1048,168 1062,168 1062,192 1048,192" fill="rgb(170,255,170)"/>
<text x="1050.0" y="185.0" font-family="courier" font-size="16" fill="rgb(0,0,0)">y</text>
<line x1="1085.0" y1="140.0" x2="1085.0" y2="180.0" stroke="rgb(255,0,0)" stroke-width="1.5"/>
<line x1="1085.0" y1="180.0" x2="1085.0" y2="220.0" stroke="rgb(255,0,0)" stroke-width="1.5"/>
<polygon points=" 1078,208 1092,208 1092,232 1078,232" fill="rgb(170,255,170)"/>
<text x="1080.0" y="225.0" font-family="courier" font-size="16" fill="rgb(0,0,0)">y</text>
<polygon points=" 1068,168 1102,168 1102,192 1068,192" fill="rgb(170,255,170)"/>
<text x="1070.0" y="185.0" font-family="courier" font-size="16" fill="rgb(0,0,0)">not</text>
<line x1="1085.0" y1="140.0" x2="1115.0" y2="180.0" stroke="rgb(255,0,0)" stroke-width="1.5"/>
<polygon points=" 1108,168 1122,168 1122,192 1108,192" fill="rgb(170,255,170)"/>
<text x="1110.0" y="185.0" font-family="courier" font-size="16" fill="rgb(0,0,0)">x</text>
<polygon points=" 1073,128 1097,128 1097,152 1073,152" fill="rgb(170,255,170)"/>
<text x="1075.0" y="145.0" font-family="courier" font-size="16" fill="rgb(0,0,0)">&#92;/</text>
<line x1="1167.5" y1="100.0" x2="1165.0" y2="140.0" stroke="rgb(255,0,0)" stroke-width="1.5"/>
<line x1="1165.0" y1="140.0" x2="1135.0" y2="180.0" stroke="rgb(255,0,0)" stroke-width="1.5"/>
<polygon points=" 1128,168 1142,168 1142,192 1128,192" fill="rgb(170,255,170)"/>
<text x="1130.0" y="185.0" font-family="courier" font-size="16" fill="rgb(0,0,0)">y</text>
<line x1="1165.0" y1="140.0" x2="1165.0" y2="180.0" stroke="rgb(255,0,0)" stroke-width="1.5"/>
<line x1="1165.0" y1="180.0" x2="1165.0" y2="220.0" stroke="rgb(255,0,0)" stroke-width="1.5"/>
<polygon points=" 1158,208 1172,208 1172,232 1158,232" fill="rgb(170,255,170)"/>
<text x="1160.0" y="225.0" font-family="courier" font-size="16" fill="rgb(0,0,0)">y</text>
<polygon points=" 1148,168 1182,168 1182,192 1148,192" fill="rgb(170,255,170)"/>
<text x="1150.0" y="185.0" font-family="courier" font-size="16" fill="rgb(0,0,0)">not</text>
<line x1="1165.0" y1="140.0" x2="1195.0" y2="180.0" stroke="rgb(255,0,0)" stroke-width="1.5"/>
<polygon points=" 1188,168 1202,168 1202,192 1188,192" fill="rgb(170,255,170)"/>
<text x="1190.0" y="185.0" font-family="courier" font-size="16" fill="rgb(0,0,0)">y</text>
<polygon points=" 1153,128 1177,128 1177,152 1153,152" fill="rgb(170,255,170)"/>
<text x="1155.0" y="145.0" font-family="courier" font-size="16" fill="rgb(0,0,0)">&#92;/</text>
<line x1="1167.5" y1="100.0" x2="1250.0" y2="140.0" stroke="rgb(255,0,0)" stroke-width="1.5"/>
<line x1="1250.0" y1="140.0" x2="1215.0" y2="180.0" stroke="rgb(255,0,0)" stroke-width="1.5"/>
<polygon points=" 1208,168 1222,168 1222,192 1208,192" fill="rgb(170,255,170)"/>
<text x="1210.0" y="185.0" font-family="courier" font-size="16" fill="rgb(0,0,0)">y</text>
<line x1="1250.0" y1="140.0" x2="1245.0" y2="180.0" stroke="rgb(255,0,0)" stroke-width="1.5"/>
<line x1="1245.0" y1="180.0" x2="1245.0" y2="220.0" stroke="rgb(255,0,0)" stroke-width="1.5"/>
<polygon points=" 1238,208 1252,208 1252,232 1238,232" fill="rgb(170,255,170)"/>
<text x="1240.0" y="225.0" font-family="courier" font-size="16" fill="rgb(0,0,0)">y</text>
<polygon points=" 1228,168 1262,168 1262,192 1228,192" fill="rgb(170,255,170)"/>
<text x="1230.0" y="185.0" font-family="courier" font-size="16" fill="rgb(0,0,0)">not</text>
<line x1="1250.0" y1="140.0" x2="1285.0" y2="180.0" stroke="rgb(255,0,0)" stroke-width="1.5"/>
<line x1="1285.0" y1="180.0" x2="1285.0" y2="220.0" stroke="rgb(255,0,0)" stroke-width="1.5"/>
<polygon points=" 1278,208 1292,208 1292,232 1278,232" fill="rgb(170,255,170)"/>
<text x="1280.0" y="225.0" font-family="courier" font-size="16" fill="rgb(0,0,0)">z</text>
<polygon points=" 1268,168 1302,168 1302,192 1268,192" fill="rgb(170,255,170)"/>
<text x="1270.0" y="185.0" font-family="courier" font-size="16" fill="rgb(0,0,0)">not</text>
<polygon points=" 1238,128 1262,128 1262,152 1238,152" fill="rgb(170,255,170)"/>
<text x="1240.0" y="145.0" font-family="courier" font-size="16" fill="rgb(0,0,0)">&#92;/</text>
<polygon points=" 1156,88 1180,88 1180,112 1156,112" fill="rgb(170,255,170)"/>
<text x="1157.5" y="105.0" font-family="courier" font-size="16" fill="rgb(0,0,0)">/&#92;</text>
<line x1="1137.5" y1="60.0" x2="1337.5" y2="100.0" stroke="rgb(255,0,0)" stroke-width="1.5"/>
<line x1="1337.5" y1="100.0" x2="1315.0" y2="140.0" stroke="rgb(255,0,0)" stroke-width="1.5"/>
<polygon points=" 1308,128 1322,128 1322,152 1308,152" fill="rgb(255,255,170)"/>
<text x="1310.0" y="145.0" font-family="courier" font-size="16" fill="rgb(0,0,0)">y</text>
<line x1="1337.5" y1="100.0" x2="1335.0" y2="140.0" stroke="rgb(255,0,0)" stroke-width="1.5"/>
<polygon points=" 1328,128 1342,128 1342,152 1328,152" fill="rgb(255,255,170)"/>
<text x="1330.0" y="145.0" font-family="courier" font-size="16" fill="rgb(0,0,0)">z</text>
<line x1="1337.5" y1="100.0" x2="1360.0" y2="140.0" stroke="rgb(255,0,0)" stroke-width="1.5"/>
<line x1="1360.0" y1="140.0" x2="1335.0" y2="180.0" stroke="rgb(255,0,0)" stroke-width="1.5"/>
<polygon points=" 1328,168 1342,168 1342,192 1328,192" fill="rgb(255,255,170)"/>
<text x="1330.0" y="185.0" font-family="courier" font-size="16" fill="rgb(0,0,0)">x</text>
<line x1="1360.0" y1="140.0" x2="1355.0" y2="180.0" stroke="rgb(255,0,0)" stroke-width="1.5"/>
<polygon points=" 1348,168 1362,168 1362,192 1348,192" fill="rgb(255,255,170)"/>
<text x="1350.0" y="185.0" font-family="courier" font-size="16" fill="rgb(0,0,0)">y</text>
<line x1="1360.0" y1="140.0" x2="1385.0" y2="180.0" stroke="rgb(255,0,0)" stroke-width="1.5"/>
<line x1="1385.0" y1="180.0" x2="1385.0" y2="220.0" stroke="rgb(255,0,0)" stroke-width="1.5"/>
<polygon points=" 1378,208 1392,208 1392,232 1378,232" fill="rgb(255,255,170)"/>
<text x="1380.0" y="225.0" font-family="courier" font-size="16" fill="rgb(0,0,0)">z</text>
<polygon points=" 1368,168 1402,168 1402,192 1368,192" fill="rgb(255,255,170)"/>
<text x="1370.0" y="185.0" font-family="courier" font-size="16" fill="rgb(0,0,0)">not</text>
<polygon points=" 1348,128 1372,128 1372,152 1348,152" fill="rgb(255,255,170)"/>
<text x="1350.0" y="145.0" font-family="courier" font-size="16" fill="rgb(0,0,0)">/&#92;</text>
<polygon points=" 1326,88 1350,88 1350,112 1326,112" fill="rgb(255,255,170)"/>
<text x="1327.5" y="105.0" font-family="courier" font-size="16" fill="rgb(0,0,0)">&#92;/</text>
<polygon points=" 1126,48 1150,48 1150,72 1126,72" fill="rgb(255,255,170)"/>
<text x="1127.5" y="65.0" font-family="courier" font-size="16" fill="rgb(0,0,0)">/&#92;</text>
<line x1="946.25" y1="20.0" x2="1470.0" y2="60.0" stroke="rgb(255,0,0)" stroke-width="1.5"/>
<line x1="1470.0" y1="60.0" x2="1420.0" y2="100.0" stroke="rgb(255,0,0)" stroke-width="1.5"/>
<polygon points=" 1413,88 1427,88 1427,112 1413,112" fill="rgb(255,255,170)"/>
<text x="1415.0" y="105.0" font-family="courier" font-size="16" fill="rgb(0,0,0)">z</text>
<line x1="1470.0" y1="60.0" x2="1445.0" y2="100.0" stroke="rgb(255,0,0)" stroke-width="1.5"/>
<line x1="1445.0" y1="100.0" x2="1415.0" y2="140.0" stroke="rgb(255,0,0)" stroke-width="1.5"/>
<polygon points=" 1408,128 1422,128 1422,152 1408,152" fill="rgb(255,255,170)"/>
<text x="1410.0" y="145.0" font-family="courier" font-size="16" fill="rgb(0,0,0)">x</text>
<line x1="1445.0" y1="100.0" x2="1445.0" y2="140.0" stroke="rgb(255,0,0)" stroke-width="1.5"/>
<line x1="1445.0" y1="140.0" x2="1445.0" y2="180.0" stroke="rgb(255,0,0)" stroke-width="1.5"/>
<polygon points=" 1438,168 1452,168 1452,192 1438,192" fill="rgb(255,255,170)"/>
<text x="1440.0" y="185.0" font-family="courier" font-size="16" fill="rgb(0,0,0)">y</text>
<polygon points=" 1428,128 1462,128 1462,152 1428,152" fill="rgb(255,255,170)"/>
<text x="1430.0" y="145.0" font-family="courier" font-size="16" fill="rgb(0,0,0)">not</text>
<line x1="1445.0" y1="100.0" x2="1475.0" y2="140.0" stroke="rgb(255,0,0)" stroke-width="1.5"/>
<polygon points=" 1468,128 1482,128 1482,152 1468,152" fill="rgb(255,255,170)"/>
<text x="1470.0" y="145.0" font-family="courier" font-size="16" fill="rgb(0,0,0)">z</text>
<polygon points=" 1433,88 1457,88 1457,112 1433,112" fill="rgb(255,255,170)"/>
<text x="1435.0" y="105.0" font-family="courier" font-size="16" fill="rgb(0,0,0)">/&#92;</text>
<line x1="1470.0" y1="60.0" x2="1520.0" y2="100.0" stroke="rgb(255,0,0)" stroke-width="1.5"/>
<line x1="1520.0" y1="100.0" x2="1495.0" y2="140.0" stroke="rgb(255,0,0)" stroke-width="1.5"/>
<polygon points=" 1488,128 1502,128 1502,152 1488,152" fill="rgb(255,255,170)"/>
<text x="1490.0" y="145.0" font-family="courier" font-size="16" fill="rgb(0,0,0)">x</text>
<line x1="1520.0" y1="100.0" x2="1515.0" y2="140.0" stroke="rgb(255,0,0)" stroke-width="1.5"/>
<polygon points=" 1508,128 1522,128 1522,152 1508,152" fill="rgb(255,255,170)"/>
<text x="1510.0" y="145.0" font-family="courier" font-size="16" fill="rgb(0,0,0)">y</text>
<line x1="1520.0" y1="100.0" x2="1545.0" y2="140.0" stroke="rgb(255,0,0)" stroke-width="1.5"/>
<line x1="1545.0" y1="140.0" x2="1545.0" y2="180.0" stroke="rgb(255,0,0)" stroke-width="1.5"/>
<polygon points=" 1538,168 1552,168 1552,192 1538,192" fill="rgb(255,255,170)"/>
<text x="1540.0" y="185.0" font-family="courier" font-size="16" fill="rgb(0,0,0)">z</text>
<polygon points=" 1528,128 1562,128 1562,152 1528,152" fill="rgb(255,255,170)"/>
<text x="1530.0" y="145.0" font-family="courier" font-size="16" fill="rgb(0,0,0)">not</text>
<polygon points=" 1508,88 1532,88 1532,112 1508,112" fill="rgb(255,255,170)"/>
<text x="1510.0" y="105.0" font-family="courier" font-size="16" fill="rgb(0,0,0)">/&#92;</text>
<polygon points=" 1458,48 1482,48 1482,72 1458,72" fill="rgb(255,255,170)"/>
<text x="1460.0" y="65.0" font-family="courier" font-size="16" fill="rgb(0,0,0)">&#92;/</text>
<polygon points=" 934,8 958,8 958,32 934,32" fill="rgb(255,255,170)"/>
<text x="936.25" y="25.0" font-family="courier" font-size="16" fill="rgb(0,0,0)">/&#92;</text></svg>