<svg xmlns="http://www.w3.org/2000/svg"
xmlns:xlink="http://www.w3.org/1999/xlink"
version="1.1" baseProfile="full"
width="2180" height="240">
<line x1="1125.0" y1="20.0" x2="422.5" y2="60.0" stroke="rgb(255,0,0)" stroke-width="1.5"/>
<line x1="422.5" y1="60.0" x2="132.5" y2="100.0" stroke="rgb(255,0,0)" stroke-width="1.5"/>
<line x1="132.5" y1="100.0" x2="50.0" y2="140.0" stroke="rgb(255,0,0)" stroke-width="1.5"/>
<line x1="50.0" y1="140.0" x2="25.0" y2="180.0" stroke="rgb(255,0,0)" stroke-width="1.5"/>
<line x1="25.0" y1="180.0" x2="25.0" y2="220.0" stroke="rgb(255,0,0)" stroke-width="1.5"/>
<polygon points=" 18,208 32,208 32,232 18,232" fill="rgb(170,255,170)"/>
<text x="20.0" y="225.0" font-family="courier" font-size="16" fill="rgb(0,0,0)">x</text>
<polygon points=" 8,168 42,168 42,192 8,192" fill="rgb(170,255,170)"/>
<text x="10.0" y="185.0" font-family="courier" font-size="16" fill="rgb(0,0,0)">not</text>
<line x1="50.0" y1="140.0" x2="55.0" y2="180.0" stroke="rgb(255,0,0)" stroke-width="1.5"/>
<polygon points=" 48,168 62,168 62,192 48,192" fill="rgb(170,255,170)"/>
<text x="50.0" y="185.0" font-family="courier" font-size="16" fill="rgb(0,0,0)">x</text>
<line x1="50.0" y1="140.0" x2="75.0" y2="180.0" stroke="rgb(255,0,0)" stroke-width="1.5"/>
<polygon points=" 68,168 82,168 82,192 68,192" fill="rgb(170,255,170)"/>
<text x="70.0" y="185.0" font-family="courier" font-size="16" fill="rgb(0,0,0)">x</text>
<polygon points=" 38,128 62,128 62,152 38,152" fill="rgb(170,255,170)"/>
<text x="40.0" y="145.0" font-family="courier" font-size="16" fill="rgb(0,0,0)">&#92;/</text>
<line x1="132.5" y1="100.0" x2="130.0" y2="140.0" stroke="rgb(255,0,0)" stroke-width="1.5"/>
<line x1="130.0" y1="140.0" x2="105.0" y2="180.0" stroke="rgb(255,0,0)" stroke-width="1.5"/>
<line x1="105.0" y1="180.0" x2="105.0" y2="220.0" stroke="rgb(255,0,0)" stroke-width="1.5"/>
<polygon points=" 98,208 112,208 112,232 98,232" fill="rgb(170,255,170)"/>
<text x="100.0" y="225.0" font-family="courier" font-size="16" fill="rgb(0,0,0)">x</text>
<polygon points=" 88,168 122,168 122,192 88,192" fill="rgb(170,255,170)"/>
<text x="90.0" y="185.0" font-family="courier" font-size="16" fill="rgb(0,0,0)">not</text>
<line x1="130.0" y1="140.0" x2="135.0" y2="180.0" stroke="rgb(255,0,0)" stroke-width="1.5"/>
<polygon points=" 128,168 142,168 142,192 128,192" fill="rgb(170,255,170)"/>
<text x="130.0" y="185.0" font-family="courier" font-size="16" fill="rgb(0,0,0)">x</text>
<line x1="130.0" y1="140.0" x2="155.0" y2="180.0" stroke="rgb(255,0,0)" stroke-width="1.5"/>
<polygon points=" 148,168 162,168 162,192 148,192" fill="rgb(170,255,170)"/>
<text x="150.0" y="185.0" font-family="courier" font-size="16" fill="rgb(0,0,0)">y</text>
<polygon points=" 118,128 142,128 142,152 118,152" fill="rgb(170,255,170)"/>
<text x="120.0" y="145.0" font-family="courier" font-size="16" fill="rgb(0,0,0)">&#92;/</text>
<line x1="132.5" y1="100.0" x2="215.0" y2="140.0" stroke="rgb(255,0,0)" stroke-width="1.5"/>
<line x1="215.0" y1="140.0" x2="185.0" y2="180.0" stroke="rgb(255,0,0)" stroke-width="1.5"/>
<line x1="185.0" y1="180.0" x2="185.0" y2="220.0" stroke="rgb(255,0,0)" stroke-width="1.5"/>
<polygon points=" 178,208 192,208 192,232 178,232" fill="rgb(170,255,170)"/>
<text x="180.0" y="225.0" font-family="courier" font-size="16" fill="rgb(0,0,0)">x</text>
<polygon points=" 168,168 202,168 202,192 168,192" fill="rgb(170,255,170)"/>
<text x="170.0" y="185.0" font-family="courier" font-size="16" fill="rgb(0,0,0)">not</text>
<line x1="215.0" y1="140.0" x2="215.0" y2="180.0" stroke="rgb(255,0,0)" stroke-width="1.5"/>
<polygon points=" 208,168 222,168 222,192 208,192" fill="rgb(170,255,170)"/>
<text x="210.0" y="185.0" font-family="courier" font-size="16" fill="rgb(0,0,0)">x</text>
<line x1="215.0" y1="140.0" x2="245.0" y2="180.0" stroke="rgb(255,0,0)" stroke-width="1.5"/>
<line x1="245.0" y1="180.0" x2="245.0" y2="220.0" stroke="rgb(255,0,0)" stroke-width="1.5"/>
<polygon points=" 238,208 252,208 252,232 238,232" fill="rgb(170,255,170)"/>
<text x="240.0" y="225.0" font-family="courier" font-size="16" fill="rgb(0,0,0)">z</text>
<polygon points=" 228,168 262,168 262,192 228,192" fill="rgb(170,255,170)"/>
<text x="230.0" y="185.0" font-family="courier" font-size="16" fill="rgb(0,0,0)">not</text>
<polygon points=" 203,128 227,128 227,152 203,152" fill="rgb(170,255,170)"/>
<text x="205.0" y="145.0" font-family="courier" font-size="16" fill="rgb(0,0,0)">&#92;/</text>
<polygon points=" 120,88 144,88 144,112 120,112" fill="rgb(170,255,170)"/>
<text x="122.5" y="105.0" font-family="courier" font-size="16" fill="rgb(0,0,0)">/&#92;</text>
<line x1="422.5" y1="60.0" x2="422.5" y2="100.0" stroke="rgb(255,0,0)" stroke-width="1.5"/>
<line x1="422.5" y1="100.0" x2="320.0" y2="140.0" stroke="rgb(255,0,0)" stroke-width="1.5"/>
<line x1="320.0" y1="140.0" x2="285.0" y2="180.0" stroke="rgb(255,0,0)" stroke-width="1.5"/>
<line x1="285.0" y1="180.0" x2="285.0" y2="220.0" stroke="rgb(255,0,0)" stroke-width="1.5"/>
<polygon points=" 278,208 292,208 292,232 278,232" fill="rgb(170,255,170)"/>
<text x="280.0" y="225.0" font-family="courier" font-size="16" fill="rgb(0,0,0)">x</text>
<polygon points=" 268,168 302,168 302,192 268,192" fill="rgb(170,255,170)"/>
<text x="270.0" y="185.0" font-family="courier" font-size="16" fill="rgb(0,0,0)">not</text>
<line x1="320.0" y1="140.0" x2="325.0" y2="180.0" stroke="rgb(255,0,0)" stroke-width="1.5"/>
<line x1="325.0" y1="180.0" x2="325.0" y2="220.0" stroke="rgb(255,0,0)" stroke-width="1.5"/>
<polygon points=" 318,208 332,208 332,232 318,232" fill="rgb(170,255,170)"/>
<text x="320.0" y="225.0" font-family="courier" font-size="16" fill="rgb(0,0,0)">y</text>
<polygon points=" 308,168 342,168 342,192 308,192" fill="rgb(170,255,170)"/>
<text x="310.0" y="185.0" font-family="courier" font-size="16" fill="rgb(0,0,0)">not</text>
<line x1="320.0" y1="140.0" x2="355.0" y2="180.0" stroke="rgb(255,0,0)" stroke-width="1.5"/>
<polygon points=" 348,168 362,168 362,192 348,192" fill="rgb(170,255,170)"/>
<text x="350.0" y="185.0" font-family="courier" font-size="16" fill="rgb(0,0,0)">x</text>
<polygon points=" 308,128 332,128 332,152 308,152" fill="rgb(170,255,170)"/>
<text x="310.0" y="145.0" font-family="courier" font-size="16" fill="rgb(0,0,0)">&#92;/</text>
<line x1="422.5" y1="100.0" x2="420.0" y2="140.0" stroke="rgb(255,0,0)" stroke-width="1.5"/>
<line x1="420.0" y1="140.0" x2="385.0" y2="180.0" stroke="rgb(255,0,0)" stroke-width="1.5"/>
<line x1="385.0" y1="180.0" x2="385.0" y2="220.0" stroke="rgb(255,0,0)" stroke-width="1.5"/>
<polygon points=" 378,208 392,208 392,232 378,232" fill="rgb(170,255,170)"/>
<text x="380.0" y="225.0" font-family="courier" font-size="16" fill="rgb(0,0,0)">x</text>
<polygon points=" 368,168 402,168 402,192 368,192" fill="rgb(170,255,170)"/>
<text x="370.0" y="185.0" font-family="courier" font-size="16" fill="rgb(0,0,0)">not</text>
<line x1="420.0" y1="140.0" x2="425.0" y2="180.0" stroke="rgb(255,0,0)" stroke-width="1.5"/>
<line x1="425.0" y1="180.0" x2="425.0" y2="220.0" stroke="rgb(255,0,0)" stroke-width="1.5"/>
<polygon points=" 418,208 432,208 432,232 418,232" fill="rgb(170,255,170)"/>
<text x="420.0" y="225.0" font-family="courier" font-size="16" fill="rgb(0,0,0)">y</text>
<polygon points=" 408,168 442,168 442,192 408,192" fill="rgb(170,255,170)"/>
<text x="410.0" y="185.0" font-family="courier" font-size="16" fill="rgb(0,0,0)">not</text>
<line x1="420.0" y1="140.0" x2="455.0" y2="180.0" stroke="rgb(255,0,0)" stroke-width="1.5"/>
<polygon points=" 448,168 462,168 462,192 448,192" fill="rgb(170,255,170)"/>
<text x="450.0" y="185.0" font-family="courier" font-size="16" fill="rgb(0,0,0)">y</text>
<polygon points=" 408,128 432,128 432,152 408,152" fill="rgb(170,255,170)"/>
<text x="410.0" y="145.0" font-family="courier" font-size="16" fill="rgb(0,0,0)">&#92;/</text>
<line x1="422.5" y1="100.0" x2="525.0" y2="140.0" stroke="rgb(255,0,0)" stroke-width="1.5"/>
<line x1="525.0" y1="140.0" x2="485.0" y2="180.0" stroke="rgb(255,0,0)" stroke-width="1.5"/>
<line x1="485.0" y1="180.0" x2="485.0" y2="220.0" stroke="rgb(255,0,0)" stroke-width="1.5"/>
<polygon points=" 478,208 492,208 492,232 478,232" fill="rgb(170,255,170)"/>
<text x="480.0" y="225.0" font-family="courier" font-size="16" fill="rgb(0,0,0)">x</text>
<polygon points=" 468,168 502,168 502,192 468,192" fill="rgb(170,255,170)"/>
<text x="470.0" y="185.0" font-family="courier" font-size="16" fill="rgb(0,0,0)">not</text>
<line x1="525.0" y1="140.0" x2="525.0" y2="180.0" stroke="rgb(255,0,0)" stroke-width="1.5"/>
<line x1="525.0" y1="180.0" x2="525.0" y2="220.0" stroke="rgb(255,0,0)" stroke-width="1.5"/>
<polygon points=" 518,208 532,208 532,232 518,232" fill="rgb(170,255,170)"/>
<text x="520.0" y="225.0" font-family="courier" font-size="16" fill="rgb(0,0,0)">y</text>
<polygon points=" 508,168 542,168 542,192 508,192" fill="rgb(170,255,170)"/>
<text x="510.0" y="185.0" font-family="courier" font-size="16" fill="rgb(0,0,0)">not</text>
<line x1="525.0" y1="140.0" x2="565.0" y2="180.0" stroke="rgb(255,0,0)" stroke-width="1.5"/>
<line x1="565.0" y1="180.0" x2="565.0" y2="220.0" stroke="rgb(255,0,0)" stroke-width="1.5"/>
<polygon points=" 558,208 572,208 572,232 558,232" fill="rgb(170,255,170)"/>
<text x="560.0" y="225.0" font-family="courier" font-size="16" fill="rgb(0,0,0)">z</text>
<polygon points=" 548,168 582,168 582,192 548,192" fill="rgb(170,255,170)"/>
<text x="550.0" y="185.0" font-family="courier" font-size="16" fill="rgb(0,0,0)">not</text>
<polygon points=" 513,128 537,128 537,152 513,152" fill="rgb(170,255,170)"/>
<text x="515.0" y="145.0" font-family="courier" font-size="16" fill="rgb(0,0,0)">&#92;/</text>
<polygon points=" 410,88 434,88 434,112 410,112" fill="rgb(170,255,170)"/>
<text x="412.5" y="105.0" font-family="courier" font-size="16" fill="rgb(0,0,0)">/&#92;</text>
<line x1="422.5" y1="60.0" x2="712.5" y2="100.0" stroke="rgb(255,0,0)" stroke-width="1.5"/>
<line x1="712.5" y1="100.0" x2="630.0" y2="140.0" stroke="rgb(255,0,0)" stroke-width="1.5"/>
<line x1="630.0" y1="140.0" x2="605.0" y2="180.0" stroke="rgb(255,0,0)" stroke-width="1.5"/>
<line x1="605.0" y1="180.0" x2="605.0" y2="220.0" stroke="rgb(255,0,0)" stroke-width="1.5"/>
<polygon points=" 598,208 612,208 612,232 598,232" fill="rgb(170,255,170)"/>
<text x="600.0" y="225.0" font-family="courier" font-size="16" fill="rgb(0,0,0)">x</text>
<polygon points=" 588,168 622,168 622,192 588,192" fill="rgb(170,255,170)"/>
<text x="590.0" y="185.0" font-family="courier" font-size="16" fill="rgb(0,0,0)">not</text>
<line x1="630.0" y1="140.0" x2="635.0" y2="180.0" stroke="rgb(255,0,0)" stroke-width="1.5"/>
<polygon points=" 628,168 642,168 642,192 628,192" fill="rgb(170,255,170)"/>
<text x="630.0" y="185.0" font-family="courier" font-size="16" fill="rgb(0,0,0)">z</text>
<line x1="630.0" y1="140.0" x2="655.0" y2="180.0" stroke="rgb(255,0,0)" stroke-width="1.5"/>
<polygon points=" 648,168 662,168 662,192 648,192" fill="rgb(170,255,170)"/>
<text x="650.0" y="185.0" font-family="courier" font-size="16" fill="rgb(0,0,0)">x</text>
<polygon points=" 618,128 642,128 642,152 618,152" fill="rgb(170,255,170)"/>
<text x="620.0" y="145.0" font-family="courier" font-size="16" fill="rgb(0,0,0)">&#92;/</text>
<line x1="712.5" y1="100.0" x2="710.0" y2="140.0" stroke="rgb(255,0,0)" stroke-width="1.5"/>
<line x1="710.0" y1="140.0" x2="685.0" y2="180.0" stroke="rgb(255,0,0)" stroke-width="1.5"/>
<line x1="685.0" y1="180.0" x2="685.0" y2="220.0" stroke="rgb(255,0,0)" stroke-width="1.5"/>
<polygon points=" 678,208 692,208 692,232 678,232" fill="rgb(170,255,170)"/>
<text x="680.0" y="225.0" font-family="courier" font-size="16" fill="rgb(0,0,0)">x</text>
<polygon points=" 668,168 702,168 702,192 668,192" fill="rgb(170,255,170)"/>
<text x="670.0" y="185.0" font-family="courier" font-size="16" fill="rgb(0,0,0)">not</text>
<line x1="710.0" y1="140.0" x2="715.0" y2="180.0" stroke="rgb(255,0,0)" stroke-width="1.5"/>
<polygon points=" 708,168 722,168 722,192 708,192" fill="rgb(170,255,170)"/>
<text x="710.0" y="185.0" font-family="courier" font-size="16" fill="rgb(0,0,0)">z</text>
<line x1="710.0" y1="140.0" x2="735.0" y2="180.0" stroke="rgb(255,0,0)" stroke-width="1.5"/>
<polygon points=" 728,168 742,168 742,192 728,192" fill="rgb(170,255,170)"/>
<text x="730.0" y="185.0" font-family="courier" font-size="16" fill="rgb(0,0,0)">y</text>
<polygon points=" 698,128 722,128 722,152 698,152" fill="rgb(170,255,170)"/>
<text x="700.0" y="145.0" font-family="courier" font-size="16" fill="rgb(0,0,0)">&#92;/</text>
<line x1="712.5" y1="100.0" x2="795.0" y2="140.0" stroke="rgb(255,0,0)" stroke-width="1.5"/>
<line x1="795.0" y1="140.0" x2="765.0" y2="180.0" stroke="rgb(255,0,0)" stroke-width="1.5"/>
<line x1="765.0" y1="180.0" x2="765.0" y2="220.0" stroke="rgb(255,0,0)" stroke-width="1.5"/>
<polygon points=" 758,208 772,208 772,232 758,232" fill="rgb(170,255,170)"/>
<text x="760.0" y="225.0" font-family="courier" font-size="16" fill="rgb(0,0,0)">x</text>
<polygon points=" 748,168 782,168 782,192 748,192" fill="rgb(170,255,170)"/>
<text x="750.0" y="185.0" font-family="courier" font-size="16" fill="rgb(0,0,0)">not</text>
<line x1="795.0" y1="140.0" x2="795.0" y2="180.0" stroke="rgb(255,0,0)" stroke-width="1.5"/>
<polygon points=" 788,168 802,168 802,192 788,192" fill="rgb(170,255,170)"/>
<text x="790.0" y="185.0" font-family="courier" font-size="16" fill="rgb(0,0,0)">z</text>
<line x1="795.0" y1="140.0" x2="825.0" y2="180.0" stroke="rgb(255,0,0)" stroke-width="1.5"/>
<line x1="825.0" y1="180.0" x2="825.0" y2="220.0" stroke="rgb(255,0,0)" stroke-width="1.5"/>
<polygon points=" 818,208 832,208 832,232 818,232" fill="rgb(170,255,170)"/>
<text x="820.0" y="225.0" font-family="courier" font-size="16" fill="rgb(0,0,0)">z</text>
<polygon points=" 808,168 842,168 842,192 808,192" fill="rgb(170,255,170)"/>
<text x="810.0" y="185.0" font-family="courier" font-size="16" fill="rgb(0,0,0)">not</text>
<polygon points=" 783,128 807,128 807,152 783,152" fill="rgb(170,255,170)"/>
<text x="785.0" y="145.0" font-family="courier" font-size="16" fill="rgb(0,0,0)">&#92;/</text>
<polygon points=" 700,88 724,88 724,112 700,112" fill="rgb(170,255,170)"/>
<text x="702.5" y="105.0" font-family="courier" font-size="16" fill="rgb(0,0,0)">/&#92;</text>
<polygon points=" 410,48 434,48 434,72 410,72" fill="rgb(170,255,170)"/>
<text x="412.5" y="65.0" font-family="courier" font-size="16" fill="rgb(0,0,0)">/&#92;</text>
<line x1="1125.0" y1="20.0" x2="1167.5" y2="60.0" stroke="rgb(255,0,0)" stroke-width="1.5"/>
<line x1="1167.5" y1="60.0" x2="937.5" y2="100.0" stroke="rgb(255,0,0)" stroke-width="1.5"/>
<line x1="937.5" y1="100.0" x2="875.0" y2="140.0" stroke="rgb(255,0,0)" stroke-width="1.5"/>
<line x1="875.0" y1="140.0" x2="855.0" y2="180.0" stroke="rgb(255,0,0)" stroke-width="1.5"/>
<polygon points=" 848,168 862,168 862,192 848,192" fill="rgb(170,255,170)"/>
<text x="850.0" y="185.0" font-family="courier" font-size="16" fill="rgb(0,0,0)">y</text>
<line x1="875.0" y1="140.0" x2="875.0" y2="180.0" stroke="rgb(255,0,0)" stroke-width="1.5"/>
<polygon points=" 868,168 882,168 882,192 868,192" fill="rgb(170,255,170)"/>
<text x="870.0" y="185.0" font-family="courier" font-size="16" fill="rgb(0,0,0)">x</text>
<line x1="875.0" y1="140.0" x2="895.0" y2="180.0" stroke="rgb(255,0,0)" stroke-width="1.5"/>
<polygon points=" 888,168 902,168 902,192 888,192" fill="rgb(170,255,170)"/>
<text x="890.0" y="185.0" font-family="courier" font-size="16" fill="rgb(0,0,0)">x</text>
<polygon points=" 863,128 887,128 887,152 863,152" fill="rgb(170,255,170)"/>
<text x="865.0" y="145.0" font-family="courier" font-size="16" fill="rgb(0,0,0)">&#92;/</text>
<line x1="937.5" y1="100.0" x2="935.0" y2="140.0" stroke="rgb(255,0,0)" stroke-width="1.5"/>
<line x1="935.0" y1="140.0" x2="915.0" y2="180.0" stroke="rgb(255,0,0)" stroke-width="1.5"/>
<polygon points=" 908,168 922,168 922,192 908,192" fill="rgb(170,255,170)"/>
<text x="910.0" y="185.0" font-family="courier" font-size="16" fill="rgb(0,0,0)">y</text>
<line x1="935.0" y1="140.0" x2="935.0" y2="180.0" stroke="rgb(255,0,0)" stroke-width="1.5"/>
<polygon points=" 928,168 942,168 942,192 928,192" fill="rgb(170,255,170)"/>
<text x="930.0" y="185.0" font-family="courier" font-size="16" fill="rgb(0,0,0)">x</text>
<line x1="935.0" y1="140.0" x2="955.0" y2="180.0" stroke="rgb(255,0,0)" stroke-width="1.5"/>
<polygon points=" 948,168 962,168 962,192 948,192" fill="rgb(170,255,170)"/>
<text x="950.0" y="185.0" font-family="courier" font-size="16" fill="rgb(0,0,0)">y</text>
<polygon points=" 923,128 947,128 947,152 923,152" fill="rgb(170,255,170)"/>
<text x="925.0" y="145.0" font-family="courier" font-size="16" fill="rgb(0,0,0)">&#92;/</text>
<line x1="937.5" y1="100.0" x2="1000.0" y2="140.0" stroke="rgb(255,0,0)" stroke-width="1.5"/>
<line x1="1000.0" y1="140.0" x2="975.0" y2="180.0" stroke="rgb(255,0,0)" stroke-width="1.5"/>
<polygon points=" 968,168 982,168 982,192 968,192" fill="rgb(170,255,170)"/>
<text x="970.0" y="185.0" font-family="courier" font-size="16" fill="rgb(0,0,0)">y</text>
<line x1="1000.0" y1="140.0" x2="995.0" y2="180.0" stroke="rgb(255,0,0)" stroke-width="1.5"/>
<polygon points=" 988,168 1002,168 1002,192 988,192" fill="rgb(170,255,170)"/>
<text x="990.0" y="185.0" font-family="courier" font-size="16" fill="rgb(0,0,0)">x</text>
<line x1="1000.0" y1="140.0" x2="1025.0" y2="180.0" stroke="rgb(255,0,0)" stroke-width="1.5"/>
<line x1="1025.0" y1="180.0" x2="1025.0" y2="220.0" stroke="rgb(255,0,0)" stroke-width="1.5"/>
<polygon points=" 1018,208 1032,208 1032,232 1018,232" fill="rgb(170,255,170)"/>
<text x="1020.0" y="225.0" font-family="courier" font-size="16" fill="rgb(0,0,0)">z</text>
<polygon points=" 1008,168 1042,168 1042,192 1008,192" fill="rgb(170,255,170)"/>
<text x="1010.0" y="185.0" font-family="courier" font-size="16" fill="rgb(0,0,0)">not</text>
<polygon points=" 988,128 1012,128 1012,152 988,152" fill="rgb(170,255,170)"/>
<text x="990.0" y="145.0" font-family="courier" font-size="16" fill="rgb(0,0,0)">&#92;/</text>
<polygon points=" 926,88 950,88 950,112 926,112" fill="rgb(170,255,170)"/>
<text x="927.5" y="105.0" font-family="courier" font-size="16" fill="rgb(0,0,0)">/&#92;</text>
<line x1="1167.5" y1="60.0" x2="1167.5" y2="100.0" stroke="rgb(255,0,0)" stroke-width="1.5"/>
<line x1="1167.5" y1="100.0" x2="1085.0" y2="140.0" stroke="rgb(255,0,0)" stroke-width="1.5"/>
<line x1="1085.0" y1="140.0" x2="1055.0" y2="180.0" stroke="rgb(255,0,0)" stroke-width="1.5"/>
<polygon points=" 1048,168 1062,168 1062,192 1048,192" fill="rgb(170,255,170)"/>
<text x="1050.0" y="185.0" font-family="courier" font-size="16" fill="rgb(0,0,0)">y</text>
<line x1="1085.0" y1="140.0" x2="1085.0" y2="180.0" stroke="rgb(255,0,0)" stroke-width="1.5"/>
<line x1="1085.0" y1="180.0" x2="1085.0" y2="220.0" stroke="rgb(255,0,0)" stroke-width="1.5"/>
<polygon points=" 1078,208 1092,208 1092,232 1078,232" fill="rgb(170,255,170)"/>
<text x="1080.0" y="225.0" font-family="courier" font-size="16" fill="rgb(0,0,0)">y</text>
<polygon points=" 1068,168 1102,168 1102,192 1068,192" fill="rgb(170,255,170)"/>
<text x="1070.0" y="185.0" font-family="courier" font-size="16" fill="rgb(0,0,0)">not</text>
<line x1="1085.0" y1="140.0" x2="1115.0" y2="180.0" stroke="rgb(255,0,0)" stroke-width="1.5"/>
<polygon points=" 1108,168 1122,168 1122,192 1108,192" fill="rgb(170,255,170)"/>
<text x="1110.0" y="185.0" font-family="courier" font-size="16" fill="rgb(0,0,0)">x</text>
<polygon points=" 1073,128 1097,128 1097,152 1073,152" fill="rgb(170,255,170)"/>
<text x="1075.0" y="145.0" font-family="courier" font-size="16" fill="rgb(0,0,0)">&#92;/</text>
<line x1="1167.5" y1="100.0" x2="1165.0" y2="140.0" stroke="rgb(255,0,0)" stroke-width="1.5"/>
<line x1="1165.0" y1="140.0" x2="1135.0" y2="180.0" stroke="rgb(255,0,0)" stroke-width="1.5"/>
<polygon points=" 1128,168 1142,168 1142,192 1128,192" fill="rgb(170,255,170)"/>
<text x="1130.0" y="185.0" font-family="courier" font-size="16" fill="rgb(0,0,0)">y</text>
<line x1="1165.0" y1="140.0" x2="1165.0" y2="180.0" stroke="rgb(255,0,0)" stroke-width="1.5"/>
<line x1="1165.0" y1="180.0" x2="1165.0" y2="220.0" stroke="rgb(255,0,0)" stroke-width="1.5"/>
<polygon points=" 1158,208 1172,208 1172,232 1158,232" fill="rgb(170,255,170)"/>
<text x="1160.0" y="225.0" font-family="courier" font-size="16" fill="rgb(0,0,0)">y</text>
<polygon points=" 1148,168 1182,168 1182,192 1148,192" fill="rgb(170,255,170)"/>
<text x="1150.0" y="185.0" font-family="courier" font-size="16" fill="rgb(0,0,0)">not</text>
<line x1="1165.0" y1="140.0" x2="1195.0" y2="180.0" stroke="rgb(255,0,0)" stroke-width="1.5"/>
<polygon points=" 1188,168 1202,168 1202,192 1188,192" fill="rgb(170,255,170)"/>
<text x="1190.0" y="185.0" font-family="courier" font-size="16" fill="rgb(0,0,0)">y</text>
<polygon points=" 1153,128 1177,128 1177,152 1153,152" fill="rgb(170,255,170)"/>
<text x="1155.0" y="145.0" font-family="courier" font-size="16" fill="rgb(0,0,0)">&#92;/</text>
<line x1="1167.5" y1="100.0" x2="1250.0" y2="140.0" stroke="rgb(255,0,0)" stroke-width="1.5"/>
<line x1="1250.0" y1="140.0" x2="1215.0" y2="180.0" stroke="rgb(255,0,0)" stroke-width="1.5"/>
<polygon points=" 1208,168 1222,168 1222,192 1208,192" fill="rgb(170,255,170)"/>
<text x="1210.0" y="185.0" font-family="courier" font-size="16" fill="rgb(0,0,0)">y</text>
<line x1="1250.0" y1="140.0" x2="1245.0" y2="180.0" stroke="rgb(255,0,0)" stroke-width="1.5"/>
<line x1="1245.0" y1="180.0" x2="1245.0" y2="220.0" stroke="rgb(255,0,0)" stroke-width="1.5"/>
<polygon points=" 1238,208 1252,208 1252,232 1238,232" fill="rgb(170,255,170)"/>
<text x="1240.0" y="225.0" font-family="courier" font-size="16" fill="rgb(0,0,0)">y</text>
<polygon points=" 1228,168 1262,168 1262,192 1228,192" fill="rgb(170,255,170)"/>
<text x="1230.0" y="185.0" font-family="courier" font-size="16" fill="rgb(0,0,0)">not</text>
<line x1="1250.0" y1="140.0" x2="1285.0" y2="180.0" stroke="rgb(255,0,0)" stroke-width="1.5"/>
<line x1="1285.0" y1="180.0" x2="1285.0" y2="220.0" stroke="rgb(255,0,0)" stroke-width="1.5"/>
<polygon points=" 1278,208 1292,208 1292,232 1278,232" fill="rgb(170,255,170)"/>
<text x="1280.0" y="225.0" font-family="courier" font-size="16" fill="rgb(0,0,0)">z</text>
<polygon points=" 1268,168 1302,168 1302,192 1268,192" fill="rgb(170,255,170)"/>
<text x="1270.0" y="185.0" font-family="courier" font-size="16" fill="rgb(0,0,0)">not</text>
<polygon points=" 1238,128 1262,128 1262,152 1238,152" fill="rgb(170,255,170)"/>
<text x="1240.0" y="145.0" font-family="courier" font-size="16" fill="rgb(0,0,0)">&#92;/</text>
<polygon points=" 1156,88 1180,88 1180,112 1156,112" fill="rgb(170,255,170)"/>
<text x="1157.5" y="105.0" font-family="courier" font-size="16" fill="rgb(0,0,0)">/&#92;</text>
<line x1="1167.5" y1="60.0" x2="1397.5" y2="100.0" stroke="rgb(255,0,0)" stroke-width="1.5"/>
<line x1="1397.5" y1="100.0" x2="1335.0" y2="140.0" stroke="rgb(255,0,0)" stroke-width="1.5"/>
<line x1="1335.0" y1="140.0" x2="1315.0" y2="180.0" stroke="rgb(255,0,0)" stroke-width="1.5"/>
<polygon points=" 1308,168 1322,168 1322,192 1308,192" fill="rgb(170,255,170)"/>
<text x="1310.0" y="185.0" font-family="courier" font-size="16" fill="rgb(0,0,0)">y</text>
<line x1="1335.0" y1="140.0" x2="1335.0" y2="180.0" stroke="rgb(255,0,0)" stroke-width="1.5"/>
<polygon points=" 1328,168 1342,168 1342,192 1328,192" fill="rgb(170,255,170)"/>
<text x="1330.0" y="185.0" font-family="courier" font-size="16" fill="rgb(0,0,0)">z</text>
<line x1="1335.0" y1="140.0" x2="1355.0" y2="180.0" stroke="rgb(255,0,0)" stroke-width="1.5"/>
<polygon points=" 1348,168 1362,168 1362,192 1348,192" fill="rgb(170,255,170)"/>
<text x="1350.0" y="185.0" font-family="courier" font-size="16" fill="rgb(0,0,0)">x</text>
<polygon points=" 1323,128 1347,128 1347,152 1323,152" fill="rgb(170,255,170)"/>
<text x="1325.0" y="145.0" font-family="courier" font-size="16" fill="rgb(0,0,0)">&#92;/</text>
<line x1="1397.5" y1="100.0" x2="1395.0" y2="140.0" stroke="rgb(255,0,0)" stroke-width="1.5"/>
<line x1="1395.0" y1="140.0" x2="1375.0" y2="180.0" stroke="rgb(255,0,0)" stroke-width="1.5"/>
<polygon points=" 1368,168 1382,168 1382,192 1368,192" fill="rgb(170,255,170)"/>
<text x="1370.0" y="185.0" font-family="courier" font-size="16" fill="rgb(0,0,0)">y</text>
<line x1="1395.0" y1="140.0" x2="1395.0" y2="180.0" stroke="rgb(255,0,0)" stroke-width="1.5"/>
<polygon points=" 1388,168 1402,168 1402,192 1388,192" fill="rgb(170,255,170)"/>
<text x="1390.0" y="185.0" font-family="courier" font-size="16" fill="rgb(0,0,0)">z</text>
<line x1="1395.0" y1="140.0" x2="1415.0" y2="180.0" stroke="rgb(255,0,0)" stroke-width="1.5"/>
<polygon points=" 1408,168 1422,168 1422,192 1408,192" fill="rgb(170,255,170)"/>
<text x="1410.0" y="185.0" font-family="courier" font-size="16" fill="rgb(0,0,0)">y</text>
<polygon points=" 1383,128 1407,128 1407,152 1383,152" fill="rgb(170,255,170)"/>
<text x="1385.0" y="145.0" font-family="courier" font-size="16" fill="rgb(0,0,0)">&#92;/</text>
<line x1="1397.5" y1="100.0" x2="1460.0" y2="140.0" stroke="rgb(255,0,0)" stroke-width="1.5"/>
<line x1="1460.0" y1="140.0" x2="1435.0" y2="180.0" stroke="rgb(255,0,0)" stroke-width="1.5"/>
<polygon points=" 1428,168 1442,168 1442,192 1428,192" fill="rgb(170,255,170)"/>
<text x="1430.0" y="185.0" font-family="courier" font-size="16" fill="rgb(0,0,0)">y</text>
<line x1="1460.0" y1="140.0" x2="1455.0" y2="180.0" stroke="rgb(255,0,0)" stroke-width="1.5"/>
<polygon points=" 1448,168 1462,168 1462,192 1448,192" fill="rgb(170,255,170)"/>
<text x="1450.0" y="185.0" font-family="courier" font-size="16" fill="rgb(0,0,0)">z</text>
<line x1="1460.0" y1="140.0" x2="1485.0" y2="180.0" stroke="rgb(255,0,0)" stroke-width="1.5"/>
<line x1="1485.0" y1="180.0" x2="1485.0" y2="220.0" stroke="rgb(255,0,0)" stroke-width="1.5"/>
<polygon points=" 1478,208 1492,208 1492,232 1478,232" fill="rgb(170,255,170)"/>
<text x="1480.0" y="225.0" font-family="courier" font-size="16" fill="rgb(0,0,0)">z</text>
<polygon points=" 1468,168 1502,168 1502,192 1468,192" fill="rgb(170,255,170)"/>
<text x="1470.0" y="185.0" font-family="courier" font-size="16" fill="rgb(0,0,0)">not</text>
<polygon points=" 1448,128 1472,128 1472,152 1448,152" fill="rgb(170,255,170)"/>
<text x="1450.0" y="145.0" font-family="courier" font-size="16" fill="rgb(0,0,0)">&#92;/</text>
<polygon points=" 1386,88 1410,88 1410,112 1386,112" fill="rgb(170,255,170)"/>
<text x="1387.5" y="105.0" font-family="courier" font-size="16" fill="rgb(0,0,0)">/&#92;</text>
<polygon points=" 1156,48 1180,48 1180,72 1156,72" fill="rgb(170,255,170)"/>
<text x="1157.5" y="65.0" font-family="courier" font-size="16" fill="rgb(0,0,0)">/&#92;</text>
<line x1="1125.0" y1="20.0" x2="1827.5" y2="60.0" stroke="rgb(255,0,0)" stroke-width="1.5"/>
<line x1="1827.5" y1="60.0" x2="1597.5" y2="100.0" stroke="rgb(255,0,0)" stroke-width="1.5"/>
<line x1="1597.5" y1="100.0" x2="1535.0" y2="140.0" stroke="rgb(255,0,0)" stroke-width="1.5"/>
<line x1="1535.0" y1="140.0" x2="1515.0" y2="180.0" stroke="rgb(255,0,0)" stroke-width="1.5"/>
<polygon points=" 1508,168 1522,168 1522,192 1508,192" fill="rgb(170,255,170)"/>
<text x="1510.0" y="185.0" font-family="courier" font-size="16" fill="rgb(0,0,0)">z</text>
<line x1="1535.0" y1="140.0" x2="1535.0" y2="180.0" stroke="rgb(255,0,0)" stroke-width="1.5"/>
<polygon points=" 1528,168 1542,168 1542,192 1528,192" fill="rgb(170,255,170)"/>
<text x="1530.0" y="185.0" font-family="courier" font-size="16" fill="rgb(0,0,0)">x</text>
<line x1="1535.0" y1="140.0" x2="1555.0" y2="180.0" stroke="rgb(255,0,0)" stroke-width="1.5"/>
<polygon points=" 1548,168 1562,168 1562,192 1548,192" fill="rgb(170,255,170)"/>
<text x="1550.0" y="185.0" font-family="courier" font-size="16" fill="rgb(0,0,0)">x</text>
<polygon points=" 1523,128 1547,128 1547,152 1523,152" fill="rgb(170,255,170)"/>
<text x="1525.0" y="145.0" font-family="courier" font-size="16" fill="rgb(0,0,0)">&#92;/</text>
<line x1="1597.5" y1="100.0" x2="1595.0" y2="140.0" stroke="rgb(255,0,0)" stroke-width="1.5"/>
<line x1="1595.0" y1="140.0" x2="1575.0" y2="180.0" stroke="rgb(255,0,0)" stroke-width="1.5"/>
<polygon points=" 1568,168 1582,168 1582,192 1568,192" fill="rgb(170,255,170)"/>
<text x="1570.0" y="185.0" font-family="courier" font-size="16" fill="rgb(0,0,0)">z</text>
<line x1="1595.0" y1="140.0" x2="1595.0" y2="180.0" stroke="rgb(255,0,0)" stroke-width="1.5"/>
<polygon points=" 1588,168 1602,168 1602,192 1588,192" fill="rgb(170,255,170)"/>
<text x="1590.0" y="185.0" font-family="courier" font-size="16" fill="rgb(0,0,0)">x</text>
<line x1="1595.0" y1="140.0" x2="1615.0" y2="180.0" stroke="rgb(255,0,0)" stroke-width="1.5"/>
<polygon points=" 1608,168 1622,168 1622,192 1608,192" fill="rgb(170,255,170)"/>
<text x="1610.0" y="185.0" font-family="courier" font-size="16" fill="rgb(0,0,0)">y</text>
<polygon points=" 1583,128 1607,128 1607,152 1583,152" fill="rgb(170,255,170)"/>
<text x="1585.0" y="145.0" font-family="courier" font-size="16" fill="rgb(0,0,0)">&#92;/</text>
<line x1="1597.5" y1="100.0" x2="1660.0" y2="140.0" stroke="rgb(255,0,0)" stroke-width="1.5"/>
<line x1="1660.0" y1="140.0" x2="1635.0" y2="180.0" stroke="rgb(255,0,0)" stroke-width="1.5"/>
<polygon points=" 1628,168 1642,168 1642,192 1628,192" fill="rgb(170,255,170)"/>
<text x="1630.0" y="185.0" font-family="courier" font-size="16" fill="rgb(0,0,0)">z</text>
<line x1="1660.0" y1="140.0" x2="1655.0" y2="180.0" stroke="rgb(255,0,0)" stroke-width="1.5"/>
<polygon points=" 1648,168 1662,168 1662,192 1648,192" fill="rgb(170,255,170)"/>
<text x="1650.0" y="185.0" font-family="courier" font-size="16" fill="rgb(0,0,0)">x</text>
<line x1="1660.0" y1="140.0" x2="1685.0" y2="180.0" stroke="rgb(255,0,0)" stroke-width="1.5"/>
<line x1="1685.0" y1="180.0" x2="1685.0" y2="220.0" stroke="rgb(255,0,0)" stroke-width="1.5"/>
<polygon points=" 1678,208 1692,208 1692,232 1678,232" fill="rgb(170,255,170)"/>
<text x="1680.0" y="225.0" font-family="courier" font-size="16" fill="rgb(0,0,0)">z</text>
<polygon points=" 1668,168 1702,168 1702,192 1668,192" fill="rgb(170,255,170)"/>
<text x="1670.0" y="185.0" font-family="courier" font-size="16" fill="rgb(0,0,0)">not</text>
<polygon points=" 1648,128 1672,128 1672,152 1648,152" fill="rgb(170,255,170)"/>
<text x="1650.0" y="145.0" font-family="courier" font-size="16" fill="rgb(0,0,0)">&#92;/</text>
<polygon points=" 1586,88 1610,88 1610,112 1586,112" fill="rgb(170,255,170)"/>
<text x="1587.5" y="105.0" font-family="courier" font-size="16" fill="rgb(0,0,0)">/&#92;</text>
<line x1="1827.5" y1="60.0" x2="1827.5" y2="100.0" stroke="rgb(255,0,0)" stroke-width="1.5"/>
<line x1="1827.5" y1="100.0" x2="1745.0" y2="140.0" stroke="rgb(255,0,0)" stroke-width="1.5"/>
<line x1="1745.0" y1="140.0" x2="1715.0" y2="180.0" stroke="rgb(255,0,0)" stroke-width="1.5"/>
<polygon points=" 1708,168 1722,168 1722,192 1708,192" fill="rgb(170,255,170)"/>
<text x="1710.0" y="185.0" font-family="courier" font-size="16" fill="rgb(0,0,0)">z</text>
<line x1="1745.0" y1="140.0" x2="1745.0" y2="180.0" stroke="rgb(255,0,0)" stroke-width="1.5"/>
<line x1="1745.0" y1="180.0" x2="1745.0" y2="220.0" stroke="rgb(255,0,0)" stroke-width="1.5"/>
<polygon points=" 1738,208 1752,208 1752,232 1738,232" fill="rgb(170,255,170)"/>
<text x="1740.0" y="225.0" font-family="courier" font-size="16" fill="rgb(0,0,0)">y</text>
<polygon points=" 1728,168 1762,168 1762,192 1728,192" fill="rgb(170,255,170)"/>
<text x="1730.0" y="185.0" font-family="courier" font-size="16" fill="rgb(0,0,0)">not</text>
<line x1="1745.0" y1="140.0" x2="1775.0" y2="180.0" stroke="rgb(255,0,0)" stroke-width="1.5"/>
<polygon points=" 1768,168 1782,168 1782,192 1768,192" fill="rgb(170,255,170)"/>
<text x="1770.0" y="185.0" font-family="courier" font-size="16" fill="rgb(0,0,0)">x</text>
<polygon points=" 1733,128 1757,128 1757,152 1733,152" fill="rgb(170,255,170)"/>
<text x="1735.0" y="145.0" font-family="courier" font-size="16" fill="rgb(0,0,0)">&#92;/</text>
<line x1="1827.5" y1="100.0" x2="1825.0" y2="140.0" stroke="rgb(255,0,0)" stroke-width="1.5"/>
<line x1="1825.0" y1="140.0" x2="1795.0" y2="180.0" stroke="rgb(255,0,0)" stroke-width="1.5"/>
<polygon points=" 1788,168 1802,168 1802,192 1788,192" fill="rgb(170,255,170)"/>
<text x="1790.0" y="185.0" font-family="courier" font-size="16" fill="rgb(0,0,0)">z</text>
<line x1="1825.0" y1="140.0" x2="1825.0" y2="180.0" stroke="rgb(255,0,0)" stroke-width="1.5"/>
<line x1="1825.0" y1="180.0" x2="1825.0" y2="220.0" stroke="rgb(255,0,0)" stroke-width="1.5"/>
<polygon points=" 1818,208 1832,208 1832,232 1818,232" fill="rgb(170,255,170)"/>
<text x="1820.0" y="225.0" font-family="courier" font-size="16" fill="rgb(0,0,0)">y</text>
<polygon points=" 1808,168 1842,168 1842,192 1808,192" fill="rgb(170,255,170)"/>
<text x="1810.0" y="185.0" font-family="courier" font-size="16" fill="rgb(0,0,0)">not</text>
<line x1="1825.0" y1="140.0" x2="1855.0" y2="180.0" stroke="rgb(255,0,0)" stroke-width="1.5"/>
<polygon points=" 1848,168 1862,168 1862,192 1848,192" fill="rgb(170,255,170)"/>
<text x="1850.0" y="185.0" font-family="courier" font-size="16" fill="rgb(0,0,0)">y</text>
<polygon points=" 1813,128 1837,128 1837,152 1813,152" fill="rgb(170,255,170)"/>
<text x="1815.0" y="145.0" font-family="courier" font-size="16" fill="rgb(0,0,0)">&#92;/</text>
<line x1="1827.5" y1="100.0" x2="1910.0" y2="140.0" stroke="rgb(255,0,0)" stroke-width="1.5"/>
<line x1="1910.0" y1="140.0" x2="1875.0" y2="180.0" stroke="rgb(255,0,0)" stroke-width="1.5"/>
<polygon points=" 1868,168 1882,168 1882,192 1868,192" fill="rgb(170,255,170)"/>
<text x="1870.0" y="185.0" font-family="courier" font-size="16" fill="rgb(0,0,0)">z</text>
<line x1="1910.0" y1="140.0" x2="1905.0" y2="180.0" stroke="rgb(255,0,0)" stroke-width="1.5"/>
<line x1="1905.0" y1="180.0" x2="1905.0" y2="220.0" stroke="rgb(255,0,0)" stroke-width="1.5"/>
<polygon points=" 1898,208 1912,208 1912,232 1898,232" fill="rgb(170,255,170)"/>
<text x="1900.0" y="225.0" font-family="courier" font-size="16" fill="rgb(0,0,0)">y</text>
<polygon points=" 1888,168 1922,168 1922,192 1888,192" fill="rgb(170,255,170)"/>
<text x="1890.0" y="185.0" font-family="courier" font-size="16" fill="rgb(0,0,0)">not</text>
<line x1="1910.0" y1="140.0" x2="1945.0" y2="180.0" stroke="rgb(255,0,0)" stroke-width="1.5"/>
<line x1="1945.0" y1="180.0" x2="1945.0" y2="220.0" stroke="rgb(255,0,0)" stroke-width="1.5"/>
<polygon points=" 1938,208 1952,208 1952,232 1938,232" fill="rgb(170,255,170)"/>
<text x="1940.0" y="225.0" font-family="courier" font-size="16" fill="rgb(0,0,0)">z</text>
<polygon points=" 1928,168 1962,168 1962,192 1928,192" fill="rgb(170,255,170)"/>
<text x="1930.0" y="185.0" font-family="courier" font-size="16" fill="rgb(0,0,0)">not</text>
<polygon points=" 1898,128 1922,128 1922,152 1898,152" fill="rgb(170,255,170)"/>
<text x="1900.0" y="145.0" font-family="courier" font-size="16" fill="rgb(0,0,0)">&#92;/</text>
<polygon points=" 1816,88 1840,88 1840,112 1816,112" fill="rgb(170,255,170)"/>
<text x="1817.5" y="105.0" font-family="courier" font-size="16" fill="rgb(0,0,0)">/&#92;</text>
<line x1="1827.5" y1="60.0" x2="2057.5" y2="100.0" stroke="rgb(255,0,0)" stroke-width="1.5"/>
<line x1="2057.5" y1="100.0" x2="1995.0" y2="140.0" stroke="rgb(255,0,0)" stroke-width="1.5"/>
<line x1="1995.0" y1="140.0" x2="1975.0" y2="180.0" stroke="rgb(255,0,0)" stroke-width="1.5"/>
<polygon points=" 1968,168 1982,168 1982,192 1968,192" fill="rgb(170,255,170)"/>
<text x="1970.0" y="185.0" font-family="courier" font-size="16" fill="rgb(0,0,0)">z</text>
<line x1="1995.0" y1="140.0" x2="1995.0" y2="180.0" stroke="rgb(255,0,0)" stroke-width="1.5"/>
<polygon points=" 1988,168 2002,168 2002,192 1988,192" fill="rgb(170,255,170)"/>
<text x="1990.0" y="185.0" font-family="courier" font-size="16" fill="rgb(0,0,0)">z</text>
<line x1="1995.0" y1="140.0" x2="2015.0" y2="180.0" stroke="rgb(255,0,0)" stroke-width="1.5"/>
<polygon points=" 2008,168 2022,168 2022,192 2008,192" fill="rgb(170,255,170)"/>
<text x="2010.0" y="185.0" font-family="courier" font-size="16" fill="rgb(0,0,0)">x</text>
<polygon points=" 1983,128 2007,128 2007,152 1983,152" fill="rgb(170,255,170)"/>
<text x="1985.0" y="145.0" font-family="courier" font-size="16" fill="rgb(0,0,0)">&#92;/</text>
<line x1="2057.5" y1="100.0" x2="2055.0" y2="140.0" stroke="rgb(255,0,0)" stroke-width="1.5"/>
<line x1="2055.0" y1="140.0" x2="2035.0" y2="180.0" stroke="rgb(255,0,0)" stroke-width="1.5"/>
<polygon points=" 2028,168 2042,168 2042,192 2028,192" fill="rgb(170,255,170)"/>
<text x="2030.0" y="185.0" font-family="courier" font-size="16" fill="rgb(0,0,0)">z</text>
<line x1="2055.0" y1="140.0" x2="2055.0" y2="180.0" stroke="rgb(255,0,0)" stroke-width="1.5"/>
<polygon points=" 2048,168 2062,168 2062,192 2048,192" fill="rgb(170,255,170)"/>
<text x="2050.0" y="185.0" font-family="courier" font-size="16" fill="rgb(0,0,0)">z</text>
<line x1="2055.0" y1="140.0" x2="2075.0" y2="180.0" stroke="rgb(255,0,0)" stroke-width="1.5"/>
<polygon points=" 2068,168 2082,168 2082,192 2068,192" fill="rgb(170,255,170)"/>
<text x="2070.0" y="185.0" font-family="courier" font-size="16" fill="rgb(0,0,0)">y</text>
<polygon points=" 2043,128 2067,128 2067,152 2043,152" fill="rgb(170,255,170)"/>
<text x="2045.0" y="145.0" font-family="courier" font-size="16" fill="rgb(0,0,0)">&#92;/</text>
<line x1="2057.5" y1="100.0" x2="2120.0" y2="140.0" stroke="rgb(255,0,0)" stroke-width="1.5"/>
<line x1="2120.0" y1="140.0" x2="2095.0" y2="180.0" stroke="rgb(255,0,0)" stroke-width="1.5"/>
<polygon points=" 2088,168 2102,168 2102,192 2088,192" fill="rgb(170,255,170)"/>
<text x="2090.0" y="185.0" font-family="courier" font-size="16" fill="rgb(0,0,0)">z</text>
<line x1="2120.0" y1="140.0" x2="2115.0" y2="180.0" stroke="rgb(255,0,0)" stroke-width="1.5"/>
<polygon points=" 2108,168 2122,168 2122,192 2108,192" fill="rgb(170,255,170)"/>
<text x="2110.0" y="185.0" font-family="courier" font-size="16" fill="rgb(0,0,0)">z</text>
<line x1="2120.0" y1="140.0" x2="2145.0" y2="180.0" stroke="rgb(255,0,0)" stroke-width="1.5"/>
<line x1="2145.0" y1="180.0" x2="2145.0" y2="220.0" stroke="rgb(255,0,0)" stroke-width="1.5"/>
<polygon points=" 2138,208 2152,208 2152,232 2138,232" fill="rgb(170,255,170)"/>
<text x="2140.0" y="225.0" font-family="courier" font-size="16" fill="rgb(0,0,0)">z</text>
<polygon points=" 2128,168 2162,168 2162,192 2128,192" fill="rgb(170,255,170)"/>
<text x="2130.0" y="185.0" font-family="courier" font-size="16" fill="rgb(0,0,0)">not</text>
<polygon points=" 2108,128 2132,128 2132,152 2108,152" fill="rgb(170,255,170)"/>
<text x="2110.0" y="145.0" font-family="courier" font-size="16" fill="rgb(0,0,0)">&#92;/</text>
<polygon points=" 2046,88 2070,88 2070,112 2046,112" fill="rgb(170,255,170)"/>
<text x="2047.5" y="105.0" font-family="courier" font-size="16" fill="rgb(0,0,0)">/&#92;</text>
<polygon points=" 1816,48 1840,48 1840,72 1816,72" fill="rgb(170,255,170)"/>
<text x="1817.5" y="65.0" font-family="courier" font-size="16" fill="rgb(0,0,0)">/&#92;</text>
<polygon points=" 1113,8 1137,8 1137,32 1113,32" fill="rgb(170,255,170)"/>
<text x="1115.0" y="25.0" font-family="courier" font-size="16" fill="rgb(0,0,0)">/&#92;</text></svg>