<svg xmlns="http://www.w3.org/2000/svg"
xmlns:xlink="http://www.w3.org/1999/xlink"
version="1.1" baseProfile="full"
width="2180" height="160">
<line x1="1085.0" y1="20.0" x2="50.0" y2="60.0" stroke="rgb(255,0,0)" stroke-width="1.5"/>
<line x1="50.0" y1="60.0" x2="25.0" y2="100.0" stroke="rgb(255,0,0)" stroke-width="1.5"/>
<line x1="25.0" y1="100.0" x2="25.0" y2="140.0" stroke="rgb(255,0,0)" stroke-width="1.5"/>
<polygon points=" 18,128 32,128 32,152 18,152" fill="rgb(255,170,170)"/>
<text x="20.0" y="145.0" font-family="courier" font-size="16" fill="rgb(0,0,0)">x</text>
<polygon points=" 8,88 42,88 42,112 8,112" fill="rgb(255,170,170)"/>
<text x="10.0" y="105.0" font-family="courier" font-size="16" fill="rgb(0,0,0)">not</text>
<line x1="50.0" y1="60.0" x2="55.0" y2="100.0" stroke="rgb(255,0,0)" stroke-width="1.5"/>
<polygon points=" 48,88 62,88 62,112 48,112" fill="rgb(255,170,170)"/>
<text x="50.0" y="105.0" font-family="courier" font-size="16" fill="rgb(0,0,0)">x</text>
<line x1="50.0" y1="60.0" x2="75.0" y2="100.0" stroke="rgb(255,0,0)" stroke-width="1.5"/>
<polygon points=" 68,88 82,88 82,112 68,112" fill="rgb(255,170,170)"/>
<text x="70.0" y="105.0" font-family="courier" font-size="16" fill="rgb(0,0,0)">x</text>
<polygon points=" 38,48 62,48 62,72 38,72" fill="rgb(255,170,170)"/>
<text x="40.0" y="65.0" font-family="courier" font-size="16" fill="rgb(0,0,0)">&#92;/</text>
<line x1="1085.0" y1="20.0" x2="130.0" y2="60.0" stroke="rgb(255,0,0)" stroke-width="1.5"/>
<line x1="130.0" y1="60.0" x2="105.0" y2="100.0" stroke="rgb(255,0,0)" stroke-width="1.5"/>
<line x1="105.0" y1="100.0" x2="105.0" y2="140.0" stroke="rgb(255,0,0)" stroke-width="1.5"/>
<polygon points=" 98,128 112,128 112,152 98,152" fill="rgb(255,255,170)"/>
<text x="100.0" y="145.0" font-family="courier" font-size="16" fill="rgb(0,0,0)">x</text>
<polygon points=" 88,88 122,88 122,112 88,112" fill="rgb(255,255,170)"/>
<text x="90.0" y="105.0" font-family="courier" font-size="16" fill="rgb(0,0,0)">not</text>
<line x1="130.0" y1="60.0" x2="135.0" y2="100.0" stroke="rgb(255,0,0)" stroke-width="1.5"/>
<polygon points=" 128,88 142,88 142,112 128,112" fill="rgb(255,255,170)"/>
<text x="130.0" y="105.0" font-family="courier" font-size="16" fill="rgb(0,0,0)">x</text>
<line x1="130.0" y1="60.0" x2="155.0" y2="100.0" stroke="rgb(255,0,0)" stroke-width="1.5"/>
<polygon points=" 148,88 162,88 162,112 148,112" fill="rgb(255,255,170)"/>
<text x="150.0" y="105.0" font-family="courier" font-size="16" fill="rgb(0,0,0)">y</text>
<polygon points=" 118,48 142,48 142,72 118,72" fill="rgb(255,255,170)"/>
<text x="120.0" y="65.0" font-family="courier" font-size="16" fill="rgb(0,0,0)">&#92;/</text>
<line x1="1085.0" y1="20.0" x2="215.0" y2="60.0" stroke="rgb(255,0,0)" stroke-width="1.5"/>
<line x1="215.0" y1="60.0" x2="185.0" y2="100.0" stroke="rgb(255,0,0)" stroke-width="1.5"/>
<line x1="185.0" y1="100.0" x2="185.0" y2="140.0" stroke="rgb(255,0,0)" stroke-width="1.5"/>
<polygon points=" 178,128 192,128 192,152 178,152" fill="rgb(255,255,170)"/>
<text x="180.0" y="145.0" font-family="courier" font-size="16" fill="rgb(0,0,0)">x</text>
<polygon points=" 168,88 202,88 202,112 168,112" fill="rgb(255,255,170)"/>
<text x="170.0" y="105.0" font-family="courier" font-size="16" fill="rgb(0,0,0)">not</text>
<line x1="215.0" y1="60.0" x2="215.0" y2="100.0" stroke="rgb(255,0,0)" stroke-width="1.5"/>
<polygon points=" 208,88 222,88 222,112 208,112" fill="rgb(255,255,170)"/>
<text x="210.0" y="105.0" font-family="courier" font-size="16" fill="rgb(0,0,0)">x</text>
<line x1="215.0" y1="60.0" x2="245.0" y2="100.0" stroke="rgb(255,0,0)" stroke-width="1.5"/>
<line x1="245.0" y1="100.0" x2="245.0" y2="140.0" stroke="rgb(255,0,0)" stroke-width="1.5"/>
<polygon points=" 238,128 252,128 252,152 238,152" fill="rgb(255,255,170)"/>
<text x="240.0" y="145.0" font-family="courier" font-size="16" fill="rgb(0,0,0)">z</text>
<polygon points=" 228,88 262,88 262,112 228,112" fill="rgb(255,255,170)"/>
<text x="230.0" y="105.0" font-family="courier" font-size="16" fill="rgb(0,0,0)">not</text>
<polygon points=" 203,48 227,48 227,72 203,72" fill="rgb(255,255,170)"/>
<text x="205.0" y="65.0" font-family="courier" font-size="16" fill="rgb(0,0,0)">&#92;/</text>
<line x1="1085.0" y1="20.0" x2="320.0" y2="60.0" stroke="rgb(255,0,0)" stroke-width="1.5"/>
<line x1="320.0" y1="60.0" x2="285.0" y2="100.0" stroke="rgb(255,0,0)" stroke-width="1.5"/>
<line x1="285.0" y1="100.0" x2="285.0" y2="140.0" stroke="rgb(255,0,0)" stroke-width="1.5"/>
<polygon points=" 278,128 292,128 292,152 278,152" fill="rgb(255,255,170)"/>
<text x="280.0" y="145.0" font-family="courier" font-size="16" fill="rgb(0,0,0)">x</text>
<polygon points=" 268,88 302,88 302,112 268,112" fill="rgb(255,255,170)"/>
<text x="270.0" y="105.0" font-family="courier" font-size="16" fill="rgb(0,0,0)">not</text>
<line x1="320.0" y1="60.0" x2="325.0" y2="100.0" stroke="rgb(255,0,0)" stroke-width="1.5"/>
<line x1="325.0" y1="100.0" x2="325.0" y2="140.0" stroke="rgb(255,0,0)" stroke-width="1.5"/>
<polygon points=" 318,128 332,128 332,152 318,152" fill="rgb(255,255,170)"/>
<text x="320.0" y="145.0" font-family="courier" font-size="16" fill="rgb(0,0,0)">y</text>
<polygon points=" 308,88 342,88 342,112 308,112" fill="rgb(255,255,170)"/>
<text x="310.0" y="105.0" font-family="courier" font-size="16" fill="rgb(0,0,0)">not</text>
<line x1="320.0" y1="60.0" x2="355.0" y2="100.0" stroke="rgb(255,0,0)" stroke-width="1.5"/>
<polygon points=" 348,88 362,88 362,112 348,112" fill="rgb(255,255,170)"/>
<text x="350.0" y="105.0" font-family="courier" font-size="16" fill="rgb(0,0,0)">x</text>
<polygon points=" 308,48 332,48 332,72 308,72" fill="rgb(255,255,170)"/>
<text x="310.0" y="65.0" font-family="courier" font-size="16" fill="rgb(0,0,0)">&#92;/</text>
<line x1="1085.0" y1="20.0" x2="420.0" y2="60.0" stroke="rgb(255,0,0)" stroke-width="1.5"/>
<line x1="420.0" y1="60.0" x2="385.0" y2="100.0" stroke="rgb(255,0,0)" stroke-width="1.5"/>
<line x1="385.0" y1="100.0" x2="385.0" y2="140.0" stroke="rgb(255,0,0)" stroke-width="1.5"/>
<polygon points=" 378,128 392,128 392,152 378,152" fill="rgb(255,255,170)"/>
<text x="380.0" y="145.0" font-family="courier" font-size="16" fill="rgb(0,0,0)">x</text>
<polygon points=" 368,88 402,88 402,112 368,112" fill="rgb(255,255,170)"/>
<text x="370.0" y="105.0" font-family="courier" font-size="16" fill="rgb(0,0,0)">not</text>
<line x1="420.0" y1="60.0" x2="425.0" y2="100.0" stroke="rgb(255,0,0)" stroke-width="1.5"/>
<line x1="425.0" y1="100.0" x2="425.0" y2="140.0" stroke="rgb(255,0,0)" stroke-width="1.5"/>
<polygon points=" 418,128 432,128 432,152 418,152" fill="rgb(255,255,170)"/>
<text x="420.0" y="145.0" font-family="courier" font-size="16" fill="rgb(0,0,0)">y</text>
<polygon points=" 408,88 442,88 442,112 408,112" fill="rgb(255,255,170)"/>
<text x="410.0" y="105.0" font-family="courier" font-size="16" fill="rgb(0,0,0)">not</text>
<line x1="420.0" y1="60.0" x2="455.0" y2="100.0" stroke="rgb(255,0,0)" stroke-width="1.5"/>
<polygon points=" 448,88 462,88 462,112 448,112" fill="rgb(255,255,170)"/>
<text x="450.0" y="105.0" font-family="courier" font-size="16" fill="rgb(0,0,0)">y</text>
<polygon points=" 408,48 432,48 432,72 408,72" fill="rgb(255,255,170)"/>
<text x="410.0" y="65.0" font-family="courier" font-size="16" fill="rgb(0,0,0)">&#92;/</text>
<line x1="1085.0" y1="20.0" x2="525.0" y2="60.0" stroke="rgb(255,0,0)" stroke-width="1.5"/>
<line x1="525.0" y1="60.0" x2="485.0" y2="100.0" stroke="rgb(255,0,0)" stroke-width="1.5"/>
<line x1="485.0" y1="100.0" x2="485.0" y2="140.0" stroke="rgb(255,0,0)" stroke-width="1.5"/>
<polygon points=" 478,128 492,128 492,152 478,152" fill="rgb(255,255,170)"/>
<text x="480.0" y="145.0" font-family="courier" font-size="16" fill="rgb(0,0,0)">x</text>
<polygon points=" 468,88 502,88 502,112 468,112" fill="rgb(255,255,170)"/>
<text x="470.0" y="105.0" font-family="courier" font-size="16" fill="rgb(0,0,0)">not</text>
<line x1="525.0" y1="60.0" x2="525.0" y2="100.0" stroke="rgb(255,0,0)" stroke-width="1.5"/>
<line x1="525.0" y1="100.0" x2="525.0" y2="140.0" stroke="rgb(255,0,0)" stroke-width="1.5"/>
<polygon points=" 518,128 532,128 532,152 518,152" fill="rgb(255,255,170)"/>
<text x="520.0" y="145.0" font-family="courier" font-size="16" fill="rgb(0,0,0)">y</text>
<polygon points=" 508,88 542,88 542,112 508,112" fill="rgb(255,255,170)"/>
<text x="510.0" y="105.0" font-family="courier" font-size="16" fill="rgb(0,0,0)">not</text>
<line x1="525.0" y1="60.0" x2="565.0" y2="100.0" stroke="rgb(255,0,0)" stroke-width="1.5"/>
<line x1="565.0" y1="100.0" x2="565.0" y2="140.0" stroke="rgb(255,0,0)" stroke-width="1.5"/>
<polygon points=" 558,128 572,128 572,152 558,152" fill="rgb(255,255,170)"/>
<text x="560.0" y="145.0" font-family="courier" font-size="16" fill="rgb(0,0,0)">z</text>
<polygon points=" 548,88 582,88 582,112 548,112" fill="rgb(255,255,170)"/>
<text x="550.0" y="105.0" font-family="courier" font-size="16" fill="rgb(0,0,0)">not</text>
<polygon points=" 513,48 537,48 537,72 513,72" fill="rgb(255,255,170)"/>
<text x="515.0" y="65.0" font-family="courier" font-size="16" fill="rgb(0,0,0)">&#92;/</text>
<line x1="1085.0" y1="20.0" x2="630.0" y2="60.0" stroke="rgb(255,0,0)" stroke-width="1.5"/>
<line x1="630.0" y1="60.0" x2="605.0" y2="100.0" stroke="rgb(255,0,0)" stroke-width="1.5"/>
<line x1="605.0" y1="100.0" x2="605.0" y2="140.0" stroke="rgb(255,0,0)" stroke-width="1.5"/>
<polygon points=" 598,128 612,128 612,152 598,152" fill="rgb(255,255,170)"/>
<text x="600.0" y="145.0" font-family="courier" font-size="16" fill="rgb(0,0,0)">x</text>
<polygon points=" 588,88 622,88 622,112 588,112" fill="rgb(255,255,170)"/>
<text x="590.0" y="105.0" font-family="courier" font-size="16" fill="rgb(0,0,0)">not</text>
<line x1="630.0" y1="60.0" x2="635.0" y2="100.0" stroke="rgb(255,0,0)" stroke-width="1.5"/>
<polygon points=" 628,88 642,88 642,112 628,112" fill="rgb(255,255,170)"/>
<text x="630.0" y="105.0" font-family="courier" font-size="16" fill="rgb(0,0,0)">z</text>
<line x1="630.0" y1="60.0" x2="655.0" y2="100.0" stroke="rgb(255,0,0)" stroke-width="1.5"/>
<polygon points=" 648,88 662,88 662,112 648,112" fill="rgb(255,255,170)"/>
<text x="650.0" y="105.0" font-family="courier" font-size="16" fill="rgb(0,0,0)">x</text>
<polygon points=" 618,48 642,48 642,72 618,72" fill="rgb(255,255,170)"/>
<text x="620.0" y="65.0" font-family="courier" font-size="16" fill="rgb(0,0,0)">&#92;/</text>
<line x1="1085.0" y1="20.0" x2="710.0" y2="60.0" stroke="rgb(255,0,0)" stroke-width="1.5"/>
<line x1="710.0" y1="60.0" x2="685.0" y2="100.0" stroke="rgb(255,0,0)" stroke-width="1.5"/>
<line x1="685.0" y1="100.0" x2="685.0" y2="140.0" stroke="rgb(255,0,0)" stroke-width="1.5"/>
<polygon points=" 678,128 692,128 692,152 678,152" fill="rgb(255,255,170)"/>
<text x="680.0" y="145.0" font-family="courier" font-size="16" fill="rgb(0,0,0)">x</text>
<polygon points=" 668,88 702,88 702,112 668,112" fill="rgb(255,255,170)"/>
<text x="670.0" y="105.0" font-family="courier" font-size="16" fill="rgb(0,0,0)">not</text>
<line x1="710.0" y1="60.0" x2="715.0" y2="100.0" stroke="rgb(255,0,0)" stroke-width="1.5"/>
<polygon points=" 708,88 722,88 722,112 708,112" fill="rgb(255,255,170)"/>
<text x="710.0" y="105.0" font-family="courier" font-size="16" fill="rgb(0,0,0)">z</text>
<line x1="710.0" y1="60.0" x2="735.0" y2="100.0" stroke="rgb(255,0,0)" stroke-width="1.5"/>
<polygon points=" 728,88 742,88 742,112 728,112" fill="rgb(255,255,170)"/>
<text x="730.0" y="105.0" font-family="courier" font-size="16" fill="rgb(0,0,0)">y</text>
<polygon points=" 698,48 722,48 722,72 698,72" fill="rgb(255,255,170)"/>
<text x="700.0" y="65.0" font-family="courier" font-size="16" fill="rgb(0,0,0)">&#92;/</text>
<line x1="1085.0" y1="20.0" x2="795.0" y2="60.0" stroke="rgb(255,0,0)" stroke-width="1.5"/>
<line x1="795.0" y1="60.0" x2="765.0" y2="100.0" stroke="rgb(255,0,0)" stroke-width="1.5"/>
<line x1="765.0" y1="100.0" x2="765.0" y2="140.0" stroke="rgb(255,0,0)" stroke-width="1.5"/>
<polygon points=" 758,128 772,128 772,152 758,152" fill="rgb(255,255,170)"/>
<text x="760.0" y="145.0" font-family="courier" font-size="16" fill="rgb(0,0,0)">x</text>
<polygon points=" 748,88 782,88 782,112 748,112" fill="rgb(255,255,170)"/>
<text x="750.0" y="105.0" font-family="courier" font-size="16" fill="rgb(0,0,0)">not</text>
<line x1="795.0" y1="60.0" x2="795.0" y2="100.0" stroke="rgb(255,0,0)" stroke-width="1.5"/>
<polygon points=" 788,88 802,88 802,112 788,112" fill="rgb(255,255,170)"/>
<text x="790.0" y="105.0" font-family="courier" font-size="16" fill="rgb(0,0,0)">z</text>
<line x1="795.0" y1="60.0" x2="825.0" y2="100.0" stroke="rgb(255,0,0)" stroke-width="1.5"/>
<line x1="825.0" y1="100.0" x2="825.0" y2="140.0" stroke="rgb(255,0,0)" stroke-width="1.5"/>
<polygon points=" 818,128 832,128 832,152 818,152" fill="rgb(255,255,170)"/>
<text x="820.0" y="145.0" font-family="courier" font-size="16" fill="rgb(0,0,0)">z</text>
<polygon points=" 808,88 842,88 842,112 808,112" fill="rgb(255,255,170)"/>
<text x="810.0" y="105.0" font-family="courier" font-size="16" fill="rgb(0,0,0)">not</text>
<polygon points=" 783,48 807,48 807,72 783,72" fill="rgb(255,255,170)"/>
<text x="785.0" y="65.0" font-family="courier" font-size="16" fill="rgb(0,0,0)">&#92;/</text>
<line x1="1085.0" y1="20.0" x2="875.0" y2="60.0" stroke="rgb(255,0,0)" stroke-width="1.5"/>
<line x1="875.0" y1="60.0" x2="855.0" y2="100.0" stroke="rgb(255,0,0)" stroke-width="1.5"/>
<polygon points=" 848,88 862,88 862,112 848,112" fill="rgb(255,255,170)"/>
<text x="850.0" y="105.0" font-family="courier" font-size="16" fill="rgb(0,0,0)">y</text>
<line x1="875.0" y1="60.0" x2="875.0" y2="100.0" stroke="rgb(255,0,0)" stroke-width="1.5"/>
<polygon points=" 868,88 882,88 882,112 868,112" fill="rgb(255,255,170)"/>
<text x="870.0" y="105.0" font-family="courier" font-size="16" fill="rgb(0,0,0)">x</text>
<line x1="875.0" y1="60.0" x2="895.0" y2="100.0" stroke="rgb(255,0,0)" stroke-width="1.5"/>
<polygon points=" 888,88 902,88 902,112 888,112" fill="rgb(255,255,170)"/>
<text x="890.0" y="105.0" font-family="courier" font-size="16" fill="rgb(0,0,0)">x</text>
<polygon points=" 863,48 887,48 887,72 863,72" fill="rgb(255,255,170)"/>
<text x="865.0" y="65.0" font-family="courier" font-size="16" fill="rgb(0,0,0)">&#92;/</text>
<line x1="1085.0" y1="20.0" x2="935.0" y2="60.0" stroke="rgb(255,0,0)" stroke-width="1.5"/>
<line x1="935.0" y1="60.0" x2="915.0" y2="100.0" stroke="rgb(255,0,0)" stroke-width="1.5"/>
<polygon points=" 908,88 922,88 922,112 908,112" fill="rgb(255,255,170)"/>
<text x="910.0" y="105.0" font-family="courier" font-size="16" fill="rgb(0,0,0)">y</text>
<line x1="935.0" y1="60.0" x2="935.0" y2="100.0" stroke="rgb(255,0,0)" stroke-width="1.5"/>
<polygon points=" 928,88 942,88 942,112 928,112" fill="rgb(255,255,170)"/>
<text x="930.0" y="105.0" font-family="courier" font-size="16" fill="rgb(0,0,0)">x</text>
<line x1="935.0" y1="60.0" x2="955.0" y2="100.0" stroke="rgb(255,0,0)" stroke-width="1.5"/>
<polygon points=" 948,88 962,88 962,112 948,112" fill="rgb(255,255,170)"/>
<text x="950.0" y="105.0" font-family="courier" font-size="16" fill="rgb(0,0,0)">y</text>
<polygon points=" 923,48 947,48 947,72 923,72" fill="rgb(255,255,170)"/>
<text x="925.0" y="65.0" font-family="courier" font-size="16" fill="rgb(0,0,0)">&#92;/</text>
<line x1="1085.0" y1="20.0" x2="1000.0" y2="60.0" stroke="rgb(255,0,0)" stroke-width="1.5"/>
<line x1="1000.0" y1="60.0" x2="975.0" y2="100.0" stroke="rgb(255,0,0)" stroke-width="1.5"/>
<polygon points=" 968,88 982,88 982,112 968,112" fill="rgb(255,255,170)"/>
<text x="970.0" y="105.0" font-family="courier" font-size="16" fill="rgb(0,0,0)">y</text>
<line x1="1000.0" y1="60.0" x2="995.0" y2="100.0" stroke="rgb(255,0,0)" stroke-width="1.5"/>
<polygon points=" 988,88 1002,88 1002,112 988,112" fill="rgb(255,255,170)"/>
<text x="990.0" y="105.0" font-family="courier" font-size="16" fill="rgb(0,0,0)">x</text>
<line x1="1000.0" y1="60.0" x2="1025.0" y2="100.0" stroke="rgb(255,0,0)" stroke-width="1.5"/>
<line x1="1025.0" y1="100.0" x2="1025.0" y2="140.0" stroke="rgb(255,0,0)" stroke-width="1.5"/>
<polygon points=" 1018,128 1032,128 1032,152 1018,152" fill="rgb(255,255,170)"/>
<text x="1020.0" y="145.0" font-family="courier" font-size="16" fill="rgb(0,0,0)">z</text>
<polygon points=" 1008,88 1042,88 1042,112 1008,112" fill="rgb(255,255,170)"/>
<text x="1010.0" y="105.0" font-family="courier" font-size="16" fill="rgb(0,0,0)">not</text>
<polygon points=" 988,48 1012,48 1012,72 988,72" fill="rgb(255,255,170)"/>
<text x="990.0" y="65.0" font-family="courier" font-size="16" fill="rgb(0,0,0)">&#92;/</text>
<line x1="1085.0" y1="20.0" x2="1085.0" y2="60.0" stroke="rgb(255,0,0)" stroke-width="1.5"/>
<line x1="1085.0" y1="60.0" x2="1055.0" y2="100.0" stroke="rgb(255,0,0)" stroke-width="1.5"/>
<polygon points=" 1048,88 1062,88 1062,112 1048,112" fill="rgb(255,255,170)"/>
<text x="1050.0" y="105.0" font-family="courier" font-size="16" fill="rgb(0,0,0)">y</text>
<line x1="1085.0" y1="60.0" x2="1085.0" y2="100.0" stroke="rgb(255,0,0)" stroke-width="1.5"/>
<line x1="1085.0" y1="100.0" x2="1085.0" y2="140.0" stroke="rgb(255,0,0)" stroke-width="1.5"/>
<polygon points=" 1078,128 1092,128 1092,152 1078,152" fill="rgb(255,255,170)"/>
<text x="1080.0" y="145.0" font-family="courier" font-size="16" fill="rgb(0,0,0)">y</text>
<polygon points=" 1068,88 1102,88 1102,112 1068,112" fill="rgb(255,255,170)"/>
<text x="1070.0" y="105.0" font-family="courier" font-size="16" fill="rgb(0,0,0)">not</text>
<line x1="1085.0" y1="60.0" x2="1115.0" y2="100.0" stroke="rgb(255,0,0)" stroke-width="1.5"/>
<polygon points=" 1108,88 1122,88 1122,112 1108,112" fill="rgb(255,255,170)"/>
<text x="1110.0" y="105.0" font-family="courier" font-size="16" fill="rgb(0,0,0)">x</text>
<polygon points=" 1073,48 1097,48 1097,72 1073,72" fill="rgb(255,255,170)"/>
<text x="1075.0" y="65.0" font-family="courier" font-size="16" fill="rgb(0,0,0)">&#92;/</text>
<line x1="1085.0" y1="20.0" x2="1165.0" y2="60.0" stroke="rgb(255,0,0)" stroke-width="1.5"/>
<line x1="1165.0" y1="60.0" x2="1135.0" y2="100.0" stroke="rgb(255,0,0)" stroke-width="1.5"/>
<polygon points=" 1128,88 1142,88 1142,112 1128,112" fill="rgb(255,255,170)"/>
<text x="1130.0" y="105.0" font-family="courier" font-size="16" fill="rgb(0,0,0)">y</text>
<line x1="1165.0" y1="60.0" x2="1165.0" y2="100.0" stroke="rgb(255,0,0)" stroke-width="1.5"/>
<line x1="1165.0" y1="100.0" x2="1165.0" y2="140.0" stroke="rgb(255,0,0)" stroke-width="1.5"/>
<polygon points=" 1158,128 1172,128 1172,152 1158,152" fill="rgb(255,255,170)"/>
<text x="1160.0" y="145.0" font-family="courier" font-size="16" fill="rgb(0,0,0)">y</text>
<polygon points=" 1148,88 1182,88 1182,112 1148,112" fill="rgb(255,255,170)"/>
<text x="1150.0" y="105.0" font-family="courier" font-size="16" fill="rgb(0,0,0)">not</text>
<line x1="1165.0" y1="60.0" x2="1195.0" y2="100.0" stroke="rgb(255,0,0)" stroke-width="1.5"/>
<polygon points=" 1188,88 1202,88 1202,112 1188,112" fill="rgb(255,255,170)"/>
<text x="1190.0" y="105.0" font-family="courier" font-size="16" fill="rgb(0,0,0)">y</text>
<polygon points=" 1153,48 1177,48 1177,72 1153,72" fill="rgb(255,255,170)"/>
<text x="1155.0" y="65.0" font-family="courier" font-size="16" fill="rgb(0,0,0)">&#92;/</text>
<line x1="1085.0" y1="20.0" x2="1250.0" y2="60.0" stroke="rgb(255,0,0)" stroke-width="1.5"/>
<line x1="1250.0" y1="60.0" x2="1215.0" y2="100.0" stroke="rgb(255,0,0)" stroke-width="1.5"/>
<polygon points=" 1208,88 1222,88 1222,112 1208,112" fill="rgb(255,255,170)"/>
<text x="1210.0" y="105.0" font-family="courier" font-size="16" fill="rgb(0,0,0)">y</text>
<line x1="1250.0" y1="60.0" x2="1245.0" y2="100.0" stroke="rgb(255,0,0)" stroke-width="1.5"/>
<line x1="1245.0" y1="100.0" x2="1245.0" y2="140.0" stroke="rgb(255,0,0)" stroke-width="1.5"/>
<polygon points=" 1238,128 1252,128 1252,152 1238,152" fill="rgb(255,255,170)"/>
<text x="1240.0" y="145.0" font-family="courier" font-size="16" fill="rgb(0,0,0)">y</text>
<polygon points=" 1228,88 1262,88 1262,112 1228,112" fill="rgb(255,255,170)"/>
<text x="1230.0" y="105.0" font-family="courier" font-size="16" fill="rgb(0,0,0)">not</text>
<line x1="1250.0" y1="60.0" x2="1285.0" y2="100.0" stroke="rgb(255,0,0)" stroke-width="1.5"/>
<line x1="1285.0" y1="100.0" x2="1285.0" y2="140.0" stroke="rgb(255,0,0)" stroke-width="1.5"/>
<polygon points=" 1278,128 1292,128 1292,152 1278,152" fill="rgb(255,255,170)"/>
<text x="1280.0" y="145.0" font-family="courier" font-size="16" fill="rgb(0,0,0)">z</text>
<polygon points=" 1268,88 1302,88 1302,112 1268,112" fill="rgb(255,255,170)"/>
<text x="1270.0" y="105.0" font-family="courier" font-size="16" fill="rgb(0,0,0)">not</text>
<polygon points=" 1238,48 1262,48 1262,72 1238,72" fill="rgb(255,255,170)"/>
<text x="1240.0" y="65.0" font-family="courier" font-size="16" fill="rgb(0,0,0)">&#92;/</text>
<line x1="1085.0" y1="20.0" x2="1335.0" y2="60.0" stroke="rgb(255,0,0)" stroke-width="1.5"/>
<line x1="1335.0" y1="60.0" x2="1315.0" y2="100.0" stroke="rgb(255,0,0)" stroke-width="1.5"/>
<polygon points=" 1308,88 1322,88 1322,112 1308,112" fill="rgb(255,255,170)"/>
<text x="1310.0" y="105.0" font-family="courier" font-size="16" fill="rgb(0,0,0)">y</text>
<line x1="1335.0" y1="60.0" x2="1335.0" y2="100.0" stroke="rgb(255,0,0)" stroke-width="1.5"/>
<polygon points=" 1328,88 1342,88 1342,112 1328,112" fill="rgb(255,255,170)"/>
<text x="1330.0" y="105.0" font-family="courier" font-size="16" fill="rgb(0,0,0)">z</text>
<line x1="1335.0" y1="60.0" x2="1355.0" y2="100.0" stroke="rgb(255,0,0)" stroke-width="1.5"/>
<polygon points=" 1348,88 1362,88 1362,112 1348,112" fill="rgb(255,255,170)"/>
<text x="1350.0" y="105.0" font-family="courier" font-size="16" fill="rgb(0,0,0)">x</text>
<polygon points=" 1323,48 1347,48 1347,72 1323,72" fill="rgb(255,255,170)"/>
<text x="1325.0" y="65.0" font-family="courier" font-size="16" fill="rgb(0,0,0)">&#92;/</text>
<line x1="1085.0" y1="20.0" x2="1395.0" y2="60.0" stroke="rgb(255,0,0)" stroke-width="1.5"/>
<line x1="1395.0" y1="60.0" x2="1375.0" y2="100.0" stroke="rgb(255,0,0)" stroke-width="1.5"/>
<polygon points=" 1368,88 1382,88 1382,112 1368,112" fill="rgb(255,255,170)"/>
<text x="1370.0" y="105.0" font-family="courier" font-size="16" fill="rgb(0,0,0)">y</text>
<line x1="1395.0" y1="60.0" x2="1395.0" y2="100.0" stroke="rgb(255,0,0)" stroke-width="1.5"/>
<polygon points=" 1388,88 1402,88 1402,112 1388,112" fill="rgb(255,255,170)"/>
<text x="1390.0" y="105.0" font-family="courier" font-size="16" fill="rgb(0,0,0)">z</text>
<line x1="1395.0" y1="60.0" x2="1415.0" y2="100.0" stroke="rgb(255,0,0)" stroke-width="1.5"/>
<polygon points=" 1408,88 1422,88 1422,112 1408,112" fill="rgb(255,255,170)"/>
<text x="1410.0" y="105.0" font-family="courier" font-size="16" fill="rgb(0,0,0)">y</text>
<polygon points=" 1383,48 1407,48 1407,72 1383,72" fill="rgb(255,255,170)"/>
<text x="1385.0" y="65.0" font-family="courier" font-size="16" fill="rgb(0,0,0)">&#92;/</text>
<line x1="1085.0" y1="20.0" x2="1460.0" y2="60.0" stroke="rgb(255,0,0)" stroke-width="1.5"/>
<line x1="1460.0" y1="60.0" x2="1435.0" y2="100.0" stroke="rgb(255,0,0)" stroke-width="1.5"/>
<polygon points=" 1428,88 1442,88 1442,112 1428,112" fill="rgb(255,255,170)"/>
<text x="1430.0" y="105.0" font-family="courier" font-size="16" fill="rgb(0,0,0)">y</text>
<line x1="1460.0" y1="60.0" x2="1455.0" y2="100.0" stroke="rgb(255,0,0)" stroke-width="1.5"/>
<polygon points=" 1448,88 1462,88 1462,112 1448,112" fill="rgb(255,255,170)"/>
<text x="1450.0" y="105.0" font-family="courier" font-size="16" fill="rgb(0,0,0)">z</text>
<line x1="1460.0" y1="60.0" x2="1485.0" y2="100.0" stroke="rgb(255,0,0)" stroke-width="1.5"/>
<line x1="1485.0" y1="100.0" x2="1485.0" y2="140.0" stroke="rgb(255,0,0)" stroke-width="1.5"/>
<polygon points=" 1478,128 1492,128 1492,152 1478,152" fill="rgb(255,255,170)"/>
<text x="1480.0" y="145.0" font-family="courier" font-size="16" fill="rgb(0,0,0)">z</text>
<polygon points=" 1468,88 1502,88 1502,112 1468,112" fill="rgb(255,255,170)"/>
<text x="1470.0" y="105.0" font-family="courier" font-size="16" fill="rgb(0,0,0)">not</text>
<polygon points=" 1448,48 1472,48 1472,72 1448,72" fill="rgb(255,255,170)"/>
<text x="1450.0" y="65.0" font-family="courier" font-size="16" fill="rgb(0,0,0)">&#92;/</text>
<line x1="1085.0" y1="20.0" x2="1535.0" y2="60.0" stroke="rgb(255,0,0)" stroke-width="1.5"/>
<line x1="1535.0" y1="60.0" x2="1515.0" y2="100.0" stroke="rgb(255,0,0)" stroke-width="1.5"/>
<polygon points=" 1508,88 1522,88 1522,112 1508,112" fill="rgb(255,255,170)"/>
<text x="1510.0" y="105.0" font-family="courier" font-size="16" fill="rgb(0,0,0)">z</text>
<line x1="1535.0" y1="60.0" x2="1535.0" y2="100.0" stroke="rgb(255,0,0)" stroke-width="1.5"/>
<polygon points=" 1528,88 1542,88 1542,112 1528,112" fill="rgb(255,255,170)"/>
<text x="1530.0" y="105.0" font-family="courier" font-size="16" fill="rgb(0,0,0)">x</text>
<line x1="1535.0" y1="60.0" x2="1555.0" y2="100.0" stroke="rgb(255,0,0)" stroke-width="1.5"/>
<polygon points=" 1548,88 1562,88 1562,112 1548,112" fill="rgb(255,255,170)"/>
<text x="1550.0" y="105.0" font-family="courier" font-size="16" fill="rgb(0,0,0)">x</text>
<polygon points=" 1523,48 1547,48 1547,72 1523,72" fill="rgb(255,255,170)"/>
<text x="1525.0" y="65.0" font-family="courier" font-size="16" fill="rgb(0,0,0)">&#92;/</text>
<line x1="1085.0" y1="20.0" x2="1595.0" y2="60.0" stroke="rgb(255,0,0)" stroke-width="1.5"/>
<line x1="1595.0" y1="60.0" x2="1575.0" y2="100.0" stroke="rgb(255,0,0)" stroke-width="1.5"/>
<polygon points=" 1568,88 1582,88 1582,112 1568,112" fill="rgb(255,255,170)"/>
<text x="1570.0" y="105.0" font-family="courier" font-size="16" fill="rgb(0,0,0)">z</text>
<line x1="1595.0" y1="60.0" x2="1595.0" y2="100.0" stroke="rgb(255,0,0)" stroke-width="1.5"/>
<polygon points=" 1588,88 1602,88 1602,112 1588,112" fill="rgb(255,255,170)"/>
<text x="1590.0" y="105.0" font-family="courier" font-size="16" fill="rgb(0,0,0)">x</text>
<line x1="1595.0" y1="60.0" x2="1615.0" y2="100.0" stroke="rgb(255,0,0)" stroke-width="1.5"/>
<polygon points=" 1608,88 1622,88 1622,112 1608,112" fill="rgb(255,255,170)"/>
<text x="1610.0" y="105.0" font-family="courier" font-size="16" fill="rgb(0,0,0)">y</text>
<polygon points=" 1583,48 1607,48 1607,72 1583,72" fill="rgb(255,255,170)"/>
<text x="1585.0" y="65.0" font-family="courier" font-size="16" fill="rgb(0,0,0)">&#92;/</text>
<line x1="1085.0" y1="20.0" x2="1660.0" y2="60.0" stroke="rgb(255,0,0)" stroke-width="1.5"/>
<line x1="1660.0" y1="60.0" x2="1635.0" y2="100.0" stroke="rgb(255,0,0)" stroke-width="1.5"/>
<polygon points=" 1628,88 1642,88 1642,112 1628,112" fill="rgb(255,255,170)"/>
<text x="1630.0" y="105.0" font-family="courier" font-size="16" fill="rgb(0,0,0)">z</text>
<line x1="1660.0" y1="60.0" x2="1655.0" y2="100.0" stroke="rgb(255,0,0)" stroke-width="1.5"/>
<polygon points=" 1648,88 1662,88 1662,112 1648,112" fill="rgb(255,255,170)"/>
<text x="1650.0" y="105.0" font-family="courier" font-size="16" fill="rgb(0,0,0)">x</text>
<line x1="1660.0" y1="60.0" x2="1685.0" y2="100.0" stroke="rgb(255,0,0)" stroke-width="1.5"/>
<line x1="1685.0" y1="100.0" x2="1685.0" y2="140.0" stroke="rgb(255,0,0)" stroke-width="1.5"/>
<polygon points=" 1678,128 1692,128 1692,152 1678,152" fill="rgb(255,255,170)"/>
<text x="1680.0" y="145.0" font-family="courier" font-size="16" fill="rgb(0,0,0)">z</text>
<polygon points=" 1668,88 1702,88 1702,112 1668,112" fill="rgb(255,255,170)"/>
<text x="1670.0" y="105.0" font-family="courier" font-size="16" fill="rgb(0,0,0)">not</text>
<polygon points=" 1648,48 1672,48 1672,72 1648,72" fill="rgb(255,255,170)"/>
<text x="1650.0" y="65.0" font-family="courier" font-size="16" fill="rgb(0,0,0)">&#92;/</text>
<line x1="1085.0" y1="20.0" x2="1745.0" y2="60.0" stroke="rgb(255,0,0)" stroke-width="1.5"/>
<line x1="1745.0" y1="60.0" x2="1715.0" y2="100.0" stroke="rgb(255,0,0)" stroke-width="1.5"/>
<polygon points=" 1708,88 1722,88 1722,112 1708,112" fill="rgb(255,255,170)"/>
<text x="1710.0" y="105.0" font-family="courier" font-size="16" fill="rgb(0,0,0)">z</text>
<line x1="1745.0" y1="60.0" x2="1745.0" y2="100.0" stroke="rgb(255,0,0)" stroke-width="1.5"/>
<line x1="1745.0" y1="100.0" x2="1745.0" y2="140.0" stroke="rgb(255,0,0)" stroke-width="1.5"/>
<polygon points=" 1738,128 1752,128 1752,152 1738,152" fill="rgb(255,255,170)"/>
<text x="1740.0" y="145.0" font-family="courier" font-size="16" fill="rgb(0,0,0)">y</text>
<polygon points=" 1728,88 1762,88 1762,112 1728,112" fill="rgb(255,255,170)"/>
<text x="1730.0" y="105.0" font-family="courier" font-size="16" fill="rgb(0,0,0)">not</text>
<line x1="1745.0" y1="60.0" x2="1775.0" y2="100.0" stroke="rgb(255,0,0)" stroke-width="1.5"/>
<polygon points=" 1768,88 1782,88 1782,112 1768,112" fill="rgb(255,255,170)"/>
<text x="1770.0" y="105.0" font-family="courier" font-size="16" fill="rgb(0,0,0)">x</text>
<polygon points=" 1733,48 1757,48 1757,72 1733,72" fill="rgb(255,255,170)"/>
<text x="1735.0" y="65.0" font-family="courier" font-size="16" fill="rgb(0,0,0)">&#92;/</text>
<line x1="1085.0" y1="20.0" x2="1825.0" y2="60.0" stroke="rgb(255,0,0)" stroke-width="1.5"/>
<line x1="1825.0" y1="60.0" x2="1795.0" y2="100.0" stroke="rgb(255,0,0)" stroke-width="1.5"/>
<polygon points=" 1788,88 1802,88 1802,112 1788,112" fill="rgb(255,255,170)"/>
<text x="1790.0" y="105.0" font-family="courier" font-size="16" fill="rgb(0,0,0)">z</text>
<line x1="1825.0" y1="60.0" x2="1825.0" y2="100.0" stroke="rgb(255,0,0)" stroke-width="1.5"/>
<line x1="1825.0" y1="100.0" x2="1825.0" y2="140.0" stroke="rgb(255,0,0)" stroke-width="1.5"/>
<polygon points=" 1818,128 1832,128 1832,152 1818,152" fill="rgb(255,255,170)"/>
<text x="1820.0" y="145.0" font-family="courier" font-size="16" fill="rgb(0,0,0)">y</text>
<polygon points=" 1808,88 1842,88 1842,112 1808,112" fill="rgb(255,255,170)"/>
<text x="1810.0" y="105.0" font-family="courier" font-size="16" fill="rgb(0,0,0)">not</text>
<line x1="1825.0" y1="60.0" x2="1855.0" y2="100.0" stroke="rgb(255,0,0)" stroke-width="1.5"/>
<polygon points=" 1848,88 1862,88 1862,112 1848,112" fill="rgb(255,255,170)"/>
<text x="1850.0" y="105.0" font-family="courier" font-size="16" fill="rgb(0,0,0)">y</text>
<polygon points=" 1813,48 1837,48 1837,72 1813,72" fill="rgb(255,255,170)"/>
<text x="1815.0" y="65.0" font-family="courier" font-size="16" fill="rgb(0,0,0)">&#92;/</text>
<line x1="1085.0" y1="20.0" x2="1910.0" y2="60.0" stroke="rgb(255,0,0)" stroke-width="1.5"/>
<line x1="1910.0" y1="60.0" x2="1875.0" y2="100.0" stroke="rgb(255,0,0)" stroke-width="1.5"/>
<polygon points=" 1868,88 1882,88 1882,112 1868,112" fill="rgb(255,255,170)"/>
<text x="1870.0" y="105.0" font-family="courier" font-size="16" fill="rgb(0,0,0)">z</text>
<line x1="1910.0" y1="60.0" x2="1905.0" y2="100.0" stroke="rgb(255,0,0)" stroke-width="1.5"/>
<line x1="1905.0" y1="100.0" x2="1905.0" y2="140.0" stroke="rgb(255,0,0)" stroke-width="1.5"/>
<polygon points=" 1898,128 1912,128 1912,152 1898,152" fill="rgb(255,255,170)"/>
<text x="1900.0" y="145.0" font-family="courier" font-size="16" fill="rgb(0,0,0)">y</text>
<polygon points=" 1888,88 1922,88 1922,112 1888,112" fill="rgb(255,255,170)"/>
<text x="1890.0" y="105.0" font-family="courier" font-size="16" fill="rgb(0,0,0)">not</text>
<line x1="1910.0" y1="60.0" x2="1945.0" y2="100.0" stroke="rgb(255,0,0)" stroke-width="1.5"/>
<line x1="1945.0" y1="100.0" x2="1945.0" y2="140.0" stroke="rgb(255,0,0)" stroke-width="1.5"/>
<polygon points=" 1938,128 1952,128 1952,152 1938,152" fill="rgb(255,255,170)"/>
<text x="1940.0" y="145.0" font-family="courier" font-size="16" fill="rgb(0,0,0)">z</text>
<polygon points=" 1928,88 1962,88 1962,112 1928,112" fill="rgb(255,255,170)"/>
<text x="1930.0" y="105.0" font-family="courier" font-size="16" fill="rgb(0,0,0)">not</text>
<polygon points=" 1898,48 1922,48 1922,72 1898,72" fill="rgb(255,255,170)"/>
<text x="1900.0" y="65.0" font-family="courier" font-size="16" fill="rgb(0,0,0)">&#92;/</text>
<line x1="1085.0" y1="20.0" x2="1995.0" y2="60.0" stroke="rgb(255,0,0)" stroke-width="1.5"/>
<line x1="1995.0" y1="60.0" x2="1975.0" y2="100.0" stroke="rgb(255,0,0)" stroke-width="1.5"/>
<polygon points=" 1968,88 1982,88 1982,112 1968,112" fill="rgb(255,255,170)"/>
<text x="1970.0" y="105.0" font-family="courier" font-size="16" fill="rgb(0,0,0)">z</text>
<line x1="1995.0" y1="60.0" x2="1995.0" y2="100.0" stroke="rgb(255,0,0)" stroke-width="1.5"/>
<polygon points=" 1988,88 2002,88 2002,112 1988,112" fill="rgb(255,255,170)"/>
<text x="1990.0" y="105.0" font-family="courier" font-size="16" fill="rgb(0,0,0)">z</text>
<line x1="1995.0" y1="60.0" x2="2015.0" y2="100.0" stroke="rgb(255,0,0)" stroke-width="1.5"/>
<polygon points=" 2008,88 2022,88 2022,112 2008,112" fill="rgb(255,255,170)"/>
<text x="2010.0" y="105.0" font-family="courier" font-size="16" fill="rgb(0,0,0)">x</text>
<polygon points=" 1983,48 2007,48 2007,72 1983,72" fill="rgb(255,255,170)"/>
<text x="1985.0" y="65.0" font-family="courier" font-size="16" fill="rgb(0,0,0)">&#92;/</text>
<line x1="1085.0" y1="20.0" x2="2055.0" y2="60.0" stroke="rgb(255,0,0)" stroke-width="1.5"/>
<line x1="2055.0" y1="60.0" x2="2035.0" y2="100.0" stroke="rgb(255,0,0)" stroke-width="1.5"/>
<polygon points=" 2028,88 2042,88 2042,112 2028,112" fill="rgb(255,255,170)"/>
<text x="2030.0" y="105.0" font-family="courier" font-size="16" fill="rgb(0,0,0)">z</text>
<line x1="2055.0" y1="60.0" x2="2055.0" y2="100.0" stroke="rgb(255,0,0)" stroke-width="1.5"/>
<polygon points=" 2048,88 2062,88 2062,112 2048,112" fill="rgb(255,255,170)"/>
<text x="2050.0" y="105.0" font-family="courier" font-size="16" fill="rgb(0,0,0)">z</text>
<line x1="2055.0" y1="60.0" x2="2075.0" y2="100.0" stroke="rgb(255,0,0)" stroke-width="1.5"/>
<polygon points=" 2068,88 2082,88 2082,112 2068,112" fill="rgb(255,255,170)"/>
<text x="2070.0" y="105.0" font-family="courier" font-size="16" fill="rgb(0,0,0)">y</text>
<polygon points=" 2043,48 2067,48 2067,72 2043,72" fill="rgb(255,255,170)"/>
<text x="2045.0" y="65.0" font-family="courier" font-size="16" fill="rgb(0,0,0)">&#92;/</text>
<line x1="1085.0" y1="20.0" x2="2120.0" y2="60.0" stroke="rgb(255,0,0)" stroke-width="1.5"/>
<line x1="2120.0" y1="60.0" x2="2095.0" y2="100.0" stroke="rgb(255,0,0)" stroke-width="1.5"/>
<polygon points=" 2088,88 2102,88 2102,112 2088,112" fill="rgb(255,255,170)"/>
<text x="2090.0" y="105.0" font-family="courier" font-size="16" fill="rgb(0,0,0)">z</text>
<line x1="2120.0" y1="60.0" x2="2115.0" y2="100.0" stroke="rgb(255,0,0)" stroke-width="1.5"/>
<polygon points=" 2108,88 2122,88 2122,112 2108,112" fill="rgb(255,255,170)"/>
<text x="2110.0" y="105.0" font-family="courier" font-size="16" fill="rgb(0,0,0)">z</text>
<line x1="2120.0" y1="60.0" x2="2145.0" y2="100.0" stroke="rgb(255,0,0)" stroke-width="1.5"/>
<line x1="2145.0" y1="100.0" x2="2145.0" y2="140.0" stroke="rgb(255,0,0)" stroke-width="1.5"/>
<polygon points=" 2138,128 2152,128 2152,152 2138,152" fill="rgb(255,255,170)"/>
<text x="2140.0" y="145.0" font-family="courier" font-size="16" fill="rgb(0,0,0)">z</text>
<polygon points=" 2128,88 2162,88 2162,112 2128,112" fill="rgb(255,255,170)"/>
<text x="2130.0" y="105.0" font-family="courier" font-size="16" fill="rgb(0,0,0)">not</text>
<polygon points=" 2108,48 2132,48 2132,72 2108,72" fill="rgb(255,255,170)"/>
<text x="2110.0" y="65.0" font-family="courier" font-size="16" fill="rgb(0,0,0)">&#92;/</text>
<polygon points=" 1073,8 1097,8 1097,32 1073,32" fill="rgb(255,255,170)"/>
<text x="1075.0" y="25.0" font-family="courier" font-size="16" fill="rgb(0,0,0)">/&#92;</text></svg>