<svg xmlns="http://www.w3.org/2000/svg"
xmlns:xlink="http://www.w3.org/1999/xlink"
version="1.1" baseProfile="full"
width="1890" height="160">
<line x1="940.0" y1="20.0" x2="40.0" y2="60.0" stroke="rgb(255,0,0)" stroke-width="1.5"/>
<polygon points=" 18,48 62,48 62,72 18,72" fill="rgb(255,170,170)"/>
<text x="20.0" y="65.0" font-family="courier" font-size="16" fill="rgb(0,0,0)">true</text>
<line x1="940.0" y1="20.0" x2="80.0" y2="60.0" stroke="rgb(255,0,0)" stroke-width="1.5"/>
<line x1="80.0" y1="60.0" x2="55.0" y2="100.0" stroke="rgb(255,0,0)" stroke-width="1.5"/>
<line x1="55.0" y1="100.0" x2="55.0" y2="140.0" stroke="rgb(255,0,0)" stroke-width="1.5"/>
<polygon points=" 48,128 62,128 62,152 48,152" fill="rgb(255,170,170)"/>
<text x="50.0" y="145.0" font-family="courier" font-size="16" fill="rgb(0,0,0)">x</text>
<polygon points=" 38,88 72,88 72,112 38,112" fill="rgb(255,170,170)"/>
<text x="40.0" y="105.0" font-family="courier" font-size="16" fill="rgb(0,0,0)">not</text>
<line x1="80.0" y1="60.0" x2="85.0" y2="100.0" stroke="rgb(255,0,0)" stroke-width="1.5"/>
<polygon points=" 78,88 92,88 92,112 78,112" fill="rgb(255,170,170)"/>
<text x="80.0" y="105.0" font-family="courier" font-size="16" fill="rgb(0,0,0)">x</text>
<line x1="80.0" y1="60.0" x2="105.0" y2="100.0" stroke="rgb(255,0,0)" stroke-width="1.5"/>
<polygon points=" 98,88 112,88 112,112 98,112" fill="rgb(255,170,170)"/>
<text x="100.0" y="105.0" font-family="courier" font-size="16" fill="rgb(0,0,0)">y</text>
<polygon points=" 68,48 92,48 92,72 68,72" fill="rgb(255,170,170)"/>
<text x="70.0" y="65.0" font-family="courier" font-size="16" fill="rgb(0,0,0)">&#92;/</text>
<line x1="940.0" y1="20.0" x2="165.0" y2="60.0" stroke="rgb(255,0,0)" stroke-width="1.5"/>
<line x1="165.0" y1="60.0" x2="135.0" y2="100.0" stroke="rgb(255,0,0)" stroke-width="1.5"/>
<line x1="135.0" y1="100.0" x2="135.0" y2="140.0" stroke="rgb(255,0,0)" stroke-width="1.5"/>
<polygon points=" 128,128 142,128 142,152 128,152" fill="rgb(255,170,170)"/>
<text x="130.0" y="145.0" font-family="courier" font-size="16" fill="rgb(0,0,0)">x</text>
<polygon points=" 118,88 152,88 152,112 118,112" fill="rgb(255,170,170)"/>
<text x="120.0" y="105.0" font-family="courier" font-size="16" fill="rgb(0,0,0)">not</text>
<line x1="165.0" y1="60.0" x2="165.0" y2="100.0" stroke="rgb(255,0,0)" stroke-width="1.5"/>
<polygon points=" 158,88 172,88 172,112 158,112" fill="rgb(255,170,170)"/>
<text x="160.0" y="105.0" font-family="courier" font-size="16" fill="rgb(0,0,0)">x</text>
<line x1="165.0" y1="60.0" x2="195.0" y2="100.0" stroke="rgb(255,0,0)" stroke-width="1.5"/>
<line x1="195.0" y1="100.0" x2="195.0" y2="140.0" stroke="rgb(255,0,0)" stroke-width="1.5"/>
<polygon points=" 188,128 202,128 202,152 188,152" fill="rgb(255,170,170)"/>
<text x="190.0" y="145.0" font-family="courier" font-size="16" fill="rgb(0,0,0)">z</text>
<polygon points=" 178,88 212,88 212,112 178,112" fill="rgb(255,170,170)"/>
<text x="180.0" y="105.0" font-family="courier" font-size="16" fill="rgb(0,0,0)">not</text>
<polygon points=" 153,48 177,48 177,72 153,72" fill="rgb(255,170,170)"/>
<text x="155.0" y="65.0" font-family="courier" font-size="16" fill="rgb(0,0,0)">&#92;/</text>
<line x1="940.0" y1="20.0" x2="270.0" y2="60.0" stroke="rgb(255,0,0)" stroke-width="1.5"/>
<line x1="270.0" y1="60.0" x2="235.0" y2="100.0" stroke="rgb(255,0,0)" stroke-width="1.5"/>
<line x1="235.0" y1="100.0" x2="235.0" y2="140.0" stroke="rgb(255,0,0)" stroke-width="1.5"/>
<polygon points=" 228,128 242,128 242,152 228,152" fill="rgb(255,170,170)"/>
<text x="230.0" y="145.0" font-family="courier" font-size="16" fill="rgb(0,0,0)">x</text>
<polygon points=" 218,88 252,88 252,112 218,112" fill="rgb(255,170,170)"/>
<text x="220.0" y="105.0" font-family="courier" font-size="16" fill="rgb(0,0,0)">not</text>
<line x1="270.0" y1="60.0" x2="275.0" y2="100.0" stroke="rgb(255,0,0)" stroke-width="1.5"/>
<line x1="275.0" y1="100.0" x2="275.0" y2="140.0" stroke="rgb(255,0,0)" stroke-width="1.5"/>
<polygon points=" 268,128 282,128 282,152 268,152" fill="rgb(255,170,170)"/>
<text x="270.0" y="145.0" font-family="courier" font-size="16" fill="rgb(0,0,0)">y</text>
<polygon points=" 258,88 292,88 292,112 258,112" fill="rgb(255,170,170)"/>
<text x="260.0" y="105.0" font-family="courier" font-size="16" fill="rgb(0,0,0)">not</text>
<line x1="270.0" y1="60.0" x2="305.0" y2="100.0" stroke="rgb(255,0,0)" stroke-width="1.5"/>
<polygon points=" 298,88 312,88 312,112 298,112" fill="rgb(255,170,170)"/>
<text x="300.0" y="105.0" font-family="courier" font-size="16" fill="rgb(0,0,0)">x</text>
<polygon points=" 258,48 282,48 282,72 258,72" fill="rgb(255,170,170)"/>
<text x="260.0" y="65.0" font-family="courier" font-size="16" fill="rgb(0,0,0)">&#92;/</text>
<line x1="940.0" y1="20.0" x2="370.0" y2="60.0" stroke="rgb(255,0,0)" stroke-width="1.5"/>
<line x1="370.0" y1="60.0" x2="335.0" y2="100.0" stroke="rgb(255,0,0)" stroke-width="1.5"/>
<line x1="335.0" y1="100.0" x2="335.0" y2="140.0" stroke="rgb(255,0,0)" stroke-width="1.5"/>
<polygon points=" 328,128 342,128 342,152 328,152" fill="rgb(255,170,170)"/>
<text x="330.0" y="145.0" font-family="courier" font-size="16" fill="rgb(0,0,0)">x</text>
<polygon points=" 318,88 352,88 352,112 318,112" fill="rgb(255,170,170)"/>
<text x="320.0" y="105.0" font-family="courier" font-size="16" fill="rgb(0,0,0)">not</text>
<line x1="370.0" y1="60.0" x2="375.0" y2="100.0" stroke="rgb(255,0,0)" stroke-width="1.5"/>
<line x1="375.0" y1="100.0" x2="375.0" y2="140.0" stroke="rgb(255,0,0)" stroke-width="1.5"/>
<polygon points=" 368,128 382,128 382,152 368,152" fill="rgb(255,170,170)"/>
<text x="370.0" y="145.0" font-family="courier" font-size="16" fill="rgb(0,0,0)">y</text>
<polygon points=" 358,88 392,88 392,112 358,112" fill="rgb(255,170,170)"/>
<text x="360.0" y="105.0" font-family="courier" font-size="16" fill="rgb(0,0,0)">not</text>
<line x1="370.0" y1="60.0" x2="405.0" y2="100.0" stroke="rgb(255,0,0)" stroke-width="1.5"/>
<polygon points=" 398,88 412,88 412,112 398,112" fill="rgb(255,170,170)"/>
<text x="400.0" y="105.0" font-family="courier" font-size="16" fill="rgb(0,0,0)">y</text>
<polygon points=" 358,48 382,48 382,72 358,72" fill="rgb(255,170,170)"/>
<text x="360.0" y="65.0" font-family="courier" font-size="16" fill="rgb(0,0,0)">&#92;/</text>
<line x1="940.0" y1="20.0" x2="475.0" y2="60.0" stroke="rgb(255,0,0)" stroke-width="1.5"/>
<line x1="475.0" y1="60.0" x2="435.0" y2="100.0" stroke="rgb(255,0,0)" stroke-width="1.5"/>
<line x1="435.0" y1="100.0" x2="435.0" y2="140.0" stroke="rgb(255,0,0)" stroke-width="1.5"/>
<polygon points=" 428,128 442,128 442,152 428,152" fill="rgb(255,170,170)"/>
<text x="430.0" y="145.0" font-family="courier" font-size="16" fill="rgb(0,0,0)">x</text>
<polygon points=" 418,88 452,88 452,112 418,112" fill="rgb(255,170,170)"/>
<text x="420.0" y="105.0" font-family="courier" font-size="16" fill="rgb(0,0,0)">not</text>
<line x1="475.0" y1="60.0" x2="475.0" y2="100.0" stroke="rgb(255,0,0)" stroke-width="1.5"/>
<line x1="475.0" y1="100.0" x2="475.0" y2="140.0" stroke="rgb(255,0,0)" stroke-width="1.5"/>
<polygon points=" 468,128 482,128 482,152 468,152" fill="rgb(255,170,170)"/>
<text x="470.0" y="145.0" font-family="courier" font-size="16" fill="rgb(0,0,0)">y</text>
<polygon points=" 458,88 492,88 492,112 458,112" fill="rgb(255,170,170)"/>
<text x="460.0" y="105.0" font-family="courier" font-size="16" fill="rgb(0,0,0)">not</text>
<line x1="475.0" y1="60.0" x2="515.0" y2="100.0" stroke="rgb(255,0,0)" stroke-width="1.5"/>
<line x1="515.0" y1="100.0" x2="515.0" y2="140.0" stroke="rgb(255,0,0)" stroke-width="1.5"/>
<polygon points=" 508,128 522,128 522,152 508,152" fill="rgb(255,170,170)"/>
<text x="510.0" y="145.0" font-family="courier" font-size="16" fill="rgb(0,0,0)">z</text>
<polygon points=" 498,88 532,88 532,112 498,112" fill="rgb(255,170,170)"/>
<text x="500.0" y="105.0" font-family="courier" font-size="16" fill="rgb(0,0,0)">not</text>
<polygon points=" 463,48 487,48 487,72 463,72" fill="rgb(255,170,170)"/>
<text x="465.0" y="65.0" font-family="courier" font-size="16" fill="rgb(0,0,0)">&#92;/</text>
<line x1="940.0" y1="20.0" x2="580.0" y2="60.0" stroke="rgb(255,0,0)" stroke-width="1.5"/>
<line x1="580.0" y1="60.0" x2="555.0" y2="100.0" stroke="rgb(255,0,0)" stroke-width="1.5"/>
<line x1="555.0" y1="100.0" x2="555.0" y2="140.0" stroke="rgb(255,0,0)" stroke-width="1.5"/>
<polygon points=" 548,128 562,128 562,152 548,152" fill="rgb(255,170,170)"/>
<text x="550.0" y="145.0" font-family="courier" font-size="16" fill="rgb(0,0,0)">x</text>
<polygon points=" 538,88 572,88 572,112 538,112" fill="rgb(255,170,170)"/>
<text x="540.0" y="105.0" font-family="courier" font-size="16" fill="rgb(0,0,0)">not</text>
<line x1="580.0" y1="60.0" x2="585.0" y2="100.0" stroke="rgb(255,0,0)" stroke-width="1.5"/>
<polygon points=" 578,88 592,88 592,112 578,112" fill="rgb(255,170,170)"/>
<text x="580.0" y="105.0" font-family="courier" font-size="16" fill="rgb(0,0,0)">z</text>
<line x1="580.0" y1="60.0" x2="605.0" y2="100.0" stroke="rgb(255,0,0)" stroke-width="1.5"/>
<polygon points=" 598,88 612,88 612,112 598,112" fill="rgb(255,170,170)"/>
<text x="600.0" y="105.0" font-family="courier" font-size="16" fill="rgb(0,0,0)">x</text>
<polygon points=" 568,48 592,48 592,72 568,72" fill="rgb(255,170,170)"/>
<text x="570.0" y="65.0" font-family="courier" font-size="16" fill="rgb(0,0,0)">&#92;/</text>
<line x1="940.0" y1="20.0" x2="660.0" y2="60.0" stroke="rgb(255,0,0)" stroke-width="1.5"/>
<line x1="660.0" y1="60.0" x2="635.0" y2="100.0" stroke="rgb(255,0,0)" stroke-width="1.5"/>
<line x1="635.0" y1="100.0" x2="635.0" y2="140.0" stroke="rgb(255,0,0)" stroke-width="1.5"/>
<polygon points=" 628,128 642,128 642,152 628,152" fill="rgb(255,170,170)"/>
<text x="630.0" y="145.0" font-family="courier" font-size="16" fill="rgb(0,0,0)">x</text>
<polygon points=" 618,88 652,88 652,112 618,112" fill="rgb(255,170,170)"/>
<text x="620.0" y="105.0" font-family="courier" font-size="16" fill="rgb(0,0,0)">not</text>
<line x1="660.0" y1="60.0" x2="665.0" y2="100.0" stroke="rgb(255,0,0)" stroke-width="1.5"/>
<polygon points=" 658,88 672,88 672,112 658,112" fill="rgb(255,170,170)"/>
<text x="660.0" y="105.0" font-family="courier" font-size="16" fill="rgb(0,0,0)">z</text>
<line x1="660.0" y1="60.0" x2="685.0" y2="100.0" stroke="rgb(255,0,0)" stroke-width="1.5"/>
<polygon points=" 678,88 692,88 692,112 678,112" fill="rgb(255,170,170)"/>
<text x="680.0" y="105.0" font-family="courier" font-size="16" fill="rgb(0,0,0)">y</text>
<polygon points=" 648,48 672,48 672,72 648,72" fill="rgb(255,170,170)"/>
<text x="650.0" y="65.0" font-family="courier" font-size="16" fill="rgb(0,0,0)">&#92;/</text>
<line x1="940.0" y1="20.0" x2="745.0" y2="60.0" stroke="rgb(255,0,0)" stroke-width="1.5"/>
<line x1="745.0" y1="60.0" x2="715.0" y2="100.0" stroke="rgb(255,0,0)" stroke-width="1.5"/>
<line x1="715.0" y1="100.0" x2="715.0" y2="140.0" stroke="rgb(255,0,0)" stroke-width="1.5"/>
<polygon points=" 708,128 722,128 722,152 708,152" fill="rgb(255,170,170)"/>
<text x="710.0" y="145.0" font-family="courier" font-size="16" fill="rgb(0,0,0)">x</text>
<polygon points=" 698,88 732,88 732,112 698,112" fill="rgb(255,170,170)"/>
<text x="700.0" y="105.0" font-family="courier" font-size="16" fill="rgb(0,0,0)">not</text>
<line x1="745.0" y1="60.0" x2="745.0" y2="100.0" stroke="rgb(255,0,0)" stroke-width="1.5"/>
<polygon points=" 738,88 752,88 752,112 738,112" fill="rgb(255,170,170)"/>
<text x="740.0" y="105.0" font-family="courier" font-size="16" fill="rgb(0,0,0)">z</text>
<line x1="745.0" y1="60.0" x2="775.0" y2="100.0" stroke="rgb(255,0,0)" stroke-width="1.5"/>
<line x1="775.0" y1="100.0" x2="775.0" y2="140.0" stroke="rgb(255,0,0)" stroke-width="1.5"/>
<polygon points=" 768,128 782,128 782,152 768,152" fill="rgb(255,170,170)"/>
<text x="770.0" y="145.0" font-family="courier" font-size="16" fill="rgb(0,0,0)">z</text>
<polygon points=" 758,88 792,88 792,112 758,112" fill="rgb(255,170,170)"/>
<text x="760.0" y="105.0" font-family="courier" font-size="16" fill="rgb(0,0,0)">not</text>
<polygon points=" 733,48 757,48 757,72 733,72" fill="rgb(255,170,170)"/>
<text x="735.0" y="65.0" font-family="courier" font-size="16" fill="rgb(0,0,0)">&#92;/</text>
<line x1="940.0" y1="20.0" x2="815.0" y2="60.0" stroke="rgb(255,0,0)" stroke-width="1.5"/>
<line x1="815.0" y1="60.0" x2="805.0" y2="100.0" stroke="rgb(255,0,0)" stroke-width="1.5"/>
<polygon points=" 798,88 812,88 812,112 798,112" fill="rgb(255,170,170)"/>
<text x="800.0" y="105.0" font-family="courier" font-size="16" fill="rgb(0,0,0)">y</text>
<line x1="815.0" y1="60.0" x2="825.0" y2="100.0" stroke="rgb(255,0,0)" stroke-width="1.5"/>
<polygon points=" 818,88 832,88 832,112 818,112" fill="rgb(255,170,170)"/>
<text x="820.0" y="105.0" font-family="courier" font-size="16" fill="rgb(0,0,0)">x</text>
<polygon points=" 803,48 827,48 827,72 803,72" fill="rgb(255,170,170)"/>
<text x="805.0" y="65.0" font-family="courier" font-size="16" fill="rgb(0,0,0)">&#92;/</text>
<line x1="940.0" y1="20.0" x2="870.0" y2="60.0" stroke="rgb(255,0,0)" stroke-width="1.5"/>
<line x1="870.0" y1="60.0" x2="845.0" y2="100.0" stroke="rgb(255,0,0)" stroke-width="1.5"/>
<polygon points=" 838,88 852,88 852,112 838,112" fill="rgb(255,170,170)"/>
<text x="840.0" y="105.0" font-family="courier" font-size="16" fill="rgb(0,0,0)">y</text>
<line x1="870.0" y1="60.0" x2="865.0" y2="100.0" stroke="rgb(255,0,0)" stroke-width="1.5"/>
<polygon points=" 858,88 872,88 872,112 858,112" fill="rgb(255,170,170)"/>
<text x="860.0" y="105.0" font-family="courier" font-size="16" fill="rgb(0,0,0)">x</text>
<line x1="870.0" y1="60.0" x2="895.0" y2="100.0" stroke="rgb(255,0,0)" stroke-width="1.5"/>
<line x1="895.0" y1="100.0" x2="895.0" y2="140.0" stroke="rgb(255,0,0)" stroke-width="1.5"/>
<polygon points=" 888,128 902,128 902,152 888,152" fill="rgb(255,170,170)"/>
<text x="890.0" y="145.0" font-family="courier" font-size="16" fill="rgb(0,0,0)">z</text>
<polygon points=" 878,88 912,88 912,112 878,112" fill="rgb(255,170,170)"/>
<text x="880.0" y="105.0" font-family="courier" font-size="16" fill="rgb(0,0,0)">not</text>
<polygon points=" 858,48 882,48 882,72 858,72" fill="rgb(255,170,170)"/>
<text x="860.0" y="65.0" font-family="courier" font-size="16" fill="rgb(0,0,0)">&#92;/</text>
<line x1="940.0" y1="20.0" x2="955.0" y2="60.0" stroke="rgb(255,0,0)" stroke-width="1.5"/>
<line x1="955.0" y1="60.0" x2="925.0" y2="100.0" stroke="rgb(255,0,0)" stroke-width="1.5"/>
<polygon points=" 918,88 932,88 932,112 918,112" fill="rgb(255,170,170)"/>
<text x="920.0" y="105.0" font-family="courier" font-size="16" fill="rgb(0,0,0)">y</text>
<line x1="955.0" y1="60.0" x2="955.0" y2="100.0" stroke="rgb(255,0,0)" stroke-width="1.5"/>
<line x1="955.0" y1="100.0" x2="955.0" y2="140.0" stroke="rgb(255,0,0)" stroke-width="1.5"/>
<polygon points=" 948,128 962,128 962,152 948,152" fill="rgb(255,170,170)"/>
<text x="950.0" y="145.0" font-family="courier" font-size="16" fill="rgb(0,0,0)">y</text>
<polygon points=" 938,88 972,88 972,112 938,112" fill="rgb(255,170,170)"/>
<text x="940.0" y="105.0" font-family="courier" font-size="16" fill="rgb(0,0,0)">not</text>
<line x1="955.0" y1="60.0" x2="985.0" y2="100.0" stroke="rgb(255,0,0)" stroke-width="1.5"/>
<polygon points=" 978,88 992,88 992,112 978,112" fill="rgb(255,170,170)"/>
<text x="980.0" y="105.0" font-family="courier" font-size="16" fill="rgb(0,0,0)">x</text>
<polygon points=" 943,48 967,48 967,72 943,72" fill="rgb(255,170,170)"/>
<text x="945.0" y="65.0" font-family="courier" font-size="16" fill="rgb(0,0,0)">&#92;/</text>
<line x1="940.0" y1="20.0" x2="1020.0" y2="60.0" stroke="rgb(255,0,0)" stroke-width="1.5"/>
<line x1="1020.0" y1="60.0" x2="1005.0" y2="100.0" stroke="rgb(255,0,0)" stroke-width="1.5"/>
<polygon points=" 998,88 1012,88 1012,112 998,112" fill="rgb(255,170,170)"/>
<text x="1000.0" y="105.0" font-family="courier" font-size="16" fill="rgb(0,0,0)">y</text>
<line x1="1020.0" y1="60.0" x2="1035.0" y2="100.0" stroke="rgb(255,0,0)" stroke-width="1.5"/>
<line x1="1035.0" y1="100.0" x2="1035.0" y2="140.0" stroke="rgb(255,0,0)" stroke-width="1.5"/>
<polygon points=" 1028,128 1042,128 1042,152 1028,152" fill="rgb(255,170,170)"/>
<text x="1030.0" y="145.0" font-family="courier" font-size="16" fill="rgb(0,0,0)">y</text>
<polygon points=" 1018,88 1052,88 1052,112 1018,112" fill="rgb(255,170,170)"/>
<text x="1020.0" y="105.0" font-family="courier" font-size="16" fill="rgb(0,0,0)">not</text>
<polygon points=" 1008,48 1032,48 1032,72 1008,72" fill="rgb(255,170,170)"/>
<text x="1010.0" y="65.0" font-family="courier" font-size="16" fill="rgb(0,0,0)">&#92;/</text>
<line x1="940.0" y1="20.0" x2="1100.0" y2="60.0" stroke="rgb(255,0,0)" stroke-width="1.5"/>
<line x1="1100.0" y1="60.0" x2="1065.0" y2="100.0" stroke="rgb(255,0,0)" stroke-width="1.5"/>
<polygon points=" 1058,88 1072,88 1072,112 1058,112" fill="rgb(255,170,170)"/>
<text x="1060.0" y="105.0" font-family="courier" font-size="16" fill="rgb(0,0,0)">y</text>
<line x1="1100.0" y1="60.0" x2="1095.0" y2="100.0" stroke="rgb(255,0,0)" stroke-width="1.5"/>
<line x1="1095.0" y1="100.0" x2="1095.0" y2="140.0" stroke="rgb(255,0,0)" stroke-width="1.5"/>
<polygon points=" 1088,128 1102,128 1102,152 1088,152" fill="rgb(255,170,170)"/>
<text x="1090.0" y="145.0" font-family="courier" font-size="16" fill="rgb(0,0,0)">y</text>
<polygon points=" 1078,88 1112,88 1112,112 1078,112" fill="rgb(255,170,170)"/>
<text x="1080.0" y="105.0" font-family="courier" font-size="16" fill="rgb(0,0,0)">not</text>
<line x1="1100.0" y1="60.0" x2="1135.0" y2="100.0" stroke="rgb(255,0,0)" stroke-width="1.5"/>
<line x1="1135.0" y1="100.0" x2="1135.0" y2="140.0" stroke="rgb(255,0,0)" stroke-width="1.5"/>
<polygon points=" 1128,128 1142,128 1142,152 1128,152" fill="rgb(255,170,170)"/>
<text x="1130.0" y="145.0" font-family="courier" font-size="16" fill="rgb(0,0,0)">z</text>
<polygon points=" 1118,88 1152,88 1152,112 1118,112" fill="rgb(255,170,170)"/>
<text x="1120.0" y="105.0" font-family="courier" font-size="16" fill="rgb(0,0,0)">not</text>
<polygon points=" 1088,48 1112,48 1112,72 1088,72" fill="rgb(255,170,170)"/>
<text x="1090.0" y="65.0" font-family="courier" font-size="16" fill="rgb(0,0,0)">&#92;/</text>
<line x1="940.0" y1="20.0" x2="1185.0" y2="60.0" stroke="rgb(255,0,0)" stroke-width="1.5"/>
<line x1="1185.0" y1="60.0" x2="1165.0" y2="100.0" stroke="rgb(255,0,0)" stroke-width="1.5"/>
<polygon points=" 1158,88 1172,88 1172,112 1158,112" fill="rgb(255,170,170)"/>
<text x="1160.0" y="105.0" font-family="courier" font-size="16" fill="rgb(0,0,0)">y</text>
<line x1="1185.0" y1="60.0" x2="1185.0" y2="100.0" stroke="rgb(255,0,0)" stroke-width="1.5"/>
<polygon points=" 1178,88 1192,88 1192,112 1178,112" fill="rgb(255,170,170)"/>
<text x="1180.0" y="105.0" font-family="courier" font-size="16" fill="rgb(0,0,0)">z</text>
<line x1="1185.0" y1="60.0" x2="1205.0" y2="100.0" stroke="rgb(255,0,0)" stroke-width="1.5"/>
<polygon points=" 1198,88 1212,88 1212,112 1198,112" fill="rgb(255,170,170)"/>
<text x="1200.0" y="105.0" font-family="courier" font-size="16" fill="rgb(0,0,0)">x</text>
<polygon points=" 1173,48 1197,48 1197,72 1173,72" fill="rgb(255,170,170)"/>
<text x="1175.0" y="65.0" font-family="courier" font-size="16" fill="rgb(0,0,0)">&#92;/</text>
<line x1="940.0" y1="20.0" x2="1235.0" y2="60.0" stroke="rgb(255,0,0)" stroke-width="1.5"/>
<line x1="1235.0" y1="60.0" x2="1225.0" y2="100.0" stroke="rgb(255,0,0)" stroke-width="1.5"/>
<polygon points=" 1218,88 1232,88 1232,112 1218,112" fill="rgb(255,170,170)"/>
<text x="1220.0" y="105.0" font-family="courier" font-size="16" fill="rgb(0,0,0)">y</text>
<line x1="1235.0" y1="60.0" x2="1245.0" y2="100.0" stroke="rgb(255,0,0)" stroke-width="1.5"/>
<polygon points=" 1238,88 1252,88 1252,112 1238,112" fill="rgb(255,170,170)"/>
<text x="1240.0" y="105.0" font-family="courier" font-size="16" fill="rgb(0,0,0)">z</text>
<polygon points=" 1223,48 1247,48 1247,72 1223,72" fill="rgb(255,170,170)"/>
<text x="1225.0" y="65.0" font-family="courier" font-size="16" fill="rgb(0,0,0)">&#92;/</text>
<line x1="940.0" y1="20.0" x2="1290.0" y2="60.0" stroke="rgb(255,0,0)" stroke-width="1.5"/>
<line x1="1290.0" y1="60.0" x2="1265.0" y2="100.0" stroke="rgb(255,0,0)" stroke-width="1.5"/>
<polygon points=" 1258,88 1272,88 1272,112 1258,112" fill="rgb(255,170,170)"/>
<text x="1260.0" y="105.0" font-family="courier" font-size="16" fill="rgb(0,0,0)">y</text>
<line x1="1290.0" y1="60.0" x2="1285.0" y2="100.0" stroke="rgb(255,0,0)" stroke-width="1.5"/>
<polygon points=" 1278,88 1292,88 1292,112 1278,112" fill="rgb(255,170,170)"/>
<text x="1280.0" y="105.0" font-family="courier" font-size="16" fill="rgb(0,0,0)">z</text>
<line x1="1290.0" y1="60.0" x2="1315.0" y2="100.0" stroke="rgb(255,0,0)" stroke-width="1.5"/>
<line x1="1315.0" y1="100.0" x2="1315.0" y2="140.0" stroke="rgb(255,0,0)" stroke-width="1.5"/>
<polygon points=" 1308,128 1322,128 1322,152 1308,152" fill="rgb(255,170,170)"/>
<text x="1310.0" y="145.0" font-family="courier" font-size="16" fill="rgb(0,0,0)">z</text>
<polygon points=" 1298,88 1332,88 1332,112 1298,112" fill="rgb(255,170,170)"/>
<text x="1300.0" y="105.0" font-family="courier" font-size="16" fill="rgb(0,0,0)">not</text>
<polygon points=" 1278,48 1302,48 1302,72 1278,72" fill="rgb(255,170,170)"/>
<text x="1280.0" y="65.0" font-family="courier" font-size="16" fill="rgb(0,0,0)">&#92;/</text>
<line x1="940.0" y1="20.0" x2="1355.0" y2="60.0" stroke="rgb(255,0,0)" stroke-width="1.5"/>
<line x1="1355.0" y1="60.0" x2="1345.0" y2="100.0" stroke="rgb(255,0,0)" stroke-width="1.5"/>
<polygon points=" 1338,88 1352,88 1352,112 1338,112" fill="rgb(255,170,170)"/>
<text x="1340.0" y="105.0" font-family="courier" font-size="16" fill="rgb(0,0,0)">z</text>
<line x1="1355.0" y1="60.0" x2="1365.0" y2="100.0" stroke="rgb(255,0,0)" stroke-width="1.5"/>
<polygon points=" 1358,88 1372,88 1372,112 1358,112" fill="rgb(255,170,170)"/>
<text x="1360.0" y="105.0" font-family="courier" font-size="16" fill="rgb(0,0,0)">x</text>
<polygon points=" 1343,48 1367,48 1367,72 1343,72" fill="rgb(255,170,170)"/>
<text x="1345.0" y="65.0" font-family="courier" font-size="16" fill="rgb(0,0,0)">&#92;/</text>
<line x1="940.0" y1="20.0" x2="1405.0" y2="60.0" stroke="rgb(255,0,0)" stroke-width="1.5"/>
<line x1="1405.0" y1="60.0" x2="1385.0" y2="100.0" stroke="rgb(255,0,0)" stroke-width="1.5"/>
<polygon points=" 1378,88 1392,88 1392,112 1378,112" fill="rgb(255,170,170)"/>
<text x="1380.0" y="105.0" font-family="courier" font-size="16" fill="rgb(0,0,0)">z</text>
<line x1="1405.0" y1="60.0" x2="1405.0" y2="100.0" stroke="rgb(255,0,0)" stroke-width="1.5"/>
<polygon points=" 1398,88 1412,88 1412,112 1398,112" fill="rgb(255,170,170)"/>
<text x="1400.0" y="105.0" font-family="courier" font-size="16" fill="rgb(0,0,0)">x</text>
<line x1="1405.0" y1="60.0" x2="1425.0" y2="100.0" stroke="rgb(255,0,0)" stroke-width="1.5"/>
<polygon points=" 1418,88 1432,88 1432,112 1418,112" fill="rgb(255,170,170)"/>
<text x="1420.0" y="105.0" font-family="courier" font-size="16" fill="rgb(0,0,0)">y</text>
<polygon points=" 1393,48 1417,48 1417,72 1393,72" fill="rgb(255,170,170)"/>
<text x="1395.0" y="65.0" font-family="courier" font-size="16" fill="rgb(0,0,0)">&#92;/</text>
<line x1="940.0" y1="20.0" x2="1470.0" y2="60.0" stroke="rgb(255,0,0)" stroke-width="1.5"/>
<line x1="1470.0" y1="60.0" x2="1445.0" y2="100.0" stroke="rgb(255,0,0)" stroke-width="1.5"/>
<polygon points=" 1438,88 1452,88 1452,112 1438,112" fill="rgb(255,170,170)"/>
<text x="1440.0" y="105.0" font-family="courier" font-size="16" fill="rgb(0,0,0)">z</text>
<line x1="1470.0" y1="60.0" x2="1465.0" y2="100.0" stroke="rgb(255,0,0)" stroke-width="1.5"/>
<polygon points=" 1458,88 1472,88 1472,112 1458,112" fill="rgb(255,170,170)"/>
<text x="1460.0" y="105.0" font-family="courier" font-size="16" fill="rgb(0,0,0)">x</text>
<line x1="1470.0" y1="60.0" x2="1495.0" y2="100.0" stroke="rgb(255,0,0)" stroke-width="1.5"/>
<line x1="1495.0" y1="100.0" x2="1495.0" y2="140.0" stroke="rgb(255,0,0)" stroke-width="1.5"/>
<polygon points=" 1488,128 1502,128 1502,152 1488,152" fill="rgb(255,170,170)"/>
<text x="1490.0" y="145.0" font-family="courier" font-size="16" fill="rgb(0,0,0)">z</text>
<polygon points=" 1478,88 1512,88 1512,112 1478,112" fill="rgb(255,170,170)"/>
<text x="1480.0" y="105.0" font-family="courier" font-size="16" fill="rgb(0,0,0)">not</text>
<polygon points=" 1458,48 1482,48 1482,72 1458,72" fill="rgb(255,170,170)"/>
<text x="1460.0" y="65.0" font-family="courier" font-size="16" fill="rgb(0,0,0)">&#92;/</text>
<line x1="940.0" y1="20.0" x2="1555.0" y2="60.0" stroke="rgb(255,0,0)" stroke-width="1.5"/>
<line x1="1555.0" y1="60.0" x2="1525.0" y2="100.0" stroke="rgb(255,0,0)" stroke-width="1.5"/>
<polygon points=" 1518,88 1532,88 1532,112 1518,112" fill="rgb(255,170,170)"/>
<text x="1520.0" y="105.0" font-family="courier" font-size="16" fill="rgb(0,0,0)">z</text>
<line x1="1555.0" y1="60.0" x2="1555.0" y2="100.0" stroke="rgb(255,0,0)" stroke-width="1.5"/>
<line x1="1555.0" y1="100.0" x2="1555.0" y2="140.0" stroke="rgb(255,0,0)" stroke-width="1.5"/>
<polygon points=" 1548,128 1562,128 1562,152 1548,152" fill="rgb(255,170,170)"/>
<text x="1550.0" y="145.0" font-family="courier" font-size="16" fill="rgb(0,0,0)">y</text>
<polygon points=" 1538,88 1572,88 1572,112 1538,112" fill="rgb(255,170,170)"/>
<text x="1540.0" y="105.0" font-family="courier" font-size="16" fill="rgb(0,0,0)">not</text>
<line x1="1555.0" y1="60.0" x2="1585.0" y2="100.0" stroke="rgb(255,0,0)" stroke-width="1.5"/>
<polygon points=" 1578,88 1592,88 1592,112 1578,112" fill="rgb(255,170,170)"/>
<text x="1580.0" y="105.0" font-family="courier" font-size="16" fill="rgb(0,0,0)">x</text>
<polygon points=" 1543,48 1567,48 1567,72 1543,72" fill="rgb(255,170,170)"/>
<text x="1545.0" y="65.0" font-family="courier" font-size="16" fill="rgb(0,0,0)">&#92;/</text>
<line x1="940.0" y1="20.0" x2="1635.0" y2="60.0" stroke="rgb(255,0,0)" stroke-width="1.5"/>
<line x1="1635.0" y1="60.0" x2="1605.0" y2="100.0" stroke="rgb(255,0,0)" stroke-width="1.5"/>
<polygon points=" 1598,88 1612,88 1612,112 1598,112" fill="rgb(255,170,170)"/>
<text x="1600.0" y="105.0" font-family="courier" font-size="16" fill="rgb(0,0,0)">z</text>
<line x1="1635.0" y1="60.0" x2="1635.0" y2="100.0" stroke="rgb(255,0,0)" stroke-width="1.5"/>
<line x1="1635.0" y1="100.0" x2="1635.0" y2="140.0" stroke="rgb(255,0,0)" stroke-width="1.5"/>
<polygon points=" 1628,128 1642,128 1642,152 1628,152" fill="rgb(255,170,170)"/>
<text x="1630.0" y="145.0" font-family="courier" font-size="16" fill="rgb(0,0,0)">y</text>
<polygon points=" 1618,88 1652,88 1652,112 1618,112" fill="rgb(255,170,170)"/>
<text x="1620.0" y="105.0" font-family="courier" font-size="16" fill="rgb(0,0,0)">not</text>
<line x1="1635.0" y1="60.0" x2="1665.0" y2="100.0" stroke="rgb(255,0,0)" stroke-width="1.5"/>
<polygon points=" 1658,88 1672,88 1672,112 1658,112" fill="rgb(255,170,170)"/>
<text x="1660.0" y="105.0" font-family="courier" font-size="16" fill="rgb(0,0,0)">y</text>
<polygon points=" 1623,48 1647,48 1647,72 1623,72" fill="rgb(255,170,170)"/>
<text x="1625.0" y="65.0" font-family="courier" font-size="16" fill="rgb(0,0,0)">&#92;/</text>
<line x1="940.0" y1="20.0" x2="1720.0" y2="60.0" stroke="rgb(255,0,0)" stroke-width="1.5"/>
<line x1="1720.0" y1="60.0" x2="1685.0" y2="100.0" stroke="rgb(255,0,0)" stroke-width="1.5"/>
<polygon points=" 1678,88 1692,88 1692,112 1678,112" fill="rgb(255,170,170)"/>
<text x="1680.0" y="105.0" font-family="courier" font-size="16" fill="rgb(0,0,0)">z</text>
<line x1="1720.0" y1="60.0" x2="1715.0" y2="100.0" stroke="rgb(255,0,0)" stroke-width="1.5"/>
<line x1="1715.0" y1="100.0" x2="1715.0" y2="140.0" stroke="rgb(255,0,0)" stroke-width="1.5"/>
<polygon points=" 1708,128 1722,128 1722,152 1708,152" fill="rgb(255,170,170)"/>
<text x="1710.0" y="145.0" font-family="courier" font-size="16" fill="rgb(0,0,0)">y</text>
<polygon points=" 1698,88 1732,88 1732,112 1698,112" fill="rgb(255,170,170)"/>
<text x="1700.0" y="105.0" font-family="courier" font-size="16" fill="rgb(0,0,0)">not</text>
<line x1="1720.0" y1="60.0" x2="1755.0" y2="100.0" stroke="rgb(255,0,0)" stroke-width="1.5"/>
<line x1="1755.0" y1="100.0" x2="1755.0" y2="140.0" stroke="rgb(255,0,0)" stroke-width="1.5"/>
<polygon points=" 1748,128 1762,128 1762,152 1748,152" fill="rgb(255,170,170)"/>
<text x="1750.0" y="145.0" font-family="courier" font-size="16" fill="rgb(0,0,0)">z</text>
<polygon points=" 1738,88 1772,88 1772,112 1738,112" fill="rgb(255,170,170)"/>
<text x="1740.0" y="105.0" font-family="courier" font-size="16" fill="rgb(0,0,0)">not</text>
<polygon points=" 1708,48 1732,48 1732,72 1708,72" fill="rgb(255,170,170)"/>
<text x="1710.0" y="65.0" font-family="courier" font-size="16" fill="rgb(0,0,0)">&#92;/</text>
<line x1="940.0" y1="20.0" x2="1795.0" y2="60.0" stroke="rgb(255,0,0)" stroke-width="1.5"/>
<line x1="1795.0" y1="60.0" x2="1785.0" y2="100.0" stroke="rgb(255,0,0)" stroke-width="1.5"/>
<polygon points=" 1778,88 1792,88 1792,112 1778,112" fill="rgb(255,170,170)"/>
<text x="1780.0" y="105.0" font-family="courier" font-size="16" fill="rgb(0,0,0)">z</text>
<line x1="1795.0" y1="60.0" x2="1805.0" y2="100.0" stroke="rgb(255,0,0)" stroke-width="1.5"/>
<polygon points=" 1798,88 1812,88 1812,112 1798,112" fill="rgb(255,170,170)"/>
<text x="1800.0" y="105.0" font-family="courier" font-size="16" fill="rgb(0,0,0)">y</text>
<polygon points=" 1783,48 1807,48 1807,72 1783,72" fill="rgb(255,170,170)"/>
<text x="1785.0" y="65.0" font-family="courier" font-size="16" fill="rgb(0,0,0)">&#92;/</text>
<line x1="940.0" y1="20.0" x2="1840.0" y2="60.0" stroke="rgb(255,0,0)" stroke-width="1.5"/>
<line x1="1840.0" y1="60.0" x2="1825.0" y2="100.0" stroke="rgb(255,0,0)" stroke-width="1.5"/>
<polygon points=" 1818,88 1832,88 1832,112 1818,112" fill="rgb(255,170,170)"/>
<text x="1820.0" y="105.0" font-family="courier" font-size="16" fill="rgb(0,0,0)">z</text>
<line x1="1840.0" y1="60.0" x2="1855.0" y2="100.0" stroke="rgb(255,0,0)" stroke-width="1.5"/>
<line x1="1855.0" y1="100.0" x2="1855.0" y2="140.0" stroke="rgb(255,0,0)" stroke-width="1.5"/>
<polygon points=" 1848,128 1862,128 1862,152 1848,152" fill="rgb(255,170,170)"/>
<text x="1850.0" y="145.0" font-family="courier" font-size="16" fill="rgb(0,0,0)">z</text>
<polygon points=" 1838,88 1872,88 1872,112 1838,112" fill="rgb(255,170,170)"/>
<text x="1840.0" y="105.0" font-family="courier" font-size="16" fill="rgb(0,0,0)">not</text>
<polygon points=" 1828,48 1852,48 1852,72 1828,72" fill="rgb(255,170,170)"/>
<text x="1830.0" y="65.0" font-family="courier" font-size="16" fill="rgb(0,0,0)">&#92;/</text>
<polygon points=" 928,8 952,8 952,32 928,32" fill="rgb(255,170,170)"/>
<text x="930.0" y="25.0" font-family="courier" font-size="16" fill="rgb(0,0,0)">/&#92;</text></svg>