<svg xmlns="http://www.w3.org/2000/svg"
xmlns:xlink="http://www.w3.org/1999/xlink"
version="1.1" baseProfile="full"
width="1805" height="160">
<line x1="897.5" y1="20.0" x2="40.0" y2="60.0" stroke="rgb(255,0,0)" stroke-width="1.5"/>
<polygon points=" 18,48 62,48 62,72 18,72" fill="rgb(170,255,170)"/>
<text x="20.0" y="65.0" font-family="courier" font-size="16" fill="rgb(0,0,0)">true</text>
<line x1="897.5" y1="20.0" x2="80.0" y2="60.0" stroke="rgb(255,0,0)" stroke-width="1.5"/>
<line x1="80.0" y1="60.0" x2="50.0" y2="100.0" stroke="rgb(255,0,0)" stroke-width="1.5"/>
<line x1="50.0" y1="100.0" x2="50.0" y2="140.0" stroke="rgb(255,0,0)" stroke-width="1.5"/>
<polygon points=" 43,128 57,128 57,152 43,152" fill="rgb(255,255,170)"/>
<text x="45.0" y="145.0" font-family="courier" font-size="16" fill="rgb(0,0,0)">x</text>
<polygon points=" 33,88 67,88 67,112 33,112" fill="rgb(255,255,170)"/>
<text x="35.0" y="105.0" font-family="courier" font-size="16" fill="rgb(0,0,0)">not</text>
<line x1="80.0" y1="60.0" x2="80.0" y2="100.0" stroke="rgb(255,0,0)" stroke-width="1.5"/>
<polygon points=" 73,88 87,88 87,112 73,112" fill="rgb(255,255,170)"/>
<text x="75.0" y="105.0" font-family="courier" font-size="16" fill="rgb(0,0,0)">x</text>
<line x1="80.0" y1="60.0" x2="110.0" y2="100.0" stroke="rgb(255,0,0)" stroke-width="1.5"/>
<line x1="110.0" y1="100.0" x2="110.0" y2="140.0" stroke="rgb(255,0,0)" stroke-width="1.5"/>
<polygon points=" 103,128 117,128 117,152 103,152" fill="rgb(255,255,170)"/>
<text x="105.0" y="145.0" font-family="courier" font-size="16" fill="rgb(0,0,0)">z</text>
<polygon points=" 93,88 127,88 127,112 93,112" fill="rgb(255,255,170)"/>
<text x="95.0" y="105.0" font-family="courier" font-size="16" fill="rgb(0,0,0)">not</text>
<polygon points=" 68,48 92,48 92,72 68,72" fill="rgb(255,255,170)"/>
<text x="70.0" y="65.0" font-family="courier" font-size="16" fill="rgb(0,0,0)">&#92;/</text>
<line x1="897.5" y1="20.0" x2="185.0" y2="60.0" stroke="rgb(255,0,0)" stroke-width="1.5"/>
<line x1="185.0" y1="60.0" x2="150.0" y2="100.0" stroke="rgb(255,0,0)" stroke-width="1.5"/>
<line x1="150.0" y1="100.0" x2="150.0" y2="140.0" stroke="rgb(255,0,0)" stroke-width="1.5"/>
<polygon points=" 143,128 157,128 157,152 143,152" fill="rgb(255,255,170)"/>
<text x="145.0" y="145.0" font-family="courier" font-size="16" fill="rgb(0,0,0)">x</text>
<polygon points=" 133,88 167,88 167,112 133,112" fill="rgb(255,255,170)"/>
<text x="135.0" y="105.0" font-family="courier" font-size="16" fill="rgb(0,0,0)">not</text>
<line x1="185.0" y1="60.0" x2="190.0" y2="100.0" stroke="rgb(255,0,0)" stroke-width="1.5"/>
<line x1="190.0" y1="100.0" x2="190.0" y2="140.0" stroke="rgb(255,0,0)" stroke-width="1.5"/>
<polygon points=" 183,128 197,128 197,152 183,152" fill="rgb(255,255,170)"/>
<text x="185.0" y="145.0" font-family="courier" font-size="16" fill="rgb(0,0,0)">y</text>
<polygon points=" 173,88 207,88 207,112 173,112" fill="rgb(255,255,170)"/>
<text x="175.0" y="105.0" font-family="courier" font-size="16" fill="rgb(0,0,0)">not</text>
<line x1="185.0" y1="60.0" x2="220.0" y2="100.0" stroke="rgb(255,0,0)" stroke-width="1.5"/>
<polygon points=" 213,88 227,88 227,112 213,112" fill="rgb(255,255,170)"/>
<text x="215.0" y="105.0" font-family="courier" font-size="16" fill="rgb(0,0,0)">x</text>
<polygon points=" 173,48 197,48 197,72 173,72" fill="rgb(255,255,170)"/>
<text x="175.0" y="65.0" font-family="courier" font-size="16" fill="rgb(0,0,0)">&#92;/</text>
<line x1="897.5" y1="20.0" x2="285.0" y2="60.0" stroke="rgb(255,0,0)" stroke-width="1.5"/>
<line x1="285.0" y1="60.0" x2="250.0" y2="100.0" stroke="rgb(255,0,0)" stroke-width="1.5"/>
<line x1="250.0" y1="100.0" x2="250.0" y2="140.0" stroke="rgb(255,0,0)" stroke-width="1.5"/>
<polygon points=" 243,128 257,128 257,152 243,152" fill="rgb(255,255,170)"/>
<text x="245.0" y="145.0" font-family="courier" font-size="16" fill="rgb(0,0,0)">x</text>
<polygon points=" 233,88 267,88 267,112 233,112" fill="rgb(255,255,170)"/>
<text x="235.0" y="105.0" font-family="courier" font-size="16" fill="rgb(0,0,0)">not</text>
<line x1="285.0" y1="60.0" x2="290.0" y2="100.0" stroke="rgb(255,0,0)" stroke-width="1.5"/>
<line x1="290.0" y1="100.0" x2="290.0" y2="140.0" stroke="rgb(255,0,0)" stroke-width="1.5"/>
<polygon points=" 283,128 297,128 297,152 283,152" fill="rgb(255,255,170)"/>
<text x="285.0" y="145.0" font-family="courier" font-size="16" fill="rgb(0,0,0)">y</text>
<polygon points=" 273,88 307,88 307,112 273,112" fill="rgb(255,255,170)"/>
<text x="275.0" y="105.0" font-family="courier" font-size="16" fill="rgb(0,0,0)">not</text>
<line x1="285.0" y1="60.0" x2="320.0" y2="100.0" stroke="rgb(255,0,0)" stroke-width="1.5"/>
<polygon points=" 313,88 327,88 327,112 313,112" fill="rgb(255,255,170)"/>
<text x="315.0" y="105.0" font-family="courier" font-size="16" fill="rgb(0,0,0)">y</text>
<polygon points=" 273,48 297,48 297,72 273,72" fill="rgb(255,255,170)"/>
<text x="275.0" y="65.0" font-family="courier" font-size="16" fill="rgb(0,0,0)">&#92;/</text>
<line x1="897.5" y1="20.0" x2="390.0" y2="60.0" stroke="rgb(255,0,0)" stroke-width="1.5"/>
<line x1="390.0" y1="60.0" x2="350.0" y2="100.0" stroke="rgb(255,0,0)" stroke-width="1.5"/>
<line x1="350.0" y1="100.0" x2="350.0" y2="140.0" stroke="rgb(255,0,0)" stroke-width="1.5"/>
<polygon points=" 343,128 357,128 357,152 343,152" fill="rgb(255,255,170)"/>
<text x="345.0" y="145.0" font-family="courier" font-size="16" fill="rgb(0,0,0)">x</text>
<polygon points=" 333,88 367,88 367,112 333,112" fill="rgb(255,255,170)"/>
<text x="335.0" y="105.0" font-family="courier" font-size="16" fill="rgb(0,0,0)">not</text>
<line x1="390.0" y1="60.0" x2="390.0" y2="100.0" stroke="rgb(255,0,0)" stroke-width="1.5"/>
<line x1="390.0" y1="100.0" x2="390.0" y2="140.0" stroke="rgb(255,0,0)" stroke-width="1.5"/>
<polygon points=" 383,128 397,128 397,152 383,152" fill="rgb(255,255,170)"/>
<text x="385.0" y="145.0" font-family="courier" font-size="16" fill="rgb(0,0,0)">y</text>
<polygon points=" 373,88 407,88 407,112 373,112" fill="rgb(255,255,170)"/>
<text x="375.0" y="105.0" font-family="courier" font-size="16" fill="rgb(0,0,0)">not</text>
<line x1="390.0" y1="60.0" x2="430.0" y2="100.0" stroke="rgb(255,0,0)" stroke-width="1.5"/>
<line x1="430.0" y1="100.0" x2="430.0" y2="140.0" stroke="rgb(255,0,0)" stroke-width="1.5"/>
<polygon points=" 423,128 437,128 437,152 423,152" fill="rgb(255,255,170)"/>
<text x="425.0" y="145.0" font-family="courier" font-size="16" fill="rgb(0,0,0)">z</text>
<polygon points=" 413,88 447,88 447,112 413,112" fill="rgb(255,255,170)"/>
<text x="415.0" y="105.0" font-family="courier" font-size="16" fill="rgb(0,0,0)">not</text>
<polygon points=" 378,48 402,48 402,72 378,72" fill="rgb(255,255,170)"/>
<text x="380.0" y="65.0" font-family="courier" font-size="16" fill="rgb(0,0,0)">&#92;/</text>
<line x1="897.5" y1="20.0" x2="495.0" y2="60.0" stroke="rgb(255,0,0)" stroke-width="1.5"/>
<line x1="495.0" y1="60.0" x2="470.0" y2="100.0" stroke="rgb(255,0,0)" stroke-width="1.5"/>
<line x1="470.0" y1="100.0" x2="470.0" y2="140.0" stroke="rgb(255,0,0)" stroke-width="1.5"/>
<polygon points=" 463,128 477,128 477,152 463,152" fill="rgb(255,255,170)"/>
<text x="465.0" y="145.0" font-family="courier" font-size="16" fill="rgb(0,0,0)">x</text>
<polygon points=" 453,88 487,88 487,112 453,112" fill="rgb(255,255,170)"/>
<text x="455.0" y="105.0" font-family="courier" font-size="16" fill="rgb(0,0,0)">not</text>
<line x1="495.0" y1="60.0" x2="500.0" y2="100.0" stroke="rgb(255,0,0)" stroke-width="1.5"/>
<polygon points=" 493,88 507,88 507,112 493,112" fill="rgb(255,255,170)"/>
<text x="495.0" y="105.0" font-family="courier" font-size="16" fill="rgb(0,0,0)">z</text>
<line x1="495.0" y1="60.0" x2="520.0" y2="100.0" stroke="rgb(255,0,0)" stroke-width="1.5"/>
<polygon points=" 513,88 527,88 527,112 513,112" fill="rgb(255,255,170)"/>
<text x="515.0" y="105.0" font-family="courier" font-size="16" fill="rgb(0,0,0)">x</text>
<polygon points=" 483,48 507,48 507,72 483,72" fill="rgb(255,255,170)"/>
<text x="485.0" y="65.0" font-family="courier" font-size="16" fill="rgb(0,0,0)">&#92;/</text>
<line x1="897.5" y1="20.0" x2="575.0" y2="60.0" stroke="rgb(255,0,0)" stroke-width="1.5"/>
<line x1="575.0" y1="60.0" x2="550.0" y2="100.0" stroke="rgb(255,0,0)" stroke-width="1.5"/>
<line x1="550.0" y1="100.0" x2="550.0" y2="140.0" stroke="rgb(255,0,0)" stroke-width="1.5"/>
<polygon points=" 543,128 557,128 557,152 543,152" fill="rgb(255,255,170)"/>
<text x="545.0" y="145.0" font-family="courier" font-size="16" fill="rgb(0,0,0)">x</text>
<polygon points=" 533,88 567,88 567,112 533,112" fill="rgb(255,255,170)"/>
<text x="535.0" y="105.0" font-family="courier" font-size="16" fill="rgb(0,0,0)">not</text>
<line x1="575.0" y1="60.0" x2="580.0" y2="100.0" stroke="rgb(255,0,0)" stroke-width="1.5"/>
<polygon points=" 573,88 587,88 587,112 573,112" fill="rgb(255,255,170)"/>
<text x="575.0" y="105.0" font-family="courier" font-size="16" fill="rgb(0,0,0)">z</text>
<line x1="575.0" y1="60.0" x2="600.0" y2="100.0" stroke="rgb(255,0,0)" stroke-width="1.5"/>
<polygon points=" 593,88 607,88 607,112 593,112" fill="rgb(255,255,170)"/>
<text x="595.0" y="105.0" font-family="courier" font-size="16" fill="rgb(0,0,0)">y</text>
<polygon points=" 563,48 587,48 587,72 563,72" fill="rgb(255,255,170)"/>
<text x="565.0" y="65.0" font-family="courier" font-size="16" fill="rgb(0,0,0)">&#92;/</text>
<line x1="897.5" y1="20.0" x2="660.0" y2="60.0" stroke="rgb(255,0,0)" stroke-width="1.5"/>
<line x1="660.0" y1="60.0" x2="630.0" y2="100.0" stroke="rgb(255,0,0)" stroke-width="1.5"/>
<line x1="630.0" y1="100.0" x2="630.0" y2="140.0" stroke="rgb(255,0,0)" stroke-width="1.5"/>
<polygon points=" 623,128 637,128 637,152 623,152" fill="rgb(255,255,170)"/>
<text x="625.0" y="145.0" font-family="courier" font-size="16" fill="rgb(0,0,0)">x</text>
<polygon points=" 613,88 647,88 647,112 613,112" fill="rgb(255,255,170)"/>
<text x="615.0" y="105.0" font-family="courier" font-size="16" fill="rgb(0,0,0)">not</text>
<line x1="660.0" y1="60.0" x2="660.0" y2="100.0" stroke="rgb(255,0,0)" stroke-width="1.5"/>
<polygon points=" 653,88 667,88 667,112 653,112" fill="rgb(255,255,170)"/>
<text x="655.0" y="105.0" font-family="courier" font-size="16" fill="rgb(0,0,0)">z</text>
<line x1="660.0" y1="60.0" x2="690.0" y2="100.0" stroke="rgb(255,0,0)" stroke-width="1.5"/>
<line x1="690.0" y1="100.0" x2="690.0" y2="140.0" stroke="rgb(255,0,0)" stroke-width="1.5"/>
<polygon points=" 683,128 697,128 697,152 683,152" fill="rgb(255,255,170)"/>
<text x="685.0" y="145.0" font-family="courier" font-size="16" fill="rgb(0,0,0)">z</text>
<polygon points=" 673,88 707,88 707,112 673,112" fill="rgb(255,255,170)"/>
<text x="675.0" y="105.0" font-family="courier" font-size="16" fill="rgb(0,0,0)">not</text>
<polygon points=" 648,48 672,48 672,72 648,72" fill="rgb(255,255,170)"/>
<text x="650.0" y="65.0" font-family="courier" font-size="16" fill="rgb(0,0,0)">&#92;/</text>
<line x1="897.5" y1="20.0" x2="730.0" y2="60.0" stroke="rgb(255,0,0)" stroke-width="1.5"/>
<line x1="730.0" y1="60.0" x2="720.0" y2="100.0" stroke="rgb(255,0,0)" stroke-width="1.5"/>
<polygon points=" 713,88 727,88 727,112 713,112" fill="rgb(255,255,170)"/>
<text x="715.0" y="105.0" font-family="courier" font-size="16" fill="rgb(0,0,0)">y</text>
<line x1="730.0" y1="60.0" x2="740.0" y2="100.0" stroke="rgb(255,0,0)" stroke-width="1.5"/>
<polygon points=" 733,88 747,88 747,112 733,112" fill="rgb(255,255,170)"/>
<text x="735.0" y="105.0" font-family="courier" font-size="16" fill="rgb(0,0,0)">x</text>
<polygon points=" 718,48 742,48 742,72 718,72" fill="rgb(255,255,170)"/>
<text x="720.0" y="65.0" font-family="courier" font-size="16" fill="rgb(0,0,0)">&#92;/</text>
<line x1="897.5" y1="20.0" x2="785.0" y2="60.0" stroke="rgb(255,0,0)" stroke-width="1.5"/>
<line x1="785.0" y1="60.0" x2="760.0" y2="100.0" stroke="rgb(255,0,0)" stroke-width="1.5"/>
<polygon points=" 753,88 767,88 767,112 753,112" fill="rgb(255,255,170)"/>
<text x="755.0" y="105.0" font-family="courier" font-size="16" fill="rgb(0,0,0)">y</text>
<line x1="785.0" y1="60.0" x2="780.0" y2="100.0" stroke="rgb(255,0,0)" stroke-width="1.5"/>
<polygon points=" 773,88 787,88 787,112 773,112" fill="rgb(255,255,170)"/>
<text x="775.0" y="105.0" font-family="courier" font-size="16" fill="rgb(0,0,0)">x</text>
<line x1="785.0" y1="60.0" x2="810.0" y2="100.0" stroke="rgb(255,0,0)" stroke-width="1.5"/>
<line x1="810.0" y1="100.0" x2="810.0" y2="140.0" stroke="rgb(255,0,0)" stroke-width="1.5"/>
<polygon points=" 803,128 817,128 817,152 803,152" fill="rgb(255,255,170)"/>
<text x="805.0" y="145.0" font-family="courier" font-size="16" fill="rgb(0,0,0)">z</text>
<polygon points=" 793,88 827,88 827,112 793,112" fill="rgb(255,255,170)"/>
<text x="795.0" y="105.0" font-family="courier" font-size="16" fill="rgb(0,0,0)">not</text>
<polygon points=" 773,48 797,48 797,72 773,72" fill="rgb(255,255,170)"/>
<text x="775.0" y="65.0" font-family="courier" font-size="16" fill="rgb(0,0,0)">&#92;/</text>
<line x1="897.5" y1="20.0" x2="870.0" y2="60.0" stroke="rgb(255,0,0)" stroke-width="1.5"/>
<line x1="870.0" y1="60.0" x2="840.0" y2="100.0" stroke="rgb(255,0,0)" stroke-width="1.5"/>
<polygon points=" 833,88 847,88 847,112 833,112" fill="rgb(255,255,170)"/>
<text x="835.0" y="105.0" font-family="courier" font-size="16" fill="rgb(0,0,0)">y</text>
<line x1="870.0" y1="60.0" x2="870.0" y2="100.0" stroke="rgb(255,0,0)" stroke-width="1.5"/>
<line x1="870.0" y1="100.0" x2="870.0" y2="140.0" stroke="rgb(255,0,0)" stroke-width="1.5"/>
<polygon points=" 863,128 877,128 877,152 863,152" fill="rgb(255,255,170)"/>
<text x="865.0" y="145.0" font-family="courier" font-size="16" fill="rgb(0,0,0)">y</text>
<polygon points=" 853,88 887,88 887,112 853,112" fill="rgb(255,255,170)"/>
<text x="855.0" y="105.0" font-family="courier" font-size="16" fill="rgb(0,0,0)">not</text>
<line x1="870.0" y1="60.0" x2="900.0" y2="100.0" stroke="rgb(255,0,0)" stroke-width="1.5"/>
<polygon points=" 893,88 907,88 907,112 893,112" fill="rgb(255,255,170)"/>
<text x="895.0" y="105.0" font-family="courier" font-size="16" fill="rgb(0,0,0)">x</text>
<polygon points=" 858,48 882,48 882,72 858,72" fill="rgb(255,255,170)"/>
<text x="860.0" y="65.0" font-family="courier" font-size="16" fill="rgb(0,0,0)">&#92;/</text>
<line x1="897.5" y1="20.0" x2="935.0" y2="60.0" stroke="rgb(255,0,0)" stroke-width="1.5"/>
<line x1="935.0" y1="60.0" x2="920.0" y2="100.0" stroke="rgb(255,0,0)" stroke-width="1.5"/>
<polygon points=" 913,88 927,88 927,112 913,112" fill="rgb(255,255,170)"/>
<text x="915.0" y="105.0" font-family="courier" font-size="16" fill="rgb(0,0,0)">y</text>
<line x1="935.0" y1="60.0" x2="950.0" y2="100.0" stroke="rgb(255,0,0)" stroke-width="1.5"/>
<line x1="950.0" y1="100.0" x2="950.0" y2="140.0" stroke="rgb(255,0,0)" stroke-width="1.5"/>
<polygon points=" 943,128 957,128 957,152 943,152" fill="rgb(255,255,170)"/>
<text x="945.0" y="145.0" font-family="courier" font-size="16" fill="rgb(0,0,0)">y</text>
<polygon points=" 933,88 967,88 967,112 933,112" fill="rgb(255,255,170)"/>
<text x="935.0" y="105.0" font-family="courier" font-size="16" fill="rgb(0,0,0)">not</text>
<polygon points=" 923,48 947,48 947,72 923,72" fill="rgb(255,255,170)"/>
<text x="925.0" y="65.0" font-family="courier" font-size="16" fill="rgb(0,0,0)">&#92;/</text>
<line x1="897.5" y1="20.0" x2="1015.0" y2="60.0" stroke="rgb(255,0,0)" stroke-width="1.5"/>
<line x1="1015.0" y1="60.0" x2="980.0" y2="100.0" stroke="rgb(255,0,0)" stroke-width="1.5"/>
<polygon points=" 973,88 987,88 987,112 973,112" fill="rgb(255,255,170)"/>
<text x="975.0" y="105.0" font-family="courier" font-size="16" fill="rgb(0,0,0)">y</text>
<line x1="1015.0" y1="60.0" x2="1010.0" y2="100.0" stroke="rgb(255,0,0)" stroke-width="1.5"/>
<line x1="1010.0" y1="100.0" x2="1010.0" y2="140.0" stroke="rgb(255,0,0)" stroke-width="1.5"/>
<polygon points=" 1003,128 1017,128 1017,152 1003,152" fill="rgb(255,255,170)"/>
<text x="1005.0" y="145.0" font-family="courier" font-size="16" fill="rgb(0,0,0)">y</text>
<polygon points=" 993,88 1027,88 1027,112 993,112" fill="rgb(255,255,170)"/>
<text x="995.0" y="105.0" font-family="courier" font-size="16" fill="rgb(0,0,0)">not</text>
<line x1="1015.0" y1="60.0" x2="1050.0" y2="100.0" stroke="rgb(255,0,0)" stroke-width="1.5"/>
<line x1="1050.0" y1="100.0" x2="1050.0" y2="140.0" stroke="rgb(255,0,0)" stroke-width="1.5"/>
<polygon points=" 1043,128 1057,128 1057,152 1043,152" fill="rgb(255,255,170)"/>
<text x="1045.0" y="145.0" font-family="courier" font-size="16" fill="rgb(0,0,0)">z</text>
<polygon points=" 1033,88 1067,88 1067,112 1033,112" fill="rgb(255,255,170)"/>
<text x="1035.0" y="105.0" font-family="courier" font-size="16" fill="rgb(0,0,0)">not</text>
<polygon points=" 1003,48 1027,48 1027,72 1003,72" fill="rgb(255,255,170)"/>
<text x="1005.0" y="65.0" font-family="courier" font-size="16" fill="rgb(0,0,0)">&#92;/</text>
<line x1="897.5" y1="20.0" x2="1100.0" y2="60.0" stroke="rgb(255,0,0)" stroke-width="1.5"/>
<line x1="1100.0" y1="60.0" x2="1080.0" y2="100.0" stroke="rgb(255,0,0)" stroke-width="1.5"/>
<polygon points=" 1073,88 1087,88 1087,112 1073,112" fill="rgb(255,255,170)"/>
<text x="1075.0" y="105.0" font-family="courier" font-size="16" fill="rgb(0,0,0)">y</text>
<line x1="1100.0" y1="60.0" x2="1100.0" y2="100.0" stroke="rgb(255,0,0)" stroke-width="1.5"/>
<polygon points=" 1093,88 1107,88 1107,112 1093,112" fill="rgb(255,255,170)"/>
<text x="1095.0" y="105.0" font-family="courier" font-size="16" fill="rgb(0,0,0)">z</text>
<line x1="1100.0" y1="60.0" x2="1120.0" y2="100.0" stroke="rgb(255,0,0)" stroke-width="1.5"/>
<polygon points=" 1113,88 1127,88 1127,112 1113,112" fill="rgb(255,255,170)"/>
<text x="1115.0" y="105.0" font-family="courier" font-size="16" fill="rgb(0,0,0)">x</text>
<polygon points=" 1088,48 1112,48 1112,72 1088,72" fill="rgb(255,255,170)"/>
<text x="1090.0" y="65.0" font-family="courier" font-size="16" fill="rgb(0,0,0)">&#92;/</text>
<line x1="897.5" y1="20.0" x2="1150.0" y2="60.0" stroke="rgb(255,0,0)" stroke-width="1.5"/>
<line x1="1150.0" y1="60.0" x2="1140.0" y2="100.0" stroke="rgb(255,0,0)" stroke-width="1.5"/>
<polygon points=" 1133,88 1147,88 1147,112 1133,112" fill="rgb(255,255,170)"/>
<text x="1135.0" y="105.0" font-family="courier" font-size="16" fill="rgb(0,0,0)">y</text>
<line x1="1150.0" y1="60.0" x2="1160.0" y2="100.0" stroke="rgb(255,0,0)" stroke-width="1.5"/>
<polygon points=" 1153,88 1167,88 1167,112 1153,112" fill="rgb(255,255,170)"/>
<text x="1155.0" y="105.0" font-family="courier" font-size="16" fill="rgb(0,0,0)">z</text>
<polygon points=" 1138,48 1162,48 1162,72 1138,72" fill="rgb(255,255,170)"/>
<text x="1140.0" y="65.0" font-family="courier" font-size="16" fill="rgb(0,0,0)">&#92;/</text>
<line x1="897.5" y1="20.0" x2="1205.0" y2="60.0" stroke="rgb(255,0,0)" stroke-width="1.5"/>
<line x1="1205.0" y1="60.0" x2="1180.0" y2="100.0" stroke="rgb(255,0,0)" stroke-width="1.5"/>
<polygon points=" 1173,88 1187,88 1187,112 1173,112" fill="rgb(255,255,170)"/>
<text x="1175.0" y="105.0" font-family="courier" font-size="16" fill="rgb(0,0,0)">y</text>
<line x1="1205.0" y1="60.0" x2="1200.0" y2="100.0" stroke="rgb(255,0,0)" stroke-width="1.5"/>
<polygon points=" 1193,88 1207,88 1207,112 1193,112" fill="rgb(255,255,170)"/>
<text x="1195.0" y="105.0" font-family="courier" font-size="16" fill="rgb(0,0,0)">z</text>
<line x1="1205.0" y1="60.0" x2="1230.0" y2="100.0" stroke="rgb(255,0,0)" stroke-width="1.5"/>
<line x1="1230.0" y1="100.0" x2="1230.0" y2="140.0" stroke="rgb(255,0,0)" stroke-width="1.5"/>
<polygon points=" 1223,128 1237,128 1237,152 1223,152" fill="rgb(255,255,170)"/>
<text x="1225.0" y="145.0" font-family="courier" font-size="16" fill="rgb(0,0,0)">z</text>
<polygon points=" 1213,88 1247,88 1247,112 1213,112" fill="rgb(255,255,170)"/>
<text x="1215.0" y="105.0" font-family="courier" font-size="16" fill="rgb(0,0,0)">not</text>
<polygon points=" 1193,48 1217,48 1217,72 1193,72" fill="rgb(255,255,170)"/>
<text x="1195.0" y="65.0" font-family="courier" font-size="16" fill="rgb(0,0,0)">&#92;/</text>
<line x1="897.5" y1="20.0" x2="1270.0" y2="60.0" stroke="rgb(255,0,0)" stroke-width="1.5"/>
<line x1="1270.0" y1="60.0" x2="1260.0" y2="100.0" stroke="rgb(255,0,0)" stroke-width="1.5"/>
<polygon points=" 1253,88 1267,88 1267,112 1253,112" fill="rgb(255,255,170)"/>
<text x="1255.0" y="105.0" font-family="courier" font-size="16" fill="rgb(0,0,0)">z</text>
<line x1="1270.0" y1="60.0" x2="1280.0" y2="100.0" stroke="rgb(255,0,0)" stroke-width="1.5"/>
<polygon points=" 1273,88 1287,88 1287,112 1273,112" fill="rgb(255,255,170)"/>
<text x="1275.0" y="105.0" font-family="courier" font-size="16" fill="rgb(0,0,0)">x</text>
<polygon points=" 1258,48 1282,48 1282,72 1258,72" fill="rgb(255,255,170)"/>
<text x="1260.0" y="65.0" font-family="courier" font-size="16" fill="rgb(0,0,0)">&#92;/</text>
<line x1="897.5" y1="20.0" x2="1320.0" y2="60.0" stroke="rgb(255,0,0)" stroke-width="1.5"/>
<line x1="1320.0" y1="60.0" x2="1300.0" y2="100.0" stroke="rgb(255,0,0)" stroke-width="1.5"/>
<polygon points=" 1293,88 1307,88 1307,112 1293,112" fill="rgb(255,255,170)"/>
<text x="1295.0" y="105.0" font-family="courier" font-size="16" fill="rgb(0,0,0)">z</text>
<line x1="1320.0" y1="60.0" x2="1320.0" y2="100.0" stroke="rgb(255,0,0)" stroke-width="1.5"/>
<polygon points=" 1313,88 1327,88 1327,112 1313,112" fill="rgb(255,255,170)"/>
<text x="1315.0" y="105.0" font-family="courier" font-size="16" fill="rgb(0,0,0)">x</text>
<line x1="1320.0" y1="60.0" x2="1340.0" y2="100.0" stroke="rgb(255,0,0)" stroke-width="1.5"/>
<polygon points=" 1333,88 1347,88 1347,112 1333,112" fill="rgb(255,255,170)"/>
<text x="1335.0" y="105.0" font-family="courier" font-size="16" fill="rgb(0,0,0)">y</text>
<polygon points=" 1308,48 1332,48 1332,72 1308,72" fill="rgb(255,255,170)"/>
<text x="1310.0" y="65.0" font-family="courier" font-size="16" fill="rgb(0,0,0)">&#92;/</text>
<line x1="897.5" y1="20.0" x2="1385.0" y2="60.0" stroke="rgb(255,0,0)" stroke-width="1.5"/>
<line x1="1385.0" y1="60.0" x2="1360.0" y2="100.0" stroke="rgb(255,0,0)" stroke-width="1.5"/>
<polygon points=" 1353,88 1367,88 1367,112 1353,112" fill="rgb(255,255,170)"/>
<text x="1355.0" y="105.0" font-family="courier" font-size="16" fill="rgb(0,0,0)">z</text>
<line x1="1385.0" y1="60.0" x2="1380.0" y2="100.0" stroke="rgb(255,0,0)" stroke-width="1.5"/>
<polygon points=" 1373,88 1387,88 1387,112 1373,112" fill="rgb(255,255,170)"/>
<text x="1375.0" y="105.0" font-family="courier" font-size="16" fill="rgb(0,0,0)">x</text>
<line x1="1385.0" y1="60.0" x2="1410.0" y2="100.0" stroke="rgb(255,0,0)" stroke-width="1.5"/>
<line x1="1410.0" y1="100.0" x2="1410.0" y2="140.0" stroke="rgb(255,0,0)" stroke-width="1.5"/>
<polygon points=" 1403,128 1417,128 1417,152 1403,152" fill="rgb(255,255,170)"/>
<text x="1405.0" y="145.0" font-family="courier" font-size="16" fill="rgb(0,0,0)">z</text>
<polygon points=" 1393,88 1427,88 1427,112 1393,112" fill="rgb(255,255,170)"/>
<text x="1395.0" y="105.0" font-family="courier" font-size="16" fill="rgb(0,0,0)">not</text>
<polygon points=" 1373,48 1397,48 1397,72 1373,72" fill="rgb(255,255,170)"/>
<text x="1375.0" y="65.0" font-family="courier" font-size="16" fill="rgb(0,0,0)">&#92;/</text>
<line x1="897.5" y1="20.0" x2="1470.0" y2="60.0" stroke="rgb(255,0,0)" stroke-width="1.5"/>
<line x1="1470.0" y1="60.0" x2="1440.0" y2="100.0" stroke="rgb(255,0,0)" stroke-width="1.5"/>
<polygon points=" 1433,88 1447,88 1447,112 1433,112" fill="rgb(255,255,170)"/>
<text x="1435.0" y="105.0" font-family="courier" font-size="16" fill="rgb(0,0,0)">z</text>
<line x1="1470.0" y1="60.0" x2="1470.0" y2="100.0" stroke="rgb(255,0,0)" stroke-width="1.5"/>
<line x1="1470.0" y1="100.0" x2="1470.0" y2="140.0" stroke="rgb(255,0,0)" stroke-width="1.5"/>
<polygon points=" 1463,128 1477,128 1477,152 1463,152" fill="rgb(255,255,170)"/>
<text x="1465.0" y="145.0" font-family="courier" font-size="16" fill="rgb(0,0,0)">y</text>
<polygon points=" 1453,88 1487,88 1487,112 1453,112" fill="rgb(255,255,170)"/>
<text x="1455.0" y="105.0" font-family="courier" font-size="16" fill="rgb(0,0,0)">not</text>
<line x1="1470.0" y1="60.0" x2="1500.0" y2="100.0" stroke="rgb(255,0,0)" stroke-width="1.5"/>
<polygon points=" 1493,88 1507,88 1507,112 1493,112" fill="rgb(255,255,170)"/>
<text x="1495.0" y="105.0" font-family="courier" font-size="16" fill="rgb(0,0,0)">x</text>
<polygon points=" 1458,48 1482,48 1482,72 1458,72" fill="rgb(255,255,170)"/>
<text x="1460.0" y="65.0" font-family="courier" font-size="16" fill="rgb(0,0,0)">&#92;/</text>
<line x1="897.5" y1="20.0" x2="1550.0" y2="60.0" stroke="rgb(255,0,0)" stroke-width="1.5"/>
<line x1="1550.0" y1="60.0" x2="1520.0" y2="100.0" stroke="rgb(255,0,0)" stroke-width="1.5"/>
<polygon points=" 1513,88 1527,88 1527,112 1513,112" fill="rgb(255,255,170)"/>
<text x="1515.0" y="105.0" font-family="courier" font-size="16" fill="rgb(0,0,0)">z</text>
<line x1="1550.0" y1="60.0" x2="1550.0" y2="100.0" stroke="rgb(255,0,0)" stroke-width="1.5"/>
<line x1="1550.0" y1="100.0" x2="1550.0" y2="140.0" stroke="rgb(255,0,0)" stroke-width="1.5"/>
<polygon points=" 1543,128 1557,128 1557,152 1543,152" fill="rgb(255,255,170)"/>
<text x="1545.0" y="145.0" font-family="courier" font-size="16" fill="rgb(0,0,0)">y</text>
<polygon points=" 1533,88 1567,88 1567,112 1533,112" fill="rgb(255,255,170)"/>
<text x="1535.0" y="105.0" font-family="courier" font-size="16" fill="rgb(0,0,0)">not</text>
<line x1="1550.0" y1="60.0" x2="1580.0" y2="100.0" stroke="rgb(255,0,0)" stroke-width="1.5"/>
<polygon points=" 1573,88 1587,88 1587,112 1573,112" fill="rgb(255,255,170)"/>
<text x="1575.0" y="105.0" font-family="courier" font-size="16" fill="rgb(0,0,0)">y</text>
<polygon points=" 1538,48 1562,48 1562,72 1538,72" fill="rgb(255,255,170)"/>
<text x="1540.0" y="65.0" font-family="courier" font-size="16" fill="rgb(0,0,0)">&#92;/</text>
<line x1="897.5" y1="20.0" x2="1635.0" y2="60.0" stroke="rgb(255,0,0)" stroke-width="1.5"/>
<line x1="1635.0" y1="60.0" x2="1600.0" y2="100.0" stroke="rgb(255,0,0)" stroke-width="1.5"/>
<polygon points=" 1593,88 1607,88 1607,112 1593,112" fill="rgb(255,255,170)"/>
<text x="1595.0" y="105.0" font-family="courier" font-size="16" fill="rgb(0,0,0)">z</text>
<line x1="1635.0" y1="60.0" x2="1630.0" y2="100.0" stroke="rgb(255,0,0)" stroke-width="1.5"/>
<line x1="1630.0" y1="100.0" x2="1630.0" y2="140.0" stroke="rgb(255,0,0)" stroke-width="1.5"/>
<polygon points=" 1623,128 1637,128 1637,152 1623,152" fill="rgb(255,255,170)"/>
<text x="1625.0" y="145.0" font-family="courier" font-size="16" fill="rgb(0,0,0)">y</text>
<polygon points=" 1613,88 1647,88 1647,112 1613,112" fill="rgb(255,255,170)"/>
<text x="1615.0" y="105.0" font-family="courier" font-size="16" fill="rgb(0,0,0)">not</text>
<line x1="1635.0" y1="60.0" x2="1670.0" y2="100.0" stroke="rgb(255,0,0)" stroke-width="1.5"/>
<line x1="1670.0" y1="100.0" x2="1670.0" y2="140.0" stroke="rgb(255,0,0)" stroke-width="1.5"/>
<polygon points=" 1663,128 1677,128 1677,152 1663,152" fill="rgb(255,255,170)"/>
<text x="1665.0" y="145.0" font-family="courier" font-size="16" fill="rgb(0,0,0)">z</text>
<polygon points=" 1653,88 1687,88 1687,112 1653,112" fill="rgb(255,255,170)"/>
<text x="1655.0" y="105.0" font-family="courier" font-size="16" fill="rgb(0,0,0)">not</text>
<polygon points=" 1623,48 1647,48 1647,72 1623,72" fill="rgb(255,255,170)"/>
<text x="1625.0" y="65.0" font-family="courier" font-size="16" fill="rgb(0,0,0)">&#92;/</text>
<line x1="897.5" y1="20.0" x2="1710.0" y2="60.0" stroke="rgb(255,0,0)" stroke-width="1.5"/>
<line x1="1710.0" y1="60.0" x2="1700.0" y2="100.0" stroke="rgb(255,0,0)" stroke-width="1.5"/>
<polygon points=" 1693,88 1707,88 1707,112 1693,112" fill="rgb(255,255,170)"/>
<text x="1695.0" y="105.0" font-family="courier" font-size="16" fill="rgb(0,0,0)">z</text>
<line x1="1710.0" y1="60.0" x2="1720.0" y2="100.0" stroke="rgb(255,0,0)" stroke-width="1.5"/>
<polygon points=" 1713,88 1727,88 1727,112 1713,112" fill="rgb(255,255,170)"/>
<text x="1715.0" y="105.0" font-family="courier" font-size="16" fill="rgb(0,0,0)">y</text>
<polygon points=" 1698,48 1722,48 1722,72 1698,72" fill="rgb(255,255,170)"/>
<text x="1700.0" y="65.0" font-family="courier" font-size="16" fill="rgb(0,0,0)">&#92;/</text>
<line x1="897.5" y1="20.0" x2="1755.0" y2="60.0" stroke="rgb(255,0,0)" stroke-width="1.5"/>
<line x1="1755.0" y1="60.0" x2="1740.0" y2="100.0" stroke="rgb(255,0,0)" stroke-width="1.5"/>
<polygon points=" 1733,88 1747,88 1747,112 1733,112" fill="rgb(255,255,170)"/>
<text x="1735.0" y="105.0" font-family="courier" font-size="16" fill="rgb(0,0,0)">z</text>
<line x1="1755.0" y1="60.0" x2="1770.0" y2="100.0" stroke="rgb(255,0,0)" stroke-width="1.5"/>
<line x1="1770.0" y1="100.0" x2="1770.0" y2="140.0" stroke="rgb(255,0,0)" stroke-width="1.5"/>
<polygon points=" 1763,128 1777,128 1777,152 1763,152" fill="rgb(255,255,170)"/>
<text x="1765.0" y="145.0" font-family="courier" font-size="16" fill="rgb(0,0,0)">z</text>
<polygon points=" 1753,88 1787,88 1787,112 1753,112" fill="rgb(255,255,170)"/>
<text x="1755.0" y="105.0" font-family="courier" font-size="16" fill="rgb(0,0,0)">not</text>
<polygon points=" 1743,48 1767,48 1767,72 1743,72" fill="rgb(255,255,170)"/>
<text x="1745.0" y="65.0" font-family="courier" font-size="16" fill="rgb(0,0,0)">&#92;/</text>
<polygon points=" 886,8 910,8 910,32 886,32" fill="rgb(255,255,170)"/>
<text x="887.5" y="25.0" font-family="courier" font-size="16" fill="rgb(0,0,0)">/&#92;</text></svg>