<svg xmlns="http://www.w3.org/2000/svg"
xmlns:xlink="http://www.w3.org/1999/xlink"
version="1.1" baseProfile="full"
width="1780" height="160">
<line x1="892.5" y1="20.0" x2="55.0" y2="60.0" stroke="rgb(255,0,0)" stroke-width="1.5"/>
<line x1="55.0" y1="60.0" x2="25.0" y2="100.0" stroke="rgb(255,0,0)" stroke-width="1.5"/>
<line x1="25.0" y1="100.0" x2="25.0" y2="140.0" stroke="rgb(255,0,0)" stroke-width="1.5"/>
<polygon points=" 18,128 32,128 32,152 18,152" fill="rgb(170,255,170)"/>
<text x="20.0" y="145.0" font-family="courier" font-size="16" fill="rgb(0,0,0)">x</text>
<polygon points=" 8,88 42,88 42,112 8,112" fill="rgb(170,255,170)"/>
<text x="10.0" y="105.0" font-family="courier" font-size="16" fill="rgb(0,0,0)">not</text>
<line x1="55.0" y1="60.0" x2="55.0" y2="100.0" stroke="rgb(255,0,0)" stroke-width="1.5"/>
<polygon points=" 48,88 62,88 62,112 48,112" fill="rgb(170,255,170)"/>
<text x="50.0" y="105.0" font-family="courier" font-size="16" fill="rgb(0,0,0)">x</text>
<line x1="55.0" y1="60.0" x2="85.0" y2="100.0" stroke="rgb(255,0,0)" stroke-width="1.5"/>
<line x1="85.0" y1="100.0" x2="85.0" y2="140.0" stroke="rgb(255,0,0)" stroke-width="1.5"/>
<polygon points=" 78,128 92,128 92,152 78,152" fill="rgb(170,255,170)"/>
<text x="80.0" y="145.0" font-family="courier" font-size="16" fill="rgb(0,0,0)">z</text>
<polygon points=" 68,88 102,88 102,112 68,112" fill="rgb(170,255,170)"/>
<text x="70.0" y="105.0" font-family="courier" font-size="16" fill="rgb(0,0,0)">not</text>
<polygon points=" 43,48 67,48 67,72 43,72" fill="rgb(170,255,170)"/>
<text x="45.0" y="65.0" font-family="courier" font-size="16" fill="rgb(0,0,0)">&#92;/</text>
<line x1="892.5" y1="20.0" x2="160.0" y2="60.0" stroke="rgb(255,0,0)" stroke-width="1.5"/>
<line x1="160.0" y1="60.0" x2="125.0" y2="100.0" stroke="rgb(255,0,0)" stroke-width="1.5"/>
<line x1="125.0" y1="100.0" x2="125.0" y2="140.0" stroke="rgb(255,0,0)" stroke-width="1.5"/>
<polygon points=" 118,128 132,128 132,152 118,152" fill="rgb(170,255,170)"/>
<text x="120.0" y="145.0" font-family="courier" font-size="16" fill="rgb(0,0,0)">x</text>
<polygon points=" 108,88 142,88 142,112 108,112" fill="rgb(170,255,170)"/>
<text x="110.0" y="105.0" font-family="courier" font-size="16" fill="rgb(0,0,0)">not</text>
<line x1="160.0" y1="60.0" x2="165.0" y2="100.0" stroke="rgb(255,0,0)" stroke-width="1.5"/>
<line x1="165.0" y1="100.0" x2="165.0" y2="140.0" stroke="rgb(255,0,0)" stroke-width="1.5"/>
<polygon points=" 158,128 172,128 172,152 158,152" fill="rgb(170,255,170)"/>
<text x="160.0" y="145.0" font-family="courier" font-size="16" fill="rgb(0,0,0)">y</text>
<polygon points=" 148,88 182,88 182,112 148,112" fill="rgb(170,255,170)"/>
<text x="150.0" y="105.0" font-family="courier" font-size="16" fill="rgb(0,0,0)">not</text>
<line x1="160.0" y1="60.0" x2="195.0" y2="100.0" stroke="rgb(255,0,0)" stroke-width="1.5"/>
<polygon points=" 188,88 202,88 202,112 188,112" fill="rgb(170,255,170)"/>
<text x="190.0" y="105.0" font-family="courier" font-size="16" fill="rgb(0,0,0)">x</text>
<polygon points=" 148,48 172,48 172,72 148,72" fill="rgb(170,255,170)"/>
<text x="150.0" y="65.0" font-family="courier" font-size="16" fill="rgb(0,0,0)">&#92;/</text>
<line x1="892.5" y1="20.0" x2="260.0" y2="60.0" stroke="rgb(255,0,0)" stroke-width="1.5"/>
<line x1="260.0" y1="60.0" x2="225.0" y2="100.0" stroke="rgb(255,0,0)" stroke-width="1.5"/>
<line x1="225.0" y1="100.0" x2="225.0" y2="140.0" stroke="rgb(255,0,0)" stroke-width="1.5"/>
<polygon points=" 218,128 232,128 232,152 218,152" fill="rgb(170,255,170)"/>
<text x="220.0" y="145.0" font-family="courier" font-size="16" fill="rgb(0,0,0)">x</text>
<polygon points=" 208,88 242,88 242,112 208,112" fill="rgb(170,255,170)"/>
<text x="210.0" y="105.0" font-family="courier" font-size="16" fill="rgb(0,0,0)">not</text>
<line x1="260.0" y1="60.0" x2="265.0" y2="100.0" stroke="rgb(255,0,0)" stroke-width="1.5"/>
<line x1="265.0" y1="100.0" x2="265.0" y2="140.0" stroke="rgb(255,0,0)" stroke-width="1.5"/>
<polygon points=" 258,128 272,128 272,152 258,152" fill="rgb(170,255,170)"/>
<text x="260.0" y="145.0" font-family="courier" font-size="16" fill="rgb(0,0,0)">y</text>
<polygon points=" 248,88 282,88 282,112 248,112" fill="rgb(170,255,170)"/>
<text x="250.0" y="105.0" font-family="courier" font-size="16" fill="rgb(0,0,0)">not</text>
<line x1="260.0" y1="60.0" x2="295.0" y2="100.0" stroke="rgb(255,0,0)" stroke-width="1.5"/>
<polygon points=" 288,88 302,88 302,112 288,112" fill="rgb(170,255,170)"/>
<text x="290.0" y="105.0" font-family="courier" font-size="16" fill="rgb(0,0,0)">y</text>
<polygon points=" 248,48 272,48 272,72 248,72" fill="rgb(170,255,170)"/>
<text x="250.0" y="65.0" font-family="courier" font-size="16" fill="rgb(0,0,0)">&#92;/</text>
<line x1="892.5" y1="20.0" x2="365.0" y2="60.0" stroke="rgb(255,0,0)" stroke-width="1.5"/>
<line x1="365.0" y1="60.0" x2="325.0" y2="100.0" stroke="rgb(255,0,0)" stroke-width="1.5"/>
<line x1="325.0" y1="100.0" x2="325.0" y2="140.0" stroke="rgb(255,0,0)" stroke-width="1.5"/>
<polygon points=" 318,128 332,128 332,152 318,152" fill="rgb(170,255,170)"/>
<text x="320.0" y="145.0" font-family="courier" font-size="16" fill="rgb(0,0,0)">x</text>
<polygon points=" 308,88 342,88 342,112 308,112" fill="rgb(170,255,170)"/>
<text x="310.0" y="105.0" font-family="courier" font-size="16" fill="rgb(0,0,0)">not</text>
<line x1="365.0" y1="60.0" x2="365.0" y2="100.0" stroke="rgb(255,0,0)" stroke-width="1.5"/>
<line x1="365.0" y1="100.0" x2="365.0" y2="140.0" stroke="rgb(255,0,0)" stroke-width="1.5"/>
<polygon points=" 358,128 372,128 372,152 358,152" fill="rgb(170,255,170)"/>
<text x="360.0" y="145.0" font-family="courier" font-size="16" fill="rgb(0,0,0)">y</text>
<polygon points=" 348,88 382,88 382,112 348,112" fill="rgb(170,255,170)"/>
<text x="350.0" y="105.0" font-family="courier" font-size="16" fill="rgb(0,0,0)">not</text>
<line x1="365.0" y1="60.0" x2="405.0" y2="100.0" stroke="rgb(255,0,0)" stroke-width="1.5"/>
<line x1="405.0" y1="100.0" x2="405.0" y2="140.0" stroke="rgb(255,0,0)" stroke-width="1.5"/>
<polygon points=" 398,128 412,128 412,152 398,152" fill="rgb(170,255,170)"/>
<text x="400.0" y="145.0" font-family="courier" font-size="16" fill="rgb(0,0,0)">z</text>
<polygon points=" 388,88 422,88 422,112 388,112" fill="rgb(170,255,170)"/>
<text x="390.0" y="105.0" font-family="courier" font-size="16" fill="rgb(0,0,0)">not</text>
<polygon points=" 353,48 377,48 377,72 353,72" fill="rgb(170,255,170)"/>
<text x="355.0" y="65.0" font-family="courier" font-size="16" fill="rgb(0,0,0)">&#92;/</text>
<line x1="892.5" y1="20.0" x2="470.0" y2="60.0" stroke="rgb(255,0,0)" stroke-width="1.5"/>
<line x1="470.0" y1="60.0" x2="445.0" y2="100.0" stroke="rgb(255,0,0)" stroke-width="1.5"/>
<line x1="445.0" y1="100.0" x2="445.0" y2="140.0" stroke="rgb(255,0,0)" stroke-width="1.5"/>
<polygon points=" 438,128 452,128 452,152 438,152" fill="rgb(170,255,170)"/>
<text x="440.0" y="145.0" font-family="courier" font-size="16" fill="rgb(0,0,0)">x</text>
<polygon points=" 428,88 462,88 462,112 428,112" fill="rgb(170,255,170)"/>
<text x="430.0" y="105.0" font-family="courier" font-size="16" fill="rgb(0,0,0)">not</text>
<line x1="470.0" y1="60.0" x2="475.0" y2="100.0" stroke="rgb(255,0,0)" stroke-width="1.5"/>
<polygon points=" 468,88 482,88 482,112 468,112" fill="rgb(170,255,170)"/>
<text x="470.0" y="105.0" font-family="courier" font-size="16" fill="rgb(0,0,0)">z</text>
<line x1="470.0" y1="60.0" x2="495.0" y2="100.0" stroke="rgb(255,0,0)" stroke-width="1.5"/>
<polygon points=" 488,88 502,88 502,112 488,112" fill="rgb(170,255,170)"/>
<text x="490.0" y="105.0" font-family="courier" font-size="16" fill="rgb(0,0,0)">x</text>
<polygon points=" 458,48 482,48 482,72 458,72" fill="rgb(170,255,170)"/>
<text x="460.0" y="65.0" font-family="courier" font-size="16" fill="rgb(0,0,0)">&#92;/</text>
<line x1="892.5" y1="20.0" x2="550.0" y2="60.0" stroke="rgb(255,0,0)" stroke-width="1.5"/>
<line x1="550.0" y1="60.0" x2="525.0" y2="100.0" stroke="rgb(255,0,0)" stroke-width="1.5"/>
<line x1="525.0" y1="100.0" x2="525.0" y2="140.0" stroke="rgb(255,0,0)" stroke-width="1.5"/>
<polygon points=" 518,128 532,128 532,152 518,152" fill="rgb(170,255,170)"/>
<text x="520.0" y="145.0" font-family="courier" font-size="16" fill="rgb(0,0,0)">x</text>
<polygon points=" 508,88 542,88 542,112 508,112" fill="rgb(170,255,170)"/>
<text x="510.0" y="105.0" font-family="courier" font-size="16" fill="rgb(0,0,0)">not</text>
<line x1="550.0" y1="60.0" x2="555.0" y2="100.0" stroke="rgb(255,0,0)" stroke-width="1.5"/>
<polygon points=" 548,88 562,88 562,112 548,112" fill="rgb(170,255,170)"/>
<text x="550.0" y="105.0" font-family="courier" font-size="16" fill="rgb(0,0,0)">z</text>
<line x1="550.0" y1="60.0" x2="575.0" y2="100.0" stroke="rgb(255,0,0)" stroke-width="1.5"/>
<polygon points=" 568,88 582,88 582,112 568,112" fill="rgb(170,255,170)"/>
<text x="570.0" y="105.0" font-family="courier" font-size="16" fill="rgb(0,0,0)">y</text>
<polygon points=" 538,48 562,48 562,72 538,72" fill="rgb(170,255,170)"/>
<text x="540.0" y="65.0" font-family="courier" font-size="16" fill="rgb(0,0,0)">&#92;/</text>
<line x1="892.5" y1="20.0" x2="635.0" y2="60.0" stroke="rgb(255,0,0)" stroke-width="1.5"/>
<line x1="635.0" y1="60.0" x2="605.0" y2="100.0" stroke="rgb(255,0,0)" stroke-width="1.5"/>
<line x1="605.0" y1="100.0" x2="605.0" y2="140.0" stroke="rgb(255,0,0)" stroke-width="1.5"/>
<polygon points=" 598,128 612,128 612,152 598,152" fill="rgb(170,255,170)"/>
<text x="600.0" y="145.0" font-family="courier" font-size="16" fill="rgb(0,0,0)">x</text>
<polygon points=" 588,88 622,88 622,112 588,112" fill="rgb(170,255,170)"/>
<text x="590.0" y="105.0" font-family="courier" font-size="16" fill="rgb(0,0,0)">not</text>
<line x1="635.0" y1="60.0" x2="635.0" y2="100.0" stroke="rgb(255,0,0)" stroke-width="1.5"/>
<polygon points=" 628,88 642,88 642,112 628,112" fill="rgb(170,255,170)"/>
<text x="630.0" y="105.0" font-family="courier" font-size="16" fill="rgb(0,0,0)">z</text>
<line x1="635.0" y1="60.0" x2="665.0" y2="100.0" stroke="rgb(255,0,0)" stroke-width="1.5"/>
<line x1="665.0" y1="100.0" x2="665.0" y2="140.0" stroke="rgb(255,0,0)" stroke-width="1.5"/>
<polygon points=" 658,128 672,128 672,152 658,152" fill="rgb(170,255,170)"/>
<text x="660.0" y="145.0" font-family="courier" font-size="16" fill="rgb(0,0,0)">z</text>
<polygon points=" 648,88 682,88 682,112 648,112" fill="rgb(170,255,170)"/>
<text x="650.0" y="105.0" font-family="courier" font-size="16" fill="rgb(0,0,0)">not</text>
<polygon points=" 623,48 647,48 647,72 623,72" fill="rgb(170,255,170)"/>
<text x="625.0" y="65.0" font-family="courier" font-size="16" fill="rgb(0,0,0)">&#92;/</text>
<line x1="892.5" y1="20.0" x2="705.0" y2="60.0" stroke="rgb(255,0,0)" stroke-width="1.5"/>
<line x1="705.0" y1="60.0" x2="695.0" y2="100.0" stroke="rgb(255,0,0)" stroke-width="1.5"/>
<polygon points=" 688,88 702,88 702,112 688,112" fill="rgb(170,255,170)"/>
<text x="690.0" y="105.0" font-family="courier" font-size="16" fill="rgb(0,0,0)">y</text>
<line x1="705.0" y1="60.0" x2="715.0" y2="100.0" stroke="rgb(255,0,0)" stroke-width="1.5"/>
<polygon points=" 708,88 722,88 722,112 708,112" fill="rgb(170,255,170)"/>
<text x="710.0" y="105.0" font-family="courier" font-size="16" fill="rgb(0,0,0)">x</text>
<polygon points=" 693,48 717,48 717,72 693,72" fill="rgb(170,255,170)"/>
<text x="695.0" y="65.0" font-family="courier" font-size="16" fill="rgb(0,0,0)">&#92;/</text>
<line x1="892.5" y1="20.0" x2="760.0" y2="60.0" stroke="rgb(255,0,0)" stroke-width="1.5"/>
<line x1="760.0" y1="60.0" x2="735.0" y2="100.0" stroke="rgb(255,0,0)" stroke-width="1.5"/>
<polygon points=" 728,88 742,88 742,112 728,112" fill="rgb(170,255,170)"/>
<text x="730.0" y="105.0" font-family="courier" font-size="16" fill="rgb(0,0,0)">y</text>
<line x1="760.0" y1="60.0" x2="755.0" y2="100.0" stroke="rgb(255,0,0)" stroke-width="1.5"/>
<polygon points=" 748,88 762,88 762,112 748,112" fill="rgb(170,255,170)"/>
<text x="750.0" y="105.0" font-family="courier" font-size="16" fill="rgb(0,0,0)">x</text>
<line x1="760.0" y1="60.0" x2="785.0" y2="100.0" stroke="rgb(255,0,0)" stroke-width="1.5"/>
<line x1="785.0" y1="100.0" x2="785.0" y2="140.0" stroke="rgb(255,0,0)" stroke-width="1.5"/>
<polygon points=" 778,128 792,128 792,152 778,152" fill="rgb(170,255,170)"/>
<text x="780.0" y="145.0" font-family="courier" font-size="16" fill="rgb(0,0,0)">z</text>
<polygon points=" 768,88 802,88 802,112 768,112" fill="rgb(170,255,170)"/>
<text x="770.0" y="105.0" font-family="courier" font-size="16" fill="rgb(0,0,0)">not</text>
<polygon points=" 748,48 772,48 772,72 748,72" fill="rgb(170,255,170)"/>
<text x="750.0" y="65.0" font-family="courier" font-size="16" fill="rgb(0,0,0)">&#92;/</text>
<line x1="892.5" y1="20.0" x2="845.0" y2="60.0" stroke="rgb(255,0,0)" stroke-width="1.5"/>
<line x1="845.0" y1="60.0" x2="815.0" y2="100.0" stroke="rgb(255,0,0)" stroke-width="1.5"/>
<polygon points=" 808,88 822,88 822,112 808,112" fill="rgb(170,255,170)"/>
<text x="810.0" y="105.0" font-family="courier" font-size="16" fill="rgb(0,0,0)">y</text>
<line x1="845.0" y1="60.0" x2="845.0" y2="100.0" stroke="rgb(255,0,0)" stroke-width="1.5"/>
<line x1="845.0" y1="100.0" x2="845.0" y2="140.0" stroke="rgb(255,0,0)" stroke-width="1.5"/>
<polygon points=" 838,128 852,128 852,152 838,152" fill="rgb(170,255,170)"/>
<text x="840.0" y="145.0" font-family="courier" font-size="16" fill="rgb(0,0,0)">y</text>
<polygon points=" 828,88 862,88 862,112 828,112" fill="rgb(170,255,170)"/>
<text x="830.0" y="105.0" font-family="courier" font-size="16" fill="rgb(0,0,0)">not</text>
<line x1="845.0" y1="60.0" x2="875.0" y2="100.0" stroke="rgb(255,0,0)" stroke-width="1.5"/>
<polygon points=" 868,88 882,88 882,112 868,112" fill="rgb(170,255,170)"/>
<text x="870.0" y="105.0" font-family="courier" font-size="16" fill="rgb(0,0,0)">x</text>
<polygon points=" 833,48 857,48 857,72 833,72" fill="rgb(170,255,170)"/>
<text x="835.0" y="65.0" font-family="courier" font-size="16" fill="rgb(0,0,0)">&#92;/</text>
<line x1="892.5" y1="20.0" x2="910.0" y2="60.0" stroke="rgb(255,0,0)" stroke-width="1.5"/>
<line x1="910.0" y1="60.0" x2="895.0" y2="100.0" stroke="rgb(255,0,0)" stroke-width="1.5"/>
<polygon points=" 888,88 902,88 902,112 888,112" fill="rgb(170,255,170)"/>
<text x="890.0" y="105.0" font-family="courier" font-size="16" fill="rgb(0,0,0)">y</text>
<line x1="910.0" y1="60.0" x2="925.0" y2="100.0" stroke="rgb(255,0,0)" stroke-width="1.5"/>
<line x1="925.0" y1="100.0" x2="925.0" y2="140.0" stroke="rgb(255,0,0)" stroke-width="1.5"/>
<polygon points=" 918,128 932,128 932,152 918,152" fill="rgb(170,255,170)"/>
<text x="920.0" y="145.0" font-family="courier" font-size="16" fill="rgb(0,0,0)">y</text>
<polygon points=" 908,88 942,88 942,112 908,112" fill="rgb(170,255,170)"/>
<text x="910.0" y="105.0" font-family="courier" font-size="16" fill="rgb(0,0,0)">not</text>
<polygon points=" 898,48 922,48 922,72 898,72" fill="rgb(170,255,170)"/>
<text x="900.0" y="65.0" font-family="courier" font-size="16" fill="rgb(0,0,0)">&#92;/</text>
<line x1="892.5" y1="20.0" x2="990.0" y2="60.0" stroke="rgb(255,0,0)" stroke-width="1.5"/>
<line x1="990.0" y1="60.0" x2="955.0" y2="100.0" stroke="rgb(255,0,0)" stroke-width="1.5"/>
<polygon points=" 948,88 962,88 962,112 948,112" fill="rgb(170,255,170)"/>
<text x="950.0" y="105.0" font-family="courier" font-size="16" fill="rgb(0,0,0)">y</text>
<line x1="990.0" y1="60.0" x2="985.0" y2="100.0" stroke="rgb(255,0,0)" stroke-width="1.5"/>
<line x1="985.0" y1="100.0" x2="985.0" y2="140.0" stroke="rgb(255,0,0)" stroke-width="1.5"/>
<polygon points=" 978,128 992,128 992,152 978,152" fill="rgb(170,255,170)"/>
<text x="980.0" y="145.0" font-family="courier" font-size="16" fill="rgb(0,0,0)">y</text>
<polygon points=" 968,88 1002,88 1002,112 968,112" fill="rgb(170,255,170)"/>
<text x="970.0" y="105.0" font-family="courier" font-size="16" fill="rgb(0,0,0)">not</text>
<line x1="990.0" y1="60.0" x2="1025.0" y2="100.0" stroke="rgb(255,0,0)" stroke-width="1.5"/>
<line x1="1025.0" y1="100.0" x2="1025.0" y2="140.0" stroke="rgb(255,0,0)" stroke-width="1.5"/>
<polygon points=" 1018,128 1032,128 1032,152 1018,152" fill="rgb(170,255,170)"/>
<text x="1020.0" y="145.0" font-family="courier" font-size="16" fill="rgb(0,0,0)">z</text>
<polygon points=" 1008,88 1042,88 1042,112 1008,112" fill="rgb(170,255,170)"/>
<text x="1010.0" y="105.0" font-family="courier" font-size="16" fill="rgb(0,0,0)">not</text>
<polygon points=" 978,48 1002,48 1002,72 978,72" fill="rgb(170,255,170)"/>
<text x="980.0" y="65.0" font-family="courier" font-size="16" fill="rgb(0,0,0)">&#92;/</text>
<line x1="892.5" y1="20.0" x2="1075.0" y2="60.0" stroke="rgb(255,0,0)" stroke-width="1.5"/>
<line x1="1075.0" y1="60.0" x2="1055.0" y2="100.0" stroke="rgb(255,0,0)" stroke-width="1.5"/>
<polygon points=" 1048,88 1062,88 1062,112 1048,112" fill="rgb(170,255,170)"/>
<text x="1050.0" y="105.0" font-family="courier" font-size="16" fill="rgb(0,0,0)">y</text>
<line x1="1075.0" y1="60.0" x2="1075.0" y2="100.0" stroke="rgb(255,0,0)" stroke-width="1.5"/>
<polygon points=" 1068,88 1082,88 1082,112 1068,112" fill="rgb(170,255,170)"/>
<text x="1070.0" y="105.0" font-family="courier" font-size="16" fill="rgb(0,0,0)">z</text>
<line x1="1075.0" y1="60.0" x2="1095.0" y2="100.0" stroke="rgb(255,0,0)" stroke-width="1.5"/>
<polygon points=" 1088,88 1102,88 1102,112 1088,112" fill="rgb(170,255,170)"/>
<text x="1090.0" y="105.0" font-family="courier" font-size="16" fill="rgb(0,0,0)">x</text>
<polygon points=" 1063,48 1087,48 1087,72 1063,72" fill="rgb(170,255,170)"/>
<text x="1065.0" y="65.0" font-family="courier" font-size="16" fill="rgb(0,0,0)">&#92;/</text>
<line x1="892.5" y1="20.0" x2="1125.0" y2="60.0" stroke="rgb(255,0,0)" stroke-width="1.5"/>
<line x1="1125.0" y1="60.0" x2="1115.0" y2="100.0" stroke="rgb(255,0,0)" stroke-width="1.5"/>
<polygon points=" 1108,88 1122,88 1122,112 1108,112" fill="rgb(170,255,170)"/>
<text x="1110.0" y="105.0" font-family="courier" font-size="16" fill="rgb(0,0,0)">y</text>
<line x1="1125.0" y1="60.0" x2="1135.0" y2="100.0" stroke="rgb(255,0,0)" stroke-width="1.5"/>
<polygon points=" 1128,88 1142,88 1142,112 1128,112" fill="rgb(170,255,170)"/>
<text x="1130.0" y="105.0" font-family="courier" font-size="16" fill="rgb(0,0,0)">z</text>
<polygon points=" 1113,48 1137,48 1137,72 1113,72" fill="rgb(170,255,170)"/>
<text x="1115.0" y="65.0" font-family="courier" font-size="16" fill="rgb(0,0,0)">&#92;/</text>
<line x1="892.5" y1="20.0" x2="1180.0" y2="60.0" stroke="rgb(255,0,0)" stroke-width="1.5"/>
<line x1="1180.0" y1="60.0" x2="1155.0" y2="100.0" stroke="rgb(255,0,0)" stroke-width="1.5"/>
<polygon points=" 1148,88 1162,88 1162,112 1148,112" fill="rgb(170,255,170)"/>
<text x="1150.0" y="105.0" font-family="courier" font-size="16" fill="rgb(0,0,0)">y</text>
<line x1="1180.0" y1="60.0" x2="1175.0" y2="100.0" stroke="rgb(255,0,0)" stroke-width="1.5"/>
<polygon points=" 1168,88 1182,88 1182,112 1168,112" fill="rgb(170,255,170)"/>
<text x="1170.0" y="105.0" font-family="courier" font-size="16" fill="rgb(0,0,0)">z</text>
<line x1="1180.0" y1="60.0" x2="1205.0" y2="100.0" stroke="rgb(255,0,0)" stroke-width="1.5"/>
<line x1="1205.0" y1="100.0" x2="1205.0" y2="140.0" stroke="rgb(255,0,0)" stroke-width="1.5"/>
<polygon points=" 1198,128 1212,128 1212,152 1198,152" fill="rgb(170,255,170)"/>
<text x="1200.0" y="145.0" font-family="courier" font-size="16" fill="rgb(0,0,0)">z</text>
<polygon points=" 1188,88 1222,88 1222,112 1188,112" fill="rgb(170,255,170)"/>
<text x="1190.0" y="105.0" font-family="courier" font-size="16" fill="rgb(0,0,0)">not</text>
<polygon points=" 1168,48 1192,48 1192,72 1168,72" fill="rgb(170,255,170)"/>
<text x="1170.0" y="65.0" font-family="courier" font-size="16" fill="rgb(0,0,0)">&#92;/</text>
<line x1="892.5" y1="20.0" x2="1245.0" y2="60.0" stroke="rgb(255,0,0)" stroke-width="1.5"/>
<line x1="1245.0" y1="60.0" x2="1235.0" y2="100.0" stroke="rgb(255,0,0)" stroke-width="1.5"/>
<polygon points=" 1228,88 1242,88 1242,112 1228,112" fill="rgb(170,255,170)"/>
<text x="1230.0" y="105.0" font-family="courier" font-size="16" fill="rgb(0,0,0)">z</text>
<line x1="1245.0" y1="60.0" x2="1255.0" y2="100.0" stroke="rgb(255,0,0)" stroke-width="1.5"/>
<polygon points=" 1248,88 1262,88 1262,112 1248,112" fill="rgb(170,255,170)"/>
<text x="1250.0" y="105.0" font-family="courier" font-size="16" fill="rgb(0,0,0)">x</text>
<polygon points=" 1233,48 1257,48 1257,72 1233,72" fill="rgb(170,255,170)"/>
<text x="1235.0" y="65.0" font-family="courier" font-size="16" fill="rgb(0,0,0)">&#92;/</text>
<line x1="892.5" y1="20.0" x2="1295.0" y2="60.0" stroke="rgb(255,0,0)" stroke-width="1.5"/>
<line x1="1295.0" y1="60.0" x2="1275.0" y2="100.0" stroke="rgb(255,0,0)" stroke-width="1.5"/>
<polygon points=" 1268,88 1282,88 1282,112 1268,112" fill="rgb(170,255,170)"/>
<text x="1270.0" y="105.0" font-family="courier" font-size="16" fill="rgb(0,0,0)">z</text>
<line x1="1295.0" y1="60.0" x2="1295.0" y2="100.0" stroke="rgb(255,0,0)" stroke-width="1.5"/>
<polygon points=" 1288,88 1302,88 1302,112 1288,112" fill="rgb(170,255,170)"/>
<text x="1290.0" y="105.0" font-family="courier" font-size="16" fill="rgb(0,0,0)">x</text>
<line x1="1295.0" y1="60.0" x2="1315.0" y2="100.0" stroke="rgb(255,0,0)" stroke-width="1.5"/>
<polygon points=" 1308,88 1322,88 1322,112 1308,112" fill="rgb(170,255,170)"/>
<text x="1310.0" y="105.0" font-family="courier" font-size="16" fill="rgb(0,0,0)">y</text>
<polygon points=" 1283,48 1307,48 1307,72 1283,72" fill="rgb(170,255,170)"/>
<text x="1285.0" y="65.0" font-family="courier" font-size="16" fill="rgb(0,0,0)">&#92;/</text>
<line x1="892.5" y1="20.0" x2="1360.0" y2="60.0" stroke="rgb(255,0,0)" stroke-width="1.5"/>
<line x1="1360.0" y1="60.0" x2="1335.0" y2="100.0" stroke="rgb(255,0,0)" stroke-width="1.5"/>
<polygon points=" 1328,88 1342,88 1342,112 1328,112" fill="rgb(170,255,170)"/>
<text x="1330.0" y="105.0" font-family="courier" font-size="16" fill="rgb(0,0,0)">z</text>
<line x1="1360.0" y1="60.0" x2="1355.0" y2="100.0" stroke="rgb(255,0,0)" stroke-width="1.5"/>
<polygon points=" 1348,88 1362,88 1362,112 1348,112" fill="rgb(170,255,170)"/>
<text x="1350.0" y="105.0" font-family="courier" font-size="16" fill="rgb(0,0,0)">x</text>
<line x1="1360.0" y1="60.0" x2="1385.0" y2="100.0" stroke="rgb(255,0,0)" stroke-width="1.5"/>
<line x1="1385.0" y1="100.0" x2="1385.0" y2="140.0" stroke="rgb(255,0,0)" stroke-width="1.5"/>
<polygon points=" 1378,128 1392,128 1392,152 1378,152" fill="rgb(170,255,170)"/>
<text x="1380.0" y="145.0" font-family="courier" font-size="16" fill="rgb(0,0,0)">z</text>
<polygon points=" 1368,88 1402,88 1402,112 1368,112" fill="rgb(170,255,170)"/>
<text x="1370.0" y="105.0" font-family="courier" font-size="16" fill="rgb(0,0,0)">not</text>
<polygon points=" 1348,48 1372,48 1372,72 1348,72" fill="rgb(170,255,170)"/>
<text x="1350.0" y="65.0" font-family="courier" font-size="16" fill="rgb(0,0,0)">&#92;/</text>
<line x1="892.5" y1="20.0" x2="1445.0" y2="60.0" stroke="rgb(255,0,0)" stroke-width="1.5"/>
<line x1="1445.0" y1="60.0" x2="1415.0" y2="100.0" stroke="rgb(255,0,0)" stroke-width="1.5"/>
<polygon points=" 1408,88 1422,88 1422,112 1408,112" fill="rgb(170,255,170)"/>
<text x="1410.0" y="105.0" font-family="courier" font-size="16" fill="rgb(0,0,0)">z</text>
<line x1="1445.0" y1="60.0" x2="1445.0" y2="100.0" stroke="rgb(255,0,0)" stroke-width="1.5"/>
<line x1="1445.0" y1="100.0" x2="1445.0" y2="140.0" stroke="rgb(255,0,0)" stroke-width="1.5"/>
<polygon points=" 1438,128 1452,128 1452,152 1438,152" fill="rgb(170,255,170)"/>
<text x="1440.0" y="145.0" font-family="courier" font-size="16" fill="rgb(0,0,0)">y</text>
<polygon points=" 1428,88 1462,88 1462,112 1428,112" fill="rgb(170,255,170)"/>
<text x="1430.0" y="105.0" font-family="courier" font-size="16" fill="rgb(0,0,0)">not</text>
<line x1="1445.0" y1="60.0" x2="1475.0" y2="100.0" stroke="rgb(255,0,0)" stroke-width="1.5"/>
<polygon points=" 1468,88 1482,88 1482,112 1468,112" fill="rgb(170,255,170)"/>
<text x="1470.0" y="105.0" font-family="courier" font-size="16" fill="rgb(0,0,0)">x</text>
<polygon points=" 1433,48 1457,48 1457,72 1433,72" fill="rgb(170,255,170)"/>
<text x="1435.0" y="65.0" font-family="courier" font-size="16" fill="rgb(0,0,0)">&#92;/</text>
<line x1="892.5" y1="20.0" x2="1525.0" y2="60.0" stroke="rgb(255,0,0)" stroke-width="1.5"/>
<line x1="1525.0" y1="60.0" x2="1495.0" y2="100.0" stroke="rgb(255,0,0)" stroke-width="1.5"/>
<polygon points=" 1488,88 1502,88 1502,112 1488,112" fill="rgb(170,255,170)"/>
<text x="1490.0" y="105.0" font-family="courier" font-size="16" fill="rgb(0,0,0)">z</text>
<line x1="1525.0" y1="60.0" x2="1525.0" y2="100.0" stroke="rgb(255,0,0)" stroke-width="1.5"/>
<line x1="1525.0" y1="100.0" x2="1525.0" y2="140.0" stroke="rgb(255,0,0)" stroke-width="1.5"/>
<polygon points=" 1518,128 1532,128 1532,152 1518,152" fill="rgb(170,255,170)"/>
<text x="1520.0" y="145.0" font-family="courier" font-size="16" fill="rgb(0,0,0)">y</text>
<polygon points=" 1508,88 1542,88 1542,112 1508,112" fill="rgb(170,255,170)"/>
<text x="1510.0" y="105.0" font-family="courier" font-size="16" fill="rgb(0,0,0)">not</text>
<line x1="1525.0" y1="60.0" x2="1555.0" y2="100.0" stroke="rgb(255,0,0)" stroke-width="1.5"/>
<polygon points=" 1548,88 1562,88 1562,112 1548,112" fill="rgb(170,255,170)"/>
<text x="1550.0" y="105.0" font-family="courier" font-size="16" fill="rgb(0,0,0)">y</text>
<polygon points=" 1513,48 1537,48 1537,72 1513,72" fill="rgb(170,255,170)"/>
<text x="1515.0" y="65.0" font-family="courier" font-size="16" fill="rgb(0,0,0)">&#92;/</text>
<line x1="892.5" y1="20.0" x2="1610.0" y2="60.0" stroke="rgb(255,0,0)" stroke-width="1.5"/>
<line x1="1610.0" y1="60.0" x2="1575.0" y2="100.0" stroke="rgb(255,0,0)" stroke-width="1.5"/>
<polygon points=" 1568,88 1582,88 1582,112 1568,112" fill="rgb(170,255,170)"/>
<text x="1570.0" y="105.0" font-family="courier" font-size="16" fill="rgb(0,0,0)">z</text>
<line x1="1610.0" y1="60.0" x2="1605.0" y2="100.0" stroke="rgb(255,0,0)" stroke-width="1.5"/>
<line x1="1605.0" y1="100.0" x2="1605.0" y2="140.0" stroke="rgb(255,0,0)" stroke-width="1.5"/>
<polygon points=" 1598,128 1612,128 1612,152 1598,152" fill="rgb(170,255,170)"/>
<text x="1600.0" y="145.0" font-family="courier" font-size="16" fill="rgb(0,0,0)">y</text>
<polygon points=" 1588,88 1622,88 1622,112 1588,112" fill="rgb(170,255,170)"/>
<text x="1590.0" y="105.0" font-family="courier" font-size="16" fill="rgb(0,0,0)">not</text>
<line x1="1610.0" y1="60.0" x2="1645.0" y2="100.0" stroke="rgb(255,0,0)" stroke-width="1.5"/>
<line x1="1645.0" y1="100.0" x2="1645.0" y2="140.0" stroke="rgb(255,0,0)" stroke-width="1.5"/>
<polygon points=" 1638,128 1652,128 1652,152 1638,152" fill="rgb(170,255,170)"/>
<text x="1640.0" y="145.0" font-family="courier" font-size="16" fill="rgb(0,0,0)">z</text>
<polygon points=" 1628,88 1662,88 1662,112 1628,112" fill="rgb(170,255,170)"/>
<text x="1630.0" y="105.0" font-family="courier" font-size="16" fill="rgb(0,0,0)">not</text>
<polygon points=" 1598,48 1622,48 1622,72 1598,72" fill="rgb(170,255,170)"/>
<text x="1600.0" y="65.0" font-family="courier" font-size="16" fill="rgb(0,0,0)">&#92;/</text>
<line x1="892.5" y1="20.0" x2="1685.0" y2="60.0" stroke="rgb(255,0,0)" stroke-width="1.5"/>
<line x1="1685.0" y1="60.0" x2="1675.0" y2="100.0" stroke="rgb(255,0,0)" stroke-width="1.5"/>
<polygon points=" 1668,88 1682,88 1682,112 1668,112" fill="rgb(170,255,170)"/>
<text x="1670.0" y="105.0" font-family="courier" font-size="16" fill="rgb(0,0,0)">z</text>
<line x1="1685.0" y1="60.0" x2="1695.0" y2="100.0" stroke="rgb(255,0,0)" stroke-width="1.5"/>
<polygon points=" 1688,88 1702,88 1702,112 1688,112" fill="rgb(170,255,170)"/>
<text x="1690.0" y="105.0" font-family="courier" font-size="16" fill="rgb(0,0,0)">y</text>
<polygon points=" 1673,48 1697,48 1697,72 1673,72" fill="rgb(170,255,170)"/>
<text x="1675.0" y="65.0" font-family="courier" font-size="16" fill="rgb(0,0,0)">&#92;/</text>
<line x1="892.5" y1="20.0" x2="1730.0" y2="60.0" stroke="rgb(255,0,0)" stroke-width="1.5"/>
<line x1="1730.0" y1="60.0" x2="1715.0" y2="100.0" stroke="rgb(255,0,0)" stroke-width="1.5"/>
<polygon points=" 1708,88 1722,88 1722,112 1708,112" fill="rgb(170,255,170)"/>
<text x="1710.0" y="105.0" font-family="courier" font-size="16" fill="rgb(0,0,0)">z</text>
<line x1="1730.0" y1="60.0" x2="1745.0" y2="100.0" stroke="rgb(255,0,0)" stroke-width="1.5"/>
<line x1="1745.0" y1="100.0" x2="1745.0" y2="140.0" stroke="rgb(255,0,0)" stroke-width="1.5"/>
<polygon points=" 1738,128 1752,128 1752,152 1738,152" fill="rgb(170,255,170)"/>
<text x="1740.0" y="145.0" font-family="courier" font-size="16" fill="rgb(0,0,0)">z</text>
<polygon points=" 1728,88 1762,88 1762,112 1728,112" fill="rgb(170,255,170)"/>
<text x="1730.0" y="105.0" font-family="courier" font-size="16" fill="rgb(0,0,0)">not</text>
<polygon points=" 1718,48 1742,48 1742,72 1718,72" fill="rgb(170,255,170)"/>
<text x="1720.0" y="65.0" font-family="courier" font-size="16" fill="rgb(0,0,0)">&#92;/</text>
<polygon points=" 880,8 904,8 904,32 880,32" fill="rgb(170,255,170)"/>
<text x="882.5" y="25.0" font-family="courier" font-size="16" fill="rgb(0,0,0)">/&#92;</text></svg>