<svg xmlns="http://www.w3.org/2000/svg"
xmlns:xlink="http://www.w3.org/1999/xlink"
version="1.1" baseProfile="full"
width="1700" height="160">
<line x1="845.0" y1="20.0" x2="40.0" y2="60.0" stroke="rgb(255,0,0)" stroke-width="1.5"/>
<polygon points=" 18,48 62,48 62,72 18,72" fill="rgb(170,255,170)"/>
<text x="20.0" y="65.0" font-family="courier" font-size="16" fill="rgb(0,0,0)">true</text>
<line x1="845.0" y1="20.0" x2="80.0" y2="60.0" stroke="rgb(255,0,0)" stroke-width="1.5"/>
<line x1="80.0" y1="60.0" x2="45.0" y2="100.0" stroke="rgb(255,0,0)" stroke-width="1.5"/>
<line x1="45.0" y1="100.0" x2="45.0" y2="140.0" stroke="rgb(255,0,0)" stroke-width="1.5"/>
<polygon points=" 38,128 52,128 52,152 38,152" fill="rgb(255,255,170)"/>
<text x="40.0" y="145.0" font-family="courier" font-size="16" fill="rgb(0,0,0)">x</text>
<polygon points=" 28,88 62,88 62,112 28,112" fill="rgb(255,255,170)"/>
<text x="30.0" y="105.0" font-family="courier" font-size="16" fill="rgb(0,0,0)">not</text>
<line x1="80.0" y1="60.0" x2="85.0" y2="100.0" stroke="rgb(255,0,0)" stroke-width="1.5"/>
<line x1="85.0" y1="100.0" x2="85.0" y2="140.0" stroke="rgb(255,0,0)" stroke-width="1.5"/>
<polygon points=" 78,128 92,128 92,152 78,152" fill="rgb(255,255,170)"/>
<text x="80.0" y="145.0" font-family="courier" font-size="16" fill="rgb(0,0,0)">y</text>
<polygon points=" 68,88 102,88 102,112 68,112" fill="rgb(255,255,170)"/>
<text x="70.0" y="105.0" font-family="courier" font-size="16" fill="rgb(0,0,0)">not</text>
<line x1="80.0" y1="60.0" x2="115.0" y2="100.0" stroke="rgb(255,0,0)" stroke-width="1.5"/>
<polygon points=" 108,88 122,88 122,112 108,112" fill="rgb(255,255,170)"/>
<text x="110.0" y="105.0" font-family="courier" font-size="16" fill="rgb(0,0,0)">x</text>
<polygon points=" 68,48 92,48 92,72 68,72" fill="rgb(255,255,170)"/>
<text x="70.0" y="65.0" font-family="courier" font-size="16" fill="rgb(0,0,0)">&#92;/</text>
<line x1="845.0" y1="20.0" x2="180.0" y2="60.0" stroke="rgb(255,0,0)" stroke-width="1.5"/>
<line x1="180.0" y1="60.0" x2="145.0" y2="100.0" stroke="rgb(255,0,0)" stroke-width="1.5"/>
<line x1="145.0" y1="100.0" x2="145.0" y2="140.0" stroke="rgb(255,0,0)" stroke-width="1.5"/>
<polygon points=" 138,128 152,128 152,152 138,152" fill="rgb(255,255,170)"/>
<text x="140.0" y="145.0" font-family="courier" font-size="16" fill="rgb(0,0,0)">x</text>
<polygon points=" 128,88 162,88 162,112 128,112" fill="rgb(255,255,170)"/>
<text x="130.0" y="105.0" font-family="courier" font-size="16" fill="rgb(0,0,0)">not</text>
<line x1="180.0" y1="60.0" x2="185.0" y2="100.0" stroke="rgb(255,0,0)" stroke-width="1.5"/>
<line x1="185.0" y1="100.0" x2="185.0" y2="140.0" stroke="rgb(255,0,0)" stroke-width="1.5"/>
<polygon points=" 178,128 192,128 192,152 178,152" fill="rgb(255,255,170)"/>
<text x="180.0" y="145.0" font-family="courier" font-size="16" fill="rgb(0,0,0)">y</text>
<polygon points=" 168,88 202,88 202,112 168,112" fill="rgb(255,255,170)"/>
<text x="170.0" y="105.0" font-family="courier" font-size="16" fill="rgb(0,0,0)">not</text>
<line x1="180.0" y1="60.0" x2="215.0" y2="100.0" stroke="rgb(255,0,0)" stroke-width="1.5"/>
<polygon points=" 208,88 222,88 222,112 208,112" fill="rgb(255,255,170)"/>
<text x="210.0" y="105.0" font-family="courier" font-size="16" fill="rgb(0,0,0)">y</text>
<polygon points=" 168,48 192,48 192,72 168,72" fill="rgb(255,255,170)"/>
<text x="170.0" y="65.0" font-family="courier" font-size="16" fill="rgb(0,0,0)">&#92;/</text>
<line x1="845.0" y1="20.0" x2="285.0" y2="60.0" stroke="rgb(255,0,0)" stroke-width="1.5"/>
<line x1="285.0" y1="60.0" x2="245.0" y2="100.0" stroke="rgb(255,0,0)" stroke-width="1.5"/>
<line x1="245.0" y1="100.0" x2="245.0" y2="140.0" stroke="rgb(255,0,0)" stroke-width="1.5"/>
<polygon points=" 238,128 252,128 252,152 238,152" fill="rgb(255,255,170)"/>
<text x="240.0" y="145.0" font-family="courier" font-size="16" fill="rgb(0,0,0)">x</text>
<polygon points=" 228,88 262,88 262,112 228,112" fill="rgb(255,255,170)"/>
<text x="230.0" y="105.0" font-family="courier" font-size="16" fill="rgb(0,0,0)">not</text>
<line x1="285.0" y1="60.0" x2="285.0" y2="100.0" stroke="rgb(255,0,0)" stroke-width="1.5"/>
<line x1="285.0" y1="100.0" x2="285.0" y2="140.0" stroke="rgb(255,0,0)" stroke-width="1.5"/>
<polygon points=" 278,128 292,128 292,152 278,152" fill="rgb(255,255,170)"/>
<text x="280.0" y="145.0" font-family="courier" font-size="16" fill="rgb(0,0,0)">y</text>
<polygon points=" 268,88 302,88 302,112 268,112" fill="rgb(255,255,170)"/>
<text x="270.0" y="105.0" font-family="courier" font-size="16" fill="rgb(0,0,0)">not</text>
<line x1="285.0" y1="60.0" x2="325.0" y2="100.0" stroke="rgb(255,0,0)" stroke-width="1.5"/>
<line x1="325.0" y1="100.0" x2="325.0" y2="140.0" stroke="rgb(255,0,0)" stroke-width="1.5"/>
<polygon points=" 318,128 332,128 332,152 318,152" fill="rgb(255,255,170)"/>
<text x="320.0" y="145.0" font-family="courier" font-size="16" fill="rgb(0,0,0)">z</text>
<polygon points=" 308,88 342,88 342,112 308,112" fill="rgb(255,255,170)"/>
<text x="310.0" y="105.0" font-family="courier" font-size="16" fill="rgb(0,0,0)">not</text>
<polygon points=" 273,48 297,48 297,72 273,72" fill="rgb(255,255,170)"/>
<text x="275.0" y="65.0" font-family="courier" font-size="16" fill="rgb(0,0,0)">&#92;/</text>
<line x1="845.0" y1="20.0" x2="390.0" y2="60.0" stroke="rgb(255,0,0)" stroke-width="1.5"/>
<line x1="390.0" y1="60.0" x2="365.0" y2="100.0" stroke="rgb(255,0,0)" stroke-width="1.5"/>
<line x1="365.0" y1="100.0" x2="365.0" y2="140.0" stroke="rgb(255,0,0)" stroke-width="1.5"/>
<polygon points=" 358,128 372,128 372,152 358,152" fill="rgb(255,255,170)"/>
<text x="360.0" y="145.0" font-family="courier" font-size="16" fill="rgb(0,0,0)">x</text>
<polygon points=" 348,88 382,88 382,112 348,112" fill="rgb(255,255,170)"/>
<text x="350.0" y="105.0" font-family="courier" font-size="16" fill="rgb(0,0,0)">not</text>
<line x1="390.0" y1="60.0" x2="395.0" y2="100.0" stroke="rgb(255,0,0)" stroke-width="1.5"/>
<polygon points=" 388,88 402,88 402,112 388,112" fill="rgb(255,255,170)"/>
<text x="390.0" y="105.0" font-family="courier" font-size="16" fill="rgb(0,0,0)">z</text>
<line x1="390.0" y1="60.0" x2="415.0" y2="100.0" stroke="rgb(255,0,0)" stroke-width="1.5"/>
<polygon points=" 408,88 422,88 422,112 408,112" fill="rgb(255,255,170)"/>
<text x="410.0" y="105.0" font-family="courier" font-size="16" fill="rgb(0,0,0)">x</text>
<polygon points=" 378,48 402,48 402,72 378,72" fill="rgb(255,255,170)"/>
<text x="380.0" y="65.0" font-family="courier" font-size="16" fill="rgb(0,0,0)">&#92;/</text>
<line x1="845.0" y1="20.0" x2="470.0" y2="60.0" stroke="rgb(255,0,0)" stroke-width="1.5"/>
<line x1="470.0" y1="60.0" x2="445.0" y2="100.0" stroke="rgb(255,0,0)" stroke-width="1.5"/>
<line x1="445.0" y1="100.0" x2="445.0" y2="140.0" stroke="rgb(255,0,0)" stroke-width="1.5"/>
<polygon points=" 438,128 452,128 452,152 438,152" fill="rgb(255,255,170)"/>
<text x="440.0" y="145.0" font-family="courier" font-size="16" fill="rgb(0,0,0)">x</text>
<polygon points=" 428,88 462,88 462,112 428,112" fill="rgb(255,255,170)"/>
<text x="430.0" y="105.0" font-family="courier" font-size="16" fill="rgb(0,0,0)">not</text>
<line x1="470.0" y1="60.0" x2="475.0" y2="100.0" stroke="rgb(255,0,0)" stroke-width="1.5"/>
<polygon points=" 468,88 482,88 482,112 468,112" fill="rgb(255,255,170)"/>
<text x="470.0" y="105.0" font-family="courier" font-size="16" fill="rgb(0,0,0)">z</text>
<line x1="470.0" y1="60.0" x2="495.0" y2="100.0" stroke="rgb(255,0,0)" stroke-width="1.5"/>
<polygon points=" 488,88 502,88 502,112 488,112" fill="rgb(255,255,170)"/>
<text x="490.0" y="105.0" font-family="courier" font-size="16" fill="rgb(0,0,0)">y</text>
<polygon points=" 458,48 482,48 482,72 458,72" fill="rgb(255,255,170)"/>
<text x="460.0" y="65.0" font-family="courier" font-size="16" fill="rgb(0,0,0)">&#92;/</text>
<line x1="845.0" y1="20.0" x2="555.0" y2="60.0" stroke="rgb(255,0,0)" stroke-width="1.5"/>
<line x1="555.0" y1="60.0" x2="525.0" y2="100.0" stroke="rgb(255,0,0)" stroke-width="1.5"/>
<line x1="525.0" y1="100.0" x2="525.0" y2="140.0" stroke="rgb(255,0,0)" stroke-width="1.5"/>
<polygon points=" 518,128 532,128 532,152 518,152" fill="rgb(255,255,170)"/>
<text x="520.0" y="145.0" font-family="courier" font-size="16" fill="rgb(0,0,0)">x</text>
<polygon points=" 508,88 542,88 542,112 508,112" fill="rgb(255,255,170)"/>
<text x="510.0" y="105.0" font-family="courier" font-size="16" fill="rgb(0,0,0)">not</text>
<line x1="555.0" y1="60.0" x2="555.0" y2="100.0" stroke="rgb(255,0,0)" stroke-width="1.5"/>
<polygon points=" 548,88 562,88 562,112 548,112" fill="rgb(255,255,170)"/>
<text x="550.0" y="105.0" font-family="courier" font-size="16" fill="rgb(0,0,0)">z</text>
<line x1="555.0" y1="60.0" x2="585.0" y2="100.0" stroke="rgb(255,0,0)" stroke-width="1.5"/>
<line x1="585.0" y1="100.0" x2="585.0" y2="140.0" stroke="rgb(255,0,0)" stroke-width="1.5"/>
<polygon points=" 578,128 592,128 592,152 578,152" fill="rgb(255,255,170)"/>
<text x="580.0" y="145.0" font-family="courier" font-size="16" fill="rgb(0,0,0)">z</text>
<polygon points=" 568,88 602,88 602,112 568,112" fill="rgb(255,255,170)"/>
<text x="570.0" y="105.0" font-family="courier" font-size="16" fill="rgb(0,0,0)">not</text>
<polygon points=" 543,48 567,48 567,72 543,72" fill="rgb(255,255,170)"/>
<text x="545.0" y="65.0" font-family="courier" font-size="16" fill="rgb(0,0,0)">&#92;/</text>
<line x1="845.0" y1="20.0" x2="625.0" y2="60.0" stroke="rgb(255,0,0)" stroke-width="1.5"/>
<line x1="625.0" y1="60.0" x2="615.0" y2="100.0" stroke="rgb(255,0,0)" stroke-width="1.5"/>
<polygon points=" 608,88 622,88 622,112 608,112" fill="rgb(255,255,170)"/>
<text x="610.0" y="105.0" font-family="courier" font-size="16" fill="rgb(0,0,0)">y</text>
<line x1="625.0" y1="60.0" x2="635.0" y2="100.0" stroke="rgb(255,0,0)" stroke-width="1.5"/>
<polygon points=" 628,88 642,88 642,112 628,112" fill="rgb(255,255,170)"/>
<text x="630.0" y="105.0" font-family="courier" font-size="16" fill="rgb(0,0,0)">x</text>
<polygon points=" 613,48 637,48 637,72 613,72" fill="rgb(255,255,170)"/>
<text x="615.0" y="65.0" font-family="courier" font-size="16" fill="rgb(0,0,0)">&#92;/</text>
<line x1="845.0" y1="20.0" x2="680.0" y2="60.0" stroke="rgb(255,0,0)" stroke-width="1.5"/>
<line x1="680.0" y1="60.0" x2="655.0" y2="100.0" stroke="rgb(255,0,0)" stroke-width="1.5"/>
<polygon points=" 648,88 662,88 662,112 648,112" fill="rgb(255,255,170)"/>
<text x="650.0" y="105.0" font-family="courier" font-size="16" fill="rgb(0,0,0)">y</text>
<line x1="680.0" y1="60.0" x2="675.0" y2="100.0" stroke="rgb(255,0,0)" stroke-width="1.5"/>
<polygon points=" 668,88 682,88 682,112 668,112" fill="rgb(255,255,170)"/>
<text x="670.0" y="105.0" font-family="courier" font-size="16" fill="rgb(0,0,0)">x</text>
<line x1="680.0" y1="60.0" x2="705.0" y2="100.0" stroke="rgb(255,0,0)" stroke-width="1.5"/>
<line x1="705.0" y1="100.0" x2="705.0" y2="140.0" stroke="rgb(255,0,0)" stroke-width="1.5"/>
<polygon points=" 698,128 712,128 712,152 698,152" fill="rgb(255,255,170)"/>
<text x="700.0" y="145.0" font-family="courier" font-size="16" fill="rgb(0,0,0)">z</text>
<polygon points=" 688,88 722,88 722,112 688,112" fill="rgb(255,255,170)"/>
<text x="690.0" y="105.0" font-family="courier" font-size="16" fill="rgb(0,0,0)">not</text>
<polygon points=" 668,48 692,48 692,72 668,72" fill="rgb(255,255,170)"/>
<text x="670.0" y="65.0" font-family="courier" font-size="16" fill="rgb(0,0,0)">&#92;/</text>
<line x1="845.0" y1="20.0" x2="765.0" y2="60.0" stroke="rgb(255,0,0)" stroke-width="1.5"/>
<line x1="765.0" y1="60.0" x2="735.0" y2="100.0" stroke="rgb(255,0,0)" stroke-width="1.5"/>
<polygon points=" 728,88 742,88 742,112 728,112" fill="rgb(255,255,170)"/>
<text x="730.0" y="105.0" font-family="courier" font-size="16" fill="rgb(0,0,0)">y</text>
<line x1="765.0" y1="60.0" x2="765.0" y2="100.0" stroke="rgb(255,0,0)" stroke-width="1.5"/>
<line x1="765.0" y1="100.0" x2="765.0" y2="140.0" stroke="rgb(255,0,0)" stroke-width="1.5"/>
<polygon points=" 758,128 772,128 772,152 758,152" fill="rgb(255,255,170)"/>
<text x="760.0" y="145.0" font-family="courier" font-size="16" fill="rgb(0,0,0)">y</text>
<polygon points=" 748,88 782,88 782,112 748,112" fill="rgb(255,255,170)"/>
<text x="750.0" y="105.0" font-family="courier" font-size="16" fill="rgb(0,0,0)">not</text>
<line x1="765.0" y1="60.0" x2="795.0" y2="100.0" stroke="rgb(255,0,0)" stroke-width="1.5"/>
<polygon points=" 788,88 802,88 802,112 788,112" fill="rgb(255,255,170)"/>
<text x="790.0" y="105.0" font-family="courier" font-size="16" fill="rgb(0,0,0)">x</text>
<polygon points=" 753,48 777,48 777,72 753,72" fill="rgb(255,255,170)"/>
<text x="755.0" y="65.0" font-family="courier" font-size="16" fill="rgb(0,0,0)">&#92;/</text>
<line x1="845.0" y1="20.0" x2="830.0" y2="60.0" stroke="rgb(255,0,0)" stroke-width="1.5"/>
<line x1="830.0" y1="60.0" x2="815.0" y2="100.0" stroke="rgb(255,0,0)" stroke-width="1.5"/>
<polygon points=" 808,88 822,88 822,112 808,112" fill="rgb(255,255,170)"/>
<text x="810.0" y="105.0" font-family="courier" font-size="16" fill="rgb(0,0,0)">y</text>
<line x1="830.0" y1="60.0" x2="845.0" y2="100.0" stroke="rgb(255,0,0)" stroke-width="1.5"/>
<line x1="845.0" y1="100.0" x2="845.0" y2="140.0" stroke="rgb(255,0,0)" stroke-width="1.5"/>
<polygon points=" 838,128 852,128 852,152 838,152" fill="rgb(255,255,170)"/>
<text x="840.0" y="145.0" font-family="courier" font-size="16" fill="rgb(0,0,0)">y</text>
<polygon points=" 828,88 862,88 862,112 828,112" fill="rgb(255,255,170)"/>
<text x="830.0" y="105.0" font-family="courier" font-size="16" fill="rgb(0,0,0)">not</text>
<polygon points=" 818,48 842,48 842,72 818,72" fill="rgb(255,255,170)"/>
<text x="820.0" y="65.0" font-family="courier" font-size="16" fill="rgb(0,0,0)">&#92;/</text>
<line x1="845.0" y1="20.0" x2="910.0" y2="60.0" stroke="rgb(255,0,0)" stroke-width="1.5"/>
<line x1="910.0" y1="60.0" x2="875.0" y2="100.0" stroke="rgb(255,0,0)" stroke-width="1.5"/>
<polygon points=" 868,88 882,88 882,112 868,112" fill="rgb(255,255,170)"/>
<text x="870.0" y="105.0" font-family="courier" font-size="16" fill="rgb(0,0,0)">y</text>
<line x1="910.0" y1="60.0" x2="905.0" y2="100.0" stroke="rgb(255,0,0)" stroke-width="1.5"/>
<line x1="905.0" y1="100.0" x2="905.0" y2="140.0" stroke="rgb(255,0,0)" stroke-width="1.5"/>
<polygon points=" 898,128 912,128 912,152 898,152" fill="rgb(255,255,170)"/>
<text x="900.0" y="145.0" font-family="courier" font-size="16" fill="rgb(0,0,0)">y</text>
<polygon points=" 888,88 922,88 922,112 888,112" fill="rgb(255,255,170)"/>
<text x="890.0" y="105.0" font-family="courier" font-size="16" fill="rgb(0,0,0)">not</text>
<line x1="910.0" y1="60.0" x2="945.0" y2="100.0" stroke="rgb(255,0,0)" stroke-width="1.5"/>
<line x1="945.0" y1="100.0" x2="945.0" y2="140.0" stroke="rgb(255,0,0)" stroke-width="1.5"/>
<polygon points=" 938,128 952,128 952,152 938,152" fill="rgb(255,255,170)"/>
<text x="940.0" y="145.0" font-family="courier" font-size="16" fill="rgb(0,0,0)">z</text>
<polygon points=" 928,88 962,88 962,112 928,112" fill="rgb(255,255,170)"/>
<text x="930.0" y="105.0" font-family="courier" font-size="16" fill="rgb(0,0,0)">not</text>
<polygon points=" 898,48 922,48 922,72 898,72" fill="rgb(255,255,170)"/>
<text x="900.0" y="65.0" font-family="courier" font-size="16" fill="rgb(0,0,0)">&#92;/</text>
<line x1="845.0" y1="20.0" x2="995.0" y2="60.0" stroke="rgb(255,0,0)" stroke-width="1.5"/>
<line x1="995.0" y1="60.0" x2="975.0" y2="100.0" stroke="rgb(255,0,0)" stroke-width="1.5"/>
<polygon points=" 968,88 982,88 982,112 968,112" fill="rgb(255,255,170)"/>
<text x="970.0" y="105.0" font-family="courier" font-size="16" fill="rgb(0,0,0)">y</text>
<line x1="995.0" y1="60.0" x2="995.0" y2="100.0" stroke="rgb(255,0,0)" stroke-width="1.5"/>
<polygon points=" 988,88 1002,88 1002,112 988,112" fill="rgb(255,255,170)"/>
<text x="990.0" y="105.0" font-family="courier" font-size="16" fill="rgb(0,0,0)">z</text>
<line x1="995.0" y1="60.0" x2="1015.0" y2="100.0" stroke="rgb(255,0,0)" stroke-width="1.5"/>
<polygon points=" 1008,88 1022,88 1022,112 1008,112" fill="rgb(255,255,170)"/>
<text x="1010.0" y="105.0" font-family="courier" font-size="16" fill="rgb(0,0,0)">x</text>
<polygon points=" 983,48 1007,48 1007,72 983,72" fill="rgb(255,255,170)"/>
<text x="985.0" y="65.0" font-family="courier" font-size="16" fill="rgb(0,0,0)">&#92;/</text>
<line x1="845.0" y1="20.0" x2="1045.0" y2="60.0" stroke="rgb(255,0,0)" stroke-width="1.5"/>
<line x1="1045.0" y1="60.0" x2="1035.0" y2="100.0" stroke="rgb(255,0,0)" stroke-width="1.5"/>
<polygon points=" 1028,88 1042,88 1042,112 1028,112" fill="rgb(255,255,170)"/>
<text x="1030.0" y="105.0" font-family="courier" font-size="16" fill="rgb(0,0,0)">y</text>
<line x1="1045.0" y1="60.0" x2="1055.0" y2="100.0" stroke="rgb(255,0,0)" stroke-width="1.5"/>
<polygon points=" 1048,88 1062,88 1062,112 1048,112" fill="rgb(255,255,170)"/>
<text x="1050.0" y="105.0" font-family="courier" font-size="16" fill="rgb(0,0,0)">z</text>
<polygon points=" 1033,48 1057,48 1057,72 1033,72" fill="rgb(255,255,170)"/>
<text x="1035.0" y="65.0" font-family="courier" font-size="16" fill="rgb(0,0,0)">&#92;/</text>
<line x1="845.0" y1="20.0" x2="1100.0" y2="60.0" stroke="rgb(255,0,0)" stroke-width="1.5"/>
<line x1="1100.0" y1="60.0" x2="1075.0" y2="100.0" stroke="rgb(255,0,0)" stroke-width="1.5"/>
<polygon points=" 1068,88 1082,88 1082,112 1068,112" fill="rgb(255,255,170)"/>
<text x="1070.0" y="105.0" font-family="courier" font-size="16" fill="rgb(0,0,0)">y</text>
<line x1="1100.0" y1="60.0" x2="1095.0" y2="100.0" stroke="rgb(255,0,0)" stroke-width="1.5"/>
<polygon points=" 1088,88 1102,88 1102,112 1088,112" fill="rgb(255,255,170)"/>
<text x="1090.0" y="105.0" font-family="courier" font-size="16" fill="rgb(0,0,0)">z</text>
<line x1="1100.0" y1="60.0" x2="1125.0" y2="100.0" stroke="rgb(255,0,0)" stroke-width="1.5"/>
<line x1="1125.0" y1="100.0" x2="1125.0" y2="140.0" stroke="rgb(255,0,0)" stroke-width="1.5"/>
<polygon points=" 1118,128 1132,128 1132,152 1118,152" fill="rgb(255,255,170)"/>
<text x="1120.0" y="145.0" font-family="courier" font-size="16" fill="rgb(0,0,0)">z</text>
<polygon points=" 1108,88 1142,88 1142,112 1108,112" fill="rgb(255,255,170)"/>
<text x="1110.0" y="105.0" font-family="courier" font-size="16" fill="rgb(0,0,0)">not</text>
<polygon points=" 1088,48 1112,48 1112,72 1088,72" fill="rgb(255,255,170)"/>
<text x="1090.0" y="65.0" font-family="courier" font-size="16" fill="rgb(0,0,0)">&#92;/</text>
<line x1="845.0" y1="20.0" x2="1165.0" y2="60.0" stroke="rgb(255,0,0)" stroke-width="1.5"/>
<line x1="1165.0" y1="60.0" x2="1155.0" y2="100.0" stroke="rgb(255,0,0)" stroke-width="1.5"/>
<polygon points=" 1148,88 1162,88 1162,112 1148,112" fill="rgb(255,255,170)"/>
<text x="1150.0" y="105.0" font-family="courier" font-size="16" fill="rgb(0,0,0)">z</text>
<line x1="1165.0" y1="60.0" x2="1175.0" y2="100.0" stroke="rgb(255,0,0)" stroke-width="1.5"/>
<polygon points=" 1168,88 1182,88 1182,112 1168,112" fill="rgb(255,255,170)"/>
<text x="1170.0" y="105.0" font-family="courier" font-size="16" fill="rgb(0,0,0)">x</text>
<polygon points=" 1153,48 1177,48 1177,72 1153,72" fill="rgb(255,255,170)"/>
<text x="1155.0" y="65.0" font-family="courier" font-size="16" fill="rgb(0,0,0)">&#92;/</text>
<line x1="845.0" y1="20.0" x2="1215.0" y2="60.0" stroke="rgb(255,0,0)" stroke-width="1.5"/>
<line x1="1215.0" y1="60.0" x2="1195.0" y2="100.0" stroke="rgb(255,0,0)" stroke-width="1.5"/>
<polygon points=" 1188,88 1202,88 1202,112 1188,112" fill="rgb(255,255,170)"/>
<text x="1190.0" y="105.0" font-family="courier" font-size="16" fill="rgb(0,0,0)">z</text>
<line x1="1215.0" y1="60.0" x2="1215.0" y2="100.0" stroke="rgb(255,0,0)" stroke-width="1.5"/>
<polygon points=" 1208,88 1222,88 1222,112 1208,112" fill="rgb(255,255,170)"/>
<text x="1210.0" y="105.0" font-family="courier" font-size="16" fill="rgb(0,0,0)">x</text>
<line x1="1215.0" y1="60.0" x2="1235.0" y2="100.0" stroke="rgb(255,0,0)" stroke-width="1.5"/>
<polygon points=" 1228,88 1242,88 1242,112 1228,112" fill="rgb(255,255,170)"/>
<text x="1230.0" y="105.0" font-family="courier" font-size="16" fill="rgb(0,0,0)">y</text>
<polygon points=" 1203,48 1227,48 1227,72 1203,72" fill="rgb(255,255,170)"/>
<text x="1205.0" y="65.0" font-family="courier" font-size="16" fill="rgb(0,0,0)">&#92;/</text>
<line x1="845.0" y1="20.0" x2="1280.0" y2="60.0" stroke="rgb(255,0,0)" stroke-width="1.5"/>
<line x1="1280.0" y1="60.0" x2="1255.0" y2="100.0" stroke="rgb(255,0,0)" stroke-width="1.5"/>
<polygon points=" 1248,88 1262,88 1262,112 1248,112" fill="rgb(255,255,170)"/>
<text x="1250.0" y="105.0" font-family="courier" font-size="16" fill="rgb(0,0,0)">z</text>
<line x1="1280.0" y1="60.0" x2="1275.0" y2="100.0" stroke="rgb(255,0,0)" stroke-width="1.5"/>
<polygon points=" 1268,88 1282,88 1282,112 1268,112" fill="rgb(255,255,170)"/>
<text x="1270.0" y="105.0" font-family="courier" font-size="16" fill="rgb(0,0,0)">x</text>
<line x1="1280.0" y1="60.0" x2="1305.0" y2="100.0" stroke="rgb(255,0,0)" stroke-width="1.5"/>
<line x1="1305.0" y1="100.0" x2="1305.0" y2="140.0" stroke="rgb(255,0,0)" stroke-width="1.5"/>
<polygon points=" 1298,128 1312,128 1312,152 1298,152" fill="rgb(255,255,170)"/>
<text x="1300.0" y="145.0" font-family="courier" font-size="16" fill="rgb(0,0,0)">z</text>
<polygon points=" 1288,88 1322,88 1322,112 1288,112" fill="rgb(255,255,170)"/>
<text x="1290.0" y="105.0" font-family="courier" font-size="16" fill="rgb(0,0,0)">not</text>
<polygon points=" 1268,48 1292,48 1292,72 1268,72" fill="rgb(255,255,170)"/>
<text x="1270.0" y="65.0" font-family="courier" font-size="16" fill="rgb(0,0,0)">&#92;/</text>
<line x1="845.0" y1="20.0" x2="1365.0" y2="60.0" stroke="rgb(255,0,0)" stroke-width="1.5"/>
<line x1="1365.0" y1="60.0" x2="1335.0" y2="100.0" stroke="rgb(255,0,0)" stroke-width="1.5"/>
<polygon points=" 1328,88 1342,88 1342,112 1328,112" fill="rgb(255,255,170)"/>
<text x="1330.0" y="105.0" font-family="courier" font-size="16" fill="rgb(0,0,0)">z</text>
<line x1="1365.0" y1="60.0" x2="1365.0" y2="100.0" stroke="rgb(255,0,0)" stroke-width="1.5"/>
<line x1="1365.0" y1="100.0" x2="1365.0" y2="140.0" stroke="rgb(255,0,0)" stroke-width="1.5"/>
<polygon points=" 1358,128 1372,128 1372,152 1358,152" fill="rgb(255,255,170)"/>
<text x="1360.0" y="145.0" font-family="courier" font-size="16" fill="rgb(0,0,0)">y</text>
<polygon points=" 1348,88 1382,88 1382,112 1348,112" fill="rgb(255,255,170)"/>
<text x="1350.0" y="105.0" font-family="courier" font-size="16" fill="rgb(0,0,0)">not</text>
<line x1="1365.0" y1="60.0" x2="1395.0" y2="100.0" stroke="rgb(255,0,0)" stroke-width="1.5"/>
<polygon points=" 1388,88 1402,88 1402,112 1388,112" fill="rgb(255,255,170)"/>
<text x="1390.0" y="105.0" font-family="courier" font-size="16" fill="rgb(0,0,0)">x</text>
<polygon points=" 1353,48 1377,48 1377,72 1353,72" fill="rgb(255,255,170)"/>
<text x="1355.0" y="65.0" font-family="courier" font-size="16" fill="rgb(0,0,0)">&#92;/</text>
<line x1="845.0" y1="20.0" x2="1445.0" y2="60.0" stroke="rgb(255,0,0)" stroke-width="1.5"/>
<line x1="1445.0" y1="60.0" x2="1415.0" y2="100.0" stroke="rgb(255,0,0)" stroke-width="1.5"/>
<polygon points=" 1408,88 1422,88 1422,112 1408,112" fill="rgb(255,255,170)"/>
<text x="1410.0" y="105.0" font-family="courier" font-size="16" fill="rgb(0,0,0)">z</text>
<line x1="1445.0" y1="60.0" x2="1445.0" y2="100.0" stroke="rgb(255,0,0)" stroke-width="1.5"/>
<line x1="1445.0" y1="100.0" x2="1445.0" y2="140.0" stroke="rgb(255,0,0)" stroke-width="1.5"/>
<polygon points=" 1438,128 1452,128 1452,152 1438,152" fill="rgb(255,255,170)"/>
<text x="1440.0" y="145.0" font-family="courier" font-size="16" fill="rgb(0,0,0)">y</text>
<polygon points=" 1428,88 1462,88 1462,112 1428,112" fill="rgb(255,255,170)"/>
<text x="1430.0" y="105.0" font-family="courier" font-size="16" fill="rgb(0,0,0)">not</text>
<line x1="1445.0" y1="60.0" x2="1475.0" y2="100.0" stroke="rgb(255,0,0)" stroke-width="1.5"/>
<polygon points=" 1468,88 1482,88 1482,112 1468,112" fill="rgb(255,255,170)"/>
<text x="1470.0" y="105.0" font-family="courier" font-size="16" fill="rgb(0,0,0)">y</text>
<polygon points=" 1433,48 1457,48 1457,72 1433,72" fill="rgb(255,255,170)"/>
<text x="1435.0" y="65.0" font-family="courier" font-size="16" fill="rgb(0,0,0)">&#92;/</text>
<line x1="845.0" y1="20.0" x2="1530.0" y2="60.0" stroke="rgb(255,0,0)" stroke-width="1.5"/>
<line x1="1530.0" y1="60.0" x2="1495.0" y2="100.0" stroke="rgb(255,0,0)" stroke-width="1.5"/>
<polygon points=" 1488,88 1502,88 1502,112 1488,112" fill="rgb(255,255,170)"/>
<text x="1490.0" y="105.0" font-family="courier" font-size="16" fill="rgb(0,0,0)">z</text>
<line x1="1530.0" y1="60.0" x2="1525.0" y2="100.0" stroke="rgb(255,0,0)" stroke-width="1.5"/>
<line x1="1525.0" y1="100.0" x2="1525.0" y2="140.0" stroke="rgb(255,0,0)" stroke-width="1.5"/>
<polygon points=" 1518,128 1532,128 1532,152 1518,152" fill="rgb(255,255,170)"/>
<text x="1520.0" y="145.0" font-family="courier" font-size="16" fill="rgb(0,0,0)">y</text>
<polygon points=" 1508,88 1542,88 1542,112 1508,112" fill="rgb(255,255,170)"/>
<text x="1510.0" y="105.0" font-family="courier" font-size="16" fill="rgb(0,0,0)">not</text>
<line x1="1530.0" y1="60.0" x2="1565.0" y2="100.0" stroke="rgb(255,0,0)" stroke-width="1.5"/>
<line x1="1565.0" y1="100.0" x2="1565.0" y2="140.0" stroke="rgb(255,0,0)" stroke-width="1.5"/>
<polygon points=" 1558,128 1572,128 1572,152 1558,152" fill="rgb(255,255,170)"/>
<text x="1560.0" y="145.0" font-family="courier" font-size="16" fill="rgb(0,0,0)">z</text>
<polygon points=" 1548,88 1582,88 1582,112 1548,112" fill="rgb(255,255,170)"/>
<text x="1550.0" y="105.0" font-family="courier" font-size="16" fill="rgb(0,0,0)">not</text>
<polygon points=" 1518,48 1542,48 1542,72 1518,72" fill="rgb(255,255,170)"/>
<text x="1520.0" y="65.0" font-family="courier" font-size="16" fill="rgb(0,0,0)">&#92;/</text>
<line x1="845.0" y1="20.0" x2="1605.0" y2="60.0" stroke="rgb(255,0,0)" stroke-width="1.5"/>
<line x1="1605.0" y1="60.0" x2="1595.0" y2="100.0" stroke="rgb(255,0,0)" stroke-width="1.5"/>
<polygon points=" 1588,88 1602,88 1602,112 1588,112" fill="rgb(255,255,170)"/>
<text x="1590.0" y="105.0" font-family="courier" font-size="16" fill="rgb(0,0,0)">z</text>
<line x1="1605.0" y1="60.0" x2="1615.0" y2="100.0" stroke="rgb(255,0,0)" stroke-width="1.5"/>
<polygon points=" 1608,88 1622,88 1622,112 1608,112" fill="rgb(255,255,170)"/>
<text x="1610.0" y="105.0" font-family="courier" font-size="16" fill="rgb(0,0,0)">y</text>
<polygon points=" 1593,48 1617,48 1617,72 1593,72" fill="rgb(255,255,170)"/>
<text x="1595.0" y="65.0" font-family="courier" font-size="16" fill="rgb(0,0,0)">&#92;/</text>
<line x1="845.0" y1="20.0" x2="1650.0" y2="60.0" stroke="rgb(255,0,0)" stroke-width="1.5"/>
<line x1="1650.0" y1="60.0" x2="1635.0" y2="100.0" stroke="rgb(255,0,0)" stroke-width="1.5"/>
<polygon points=" 1628,88 1642,88 1642,112 1628,112" fill="rgb(255,255,170)"/>
<text x="1630.0" y="105.0" font-family="courier" font-size="16" fill="rgb(0,0,0)">z</text>
<line x1="1650.0" y1="60.0" x2="1665.0" y2="100.0" stroke="rgb(255,0,0)" stroke-width="1.5"/>
<line x1="1665.0" y1="100.0" x2="1665.0" y2="140.0" stroke="rgb(255,0,0)" stroke-width="1.5"/>
<polygon points=" 1658,128 1672,128 1672,152 1658,152" fill="rgb(255,255,170)"/>
<text x="1660.0" y="145.0" font-family="courier" font-size="16" fill="rgb(0,0,0)">z</text>
<polygon points=" 1648,88 1682,88 1682,112 1648,112" fill="rgb(255,255,170)"/>
<text x="1650.0" y="105.0" font-family="courier" font-size="16" fill="rgb(0,0,0)">not</text>
<polygon points=" 1638,48 1662,48 1662,72 1638,72" fill="rgb(255,255,170)"/>
<text x="1640.0" y="65.0" font-family="courier" font-size="16" fill="rgb(0,0,0)">&#92;/</text>
<polygon points=" 833,8 857,8 857,32 833,32" fill="rgb(255,255,170)"/>
<text x="835.0" y="25.0" font-family="courier" font-size="16" fill="rgb(0,0,0)">/&#92;</text></svg>