<svg xmlns="http://www.w3.org/2000/svg"
xmlns:xlink="http://www.w3.org/1999/xlink"
version="1.1" baseProfile="full"
width="1600" height="160">
<line x1="795.0" y1="20.0" x2="40.0" y2="60.0" stroke="rgb(255,0,0)" stroke-width="1.5"/>
<polygon points=" 18,48 62,48 62,72 18,72" fill="rgb(255,170,170)"/>
<text x="20.0" y="65.0" font-family="courier" font-size="16" fill="rgb(0,0,0)">true</text>
<line x1="795.0" y1="20.0" x2="80.0" y2="60.0" stroke="rgb(255,0,0)" stroke-width="1.5"/>
<line x1="80.0" y1="60.0" x2="45.0" y2="100.0" stroke="rgb(255,0,0)" stroke-width="1.5"/>
<line x1="45.0" y1="100.0" x2="45.0" y2="140.0" stroke="rgb(255,0,0)" stroke-width="1.5"/>
<polygon points=" 38,128 52,128 52,152 38,152" fill="rgb(255,170,170)"/>
<text x="40.0" y="145.0" font-family="courier" font-size="16" fill="rgb(0,0,0)">x</text>
<polygon points=" 28,88 62,88 62,112 28,112" fill="rgb(255,170,170)"/>
<text x="30.0" y="105.0" font-family="courier" font-size="16" fill="rgb(0,0,0)">not</text>
<line x1="80.0" y1="60.0" x2="85.0" y2="100.0" stroke="rgb(255,0,0)" stroke-width="1.5"/>
<line x1="85.0" y1="100.0" x2="85.0" y2="140.0" stroke="rgb(255,0,0)" stroke-width="1.5"/>
<polygon points=" 78,128 92,128 92,152 78,152" fill="rgb(255,170,170)"/>
<text x="80.0" y="145.0" font-family="courier" font-size="16" fill="rgb(0,0,0)">y</text>
<polygon points=" 68,88 102,88 102,112 68,112" fill="rgb(255,170,170)"/>
<text x="70.0" y="105.0" font-family="courier" font-size="16" fill="rgb(0,0,0)">not</text>
<line x1="80.0" y1="60.0" x2="115.0" y2="100.0" stroke="rgb(255,0,0)" stroke-width="1.5"/>
<polygon points=" 108,88 122,88 122,112 108,112" fill="rgb(255,170,170)"/>
<text x="110.0" y="105.0" font-family="courier" font-size="16" fill="rgb(0,0,0)">y</text>
<polygon points=" 68,48 92,48 92,72 68,72" fill="rgb(255,170,170)"/>
<text x="70.0" y="65.0" font-family="courier" font-size="16" fill="rgb(0,0,0)">&#92;/</text>
<line x1="795.0" y1="20.0" x2="185.0" y2="60.0" stroke="rgb(255,0,0)" stroke-width="1.5"/>
<line x1="185.0" y1="60.0" x2="145.0" y2="100.0" stroke="rgb(255,0,0)" stroke-width="1.5"/>
<line x1="145.0" y1="100.0" x2="145.0" y2="140.0" stroke="rgb(255,0,0)" stroke-width="1.5"/>
<polygon points=" 138,128 152,128 152,152 138,152" fill="rgb(255,170,170)"/>
<text x="140.0" y="145.0" font-family="courier" font-size="16" fill="rgb(0,0,0)">x</text>
<polygon points=" 128,88 162,88 162,112 128,112" fill="rgb(255,170,170)"/>
<text x="130.0" y="105.0" font-family="courier" font-size="16" fill="rgb(0,0,0)">not</text>
<line x1="185.0" y1="60.0" x2="185.0" y2="100.0" stroke="rgb(255,0,0)" stroke-width="1.5"/>
<line x1="185.0" y1="100.0" x2="185.0" y2="140.0" stroke="rgb(255,0,0)" stroke-width="1.5"/>
<polygon points=" 178,128 192,128 192,152 178,152" fill="rgb(255,170,170)"/>
<text x="180.0" y="145.0" font-family="courier" font-size="16" fill="rgb(0,0,0)">y</text>
<polygon points=" 168,88 202,88 202,112 168,112" fill="rgb(255,170,170)"/>
<text x="170.0" y="105.0" font-family="courier" font-size="16" fill="rgb(0,0,0)">not</text>
<line x1="185.0" y1="60.0" x2="225.0" y2="100.0" stroke="rgb(255,0,0)" stroke-width="1.5"/>
<line x1="225.0" y1="100.0" x2="225.0" y2="140.0" stroke="rgb(255,0,0)" stroke-width="1.5"/>
<polygon points=" 218,128 232,128 232,152 218,152" fill="rgb(255,170,170)"/>
<text x="220.0" y="145.0" font-family="courier" font-size="16" fill="rgb(0,0,0)">z</text>
<polygon points=" 208,88 242,88 242,112 208,112" fill="rgb(255,170,170)"/>
<text x="210.0" y="105.0" font-family="courier" font-size="16" fill="rgb(0,0,0)">not</text>
<polygon points=" 173,48 197,48 197,72 173,72" fill="rgb(255,170,170)"/>
<text x="175.0" y="65.0" font-family="courier" font-size="16" fill="rgb(0,0,0)">&#92;/</text>
<line x1="795.0" y1="20.0" x2="290.0" y2="60.0" stroke="rgb(255,0,0)" stroke-width="1.5"/>
<line x1="290.0" y1="60.0" x2="265.0" y2="100.0" stroke="rgb(255,0,0)" stroke-width="1.5"/>
<line x1="265.0" y1="100.0" x2="265.0" y2="140.0" stroke="rgb(255,0,0)" stroke-width="1.5"/>
<polygon points=" 258,128 272,128 272,152 258,152" fill="rgb(255,170,170)"/>
<text x="260.0" y="145.0" font-family="courier" font-size="16" fill="rgb(0,0,0)">x</text>
<polygon points=" 248,88 282,88 282,112 248,112" fill="rgb(255,170,170)"/>
<text x="250.0" y="105.0" font-family="courier" font-size="16" fill="rgb(0,0,0)">not</text>
<line x1="290.0" y1="60.0" x2="295.0" y2="100.0" stroke="rgb(255,0,0)" stroke-width="1.5"/>
<polygon points=" 288,88 302,88 302,112 288,112" fill="rgb(255,170,170)"/>
<text x="290.0" y="105.0" font-family="courier" font-size="16" fill="rgb(0,0,0)">z</text>
<line x1="290.0" y1="60.0" x2="315.0" y2="100.0" stroke="rgb(255,0,0)" stroke-width="1.5"/>
<polygon points=" 308,88 322,88 322,112 308,112" fill="rgb(255,170,170)"/>
<text x="310.0" y="105.0" font-family="courier" font-size="16" fill="rgb(0,0,0)">x</text>
<polygon points=" 278,48 302,48 302,72 278,72" fill="rgb(255,170,170)"/>
<text x="280.0" y="65.0" font-family="courier" font-size="16" fill="rgb(0,0,0)">&#92;/</text>
<line x1="795.0" y1="20.0" x2="370.0" y2="60.0" stroke="rgb(255,0,0)" stroke-width="1.5"/>
<line x1="370.0" y1="60.0" x2="345.0" y2="100.0" stroke="rgb(255,0,0)" stroke-width="1.5"/>
<line x1="345.0" y1="100.0" x2="345.0" y2="140.0" stroke="rgb(255,0,0)" stroke-width="1.5"/>
<polygon points=" 338,128 352,128 352,152 338,152" fill="rgb(255,170,170)"/>
<text x="340.0" y="145.0" font-family="courier" font-size="16" fill="rgb(0,0,0)">x</text>
<polygon points=" 328,88 362,88 362,112 328,112" fill="rgb(255,170,170)"/>
<text x="330.0" y="105.0" font-family="courier" font-size="16" fill="rgb(0,0,0)">not</text>
<line x1="370.0" y1="60.0" x2="375.0" y2="100.0" stroke="rgb(255,0,0)" stroke-width="1.5"/>
<polygon points=" 368,88 382,88 382,112 368,112" fill="rgb(255,170,170)"/>
<text x="370.0" y="105.0" font-family="courier" font-size="16" fill="rgb(0,0,0)">z</text>
<line x1="370.0" y1="60.0" x2="395.0" y2="100.0" stroke="rgb(255,0,0)" stroke-width="1.5"/>
<polygon points=" 388,88 402,88 402,112 388,112" fill="rgb(255,170,170)"/>
<text x="390.0" y="105.0" font-family="courier" font-size="16" fill="rgb(0,0,0)">y</text>
<polygon points=" 358,48 382,48 382,72 358,72" fill="rgb(255,170,170)"/>
<text x="360.0" y="65.0" font-family="courier" font-size="16" fill="rgb(0,0,0)">&#92;/</text>
<line x1="795.0" y1="20.0" x2="455.0" y2="60.0" stroke="rgb(255,0,0)" stroke-width="1.5"/>
<line x1="455.0" y1="60.0" x2="425.0" y2="100.0" stroke="rgb(255,0,0)" stroke-width="1.5"/>
<line x1="425.0" y1="100.0" x2="425.0" y2="140.0" stroke="rgb(255,0,0)" stroke-width="1.5"/>
<polygon points=" 418,128 432,128 432,152 418,152" fill="rgb(255,170,170)"/>
<text x="420.0" y="145.0" font-family="courier" font-size="16" fill="rgb(0,0,0)">x</text>
<polygon points=" 408,88 442,88 442,112 408,112" fill="rgb(255,170,170)"/>
<text x="410.0" y="105.0" font-family="courier" font-size="16" fill="rgb(0,0,0)">not</text>
<line x1="455.0" y1="60.0" x2="455.0" y2="100.0" stroke="rgb(255,0,0)" stroke-width="1.5"/>
<polygon points=" 448,88 462,88 462,112 448,112" fill="rgb(255,170,170)"/>
<text x="450.0" y="105.0" font-family="courier" font-size="16" fill="rgb(0,0,0)">z</text>
<line x1="455.0" y1="60.0" x2="485.0" y2="100.0" stroke="rgb(255,0,0)" stroke-width="1.5"/>
<line x1="485.0" y1="100.0" x2="485.0" y2="140.0" stroke="rgb(255,0,0)" stroke-width="1.5"/>
<polygon points=" 478,128 492,128 492,152 478,152" fill="rgb(255,170,170)"/>
<text x="480.0" y="145.0" font-family="courier" font-size="16" fill="rgb(0,0,0)">z</text>
<polygon points=" 468,88 502,88 502,112 468,112" fill="rgb(255,170,170)"/>
<text x="470.0" y="105.0" font-family="courier" font-size="16" fill="rgb(0,0,0)">not</text>
<polygon points=" 443,48 467,48 467,72 443,72" fill="rgb(255,170,170)"/>
<text x="445.0" y="65.0" font-family="courier" font-size="16" fill="rgb(0,0,0)">&#92;/</text>
<line x1="795.0" y1="20.0" x2="525.0" y2="60.0" stroke="rgb(255,0,0)" stroke-width="1.5"/>
<line x1="525.0" y1="60.0" x2="515.0" y2="100.0" stroke="rgb(255,0,0)" stroke-width="1.5"/>
<polygon points=" 508,88 522,88 522,112 508,112" fill="rgb(255,170,170)"/>
<text x="510.0" y="105.0" font-family="courier" font-size="16" fill="rgb(0,0,0)">y</text>
<line x1="525.0" y1="60.0" x2="535.0" y2="100.0" stroke="rgb(255,0,0)" stroke-width="1.5"/>
<polygon points=" 528,88 542,88 542,112 528,112" fill="rgb(255,170,170)"/>
<text x="530.0" y="105.0" font-family="courier" font-size="16" fill="rgb(0,0,0)">x</text>
<polygon points=" 513,48 537,48 537,72 513,72" fill="rgb(255,170,170)"/>
<text x="515.0" y="65.0" font-family="courier" font-size="16" fill="rgb(0,0,0)">&#92;/</text>
<line x1="795.0" y1="20.0" x2="580.0" y2="60.0" stroke="rgb(255,0,0)" stroke-width="1.5"/>
<line x1="580.0" y1="60.0" x2="555.0" y2="100.0" stroke="rgb(255,0,0)" stroke-width="1.5"/>
<polygon points=" 548,88 562,88 562,112 548,112" fill="rgb(255,170,170)"/>
<text x="550.0" y="105.0" font-family="courier" font-size="16" fill="rgb(0,0,0)">y</text>
<line x1="580.0" y1="60.0" x2="575.0" y2="100.0" stroke="rgb(255,0,0)" stroke-width="1.5"/>
<polygon points=" 568,88 582,88 582,112 568,112" fill="rgb(255,170,170)"/>
<text x="570.0" y="105.0" font-family="courier" font-size="16" fill="rgb(0,0,0)">x</text>
<line x1="580.0" y1="60.0" x2="605.0" y2="100.0" stroke="rgb(255,0,0)" stroke-width="1.5"/>
<line x1="605.0" y1="100.0" x2="605.0" y2="140.0" stroke="rgb(255,0,0)" stroke-width="1.5"/>
<polygon points=" 598,128 612,128 612,152 598,152" fill="rgb(255,170,170)"/>
<text x="600.0" y="145.0" font-family="courier" font-size="16" fill="rgb(0,0,0)">z</text>
<polygon points=" 588,88 622,88 622,112 588,112" fill="rgb(255,170,170)"/>
<text x="590.0" y="105.0" font-family="courier" font-size="16" fill="rgb(0,0,0)">not</text>
<polygon points=" 568,48 592,48 592,72 568,72" fill="rgb(255,170,170)"/>
<text x="570.0" y="65.0" font-family="courier" font-size="16" fill="rgb(0,0,0)">&#92;/</text>
<line x1="795.0" y1="20.0" x2="665.0" y2="60.0" stroke="rgb(255,0,0)" stroke-width="1.5"/>
<line x1="665.0" y1="60.0" x2="635.0" y2="100.0" stroke="rgb(255,0,0)" stroke-width="1.5"/>
<polygon points=" 628,88 642,88 642,112 628,112" fill="rgb(255,170,170)"/>
<text x="630.0" y="105.0" font-family="courier" font-size="16" fill="rgb(0,0,0)">y</text>
<line x1="665.0" y1="60.0" x2="665.0" y2="100.0" stroke="rgb(255,0,0)" stroke-width="1.5"/>
<line x1="665.0" y1="100.0" x2="665.0" y2="140.0" stroke="rgb(255,0,0)" stroke-width="1.5"/>
<polygon points=" 658,128 672,128 672,152 658,152" fill="rgb(255,170,170)"/>
<text x="660.0" y="145.0" font-family="courier" font-size="16" fill="rgb(0,0,0)">y</text>
<polygon points=" 648,88 682,88 682,112 648,112" fill="rgb(255,170,170)"/>
<text x="650.0" y="105.0" font-family="courier" font-size="16" fill="rgb(0,0,0)">not</text>
<line x1="665.0" y1="60.0" x2="695.0" y2="100.0" stroke="rgb(255,0,0)" stroke-width="1.5"/>
<polygon points=" 688,88 702,88 702,112 688,112" fill="rgb(255,170,170)"/>
<text x="690.0" y="105.0" font-family="courier" font-size="16" fill="rgb(0,0,0)">x</text>
<polygon points=" 653,48 677,48 677,72 653,72" fill="rgb(255,170,170)"/>
<text x="655.0" y="65.0" font-family="courier" font-size="16" fill="rgb(0,0,0)">&#92;/</text>
<line x1="795.0" y1="20.0" x2="730.0" y2="60.0" stroke="rgb(255,0,0)" stroke-width="1.5"/>
<line x1="730.0" y1="60.0" x2="715.0" y2="100.0" stroke="rgb(255,0,0)" stroke-width="1.5"/>
<polygon points=" 708,88 722,88 722,112 708,112" fill="rgb(255,170,170)"/>
<text x="710.0" y="105.0" font-family="courier" font-size="16" fill="rgb(0,0,0)">y</text>
<line x1="730.0" y1="60.0" x2="745.0" y2="100.0" stroke="rgb(255,0,0)" stroke-width="1.5"/>
<line x1="745.0" y1="100.0" x2="745.0" y2="140.0" stroke="rgb(255,0,0)" stroke-width="1.5"/>
<polygon points=" 738,128 752,128 752,152 738,152" fill="rgb(255,170,170)"/>
<text x="740.0" y="145.0" font-family="courier" font-size="16" fill="rgb(0,0,0)">y</text>
<polygon points=" 728,88 762,88 762,112 728,112" fill="rgb(255,170,170)"/>
<text x="730.0" y="105.0" font-family="courier" font-size="16" fill="rgb(0,0,0)">not</text>
<polygon points=" 718,48 742,48 742,72 718,72" fill="rgb(255,170,170)"/>
<text x="720.0" y="65.0" font-family="courier" font-size="16" fill="rgb(0,0,0)">&#92;/</text>
<line x1="795.0" y1="20.0" x2="810.0" y2="60.0" stroke="rgb(255,0,0)" stroke-width="1.5"/>
<line x1="810.0" y1="60.0" x2="775.0" y2="100.0" stroke="rgb(255,0,0)" stroke-width="1.5"/>
<polygon points=" 768,88 782,88 782,112 768,112" fill="rgb(255,170,170)"/>
<text x="770.0" y="105.0" font-family="courier" font-size="16" fill="rgb(0,0,0)">y</text>
<line x1="810.0" y1="60.0" x2="805.0" y2="100.0" stroke="rgb(255,0,0)" stroke-width="1.5"/>
<line x1="805.0" y1="100.0" x2="805.0" y2="140.0" stroke="rgb(255,0,0)" stroke-width="1.5"/>
<polygon points=" 798,128 812,128 812,152 798,152" fill="rgb(255,170,170)"/>
<text x="800.0" y="145.0" font-family="courier" font-size="16" fill="rgb(0,0,0)">y</text>
<polygon points=" 788,88 822,88 822,112 788,112" fill="rgb(255,170,170)"/>
<text x="790.0" y="105.0" font-family="courier" font-size="16" fill="rgb(0,0,0)">not</text>
<line x1="810.0" y1="60.0" x2="845.0" y2="100.0" stroke="rgb(255,0,0)" stroke-width="1.5"/>
<line x1="845.0" y1="100.0" x2="845.0" y2="140.0" stroke="rgb(255,0,0)" stroke-width="1.5"/>
<polygon points=" 838,128 852,128 852,152 838,152" fill="rgb(255,170,170)"/>
<text x="840.0" y="145.0" font-family="courier" font-size="16" fill="rgb(0,0,0)">z</text>
<polygon points=" 828,88 862,88 862,112 828,112" fill="rgb(255,170,170)"/>
<text x="830.0" y="105.0" font-family="courier" font-size="16" fill="rgb(0,0,0)">not</text>
<polygon points=" 798,48 822,48 822,72 798,72" fill="rgb(255,170,170)"/>
<text x="800.0" y="65.0" font-family="courier" font-size="16" fill="rgb(0,0,0)">&#92;/</text>
<line x1="795.0" y1="20.0" x2="895.0" y2="60.0" stroke="rgb(255,0,0)" stroke-width="1.5"/>
<line x1="895.0" y1="60.0" x2="875.0" y2="100.0" stroke="rgb(255,0,0)" stroke-width="1.5"/>
<polygon points=" 868,88 882,88 882,112 868,112" fill="rgb(255,170,170)"/>
<text x="870.0" y="105.0" font-family="courier" font-size="16" fill="rgb(0,0,0)">y</text>
<line x1="895.0" y1="60.0" x2="895.0" y2="100.0" stroke="rgb(255,0,0)" stroke-width="1.5"/>
<polygon points=" 888,88 902,88 902,112 888,112" fill="rgb(255,170,170)"/>
<text x="890.0" y="105.0" font-family="courier" font-size="16" fill="rgb(0,0,0)">z</text>
<line x1="895.0" y1="60.0" x2="915.0" y2="100.0" stroke="rgb(255,0,0)" stroke-width="1.5"/>
<polygon points=" 908,88 922,88 922,112 908,112" fill="rgb(255,170,170)"/>
<text x="910.0" y="105.0" font-family="courier" font-size="16" fill="rgb(0,0,0)">x</text>
<polygon points=" 883,48 907,48 907,72 883,72" fill="rgb(255,170,170)"/>
<text x="885.0" y="65.0" font-family="courier" font-size="16" fill="rgb(0,0,0)">&#92;/</text>
<line x1="795.0" y1="20.0" x2="945.0" y2="60.0" stroke="rgb(255,0,0)" stroke-width="1.5"/>
<line x1="945.0" y1="60.0" x2="935.0" y2="100.0" stroke="rgb(255,0,0)" stroke-width="1.5"/>
<polygon points=" 928,88 942,88 942,112 928,112" fill="rgb(255,170,170)"/>
<text x="930.0" y="105.0" font-family="courier" font-size="16" fill="rgb(0,0,0)">y</text>
<line x1="945.0" y1="60.0" x2="955.0" y2="100.0" stroke="rgb(255,0,0)" stroke-width="1.5"/>
<polygon points=" 948,88 962,88 962,112 948,112" fill="rgb(255,170,170)"/>
<text x="950.0" y="105.0" font-family="courier" font-size="16" fill="rgb(0,0,0)">z</text>
<polygon points=" 933,48 957,48 957,72 933,72" fill="rgb(255,170,170)"/>
<text x="935.0" y="65.0" font-family="courier" font-size="16" fill="rgb(0,0,0)">&#92;/</text>
<line x1="795.0" y1="20.0" x2="1000.0" y2="60.0" stroke="rgb(255,0,0)" stroke-width="1.5"/>
<line x1="1000.0" y1="60.0" x2="975.0" y2="100.0" stroke="rgb(255,0,0)" stroke-width="1.5"/>
<polygon points=" 968,88 982,88 982,112 968,112" fill="rgb(255,170,170)"/>
<text x="970.0" y="105.0" font-family="courier" font-size="16" fill="rgb(0,0,0)">y</text>
<line x1="1000.0" y1="60.0" x2="995.0" y2="100.0" stroke="rgb(255,0,0)" stroke-width="1.5"/>
<polygon points=" 988,88 1002,88 1002,112 988,112" fill="rgb(255,170,170)"/>
<text x="990.0" y="105.0" font-family="courier" font-size="16" fill="rgb(0,0,0)">z</text>
<line x1="1000.0" y1="60.0" x2="1025.0" y2="100.0" stroke="rgb(255,0,0)" stroke-width="1.5"/>
<line x1="1025.0" y1="100.0" x2="1025.0" y2="140.0" stroke="rgb(255,0,0)" stroke-width="1.5"/>
<polygon points=" 1018,128 1032,128 1032,152 1018,152" fill="rgb(255,170,170)"/>
<text x="1020.0" y="145.0" font-family="courier" font-size="16" fill="rgb(0,0,0)">z</text>
<polygon points=" 1008,88 1042,88 1042,112 1008,112" fill="rgb(255,170,170)"/>
<text x="1010.0" y="105.0" font-family="courier" font-size="16" fill="rgb(0,0,0)">not</text>
<polygon points=" 988,48 1012,48 1012,72 988,72" fill="rgb(255,170,170)"/>
<text x="990.0" y="65.0" font-family="courier" font-size="16" fill="rgb(0,0,0)">&#92;/</text>
<line x1="795.0" y1="20.0" x2="1065.0" y2="60.0" stroke="rgb(255,0,0)" stroke-width="1.5"/>
<line x1="1065.0" y1="60.0" x2="1055.0" y2="100.0" stroke="rgb(255,0,0)" stroke-width="1.5"/>
<polygon points=" 1048,88 1062,88 1062,112 1048,112" fill="rgb(255,170,170)"/>
<text x="1050.0" y="105.0" font-family="courier" font-size="16" fill="rgb(0,0,0)">z</text>
<line x1="1065.0" y1="60.0" x2="1075.0" y2="100.0" stroke="rgb(255,0,0)" stroke-width="1.5"/>
<polygon points=" 1068,88 1082,88 1082,112 1068,112" fill="rgb(255,170,170)"/>
<text x="1070.0" y="105.0" font-family="courier" font-size="16" fill="rgb(0,0,0)">x</text>
<polygon points=" 1053,48 1077,48 1077,72 1053,72" fill="rgb(255,170,170)"/>
<text x="1055.0" y="65.0" font-family="courier" font-size="16" fill="rgb(0,0,0)">&#92;/</text>
<line x1="795.0" y1="20.0" x2="1115.0" y2="60.0" stroke="rgb(255,0,0)" stroke-width="1.5"/>
<line x1="1115.0" y1="60.0" x2="1095.0" y2="100.0" stroke="rgb(255,0,0)" stroke-width="1.5"/>
<polygon points=" 1088,88 1102,88 1102,112 1088,112" fill="rgb(255,170,170)"/>
<text x="1090.0" y="105.0" font-family="courier" font-size="16" fill="rgb(0,0,0)">z</text>
<line x1="1115.0" y1="60.0" x2="1115.0" y2="100.0" stroke="rgb(255,0,0)" stroke-width="1.5"/>
<polygon points=" 1108,88 1122,88 1122,112 1108,112" fill="rgb(255,170,170)"/>
<text x="1110.0" y="105.0" font-family="courier" font-size="16" fill="rgb(0,0,0)">x</text>
<line x1="1115.0" y1="60.0" x2="1135.0" y2="100.0" stroke="rgb(255,0,0)" stroke-width="1.5"/>
<polygon points=" 1128,88 1142,88 1142,112 1128,112" fill="rgb(255,170,170)"/>
<text x="1130.0" y="105.0" font-family="courier" font-size="16" fill="rgb(0,0,0)">y</text>
<polygon points=" 1103,48 1127,48 1127,72 1103,72" fill="rgb(255,170,170)"/>
<text x="1105.0" y="65.0" font-family="courier" font-size="16" fill="rgb(0,0,0)">&#92;/</text>
<line x1="795.0" y1="20.0" x2="1180.0" y2="60.0" stroke="rgb(255,0,0)" stroke-width="1.5"/>
<line x1="1180.0" y1="60.0" x2="1155.0" y2="100.0" stroke="rgb(255,0,0)" stroke-width="1.5"/>
<polygon points=" 1148,88 1162,88 1162,112 1148,112" fill="rgb(255,170,170)"/>
<text x="1150.0" y="105.0" font-family="courier" font-size="16" fill="rgb(0,0,0)">z</text>
<line x1="1180.0" y1="60.0" x2="1175.0" y2="100.0" stroke="rgb(255,0,0)" stroke-width="1.5"/>
<polygon points=" 1168,88 1182,88 1182,112 1168,112" fill="rgb(255,170,170)"/>
<text x="1170.0" y="105.0" font-family="courier" font-size="16" fill="rgb(0,0,0)">x</text>
<line x1="1180.0" y1="60.0" x2="1205.0" y2="100.0" stroke="rgb(255,0,0)" stroke-width="1.5"/>
<line x1="1205.0" y1="100.0" x2="1205.0" y2="140.0" stroke="rgb(255,0,0)" stroke-width="1.5"/>
<polygon points=" 1198,128 1212,128 1212,152 1198,152" fill="rgb(255,170,170)"/>
<text x="1200.0" y="145.0" font-family="courier" font-size="16" fill="rgb(0,0,0)">z</text>
<polygon points=" 1188,88 1222,88 1222,112 1188,112" fill="rgb(255,170,170)"/>
<text x="1190.0" y="105.0" font-family="courier" font-size="16" fill="rgb(0,0,0)">not</text>
<polygon points=" 1168,48 1192,48 1192,72 1168,72" fill="rgb(255,170,170)"/>
<text x="1170.0" y="65.0" font-family="courier" font-size="16" fill="rgb(0,0,0)">&#92;/</text>
<line x1="795.0" y1="20.0" x2="1265.0" y2="60.0" stroke="rgb(255,0,0)" stroke-width="1.5"/>
<line x1="1265.0" y1="60.0" x2="1235.0" y2="100.0" stroke="rgb(255,0,0)" stroke-width="1.5"/>
<polygon points=" 1228,88 1242,88 1242,112 1228,112" fill="rgb(255,170,170)"/>
<text x="1230.0" y="105.0" font-family="courier" font-size="16" fill="rgb(0,0,0)">z</text>
<line x1="1265.0" y1="60.0" x2="1265.0" y2="100.0" stroke="rgb(255,0,0)" stroke-width="1.5"/>
<line x1="1265.0" y1="100.0" x2="1265.0" y2="140.0" stroke="rgb(255,0,0)" stroke-width="1.5"/>
<polygon points=" 1258,128 1272,128 1272,152 1258,152" fill="rgb(255,170,170)"/>
<text x="1260.0" y="145.0" font-family="courier" font-size="16" fill="rgb(0,0,0)">y</text>
<polygon points=" 1248,88 1282,88 1282,112 1248,112" fill="rgb(255,170,170)"/>
<text x="1250.0" y="105.0" font-family="courier" font-size="16" fill="rgb(0,0,0)">not</text>
<line x1="1265.0" y1="60.0" x2="1295.0" y2="100.0" stroke="rgb(255,0,0)" stroke-width="1.5"/>
<polygon points=" 1288,88 1302,88 1302,112 1288,112" fill="rgb(255,170,170)"/>
<text x="1290.0" y="105.0" font-family="courier" font-size="16" fill="rgb(0,0,0)">x</text>
<polygon points=" 1253,48 1277,48 1277,72 1253,72" fill="rgb(255,170,170)"/>
<text x="1255.0" y="65.0" font-family="courier" font-size="16" fill="rgb(0,0,0)">&#92;/</text>
<line x1="795.0" y1="20.0" x2="1345.0" y2="60.0" stroke="rgb(255,0,0)" stroke-width="1.5"/>
<line x1="1345.0" y1="60.0" x2="1315.0" y2="100.0" stroke="rgb(255,0,0)" stroke-width="1.5"/>
<polygon points=" 1308,88 1322,88 1322,112 1308,112" fill="rgb(255,170,170)"/>
<text x="1310.0" y="105.0" font-family="courier" font-size="16" fill="rgb(0,0,0)">z</text>
<line x1="1345.0" y1="60.0" x2="1345.0" y2="100.0" stroke="rgb(255,0,0)" stroke-width="1.5"/>
<line x1="1345.0" y1="100.0" x2="1345.0" y2="140.0" stroke="rgb(255,0,0)" stroke-width="1.5"/>
<polygon points=" 1338,128 1352,128 1352,152 1338,152" fill="rgb(255,170,170)"/>
<text x="1340.0" y="145.0" font-family="courier" font-size="16" fill="rgb(0,0,0)">y</text>
<polygon points=" 1328,88 1362,88 1362,112 1328,112" fill="rgb(255,170,170)"/>
<text x="1330.0" y="105.0" font-family="courier" font-size="16" fill="rgb(0,0,0)">not</text>
<line x1="1345.0" y1="60.0" x2="1375.0" y2="100.0" stroke="rgb(255,0,0)" stroke-width="1.5"/>
<polygon points=" 1368,88 1382,88 1382,112 1368,112" fill="rgb(255,170,170)"/>
<text x="1370.0" y="105.0" font-family="courier" font-size="16" fill="rgb(0,0,0)">y</text>
<polygon points=" 1333,48 1357,48 1357,72 1333,72" fill="rgb(255,170,170)"/>
<text x="1335.0" y="65.0" font-family="courier" font-size="16" fill="rgb(0,0,0)">&#92;/</text>
<line x1="795.0" y1="20.0" x2="1430.0" y2="60.0" stroke="rgb(255,0,0)" stroke-width="1.5"/>
<line x1="1430.0" y1="60.0" x2="1395.0" y2="100.0" stroke="rgb(255,0,0)" stroke-width="1.5"/>
<polygon points=" 1388,88 1402,88 1402,112 1388,112" fill="rgb(255,170,170)"/>
<text x="1390.0" y="105.0" font-family="courier" font-size="16" fill="rgb(0,0,0)">z</text>
<line x1="1430.0" y1="60.0" x2="1425.0" y2="100.0" stroke="rgb(255,0,0)" stroke-width="1.5"/>
<line x1="1425.0" y1="100.0" x2="1425.0" y2="140.0" stroke="rgb(255,0,0)" stroke-width="1.5"/>
<polygon points=" 1418,128 1432,128 1432,152 1418,152" fill="rgb(255,170,170)"/>
<text x="1420.0" y="145.0" font-family="courier" font-size="16" fill="rgb(0,0,0)">y</text>
<polygon points=" 1408,88 1442,88 1442,112 1408,112" fill="rgb(255,170,170)"/>
<text x="1410.0" y="105.0" font-family="courier" font-size="16" fill="rgb(0,0,0)">not</text>
<line x1="1430.0" y1="60.0" x2="1465.0" y2="100.0" stroke="rgb(255,0,0)" stroke-width="1.5"/>
<line x1="1465.0" y1="100.0" x2="1465.0" y2="140.0" stroke="rgb(255,0,0)" stroke-width="1.5"/>
<polygon points=" 1458,128 1472,128 1472,152 1458,152" fill="rgb(255,170,170)"/>
<text x="1460.0" y="145.0" font-family="courier" font-size="16" fill="rgb(0,0,0)">z</text>
<polygon points=" 1448,88 1482,88 1482,112 1448,112" fill="rgb(255,170,170)"/>
<text x="1450.0" y="105.0" font-family="courier" font-size="16" fill="rgb(0,0,0)">not</text>
<polygon points=" 1418,48 1442,48 1442,72 1418,72" fill="rgb(255,170,170)"/>
<text x="1420.0" y="65.0" font-family="courier" font-size="16" fill="rgb(0,0,0)">&#92;/</text>
<line x1="795.0" y1="20.0" x2="1505.0" y2="60.0" stroke="rgb(255,0,0)" stroke-width="1.5"/>
<line x1="1505.0" y1="60.0" x2="1495.0" y2="100.0" stroke="rgb(255,0,0)" stroke-width="1.5"/>
<polygon points=" 1488,88 1502,88 1502,112 1488,112" fill="rgb(255,170,170)"/>
<text x="1490.0" y="105.0" font-family="courier" font-size="16" fill="rgb(0,0,0)">z</text>
<line x1="1505.0" y1="60.0" x2="1515.0" y2="100.0" stroke="rgb(255,0,0)" stroke-width="1.5"/>
<polygon points=" 1508,88 1522,88 1522,112 1508,112" fill="rgb(255,170,170)"/>
<text x="1510.0" y="105.0" font-family="courier" font-size="16" fill="rgb(0,0,0)">y</text>
<polygon points=" 1493,48 1517,48 1517,72 1493,72" fill="rgb(255,170,170)"/>
<text x="1495.0" y="65.0" font-family="courier" font-size="16" fill="rgb(0,0,0)">&#92;/</text>
<line x1="795.0" y1="20.0" x2="1550.0" y2="60.0" stroke="rgb(255,0,0)" stroke-width="1.5"/>
<line x1="1550.0" y1="60.0" x2="1535.0" y2="100.0" stroke="rgb(255,0,0)" stroke-width="1.5"/>
<polygon points=" 1528,88 1542,88 1542,112 1528,112" fill="rgb(255,170,170)"/>
<text x="1530.0" y="105.0" font-family="courier" font-size="16" fill="rgb(0,0,0)">z</text>
<line x1="1550.0" y1="60.0" x2="1565.0" y2="100.0" stroke="rgb(255,0,0)" stroke-width="1.5"/>
<line x1="1565.0" y1="100.0" x2="1565.0" y2="140.0" stroke="rgb(255,0,0)" stroke-width="1.5"/>
<polygon points=" 1558,128 1572,128 1572,152 1558,152" fill="rgb(255,170,170)"/>
<text x="1560.0" y="145.0" font-family="courier" font-size="16" fill="rgb(0,0,0)">z</text>
<polygon points=" 1548,88 1582,88 1582,112 1548,112" fill="rgb(255,170,170)"/>
<text x="1550.0" y="105.0" font-family="courier" font-size="16" fill="rgb(0,0,0)">not</text>
<polygon points=" 1538,48 1562,48 1562,72 1538,72" fill="rgb(255,170,170)"/>
<text x="1540.0" y="65.0" font-family="courier" font-size="16" fill="rgb(0,0,0)">&#92;/</text>
<polygon points=" 783,8 807,8 807,32 783,32" fill="rgb(255,170,170)"/>
<text x="785.0" y="25.0" font-family="courier" font-size="16" fill="rgb(0,0,0)">/&#92;</text></svg>