<svg xmlns="http://www.w3.org/2000/svg"
xmlns:xlink="http://www.w3.org/1999/xlink"
version="1.1" baseProfile="full"
width="1495" height="160">
<line x1="742.5" y1="20.0" x2="40.0" y2="60.0" stroke="rgb(255,0,0)" stroke-width="1.5"/>
<polygon points=" 18,48 62,48 62,72 18,72" fill="rgb(255,170,170)"/>
<text x="20.0" y="65.0" font-family="courier" font-size="16" fill="rgb(0,0,0)">true</text>
<line x1="742.5" y1="20.0" x2="80.0" y2="60.0" stroke="rgb(255,0,0)" stroke-width="1.5"/>
<line x1="80.0" y1="60.0" x2="40.0" y2="100.0" stroke="rgb(255,0,0)" stroke-width="1.5"/>
<line x1="40.0" y1="100.0" x2="40.0" y2="140.0" stroke="rgb(255,0,0)" stroke-width="1.5"/>
<polygon points=" 33,128 47,128 47,152 33,152" fill="rgb(255,170,170)"/>
<text x="35.0" y="145.0" font-family="courier" font-size="16" fill="rgb(0,0,0)">x</text>
<polygon points=" 23,88 57,88 57,112 23,112" fill="rgb(255,170,170)"/>
<text x="25.0" y="105.0" font-family="courier" font-size="16" fill="rgb(0,0,0)">not</text>
<line x1="80.0" y1="60.0" x2="80.0" y2="100.0" stroke="rgb(255,0,0)" stroke-width="1.5"/>
<line x1="80.0" y1="100.0" x2="80.0" y2="140.0" stroke="rgb(255,0,0)" stroke-width="1.5"/>
<polygon points=" 73,128 87,128 87,152 73,152" fill="rgb(255,170,170)"/>
<text x="75.0" y="145.0" font-family="courier" font-size="16" fill="rgb(0,0,0)">y</text>
<polygon points=" 63,88 97,88 97,112 63,112" fill="rgb(255,170,170)"/>
<text x="65.0" y="105.0" font-family="courier" font-size="16" fill="rgb(0,0,0)">not</text>
<line x1="80.0" y1="60.0" x2="120.0" y2="100.0" stroke="rgb(255,0,0)" stroke-width="1.5"/>
<line x1="120.0" y1="100.0" x2="120.0" y2="140.0" stroke="rgb(255,0,0)" stroke-width="1.5"/>
<polygon points=" 113,128 127,128 127,152 113,152" fill="rgb(255,170,170)"/>
<text x="115.0" y="145.0" font-family="courier" font-size="16" fill="rgb(0,0,0)">z</text>
<polygon points=" 103,88 137,88 137,112 103,112" fill="rgb(255,170,170)"/>
<text x="105.0" y="105.0" font-family="courier" font-size="16" fill="rgb(0,0,0)">not</text>
<polygon points=" 68,48 92,48 92,72 68,72" fill="rgb(255,170,170)"/>
<text x="70.0" y="65.0" font-family="courier" font-size="16" fill="rgb(0,0,0)">&#92;/</text>
<line x1="742.5" y1="20.0" x2="185.0" y2="60.0" stroke="rgb(255,0,0)" stroke-width="1.5"/>
<line x1="185.0" y1="60.0" x2="160.0" y2="100.0" stroke="rgb(255,0,0)" stroke-width="1.5"/>
<line x1="160.0" y1="100.0" x2="160.0" y2="140.0" stroke="rgb(255,0,0)" stroke-width="1.5"/>
<polygon points=" 153,128 167,128 167,152 153,152" fill="rgb(255,170,170)"/>
<text x="155.0" y="145.0" font-family="courier" font-size="16" fill="rgb(0,0,0)">x</text>
<polygon points=" 143,88 177,88 177,112 143,112" fill="rgb(255,170,170)"/>
<text x="145.0" y="105.0" font-family="courier" font-size="16" fill="rgb(0,0,0)">not</text>
<line x1="185.0" y1="60.0" x2="190.0" y2="100.0" stroke="rgb(255,0,0)" stroke-width="1.5"/>
<polygon points=" 183,88 197,88 197,112 183,112" fill="rgb(255,170,170)"/>
<text x="185.0" y="105.0" font-family="courier" font-size="16" fill="rgb(0,0,0)">z</text>
<line x1="185.0" y1="60.0" x2="210.0" y2="100.0" stroke="rgb(255,0,0)" stroke-width="1.5"/>
<polygon points=" 203,88 217,88 217,112 203,112" fill="rgb(255,170,170)"/>
<text x="205.0" y="105.0" font-family="courier" font-size="16" fill="rgb(0,0,0)">x</text>
<polygon points=" 173,48 197,48 197,72 173,72" fill="rgb(255,170,170)"/>
<text x="175.0" y="65.0" font-family="courier" font-size="16" fill="rgb(0,0,0)">&#92;/</text>
<line x1="742.5" y1="20.0" x2="265.0" y2="60.0" stroke="rgb(255,0,0)" stroke-width="1.5"/>
<line x1="265.0" y1="60.0" x2="240.0" y2="100.0" stroke="rgb(255,0,0)" stroke-width="1.5"/>
<line x1="240.0" y1="100.0" x2="240.0" y2="140.0" stroke="rgb(255,0,0)" stroke-width="1.5"/>
<polygon points=" 233,128 247,128 247,152 233,152" fill="rgb(255,170,170)"/>
<text x="235.0" y="145.0" font-family="courier" font-size="16" fill="rgb(0,0,0)">x</text>
<polygon points=" 223,88 257,88 257,112 223,112" fill="rgb(255,170,170)"/>
<text x="225.0" y="105.0" font-family="courier" font-size="16" fill="rgb(0,0,0)">not</text>
<line x1="265.0" y1="60.0" x2="270.0" y2="100.0" stroke="rgb(255,0,0)" stroke-width="1.5"/>
<polygon points=" 263,88 277,88 277,112 263,112" fill="rgb(255,170,170)"/>
<text x="265.0" y="105.0" font-family="courier" font-size="16" fill="rgb(0,0,0)">z</text>
<line x1="265.0" y1="60.0" x2="290.0" y2="100.0" stroke="rgb(255,0,0)" stroke-width="1.5"/>
<polygon points=" 283,88 297,88 297,112 283,112" fill="rgb(255,170,170)"/>
<text x="285.0" y="105.0" font-family="courier" font-size="16" fill="rgb(0,0,0)">y</text>
<polygon points=" 253,48 277,48 277,72 253,72" fill="rgb(255,170,170)"/>
<text x="255.0" y="65.0" font-family="courier" font-size="16" fill="rgb(0,0,0)">&#92;/</text>
<line x1="742.5" y1="20.0" x2="350.0" y2="60.0" stroke="rgb(255,0,0)" stroke-width="1.5"/>
<line x1="350.0" y1="60.0" x2="320.0" y2="100.0" stroke="rgb(255,0,0)" stroke-width="1.5"/>
<line x1="320.0" y1="100.0" x2="320.0" y2="140.0" stroke="rgb(255,0,0)" stroke-width="1.5"/>
<polygon points=" 313,128 327,128 327,152 313,152" fill="rgb(255,170,170)"/>
<text x="315.0" y="145.0" font-family="courier" font-size="16" fill="rgb(0,0,0)">x</text>
<polygon points=" 303,88 337,88 337,112 303,112" fill="rgb(255,170,170)"/>
<text x="305.0" y="105.0" font-family="courier" font-size="16" fill="rgb(0,0,0)">not</text>
<line x1="350.0" y1="60.0" x2="350.0" y2="100.0" stroke="rgb(255,0,0)" stroke-width="1.5"/>
<polygon points=" 343,88 357,88 357,112 343,112" fill="rgb(255,170,170)"/>
<text x="345.0" y="105.0" font-family="courier" font-size="16" fill="rgb(0,0,0)">z</text>
<line x1="350.0" y1="60.0" x2="380.0" y2="100.0" stroke="rgb(255,0,0)" stroke-width="1.5"/>
<line x1="380.0" y1="100.0" x2="380.0" y2="140.0" stroke="rgb(255,0,0)" stroke-width="1.5"/>
<polygon points=" 373,128 387,128 387,152 373,152" fill="rgb(255,170,170)"/>
<text x="375.0" y="145.0" font-family="courier" font-size="16" fill="rgb(0,0,0)">z</text>
<polygon points=" 363,88 397,88 397,112 363,112" fill="rgb(255,170,170)"/>
<text x="365.0" y="105.0" font-family="courier" font-size="16" fill="rgb(0,0,0)">not</text>
<polygon points=" 338,48 362,48 362,72 338,72" fill="rgb(255,170,170)"/>
<text x="340.0" y="65.0" font-family="courier" font-size="16" fill="rgb(0,0,0)">&#92;/</text>
<line x1="742.5" y1="20.0" x2="420.0" y2="60.0" stroke="rgb(255,0,0)" stroke-width="1.5"/>
<line x1="420.0" y1="60.0" x2="410.0" y2="100.0" stroke="rgb(255,0,0)" stroke-width="1.5"/>
<polygon points=" 403,88 417,88 417,112 403,112" fill="rgb(255,170,170)"/>
<text x="405.0" y="105.0" font-family="courier" font-size="16" fill="rgb(0,0,0)">y</text>
<line x1="420.0" y1="60.0" x2="430.0" y2="100.0" stroke="rgb(255,0,0)" stroke-width="1.5"/>
<polygon points=" 423,88 437,88 437,112 423,112" fill="rgb(255,170,170)"/>
<text x="425.0" y="105.0" font-family="courier" font-size="16" fill="rgb(0,0,0)">x</text>
<polygon points=" 408,48 432,48 432,72 408,72" fill="rgb(255,170,170)"/>
<text x="410.0" y="65.0" font-family="courier" font-size="16" fill="rgb(0,0,0)">&#92;/</text>
<line x1="742.5" y1="20.0" x2="475.0" y2="60.0" stroke="rgb(255,0,0)" stroke-width="1.5"/>
<line x1="475.0" y1="60.0" x2="450.0" y2="100.0" stroke="rgb(255,0,0)" stroke-width="1.5"/>
<polygon points=" 443,88 457,88 457,112 443,112" fill="rgb(255,170,170)"/>
<text x="445.0" y="105.0" font-family="courier" font-size="16" fill="rgb(0,0,0)">y</text>
<line x1="475.0" y1="60.0" x2="470.0" y2="100.0" stroke="rgb(255,0,0)" stroke-width="1.5"/>
<polygon points=" 463,88 477,88 477,112 463,112" fill="rgb(255,170,170)"/>
<text x="465.0" y="105.0" font-family="courier" font-size="16" fill="rgb(0,0,0)">x</text>
<line x1="475.0" y1="60.0" x2="500.0" y2="100.0" stroke="rgb(255,0,0)" stroke-width="1.5"/>
<line x1="500.0" y1="100.0" x2="500.0" y2="140.0" stroke="rgb(255,0,0)" stroke-width="1.5"/>
<polygon points=" 493,128 507,128 507,152 493,152" fill="rgb(255,170,170)"/>
<text x="495.0" y="145.0" font-family="courier" font-size="16" fill="rgb(0,0,0)">z</text>
<polygon points=" 483,88 517,88 517,112 483,112" fill="rgb(255,170,170)"/>
<text x="485.0" y="105.0" font-family="courier" font-size="16" fill="rgb(0,0,0)">not</text>
<polygon points=" 463,48 487,48 487,72 463,72" fill="rgb(255,170,170)"/>
<text x="465.0" y="65.0" font-family="courier" font-size="16" fill="rgb(0,0,0)">&#92;/</text>
<line x1="742.5" y1="20.0" x2="560.0" y2="60.0" stroke="rgb(255,0,0)" stroke-width="1.5"/>
<line x1="560.0" y1="60.0" x2="530.0" y2="100.0" stroke="rgb(255,0,0)" stroke-width="1.5"/>
<polygon points=" 523,88 537,88 537,112 523,112" fill="rgb(255,170,170)"/>
<text x="525.0" y="105.0" font-family="courier" font-size="16" fill="rgb(0,0,0)">y</text>
<line x1="560.0" y1="60.0" x2="560.0" y2="100.0" stroke="rgb(255,0,0)" stroke-width="1.5"/>
<line x1="560.0" y1="100.0" x2="560.0" y2="140.0" stroke="rgb(255,0,0)" stroke-width="1.5"/>
<polygon points=" 553,128 567,128 567,152 553,152" fill="rgb(255,170,170)"/>
<text x="555.0" y="145.0" font-family="courier" font-size="16" fill="rgb(0,0,0)">y</text>
<polygon points=" 543,88 577,88 577,112 543,112" fill="rgb(255,170,170)"/>
<text x="545.0" y="105.0" font-family="courier" font-size="16" fill="rgb(0,0,0)">not</text>
<line x1="560.0" y1="60.0" x2="590.0" y2="100.0" stroke="rgb(255,0,0)" stroke-width="1.5"/>
<polygon points=" 583,88 597,88 597,112 583,112" fill="rgb(255,170,170)"/>
<text x="585.0" y="105.0" font-family="courier" font-size="16" fill="rgb(0,0,0)">x</text>
<polygon points=" 548,48 572,48 572,72 548,72" fill="rgb(255,170,170)"/>
<text x="550.0" y="65.0" font-family="courier" font-size="16" fill="rgb(0,0,0)">&#92;/</text>
<line x1="742.5" y1="20.0" x2="625.0" y2="60.0" stroke="rgb(255,0,0)" stroke-width="1.5"/>
<line x1="625.0" y1="60.0" x2="610.0" y2="100.0" stroke="rgb(255,0,0)" stroke-width="1.5"/>
<polygon points=" 603,88 617,88 617,112 603,112" fill="rgb(255,170,170)"/>
<text x="605.0" y="105.0" font-family="courier" font-size="16" fill="rgb(0,0,0)">y</text>
<line x1="625.0" y1="60.0" x2="640.0" y2="100.0" stroke="rgb(255,0,0)" stroke-width="1.5"/>
<line x1="640.0" y1="100.0" x2="640.0" y2="140.0" stroke="rgb(255,0,0)" stroke-width="1.5"/>
<polygon points=" 633,128 647,128 647,152 633,152" fill="rgb(255,170,170)"/>
<text x="635.0" y="145.0" font-family="courier" font-size="16" fill="rgb(0,0,0)">y</text>
<polygon points=" 623,88 657,88 657,112 623,112" fill="rgb(255,170,170)"/>
<text x="625.0" y="105.0" font-family="courier" font-size="16" fill="rgb(0,0,0)">not</text>
<polygon points=" 613,48 637,48 637,72 613,72" fill="rgb(255,170,170)"/>
<text x="615.0" y="65.0" font-family="courier" font-size="16" fill="rgb(0,0,0)">&#92;/</text>
<line x1="742.5" y1="20.0" x2="705.0" y2="60.0" stroke="rgb(255,0,0)" stroke-width="1.5"/>
<line x1="705.0" y1="60.0" x2="670.0" y2="100.0" stroke="rgb(255,0,0)" stroke-width="1.5"/>
<polygon points=" 663,88 677,88 677,112 663,112" fill="rgb(255,170,170)"/>
<text x="665.0" y="105.0" font-family="courier" font-size="16" fill="rgb(0,0,0)">y</text>
<line x1="705.0" y1="60.0" x2="700.0" y2="100.0" stroke="rgb(255,0,0)" stroke-width="1.5"/>
<line x1="700.0" y1="100.0" x2="700.0" y2="140.0" stroke="rgb(255,0,0)" stroke-width="1.5"/>
<polygon points=" 693,128 707,128 707,152 693,152" fill="rgb(255,170,170)"/>
<text x="695.0" y="145.0" font-family="courier" font-size="16" fill="rgb(0,0,0)">y</text>
<polygon points=" 683,88 717,88 717,112 683,112" fill="rgb(255,170,170)"/>
<text x="685.0" y="105.0" font-family="courier" font-size="16" fill="rgb(0,0,0)">not</text>
<line x1="705.0" y1="60.0" x2="740.0" y2="100.0" stroke="rgb(255,0,0)" stroke-width="1.5"/>
<line x1="740.0" y1="100.0" x2="740.0" y2="140.0" stroke="rgb(255,0,0)" stroke-width="1.5"/>
<polygon points=" 733,128 747,128 747,152 733,152" fill="rgb(255,170,170)"/>
<text x="735.0" y="145.0" font-family="courier" font-size="16" fill="rgb(0,0,0)">z</text>
<polygon points=" 723,88 757,88 757,112 723,112" fill="rgb(255,170,170)"/>
<text x="725.0" y="105.0" font-family="courier" font-size="16" fill="rgb(0,0,0)">not</text>
<polygon points=" 693,48 717,48 717,72 693,72" fill="rgb(255,170,170)"/>
<text x="695.0" y="65.0" font-family="courier" font-size="16" fill="rgb(0,0,0)">&#92;/</text>
<line x1="742.5" y1="20.0" x2="790.0" y2="60.0" stroke="rgb(255,0,0)" stroke-width="1.5"/>
<line x1="790.0" y1="60.0" x2="770.0" y2="100.0" stroke="rgb(255,0,0)" stroke-width="1.5"/>
<polygon points=" 763,88 777,88 777,112 763,112" fill="rgb(255,170,170)"/>
<text x="765.0" y="105.0" font-family="courier" font-size="16" fill="rgb(0,0,0)">y</text>
<line x1="790.0" y1="60.0" x2="790.0" y2="100.0" stroke="rgb(255,0,0)" stroke-width="1.5"/>
<polygon points=" 783,88 797,88 797,112 783,112" fill="rgb(255,170,170)"/>
<text x="785.0" y="105.0" font-family="courier" font-size="16" fill="rgb(0,0,0)">z</text>
<line x1="790.0" y1="60.0" x2="810.0" y2="100.0" stroke="rgb(255,0,0)" stroke-width="1.5"/>
<polygon points=" 803,88 817,88 817,112 803,112" fill="rgb(255,170,170)"/>
<text x="805.0" y="105.0" font-family="courier" font-size="16" fill="rgb(0,0,0)">x</text>
<polygon points=" 778,48 802,48 802,72 778,72" fill="rgb(255,170,170)"/>
<text x="780.0" y="65.0" font-family="courier" font-size="16" fill="rgb(0,0,0)">&#92;/</text>
<line x1="742.5" y1="20.0" x2="840.0" y2="60.0" stroke="rgb(255,0,0)" stroke-width="1.5"/>
<line x1="840.0" y1="60.0" x2="830.0" y2="100.0" stroke="rgb(255,0,0)" stroke-width="1.5"/>
<polygon points=" 823,88 837,88 837,112 823,112" fill="rgb(255,170,170)"/>
<text x="825.0" y="105.0" font-family="courier" font-size="16" fill="rgb(0,0,0)">y</text>
<line x1="840.0" y1="60.0" x2="850.0" y2="100.0" stroke="rgb(255,0,0)" stroke-width="1.5"/>
<polygon points=" 843,88 857,88 857,112 843,112" fill="rgb(255,170,170)"/>
<text x="845.0" y="105.0" font-family="courier" font-size="16" fill="rgb(0,0,0)">z</text>
<polygon points=" 828,48 852,48 852,72 828,72" fill="rgb(255,170,170)"/>
<text x="830.0" y="65.0" font-family="courier" font-size="16" fill="rgb(0,0,0)">&#92;/</text>
<line x1="742.5" y1="20.0" x2="895.0" y2="60.0" stroke="rgb(255,0,0)" stroke-width="1.5"/>
<line x1="895.0" y1="60.0" x2="870.0" y2="100.0" stroke="rgb(255,0,0)" stroke-width="1.5"/>
<polygon points=" 863,88 877,88 877,112 863,112" fill="rgb(255,170,170)"/>
<text x="865.0" y="105.0" font-family="courier" font-size="16" fill="rgb(0,0,0)">y</text>
<line x1="895.0" y1="60.0" x2="890.0" y2="100.0" stroke="rgb(255,0,0)" stroke-width="1.5"/>
<polygon points=" 883,88 897,88 897,112 883,112" fill="rgb(255,170,170)"/>
<text x="885.0" y="105.0" font-family="courier" font-size="16" fill="rgb(0,0,0)">z</text>
<line x1="895.0" y1="60.0" x2="920.0" y2="100.0" stroke="rgb(255,0,0)" stroke-width="1.5"/>
<line x1="920.0" y1="100.0" x2="920.0" y2="140.0" stroke="rgb(255,0,0)" stroke-width="1.5"/>
<polygon points=" 913,128 927,128 927,152 913,152" fill="rgb(255,170,170)"/>
<text x="915.0" y="145.0" font-family="courier" font-size="16" fill="rgb(0,0,0)">z</text>
<polygon points=" 903,88 937,88 937,112 903,112" fill="rgb(255,170,170)"/>
<text x="905.0" y="105.0" font-family="courier" font-size="16" fill="rgb(0,0,0)">not</text>
<polygon points=" 883,48 907,48 907,72 883,72" fill="rgb(255,170,170)"/>
<text x="885.0" y="65.0" font-family="courier" font-size="16" fill="rgb(0,0,0)">&#92;/</text>
<line x1="742.5" y1="20.0" x2="960.0" y2="60.0" stroke="rgb(255,0,0)" stroke-width="1.5"/>
<line x1="960.0" y1="60.0" x2="950.0" y2="100.0" stroke="rgb(255,0,0)" stroke-width="1.5"/>
<polygon points=" 943,88 957,88 957,112 943,112" fill="rgb(255,170,170)"/>
<text x="945.0" y="105.0" font-family="courier" font-size="16" fill="rgb(0,0,0)">z</text>
<line x1="960.0" y1="60.0" x2="970.0" y2="100.0" stroke="rgb(255,0,0)" stroke-width="1.5"/>
<polygon points=" 963,88 977,88 977,112 963,112" fill="rgb(255,170,170)"/>
<text x="965.0" y="105.0" font-family="courier" font-size="16" fill="rgb(0,0,0)">x</text>
<polygon points=" 948,48 972,48 972,72 948,72" fill="rgb(255,170,170)"/>
<text x="950.0" y="65.0" font-family="courier" font-size="16" fill="rgb(0,0,0)">&#92;/</text>
<line x1="742.5" y1="20.0" x2="1010.0" y2="60.0" stroke="rgb(255,0,0)" stroke-width="1.5"/>
<line x1="1010.0" y1="60.0" x2="990.0" y2="100.0" stroke="rgb(255,0,0)" stroke-width="1.5"/>
<polygon points=" 983,88 997,88 997,112 983,112" fill="rgb(255,170,170)"/>
<text x="985.0" y="105.0" font-family="courier" font-size="16" fill="rgb(0,0,0)">z</text>
<line x1="1010.0" y1="60.0" x2="1010.0" y2="100.0" stroke="rgb(255,0,0)" stroke-width="1.5"/>
<polygon points=" 1003,88 1017,88 1017,112 1003,112" fill="rgb(255,170,170)"/>
<text x="1005.0" y="105.0" font-family="courier" font-size="16" fill="rgb(0,0,0)">x</text>
<line x1="1010.0" y1="60.0" x2="1030.0" y2="100.0" stroke="rgb(255,0,0)" stroke-width="1.5"/>
<polygon points=" 1023,88 1037,88 1037,112 1023,112" fill="rgb(255,170,170)"/>
<text x="1025.0" y="105.0" font-family="courier" font-size="16" fill="rgb(0,0,0)">y</text>
<polygon points=" 998,48 1022,48 1022,72 998,72" fill="rgb(255,170,170)"/>
<text x="1000.0" y="65.0" font-family="courier" font-size="16" fill="rgb(0,0,0)">&#92;/</text>
<line x1="742.5" y1="20.0" x2="1075.0" y2="60.0" stroke="rgb(255,0,0)" stroke-width="1.5"/>
<line x1="1075.0" y1="60.0" x2="1050.0" y2="100.0" stroke="rgb(255,0,0)" stroke-width="1.5"/>
<polygon points=" 1043,88 1057,88 1057,112 1043,112" fill="rgb(255,170,170)"/>
<text x="1045.0" y="105.0" font-family="courier" font-size="16" fill="rgb(0,0,0)">z</text>
<line x1="1075.0" y1="60.0" x2="1070.0" y2="100.0" stroke="rgb(255,0,0)" stroke-width="1.5"/>
<polygon points=" 1063,88 1077,88 1077,112 1063,112" fill="rgb(255,170,170)"/>
<text x="1065.0" y="105.0" font-family="courier" font-size="16" fill="rgb(0,0,0)">x</text>
<line x1="1075.0" y1="60.0" x2="1100.0" y2="100.0" stroke="rgb(255,0,0)" stroke-width="1.5"/>
<line x1="1100.0" y1="100.0" x2="1100.0" y2="140.0" stroke="rgb(255,0,0)" stroke-width="1.5"/>
<polygon points=" 1093,128 1107,128 1107,152 1093,152" fill="rgb(255,170,170)"/>
<text x="1095.0" y="145.0" font-family="courier" font-size="16" fill="rgb(0,0,0)">z</text>
<polygon points=" 1083,88 1117,88 1117,112 1083,112" fill="rgb(255,170,170)"/>
<text x="1085.0" y="105.0" font-family="courier" font-size="16" fill="rgb(0,0,0)">not</text>
<polygon points=" 1063,48 1087,48 1087,72 1063,72" fill="rgb(255,170,170)"/>
<text x="1065.0" y="65.0" font-family="courier" font-size="16" fill="rgb(0,0,0)">&#92;/</text>
<line x1="742.5" y1="20.0" x2="1160.0" y2="60.0" stroke="rgb(255,0,0)" stroke-width="1.5"/>
<line x1="1160.0" y1="60.0" x2="1130.0" y2="100.0" stroke="rgb(255,0,0)" stroke-width="1.5"/>
<polygon points=" 1123,88 1137,88 1137,112 1123,112" fill="rgb(255,170,170)"/>
<text x="1125.0" y="105.0" font-family="courier" font-size="16" fill="rgb(0,0,0)">z</text>
<line x1="1160.0" y1="60.0" x2="1160.0" y2="100.0" stroke="rgb(255,0,0)" stroke-width="1.5"/>
<line x1="1160.0" y1="100.0" x2="1160.0" y2="140.0" stroke="rgb(255,0,0)" stroke-width="1.5"/>
<polygon points=" 1153,128 1167,128 1167,152 1153,152" fill="rgb(255,170,170)"/>
<text x="1155.0" y="145.0" font-family="courier" font-size="16" fill="rgb(0,0,0)">y</text>
<polygon points=" 1143,88 1177,88 1177,112 1143,112" fill="rgb(255,170,170)"/>
<text x="1145.0" y="105.0" font-family="courier" font-size="16" fill="rgb(0,0,0)">not</text>
<line x1="1160.0" y1="60.0" x2="1190.0" y2="100.0" stroke="rgb(255,0,0)" stroke-width="1.5"/>
<polygon points=" 1183,88 1197,88 1197,112 1183,112" fill="rgb(255,170,170)"/>
<text x="1185.0" y="105.0" font-family="courier" font-size="16" fill="rgb(0,0,0)">x</text>
<polygon points=" 1148,48 1172,48 1172,72 1148,72" fill="rgb(255,170,170)"/>
<text x="1150.0" y="65.0" font-family="courier" font-size="16" fill="rgb(0,0,0)">&#92;/</text>
<line x1="742.5" y1="20.0" x2="1240.0" y2="60.0" stroke="rgb(255,0,0)" stroke-width="1.5"/>
<line x1="1240.0" y1="60.0" x2="1210.0" y2="100.0" stroke="rgb(255,0,0)" stroke-width="1.5"/>
<polygon points=" 1203,88 1217,88 1217,112 1203,112" fill="rgb(255,170,170)"/>
<text x="1205.0" y="105.0" font-family="courier" font-size="16" fill="rgb(0,0,0)">z</text>
<line x1="1240.0" y1="60.0" x2="1240.0" y2="100.0" stroke="rgb(255,0,0)" stroke-width="1.5"/>
<line x1="1240.0" y1="100.0" x2="1240.0" y2="140.0" stroke="rgb(255,0,0)" stroke-width="1.5"/>
<polygon points=" 1233,128 1247,128 1247,152 1233,152" fill="rgb(255,170,170)"/>
<text x="1235.0" y="145.0" font-family="courier" font-size="16" fill="rgb(0,0,0)">y</text>
<polygon points=" 1223,88 1257,88 1257,112 1223,112" fill="rgb(255,170,170)"/>
<text x="1225.0" y="105.0" font-family="courier" font-size="16" fill="rgb(0,0,0)">not</text>
<line x1="1240.0" y1="60.0" x2="1270.0" y2="100.0" stroke="rgb(255,0,0)" stroke-width="1.5"/>
<polygon points=" 1263,88 1277,88 1277,112 1263,112" fill="rgb(255,170,170)"/>
<text x="1265.0" y="105.0" font-family="courier" font-size="16" fill="rgb(0,0,0)">y</text>
<polygon points=" 1228,48 1252,48 1252,72 1228,72" fill="rgb(255,170,170)"/>
<text x="1230.0" y="65.0" font-family="courier" font-size="16" fill="rgb(0,0,0)">&#92;/</text>
<line x1="742.5" y1="20.0" x2="1325.0" y2="60.0" stroke="rgb(255,0,0)" stroke-width="1.5"/>
<line x1="1325.0" y1="60.0" x2="1290.0" y2="100.0" stroke="rgb(255,0,0)" stroke-width="1.5"/>
<polygon points=" 1283,88 1297,88 1297,112 1283,112" fill="rgb(255,170,170)"/>
<text x="1285.0" y="105.0" font-family="courier" font-size="16" fill="rgb(0,0,0)">z</text>
<line x1="1325.0" y1="60.0" x2="1320.0" y2="100.0" stroke="rgb(255,0,0)" stroke-width="1.5"/>
<line x1="1320.0" y1="100.0" x2="1320.0" y2="140.0" stroke="rgb(255,0,0)" stroke-width="1.5"/>
<polygon points=" 1313,128 1327,128 1327,152 1313,152" fill="rgb(255,170,170)"/>
<text x="1315.0" y="145.0" font-family="courier" font-size="16" fill="rgb(0,0,0)">y</text>
<polygon points=" 1303,88 1337,88 1337,112 1303,112" fill="rgb(255,170,170)"/>
<text x="1305.0" y="105.0" font-family="courier" font-size="16" fill="rgb(0,0,0)">not</text>
<line x1="1325.0" y1="60.0" x2="1360.0" y2="100.0" stroke="rgb(255,0,0)" stroke-width="1.5"/>
<line x1="1360.0" y1="100.0" x2="1360.0" y2="140.0" stroke="rgb(255,0,0)" stroke-width="1.5"/>
<polygon points=" 1353,128 1367,128 1367,152 1353,152" fill="rgb(255,170,170)"/>
<text x="1355.0" y="145.0" font-family="courier" font-size="16" fill="rgb(0,0,0)">z</text>
<polygon points=" 1343,88 1377,88 1377,112 1343,112" fill="rgb(255,170,170)"/>
<text x="1345.0" y="105.0" font-family="courier" font-size="16" fill="rgb(0,0,0)">not</text>
<polygon points=" 1313,48 1337,48 1337,72 1313,72" fill="rgb(255,170,170)"/>
<text x="1315.0" y="65.0" font-family="courier" font-size="16" fill="rgb(0,0,0)">&#92;/</text>
<line x1="742.5" y1="20.0" x2="1400.0" y2="60.0" stroke="rgb(255,0,0)" stroke-width="1.5"/>
<line x1="1400.0" y1="60.0" x2="1390.0" y2="100.0" stroke="rgb(255,0,0)" stroke-width="1.5"/>
<polygon points=" 1383,88 1397,88 1397,112 1383,112" fill="rgb(255,170,170)"/>
<text x="1385.0" y="105.0" font-family="courier" font-size="16" fill="rgb(0,0,0)">z</text>
<line x1="1400.0" y1="60.0" x2="1410.0" y2="100.0" stroke="rgb(255,0,0)" stroke-width="1.5"/>
<polygon points=" 1403,88 1417,88 1417,112 1403,112" fill="rgb(255,170,170)"/>
<text x="1405.0" y="105.0" font-family="courier" font-size="16" fill="rgb(0,0,0)">y</text>
<polygon points=" 1388,48 1412,48 1412,72 1388,72" fill="rgb(255,170,170)"/>
<text x="1390.0" y="65.0" font-family="courier" font-size="16" fill="rgb(0,0,0)">&#92;/</text>
<line x1="742.5" y1="20.0" x2="1445.0" y2="60.0" stroke="rgb(255,0,0)" stroke-width="1.5"/>
<line x1="1445.0" y1="60.0" x2="1430.0" y2="100.0" stroke="rgb(255,0,0)" stroke-width="1.5"/>
<polygon points=" 1423,88 1437,88 1437,112 1423,112" fill="rgb(255,170,170)"/>
<text x="1425.0" y="105.0" font-family="courier" font-size="16" fill="rgb(0,0,0)">z</text>
<line x1="1445.0" y1="60.0" x2="1460.0" y2="100.0" stroke="rgb(255,0,0)" stroke-width="1.5"/>
<line x1="1460.0" y1="100.0" x2="1460.0" y2="140.0" stroke="rgb(255,0,0)" stroke-width="1.5"/>
<polygon points=" 1453,128 1467,128 1467,152 1453,152" fill="rgb(255,170,170)"/>
<text x="1455.0" y="145.0" font-family="courier" font-size="16" fill="rgb(0,0,0)">z</text>
<polygon points=" 1443,88 1477,88 1477,112 1443,112" fill="rgb(255,170,170)"/>
<text x="1445.0" y="105.0" font-family="courier" font-size="16" fill="rgb(0,0,0)">not</text>
<polygon points=" 1433,48 1457,48 1457,72 1433,72" fill="rgb(255,170,170)"/>
<text x="1435.0" y="65.0" font-family="courier" font-size="16" fill="rgb(0,0,0)">&#92;/</text>
<polygon points=" 730,8 754,8 754,32 730,32" fill="rgb(255,170,170)"/>
<text x="732.5" y="25.0" font-family="courier" font-size="16" fill="rgb(0,0,0)">/&#92;</text></svg>