<svg xmlns="http://www.w3.org/2000/svg"
xmlns:xlink="http://www.w3.org/1999/xlink"
version="1.1" baseProfile="full"
width="1480" height="160">
<line x1="747.5" y1="20.0" x2="65.0" y2="60.0" stroke="rgb(255,0,0)" stroke-width="1.5"/>
<line x1="65.0" y1="60.0" x2="25.0" y2="100.0" stroke="rgb(255,0,0)" stroke-width="1.5"/>
<line x1="25.0" y1="100.0" x2="25.0" y2="140.0" stroke="rgb(255,0,0)" stroke-width="1.5"/>
<polygon points=" 18,128 32,128 32,152 18,152" fill="rgb(170,255,170)"/>
<text x="20.0" y="145.0" font-family="courier" font-size="16" fill="rgb(0,0,0)">x</text>
<polygon points=" 8,88 42,88 42,112 8,112" fill="rgb(170,255,170)"/>
<text x="10.0" y="105.0" font-family="courier" font-size="16" fill="rgb(0,0,0)">not</text>
<line x1="65.0" y1="60.0" x2="65.0" y2="100.0" stroke="rgb(255,0,0)" stroke-width="1.5"/>
<line x1="65.0" y1="100.0" x2="65.0" y2="140.0" stroke="rgb(255,0,0)" stroke-width="1.5"/>
<polygon points=" 58,128 72,128 72,152 58,152" fill="rgb(170,255,170)"/>
<text x="60.0" y="145.0" font-family="courier" font-size="16" fill="rgb(0,0,0)">y</text>
<polygon points=" 48,88 82,88 82,112 48,112" fill="rgb(170,255,170)"/>
<text x="50.0" y="105.0" font-family="courier" font-size="16" fill="rgb(0,0,0)">not</text>
<line x1="65.0" y1="60.0" x2="105.0" y2="100.0" stroke="rgb(255,0,0)" stroke-width="1.5"/>
<line x1="105.0" y1="100.0" x2="105.0" y2="140.0" stroke="rgb(255,0,0)" stroke-width="1.5"/>
<polygon points=" 98,128 112,128 112,152 98,152" fill="rgb(170,255,170)"/>
<text x="100.0" y="145.0" font-family="courier" font-size="16" fill="rgb(0,0,0)">z</text>
<polygon points=" 88,88 122,88 122,112 88,112" fill="rgb(170,255,170)"/>
<text x="90.0" y="105.0" font-family="courier" font-size="16" fill="rgb(0,0,0)">not</text>
<polygon points=" 53,48 77,48 77,72 53,72" fill="rgb(170,255,170)"/>
<text x="55.0" y="65.0" font-family="courier" font-size="16" fill="rgb(0,0,0)">&#92;/</text>
<line x1="747.5" y1="20.0" x2="170.0" y2="60.0" stroke="rgb(255,0,0)" stroke-width="1.5"/>
<line x1="170.0" y1="60.0" x2="145.0" y2="100.0" stroke="rgb(255,0,0)" stroke-width="1.5"/>
<line x1="145.0" y1="100.0" x2="145.0" y2="140.0" stroke="rgb(255,0,0)" stroke-width="1.5"/>
<polygon points=" 138,128 152,128 152,152 138,152" fill="rgb(170,255,170)"/>
<text x="140.0" y="145.0" font-family="courier" font-size="16" fill="rgb(0,0,0)">x</text>
<polygon points=" 128,88 162,88 162,112 128,112" fill="rgb(170,255,170)"/>
<text x="130.0" y="105.0" font-family="courier" font-size="16" fill="rgb(0,0,0)">not</text>
<line x1="170.0" y1="60.0" x2="175.0" y2="100.0" stroke="rgb(255,0,0)" stroke-width="1.5"/>
<polygon points=" 168,88 182,88 182,112 168,112" fill="rgb(170,255,170)"/>
<text x="170.0" y="105.0" font-family="courier" font-size="16" fill="rgb(0,0,0)">z</text>
<line x1="170.0" y1="60.0" x2="195.0" y2="100.0" stroke="rgb(255,0,0)" stroke-width="1.5"/>
<polygon points=" 188,88 202,88 202,112 188,112" fill="rgb(170,255,170)"/>
<text x="190.0" y="105.0" font-family="courier" font-size="16" fill="rgb(0,0,0)">x</text>
<polygon points=" 158,48 182,48 182,72 158,72" fill="rgb(170,255,170)"/>
<text x="160.0" y="65.0" font-family="courier" font-size="16" fill="rgb(0,0,0)">&#92;/</text>
<line x1="747.5" y1="20.0" x2="250.0" y2="60.0" stroke="rgb(255,0,0)" stroke-width="1.5"/>
<line x1="250.0" y1="60.0" x2="225.0" y2="100.0" stroke="rgb(255,0,0)" stroke-width="1.5"/>
<line x1="225.0" y1="100.0" x2="225.0" y2="140.0" stroke="rgb(255,0,0)" stroke-width="1.5"/>
<polygon points=" 218,128 232,128 232,152 218,152" fill="rgb(170,255,170)"/>
<text x="220.0" y="145.0" font-family="courier" font-size="16" fill="rgb(0,0,0)">x</text>
<polygon points=" 208,88 242,88 242,112 208,112" fill="rgb(170,255,170)"/>
<text x="210.0" y="105.0" font-family="courier" font-size="16" fill="rgb(0,0,0)">not</text>
<line x1="250.0" y1="60.0" x2="255.0" y2="100.0" stroke="rgb(255,0,0)" stroke-width="1.5"/>
<polygon points=" 248,88 262,88 262,112 248,112" fill="rgb(170,255,170)"/>
<text x="250.0" y="105.0" font-family="courier" font-size="16" fill="rgb(0,0,0)">z</text>
<line x1="250.0" y1="60.0" x2="275.0" y2="100.0" stroke="rgb(255,0,0)" stroke-width="1.5"/>
<polygon points=" 268,88 282,88 282,112 268,112" fill="rgb(170,255,170)"/>
<text x="270.0" y="105.0" font-family="courier" font-size="16" fill="rgb(0,0,0)">y</text>
<polygon points=" 238,48 262,48 262,72 238,72" fill="rgb(170,255,170)"/>
<text x="240.0" y="65.0" font-family="courier" font-size="16" fill="rgb(0,0,0)">&#92;/</text>
<line x1="747.5" y1="20.0" x2="335.0" y2="60.0" stroke="rgb(255,0,0)" stroke-width="1.5"/>
<line x1="335.0" y1="60.0" x2="305.0" y2="100.0" stroke="rgb(255,0,0)" stroke-width="1.5"/>
<line x1="305.0" y1="100.0" x2="305.0" y2="140.0" stroke="rgb(255,0,0)" stroke-width="1.5"/>
<polygon points=" 298,128 312,128 312,152 298,152" fill="rgb(170,255,170)"/>
<text x="300.0" y="145.0" font-family="courier" font-size="16" fill="rgb(0,0,0)">x</text>
<polygon points=" 288,88 322,88 322,112 288,112" fill="rgb(170,255,170)"/>
<text x="290.0" y="105.0" font-family="courier" font-size="16" fill="rgb(0,0,0)">not</text>
<line x1="335.0" y1="60.0" x2="335.0" y2="100.0" stroke="rgb(255,0,0)" stroke-width="1.5"/>
<polygon points=" 328,88 342,88 342,112 328,112" fill="rgb(170,255,170)"/>
<text x="330.0" y="105.0" font-family="courier" font-size="16" fill="rgb(0,0,0)">z</text>
<line x1="335.0" y1="60.0" x2="365.0" y2="100.0" stroke="rgb(255,0,0)" stroke-width="1.5"/>
<line x1="365.0" y1="100.0" x2="365.0" y2="140.0" stroke="rgb(255,0,0)" stroke-width="1.5"/>
<polygon points=" 358,128 372,128 372,152 358,152" fill="rgb(170,255,170)"/>
<text x="360.0" y="145.0" font-family="courier" font-size="16" fill="rgb(0,0,0)">z</text>
<polygon points=" 348,88 382,88 382,112 348,112" fill="rgb(170,255,170)"/>
<text x="350.0" y="105.0" font-family="courier" font-size="16" fill="rgb(0,0,0)">not</text>
<polygon points=" 323,48 347,48 347,72 323,72" fill="rgb(170,255,170)"/>
<text x="325.0" y="65.0" font-family="courier" font-size="16" fill="rgb(0,0,0)">&#92;/</text>
<line x1="747.5" y1="20.0" x2="405.0" y2="60.0" stroke="rgb(255,0,0)" stroke-width="1.5"/>
<line x1="405.0" y1="60.0" x2="395.0" y2="100.0" stroke="rgb(255,0,0)" stroke-width="1.5"/>
<polygon points=" 388,88 402,88 402,112 388,112" fill="rgb(170,255,170)"/>
<text x="390.0" y="105.0" font-family="courier" font-size="16" fill="rgb(0,0,0)">y</text>
<line x1="405.0" y1="60.0" x2="415.0" y2="100.0" stroke="rgb(255,0,0)" stroke-width="1.5"/>
<polygon points=" 408,88 422,88 422,112 408,112" fill="rgb(170,255,170)"/>
<text x="410.0" y="105.0" font-family="courier" font-size="16" fill="rgb(0,0,0)">x</text>
<polygon points=" 393,48 417,48 417,72 393,72" fill="rgb(170,255,170)"/>
<text x="395.0" y="65.0" font-family="courier" font-size="16" fill="rgb(0,0,0)">&#92;/</text>
<line x1="747.5" y1="20.0" x2="460.0" y2="60.0" stroke="rgb(255,0,0)" stroke-width="1.5"/>
<line x1="460.0" y1="60.0" x2="435.0" y2="100.0" stroke="rgb(255,0,0)" stroke-width="1.5"/>
<polygon points=" 428,88 442,88 442,112 428,112" fill="rgb(170,255,170)"/>
<text x="430.0" y="105.0" font-family="courier" font-size="16" fill="rgb(0,0,0)">y</text>
<line x1="460.0" y1="60.0" x2="455.0" y2="100.0" stroke="rgb(255,0,0)" stroke-width="1.5"/>
<polygon points=" 448,88 462,88 462,112 448,112" fill="rgb(170,255,170)"/>
<text x="450.0" y="105.0" font-family="courier" font-size="16" fill="rgb(0,0,0)">x</text>
<line x1="460.0" y1="60.0" x2="485.0" y2="100.0" stroke="rgb(255,0,0)" stroke-width="1.5"/>
<line x1="485.0" y1="100.0" x2="485.0" y2="140.0" stroke="rgb(255,0,0)" stroke-width="1.5"/>
<polygon points=" 478,128 492,128 492,152 478,152" fill="rgb(170,255,170)"/>
<text x="480.0" y="145.0" font-family="courier" font-size="16" fill="rgb(0,0,0)">z</text>
<polygon points=" 468,88 502,88 502,112 468,112" fill="rgb(170,255,170)"/>
<text x="470.0" y="105.0" font-family="courier" font-size="16" fill="rgb(0,0,0)">not</text>
<polygon points=" 448,48 472,48 472,72 448,72" fill="rgb(170,255,170)"/>
<text x="450.0" y="65.0" font-family="courier" font-size="16" fill="rgb(0,0,0)">&#92;/</text>
<line x1="747.5" y1="20.0" x2="545.0" y2="60.0" stroke="rgb(255,0,0)" stroke-width="1.5"/>
<line x1="545.0" y1="60.0" x2="515.0" y2="100.0" stroke="rgb(255,0,0)" stroke-width="1.5"/>
<polygon points=" 508,88 522,88 522,112 508,112" fill="rgb(170,255,170)"/>
<text x="510.0" y="105.0" font-family="courier" font-size="16" fill="rgb(0,0,0)">y</text>
<line x1="545.0" y1="60.0" x2="545.0" y2="100.0" stroke="rgb(255,0,0)" stroke-width="1.5"/>
<line x1="545.0" y1="100.0" x2="545.0" y2="140.0" stroke="rgb(255,0,0)" stroke-width="1.5"/>
<polygon points=" 538,128 552,128 552,152 538,152" fill="rgb(170,255,170)"/>
<text x="540.0" y="145.0" font-family="courier" font-size="16" fill="rgb(0,0,0)">y</text>
<polygon points=" 528,88 562,88 562,112 528,112" fill="rgb(170,255,170)"/>
<text x="530.0" y="105.0" font-family="courier" font-size="16" fill="rgb(0,0,0)">not</text>
<line x1="545.0" y1="60.0" x2="575.0" y2="100.0" stroke="rgb(255,0,0)" stroke-width="1.5"/>
<polygon points=" 568,88 582,88 582,112 568,112" fill="rgb(170,255,170)"/>
<text x="570.0" y="105.0" font-family="courier" font-size="16" fill="rgb(0,0,0)">x</text>
<polygon points=" 533,48 557,48 557,72 533,72" fill="rgb(170,255,170)"/>
<text x="535.0" y="65.0" font-family="courier" font-size="16" fill="rgb(0,0,0)">&#92;/</text>
<line x1="747.5" y1="20.0" x2="610.0" y2="60.0" stroke="rgb(255,0,0)" stroke-width="1.5"/>
<line x1="610.0" y1="60.0" x2="595.0" y2="100.0" stroke="rgb(255,0,0)" stroke-width="1.5"/>
<polygon points=" 588,88 602,88 602,112 588,112" fill="rgb(170,255,170)"/>
<text x="590.0" y="105.0" font-family="courier" font-size="16" fill="rgb(0,0,0)">y</text>
<line x1="610.0" y1="60.0" x2="625.0" y2="100.0" stroke="rgb(255,0,0)" stroke-width="1.5"/>
<line x1="625.0" y1="100.0" x2="625.0" y2="140.0" stroke="rgb(255,0,0)" stroke-width="1.5"/>
<polygon points=" 618,128 632,128 632,152 618,152" fill="rgb(170,255,170)"/>
<text x="620.0" y="145.0" font-family="courier" font-size="16" fill="rgb(0,0,0)">y</text>
<polygon points=" 608,88 642,88 642,112 608,112" fill="rgb(170,255,170)"/>
<text x="610.0" y="105.0" font-family="courier" font-size="16" fill="rgb(0,0,0)">not</text>
<polygon points=" 598,48 622,48 622,72 598,72" fill="rgb(170,255,170)"/>
<text x="600.0" y="65.0" font-family="courier" font-size="16" fill="rgb(0,0,0)">&#92;/</text>
<line x1="747.5" y1="20.0" x2="690.0" y2="60.0" stroke="rgb(255,0,0)" stroke-width="1.5"/>
<line x1="690.0" y1="60.0" x2="655.0" y2="100.0" stroke="rgb(255,0,0)" stroke-width="1.5"/>
<polygon points=" 648,88 662,88 662,112 648,112" fill="rgb(170,255,170)"/>
<text x="650.0" y="105.0" font-family="courier" font-size="16" fill="rgb(0,0,0)">y</text>
<line x1="690.0" y1="60.0" x2="685.0" y2="100.0" stroke="rgb(255,0,0)" stroke-width="1.5"/>
<line x1="685.0" y1="100.0" x2="685.0" y2="140.0" stroke="rgb(255,0,0)" stroke-width="1.5"/>
<polygon points=" 678,128 692,128 692,152 678,152" fill="rgb(170,255,170)"/>
<text x="680.0" y="145.0" font-family="courier" font-size="16" fill="rgb(0,0,0)">y</text>
<polygon points=" 668,88 702,88 702,112 668,112" fill="rgb(170,255,170)"/>
<text x="670.0" y="105.0" font-family="courier" font-size="16" fill="rgb(0,0,0)">not</text>
<line x1="690.0" y1="60.0" x2="725.0" y2="100.0" stroke="rgb(255,0,0)" stroke-width="1.5"/>
<line x1="725.0" y1="100.0" x2="725.0" y2="140.0" stroke="rgb(255,0,0)" stroke-width="1.5"/>
<polygon points=" 718,128 732,128 732,152 718,152" fill="rgb(170,255,170)"/>
<text x="720.0" y="145.0" font-family="courier" font-size="16" fill="rgb(0,0,0)">z</text>
<polygon points=" 708,88 742,88 742,112 708,112" fill="rgb(170,255,170)"/>
<text x="710.0" y="105.0" font-family="courier" font-size="16" fill="rgb(0,0,0)">not</text>
<polygon points=" 678,48 702,48 702,72 678,72" fill="rgb(170,255,170)"/>
<text x="680.0" y="65.0" font-family="courier" font-size="16" fill="rgb(0,0,0)">&#92;/</text>
<line x1="747.5" y1="20.0" x2="775.0" y2="60.0" stroke="rgb(255,0,0)" stroke-width="1.5"/>
<line x1="775.0" y1="60.0" x2="755.0" y2="100.0" stroke="rgb(255,0,0)" stroke-width="1.5"/>
<polygon points=" 748,88 762,88 762,112 748,112" fill="rgb(170,255,170)"/>
<text x="750.0" y="105.0" font-family="courier" font-size="16" fill="rgb(0,0,0)">y</text>
<line x1="775.0" y1="60.0" x2="775.0" y2="100.0" stroke="rgb(255,0,0)" stroke-width="1.5"/>
<polygon points=" 768,88 782,88 782,112 768,112" fill="rgb(170,255,170)"/>
<text x="770.0" y="105.0" font-family="courier" font-size="16" fill="rgb(0,0,0)">z</text>
<line x1="775.0" y1="60.0" x2="795.0" y2="100.0" stroke="rgb(255,0,0)" stroke-width="1.5"/>
<polygon points=" 788,88 802,88 802,112 788,112" fill="rgb(170,255,170)"/>
<text x="790.0" y="105.0" font-family="courier" font-size="16" fill="rgb(0,0,0)">x</text>
<polygon points=" 763,48 787,48 787,72 763,72" fill="rgb(170,255,170)"/>
<text x="765.0" y="65.0" font-family="courier" font-size="16" fill="rgb(0,0,0)">&#92;/</text>
<line x1="747.5" y1="20.0" x2="825.0" y2="60.0" stroke="rgb(255,0,0)" stroke-width="1.5"/>
<line x1="825.0" y1="60.0" x2="815.0" y2="100.0" stroke="rgb(255,0,0)" stroke-width="1.5"/>
<polygon points=" 808,88 822,88 822,112 808,112" fill="rgb(170,255,170)"/>
<text x="810.0" y="105.0" font-family="courier" font-size="16" fill="rgb(0,0,0)">y</text>
<line x1="825.0" y1="60.0" x2="835.0" y2="100.0" stroke="rgb(255,0,0)" stroke-width="1.5"/>
<polygon points=" 828,88 842,88 842,112 828,112" fill="rgb(170,255,170)"/>
<text x="830.0" y="105.0" font-family="courier" font-size="16" fill="rgb(0,0,0)">z</text>
<polygon points=" 813,48 837,48 837,72 813,72" fill="rgb(170,255,170)"/>
<text x="815.0" y="65.0" font-family="courier" font-size="16" fill="rgb(0,0,0)">&#92;/</text>
<line x1="747.5" y1="20.0" x2="880.0" y2="60.0" stroke="rgb(255,0,0)" stroke-width="1.5"/>
<line x1="880.0" y1="60.0" x2="855.0" y2="100.0" stroke="rgb(255,0,0)" stroke-width="1.5"/>
<polygon points=" 848,88 862,88 862,112 848,112" fill="rgb(170,255,170)"/>
<text x="850.0" y="105.0" font-family="courier" font-size="16" fill="rgb(0,0,0)">y</text>
<line x1="880.0" y1="60.0" x2="875.0" y2="100.0" stroke="rgb(255,0,0)" stroke-width="1.5"/>
<polygon points=" 868,88 882,88 882,112 868,112" fill="rgb(170,255,170)"/>
<text x="870.0" y="105.0" font-family="courier" font-size="16" fill="rgb(0,0,0)">z</text>
<line x1="880.0" y1="60.0" x2="905.0" y2="100.0" stroke="rgb(255,0,0)" stroke-width="1.5"/>
<line x1="905.0" y1="100.0" x2="905.0" y2="140.0" stroke="rgb(255,0,0)" stroke-width="1.5"/>
<polygon points=" 898,128 912,128 912,152 898,152" fill="rgb(170,255,170)"/>
<text x="900.0" y="145.0" font-family="courier" font-size="16" fill="rgb(0,0,0)">z</text>
<polygon points=" 888,88 922,88 922,112 888,112" fill="rgb(170,255,170)"/>
<text x="890.0" y="105.0" font-family="courier" font-size="16" fill="rgb(0,0,0)">not</text>
<polygon points=" 868,48 892,48 892,72 868,72" fill="rgb(170,255,170)"/>
<text x="870.0" y="65.0" font-family="courier" font-size="16" fill="rgb(0,0,0)">&#92;/</text>
<line x1="747.5" y1="20.0" x2="945.0" y2="60.0" stroke="rgb(255,0,0)" stroke-width="1.5"/>
<line x1="945.0" y1="60.0" x2="935.0" y2="100.0" stroke="rgb(255,0,0)" stroke-width="1.5"/>
<polygon points=" 928,88 942,88 942,112 928,112" fill="rgb(170,255,170)"/>
<text x="930.0" y="105.0" font-family="courier" font-size="16" fill="rgb(0,0,0)">z</text>
<line x1="945.0" y1="60.0" x2="955.0" y2="100.0" stroke="rgb(255,0,0)" stroke-width="1.5"/>
<polygon points=" 948,88 962,88 962,112 948,112" fill="rgb(170,255,170)"/>
<text x="950.0" y="105.0" font-family="courier" font-size="16" fill="rgb(0,0,0)">x</text>
<polygon points=" 933,48 957,48 957,72 933,72" fill="rgb(170,255,170)"/>
<text x="935.0" y="65.0" font-family="courier" font-size="16" fill="rgb(0,0,0)">&#92;/</text>
<line x1="747.5" y1="20.0" x2="995.0" y2="60.0" stroke="rgb(255,0,0)" stroke-width="1.5"/>
<line x1="995.0" y1="60.0" x2="975.0" y2="100.0" stroke="rgb(255,0,0)" stroke-width="1.5"/>
<polygon points=" 968,88 982,88 982,112 968,112" fill="rgb(170,255,170)"/>
<text x="970.0" y="105.0" font-family="courier" font-size="16" fill="rgb(0,0,0)">z</text>
<line x1="995.0" y1="60.0" x2="995.0" y2="100.0" stroke="rgb(255,0,0)" stroke-width="1.5"/>
<polygon points=" 988,88 1002,88 1002,112 988,112" fill="rgb(170,255,170)"/>
<text x="990.0" y="105.0" font-family="courier" font-size="16" fill="rgb(0,0,0)">x</text>
<line x1="995.0" y1="60.0" x2="1015.0" y2="100.0" stroke="rgb(255,0,0)" stroke-width="1.5"/>
<polygon points=" 1008,88 1022,88 1022,112 1008,112" fill="rgb(170,255,170)"/>
<text x="1010.0" y="105.0" font-family="courier" font-size="16" fill="rgb(0,0,0)">y</text>
<polygon points=" 983,48 1007,48 1007,72 983,72" fill="rgb(170,255,170)"/>
<text x="985.0" y="65.0" font-family="courier" font-size="16" fill="rgb(0,0,0)">&#92;/</text>
<line x1="747.5" y1="20.0" x2="1060.0" y2="60.0" stroke="rgb(255,0,0)" stroke-width="1.5"/>
<line x1="1060.0" y1="60.0" x2="1035.0" y2="100.0" stroke="rgb(255,0,0)" stroke-width="1.5"/>
<polygon points=" 1028,88 1042,88 1042,112 1028,112" fill="rgb(170,255,170)"/>
<text x="1030.0" y="105.0" font-family="courier" font-size="16" fill="rgb(0,0,0)">z</text>
<line x1="1060.0" y1="60.0" x2="1055.0" y2="100.0" stroke="rgb(255,0,0)" stroke-width="1.5"/>
<polygon points=" 1048,88 1062,88 1062,112 1048,112" fill="rgb(170,255,170)"/>
<text x="1050.0" y="105.0" font-family="courier" font-size="16" fill="rgb(0,0,0)">x</text>
<line x1="1060.0" y1="60.0" x2="1085.0" y2="100.0" stroke="rgb(255,0,0)" stroke-width="1.5"/>
<line x1="1085.0" y1="100.0" x2="1085.0" y2="140.0" stroke="rgb(255,0,0)" stroke-width="1.5"/>
<polygon points=" 1078,128 1092,128 1092,152 1078,152" fill="rgb(170,255,170)"/>
<text x="1080.0" y="145.0" font-family="courier" font-size="16" fill="rgb(0,0,0)">z</text>
<polygon points=" 1068,88 1102,88 1102,112 1068,112" fill="rgb(170,255,170)"/>
<text x="1070.0" y="105.0" font-family="courier" font-size="16" fill="rgb(0,0,0)">not</text>
<polygon points=" 1048,48 1072,48 1072,72 1048,72" fill="rgb(170,255,170)"/>
<text x="1050.0" y="65.0" font-family="courier" font-size="16" fill="rgb(0,0,0)">&#92;/</text>
<line x1="747.5" y1="20.0" x2="1145.0" y2="60.0" stroke="rgb(255,0,0)" stroke-width="1.5"/>
<line x1="1145.0" y1="60.0" x2="1115.0" y2="100.0" stroke="rgb(255,0,0)" stroke-width="1.5"/>
<polygon points=" 1108,88 1122,88 1122,112 1108,112" fill="rgb(170,255,170)"/>
<text x="1110.0" y="105.0" font-family="courier" font-size="16" fill="rgb(0,0,0)">z</text>
<line x1="1145.0" y1="60.0" x2="1145.0" y2="100.0" stroke="rgb(255,0,0)" stroke-width="1.5"/>
<line x1="1145.0" y1="100.0" x2="1145.0" y2="140.0" stroke="rgb(255,0,0)" stroke-width="1.5"/>
<polygon points=" 1138,128 1152,128 1152,152 1138,152" fill="rgb(170,255,170)"/>
<text x="1140.0" y="145.0" font-family="courier" font-size="16" fill="rgb(0,0,0)">y</text>
<polygon points=" 1128,88 1162,88 1162,112 1128,112" fill="rgb(170,255,170)"/>
<text x="1130.0" y="105.0" font-family="courier" font-size="16" fill="rgb(0,0,0)">not</text>
<line x1="1145.0" y1="60.0" x2="1175.0" y2="100.0" stroke="rgb(255,0,0)" stroke-width="1.5"/>
<polygon points=" 1168,88 1182,88 1182,112 1168,112" fill="rgb(170,255,170)"/>
<text x="1170.0" y="105.0" font-family="courier" font-size="16" fill="rgb(0,0,0)">x</text>
<polygon points=" 1133,48 1157,48 1157,72 1133,72" fill="rgb(170,255,170)"/>
<text x="1135.0" y="65.0" font-family="courier" font-size="16" fill="rgb(0,0,0)">&#92;/</text>
<line x1="747.5" y1="20.0" x2="1225.0" y2="60.0" stroke="rgb(255,0,0)" stroke-width="1.5"/>
<line x1="1225.0" y1="60.0" x2="1195.0" y2="100.0" stroke="rgb(255,0,0)" stroke-width="1.5"/>
<polygon points=" 1188,88 1202,88 1202,112 1188,112" fill="rgb(170,255,170)"/>
<text x="1190.0" y="105.0" font-family="courier" font-size="16" fill="rgb(0,0,0)">z</text>
<line x1="1225.0" y1="60.0" x2="1225.0" y2="100.0" stroke="rgb(255,0,0)" stroke-width="1.5"/>
<line x1="1225.0" y1="100.0" x2="1225.0" y2="140.0" stroke="rgb(255,0,0)" stroke-width="1.5"/>
<polygon points=" 1218,128 1232,128 1232,152 1218,152" fill="rgb(170,255,170)"/>
<text x="1220.0" y="145.0" font-family="courier" font-size="16" fill="rgb(0,0,0)">y</text>
<polygon points=" 1208,88 1242,88 1242,112 1208,112" fill="rgb(170,255,170)"/>
<text x="1210.0" y="105.0" font-family="courier" font-size="16" fill="rgb(0,0,0)">not</text>
<line x1="1225.0" y1="60.0" x2="1255.0" y2="100.0" stroke="rgb(255,0,0)" stroke-width="1.5"/>
<polygon points=" 1248,88 1262,88 1262,112 1248,112" fill="rgb(170,255,170)"/>
<text x="1250.0" y="105.0" font-family="courier" font-size="16" fill="rgb(0,0,0)">y</text>
<polygon points=" 1213,48 1237,48 1237,72 1213,72" fill="rgb(170,255,170)"/>
<text x="1215.0" y="65.0" font-family="courier" font-size="16" fill="rgb(0,0,0)">&#92;/</text>
<line x1="747.5" y1="20.0" x2="1310.0" y2="60.0" stroke="rgb(255,0,0)" stroke-width="1.5"/>
<line x1="1310.0" y1="60.0" x2="1275.0" y2="100.0" stroke="rgb(255,0,0)" stroke-width="1.5"/>
<polygon points=" 1268,88 1282,88 1282,112 1268,112" fill="rgb(170,255,170)"/>
<text x="1270.0" y="105.0" font-family="courier" font-size="16" fill="rgb(0,0,0)">z</text>
<line x1="1310.0" y1="60.0" x2="1305.0" y2="100.0" stroke="rgb(255,0,0)" stroke-width="1.5"/>
<line x1="1305.0" y1="100.0" x2="1305.0" y2="140.0" stroke="rgb(255,0,0)" stroke-width="1.5"/>
<polygon points=" 1298,128 1312,128 1312,152 1298,152" fill="rgb(170,255,170)"/>
<text x="1300.0" y="145.0" font-family="courier" font-size="16" fill="rgb(0,0,0)">y</text>
<polygon points=" 1288,88 1322,88 1322,112 1288,112" fill="rgb(170,255,170)"/>
<text x="1290.0" y="105.0" font-family="courier" font-size="16" fill="rgb(0,0,0)">not</text>
<line x1="1310.0" y1="60.0" x2="1345.0" y2="100.0" stroke="rgb(255,0,0)" stroke-width="1.5"/>
<line x1="1345.0" y1="100.0" x2="1345.0" y2="140.0" stroke="rgb(255,0,0)" stroke-width="1.5"/>
<polygon points=" 1338,128 1352,128 1352,152 1338,152" fill="rgb(170,255,170)"/>
<text x="1340.0" y="145.0" font-family="courier" font-size="16" fill="rgb(0,0,0)">z</text>
<polygon points=" 1328,88 1362,88 1362,112 1328,112" fill="rgb(170,255,170)"/>
<text x="1330.0" y="105.0" font-family="courier" font-size="16" fill="rgb(0,0,0)">not</text>
<polygon points=" 1298,48 1322,48 1322,72 1298,72" fill="rgb(170,255,170)"/>
<text x="1300.0" y="65.0" font-family="courier" font-size="16" fill="rgb(0,0,0)">&#92;/</text>
<line x1="747.5" y1="20.0" x2="1385.0" y2="60.0" stroke="rgb(255,0,0)" stroke-width="1.5"/>
<line x1="1385.0" y1="60.0" x2="1375.0" y2="100.0" stroke="rgb(255,0,0)" stroke-width="1.5"/>
<polygon points=" 1368,88 1382,88 1382,112 1368,112" fill="rgb(170,255,170)"/>
<text x="1370.0" y="105.0" font-family="courier" font-size="16" fill="rgb(0,0,0)">z</text>
<line x1="1385.0" y1="60.0" x2="1395.0" y2="100.0" stroke="rgb(255,0,0)" stroke-width="1.5"/>
<polygon points=" 1388,88 1402,88 1402,112 1388,112" fill="rgb(170,255,170)"/>
<text x="1390.0" y="105.0" font-family="courier" font-size="16" fill="rgb(0,0,0)">y</text>
<polygon points=" 1373,48 1397,48 1397,72 1373,72" fill="rgb(170,255,170)"/>
<text x="1375.0" y="65.0" font-family="courier" font-size="16" fill="rgb(0,0,0)">&#92;/</text>
<line x1="747.5" y1="20.0" x2="1430.0" y2="60.0" stroke="rgb(255,0,0)" stroke-width="1.5"/>
<line x1="1430.0" y1="60.0" x2="1415.0" y2="100.0" stroke="rgb(255,0,0)" stroke-width="1.5"/>
<polygon points=" 1408,88 1422,88 1422,112 1408,112" fill="rgb(170,255,170)"/>
<text x="1410.0" y="105.0" font-family="courier" font-size="16" fill="rgb(0,0,0)">z</text>
<line x1="1430.0" y1="60.0" x2="1445.0" y2="100.0" stroke="rgb(255,0,0)" stroke-width="1.5"/>
<line x1="1445.0" y1="100.0" x2="1445.0" y2="140.0" stroke="rgb(255,0,0)" stroke-width="1.5"/>
<polygon points=" 1438,128 1452,128 1452,152 1438,152" fill="rgb(170,255,170)"/>
<text x="1440.0" y="145.0" font-family="courier" font-size="16" fill="rgb(0,0,0)">z</text>
<polygon points=" 1428,88 1462,88 1462,112 1428,112" fill="rgb(170,255,170)"/>
<text x="1430.0" y="105.0" font-family="courier" font-size="16" fill="rgb(0,0,0)">not</text>
<polygon points=" 1418,48 1442,48 1442,72 1418,72" fill="rgb(170,255,170)"/>
<text x="1420.0" y="65.0" font-family="courier" font-size="16" fill="rgb(0,0,0)">&#92;/</text>
<polygon points=" 736,8 760,8 760,32 736,32" fill="rgb(170,255,170)"/>
<text x="737.5" y="25.0" font-family="courier" font-size="16" fill="rgb(0,0,0)">/&#92;</text></svg>