<svg xmlns="http://www.w3.org/2000/svg"
xmlns:xlink="http://www.w3.org/1999/xlink"
version="1.1" baseProfile="full"
width="1475" height="160">
<line x1="746.25" y1="20.0" x2="67.5" y2="60.0" stroke="rgb(255,0,0)" stroke-width="1.5"/>
<line x1="67.5" y1="60.0" x2="45.0" y2="100.0" stroke="rgb(255,0,0)" stroke-width="1.5"/>
<line x1="45.0" y1="100.0" x2="25.0" y2="140.0" stroke="rgb(255,0,0)" stroke-width="1.5"/>
<polygon points=" 18,128 32,128 32,152 18,152" fill="rgb(170,255,170)"/>
<text x="20.0" y="145.0" font-family="courier" font-size="16" fill="rgb(0,0,0)">x</text>
<line x1="45.0" y1="100.0" x2="45.0" y2="140.0" stroke="rgb(255,0,0)" stroke-width="1.5"/>
<polygon points=" 38,128 52,128 52,152 38,152" fill="rgb(170,255,170)"/>
<text x="40.0" y="145.0" font-family="courier" font-size="16" fill="rgb(0,0,0)">y</text>
<line x1="45.0" y1="100.0" x2="65.0" y2="140.0" stroke="rgb(255,0,0)" stroke-width="1.5"/>
<polygon points=" 58,128 72,128 72,152 58,152" fill="rgb(170,255,170)"/>
<text x="60.0" y="145.0" font-family="courier" font-size="16" fill="rgb(0,0,0)">z</text>
<polygon points=" 33,88 57,88 57,112 33,112" fill="rgb(170,255,170)"/>
<text x="35.0" y="105.0" font-family="courier" font-size="16" fill="rgb(0,0,0)">/&#92;</text>
<line x1="67.5" y1="60.0" x2="90.0" y2="100.0" stroke="rgb(255,0,0)" stroke-width="1.5"/>
<polygon points=" 63,88 117,88 117,112 63,112" fill="rgb(170,255,170)"/>
<text x="65.0" y="105.0" font-family="courier" font-size="16" fill="rgb(0,0,0)">false</text>
<polygon points=" 50,48 84,48 84,72 50,72" fill="rgb(170,255,170)"/>
<text x="52.5" y="65.0" font-family="courier" font-size="16" fill="rgb(0,0,0)">==&gt;</text>
<line x1="746.25" y1="20.0" x2="165.0" y2="60.0" stroke="rgb(255,0,0)" stroke-width="1.5"/>
<line x1="165.0" y1="60.0" x2="140.0" y2="100.0" stroke="rgb(255,0,0)" stroke-width="1.5"/>
<line x1="140.0" y1="100.0" x2="140.0" y2="140.0" stroke="rgb(255,0,0)" stroke-width="1.5"/>
<polygon points=" 133,128 147,128 147,152 133,152" fill="rgb(255,255,170)"/>
<text x="135.0" y="145.0" font-family="courier" font-size="16" fill="rgb(0,0,0)">x</text>
<polygon points=" 123,88 157,88 157,112 123,112" fill="rgb(255,255,170)"/>
<text x="125.0" y="105.0" font-family="courier" font-size="16" fill="rgb(0,0,0)">not</text>
<line x1="165.0" y1="60.0" x2="170.0" y2="100.0" stroke="rgb(255,0,0)" stroke-width="1.5"/>
<polygon points=" 163,88 177,88 177,112 163,112" fill="rgb(255,255,170)"/>
<text x="165.0" y="105.0" font-family="courier" font-size="16" fill="rgb(0,0,0)">z</text>
<line x1="165.0" y1="60.0" x2="190.0" y2="100.0" stroke="rgb(255,0,0)" stroke-width="1.5"/>
<polygon points=" 183,88 197,88 197,112 183,112" fill="rgb(255,255,170)"/>
<text x="185.0" y="105.0" font-family="courier" font-size="16" fill="rgb(0,0,0)">x</text>
<polygon points=" 153,48 177,48 177,72 153,72" fill="rgb(255,255,170)"/>
<text x="155.0" y="65.0" font-family="courier" font-size="16" fill="rgb(0,0,0)">&#92;/</text>
<line x1="746.25" y1="20.0" x2="245.0" y2="60.0" stroke="rgb(255,0,0)" stroke-width="1.5"/>
<line x1="245.0" y1="60.0" x2="220.0" y2="100.0" stroke="rgb(255,0,0)" stroke-width="1.5"/>
<line x1="220.0" y1="100.0" x2="220.0" y2="140.0" stroke="rgb(255,0,0)" stroke-width="1.5"/>
<polygon points=" 213,128 227,128 227,152 213,152" fill="rgb(255,255,170)"/>
<text x="215.0" y="145.0" font-family="courier" font-size="16" fill="rgb(0,0,0)">x</text>
<polygon points=" 203,88 237,88 237,112 203,112" fill="rgb(255,255,170)"/>
<text x="205.0" y="105.0" font-family="courier" font-size="16" fill="rgb(0,0,0)">not</text>
<line x1="245.0" y1="60.0" x2="250.0" y2="100.0" stroke="rgb(255,0,0)" stroke-width="1.5"/>
<polygon points=" 243,88 257,88 257,112 243,112" fill="rgb(255,255,170)"/>
<text x="245.0" y="105.0" font-family="courier" font-size="16" fill="rgb(0,0,0)">z</text>
<line x1="245.0" y1="60.0" x2="270.0" y2="100.0" stroke="rgb(255,0,0)" stroke-width="1.5"/>
<polygon points=" 263,88 277,88 277,112 263,112" fill="rgb(255,255,170)"/>
<text x="265.0" y="105.0" font-family="courier" font-size="16" fill="rgb(0,0,0)">y</text>
<polygon points=" 233,48 257,48 257,72 233,72" fill="rgb(255,255,170)"/>
<text x="235.0" y="65.0" font-family="courier" font-size="16" fill="rgb(0,0,0)">&#92;/</text>
<line x1="746.25" y1="20.0" x2="330.0" y2="60.0" stroke="rgb(255,0,0)" stroke-width="1.5"/>
<line x1="330.0" y1="60.0" x2="300.0" y2="100.0" stroke="rgb(255,0,0)" stroke-width="1.5"/>
<line x1="300.0" y1="100.0" x2="300.0" y2="140.0" stroke="rgb(255,0,0)" stroke-width="1.5"/>
<polygon points=" 293,128 307,128 307,152 293,152" fill="rgb(255,255,170)"/>
<text x="295.0" y="145.0" font-family="courier" font-size="16" fill="rgb(0,0,0)">x</text>
<polygon points=" 283,88 317,88 317,112 283,112" fill="rgb(255,255,170)"/>
<text x="285.0" y="105.0" font-family="courier" font-size="16" fill="rgb(0,0,0)">not</text>
<line x1="330.0" y1="60.0" x2="330.0" y2="100.0" stroke="rgb(255,0,0)" stroke-width="1.5"/>
<polygon points=" 323,88 337,88 337,112 323,112" fill="rgb(255,255,170)"/>
<text x="325.0" y="105.0" font-family="courier" font-size="16" fill="rgb(0,0,0)">z</text>
<line x1="330.0" y1="60.0" x2="360.0" y2="100.0" stroke="rgb(255,0,0)" stroke-width="1.5"/>
<line x1="360.0" y1="100.0" x2="360.0" y2="140.0" stroke="rgb(255,0,0)" stroke-width="1.5"/>
<polygon points=" 353,128 367,128 367,152 353,152" fill="rgb(255,255,170)"/>
<text x="355.0" y="145.0" font-family="courier" font-size="16" fill="rgb(0,0,0)">z</text>
<polygon points=" 343,88 377,88 377,112 343,112" fill="rgb(255,255,170)"/>
<text x="345.0" y="105.0" font-family="courier" font-size="16" fill="rgb(0,0,0)">not</text>
<polygon points=" 318,48 342,48 342,72 318,72" fill="rgb(255,255,170)"/>
<text x="320.0" y="65.0" font-family="courier" font-size="16" fill="rgb(0,0,0)">&#92;/</text>
<line x1="746.25" y1="20.0" x2="400.0" y2="60.0" stroke="rgb(255,0,0)" stroke-width="1.5"/>
<line x1="400.0" y1="60.0" x2="390.0" y2="100.0" stroke="rgb(255,0,0)" stroke-width="1.5"/>
<polygon points=" 383,88 397,88 397,112 383,112" fill="rgb(255,255,170)"/>
<text x="385.0" y="105.0" font-family="courier" font-size="16" fill="rgb(0,0,0)">y</text>
<line x1="400.0" y1="60.0" x2="410.0" y2="100.0" stroke="rgb(255,0,0)" stroke-width="1.5"/>
<polygon points=" 403,88 417,88 417,112 403,112" fill="rgb(255,255,170)"/>
<text x="405.0" y="105.0" font-family="courier" font-size="16" fill="rgb(0,0,0)">x</text>
<polygon points=" 388,48 412,48 412,72 388,72" fill="rgb(255,255,170)"/>
<text x="390.0" y="65.0" font-family="courier" font-size="16" fill="rgb(0,0,0)">&#92;/</text>
<line x1="746.25" y1="20.0" x2="455.0" y2="60.0" stroke="rgb(255,0,0)" stroke-width="1.5"/>
<line x1="455.0" y1="60.0" x2="430.0" y2="100.0" stroke="rgb(255,0,0)" stroke-width="1.5"/>
<polygon points=" 423,88 437,88 437,112 423,112" fill="rgb(255,255,170)"/>
<text x="425.0" y="105.0" font-family="courier" font-size="16" fill="rgb(0,0,0)">y</text>
<line x1="455.0" y1="60.0" x2="450.0" y2="100.0" stroke="rgb(255,0,0)" stroke-width="1.5"/>
<polygon points=" 443,88 457,88 457,112 443,112" fill="rgb(255,255,170)"/>
<text x="445.0" y="105.0" font-family="courier" font-size="16" fill="rgb(0,0,0)">x</text>
<line x1="455.0" y1="60.0" x2="480.0" y2="100.0" stroke="rgb(255,0,0)" stroke-width="1.5"/>
<line x1="480.0" y1="100.0" x2="480.0" y2="140.0" stroke="rgb(255,0,0)" stroke-width="1.5"/>
<polygon points=" 473,128 487,128 487,152 473,152" fill="rgb(255,255,170)"/>
<text x="475.0" y="145.0" font-family="courier" font-size="16" fill="rgb(0,0,0)">z</text>
<polygon points=" 463,88 497,88 497,112 463,112" fill="rgb(255,255,170)"/>
<text x="465.0" y="105.0" font-family="courier" font-size="16" fill="rgb(0,0,0)">not</text>
<polygon points=" 443,48 467,48 467,72 443,72" fill="rgb(255,255,170)"/>
<text x="445.0" y="65.0" font-family="courier" font-size="16" fill="rgb(0,0,0)">&#92;/</text>
<line x1="746.25" y1="20.0" x2="540.0" y2="60.0" stroke="rgb(255,0,0)" stroke-width="1.5"/>
<line x1="540.0" y1="60.0" x2="510.0" y2="100.0" stroke="rgb(255,0,0)" stroke-width="1.5"/>
<polygon points=" 503,88 517,88 517,112 503,112" fill="rgb(255,255,170)"/>
<text x="505.0" y="105.0" font-family="courier" font-size="16" fill="rgb(0,0,0)">y</text>
<line x1="540.0" y1="60.0" x2="540.0" y2="100.0" stroke="rgb(255,0,0)" stroke-width="1.5"/>
<line x1="540.0" y1="100.0" x2="540.0" y2="140.0" stroke="rgb(255,0,0)" stroke-width="1.5"/>
<polygon points=" 533,128 547,128 547,152 533,152" fill="rgb(255,255,170)"/>
<text x="535.0" y="145.0" font-family="courier" font-size="16" fill="rgb(0,0,0)">y</text>
<polygon points=" 523,88 557,88 557,112 523,112" fill="rgb(255,255,170)"/>
<text x="525.0" y="105.0" font-family="courier" font-size="16" fill="rgb(0,0,0)">not</text>
<line x1="540.0" y1="60.0" x2="570.0" y2="100.0" stroke="rgb(255,0,0)" stroke-width="1.5"/>
<polygon points=" 563,88 577,88 577,112 563,112" fill="rgb(255,255,170)"/>
<text x="565.0" y="105.0" font-family="courier" font-size="16" fill="rgb(0,0,0)">x</text>
<polygon points=" 528,48 552,48 552,72 528,72" fill="rgb(255,255,170)"/>
<text x="530.0" y="65.0" font-family="courier" font-size="16" fill="rgb(0,0,0)">&#92;/</text>
<line x1="746.25" y1="20.0" x2="605.0" y2="60.0" stroke="rgb(255,0,0)" stroke-width="1.5"/>
<line x1="605.0" y1="60.0" x2="590.0" y2="100.0" stroke="rgb(255,0,0)" stroke-width="1.5"/>
<polygon points=" 583,88 597,88 597,112 583,112" fill="rgb(255,255,170)"/>
<text x="585.0" y="105.0" font-family="courier" font-size="16" fill="rgb(0,0,0)">y</text>
<line x1="605.0" y1="60.0" x2="620.0" y2="100.0" stroke="rgb(255,0,0)" stroke-width="1.5"/>
<line x1="620.0" y1="100.0" x2="620.0" y2="140.0" stroke="rgb(255,0,0)" stroke-width="1.5"/>
<polygon points=" 613,128 627,128 627,152 613,152" fill="rgb(255,255,170)"/>
<text x="615.0" y="145.0" font-family="courier" font-size="16" fill="rgb(0,0,0)">y</text>
<polygon points=" 603,88 637,88 637,112 603,112" fill="rgb(255,255,170)"/>
<text x="605.0" y="105.0" font-family="courier" font-size="16" fill="rgb(0,0,0)">not</text>
<polygon points=" 593,48 617,48 617,72 593,72" fill="rgb(255,255,170)"/>
<text x="595.0" y="65.0" font-family="courier" font-size="16" fill="rgb(0,0,0)">&#92;/</text>
<line x1="746.25" y1="20.0" x2="685.0" y2="60.0" stroke="rgb(255,0,0)" stroke-width="1.5"/>
<line x1="685.0" y1="60.0" x2="650.0" y2="100.0" stroke="rgb(255,0,0)" stroke-width="1.5"/>
<polygon points=" 643,88 657,88 657,112 643,112" fill="rgb(255,255,170)"/>
<text x="645.0" y="105.0" font-family="courier" font-size="16" fill="rgb(0,0,0)">y</text>
<line x1="685.0" y1="60.0" x2="680.0" y2="100.0" stroke="rgb(255,0,0)" stroke-width="1.5"/>
<line x1="680.0" y1="100.0" x2="680.0" y2="140.0" stroke="rgb(255,0,0)" stroke-width="1.5"/>
<polygon points=" 673,128 687,128 687,152 673,152" fill="rgb(255,255,170)"/>
<text x="675.0" y="145.0" font-family="courier" font-size="16" fill="rgb(0,0,0)">y</text>
<polygon points=" 663,88 697,88 697,112 663,112" fill="rgb(255,255,170)"/>
<text x="665.0" y="105.0" font-family="courier" font-size="16" fill="rgb(0,0,0)">not</text>
<line x1="685.0" y1="60.0" x2="720.0" y2="100.0" stroke="rgb(255,0,0)" stroke-width="1.5"/>
<line x1="720.0" y1="100.0" x2="720.0" y2="140.0" stroke="rgb(255,0,0)" stroke-width="1.5"/>
<polygon points=" 713,128 727,128 727,152 713,152" fill="rgb(255,255,170)"/>
<text x="715.0" y="145.0" font-family="courier" font-size="16" fill="rgb(0,0,0)">z</text>
<polygon points=" 703,88 737,88 737,112 703,112" fill="rgb(255,255,170)"/>
<text x="705.0" y="105.0" font-family="courier" font-size="16" fill="rgb(0,0,0)">not</text>
<polygon points=" 673,48 697,48 697,72 673,72" fill="rgb(255,255,170)"/>
<text x="675.0" y="65.0" font-family="courier" font-size="16" fill="rgb(0,0,0)">&#92;/</text>
<line x1="746.25" y1="20.0" x2="770.0" y2="60.0" stroke="rgb(255,0,0)" stroke-width="1.5"/>
<line x1="770.0" y1="60.0" x2="750.0" y2="100.0" stroke="rgb(255,0,0)" stroke-width="1.5"/>
<polygon points=" 743,88 757,88 757,112 743,112" fill="rgb(255,255,170)"/>
<text x="745.0" y="105.0" font-family="courier" font-size="16" fill="rgb(0,0,0)">y</text>
<line x1="770.0" y1="60.0" x2="770.0" y2="100.0" stroke="rgb(255,0,0)" stroke-width="1.5"/>
<polygon points=" 763,88 777,88 777,112 763,112" fill="rgb(255,255,170)"/>
<text x="765.0" y="105.0" font-family="courier" font-size="16" fill="rgb(0,0,0)">z</text>
<line x1="770.0" y1="60.0" x2="790.0" y2="100.0" stroke="rgb(255,0,0)" stroke-width="1.5"/>
<polygon points=" 783,88 797,88 797,112 783,112" fill="rgb(255,255,170)"/>
<text x="785.0" y="105.0" font-family="courier" font-size="16" fill="rgb(0,0,0)">x</text>
<polygon points=" 758,48 782,48 782,72 758,72" fill="rgb(255,255,170)"/>
<text x="760.0" y="65.0" font-family="courier" font-size="16" fill="rgb(0,0,0)">&#92;/</text>
<line x1="746.25" y1="20.0" x2="820.0" y2="60.0" stroke="rgb(255,0,0)" stroke-width="1.5"/>
<line x1="820.0" y1="60.0" x2="810.0" y2="100.0" stroke="rgb(255,0,0)" stroke-width="1.5"/>
<polygon points=" 803,88 817,88 817,112 803,112" fill="rgb(255,255,170)"/>
<text x="805.0" y="105.0" font-family="courier" font-size="16" fill="rgb(0,0,0)">y</text>
<line x1="820.0" y1="60.0" x2="830.0" y2="100.0" stroke="rgb(255,0,0)" stroke-width="1.5"/>
<polygon points=" 823,88 837,88 837,112 823,112" fill="rgb(255,255,170)"/>
<text x="825.0" y="105.0" font-family="courier" font-size="16" fill="rgb(0,0,0)">z</text>
<polygon points=" 808,48 832,48 832,72 808,72" fill="rgb(255,255,170)"/>
<text x="810.0" y="65.0" font-family="courier" font-size="16" fill="rgb(0,0,0)">&#92;/</text>
<line x1="746.25" y1="20.0" x2="875.0" y2="60.0" stroke="rgb(255,0,0)" stroke-width="1.5"/>
<line x1="875.0" y1="60.0" x2="850.0" y2="100.0" stroke="rgb(255,0,0)" stroke-width="1.5"/>
<polygon points=" 843,88 857,88 857,112 843,112" fill="rgb(255,255,170)"/>
<text x="845.0" y="105.0" font-family="courier" font-size="16" fill="rgb(0,0,0)">y</text>
<line x1="875.0" y1="60.0" x2="870.0" y2="100.0" stroke="rgb(255,0,0)" stroke-width="1.5"/>
<polygon points=" 863,88 877,88 877,112 863,112" fill="rgb(255,255,170)"/>
<text x="865.0" y="105.0" font-family="courier" font-size="16" fill="rgb(0,0,0)">z</text>
<line x1="875.0" y1="60.0" x2="900.0" y2="100.0" stroke="rgb(255,0,0)" stroke-width="1.5"/>
<line x1="900.0" y1="100.0" x2="900.0" y2="140.0" stroke="rgb(255,0,0)" stroke-width="1.5"/>
<polygon points=" 893,128 907,128 907,152 893,152" fill="rgb(255,255,170)"/>
<text x="895.0" y="145.0" font-family="courier" font-size="16" fill="rgb(0,0,0)">z</text>
<polygon points=" 883,88 917,88 917,112 883,112" fill="rgb(255,255,170)"/>
<text x="885.0" y="105.0" font-family="courier" font-size="16" fill="rgb(0,0,0)">not</text>
<polygon points=" 863,48 887,48 887,72 863,72" fill="rgb(255,255,170)"/>
<text x="865.0" y="65.0" font-family="courier" font-size="16" fill="rgb(0,0,0)">&#92;/</text>
<line x1="746.25" y1="20.0" x2="940.0" y2="60.0" stroke="rgb(255,0,0)" stroke-width="1.5"/>
<line x1="940.0" y1="60.0" x2="930.0" y2="100.0" stroke="rgb(255,0,0)" stroke-width="1.5"/>
<polygon points=" 923,88 937,88 937,112 923,112" fill="rgb(255,255,170)"/>
<text x="925.0" y="105.0" font-family="courier" font-size="16" fill="rgb(0,0,0)">z</text>
<line x1="940.0" y1="60.0" x2="950.0" y2="100.0" stroke="rgb(255,0,0)" stroke-width="1.5"/>
<polygon points=" 943,88 957,88 957,112 943,112" fill="rgb(255,255,170)"/>
<text x="945.0" y="105.0" font-family="courier" font-size="16" fill="rgb(0,0,0)">x</text>
<polygon points=" 928,48 952,48 952,72 928,72" fill="rgb(255,255,170)"/>
<text x="930.0" y="65.0" font-family="courier" font-size="16" fill="rgb(0,0,0)">&#92;/</text>
<line x1="746.25" y1="20.0" x2="990.0" y2="60.0" stroke="rgb(255,0,0)" stroke-width="1.5"/>
<line x1="990.0" y1="60.0" x2="970.0" y2="100.0" stroke="rgb(255,0,0)" stroke-width="1.5"/>
<polygon points=" 963,88 977,88 977,112 963,112" fill="rgb(255,255,170)"/>
<text x="965.0" y="105.0" font-family="courier" font-size="16" fill="rgb(0,0,0)">z</text>
<line x1="990.0" y1="60.0" x2="990.0" y2="100.0" stroke="rgb(255,0,0)" stroke-width="1.5"/>
<polygon points=" 983,88 997,88 997,112 983,112" fill="rgb(255,255,170)"/>
<text x="985.0" y="105.0" font-family="courier" font-size="16" fill="rgb(0,0,0)">x</text>
<line x1="990.0" y1="60.0" x2="1010.0" y2="100.0" stroke="rgb(255,0,0)" stroke-width="1.5"/>
<polygon points=" 1003,88 1017,88 1017,112 1003,112" fill="rgb(255,255,170)"/>
<text x="1005.0" y="105.0" font-family="courier" font-size="16" fill="rgb(0,0,0)">y</text>
<polygon points=" 978,48 1002,48 1002,72 978,72" fill="rgb(255,255,170)"/>
<text x="980.0" y="65.0" font-family="courier" font-size="16" fill="rgb(0,0,0)">&#92;/</text>
<line x1="746.25" y1="20.0" x2="1055.0" y2="60.0" stroke="rgb(255,0,0)" stroke-width="1.5"/>
<line x1="1055.0" y1="60.0" x2="1030.0" y2="100.0" stroke="rgb(255,0,0)" stroke-width="1.5"/>
<polygon points=" 1023,88 1037,88 1037,112 1023,112" fill="rgb(255,255,170)"/>
<text x="1025.0" y="105.0" font-family="courier" font-size="16" fill="rgb(0,0,0)">z</text>
<line x1="1055.0" y1="60.0" x2="1050.0" y2="100.0" stroke="rgb(255,0,0)" stroke-width="1.5"/>
<polygon points=" 1043,88 1057,88 1057,112 1043,112" fill="rgb(255,255,170)"/>
<text x="1045.0" y="105.0" font-family="courier" font-size="16" fill="rgb(0,0,0)">x</text>
<line x1="1055.0" y1="60.0" x2="1080.0" y2="100.0" stroke="rgb(255,0,0)" stroke-width="1.5"/>
<line x1="1080.0" y1="100.0" x2="1080.0" y2="140.0" stroke="rgb(255,0,0)" stroke-width="1.5"/>
<polygon points=" 1073,128 1087,128 1087,152 1073,152" fill="rgb(255,255,170)"/>
<text x="1075.0" y="145.0" font-family="courier" font-size="16" fill="rgb(0,0,0)">z</text>
<polygon points=" 1063,88 1097,88 1097,112 1063,112" fill="rgb(255,255,170)"/>
<text x="1065.0" y="105.0" font-family="courier" font-size="16" fill="rgb(0,0,0)">not</text>
<polygon points=" 1043,48 1067,48 1067,72 1043,72" fill="rgb(255,255,170)"/>
<text x="1045.0" y="65.0" font-family="courier" font-size="16" fill="rgb(0,0,0)">&#92;/</text>
<line x1="746.25" y1="20.0" x2="1140.0" y2="60.0" stroke="rgb(255,0,0)" stroke-width="1.5"/>
<line x1="1140.0" y1="60.0" x2="1110.0" y2="100.0" stroke="rgb(255,0,0)" stroke-width="1.5"/>
<polygon points=" 1103,88 1117,88 1117,112 1103,112" fill="rgb(255,255,170)"/>
<text x="1105.0" y="105.0" font-family="courier" font-size="16" fill="rgb(0,0,0)">z</text>
<line x1="1140.0" y1="60.0" x2="1140.0" y2="100.0" stroke="rgb(255,0,0)" stroke-width="1.5"/>
<line x1="1140.0" y1="100.0" x2="1140.0" y2="140.0" stroke="rgb(255,0,0)" stroke-width="1.5"/>
<polygon points=" 1133,128 1147,128 1147,152 1133,152" fill="rgb(255,255,170)"/>
<text x="1135.0" y="145.0" font-family="courier" font-size="16" fill="rgb(0,0,0)">y</text>
<polygon points=" 1123,88 1157,88 1157,112 1123,112" fill="rgb(255,255,170)"/>
<text x="1125.0" y="105.0" font-family="courier" font-size="16" fill="rgb(0,0,0)">not</text>
<line x1="1140.0" y1="60.0" x2="1170.0" y2="100.0" stroke="rgb(255,0,0)" stroke-width="1.5"/>
<polygon points=" 1163,88 1177,88 1177,112 1163,112" fill="rgb(255,255,170)"/>
<text x="1165.0" y="105.0" font-family="courier" font-size="16" fill="rgb(0,0,0)">x</text>
<polygon points=" 1128,48 1152,48 1152,72 1128,72" fill="rgb(255,255,170)"/>
<text x="1130.0" y="65.0" font-family="courier" font-size="16" fill="rgb(0,0,0)">&#92;/</text>
<line x1="746.25" y1="20.0" x2="1220.0" y2="60.0" stroke="rgb(255,0,0)" stroke-width="1.5"/>
<line x1="1220.0" y1="60.0" x2="1190.0" y2="100.0" stroke="rgb(255,0,0)" stroke-width="1.5"/>
<polygon points=" 1183,88 1197,88 1197,112 1183,112" fill="rgb(255,255,170)"/>
<text x="1185.0" y="105.0" font-family="courier" font-size="16" fill="rgb(0,0,0)">z</text>
<line x1="1220.0" y1="60.0" x2="1220.0" y2="100.0" stroke="rgb(255,0,0)" stroke-width="1.5"/>
<line x1="1220.0" y1="100.0" x2="1220.0" y2="140.0" stroke="rgb(255,0,0)" stroke-width="1.5"/>
<polygon points=" 1213,128 1227,128 1227,152 1213,152" fill="rgb(255,255,170)"/>
<text x="1215.0" y="145.0" font-family="courier" font-size="16" fill="rgb(0,0,0)">y</text>
<polygon points=" 1203,88 1237,88 1237,112 1203,112" fill="rgb(255,255,170)"/>
<text x="1205.0" y="105.0" font-family="courier" font-size="16" fill="rgb(0,0,0)">not</text>
<line x1="1220.0" y1="60.0" x2="1250.0" y2="100.0" stroke="rgb(255,0,0)" stroke-width="1.5"/>
<polygon points=" 1243,88 1257,88 1257,112 1243,112" fill="rgb(255,255,170)"/>
<text x="1245.0" y="105.0" font-family="courier" font-size="16" fill="rgb(0,0,0)">y</text>
<polygon points=" 1208,48 1232,48 1232,72 1208,72" fill="rgb(255,255,170)"/>
<text x="1210.0" y="65.0" font-family="courier" font-size="16" fill="rgb(0,0,0)">&#92;/</text>
<line x1="746.25" y1="20.0" x2="1305.0" y2="60.0" stroke="rgb(255,0,0)" stroke-width="1.5"/>
<line x1="1305.0" y1="60.0" x2="1270.0" y2="100.0" stroke="rgb(255,0,0)" stroke-width="1.5"/>
<polygon points=" 1263,88 1277,88 1277,112 1263,112" fill="rgb(255,255,170)"/>
<text x="1265.0" y="105.0" font-family="courier" font-size="16" fill="rgb(0,0,0)">z</text>
<line x1="1305.0" y1="60.0" x2="1300.0" y2="100.0" stroke="rgb(255,0,0)" stroke-width="1.5"/>
<line x1="1300.0" y1="100.0" x2="1300.0" y2="140.0" stroke="rgb(255,0,0)" stroke-width="1.5"/>
<polygon points=" 1293,128 1307,128 1307,152 1293,152" fill="rgb(255,255,170)"/>
<text x="1295.0" y="145.0" font-family="courier" font-size="16" fill="rgb(0,0,0)">y</text>
<polygon points=" 1283,88 1317,88 1317,112 1283,112" fill="rgb(255,255,170)"/>
<text x="1285.0" y="105.0" font-family="courier" font-size="16" fill="rgb(0,0,0)">not</text>
<line x1="1305.0" y1="60.0" x2="1340.0" y2="100.0" stroke="rgb(255,0,0)" stroke-width="1.5"/>
<line x1="1340.0" y1="100.0" x2="1340.0" y2="140.0" stroke="rgb(255,0,0)" stroke-width="1.5"/>
<polygon points=" 1333,128 1347,128 1347,152 1333,152" fill="rgb(255,255,170)"/>
<text x="1335.0" y="145.0" font-family="courier" font-size="16" fill="rgb(0,0,0)">z</text>
<polygon points=" 1323,88 1357,88 1357,112 1323,112" fill="rgb(255,255,170)"/>
<text x="1325.0" y="105.0" font-family="courier" font-size="16" fill="rgb(0,0,0)">not</text>
<polygon points=" 1293,48 1317,48 1317,72 1293,72" fill="rgb(255,255,170)"/>
<text x="1295.0" y="65.0" font-family="courier" font-size="16" fill="rgb(0,0,0)">&#92;/</text>
<line x1="746.25" y1="20.0" x2="1380.0" y2="60.0" stroke="rgb(255,0,0)" stroke-width="1.5"/>
<line x1="1380.0" y1="60.0" x2="1370.0" y2="100.0" stroke="rgb(255,0,0)" stroke-width="1.5"/>
<polygon points=" 1363,88 1377,88 1377,112 1363,112" fill="rgb(255,255,170)"/>
<text x="1365.0" y="105.0" font-family="courier" font-size="16" fill="rgb(0,0,0)">z</text>
<line x1="1380.0" y1="60.0" x2="1390.0" y2="100.0" stroke="rgb(255,0,0)" stroke-width="1.5"/>
<polygon points=" 1383,88 1397,88 1397,112 1383,112" fill="rgb(255,255,170)"/>
<text x="1385.0" y="105.0" font-family="courier" font-size="16" fill="rgb(0,0,0)">y</text>
<polygon points=" 1368,48 1392,48 1392,72 1368,72" fill="rgb(255,255,170)"/>
<text x="1370.0" y="65.0" font-family="courier" font-size="16" fill="rgb(0,0,0)">&#92;/</text>
<line x1="746.25" y1="20.0" x2="1425.0" y2="60.0" stroke="rgb(255,0,0)" stroke-width="1.5"/>
<line x1="1425.0" y1="60.0" x2="1410.0" y2="100.0" stroke="rgb(255,0,0)" stroke-width="1.5"/>
<polygon points=" 1403,88 1417,88 1417,112 1403,112" fill="rgb(255,255,170)"/>
<text x="1405.0" y="105.0" font-family="courier" font-size="16" fill="rgb(0,0,0)">z</text>
<line x1="1425.0" y1="60.0" x2="1440.0" y2="100.0" stroke="rgb(255,0,0)" stroke-width="1.5"/>
<line x1="1440.0" y1="100.0" x2="1440.0" y2="140.0" stroke="rgb(255,0,0)" stroke-width="1.5"/>
<polygon points=" 1433,128 1447,128 1447,152 1433,152" fill="rgb(255,255,170)"/>
<text x="1435.0" y="145.0" font-family="courier" font-size="16" fill="rgb(0,0,0)">z</text>
<polygon points=" 1423,88 1457,88 1457,112 1423,112" fill="rgb(255,255,170)"/>
<text x="1425.0" y="105.0" font-family="courier" font-size="16" fill="rgb(0,0,0)">not</text>
<polygon points=" 1413,48 1437,48 1437,72 1413,72" fill="rgb(255,255,170)"/>
<text x="1415.0" y="65.0" font-family="courier" font-size="16" fill="rgb(0,0,0)">&#92;/</text>
<polygon points=" 734,8 758,8 758,32 734,32" fill="rgb(255,255,170)"/>
<text x="736.25" y="25.0" font-family="courier" font-size="16" fill="rgb(0,0,0)">/&#92;</text></svg>