<svg xmlns="http://www.w3.org/2000/svg"
xmlns:xlink="http://www.w3.org/1999/xlink"
version="1.1" baseProfile="full"
width="1370" height="160">
<line x1="693.75" y1="20.0" x2="67.5" y2="60.0" stroke="rgb(255,0,0)" stroke-width="1.5"/>
<line x1="67.5" y1="60.0" x2="45.0" y2="100.0" stroke="rgb(255,0,0)" stroke-width="1.5"/>
<line x1="45.0" y1="100.0" x2="25.0" y2="140.0" stroke="rgb(255,0,0)" stroke-width="1.5"/>
<polygon points=" 18,128 32,128 32,152 18,152" fill="rgb(255,255,170)"/>
<text x="20.0" y="145.0" font-family="courier" font-size="16" fill="rgb(0,0,0)">x</text>
<line x1="45.0" y1="100.0" x2="45.0" y2="140.0" stroke="rgb(255,0,0)" stroke-width="1.5"/>
<polygon points=" 38,128 52,128 52,152 38,152" fill="rgb(255,255,170)"/>
<text x="40.0" y="145.0" font-family="courier" font-size="16" fill="rgb(0,0,0)">y</text>
<line x1="45.0" y1="100.0" x2="65.0" y2="140.0" stroke="rgb(255,0,0)" stroke-width="1.5"/>
<polygon points=" 58,128 72,128 72,152 58,152" fill="rgb(255,255,170)"/>
<text x="60.0" y="145.0" font-family="courier" font-size="16" fill="rgb(0,0,0)">z</text>
<polygon points=" 33,88 57,88 57,112 33,112" fill="rgb(255,255,170)"/>
<text x="35.0" y="105.0" font-family="courier" font-size="16" fill="rgb(0,0,0)">/&#92;</text>
<line x1="67.5" y1="60.0" x2="90.0" y2="100.0" stroke="rgb(255,0,0)" stroke-width="1.5"/>
<polygon points=" 63,88 117,88 117,112 63,112" fill="rgb(255,255,170)"/>
<text x="65.0" y="105.0" font-family="courier" font-size="16" fill="rgb(0,0,0)">false</text>
<polygon points=" 50,48 84,48 84,72 50,72" fill="rgb(255,255,170)"/>
<text x="52.5" y="65.0" font-family="courier" font-size="16" fill="rgb(0,0,0)">==&gt;</text>
<line x1="693.75" y1="20.0" x2="142.5" y2="60.0" stroke="rgb(255,0,0)" stroke-width="1.5"/>
<line x1="142.5" y1="60.0" x2="130.0" y2="100.0" stroke="rgb(255,0,0)" stroke-width="1.5"/>
<polygon points=" 123,88 137,88 137,112 123,112" fill="rgb(255,255,170)"/>
<text x="125.0" y="105.0" font-family="courier" font-size="16" fill="rgb(0,0,0)">x</text>
<line x1="142.5" y1="60.0" x2="155.0" y2="100.0" stroke="rgb(255,0,0)" stroke-width="1.5"/>
<line x1="155.0" y1="100.0" x2="145.0" y2="140.0" stroke="rgb(255,0,0)" stroke-width="1.5"/>
<polygon points=" 138,128 152,128 152,152 138,152" fill="rgb(255,255,170)"/>
<text x="140.0" y="145.0" font-family="courier" font-size="16" fill="rgb(0,0,0)">z</text>
<line x1="155.0" y1="100.0" x2="165.0" y2="140.0" stroke="rgb(255,0,0)" stroke-width="1.5"/>
<polygon points=" 158,128 172,128 172,152 158,152" fill="rgb(255,255,170)"/>
<text x="160.0" y="145.0" font-family="courier" font-size="16" fill="rgb(0,0,0)">y</text>
<polygon points=" 143,88 167,88 167,112 143,112" fill="rgb(255,255,170)"/>
<text x="145.0" y="105.0" font-family="courier" font-size="16" fill="rgb(0,0,0)">or</text>
<polygon points=" 126,48 160,48 160,72 126,72" fill="rgb(255,255,170)"/>
<text x="127.5" y="65.0" font-family="courier" font-size="16" fill="rgb(0,0,0)">==&gt;</text>
<line x1="693.75" y1="20.0" x2="225.0" y2="60.0" stroke="rgb(255,0,0)" stroke-width="1.5"/>
<line x1="225.0" y1="60.0" x2="195.0" y2="100.0" stroke="rgb(255,0,0)" stroke-width="1.5"/>
<line x1="195.0" y1="100.0" x2="195.0" y2="140.0" stroke="rgb(255,0,0)" stroke-width="1.5"/>
<polygon points=" 188,128 202,128 202,152 188,152" fill="rgb(255,170,170)"/>
<text x="190.0" y="145.0" font-family="courier" font-size="16" fill="rgb(0,0,0)">x</text>
<polygon points=" 178,88 212,88 212,112 178,112" fill="rgb(255,170,170)"/>
<text x="180.0" y="105.0" font-family="courier" font-size="16" fill="rgb(0,0,0)">not</text>
<line x1="225.0" y1="60.0" x2="225.0" y2="100.0" stroke="rgb(255,0,0)" stroke-width="1.5"/>
<polygon points=" 218,88 232,88 232,112 218,112" fill="rgb(255,170,170)"/>
<text x="220.0" y="105.0" font-family="courier" font-size="16" fill="rgb(0,0,0)">z</text>
<line x1="225.0" y1="60.0" x2="255.0" y2="100.0" stroke="rgb(255,0,0)" stroke-width="1.5"/>
<line x1="255.0" y1="100.0" x2="255.0" y2="140.0" stroke="rgb(255,0,0)" stroke-width="1.5"/>
<polygon points=" 248,128 262,128 262,152 248,152" fill="rgb(255,170,170)"/>
<text x="250.0" y="145.0" font-family="courier" font-size="16" fill="rgb(0,0,0)">z</text>
<polygon points=" 238,88 272,88 272,112 238,112" fill="rgb(255,170,170)"/>
<text x="240.0" y="105.0" font-family="courier" font-size="16" fill="rgb(0,0,0)">not</text>
<polygon points=" 213,48 237,48 237,72 213,72" fill="rgb(255,170,170)"/>
<text x="215.0" y="65.0" font-family="courier" font-size="16" fill="rgb(0,0,0)">&#92;/</text>
<line x1="693.75" y1="20.0" x2="295.0" y2="60.0" stroke="rgb(255,0,0)" stroke-width="1.5"/>
<line x1="295.0" y1="60.0" x2="285.0" y2="100.0" stroke="rgb(255,0,0)" stroke-width="1.5"/>
<polygon points=" 278,88 292,88 292,112 278,112" fill="rgb(255,255,170)"/>
<text x="280.0" y="105.0" font-family="courier" font-size="16" fill="rgb(0,0,0)">y</text>
<line x1="295.0" y1="60.0" x2="305.0" y2="100.0" stroke="rgb(255,0,0)" stroke-width="1.5"/>
<polygon points=" 298,88 312,88 312,112 298,112" fill="rgb(255,255,170)"/>
<text x="300.0" y="105.0" font-family="courier" font-size="16" fill="rgb(0,0,0)">x</text>
<polygon points=" 283,48 307,48 307,72 283,72" fill="rgb(255,255,170)"/>
<text x="285.0" y="65.0" font-family="courier" font-size="16" fill="rgb(0,0,0)">&#92;/</text>
<line x1="693.75" y1="20.0" x2="350.0" y2="60.0" stroke="rgb(255,0,0)" stroke-width="1.5"/>
<line x1="350.0" y1="60.0" x2="325.0" y2="100.0" stroke="rgb(255,0,0)" stroke-width="1.5"/>
<polygon points=" 318,88 332,88 332,112 318,112" fill="rgb(255,255,170)"/>
<text x="320.0" y="105.0" font-family="courier" font-size="16" fill="rgb(0,0,0)">y</text>
<line x1="350.0" y1="60.0" x2="345.0" y2="100.0" stroke="rgb(255,0,0)" stroke-width="1.5"/>
<polygon points=" 338,88 352,88 352,112 338,112" fill="rgb(255,255,170)"/>
<text x="340.0" y="105.0" font-family="courier" font-size="16" fill="rgb(0,0,0)">x</text>
<line x1="350.0" y1="60.0" x2="375.0" y2="100.0" stroke="rgb(255,0,0)" stroke-width="1.5"/>
<line x1="375.0" y1="100.0" x2="375.0" y2="140.0" stroke="rgb(255,0,0)" stroke-width="1.5"/>
<polygon points=" 368,128 382,128 382,152 368,152" fill="rgb(255,255,170)"/>
<text x="370.0" y="145.0" font-family="courier" font-size="16" fill="rgb(0,0,0)">z</text>
<polygon points=" 358,88 392,88 392,112 358,112" fill="rgb(255,255,170)"/>
<text x="360.0" y="105.0" font-family="courier" font-size="16" fill="rgb(0,0,0)">not</text>
<polygon points=" 338,48 362,48 362,72 338,72" fill="rgb(255,255,170)"/>
<text x="340.0" y="65.0" font-family="courier" font-size="16" fill="rgb(0,0,0)">&#92;/</text>
<line x1="693.75" y1="20.0" x2="435.0" y2="60.0" stroke="rgb(255,0,0)" stroke-width="1.5"/>
<line x1="435.0" y1="60.0" x2="405.0" y2="100.0" stroke="rgb(255,0,0)" stroke-width="1.5"/>
<polygon points=" 398,88 412,88 412,112 398,112" fill="rgb(255,255,170)"/>
<text x="400.0" y="105.0" font-family="courier" font-size="16" fill="rgb(0,0,0)">y</text>
<line x1="435.0" y1="60.0" x2="435.0" y2="100.0" stroke="rgb(255,0,0)" stroke-width="1.5"/>
<line x1="435.0" y1="100.0" x2="435.0" y2="140.0" stroke="rgb(255,0,0)" stroke-width="1.5"/>
<polygon points=" 428,128 442,128 442,152 428,152" fill="rgb(255,255,170)"/>
<text x="430.0" y="145.0" font-family="courier" font-size="16" fill="rgb(0,0,0)">y</text>
<polygon points=" 418,88 452,88 452,112 418,112" fill="rgb(255,255,170)"/>
<text x="420.0" y="105.0" font-family="courier" font-size="16" fill="rgb(0,0,0)">not</text>
<line x1="435.0" y1="60.0" x2="465.0" y2="100.0" stroke="rgb(255,0,0)" stroke-width="1.5"/>
<polygon points=" 458,88 472,88 472,112 458,112" fill="rgb(255,255,170)"/>
<text x="460.0" y="105.0" font-family="courier" font-size="16" fill="rgb(0,0,0)">x</text>
<polygon points=" 423,48 447,48 447,72 423,72" fill="rgb(255,255,170)"/>
<text x="425.0" y="65.0" font-family="courier" font-size="16" fill="rgb(0,0,0)">&#92;/</text>
<line x1="693.75" y1="20.0" x2="500.0" y2="60.0" stroke="rgb(255,0,0)" stroke-width="1.5"/>
<line x1="500.0" y1="60.0" x2="485.0" y2="100.0" stroke="rgb(255,0,0)" stroke-width="1.5"/>
<polygon points=" 478,88 492,88 492,112 478,112" fill="rgb(255,255,170)"/>
<text x="480.0" y="105.0" font-family="courier" font-size="16" fill="rgb(0,0,0)">y</text>
<line x1="500.0" y1="60.0" x2="515.0" y2="100.0" stroke="rgb(255,0,0)" stroke-width="1.5"/>
<line x1="515.0" y1="100.0" x2="515.0" y2="140.0" stroke="rgb(255,0,0)" stroke-width="1.5"/>
<polygon points=" 508,128 522,128 522,152 508,152" fill="rgb(255,255,170)"/>
<text x="510.0" y="145.0" font-family="courier" font-size="16" fill="rgb(0,0,0)">y</text>
<polygon points=" 498,88 532,88 532,112 498,112" fill="rgb(255,255,170)"/>
<text x="500.0" y="105.0" font-family="courier" font-size="16" fill="rgb(0,0,0)">not</text>
<polygon points=" 488,48 512,48 512,72 488,72" fill="rgb(255,255,170)"/>
<text x="490.0" y="65.0" font-family="courier" font-size="16" fill="rgb(0,0,0)">&#92;/</text>
<line x1="693.75" y1="20.0" x2="580.0" y2="60.0" stroke="rgb(255,0,0)" stroke-width="1.5"/>
<line x1="580.0" y1="60.0" x2="545.0" y2="100.0" stroke="rgb(255,0,0)" stroke-width="1.5"/>
<polygon points=" 538,88 552,88 552,112 538,112" fill="rgb(255,255,170)"/>
<text x="540.0" y="105.0" font-family="courier" font-size="16" fill="rgb(0,0,0)">y</text>
<line x1="580.0" y1="60.0" x2="575.0" y2="100.0" stroke="rgb(255,0,0)" stroke-width="1.5"/>
<line x1="575.0" y1="100.0" x2="575.0" y2="140.0" stroke="rgb(255,0,0)" stroke-width="1.5"/>
<polygon points=" 568,128 582,128 582,152 568,152" fill="rgb(255,255,170)"/>
<text x="570.0" y="145.0" font-family="courier" font-size="16" fill="rgb(0,0,0)">y</text>
<polygon points=" 558,88 592,88 592,112 558,112" fill="rgb(255,255,170)"/>
<text x="560.0" y="105.0" font-family="courier" font-size="16" fill="rgb(0,0,0)">not</text>
<line x1="580.0" y1="60.0" x2="615.0" y2="100.0" stroke="rgb(255,0,0)" stroke-width="1.5"/>
<line x1="615.0" y1="100.0" x2="615.0" y2="140.0" stroke="rgb(255,0,0)" stroke-width="1.5"/>
<polygon points=" 608,128 622,128 622,152 608,152" fill="rgb(255,255,170)"/>
<text x="610.0" y="145.0" font-family="courier" font-size="16" fill="rgb(0,0,0)">z</text>
<polygon points=" 598,88 632,88 632,112 598,112" fill="rgb(255,255,170)"/>
<text x="600.0" y="105.0" font-family="courier" font-size="16" fill="rgb(0,0,0)">not</text>
<polygon points=" 568,48 592,48 592,72 568,72" fill="rgb(255,255,170)"/>
<text x="570.0" y="65.0" font-family="courier" font-size="16" fill="rgb(0,0,0)">&#92;/</text>
<line x1="693.75" y1="20.0" x2="665.0" y2="60.0" stroke="rgb(255,0,0)" stroke-width="1.5"/>
<line x1="665.0" y1="60.0" x2="645.0" y2="100.0" stroke="rgb(255,0,0)" stroke-width="1.5"/>
<polygon points=" 638,88 652,88 652,112 638,112" fill="rgb(255,255,170)"/>
<text x="640.0" y="105.0" font-family="courier" font-size="16" fill="rgb(0,0,0)">y</text>
<line x1="665.0" y1="60.0" x2="665.0" y2="100.0" stroke="rgb(255,0,0)" stroke-width="1.5"/>
<polygon points=" 658,88 672,88 672,112 658,112" fill="rgb(255,255,170)"/>
<text x="660.0" y="105.0" font-family="courier" font-size="16" fill="rgb(0,0,0)">z</text>
<line x1="665.0" y1="60.0" x2="685.0" y2="100.0" stroke="rgb(255,0,0)" stroke-width="1.5"/>
<polygon points=" 678,88 692,88 692,112 678,112" fill="rgb(255,255,170)"/>
<text x="680.0" y="105.0" font-family="courier" font-size="16" fill="rgb(0,0,0)">x</text>
<polygon points=" 653,48 677,48 677,72 653,72" fill="rgb(255,255,170)"/>
<text x="655.0" y="65.0" font-family="courier" font-size="16" fill="rgb(0,0,0)">&#92;/</text>
<line x1="693.75" y1="20.0" x2="715.0" y2="60.0" stroke="rgb(255,0,0)" stroke-width="1.5"/>
<line x1="715.0" y1="60.0" x2="705.0" y2="100.0" stroke="rgb(255,0,0)" stroke-width="1.5"/>
<polygon points=" 698,88 712,88 712,112 698,112" fill="rgb(255,255,170)"/>
<text x="700.0" y="105.0" font-family="courier" font-size="16" fill="rgb(0,0,0)">y</text>
<line x1="715.0" y1="60.0" x2="725.0" y2="100.0" stroke="rgb(255,0,0)" stroke-width="1.5"/>
<polygon points=" 718,88 732,88 732,112 718,112" fill="rgb(255,255,170)"/>
<text x="720.0" y="105.0" font-family="courier" font-size="16" fill="rgb(0,0,0)">z</text>
<polygon points=" 703,48 727,48 727,72 703,72" fill="rgb(255,255,170)"/>
<text x="705.0" y="65.0" font-family="courier" font-size="16" fill="rgb(0,0,0)">&#92;/</text>
<line x1="693.75" y1="20.0" x2="770.0" y2="60.0" stroke="rgb(255,0,0)" stroke-width="1.5"/>
<line x1="770.0" y1="60.0" x2="745.0" y2="100.0" stroke="rgb(255,0,0)" stroke-width="1.5"/>
<polygon points=" 738,88 752,88 752,112 738,112" fill="rgb(255,255,170)"/>
<text x="740.0" y="105.0" font-family="courier" font-size="16" fill="rgb(0,0,0)">y</text>
<line x1="770.0" y1="60.0" x2="765.0" y2="100.0" stroke="rgb(255,0,0)" stroke-width="1.5"/>
<polygon points=" 758,88 772,88 772,112 758,112" fill="rgb(255,255,170)"/>
<text x="760.0" y="105.0" font-family="courier" font-size="16" fill="rgb(0,0,0)">z</text>
<line x1="770.0" y1="60.0" x2="795.0" y2="100.0" stroke="rgb(255,0,0)" stroke-width="1.5"/>
<line x1="795.0" y1="100.0" x2="795.0" y2="140.0" stroke="rgb(255,0,0)" stroke-width="1.5"/>
<polygon points=" 788,128 802,128 802,152 788,152" fill="rgb(255,255,170)"/>
<text x="790.0" y="145.0" font-family="courier" font-size="16" fill="rgb(0,0,0)">z</text>
<polygon points=" 778,88 812,88 812,112 778,112" fill="rgb(255,255,170)"/>
<text x="780.0" y="105.0" font-family="courier" font-size="16" fill="rgb(0,0,0)">not</text>
<polygon points=" 758,48 782,48 782,72 758,72" fill="rgb(255,255,170)"/>
<text x="760.0" y="65.0" font-family="courier" font-size="16" fill="rgb(0,0,0)">&#92;/</text>
<line x1="693.75" y1="20.0" x2="835.0" y2="60.0" stroke="rgb(255,0,0)" stroke-width="1.5"/>
<line x1="835.0" y1="60.0" x2="825.0" y2="100.0" stroke="rgb(255,0,0)" stroke-width="1.5"/>
<polygon points=" 818,88 832,88 832,112 818,112" fill="rgb(255,255,170)"/>
<text x="820.0" y="105.0" font-family="courier" font-size="16" fill="rgb(0,0,0)">z</text>
<line x1="835.0" y1="60.0" x2="845.0" y2="100.0" stroke="rgb(255,0,0)" stroke-width="1.5"/>
<polygon points=" 838,88 852,88 852,112 838,112" fill="rgb(255,255,170)"/>
<text x="840.0" y="105.0" font-family="courier" font-size="16" fill="rgb(0,0,0)">x</text>
<polygon points=" 823,48 847,48 847,72 823,72" fill="rgb(255,255,170)"/>
<text x="825.0" y="65.0" font-family="courier" font-size="16" fill="rgb(0,0,0)">&#92;/</text>
<line x1="693.75" y1="20.0" x2="885.0" y2="60.0" stroke="rgb(255,0,0)" stroke-width="1.5"/>
<line x1="885.0" y1="60.0" x2="865.0" y2="100.0" stroke="rgb(255,0,0)" stroke-width="1.5"/>
<polygon points=" 858,88 872,88 872,112 858,112" fill="rgb(255,255,170)"/>
<text x="860.0" y="105.0" font-family="courier" font-size="16" fill="rgb(0,0,0)">z</text>
<line x1="885.0" y1="60.0" x2="885.0" y2="100.0" stroke="rgb(255,0,0)" stroke-width="1.5"/>
<polygon points=" 878,88 892,88 892,112 878,112" fill="rgb(255,255,170)"/>
<text x="880.0" y="105.0" font-family="courier" font-size="16" fill="rgb(0,0,0)">x</text>
<line x1="885.0" y1="60.0" x2="905.0" y2="100.0" stroke="rgb(255,0,0)" stroke-width="1.5"/>
<polygon points=" 898,88 912,88 912,112 898,112" fill="rgb(255,255,170)"/>
<text x="900.0" y="105.0" font-family="courier" font-size="16" fill="rgb(0,0,0)">y</text>
<polygon points=" 873,48 897,48 897,72 873,72" fill="rgb(255,255,170)"/>
<text x="875.0" y="65.0" font-family="courier" font-size="16" fill="rgb(0,0,0)">&#92;/</text>
<line x1="693.75" y1="20.0" x2="950.0" y2="60.0" stroke="rgb(255,0,0)" stroke-width="1.5"/>
<line x1="950.0" y1="60.0" x2="925.0" y2="100.0" stroke="rgb(255,0,0)" stroke-width="1.5"/>
<polygon points=" 918,88 932,88 932,112 918,112" fill="rgb(255,255,170)"/>
<text x="920.0" y="105.0" font-family="courier" font-size="16" fill="rgb(0,0,0)">z</text>
<line x1="950.0" y1="60.0" x2="945.0" y2="100.0" stroke="rgb(255,0,0)" stroke-width="1.5"/>
<polygon points=" 938,88 952,88 952,112 938,112" fill="rgb(255,255,170)"/>
<text x="940.0" y="105.0" font-family="courier" font-size="16" fill="rgb(0,0,0)">x</text>
<line x1="950.0" y1="60.0" x2="975.0" y2="100.0" stroke="rgb(255,0,0)" stroke-width="1.5"/>
<line x1="975.0" y1="100.0" x2="975.0" y2="140.0" stroke="rgb(255,0,0)" stroke-width="1.5"/>
<polygon points=" 968,128 982,128 982,152 968,152" fill="rgb(255,255,170)"/>
<text x="970.0" y="145.0" font-family="courier" font-size="16" fill="rgb(0,0,0)">z</text>
<polygon points=" 958,88 992,88 992,112 958,112" fill="rgb(255,255,170)"/>
<text x="960.0" y="105.0" font-family="courier" font-size="16" fill="rgb(0,0,0)">not</text>
<polygon points=" 938,48 962,48 962,72 938,72" fill="rgb(255,255,170)"/>
<text x="940.0" y="65.0" font-family="courier" font-size="16" fill="rgb(0,0,0)">&#92;/</text>
<line x1="693.75" y1="20.0" x2="1035.0" y2="60.0" stroke="rgb(255,0,0)" stroke-width="1.5"/>
<line x1="1035.0" y1="60.0" x2="1005.0" y2="100.0" stroke="rgb(255,0,0)" stroke-width="1.5"/>
<polygon points=" 998,88 1012,88 1012,112 998,112" fill="rgb(255,255,170)"/>
<text x="1000.0" y="105.0" font-family="courier" font-size="16" fill="rgb(0,0,0)">z</text>
<line x1="1035.0" y1="60.0" x2="1035.0" y2="100.0" stroke="rgb(255,0,0)" stroke-width="1.5"/>
<line x1="1035.0" y1="100.0" x2="1035.0" y2="140.0" stroke="rgb(255,0,0)" stroke-width="1.5"/>
<polygon points=" 1028,128 1042,128 1042,152 1028,152" fill="rgb(255,255,170)"/>
<text x="1030.0" y="145.0" font-family="courier" font-size="16" fill="rgb(0,0,0)">y</text>
<polygon points=" 1018,88 1052,88 1052,112 1018,112" fill="rgb(255,255,170)"/>
<text x="1020.0" y="105.0" font-family="courier" font-size="16" fill="rgb(0,0,0)">not</text>
<line x1="1035.0" y1="60.0" x2="1065.0" y2="100.0" stroke="rgb(255,0,0)" stroke-width="1.5"/>
<polygon points=" 1058,88 1072,88 1072,112 1058,112" fill="rgb(255,255,170)"/>
<text x="1060.0" y="105.0" font-family="courier" font-size="16" fill="rgb(0,0,0)">x</text>
<polygon points=" 1023,48 1047,48 1047,72 1023,72" fill="rgb(255,255,170)"/>
<text x="1025.0" y="65.0" font-family="courier" font-size="16" fill="rgb(0,0,0)">&#92;/</text>
<line x1="693.75" y1="20.0" x2="1115.0" y2="60.0" stroke="rgb(255,0,0)" stroke-width="1.5"/>
<line x1="1115.0" y1="60.0" x2="1085.0" y2="100.0" stroke="rgb(255,0,0)" stroke-width="1.5"/>
<polygon points=" 1078,88 1092,88 1092,112 1078,112" fill="rgb(255,255,170)"/>
<text x="1080.0" y="105.0" font-family="courier" font-size="16" fill="rgb(0,0,0)">z</text>
<line x1="1115.0" y1="60.0" x2="1115.0" y2="100.0" stroke="rgb(255,0,0)" stroke-width="1.5"/>
<line x1="1115.0" y1="100.0" x2="1115.0" y2="140.0" stroke="rgb(255,0,0)" stroke-width="1.5"/>
<polygon points=" 1108,128 1122,128 1122,152 1108,152" fill="rgb(255,255,170)"/>
<text x="1110.0" y="145.0" font-family="courier" font-size="16" fill="rgb(0,0,0)">y</text>
<polygon points=" 1098,88 1132,88 1132,112 1098,112" fill="rgb(255,255,170)"/>
<text x="1100.0" y="105.0" font-family="courier" font-size="16" fill="rgb(0,0,0)">not</text>
<line x1="1115.0" y1="60.0" x2="1145.0" y2="100.0" stroke="rgb(255,0,0)" stroke-width="1.5"/>
<polygon points=" 1138,88 1152,88 1152,112 1138,112" fill="rgb(255,255,170)"/>
<text x="1140.0" y="105.0" font-family="courier" font-size="16" fill="rgb(0,0,0)">y</text>
<polygon points=" 1103,48 1127,48 1127,72 1103,72" fill="rgb(255,255,170)"/>
<text x="1105.0" y="65.0" font-family="courier" font-size="16" fill="rgb(0,0,0)">&#92;/</text>
<line x1="693.75" y1="20.0" x2="1200.0" y2="60.0" stroke="rgb(255,0,0)" stroke-width="1.5"/>
<line x1="1200.0" y1="60.0" x2="1165.0" y2="100.0" stroke="rgb(255,0,0)" stroke-width="1.5"/>
<polygon points=" 1158,88 1172,88 1172,112 1158,112" fill="rgb(255,255,170)"/>
<text x="1160.0" y="105.0" font-family="courier" font-size="16" fill="rgb(0,0,0)">z</text>
<line x1="1200.0" y1="60.0" x2="1195.0" y2="100.0" stroke="rgb(255,0,0)" stroke-width="1.5"/>
<line x1="1195.0" y1="100.0" x2="1195.0" y2="140.0" stroke="rgb(255,0,0)" stroke-width="1.5"/>
<polygon points=" 1188,128 1202,128 1202,152 1188,152" fill="rgb(255,255,170)"/>
<text x="1190.0" y="145.0" font-family="courier" font-size="16" fill="rgb(0,0,0)">y</text>
<polygon points=" 1178,88 1212,88 1212,112 1178,112" fill="rgb(255,255,170)"/>
<text x="1180.0" y="105.0" font-family="courier" font-size="16" fill="rgb(0,0,0)">not</text>
<line x1="1200.0" y1="60.0" x2="1235.0" y2="100.0" stroke="rgb(255,0,0)" stroke-width="1.5"/>
<line x1="1235.0" y1="100.0" x2="1235.0" y2="140.0" stroke="rgb(255,0,0)" stroke-width="1.5"/>
<polygon points=" 1228,128 1242,128 1242,152 1228,152" fill="rgb(255,255,170)"/>
<text x="1230.0" y="145.0" font-family="courier" font-size="16" fill="rgb(0,0,0)">z</text>
<polygon points=" 1218,88 1252,88 1252,112 1218,112" fill="rgb(255,255,170)"/>
<text x="1220.0" y="105.0" font-family="courier" font-size="16" fill="rgb(0,0,0)">not</text>
<polygon points=" 1188,48 1212,48 1212,72 1188,72" fill="rgb(255,255,170)"/>
<text x="1190.0" y="65.0" font-family="courier" font-size="16" fill="rgb(0,0,0)">&#92;/</text>
<line x1="693.75" y1="20.0" x2="1275.0" y2="60.0" stroke="rgb(255,0,0)" stroke-width="1.5"/>
<line x1="1275.0" y1="60.0" x2="1265.0" y2="100.0" stroke="rgb(255,0,0)" stroke-width="1.5"/>
<polygon points=" 1258,88 1272,88 1272,112 1258,112" fill="rgb(255,255,170)"/>
<text x="1260.0" y="105.0" font-family="courier" font-size="16" fill="rgb(0,0,0)">z</text>
<line x1="1275.0" y1="60.0" x2="1285.0" y2="100.0" stroke="rgb(255,0,0)" stroke-width="1.5"/>
<polygon points=" 1278,88 1292,88 1292,112 1278,112" fill="rgb(255,255,170)"/>
<text x="1280.0" y="105.0" font-family="courier" font-size="16" fill="rgb(0,0,0)">y</text>
<polygon points=" 1263,48 1287,48 1287,72 1263,72" fill="rgb(255,255,170)"/>
<text x="1265.0" y="65.0" font-family="courier" font-size="16" fill="rgb(0,0,0)">&#92;/</text>
<line x1="693.75" y1="20.0" x2="1320.0" y2="60.0" stroke="rgb(255,0,0)" stroke-width="1.5"/>
<line x1="1320.0" y1="60.0" x2="1305.0" y2="100.0" stroke="rgb(255,0,0)" stroke-width="1.5"/>
<polygon points=" 1298,88 1312,88 1312,112 1298,112" fill="rgb(255,255,170)"/>
<text x="1300.0" y="105.0" font-family="courier" font-size="16" fill="rgb(0,0,0)">z</text>
<line x1="1320.0" y1="60.0" x2="1335.0" y2="100.0" stroke="rgb(255,0,0)" stroke-width="1.5"/>
<line x1="1335.0" y1="100.0" x2="1335.0" y2="140.0" stroke="rgb(255,0,0)" stroke-width="1.5"/>
<polygon points=" 1328,128 1342,128 1342,152 1328,152" fill="rgb(255,255,170)"/>
<text x="1330.0" y="145.0" font-family="courier" font-size="16" fill="rgb(0,0,0)">z</text>
<polygon points=" 1318,88 1352,88 1352,112 1318,112" fill="rgb(255,255,170)"/>
<text x="1320.0" y="105.0" font-family="courier" font-size="16" fill="rgb(0,0,0)">not</text>
<polygon points=" 1308,48 1332,48 1332,72 1308,72" fill="rgb(255,255,170)"/>
<text x="1310.0" y="65.0" font-family="courier" font-size="16" fill="rgb(0,0,0)">&#92;/</text>
<polygon points=" 682,8 706,8 706,32 682,32" fill="rgb(255,255,170)"/>
<text x="683.75" y="25.0" font-family="courier" font-size="16" fill="rgb(0,0,0)">/&#92;</text></svg>