<svg xmlns="http://www.w3.org/2000/svg"
xmlns:xlink="http://www.w3.org/1999/xlink"
version="1.1" baseProfile="full"
width="1238" height="160">
<line x1="627.5" y1="20.0" x2="67.5" y2="60.0" stroke="rgb(255,0,0)" stroke-width="1.5"/>
<line x1="67.5" y1="60.0" x2="45.0" y2="100.0" stroke="rgb(255,0,0)" stroke-width="1.5"/>
<line x1="45.0" y1="100.0" x2="25.0" y2="140.0" stroke="rgb(255,0,0)" stroke-width="1.5"/>
<polygon points=" 18,128 32,128 32,152 18,152" fill="rgb(255,170,170)"/>
<text x="20.0" y="145.0" font-family="courier" font-size="16" fill="rgb(0,0,0)">x</text>
<line x1="45.0" y1="100.0" x2="45.0" y2="140.0" stroke="rgb(255,0,0)" stroke-width="1.5"/>
<polygon points=" 38,128 52,128 52,152 38,152" fill="rgb(255,170,170)"/>
<text x="40.0" y="145.0" font-family="courier" font-size="16" fill="rgb(0,0,0)">y</text>
<line x1="45.0" y1="100.0" x2="65.0" y2="140.0" stroke="rgb(255,0,0)" stroke-width="1.5"/>
<polygon points=" 58,128 72,128 72,152 58,152" fill="rgb(255,170,170)"/>
<text x="60.0" y="145.0" font-family="courier" font-size="16" fill="rgb(0,0,0)">z</text>
<polygon points=" 33,88 57,88 57,112 33,112" fill="rgb(255,170,170)"/>
<text x="35.0" y="105.0" font-family="courier" font-size="16" fill="rgb(0,0,0)">/&#92;</text>
<line x1="67.5" y1="60.0" x2="90.0" y2="100.0" stroke="rgb(255,0,0)" stroke-width="1.5"/>
<polygon points=" 63,88 117,88 117,112 63,112" fill="rgb(255,170,170)"/>
<text x="65.0" y="105.0" font-family="courier" font-size="16" fill="rgb(0,0,0)">false</text>
<polygon points=" 50,48 84,48 84,72 50,72" fill="rgb(255,170,170)"/>
<text x="52.5" y="65.0" font-family="courier" font-size="16" fill="rgb(0,0,0)">==&gt;</text>
<line x1="627.5" y1="20.0" x2="142.5" y2="60.0" stroke="rgb(255,0,0)" stroke-width="1.5"/>
<line x1="142.5" y1="60.0" x2="130.0" y2="100.0" stroke="rgb(255,0,0)" stroke-width="1.5"/>
<polygon points=" 123,88 137,88 137,112 123,112" fill="rgb(255,170,170)"/>
<text x="125.0" y="105.0" font-family="courier" font-size="16" fill="rgb(0,0,0)">x</text>
<line x1="142.5" y1="60.0" x2="155.0" y2="100.0" stroke="rgb(255,0,0)" stroke-width="1.5"/>
<line x1="155.0" y1="100.0" x2="145.0" y2="140.0" stroke="rgb(255,0,0)" stroke-width="1.5"/>
<polygon points=" 138,128 152,128 152,152 138,152" fill="rgb(255,170,170)"/>
<text x="140.0" y="145.0" font-family="courier" font-size="16" fill="rgb(0,0,0)">z</text>
<line x1="155.0" y1="100.0" x2="165.0" y2="140.0" stroke="rgb(255,0,0)" stroke-width="1.5"/>
<polygon points=" 158,128 172,128 172,152 158,152" fill="rgb(255,170,170)"/>
<text x="160.0" y="145.0" font-family="courier" font-size="16" fill="rgb(0,0,0)">y</text>
<polygon points=" 143,88 167,88 167,112 143,112" fill="rgb(255,170,170)"/>
<text x="145.0" y="105.0" font-family="courier" font-size="16" fill="rgb(0,0,0)">or</text>
<polygon points=" 126,48 160,48 160,72 126,72" fill="rgb(255,170,170)"/>
<text x="127.5" y="65.0" font-family="courier" font-size="16" fill="rgb(0,0,0)">==&gt;</text>
<line x1="627.5" y1="20.0" x2="220.0" y2="60.0" stroke="rgb(255,0,0)" stroke-width="1.5"/>
<line x1="220.0" y1="60.0" x2="200.0" y2="100.0" stroke="rgb(255,0,0)" stroke-width="1.5"/>
<polygon points=" 178,88 222,88 222,112 178,112" fill="rgb(255,170,170)"/>
<text x="180.0" y="105.0" font-family="courier" font-size="16" fill="rgb(0,0,0)">true</text>
<line x1="220.0" y1="60.0" x2="240.0" y2="100.0" stroke="rgb(255,0,0)" stroke-width="1.5"/>
<line x1="240.0" y1="100.0" x2="230.0" y2="140.0" stroke="rgb(255,0,0)" stroke-width="1.5"/>
<polygon points=" 223,128 237,128 237,152 223,152" fill="rgb(255,170,170)"/>
<text x="225.0" y="145.0" font-family="courier" font-size="16" fill="rgb(0,0,0)">y</text>
<line x1="240.0" y1="100.0" x2="250.0" y2="140.0" stroke="rgb(255,0,0)" stroke-width="1.5"/>
<polygon points=" 243,128 257,128 257,152 243,152" fill="rgb(255,170,170)"/>
<text x="245.0" y="145.0" font-family="courier" font-size="16" fill="rgb(0,0,0)">x</text>
<polygon points=" 228,88 252,88 252,112 228,112" fill="rgb(255,170,170)"/>
<text x="230.0" y="105.0" font-family="courier" font-size="16" fill="rgb(0,0,0)">or</text>
<polygon points=" 203,48 237,48 237,72 203,72" fill="rgb(255,170,170)"/>
<text x="205.0" y="65.0" font-family="courier" font-size="16" fill="rgb(0,0,0)">==&gt;</text>
<line x1="627.5" y1="20.0" x2="282.5" y2="60.0" stroke="rgb(255,0,0)" stroke-width="1.5"/>
<line x1="282.5" y1="60.0" x2="270.0" y2="100.0" stroke="rgb(255,0,0)" stroke-width="1.5"/>
<polygon points=" 263,88 277,88 277,112 263,112" fill="rgb(255,170,170)"/>
<text x="265.0" y="105.0" font-family="courier" font-size="16" fill="rgb(0,0,0)">z</text>
<line x1="282.5" y1="60.0" x2="295.0" y2="100.0" stroke="rgb(255,0,0)" stroke-width="1.5"/>
<line x1="295.0" y1="100.0" x2="285.0" y2="140.0" stroke="rgb(255,0,0)" stroke-width="1.5"/>
<polygon points=" 278,128 292,128 292,152 278,152" fill="rgb(255,170,170)"/>
<text x="280.0" y="145.0" font-family="courier" font-size="16" fill="rgb(0,0,0)">y</text>
<line x1="295.0" y1="100.0" x2="305.0" y2="140.0" stroke="rgb(255,0,0)" stroke-width="1.5"/>
<polygon points=" 298,128 312,128 312,152 298,152" fill="rgb(255,170,170)"/>
<text x="300.0" y="145.0" font-family="courier" font-size="16" fill="rgb(0,0,0)">x</text>
<polygon points=" 283,88 307,88 307,112 283,112" fill="rgb(255,170,170)"/>
<text x="285.0" y="105.0" font-family="courier" font-size="16" fill="rgb(0,0,0)">or</text>
<polygon points=" 266,48 300,48 300,72 266,72" fill="rgb(255,170,170)"/>
<text x="267.5" y="65.0" font-family="courier" font-size="16" fill="rgb(0,0,0)">==&gt;</text>
<line x1="627.5" y1="20.0" x2="327.5" y2="60.0" stroke="rgb(255,0,0)" stroke-width="1.5"/>
<polygon points=" 306,48 350,48 350,72 306,72" fill="rgb(255,170,170)"/>
<text x="307.5" y="65.0" font-family="courier" font-size="16" fill="rgb(0,0,0)">true</text>
<line x1="627.5" y1="20.0" x2="367.5" y2="60.0" stroke="rgb(255,0,0)" stroke-width="1.5"/>
<line x1="367.5" y1="60.0" x2="352.5" y2="100.0" stroke="rgb(255,0,0)" stroke-width="1.5"/>
<polygon points=" 346,88 360,88 360,112 346,112" fill="rgb(255,170,170)"/>
<text x="347.5" y="105.0" font-family="courier" font-size="16" fill="rgb(0,0,0)">y</text>
<line x1="367.5" y1="60.0" x2="382.5" y2="100.0" stroke="rgb(255,0,0)" stroke-width="1.5"/>
<line x1="382.5" y1="100.0" x2="382.5" y2="140.0" stroke="rgb(255,0,0)" stroke-width="1.5"/>
<polygon points=" 376,128 390,128 390,152 376,152" fill="rgb(255,170,170)"/>
<text x="377.5" y="145.0" font-family="courier" font-size="16" fill="rgb(0,0,0)">y</text>
<polygon points=" 366,88 400,88 400,112 366,112" fill="rgb(255,170,170)"/>
<text x="367.5" y="105.0" font-family="courier" font-size="16" fill="rgb(0,0,0)">not</text>
<polygon points=" 356,48 380,48 380,72 356,72" fill="rgb(255,170,170)"/>
<text x="357.5" y="65.0" font-family="courier" font-size="16" fill="rgb(0,0,0)">&#92;/</text>
<line x1="627.5" y1="20.0" x2="447.5" y2="60.0" stroke="rgb(255,0,0)" stroke-width="1.5"/>
<line x1="447.5" y1="60.0" x2="412.5" y2="100.0" stroke="rgb(255,0,0)" stroke-width="1.5"/>
<polygon points=" 406,88 420,88 420,112 406,112" fill="rgb(255,170,170)"/>
<text x="407.5" y="105.0" font-family="courier" font-size="16" fill="rgb(0,0,0)">y</text>
<line x1="447.5" y1="60.0" x2="442.5" y2="100.0" stroke="rgb(255,0,0)" stroke-width="1.5"/>
<line x1="442.5" y1="100.0" x2="442.5" y2="140.0" stroke="rgb(255,0,0)" stroke-width="1.5"/>
<polygon points=" 436,128 450,128 450,152 436,152" fill="rgb(255,170,170)"/>
<text x="437.5" y="145.0" font-family="courier" font-size="16" fill="rgb(0,0,0)">y</text>
<polygon points=" 426,88 460,88 460,112 426,112" fill="rgb(255,170,170)"/>
<text x="427.5" y="105.0" font-family="courier" font-size="16" fill="rgb(0,0,0)">not</text>
<line x1="447.5" y1="60.0" x2="482.5" y2="100.0" stroke="rgb(255,0,0)" stroke-width="1.5"/>
<line x1="482.5" y1="100.0" x2="482.5" y2="140.0" stroke="rgb(255,0,0)" stroke-width="1.5"/>
<polygon points=" 476,128 490,128 490,152 476,152" fill="rgb(255,170,170)"/>
<text x="477.5" y="145.0" font-family="courier" font-size="16" fill="rgb(0,0,0)">z</text>
<polygon points=" 466,88 500,88 500,112 466,112" fill="rgb(255,170,170)"/>
<text x="467.5" y="105.0" font-family="courier" font-size="16" fill="rgb(0,0,0)">not</text>
<polygon points=" 436,48 460,48 460,72 436,72" fill="rgb(255,170,170)"/>
<text x="437.5" y="65.0" font-family="courier" font-size="16" fill="rgb(0,0,0)">&#92;/</text>
<line x1="627.5" y1="20.0" x2="532.5" y2="60.0" stroke="rgb(255,0,0)" stroke-width="1.5"/>
<line x1="532.5" y1="60.0" x2="512.5" y2="100.0" stroke="rgb(255,0,0)" stroke-width="1.5"/>
<polygon points=" 506,88 520,88 520,112 506,112" fill="rgb(255,170,170)"/>
<text x="507.5" y="105.0" font-family="courier" font-size="16" fill="rgb(0,0,0)">y</text>
<line x1="532.5" y1="60.0" x2="532.5" y2="100.0" stroke="rgb(255,0,0)" stroke-width="1.5"/>
<polygon points=" 526,88 540,88 540,112 526,112" fill="rgb(255,170,170)"/>
<text x="527.5" y="105.0" font-family="courier" font-size="16" fill="rgb(0,0,0)">z</text>
<line x1="532.5" y1="60.0" x2="552.5" y2="100.0" stroke="rgb(255,0,0)" stroke-width="1.5"/>
<polygon points=" 546,88 560,88 560,112 546,112" fill="rgb(255,170,170)"/>
<text x="547.5" y="105.0" font-family="courier" font-size="16" fill="rgb(0,0,0)">x</text>
<polygon points=" 520,48 544,48 544,72 520,72" fill="rgb(255,170,170)"/>
<text x="522.5" y="65.0" font-family="courier" font-size="16" fill="rgb(0,0,0)">&#92;/</text>
<line x1="627.5" y1="20.0" x2="582.5" y2="60.0" stroke="rgb(255,0,0)" stroke-width="1.5"/>
<line x1="582.5" y1="60.0" x2="572.5" y2="100.0" stroke="rgb(255,0,0)" stroke-width="1.5"/>
<polygon points=" 566,88 580,88 580,112 566,112" fill="rgb(255,170,170)"/>
<text x="567.5" y="105.0" font-family="courier" font-size="16" fill="rgb(0,0,0)">y</text>
<line x1="582.5" y1="60.0" x2="592.5" y2="100.0" stroke="rgb(255,0,0)" stroke-width="1.5"/>
<polygon points=" 586,88 600,88 600,112 586,112" fill="rgb(255,170,170)"/>
<text x="587.5" y="105.0" font-family="courier" font-size="16" fill="rgb(0,0,0)">z</text>
<polygon points=" 570,48 594,48 594,72 570,72" fill="rgb(255,170,170)"/>
<text x="572.5" y="65.0" font-family="courier" font-size="16" fill="rgb(0,0,0)">&#92;/</text>
<line x1="627.5" y1="20.0" x2="637.5" y2="60.0" stroke="rgb(255,0,0)" stroke-width="1.5"/>
<line x1="637.5" y1="60.0" x2="612.5" y2="100.0" stroke="rgb(255,0,0)" stroke-width="1.5"/>
<polygon points=" 606,88 620,88 620,112 606,112" fill="rgb(255,170,170)"/>
<text x="607.5" y="105.0" font-family="courier" font-size="16" fill="rgb(0,0,0)">y</text>
<line x1="637.5" y1="60.0" x2="632.5" y2="100.0" stroke="rgb(255,0,0)" stroke-width="1.5"/>
<polygon points=" 626,88 640,88 640,112 626,112" fill="rgb(255,170,170)"/>
<text x="627.5" y="105.0" font-family="courier" font-size="16" fill="rgb(0,0,0)">z</text>
<line x1="637.5" y1="60.0" x2="662.5" y2="100.0" stroke="rgb(255,0,0)" stroke-width="1.5"/>
<line x1="662.5" y1="100.0" x2="662.5" y2="140.0" stroke="rgb(255,0,0)" stroke-width="1.5"/>
<polygon points=" 656,128 670,128 670,152 656,152" fill="rgb(255,170,170)"/>
<text x="657.5" y="145.0" font-family="courier" font-size="16" fill="rgb(0,0,0)">z</text>
<polygon points=" 646,88 680,88 680,112 646,112" fill="rgb(255,170,170)"/>
<text x="647.5" y="105.0" font-family="courier" font-size="16" fill="rgb(0,0,0)">not</text>
<polygon points=" 626,48 650,48 650,72 626,72" fill="rgb(255,170,170)"/>
<text x="627.5" y="65.0" font-family="courier" font-size="16" fill="rgb(0,0,0)">&#92;/</text>
<line x1="627.5" y1="20.0" x2="702.5" y2="60.0" stroke="rgb(255,0,0)" stroke-width="1.5"/>
<line x1="702.5" y1="60.0" x2="692.5" y2="100.0" stroke="rgb(255,0,0)" stroke-width="1.5"/>
<polygon points=" 686,88 700,88 700,112 686,112" fill="rgb(255,170,170)"/>
<text x="687.5" y="105.0" font-family="courier" font-size="16" fill="rgb(0,0,0)">z</text>
<line x1="702.5" y1="60.0" x2="712.5" y2="100.0" stroke="rgb(255,0,0)" stroke-width="1.5"/>
<polygon points=" 706,88 720,88 720,112 706,112" fill="rgb(255,170,170)"/>
<text x="707.5" y="105.0" font-family="courier" font-size="16" fill="rgb(0,0,0)">x</text>
<polygon points=" 690,48 714,48 714,72 690,72" fill="rgb(255,170,170)"/>
<text x="692.5" y="65.0" font-family="courier" font-size="16" fill="rgb(0,0,0)">&#92;/</text>
<line x1="627.5" y1="20.0" x2="752.5" y2="60.0" stroke="rgb(255,0,0)" stroke-width="1.5"/>
<line x1="752.5" y1="60.0" x2="732.5" y2="100.0" stroke="rgb(255,0,0)" stroke-width="1.5"/>
<polygon points=" 726,88 740,88 740,112 726,112" fill="rgb(255,170,170)"/>
<text x="727.5" y="105.0" font-family="courier" font-size="16" fill="rgb(0,0,0)">z</text>
<line x1="752.5" y1="60.0" x2="752.5" y2="100.0" stroke="rgb(255,0,0)" stroke-width="1.5"/>
<polygon points=" 746,88 760,88 760,112 746,112" fill="rgb(255,170,170)"/>
<text x="747.5" y="105.0" font-family="courier" font-size="16" fill="rgb(0,0,0)">x</text>
<line x1="752.5" y1="60.0" x2="772.5" y2="100.0" stroke="rgb(255,0,0)" stroke-width="1.5"/>
<polygon points=" 766,88 780,88 780,112 766,112" fill="rgb(255,170,170)"/>
<text x="767.5" y="105.0" font-family="courier" font-size="16" fill="rgb(0,0,0)">y</text>
<polygon points=" 740,48 764,48 764,72 740,72" fill="rgb(255,170,170)"/>
<text x="742.5" y="65.0" font-family="courier" font-size="16" fill="rgb(0,0,0)">&#92;/</text>
<line x1="627.5" y1="20.0" x2="817.5" y2="60.0" stroke="rgb(255,0,0)" stroke-width="1.5"/>
<line x1="817.5" y1="60.0" x2="792.5" y2="100.0" stroke="rgb(255,0,0)" stroke-width="1.5"/>
<polygon points=" 786,88 800,88 800,112 786,112" fill="rgb(255,170,170)"/>
<text x="787.5" y="105.0" font-family="courier" font-size="16" fill="rgb(0,0,0)">z</text>
<line x1="817.5" y1="60.0" x2="812.5" y2="100.0" stroke="rgb(255,0,0)" stroke-width="1.5"/>
<polygon points=" 806,88 820,88 820,112 806,112" fill="rgb(255,170,170)"/>
<text x="807.5" y="105.0" font-family="courier" font-size="16" fill="rgb(0,0,0)">x</text>
<line x1="817.5" y1="60.0" x2="842.5" y2="100.0" stroke="rgb(255,0,0)" stroke-width="1.5"/>
<line x1="842.5" y1="100.0" x2="842.5" y2="140.0" stroke="rgb(255,0,0)" stroke-width="1.5"/>
<polygon points=" 836,128 850,128 850,152 836,152" fill="rgb(255,170,170)"/>
<text x="837.5" y="145.0" font-family="courier" font-size="16" fill="rgb(0,0,0)">z</text>
<polygon points=" 826,88 860,88 860,112 826,112" fill="rgb(255,170,170)"/>
<text x="827.5" y="105.0" font-family="courier" font-size="16" fill="rgb(0,0,0)">not</text>
<polygon points=" 806,48 830,48 830,72 806,72" fill="rgb(255,170,170)"/>
<text x="807.5" y="65.0" font-family="courier" font-size="16" fill="rgb(0,0,0)">&#92;/</text>
<line x1="627.5" y1="20.0" x2="902.5" y2="60.0" stroke="rgb(255,0,0)" stroke-width="1.5"/>
<line x1="902.5" y1="60.0" x2="872.5" y2="100.0" stroke="rgb(255,0,0)" stroke-width="1.5"/>
<polygon points=" 866,88 880,88 880,112 866,112" fill="rgb(255,170,170)"/>
<text x="867.5" y="105.0" font-family="courier" font-size="16" fill="rgb(0,0,0)">z</text>
<line x1="902.5" y1="60.0" x2="902.5" y2="100.0" stroke="rgb(255,0,0)" stroke-width="1.5"/>
<line x1="902.5" y1="100.0" x2="902.5" y2="140.0" stroke="rgb(255,0,0)" stroke-width="1.5"/>
<polygon points=" 896,128 910,128 910,152 896,152" fill="rgb(255,170,170)"/>
<text x="897.5" y="145.0" font-family="courier" font-size="16" fill="rgb(0,0,0)">y</text>
<polygon points=" 886,88 920,88 920,112 886,112" fill="rgb(255,170,170)"/>
<text x="887.5" y="105.0" font-family="courier" font-size="16" fill="rgb(0,0,0)">not</text>
<line x1="902.5" y1="60.0" x2="932.5" y2="100.0" stroke="rgb(255,0,0)" stroke-width="1.5"/>
<polygon points=" 926,88 940,88 940,112 926,112" fill="rgb(255,170,170)"/>
<text x="927.5" y="105.0" font-family="courier" font-size="16" fill="rgb(0,0,0)">x</text>
<polygon points=" 890,48 914,48 914,72 890,72" fill="rgb(255,170,170)"/>
<text x="892.5" y="65.0" font-family="courier" font-size="16" fill="rgb(0,0,0)">&#92;/</text>
<line x1="627.5" y1="20.0" x2="982.5" y2="60.0" stroke="rgb(255,0,0)" stroke-width="1.5"/>
<line x1="982.5" y1="60.0" x2="952.5" y2="100.0" stroke="rgb(255,0,0)" stroke-width="1.5"/>
<polygon points=" 946,88 960,88 960,112 946,112" fill="rgb(255,170,170)"/>
<text x="947.5" y="105.0" font-family="courier" font-size="16" fill="rgb(0,0,0)">z</text>
<line x1="982.5" y1="60.0" x2="982.5" y2="100.0" stroke="rgb(255,0,0)" stroke-width="1.5"/>
<line x1="982.5" y1="100.0" x2="982.5" y2="140.0" stroke="rgb(255,0,0)" stroke-width="1.5"/>
<polygon points=" 976,128 990,128 990,152 976,152" fill="rgb(255,170,170)"/>
<text x="977.5" y="145.0" font-family="courier" font-size="16" fill="rgb(0,0,0)">y</text>
<polygon points=" 966,88 1000,88 1000,112 966,112" fill="rgb(255,170,170)"/>
<text x="967.5" y="105.0" font-family="courier" font-size="16" fill="rgb(0,0,0)">not</text>
<line x1="982.5" y1="60.0" x2="1012.5" y2="100.0" stroke="rgb(255,0,0)" stroke-width="1.5"/>
<polygon points=" 1006,88 1020,88 1020,112 1006,112" fill="rgb(255,170,170)"/>
<text x="1007.5" y="105.0" font-family="courier" font-size="16" fill="rgb(0,0,0)">y</text>
<polygon points=" 970,48 994,48 994,72 970,72" fill="rgb(255,170,170)"/>
<text x="972.5" y="65.0" font-family="courier" font-size="16" fill="rgb(0,0,0)">&#92;/</text>
<line x1="627.5" y1="20.0" x2="1067.5" y2="60.0" stroke="rgb(255,0,0)" stroke-width="1.5"/>
<line x1="1067.5" y1="60.0" x2="1032.5" y2="100.0" stroke="rgb(255,0,0)" stroke-width="1.5"/>
<polygon points=" 1026,88 1040,88 1040,112 1026,112" fill="rgb(255,170,170)"/>
<text x="1027.5" y="105.0" font-family="courier" font-size="16" fill="rgb(0,0,0)">z</text>
<line x1="1067.5" y1="60.0" x2="1062.5" y2="100.0" stroke="rgb(255,0,0)" stroke-width="1.5"/>
<line x1="1062.5" y1="100.0" x2="1062.5" y2="140.0" stroke="rgb(255,0,0)" stroke-width="1.5"/>
<polygon points=" 1056,128 1070,128 1070,152 1056,152" fill="rgb(255,170,170)"/>
<text x="1057.5" y="145.0" font-family="courier" font-size="16" fill="rgb(0,0,0)">y</text>
<polygon points=" 1046,88 1080,88 1080,112 1046,112" fill="rgb(255,170,170)"/>
<text x="1047.5" y="105.0" font-family="courier" font-size="16" fill="rgb(0,0,0)">not</text>
<line x1="1067.5" y1="60.0" x2="1102.5" y2="100.0" stroke="rgb(255,0,0)" stroke-width="1.5"/>
<line x1="1102.5" y1="100.0" x2="1102.5" y2="140.0" stroke="rgb(255,0,0)" stroke-width="1.5"/>
<polygon points=" 1096,128 1110,128 1110,152 1096,152" fill="rgb(255,170,170)"/>
<text x="1097.5" y="145.0" font-family="courier" font-size="16" fill="rgb(0,0,0)">z</text>
<polygon points=" 1086,88 1120,88 1120,112 1086,112" fill="rgb(255,170,170)"/>
<text x="1087.5" y="105.0" font-family="courier" font-size="16" fill="rgb(0,0,0)">not</text>
<polygon points=" 1056,48 1080,48 1080,72 1056,72" fill="rgb(255,170,170)"/>
<text x="1057.5" y="65.0" font-family="courier" font-size="16" fill="rgb(0,0,0)">&#92;/</text>
<line x1="627.5" y1="20.0" x2="1142.5" y2="60.0" stroke="rgb(255,0,0)" stroke-width="1.5"/>
<line x1="1142.5" y1="60.0" x2="1132.5" y2="100.0" stroke="rgb(255,0,0)" stroke-width="1.5"/>
<polygon points=" 1126,88 1140,88 1140,112 1126,112" fill="rgb(255,170,170)"/>
<text x="1127.5" y="105.0" font-family="courier" font-size="16" fill="rgb(0,0,0)">z</text>
<line x1="1142.5" y1="60.0" x2="1152.5" y2="100.0" stroke="rgb(255,0,0)" stroke-width="1.5"/>
<polygon points=" 1146,88 1160,88 1160,112 1146,112" fill="rgb(255,170,170)"/>
<text x="1147.5" y="105.0" font-family="courier" font-size="16" fill="rgb(0,0,0)">y</text>
<polygon points=" 1130,48 1154,48 1154,72 1130,72" fill="rgb(255,170,170)"/>
<text x="1132.5" y="65.0" font-family="courier" font-size="16" fill="rgb(0,0,0)">&#92;/</text>
<line x1="627.5" y1="20.0" x2="1187.5" y2="60.0" stroke="rgb(255,0,0)" stroke-width="1.5"/>
<line x1="1187.5" y1="60.0" x2="1172.5" y2="100.0" stroke="rgb(255,0,0)" stroke-width="1.5"/>
<polygon points=" 1166,88 1180,88 1180,112 1166,112" fill="rgb(255,170,170)"/>
<text x="1167.5" y="105.0" font-family="courier" font-size="16" fill="rgb(0,0,0)">z</text>
<line x1="1187.5" y1="60.0" x2="1202.5" y2="100.0" stroke="rgb(255,0,0)" stroke-width="1.5"/>
<line x1="1202.5" y1="100.0" x2="1202.5" y2="140.0" stroke="rgb(255,0,0)" stroke-width="1.5"/>
<polygon points=" 1196,128 1210,128 1210,152 1196,152" fill="rgb(255,170,170)"/>
<text x="1197.5" y="145.0" font-family="courier" font-size="16" fill="rgb(0,0,0)">z</text>
<polygon points=" 1186,88 1220,88 1220,112 1186,112" fill="rgb(255,170,170)"/>
<text x="1187.5" y="105.0" font-family="courier" font-size="16" fill="rgb(0,0,0)">not</text>
<polygon points=" 1176,48 1200,48 1200,72 1176,72" fill="rgb(255,170,170)"/>
<text x="1177.5" y="65.0" font-family="courier" font-size="16" fill="rgb(0,0,0)">&#92;/</text>
<polygon points=" 616,8 640,8 640,32 616,32" fill="rgb(255,170,170)"/>
<text x="617.5" y="25.0" font-family="courier" font-size="16" fill="rgb(0,0,0)">/&#92;</text></svg>