<svg xmlns="http://www.w3.org/2000/svg"
xmlns:xlink="http://www.w3.org/1999/xlink"
version="1.1" baseProfile="full"
width="1150" height="160">
<line x1="583.75" y1="20.0" x2="67.5" y2="60.0" stroke="rgb(255,0,0)" stroke-width="1.5"/>
<line x1="67.5" y1="60.0" x2="45.0" y2="100.0" stroke="rgb(255,0,0)" stroke-width="1.5"/>
<line x1="45.0" y1="100.0" x2="25.0" y2="140.0" stroke="rgb(255,0,0)" stroke-width="1.5"/>
<polygon points=" 18,128 32,128 32,152 18,152" fill="rgb(170,255,170)"/>
<text x="20.0" y="145.0" font-family="courier" font-size="16" fill="rgb(0,0,0)">x</text>
<line x1="45.0" y1="100.0" x2="45.0" y2="140.0" stroke="rgb(255,0,0)" stroke-width="1.5"/>
<polygon points=" 38,128 52,128 52,152 38,152" fill="rgb(170,255,170)"/>
<text x="40.0" y="145.0" font-family="courier" font-size="16" fill="rgb(0,0,0)">y</text>
<line x1="45.0" y1="100.0" x2="65.0" y2="140.0" stroke="rgb(255,0,0)" stroke-width="1.5"/>
<polygon points=" 58,128 72,128 72,152 58,152" fill="rgb(170,255,170)"/>
<text x="60.0" y="145.0" font-family="courier" font-size="16" fill="rgb(0,0,0)">z</text>
<polygon points=" 33,88 57,88 57,112 33,112" fill="rgb(170,255,170)"/>
<text x="35.0" y="105.0" font-family="courier" font-size="16" fill="rgb(0,0,0)">/&#92;</text>
<line x1="67.5" y1="60.0" x2="90.0" y2="100.0" stroke="rgb(255,0,0)" stroke-width="1.5"/>
<polygon points=" 63,88 117,88 117,112 63,112" fill="rgb(170,255,170)"/>
<text x="65.0" y="105.0" font-family="courier" font-size="16" fill="rgb(0,0,0)">false</text>
<polygon points=" 50,48 84,48 84,72 50,72" fill="rgb(170,255,170)"/>
<text x="52.5" y="65.0" font-family="courier" font-size="16" fill="rgb(0,0,0)">==&gt;</text>
<line x1="583.75" y1="20.0" x2="142.5" y2="60.0" stroke="rgb(255,0,0)" stroke-width="1.5"/>
<line x1="142.5" y1="60.0" x2="130.0" y2="100.0" stroke="rgb(255,0,0)" stroke-width="1.5"/>
<polygon points=" 123,88 137,88 137,112 123,112" fill="rgb(170,255,170)"/>
<text x="125.0" y="105.0" font-family="courier" font-size="16" fill="rgb(0,0,0)">x</text>
<line x1="142.5" y1="60.0" x2="155.0" y2="100.0" stroke="rgb(255,0,0)" stroke-width="1.5"/>
<line x1="155.0" y1="100.0" x2="145.0" y2="140.0" stroke="rgb(255,0,0)" stroke-width="1.5"/>
<polygon points=" 138,128 152,128 152,152 138,152" fill="rgb(170,255,170)"/>
<text x="140.0" y="145.0" font-family="courier" font-size="16" fill="rgb(0,0,0)">z</text>
<line x1="155.0" y1="100.0" x2="165.0" y2="140.0" stroke="rgb(255,0,0)" stroke-width="1.5"/>
<polygon points=" 158,128 172,128 172,152 158,152" fill="rgb(170,255,170)"/>
<text x="160.0" y="145.0" font-family="courier" font-size="16" fill="rgb(0,0,0)">y</text>
<polygon points=" 143,88 167,88 167,112 143,112" fill="rgb(170,255,170)"/>
<text x="145.0" y="105.0" font-family="courier" font-size="16" fill="rgb(0,0,0)">or</text>
<polygon points=" 126,48 160,48 160,72 126,72" fill="rgb(170,255,170)"/>
<text x="127.5" y="65.0" font-family="courier" font-size="16" fill="rgb(0,0,0)">==&gt;</text>
<line x1="583.75" y1="20.0" x2="220.0" y2="60.0" stroke="rgb(255,0,0)" stroke-width="1.5"/>
<line x1="220.0" y1="60.0" x2="200.0" y2="100.0" stroke="rgb(255,0,0)" stroke-width="1.5"/>
<polygon points=" 178,88 222,88 222,112 178,112" fill="rgb(170,255,170)"/>
<text x="180.0" y="105.0" font-family="courier" font-size="16" fill="rgb(0,0,0)">true</text>
<line x1="220.0" y1="60.0" x2="240.0" y2="100.0" stroke="rgb(255,0,0)" stroke-width="1.5"/>
<line x1="240.0" y1="100.0" x2="230.0" y2="140.0" stroke="rgb(255,0,0)" stroke-width="1.5"/>
<polygon points=" 223,128 237,128 237,152 223,152" fill="rgb(170,255,170)"/>
<text x="225.0" y="145.0" font-family="courier" font-size="16" fill="rgb(0,0,0)">y</text>
<line x1="240.0" y1="100.0" x2="250.0" y2="140.0" stroke="rgb(255,0,0)" stroke-width="1.5"/>
<polygon points=" 243,128 257,128 257,152 243,152" fill="rgb(170,255,170)"/>
<text x="245.0" y="145.0" font-family="courier" font-size="16" fill="rgb(0,0,0)">x</text>
<polygon points=" 228,88 252,88 252,112 228,112" fill="rgb(170,255,170)"/>
<text x="230.0" y="105.0" font-family="courier" font-size="16" fill="rgb(0,0,0)">or</text>
<polygon points=" 203,48 237,48 237,72 203,72" fill="rgb(170,255,170)"/>
<text x="205.0" y="65.0" font-family="courier" font-size="16" fill="rgb(0,0,0)">==&gt;</text>
<line x1="583.75" y1="20.0" x2="282.5" y2="60.0" stroke="rgb(255,0,0)" stroke-width="1.5"/>
<line x1="282.5" y1="60.0" x2="270.0" y2="100.0" stroke="rgb(255,0,0)" stroke-width="1.5"/>
<polygon points=" 263,88 277,88 277,112 263,112" fill="rgb(170,255,170)"/>
<text x="265.0" y="105.0" font-family="courier" font-size="16" fill="rgb(0,0,0)">z</text>
<line x1="282.5" y1="60.0" x2="295.0" y2="100.0" stroke="rgb(255,0,0)" stroke-width="1.5"/>
<line x1="295.0" y1="100.0" x2="285.0" y2="140.0" stroke="rgb(255,0,0)" stroke-width="1.5"/>
<polygon points=" 278,128 292,128 292,152 278,152" fill="rgb(170,255,170)"/>
<text x="280.0" y="145.0" font-family="courier" font-size="16" fill="rgb(0,0,0)">y</text>
<line x1="295.0" y1="100.0" x2="305.0" y2="140.0" stroke="rgb(255,0,0)" stroke-width="1.5"/>
<polygon points=" 298,128 312,128 312,152 298,152" fill="rgb(170,255,170)"/>
<text x="300.0" y="145.0" font-family="courier" font-size="16" fill="rgb(0,0,0)">x</text>
<polygon points=" 283,88 307,88 307,112 283,112" fill="rgb(170,255,170)"/>
<text x="285.0" y="105.0" font-family="courier" font-size="16" fill="rgb(0,0,0)">or</text>
<polygon points=" 266,48 300,48 300,72 266,72" fill="rgb(170,255,170)"/>
<text x="267.5" y="65.0" font-family="courier" font-size="16" fill="rgb(0,0,0)">==&gt;</text>
<line x1="583.75" y1="20.0" x2="360.0" y2="60.0" stroke="rgb(255,0,0)" stroke-width="1.5"/>
<line x1="360.0" y1="60.0" x2="325.0" y2="100.0" stroke="rgb(255,0,0)" stroke-width="1.5"/>
<polygon points=" 318,88 332,88 332,112 318,112" fill="rgb(170,255,170)"/>
<text x="320.0" y="105.0" font-family="courier" font-size="16" fill="rgb(0,0,0)">y</text>
<line x1="360.0" y1="60.0" x2="355.0" y2="100.0" stroke="rgb(255,0,0)" stroke-width="1.5"/>
<line x1="355.0" y1="100.0" x2="355.0" y2="140.0" stroke="rgb(255,0,0)" stroke-width="1.5"/>
<polygon points=" 348,128 362,128 362,152 348,152" fill="rgb(170,255,170)"/>
<text x="350.0" y="145.0" font-family="courier" font-size="16" fill="rgb(0,0,0)">y</text>
<polygon points=" 338,88 372,88 372,112 338,112" fill="rgb(170,255,170)"/>
<text x="340.0" y="105.0" font-family="courier" font-size="16" fill="rgb(0,0,0)">not</text>
<line x1="360.0" y1="60.0" x2="395.0" y2="100.0" stroke="rgb(255,0,0)" stroke-width="1.5"/>
<line x1="395.0" y1="100.0" x2="395.0" y2="140.0" stroke="rgb(255,0,0)" stroke-width="1.5"/>
<polygon points=" 388,128 402,128 402,152 388,152" fill="rgb(170,255,170)"/>
<text x="390.0" y="145.0" font-family="courier" font-size="16" fill="rgb(0,0,0)">z</text>
<polygon points=" 378,88 412,88 412,112 378,112" fill="rgb(170,255,170)"/>
<text x="380.0" y="105.0" font-family="courier" font-size="16" fill="rgb(0,0,0)">not</text>
<polygon points=" 348,48 372,48 372,72 348,72" fill="rgb(170,255,170)"/>
<text x="350.0" y="65.0" font-family="courier" font-size="16" fill="rgb(0,0,0)">&#92;/</text>
<line x1="583.75" y1="20.0" x2="445.0" y2="60.0" stroke="rgb(255,0,0)" stroke-width="1.5"/>
<line x1="445.0" y1="60.0" x2="425.0" y2="100.0" stroke="rgb(255,0,0)" stroke-width="1.5"/>
<polygon points=" 418,88 432,88 432,112 418,112" fill="rgb(170,255,170)"/>
<text x="420.0" y="105.0" font-family="courier" font-size="16" fill="rgb(0,0,0)">y</text>
<line x1="445.0" y1="60.0" x2="445.0" y2="100.0" stroke="rgb(255,0,0)" stroke-width="1.5"/>
<polygon points=" 438,88 452,88 452,112 438,112" fill="rgb(170,255,170)"/>
<text x="440.0" y="105.0" font-family="courier" font-size="16" fill="rgb(0,0,0)">z</text>
<line x1="445.0" y1="60.0" x2="465.0" y2="100.0" stroke="rgb(255,0,0)" stroke-width="1.5"/>
<polygon points=" 458,88 472,88 472,112 458,112" fill="rgb(170,255,170)"/>
<text x="460.0" y="105.0" font-family="courier" font-size="16" fill="rgb(0,0,0)">x</text>
<polygon points=" 433,48 457,48 457,72 433,72" fill="rgb(170,255,170)"/>
<text x="435.0" y="65.0" font-family="courier" font-size="16" fill="rgb(0,0,0)">&#92;/</text>
<line x1="583.75" y1="20.0" x2="495.0" y2="60.0" stroke="rgb(255,0,0)" stroke-width="1.5"/>
<line x1="495.0" y1="60.0" x2="485.0" y2="100.0" stroke="rgb(255,0,0)" stroke-width="1.5"/>
<polygon points=" 478,88 492,88 492,112 478,112" fill="rgb(170,255,170)"/>
<text x="480.0" y="105.0" font-family="courier" font-size="16" fill="rgb(0,0,0)">y</text>
<line x1="495.0" y1="60.0" x2="505.0" y2="100.0" stroke="rgb(255,0,0)" stroke-width="1.5"/>
<polygon points=" 498,88 512,88 512,112 498,112" fill="rgb(170,255,170)"/>
<text x="500.0" y="105.0" font-family="courier" font-size="16" fill="rgb(0,0,0)">z</text>
<polygon points=" 483,48 507,48 507,72 483,72" fill="rgb(170,255,170)"/>
<text x="485.0" y="65.0" font-family="courier" font-size="16" fill="rgb(0,0,0)">&#92;/</text>
<line x1="583.75" y1="20.0" x2="550.0" y2="60.0" stroke="rgb(255,0,0)" stroke-width="1.5"/>
<line x1="550.0" y1="60.0" x2="525.0" y2="100.0" stroke="rgb(255,0,0)" stroke-width="1.5"/>
<polygon points=" 518,88 532,88 532,112 518,112" fill="rgb(170,255,170)"/>
<text x="520.0" y="105.0" font-family="courier" font-size="16" fill="rgb(0,0,0)">y</text>
<line x1="550.0" y1="60.0" x2="545.0" y2="100.0" stroke="rgb(255,0,0)" stroke-width="1.5"/>
<polygon points=" 538,88 552,88 552,112 538,112" fill="rgb(170,255,170)"/>
<text x="540.0" y="105.0" font-family="courier" font-size="16" fill="rgb(0,0,0)">z</text>
<line x1="550.0" y1="60.0" x2="575.0" y2="100.0" stroke="rgb(255,0,0)" stroke-width="1.5"/>
<line x1="575.0" y1="100.0" x2="575.0" y2="140.0" stroke="rgb(255,0,0)" stroke-width="1.5"/>
<polygon points=" 568,128 582,128 582,152 568,152" fill="rgb(170,255,170)"/>
<text x="570.0" y="145.0" font-family="courier" font-size="16" fill="rgb(0,0,0)">z</text>
<polygon points=" 558,88 592,88 592,112 558,112" fill="rgb(170,255,170)"/>
<text x="560.0" y="105.0" font-family="courier" font-size="16" fill="rgb(0,0,0)">not</text>
<polygon points=" 538,48 562,48 562,72 538,72" fill="rgb(170,255,170)"/>
<text x="540.0" y="65.0" font-family="courier" font-size="16" fill="rgb(0,0,0)">&#92;/</text>
<line x1="583.75" y1="20.0" x2="615.0" y2="60.0" stroke="rgb(255,0,0)" stroke-width="1.5"/>
<line x1="615.0" y1="60.0" x2="605.0" y2="100.0" stroke="rgb(255,0,0)" stroke-width="1.5"/>
<polygon points=" 598,88 612,88 612,112 598,112" fill="rgb(170,255,170)"/>
<text x="600.0" y="105.0" font-family="courier" font-size="16" fill="rgb(0,0,0)">z</text>
<line x1="615.0" y1="60.0" x2="625.0" y2="100.0" stroke="rgb(255,0,0)" stroke-width="1.5"/>
<polygon points=" 618,88 632,88 632,112 618,112" fill="rgb(170,255,170)"/>
<text x="620.0" y="105.0" font-family="courier" font-size="16" fill="rgb(0,0,0)">x</text>
<polygon points=" 603,48 627,48 627,72 603,72" fill="rgb(170,255,170)"/>
<text x="605.0" y="65.0" font-family="courier" font-size="16" fill="rgb(0,0,0)">&#92;/</text>
<line x1="583.75" y1="20.0" x2="665.0" y2="60.0" stroke="rgb(255,0,0)" stroke-width="1.5"/>
<line x1="665.0" y1="60.0" x2="645.0" y2="100.0" stroke="rgb(255,0,0)" stroke-width="1.5"/>
<polygon points=" 638,88 652,88 652,112 638,112" fill="rgb(170,255,170)"/>
<text x="640.0" y="105.0" font-family="courier" font-size="16" fill="rgb(0,0,0)">z</text>
<line x1="665.0" y1="60.0" x2="665.0" y2="100.0" stroke="rgb(255,0,0)" stroke-width="1.5"/>
<polygon points=" 658,88 672,88 672,112 658,112" fill="rgb(170,255,170)"/>
<text x="660.0" y="105.0" font-family="courier" font-size="16" fill="rgb(0,0,0)">x</text>
<line x1="665.0" y1="60.0" x2="685.0" y2="100.0" stroke="rgb(255,0,0)" stroke-width="1.5"/>
<polygon points=" 678,88 692,88 692,112 678,112" fill="rgb(170,255,170)"/>
<text x="680.0" y="105.0" font-family="courier" font-size="16" fill="rgb(0,0,0)">y</text>
<polygon points=" 653,48 677,48 677,72 653,72" fill="rgb(170,255,170)"/>
<text x="655.0" y="65.0" font-family="courier" font-size="16" fill="rgb(0,0,0)">&#92;/</text>
<line x1="583.75" y1="20.0" x2="730.0" y2="60.0" stroke="rgb(255,0,0)" stroke-width="1.5"/>
<line x1="730.0" y1="60.0" x2="705.0" y2="100.0" stroke="rgb(255,0,0)" stroke-width="1.5"/>
<polygon points=" 698,88 712,88 712,112 698,112" fill="rgb(170,255,170)"/>
<text x="700.0" y="105.0" font-family="courier" font-size="16" fill="rgb(0,0,0)">z</text>
<line x1="730.0" y1="60.0" x2="725.0" y2="100.0" stroke="rgb(255,0,0)" stroke-width="1.5"/>
<polygon points=" 718,88 732,88 732,112 718,112" fill="rgb(170,255,170)"/>
<text x="720.0" y="105.0" font-family="courier" font-size="16" fill="rgb(0,0,0)">x</text>
<line x1="730.0" y1="60.0" x2="755.0" y2="100.0" stroke="rgb(255,0,0)" stroke-width="1.5"/>
<line x1="755.0" y1="100.0" x2="755.0" y2="140.0" stroke="rgb(255,0,0)" stroke-width="1.5"/>
<polygon points=" 748,128 762,128 762,152 748,152" fill="rgb(170,255,170)"/>
<text x="750.0" y="145.0" font-family="courier" font-size="16" fill="rgb(0,0,0)">z</text>
<polygon points=" 738,88 772,88 772,112 738,112" fill="rgb(170,255,170)"/>
<text x="740.0" y="105.0" font-family="courier" font-size="16" fill="rgb(0,0,0)">not</text>
<polygon points=" 718,48 742,48 742,72 718,72" fill="rgb(170,255,170)"/>
<text x="720.0" y="65.0" font-family="courier" font-size="16" fill="rgb(0,0,0)">&#92;/</text>
<line x1="583.75" y1="20.0" x2="815.0" y2="60.0" stroke="rgb(255,0,0)" stroke-width="1.5"/>
<line x1="815.0" y1="60.0" x2="785.0" y2="100.0" stroke="rgb(255,0,0)" stroke-width="1.5"/>
<polygon points=" 778,88 792,88 792,112 778,112" fill="rgb(170,255,170)"/>
<text x="780.0" y="105.0" font-family="courier" font-size="16" fill="rgb(0,0,0)">z</text>
<line x1="815.0" y1="60.0" x2="815.0" y2="100.0" stroke="rgb(255,0,0)" stroke-width="1.5"/>
<line x1="815.0" y1="100.0" x2="815.0" y2="140.0" stroke="rgb(255,0,0)" stroke-width="1.5"/>
<polygon points=" 808,128 822,128 822,152 808,152" fill="rgb(170,255,170)"/>
<text x="810.0" y="145.0" font-family="courier" font-size="16" fill="rgb(0,0,0)">y</text>
<polygon points=" 798,88 832,88 832,112 798,112" fill="rgb(170,255,170)"/>
<text x="800.0" y="105.0" font-family="courier" font-size="16" fill="rgb(0,0,0)">not</text>
<line x1="815.0" y1="60.0" x2="845.0" y2="100.0" stroke="rgb(255,0,0)" stroke-width="1.5"/>
<polygon points=" 838,88 852,88 852,112 838,112" fill="rgb(170,255,170)"/>
<text x="840.0" y="105.0" font-family="courier" font-size="16" fill="rgb(0,0,0)">x</text>
<polygon points=" 803,48 827,48 827,72 803,72" fill="rgb(170,255,170)"/>
<text x="805.0" y="65.0" font-family="courier" font-size="16" fill="rgb(0,0,0)">&#92;/</text>
<line x1="583.75" y1="20.0" x2="895.0" y2="60.0" stroke="rgb(255,0,0)" stroke-width="1.5"/>
<line x1="895.0" y1="60.0" x2="865.0" y2="100.0" stroke="rgb(255,0,0)" stroke-width="1.5"/>
<polygon points=" 858,88 872,88 872,112 858,112" fill="rgb(170,255,170)"/>
<text x="860.0" y="105.0" font-family="courier" font-size="16" fill="rgb(0,0,0)">z</text>
<line x1="895.0" y1="60.0" x2="895.0" y2="100.0" stroke="rgb(255,0,0)" stroke-width="1.5"/>
<line x1="895.0" y1="100.0" x2="895.0" y2="140.0" stroke="rgb(255,0,0)" stroke-width="1.5"/>
<polygon points=" 888,128 902,128 902,152 888,152" fill="rgb(170,255,170)"/>
<text x="890.0" y="145.0" font-family="courier" font-size="16" fill="rgb(0,0,0)">y</text>
<polygon points=" 878,88 912,88 912,112 878,112" fill="rgb(170,255,170)"/>
<text x="880.0" y="105.0" font-family="courier" font-size="16" fill="rgb(0,0,0)">not</text>
<line x1="895.0" y1="60.0" x2="925.0" y2="100.0" stroke="rgb(255,0,0)" stroke-width="1.5"/>
<polygon points=" 918,88 932,88 932,112 918,112" fill="rgb(170,255,170)"/>
<text x="920.0" y="105.0" font-family="courier" font-size="16" fill="rgb(0,0,0)">y</text>
<polygon points=" 883,48 907,48 907,72 883,72" fill="rgb(170,255,170)"/>
<text x="885.0" y="65.0" font-family="courier" font-size="16" fill="rgb(0,0,0)">&#92;/</text>
<line x1="583.75" y1="20.0" x2="980.0" y2="60.0" stroke="rgb(255,0,0)" stroke-width="1.5"/>
<line x1="980.0" y1="60.0" x2="945.0" y2="100.0" stroke="rgb(255,0,0)" stroke-width="1.5"/>
<polygon points=" 938,88 952,88 952,112 938,112" fill="rgb(170,255,170)"/>
<text x="940.0" y="105.0" font-family="courier" font-size="16" fill="rgb(0,0,0)">z</text>
<line x1="980.0" y1="60.0" x2="975.0" y2="100.0" stroke="rgb(255,0,0)" stroke-width="1.5"/>
<line x1="975.0" y1="100.0" x2="975.0" y2="140.0" stroke="rgb(255,0,0)" stroke-width="1.5"/>
<polygon points=" 968,128 982,128 982,152 968,152" fill="rgb(170,255,170)"/>
<text x="970.0" y="145.0" font-family="courier" font-size="16" fill="rgb(0,0,0)">y</text>
<polygon points=" 958,88 992,88 992,112 958,112" fill="rgb(170,255,170)"/>
<text x="960.0" y="105.0" font-family="courier" font-size="16" fill="rgb(0,0,0)">not</text>
<line x1="980.0" y1="60.0" x2="1015.0" y2="100.0" stroke="rgb(255,0,0)" stroke-width="1.5"/>
<line x1="1015.0" y1="100.0" x2="1015.0" y2="140.0" stroke="rgb(255,0,0)" stroke-width="1.5"/>
<polygon points=" 1008,128 1022,128 1022,152 1008,152" fill="rgb(170,255,170)"/>
<text x="1010.0" y="145.0" font-family="courier" font-size="16" fill="rgb(0,0,0)">z</text>
<polygon points=" 998,88 1032,88 1032,112 998,112" fill="rgb(170,255,170)"/>
<text x="1000.0" y="105.0" font-family="courier" font-size="16" fill="rgb(0,0,0)">not</text>
<polygon points=" 968,48 992,48 992,72 968,72" fill="rgb(170,255,170)"/>
<text x="970.0" y="65.0" font-family="courier" font-size="16" fill="rgb(0,0,0)">&#92;/</text>
<line x1="583.75" y1="20.0" x2="1055.0" y2="60.0" stroke="rgb(255,0,0)" stroke-width="1.5"/>
<line x1="1055.0" y1="60.0" x2="1045.0" y2="100.0" stroke="rgb(255,0,0)" stroke-width="1.5"/>
<polygon points=" 1038,88 1052,88 1052,112 1038,112" fill="rgb(170,255,170)"/>
<text x="1040.0" y="105.0" font-family="courier" font-size="16" fill="rgb(0,0,0)">z</text>
<line x1="1055.0" y1="60.0" x2="1065.0" y2="100.0" stroke="rgb(255,0,0)" stroke-width="1.5"/>
<polygon points=" 1058,88 1072,88 1072,112 1058,112" fill="rgb(170,255,170)"/>
<text x="1060.0" y="105.0" font-family="courier" font-size="16" fill="rgb(0,0,0)">y</text>
<polygon points=" 1043,48 1067,48 1067,72 1043,72" fill="rgb(170,255,170)"/>
<text x="1045.0" y="65.0" font-family="courier" font-size="16" fill="rgb(0,0,0)">&#92;/</text>
<line x1="583.75" y1="20.0" x2="1100.0" y2="60.0" stroke="rgb(255,0,0)" stroke-width="1.5"/>
<line x1="1100.0" y1="60.0" x2="1085.0" y2="100.0" stroke="rgb(255,0,0)" stroke-width="1.5"/>
<polygon points=" 1078,88 1092,88 1092,112 1078,112" fill="rgb(170,255,170)"/>
<text x="1080.0" y="105.0" font-family="courier" font-size="16" fill="rgb(0,0,0)">z</text>
<line x1="1100.0" y1="60.0" x2="1115.0" y2="100.0" stroke="rgb(255,0,0)" stroke-width="1.5"/>
<line x1="1115.0" y1="100.0" x2="1115.0" y2="140.0" stroke="rgb(255,0,0)" stroke-width="1.5"/>
<polygon points=" 1108,128 1122,128 1122,152 1108,152" fill="rgb(170,255,170)"/>
<text x="1110.0" y="145.0" font-family="courier" font-size="16" fill="rgb(0,0,0)">z</text>
<polygon points=" 1098,88 1132,88 1132,112 1098,112" fill="rgb(170,255,170)"/>
<text x="1100.0" y="105.0" font-family="courier" font-size="16" fill="rgb(0,0,0)">not</text>
<polygon points=" 1088,48 1112,48 1112,72 1088,72" fill="rgb(170,255,170)"/>
<text x="1090.0" y="65.0" font-family="courier" font-size="16" fill="rgb(0,0,0)">&#92;/</text>
<polygon points=" 572,8 596,8 596,32 572,32" fill="rgb(170,255,170)"/>
<text x="573.75" y="25.0" font-family="courier" font-size="16" fill="rgb(0,0,0)">/&#92;</text></svg>