<svg xmlns="http://www.w3.org/2000/svg"
xmlns:xlink="http://www.w3.org/1999/xlink"
version="1.1" baseProfile="full"
width="1045" height="160">
<line x1="531.25" y1="20.0" x2="67.5" y2="60.0" stroke="rgb(255,0,0)" stroke-width="1.5"/>
<line x1="67.5" y1="60.0" x2="45.0" y2="100.0" stroke="rgb(255,0,0)" stroke-width="1.5"/>
<line x1="45.0" y1="100.0" x2="25.0" y2="140.0" stroke="rgb(255,0,0)" stroke-width="1.5"/>
<polygon points=" 18,128 32,128 32,152 18,152" fill="rgb(255,255,170)"/>
<text x="20.0" y="145.0" font-family="courier" font-size="16" fill="rgb(0,0,0)">x</text>
<line x1="45.0" y1="100.0" x2="45.0" y2="140.0" stroke="rgb(255,0,0)" stroke-width="1.5"/>
<polygon points=" 38,128 52,128 52,152 38,152" fill="rgb(255,255,170)"/>
<text x="40.0" y="145.0" font-family="courier" font-size="16" fill="rgb(0,0,0)">y</text>
<line x1="45.0" y1="100.0" x2="65.0" y2="140.0" stroke="rgb(255,0,0)" stroke-width="1.5"/>
<polygon points=" 58,128 72,128 72,152 58,152" fill="rgb(255,255,170)"/>
<text x="60.0" y="145.0" font-family="courier" font-size="16" fill="rgb(0,0,0)">z</text>
<polygon points=" 33,88 57,88 57,112 33,112" fill="rgb(255,255,170)"/>
<text x="35.0" y="105.0" font-family="courier" font-size="16" fill="rgb(0,0,0)">/&#92;</text>
<line x1="67.5" y1="60.0" x2="90.0" y2="100.0" stroke="rgb(255,0,0)" stroke-width="1.5"/>
<polygon points=" 63,88 117,88 117,112 63,112" fill="rgb(255,255,170)"/>
<text x="65.0" y="105.0" font-family="courier" font-size="16" fill="rgb(0,0,0)">false</text>
<polygon points=" 50,48 84,48 84,72 50,72" fill="rgb(255,255,170)"/>
<text x="52.5" y="65.0" font-family="courier" font-size="16" fill="rgb(0,0,0)">==&gt;</text>
<line x1="531.25" y1="20.0" x2="142.5" y2="60.0" stroke="rgb(255,0,0)" stroke-width="1.5"/>
<line x1="142.5" y1="60.0" x2="130.0" y2="100.0" stroke="rgb(255,0,0)" stroke-width="1.5"/>
<polygon points=" 123,88 137,88 137,112 123,112" fill="rgb(255,255,170)"/>
<text x="125.0" y="105.0" font-family="courier" font-size="16" fill="rgb(0,0,0)">x</text>
<line x1="142.5" y1="60.0" x2="155.0" y2="100.0" stroke="rgb(255,0,0)" stroke-width="1.5"/>
<line x1="155.0" y1="100.0" x2="145.0" y2="140.0" stroke="rgb(255,0,0)" stroke-width="1.5"/>
<polygon points=" 138,128 152,128 152,152 138,152" fill="rgb(255,255,170)"/>
<text x="140.0" y="145.0" font-family="courier" font-size="16" fill="rgb(0,0,0)">z</text>
<line x1="155.0" y1="100.0" x2="165.0" y2="140.0" stroke="rgb(255,0,0)" stroke-width="1.5"/>
<polygon points=" 158,128 172,128 172,152 158,152" fill="rgb(255,255,170)"/>
<text x="160.0" y="145.0" font-family="courier" font-size="16" fill="rgb(0,0,0)">y</text>
<polygon points=" 143,88 167,88 167,112 143,112" fill="rgb(255,255,170)"/>
<text x="145.0" y="105.0" font-family="courier" font-size="16" fill="rgb(0,0,0)">or</text>
<polygon points=" 126,48 160,48 160,72 126,72" fill="rgb(255,255,170)"/>
<text x="127.5" y="65.0" font-family="courier" font-size="16" fill="rgb(0,0,0)">==&gt;</text>
<line x1="531.25" y1="20.0" x2="220.0" y2="60.0" stroke="rgb(255,0,0)" stroke-width="1.5"/>
<line x1="220.0" y1="60.0" x2="200.0" y2="100.0" stroke="rgb(255,0,0)" stroke-width="1.5"/>
<polygon points=" 178,88 222,88 222,112 178,112" fill="rgb(255,255,170)"/>
<text x="180.0" y="105.0" font-family="courier" font-size="16" fill="rgb(0,0,0)">true</text>
<line x1="220.0" y1="60.0" x2="240.0" y2="100.0" stroke="rgb(255,0,0)" stroke-width="1.5"/>
<line x1="240.0" y1="100.0" x2="230.0" y2="140.0" stroke="rgb(255,0,0)" stroke-width="1.5"/>
<polygon points=" 223,128 237,128 237,152 223,152" fill="rgb(255,255,170)"/>
<text x="225.0" y="145.0" font-family="courier" font-size="16" fill="rgb(0,0,0)">y</text>
<line x1="240.0" y1="100.0" x2="250.0" y2="140.0" stroke="rgb(255,0,0)" stroke-width="1.5"/>
<polygon points=" 243,128 257,128 257,152 243,152" fill="rgb(255,255,170)"/>
<text x="245.0" y="145.0" font-family="courier" font-size="16" fill="rgb(0,0,0)">x</text>
<polygon points=" 228,88 252,88 252,112 228,112" fill="rgb(255,255,170)"/>
<text x="230.0" y="105.0" font-family="courier" font-size="16" fill="rgb(0,0,0)">or</text>
<polygon points=" 203,48 237,48 237,72 203,72" fill="rgb(255,255,170)"/>
<text x="205.0" y="65.0" font-family="courier" font-size="16" fill="rgb(0,0,0)">==&gt;</text>
<line x1="531.25" y1="20.0" x2="282.5" y2="60.0" stroke="rgb(255,0,0)" stroke-width="1.5"/>
<line x1="282.5" y1="60.0" x2="270.0" y2="100.0" stroke="rgb(255,0,0)" stroke-width="1.5"/>
<polygon points=" 263,88 277,88 277,112 263,112" fill="rgb(255,255,170)"/>
<text x="265.0" y="105.0" font-family="courier" font-size="16" fill="rgb(0,0,0)">z</text>
<line x1="282.5" y1="60.0" x2="295.0" y2="100.0" stroke="rgb(255,0,0)" stroke-width="1.5"/>
<line x1="295.0" y1="100.0" x2="285.0" y2="140.0" stroke="rgb(255,0,0)" stroke-width="1.5"/>
<polygon points=" 278,128 292,128 292,152 278,152" fill="rgb(255,255,170)"/>
<text x="280.0" y="145.0" font-family="courier" font-size="16" fill="rgb(0,0,0)">y</text>
<line x1="295.0" y1="100.0" x2="305.0" y2="140.0" stroke="rgb(255,0,0)" stroke-width="1.5"/>
<polygon points=" 298,128 312,128 312,152 298,152" fill="rgb(255,255,170)"/>
<text x="300.0" y="145.0" font-family="courier" font-size="16" fill="rgb(0,0,0)">x</text>
<polygon points=" 283,88 307,88 307,112 283,112" fill="rgb(255,255,170)"/>
<text x="285.0" y="105.0" font-family="courier" font-size="16" fill="rgb(0,0,0)">or</text>
<polygon points=" 266,48 300,48 300,72 266,72" fill="rgb(255,255,170)"/>
<text x="267.5" y="65.0" font-family="courier" font-size="16" fill="rgb(0,0,0)">==&gt;</text>
<line x1="531.25" y1="20.0" x2="340.0" y2="60.0" stroke="rgb(255,0,0)" stroke-width="1.5"/>
<line x1="340.0" y1="60.0" x2="320.0" y2="100.0" stroke="rgb(255,0,0)" stroke-width="1.5"/>
<polygon points=" 313,88 327,88 327,112 313,112" fill="rgb(255,170,170)"/>
<text x="315.0" y="105.0" font-family="courier" font-size="16" fill="rgb(0,0,0)">y</text>
<line x1="340.0" y1="60.0" x2="340.0" y2="100.0" stroke="rgb(255,0,0)" stroke-width="1.5"/>
<polygon points=" 333,88 347,88 347,112 333,112" fill="rgb(255,170,170)"/>
<text x="335.0" y="105.0" font-family="courier" font-size="16" fill="rgb(0,0,0)">z</text>
<line x1="340.0" y1="60.0" x2="360.0" y2="100.0" stroke="rgb(255,0,0)" stroke-width="1.5"/>
<polygon points=" 353,88 367,88 367,112 353,112" fill="rgb(255,170,170)"/>
<text x="355.0" y="105.0" font-family="courier" font-size="16" fill="rgb(0,0,0)">x</text>
<polygon points=" 328,48 352,48 352,72 328,72" fill="rgb(255,170,170)"/>
<text x="330.0" y="65.0" font-family="courier" font-size="16" fill="rgb(0,0,0)">&#92;/</text>
<line x1="531.25" y1="20.0" x2="390.0" y2="60.0" stroke="rgb(255,0,0)" stroke-width="1.5"/>
<line x1="390.0" y1="60.0" x2="380.0" y2="100.0" stroke="rgb(255,0,0)" stroke-width="1.5"/>
<polygon points=" 373,88 387,88 387,112 373,112" fill="rgb(255,255,170)"/>
<text x="375.0" y="105.0" font-family="courier" font-size="16" fill="rgb(0,0,0)">y</text>
<line x1="390.0" y1="60.0" x2="400.0" y2="100.0" stroke="rgb(255,0,0)" stroke-width="1.5"/>
<polygon points=" 393,88 407,88 407,112 393,112" fill="rgb(255,255,170)"/>
<text x="395.0" y="105.0" font-family="courier" font-size="16" fill="rgb(0,0,0)">z</text>
<polygon points=" 378,48 402,48 402,72 378,72" fill="rgb(255,255,170)"/>
<text x="380.0" y="65.0" font-family="courier" font-size="16" fill="rgb(0,0,0)">&#92;/</text>
<line x1="531.25" y1="20.0" x2="445.0" y2="60.0" stroke="rgb(255,0,0)" stroke-width="1.5"/>
<line x1="445.0" y1="60.0" x2="420.0" y2="100.0" stroke="rgb(255,0,0)" stroke-width="1.5"/>
<polygon points=" 413,88 427,88 427,112 413,112" fill="rgb(255,255,170)"/>
<text x="415.0" y="105.0" font-family="courier" font-size="16" fill="rgb(0,0,0)">y</text>
<line x1="445.0" y1="60.0" x2="440.0" y2="100.0" stroke="rgb(255,0,0)" stroke-width="1.5"/>
<polygon points=" 433,88 447,88 447,112 433,112" fill="rgb(255,255,170)"/>
<text x="435.0" y="105.0" font-family="courier" font-size="16" fill="rgb(0,0,0)">z</text>
<line x1="445.0" y1="60.0" x2="470.0" y2="100.0" stroke="rgb(255,0,0)" stroke-width="1.5"/>
<line x1="470.0" y1="100.0" x2="470.0" y2="140.0" stroke="rgb(255,0,0)" stroke-width="1.5"/>
<polygon points=" 463,128 477,128 477,152 463,152" fill="rgb(255,255,170)"/>
<text x="465.0" y="145.0" font-family="courier" font-size="16" fill="rgb(0,0,0)">z</text>
<polygon points=" 453,88 487,88 487,112 453,112" fill="rgb(255,255,170)"/>
<text x="455.0" y="105.0" font-family="courier" font-size="16" fill="rgb(0,0,0)">not</text>
<polygon points=" 433,48 457,48 457,72 433,72" fill="rgb(255,255,170)"/>
<text x="435.0" y="65.0" font-family="courier" font-size="16" fill="rgb(0,0,0)">&#92;/</text>
<line x1="531.25" y1="20.0" x2="510.0" y2="60.0" stroke="rgb(255,0,0)" stroke-width="1.5"/>
<line x1="510.0" y1="60.0" x2="500.0" y2="100.0" stroke="rgb(255,0,0)" stroke-width="1.5"/>
<polygon points=" 493,88 507,88 507,112 493,112" fill="rgb(255,255,170)"/>
<text x="495.0" y="105.0" font-family="courier" font-size="16" fill="rgb(0,0,0)">z</text>
<line x1="510.0" y1="60.0" x2="520.0" y2="100.0" stroke="rgb(255,0,0)" stroke-width="1.5"/>
<polygon points=" 513,88 527,88 527,112 513,112" fill="rgb(255,255,170)"/>
<text x="515.0" y="105.0" font-family="courier" font-size="16" fill="rgb(0,0,0)">x</text>
<polygon points=" 498,48 522,48 522,72 498,72" fill="rgb(255,255,170)"/>
<text x="500.0" y="65.0" font-family="courier" font-size="16" fill="rgb(0,0,0)">&#92;/</text>
<line x1="531.25" y1="20.0" x2="560.0" y2="60.0" stroke="rgb(255,0,0)" stroke-width="1.5"/>
<line x1="560.0" y1="60.0" x2="540.0" y2="100.0" stroke="rgb(255,0,0)" stroke-width="1.5"/>
<polygon points=" 533,88 547,88 547,112 533,112" fill="rgb(255,255,170)"/>
<text x="535.0" y="105.0" font-family="courier" font-size="16" fill="rgb(0,0,0)">z</text>
<line x1="560.0" y1="60.0" x2="560.0" y2="100.0" stroke="rgb(255,0,0)" stroke-width="1.5"/>
<polygon points=" 553,88 567,88 567,112 553,112" fill="rgb(255,255,170)"/>
<text x="555.0" y="105.0" font-family="courier" font-size="16" fill="rgb(0,0,0)">x</text>
<line x1="560.0" y1="60.0" x2="580.0" y2="100.0" stroke="rgb(255,0,0)" stroke-width="1.5"/>
<polygon points=" 573,88 587,88 587,112 573,112" fill="rgb(255,255,170)"/>
<text x="575.0" y="105.0" font-family="courier" font-size="16" fill="rgb(0,0,0)">y</text>
<polygon points=" 548,48 572,48 572,72 548,72" fill="rgb(255,255,170)"/>
<text x="550.0" y="65.0" font-family="courier" font-size="16" fill="rgb(0,0,0)">&#92;/</text>
<line x1="531.25" y1="20.0" x2="625.0" y2="60.0" stroke="rgb(255,0,0)" stroke-width="1.5"/>
<line x1="625.0" y1="60.0" x2="600.0" y2="100.0" stroke="rgb(255,0,0)" stroke-width="1.5"/>
<polygon points=" 593,88 607,88 607,112 593,112" fill="rgb(255,255,170)"/>
<text x="595.0" y="105.0" font-family="courier" font-size="16" fill="rgb(0,0,0)">z</text>
<line x1="625.0" y1="60.0" x2="620.0" y2="100.0" stroke="rgb(255,0,0)" stroke-width="1.5"/>
<polygon points=" 613,88 627,88 627,112 613,112" fill="rgb(255,255,170)"/>
<text x="615.0" y="105.0" font-family="courier" font-size="16" fill="rgb(0,0,0)">x</text>
<line x1="625.0" y1="60.0" x2="650.0" y2="100.0" stroke="rgb(255,0,0)" stroke-width="1.5"/>
<line x1="650.0" y1="100.0" x2="650.0" y2="140.0" stroke="rgb(255,0,0)" stroke-width="1.5"/>
<polygon points=" 643,128 657,128 657,152 643,152" fill="rgb(255,255,170)"/>
<text x="645.0" y="145.0" font-family="courier" font-size="16" fill="rgb(0,0,0)">z</text>
<polygon points=" 633,88 667,88 667,112 633,112" fill="rgb(255,255,170)"/>
<text x="635.0" y="105.0" font-family="courier" font-size="16" fill="rgb(0,0,0)">not</text>
<polygon points=" 613,48 637,48 637,72 613,72" fill="rgb(255,255,170)"/>
<text x="615.0" y="65.0" font-family="courier" font-size="16" fill="rgb(0,0,0)">&#92;/</text>
<line x1="531.25" y1="20.0" x2="710.0" y2="60.0" stroke="rgb(255,0,0)" stroke-width="1.5"/>
<line x1="710.0" y1="60.0" x2="680.0" y2="100.0" stroke="rgb(255,0,0)" stroke-width="1.5"/>
<polygon points=" 673,88 687,88 687,112 673,112" fill="rgb(255,255,170)"/>
<text x="675.0" y="105.0" font-family="courier" font-size="16" fill="rgb(0,0,0)">z</text>
<line x1="710.0" y1="60.0" x2="710.0" y2="100.0" stroke="rgb(255,0,0)" stroke-width="1.5"/>
<line x1="710.0" y1="100.0" x2="710.0" y2="140.0" stroke="rgb(255,0,0)" stroke-width="1.5"/>
<polygon points=" 703,128 717,128 717,152 703,152" fill="rgb(255,255,170)"/>
<text x="705.0" y="145.0" font-family="courier" font-size="16" fill="rgb(0,0,0)">y</text>
<polygon points=" 693,88 727,88 727,112 693,112" fill="rgb(255,255,170)"/>
<text x="695.0" y="105.0" font-family="courier" font-size="16" fill="rgb(0,0,0)">not</text>
<line x1="710.0" y1="60.0" x2="740.0" y2="100.0" stroke="rgb(255,0,0)" stroke-width="1.5"/>
<polygon points=" 733,88 747,88 747,112 733,112" fill="rgb(255,255,170)"/>
<text x="735.0" y="105.0" font-family="courier" font-size="16" fill="rgb(0,0,0)">x</text>
<polygon points=" 698,48 722,48 722,72 698,72" fill="rgb(255,255,170)"/>
<text x="700.0" y="65.0" font-family="courier" font-size="16" fill="rgb(0,0,0)">&#92;/</text>
<line x1="531.25" y1="20.0" x2="790.0" y2="60.0" stroke="rgb(255,0,0)" stroke-width="1.5"/>
<line x1="790.0" y1="60.0" x2="760.0" y2="100.0" stroke="rgb(255,0,0)" stroke-width="1.5"/>
<polygon points=" 753,88 767,88 767,112 753,112" fill="rgb(255,255,170)"/>
<text x="755.0" y="105.0" font-family="courier" font-size="16" fill="rgb(0,0,0)">z</text>
<line x1="790.0" y1="60.0" x2="790.0" y2="100.0" stroke="rgb(255,0,0)" stroke-width="1.5"/>
<line x1="790.0" y1="100.0" x2="790.0" y2="140.0" stroke="rgb(255,0,0)" stroke-width="1.5"/>
<polygon points=" 783,128 797,128 797,152 783,152" fill="rgb(255,255,170)"/>
<text x="785.0" y="145.0" font-family="courier" font-size="16" fill="rgb(0,0,0)">y</text>
<polygon points=" 773,88 807,88 807,112 773,112" fill="rgb(255,255,170)"/>
<text x="775.0" y="105.0" font-family="courier" font-size="16" fill="rgb(0,0,0)">not</text>
<line x1="790.0" y1="60.0" x2="820.0" y2="100.0" stroke="rgb(255,0,0)" stroke-width="1.5"/>
<polygon points=" 813,88 827,88 827,112 813,112" fill="rgb(255,255,170)"/>
<text x="815.0" y="105.0" font-family="courier" font-size="16" fill="rgb(0,0,0)">y</text>
<polygon points=" 778,48 802,48 802,72 778,72" fill="rgb(255,255,170)"/>
<text x="780.0" y="65.0" font-family="courier" font-size="16" fill="rgb(0,0,0)">&#92;/</text>
<line x1="531.25" y1="20.0" x2="875.0" y2="60.0" stroke="rgb(255,0,0)" stroke-width="1.5"/>
<line x1="875.0" y1="60.0" x2="840.0" y2="100.0" stroke="rgb(255,0,0)" stroke-width="1.5"/>
<polygon points=" 833,88 847,88 847,112 833,112" fill="rgb(255,255,170)"/>
<text x="835.0" y="105.0" font-family="courier" font-size="16" fill="rgb(0,0,0)">z</text>
<line x1="875.0" y1="60.0" x2="870.0" y2="100.0" stroke="rgb(255,0,0)" stroke-width="1.5"/>
<line x1="870.0" y1="100.0" x2="870.0" y2="140.0" stroke="rgb(255,0,0)" stroke-width="1.5"/>
<polygon points=" 863,128 877,128 877,152 863,152" fill="rgb(255,255,170)"/>
<text x="865.0" y="145.0" font-family="courier" font-size="16" fill="rgb(0,0,0)">y</text>
<polygon points=" 853,88 887,88 887,112 853,112" fill="rgb(255,255,170)"/>
<text x="855.0" y="105.0" font-family="courier" font-size="16" fill="rgb(0,0,0)">not</text>
<line x1="875.0" y1="60.0" x2="910.0" y2="100.0" stroke="rgb(255,0,0)" stroke-width="1.5"/>
<line x1="910.0" y1="100.0" x2="910.0" y2="140.0" stroke="rgb(255,0,0)" stroke-width="1.5"/>
<polygon points=" 903,128 917,128 917,152 903,152" fill="rgb(255,255,170)"/>
<text x="905.0" y="145.0" font-family="courier" font-size="16" fill="rgb(0,0,0)">z</text>
<polygon points=" 893,88 927,88 927,112 893,112" fill="rgb(255,255,170)"/>
<text x="895.0" y="105.0" font-family="courier" font-size="16" fill="rgb(0,0,0)">not</text>
<polygon points=" 863,48 887,48 887,72 863,72" fill="rgb(255,255,170)"/>
<text x="865.0" y="65.0" font-family="courier" font-size="16" fill="rgb(0,0,0)">&#92;/</text>
<line x1="531.25" y1="20.0" x2="950.0" y2="60.0" stroke="rgb(255,0,0)" stroke-width="1.5"/>
<line x1="950.0" y1="60.0" x2="940.0" y2="100.0" stroke="rgb(255,0,0)" stroke-width="1.5"/>
<polygon points=" 933,88 947,88 947,112 933,112" fill="rgb(255,255,170)"/>
<text x="935.0" y="105.0" font-family="courier" font-size="16" fill="rgb(0,0,0)">z</text>
<line x1="950.0" y1="60.0" x2="960.0" y2="100.0" stroke="rgb(255,0,0)" stroke-width="1.5"/>
<polygon points=" 953,88 967,88 967,112 953,112" fill="rgb(255,255,170)"/>
<text x="955.0" y="105.0" font-family="courier" font-size="16" fill="rgb(0,0,0)">y</text>
<polygon points=" 938,48 962,48 962,72 938,72" fill="rgb(255,255,170)"/>
<text x="940.0" y="65.0" font-family="courier" font-size="16" fill="rgb(0,0,0)">&#92;/</text>
<line x1="531.25" y1="20.0" x2="995.0" y2="60.0" stroke="rgb(255,0,0)" stroke-width="1.5"/>
<line x1="995.0" y1="60.0" x2="980.0" y2="100.0" stroke="rgb(255,0,0)" stroke-width="1.5"/>
<polygon points=" 973,88 987,88 987,112 973,112" fill="rgb(255,255,170)"/>
<text x="975.0" y="105.0" font-family="courier" font-size="16" fill="rgb(0,0,0)">z</text>
<line x1="995.0" y1="60.0" x2="1010.0" y2="100.0" stroke="rgb(255,0,0)" stroke-width="1.5"/>
<line x1="1010.0" y1="100.0" x2="1010.0" y2="140.0" stroke="rgb(255,0,0)" stroke-width="1.5"/>
<polygon points=" 1003,128 1017,128 1017,152 1003,152" fill="rgb(255,255,170)"/>
<text x="1005.0" y="145.0" font-family="courier" font-size="16" fill="rgb(0,0,0)">z</text>
<polygon points=" 993,88 1027,88 1027,112 993,112" fill="rgb(255,255,170)"/>
<text x="995.0" y="105.0" font-family="courier" font-size="16" fill="rgb(0,0,0)">not</text>
<polygon points=" 983,48 1007,48 1007,72 983,72" fill="rgb(255,255,170)"/>
<text x="985.0" y="65.0" font-family="courier" font-size="16" fill="rgb(0,0,0)">&#92;/</text>
<polygon points=" 519,8 543,8 543,32 519,32" fill="rgb(255,255,170)"/>
<text x="521.25" y="25.0" font-family="courier" font-size="16" fill="rgb(0,0,0)">/&#92;</text></svg>