<svg xmlns="http://www.w3.org/2000/svg"
xmlns:xlink="http://www.w3.org/1999/xlink"
version="1.1" baseProfile="full"
width="1090" height="160">
<line x1="553.75" y1="20.0" x2="67.5" y2="60.0" stroke="rgb(255,0,0)" stroke-width="1.5"/>
<line x1="67.5" y1="60.0" x2="45.0" y2="100.0" stroke="rgb(255,0,0)" stroke-width="1.5"/>
<line x1="45.0" y1="100.0" x2="25.0" y2="140.0" stroke="rgb(255,0,0)" stroke-width="1.5"/>
<polygon points=" 18,128 32,128 32,152 18,152" fill="rgb(255,255,170)"/>
<text x="20.0" y="145.0" font-family="courier" font-size="16" fill="rgb(0,0,0)">x</text>
<line x1="45.0" y1="100.0" x2="45.0" y2="140.0" stroke="rgb(255,0,0)" stroke-width="1.5"/>
<polygon points=" 38,128 52,128 52,152 38,152" fill="rgb(255,255,170)"/>
<text x="40.0" y="145.0" font-family="courier" font-size="16" fill="rgb(0,0,0)">y</text>
<line x1="45.0" y1="100.0" x2="65.0" y2="140.0" stroke="rgb(255,0,0)" stroke-width="1.5"/>
<polygon points=" 58,128 72,128 72,152 58,152" fill="rgb(255,255,170)"/>
<text x="60.0" y="145.0" font-family="courier" font-size="16" fill="rgb(0,0,0)">z</text>
<polygon points=" 33,88 57,88 57,112 33,112" fill="rgb(255,255,170)"/>
<text x="35.0" y="105.0" font-family="courier" font-size="16" fill="rgb(0,0,0)">/&#92;</text>
<line x1="67.5" y1="60.0" x2="90.0" y2="100.0" stroke="rgb(255,0,0)" stroke-width="1.5"/>
<polygon points=" 63,88 117,88 117,112 63,112" fill="rgb(255,255,170)"/>
<text x="65.0" y="105.0" font-family="courier" font-size="16" fill="rgb(0,0,0)">false</text>
<polygon points=" 50,48 84,48 84,72 50,72" fill="rgb(255,255,170)"/>
<text x="52.5" y="65.0" font-family="courier" font-size="16" fill="rgb(0,0,0)">==&gt;</text>
<line x1="553.75" y1="20.0" x2="142.5" y2="60.0" stroke="rgb(255,0,0)" stroke-width="1.5"/>
<line x1="142.5" y1="60.0" x2="130.0" y2="100.0" stroke="rgb(255,0,0)" stroke-width="1.5"/>
<polygon points=" 123,88 137,88 137,112 123,112" fill="rgb(255,255,170)"/>
<text x="125.0" y="105.0" font-family="courier" font-size="16" fill="rgb(0,0,0)">x</text>
<line x1="142.5" y1="60.0" x2="155.0" y2="100.0" stroke="rgb(255,0,0)" stroke-width="1.5"/>
<line x1="155.0" y1="100.0" x2="145.0" y2="140.0" stroke="rgb(255,0,0)" stroke-width="1.5"/>
<polygon points=" 138,128 152,128 152,152 138,152" fill="rgb(255,255,170)"/>
<text x="140.0" y="145.0" font-family="courier" font-size="16" fill="rgb(0,0,0)">z</text>
<line x1="155.0" y1="100.0" x2="165.0" y2="140.0" stroke="rgb(255,0,0)" stroke-width="1.5"/>
<polygon points=" 158,128 172,128 172,152 158,152" fill="rgb(255,255,170)"/>
<text x="160.0" y="145.0" font-family="courier" font-size="16" fill="rgb(0,0,0)">y</text>
<polygon points=" 143,88 167,88 167,112 143,112" fill="rgb(255,255,170)"/>
<text x="145.0" y="105.0" font-family="courier" font-size="16" fill="rgb(0,0,0)">or</text>
<polygon points=" 126,48 160,48 160,72 126,72" fill="rgb(255,255,170)"/>
<text x="127.5" y="65.0" font-family="courier" font-size="16" fill="rgb(0,0,0)">==&gt;</text>
<line x1="553.75" y1="20.0" x2="220.0" y2="60.0" stroke="rgb(255,0,0)" stroke-width="1.5"/>
<line x1="220.0" y1="60.0" x2="200.0" y2="100.0" stroke="rgb(255,0,0)" stroke-width="1.5"/>
<polygon points=" 178,88 222,88 222,112 178,112" fill="rgb(255,255,170)"/>
<text x="180.0" y="105.0" font-family="courier" font-size="16" fill="rgb(0,0,0)">true</text>
<line x1="220.0" y1="60.0" x2="240.0" y2="100.0" stroke="rgb(255,0,0)" stroke-width="1.5"/>
<line x1="240.0" y1="100.0" x2="230.0" y2="140.0" stroke="rgb(255,0,0)" stroke-width="1.5"/>
<polygon points=" 223,128 237,128 237,152 223,152" fill="rgb(255,255,170)"/>
<text x="225.0" y="145.0" font-family="courier" font-size="16" fill="rgb(0,0,0)">y</text>
<line x1="240.0" y1="100.0" x2="250.0" y2="140.0" stroke="rgb(255,0,0)" stroke-width="1.5"/>
<polygon points=" 243,128 257,128 257,152 243,152" fill="rgb(255,255,170)"/>
<text x="245.0" y="145.0" font-family="courier" font-size="16" fill="rgb(0,0,0)">x</text>
<polygon points=" 228,88 252,88 252,112 228,112" fill="rgb(255,255,170)"/>
<text x="230.0" y="105.0" font-family="courier" font-size="16" fill="rgb(0,0,0)">or</text>
<polygon points=" 203,48 237,48 237,72 203,72" fill="rgb(255,255,170)"/>
<text x="205.0" y="65.0" font-family="courier" font-size="16" fill="rgb(0,0,0)">==&gt;</text>
<line x1="553.75" y1="20.0" x2="282.5" y2="60.0" stroke="rgb(255,0,0)" stroke-width="1.5"/>
<line x1="282.5" y1="60.0" x2="270.0" y2="100.0" stroke="rgb(255,0,0)" stroke-width="1.5"/>
<polygon points=" 263,88 277,88 277,112 263,112" fill="rgb(255,255,170)"/>
<text x="265.0" y="105.0" font-family="courier" font-size="16" fill="rgb(0,0,0)">z</text>
<line x1="282.5" y1="60.0" x2="295.0" y2="100.0" stroke="rgb(255,0,0)" stroke-width="1.5"/>
<line x1="295.0" y1="100.0" x2="285.0" y2="140.0" stroke="rgb(255,0,0)" stroke-width="1.5"/>
<polygon points=" 278,128 292,128 292,152 278,152" fill="rgb(255,255,170)"/>
<text x="280.0" y="145.0" font-family="courier" font-size="16" fill="rgb(0,0,0)">y</text>
<line x1="295.0" y1="100.0" x2="305.0" y2="140.0" stroke="rgb(255,0,0)" stroke-width="1.5"/>
<polygon points=" 298,128 312,128 312,152 298,152" fill="rgb(255,255,170)"/>
<text x="300.0" y="145.0" font-family="courier" font-size="16" fill="rgb(0,0,0)">x</text>
<polygon points=" 283,88 307,88 307,112 283,112" fill="rgb(255,255,170)"/>
<text x="285.0" y="105.0" font-family="courier" font-size="16" fill="rgb(0,0,0)">or</text>
<polygon points=" 266,48 300,48 300,72 266,72" fill="rgb(255,255,170)"/>
<text x="267.5" y="65.0" font-family="courier" font-size="16" fill="rgb(0,0,0)">==&gt;</text>
<line x1="553.75" y1="20.0" x2="360.0" y2="60.0" stroke="rgb(255,0,0)" stroke-width="1.5"/>
<line x1="360.0" y1="60.0" x2="340.0" y2="100.0" stroke="rgb(255,0,0)" stroke-width="1.5"/>
<polygon points=" 318,88 362,88 362,112 318,112" fill="rgb(255,255,170)"/>
<text x="320.0" y="105.0" font-family="courier" font-size="16" fill="rgb(0,0,0)">true</text>
<line x1="360.0" y1="60.0" x2="380.0" y2="100.0" stroke="rgb(255,0,0)" stroke-width="1.5"/>
<line x1="380.0" y1="100.0" x2="360.0" y2="140.0" stroke="rgb(255,0,0)" stroke-width="1.5"/>
<polygon points=" 353,128 367,128 367,152 353,152" fill="rgb(255,255,170)"/>
<text x="355.0" y="145.0" font-family="courier" font-size="16" fill="rgb(0,0,0)">y</text>
<line x1="380.0" y1="100.0" x2="380.0" y2="140.0" stroke="rgb(255,0,0)" stroke-width="1.5"/>
<polygon points=" 373,128 387,128 387,152 373,152" fill="rgb(255,255,170)"/>
<text x="375.0" y="145.0" font-family="courier" font-size="16" fill="rgb(0,0,0)">z</text>
<line x1="380.0" y1="100.0" x2="400.0" y2="140.0" stroke="rgb(255,0,0)" stroke-width="1.5"/>
<polygon points=" 393,128 407,128 407,152 393,152" fill="rgb(255,255,170)"/>
<text x="395.0" y="145.0" font-family="courier" font-size="16" fill="rgb(0,0,0)">x</text>
<polygon points=" 368,88 392,88 392,112 368,112" fill="rgb(255,255,170)"/>
<text x="370.0" y="105.0" font-family="courier" font-size="16" fill="rgb(0,0,0)">or</text>
<polygon points=" 343,48 377,48 377,72 343,72" fill="rgb(255,255,170)"/>
<text x="345.0" y="65.0" font-family="courier" font-size="16" fill="rgb(0,0,0)">==&gt;</text>
<line x1="553.75" y1="20.0" x2="455.0" y2="60.0" stroke="rgb(255,0,0)" stroke-width="1.5"/>
<line x1="455.0" y1="60.0" x2="435.0" y2="100.0" stroke="rgb(255,0,0)" stroke-width="1.5"/>
<polygon points=" 413,88 457,88 457,112 413,112" fill="rgb(255,255,170)"/>
<text x="415.0" y="105.0" font-family="courier" font-size="16" fill="rgb(0,0,0)">true</text>
<line x1="455.0" y1="60.0" x2="475.0" y2="100.0" stroke="rgb(255,0,0)" stroke-width="1.5"/>
<line x1="475.0" y1="100.0" x2="465.0" y2="140.0" stroke="rgb(255,0,0)" stroke-width="1.5"/>
<polygon points=" 458,128 472,128 472,152 458,152" fill="rgb(255,255,170)"/>
<text x="460.0" y="145.0" font-family="courier" font-size="16" fill="rgb(0,0,0)">y</text>
<line x1="475.0" y1="100.0" x2="485.0" y2="140.0" stroke="rgb(255,0,0)" stroke-width="1.5"/>
<polygon points=" 478,128 492,128 492,152 478,152" fill="rgb(255,255,170)"/>
<text x="480.0" y="145.0" font-family="courier" font-size="16" fill="rgb(0,0,0)">z</text>
<polygon points=" 463,88 487,88 487,112 463,112" fill="rgb(255,255,170)"/>
<text x="465.0" y="105.0" font-family="courier" font-size="16" fill="rgb(0,0,0)">or</text>
<polygon points=" 438,48 472,48 472,72 438,72" fill="rgb(255,255,170)"/>
<text x="440.0" y="65.0" font-family="courier" font-size="16" fill="rgb(0,0,0)">==&gt;</text>
<line x1="553.75" y1="20.0" x2="540.0" y2="60.0" stroke="rgb(255,0,0)" stroke-width="1.5"/>
<line x1="540.0" y1="60.0" x2="520.0" y2="100.0" stroke="rgb(255,0,0)" stroke-width="1.5"/>
<polygon points=" 498,88 542,88 542,112 498,112" fill="rgb(255,255,170)"/>
<text x="500.0" y="105.0" font-family="courier" font-size="16" fill="rgb(0,0,0)">true</text>
<line x1="540.0" y1="60.0" x2="560.0" y2="100.0" stroke="rgb(255,0,0)" stroke-width="1.5"/>
<line x1="560.0" y1="100.0" x2="550.0" y2="140.0" stroke="rgb(255,0,0)" stroke-width="1.5"/>
<polygon points=" 543,128 557,128 557,152 543,152" fill="rgb(255,255,170)"/>
<text x="545.0" y="145.0" font-family="courier" font-size="16" fill="rgb(0,0,0)">z</text>
<line x1="560.0" y1="100.0" x2="570.0" y2="140.0" stroke="rgb(255,0,0)" stroke-width="1.5"/>
<polygon points=" 563,128 577,128 577,152 563,152" fill="rgb(255,255,170)"/>
<text x="565.0" y="145.0" font-family="courier" font-size="16" fill="rgb(0,0,0)">x</text>
<polygon points=" 548,88 572,88 572,112 548,112" fill="rgb(255,255,170)"/>
<text x="550.0" y="105.0" font-family="courier" font-size="16" fill="rgb(0,0,0)">or</text>
<polygon points=" 523,48 557,48 557,72 523,72" fill="rgb(255,255,170)"/>
<text x="525.0" y="65.0" font-family="courier" font-size="16" fill="rgb(0,0,0)">==&gt;</text>
<line x1="553.75" y1="20.0" x2="605.0" y2="60.0" stroke="rgb(255,0,0)" stroke-width="1.5"/>
<line x1="605.0" y1="60.0" x2="585.0" y2="100.0" stroke="rgb(255,0,0)" stroke-width="1.5"/>
<polygon points=" 578,88 592,88 592,112 578,112" fill="rgb(255,170,170)"/>
<text x="580.0" y="105.0" font-family="courier" font-size="16" fill="rgb(0,0,0)">z</text>
<line x1="605.0" y1="60.0" x2="605.0" y2="100.0" stroke="rgb(255,0,0)" stroke-width="1.5"/>
<polygon points=" 598,88 612,88 612,112 598,112" fill="rgb(255,170,170)"/>
<text x="600.0" y="105.0" font-family="courier" font-size="16" fill="rgb(0,0,0)">x</text>
<line x1="605.0" y1="60.0" x2="625.0" y2="100.0" stroke="rgb(255,0,0)" stroke-width="1.5"/>
<polygon points=" 618,88 632,88 632,112 618,112" fill="rgb(255,170,170)"/>
<text x="620.0" y="105.0" font-family="courier" font-size="16" fill="rgb(0,0,0)">y</text>
<polygon points=" 593,48 617,48 617,72 593,72" fill="rgb(255,170,170)"/>
<text x="595.0" y="65.0" font-family="courier" font-size="16" fill="rgb(0,0,0)">&#92;/</text>
<line x1="553.75" y1="20.0" x2="670.0" y2="60.0" stroke="rgb(255,0,0)" stroke-width="1.5"/>
<line x1="670.0" y1="60.0" x2="645.0" y2="100.0" stroke="rgb(255,0,0)" stroke-width="1.5"/>
<polygon points=" 638,88 652,88 652,112 638,112" fill="rgb(255,255,170)"/>
<text x="640.0" y="105.0" font-family="courier" font-size="16" fill="rgb(0,0,0)">z</text>
<line x1="670.0" y1="60.0" x2="665.0" y2="100.0" stroke="rgb(255,0,0)" stroke-width="1.5"/>
<polygon points=" 658,88 672,88 672,112 658,112" fill="rgb(255,255,170)"/>
<text x="660.0" y="105.0" font-family="courier" font-size="16" fill="rgb(0,0,0)">x</text>
<line x1="670.0" y1="60.0" x2="695.0" y2="100.0" stroke="rgb(255,0,0)" stroke-width="1.5"/>
<line x1="695.0" y1="100.0" x2="695.0" y2="140.0" stroke="rgb(255,0,0)" stroke-width="1.5"/>
<polygon points=" 688,128 702,128 702,152 688,152" fill="rgb(255,255,170)"/>
<text x="690.0" y="145.0" font-family="courier" font-size="16" fill="rgb(0,0,0)">z</text>
<polygon points=" 678,88 712,88 712,112 678,112" fill="rgb(255,255,170)"/>
<text x="680.0" y="105.0" font-family="courier" font-size="16" fill="rgb(0,0,0)">not</text>
<polygon points=" 658,48 682,48 682,72 658,72" fill="rgb(255,255,170)"/>
<text x="660.0" y="65.0" font-family="courier" font-size="16" fill="rgb(0,0,0)">&#92;/</text>
<line x1="553.75" y1="20.0" x2="755.0" y2="60.0" stroke="rgb(255,0,0)" stroke-width="1.5"/>
<line x1="755.0" y1="60.0" x2="725.0" y2="100.0" stroke="rgb(255,0,0)" stroke-width="1.5"/>
<polygon points=" 718,88 732,88 732,112 718,112" fill="rgb(255,255,170)"/>
<text x="720.0" y="105.0" font-family="courier" font-size="16" fill="rgb(0,0,0)">z</text>
<line x1="755.0" y1="60.0" x2="755.0" y2="100.0" stroke="rgb(255,0,0)" stroke-width="1.5"/>
<line x1="755.0" y1="100.0" x2="755.0" y2="140.0" stroke="rgb(255,0,0)" stroke-width="1.5"/>
<polygon points=" 748,128 762,128 762,152 748,152" fill="rgb(255,255,170)"/>
<text x="750.0" y="145.0" font-family="courier" font-size="16" fill="rgb(0,0,0)">y</text>
<polygon points=" 738,88 772,88 772,112 738,112" fill="rgb(255,255,170)"/>
<text x="740.0" y="105.0" font-family="courier" font-size="16" fill="rgb(0,0,0)">not</text>
<line x1="755.0" y1="60.0" x2="785.0" y2="100.0" stroke="rgb(255,0,0)" stroke-width="1.5"/>
<polygon points=" 778,88 792,88 792,112 778,112" fill="rgb(255,255,170)"/>
<text x="780.0" y="105.0" font-family="courier" font-size="16" fill="rgb(0,0,0)">x</text>
<polygon points=" 743,48 767,48 767,72 743,72" fill="rgb(255,255,170)"/>
<text x="745.0" y="65.0" font-family="courier" font-size="16" fill="rgb(0,0,0)">&#92;/</text>
<line x1="553.75" y1="20.0" x2="835.0" y2="60.0" stroke="rgb(255,0,0)" stroke-width="1.5"/>
<line x1="835.0" y1="60.0" x2="805.0" y2="100.0" stroke="rgb(255,0,0)" stroke-width="1.5"/>
<polygon points=" 798,88 812,88 812,112 798,112" fill="rgb(255,255,170)"/>
<text x="800.0" y="105.0" font-family="courier" font-size="16" fill="rgb(0,0,0)">z</text>
<line x1="835.0" y1="60.0" x2="835.0" y2="100.0" stroke="rgb(255,0,0)" stroke-width="1.5"/>
<line x1="835.0" y1="100.0" x2="835.0" y2="140.0" stroke="rgb(255,0,0)" stroke-width="1.5"/>
<polygon points=" 828,128 842,128 842,152 828,152" fill="rgb(255,255,170)"/>
<text x="830.0" y="145.0" font-family="courier" font-size="16" fill="rgb(0,0,0)">y</text>
<polygon points=" 818,88 852,88 852,112 818,112" fill="rgb(255,255,170)"/>
<text x="820.0" y="105.0" font-family="courier" font-size="16" fill="rgb(0,0,0)">not</text>
<line x1="835.0" y1="60.0" x2="865.0" y2="100.0" stroke="rgb(255,0,0)" stroke-width="1.5"/>
<polygon points=" 858,88 872,88 872,112 858,112" fill="rgb(255,255,170)"/>
<text x="860.0" y="105.0" font-family="courier" font-size="16" fill="rgb(0,0,0)">y</text>
<polygon points=" 823,48 847,48 847,72 823,72" fill="rgb(255,255,170)"/>
<text x="825.0" y="65.0" font-family="courier" font-size="16" fill="rgb(0,0,0)">&#92;/</text>
<line x1="553.75" y1="20.0" x2="920.0" y2="60.0" stroke="rgb(255,0,0)" stroke-width="1.5"/>
<line x1="920.0" y1="60.0" x2="885.0" y2="100.0" stroke="rgb(255,0,0)" stroke-width="1.5"/>
<polygon points=" 878,88 892,88 892,112 878,112" fill="rgb(255,255,170)"/>
<text x="880.0" y="105.0" font-family="courier" font-size="16" fill="rgb(0,0,0)">z</text>
<line x1="920.0" y1="60.0" x2="915.0" y2="100.0" stroke="rgb(255,0,0)" stroke-width="1.5"/>
<line x1="915.0" y1="100.0" x2="915.0" y2="140.0" stroke="rgb(255,0,0)" stroke-width="1.5"/>
<polygon points=" 908,128 922,128 922,152 908,152" fill="rgb(255,255,170)"/>
<text x="910.0" y="145.0" font-family="courier" font-size="16" fill="rgb(0,0,0)">y</text>
<polygon points=" 898,88 932,88 932,112 898,112" fill="rgb(255,255,170)"/>
<text x="900.0" y="105.0" font-family="courier" font-size="16" fill="rgb(0,0,0)">not</text>
<line x1="920.0" y1="60.0" x2="955.0" y2="100.0" stroke="rgb(255,0,0)" stroke-width="1.5"/>
<line x1="955.0" y1="100.0" x2="955.0" y2="140.0" stroke="rgb(255,0,0)" stroke-width="1.5"/>
<polygon points=" 948,128 962,128 962,152 948,152" fill="rgb(255,255,170)"/>
<text x="950.0" y="145.0" font-family="courier" font-size="16" fill="rgb(0,0,0)">z</text>
<polygon points=" 938,88 972,88 972,112 938,112" fill="rgb(255,255,170)"/>
<text x="940.0" y="105.0" font-family="courier" font-size="16" fill="rgb(0,0,0)">not</text>
<polygon points=" 908,48 932,48 932,72 908,72" fill="rgb(255,255,170)"/>
<text x="910.0" y="65.0" font-family="courier" font-size="16" fill="rgb(0,0,0)">&#92;/</text>
<line x1="553.75" y1="20.0" x2="995.0" y2="60.0" stroke="rgb(255,0,0)" stroke-width="1.5"/>
<line x1="995.0" y1="60.0" x2="985.0" y2="100.0" stroke="rgb(255,0,0)" stroke-width="1.5"/>
<polygon points=" 978,88 992,88 992,112 978,112" fill="rgb(255,255,170)"/>
<text x="980.0" y="105.0" font-family="courier" font-size="16" fill="rgb(0,0,0)">z</text>
<line x1="995.0" y1="60.0" x2="1005.0" y2="100.0" stroke="rgb(255,0,0)" stroke-width="1.5"/>
<polygon points=" 998,88 1012,88 1012,112 998,112" fill="rgb(255,255,170)"/>
<text x="1000.0" y="105.0" font-family="courier" font-size="16" fill="rgb(0,0,0)">y</text>
<polygon points=" 983,48 1007,48 1007,72 983,72" fill="rgb(255,255,170)"/>
<text x="985.0" y="65.0" font-family="courier" font-size="16" fill="rgb(0,0,0)">&#92;/</text>
<line x1="553.75" y1="20.0" x2="1040.0" y2="60.0" stroke="rgb(255,0,0)" stroke-width="1.5"/>
<line x1="1040.0" y1="60.0" x2="1025.0" y2="100.0" stroke="rgb(255,0,0)" stroke-width="1.5"/>
<polygon points=" 1018,88 1032,88 1032,112 1018,112" fill="rgb(255,255,170)"/>
<text x="1020.0" y="105.0" font-family="courier" font-size="16" fill="rgb(0,0,0)">z</text>
<line x1="1040.0" y1="60.0" x2="1055.0" y2="100.0" stroke="rgb(255,0,0)" stroke-width="1.5"/>
<line x1="1055.0" y1="100.0" x2="1055.0" y2="140.0" stroke="rgb(255,0,0)" stroke-width="1.5"/>
<polygon points=" 1048,128 1062,128 1062,152 1048,152" fill="rgb(255,255,170)"/>
<text x="1050.0" y="145.0" font-family="courier" font-size="16" fill="rgb(0,0,0)">z</text>
<polygon points=" 1038,88 1072,88 1072,112 1038,112" fill="rgb(255,255,170)"/>
<text x="1040.0" y="105.0" font-family="courier" font-size="16" fill="rgb(0,0,0)">not</text>
<polygon points=" 1028,48 1052,48 1052,72 1028,72" fill="rgb(255,255,170)"/>
<text x="1030.0" y="65.0" font-family="courier" font-size="16" fill="rgb(0,0,0)">&#92;/</text>
<polygon points=" 542,8 566,8 566,32 542,32" fill="rgb(255,255,170)"/>
<text x="543.75" y="25.0" font-family="courier" font-size="16" fill="rgb(0,0,0)">/&#92;</text></svg>