<svg xmlns="http://www.w3.org/2000/svg"
xmlns:xlink="http://www.w3.org/1999/xlink"
version="1.1" baseProfile="full"
width="952" height="160">
<line x1="485.0" y1="20.0" x2="67.5" y2="60.0" stroke="rgb(255,0,0)" stroke-width="1.5"/>
<line x1="67.5" y1="60.0" x2="45.0" y2="100.0" stroke="rgb(255,0,0)" stroke-width="1.5"/>
<line x1="45.0" y1="100.0" x2="25.0" y2="140.0" stroke="rgb(255,0,0)" stroke-width="1.5"/>
<polygon points=" 18,128 32,128 32,152 18,152" fill="rgb(255,255,170)"/>
<text x="20.0" y="145.0" font-family="courier" font-size="16" fill="rgb(0,0,0)">x</text>
<line x1="45.0" y1="100.0" x2="45.0" y2="140.0" stroke="rgb(255,0,0)" stroke-width="1.5"/>
<polygon points=" 38,128 52,128 52,152 38,152" fill="rgb(255,255,170)"/>
<text x="40.0" y="145.0" font-family="courier" font-size="16" fill="rgb(0,0,0)">y</text>
<line x1="45.0" y1="100.0" x2="65.0" y2="140.0" stroke="rgb(255,0,0)" stroke-width="1.5"/>
<polygon points=" 58,128 72,128 72,152 58,152" fill="rgb(255,255,170)"/>
<text x="60.0" y="145.0" font-family="courier" font-size="16" fill="rgb(0,0,0)">z</text>
<polygon points=" 33,88 57,88 57,112 33,112" fill="rgb(255,255,170)"/>
<text x="35.0" y="105.0" font-family="courier" font-size="16" fill="rgb(0,0,0)">/&#92;</text>
<line x1="67.5" y1="60.0" x2="90.0" y2="100.0" stroke="rgb(255,0,0)" stroke-width="1.5"/>
<polygon points=" 63,88 117,88 117,112 63,112" fill="rgb(255,255,170)"/>
<text x="65.0" y="105.0" font-family="courier" font-size="16" fill="rgb(0,0,0)">false</text>
<polygon points=" 50,48 84,48 84,72 50,72" fill="rgb(255,255,170)"/>
<text x="52.5" y="65.0" font-family="courier" font-size="16" fill="rgb(0,0,0)">==&gt;</text>
<line x1="485.0" y1="20.0" x2="142.5" y2="60.0" stroke="rgb(255,0,0)" stroke-width="1.5"/>
<line x1="142.5" y1="60.0" x2="130.0" y2="100.0" stroke="rgb(255,0,0)" stroke-width="1.5"/>
<polygon points=" 123,88 137,88 137,112 123,112" fill="rgb(255,255,170)"/>
<text x="125.0" y="105.0" font-family="courier" font-size="16" fill="rgb(0,0,0)">x</text>
<line x1="142.5" y1="60.0" x2="155.0" y2="100.0" stroke="rgb(255,0,0)" stroke-width="1.5"/>
<line x1="155.0" y1="100.0" x2="145.0" y2="140.0" stroke="rgb(255,0,0)" stroke-width="1.5"/>
<polygon points=" 138,128 152,128 152,152 138,152" fill="rgb(255,255,170)"/>
<text x="140.0" y="145.0" font-family="courier" font-size="16" fill="rgb(0,0,0)">z</text>
<line x1="155.0" y1="100.0" x2="165.0" y2="140.0" stroke="rgb(255,0,0)" stroke-width="1.5"/>
<polygon points=" 158,128 172,128 172,152 158,152" fill="rgb(255,255,170)"/>
<text x="160.0" y="145.0" font-family="courier" font-size="16" fill="rgb(0,0,0)">y</text>
<polygon points=" 143,88 167,88 167,112 143,112" fill="rgb(255,255,170)"/>
<text x="145.0" y="105.0" font-family="courier" font-size="16" fill="rgb(0,0,0)">or</text>
<polygon points=" 126,48 160,48 160,72 126,72" fill="rgb(255,255,170)"/>
<text x="127.5" y="65.0" font-family="courier" font-size="16" fill="rgb(0,0,0)">==&gt;</text>
<line x1="485.0" y1="20.0" x2="220.0" y2="60.0" stroke="rgb(255,0,0)" stroke-width="1.5"/>
<line x1="220.0" y1="60.0" x2="200.0" y2="100.0" stroke="rgb(255,0,0)" stroke-width="1.5"/>
<polygon points=" 178,88 222,88 222,112 178,112" fill="rgb(255,255,170)"/>
<text x="180.0" y="105.0" font-family="courier" font-size="16" fill="rgb(0,0,0)">true</text>
<line x1="220.0" y1="60.0" x2="240.0" y2="100.0" stroke="rgb(255,0,0)" stroke-width="1.5"/>
<line x1="240.0" y1="100.0" x2="230.0" y2="140.0" stroke="rgb(255,0,0)" stroke-width="1.5"/>
<polygon points=" 223,128 237,128 237,152 223,152" fill="rgb(255,255,170)"/>
<text x="225.0" y="145.0" font-family="courier" font-size="16" fill="rgb(0,0,0)">y</text>
<line x1="240.0" y1="100.0" x2="250.0" y2="140.0" stroke="rgb(255,0,0)" stroke-width="1.5"/>
<polygon points=" 243,128 257,128 257,152 243,152" fill="rgb(255,255,170)"/>
<text x="245.0" y="145.0" font-family="courier" font-size="16" fill="rgb(0,0,0)">x</text>
<polygon points=" 228,88 252,88 252,112 228,112" fill="rgb(255,255,170)"/>
<text x="230.0" y="105.0" font-family="courier" font-size="16" fill="rgb(0,0,0)">or</text>
<polygon points=" 203,48 237,48 237,72 203,72" fill="rgb(255,255,170)"/>
<text x="205.0" y="65.0" font-family="courier" font-size="16" fill="rgb(0,0,0)">==&gt;</text>
<line x1="485.0" y1="20.0" x2="282.5" y2="60.0" stroke="rgb(255,0,0)" stroke-width="1.5"/>
<line x1="282.5" y1="60.0" x2="270.0" y2="100.0" stroke="rgb(255,0,0)" stroke-width="1.5"/>
<polygon points=" 263,88 277,88 277,112 263,112" fill="rgb(255,255,170)"/>
<text x="265.0" y="105.0" font-family="courier" font-size="16" fill="rgb(0,0,0)">z</text>
<line x1="282.5" y1="60.0" x2="295.0" y2="100.0" stroke="rgb(255,0,0)" stroke-width="1.5"/>
<line x1="295.0" y1="100.0" x2="285.0" y2="140.0" stroke="rgb(255,0,0)" stroke-width="1.5"/>
<polygon points=" 278,128 292,128 292,152 278,152" fill="rgb(255,255,170)"/>
<text x="280.0" y="145.0" font-family="courier" font-size="16" fill="rgb(0,0,0)">y</text>
<line x1="295.0" y1="100.0" x2="305.0" y2="140.0" stroke="rgb(255,0,0)" stroke-width="1.5"/>
<polygon points=" 298,128 312,128 312,152 298,152" fill="rgb(255,255,170)"/>
<text x="300.0" y="145.0" font-family="courier" font-size="16" fill="rgb(0,0,0)">x</text>
<polygon points=" 283,88 307,88 307,112 283,112" fill="rgb(255,255,170)"/>
<text x="285.0" y="105.0" font-family="courier" font-size="16" fill="rgb(0,0,0)">or</text>
<polygon points=" 266,48 300,48 300,72 266,72" fill="rgb(255,255,170)"/>
<text x="267.5" y="65.0" font-family="courier" font-size="16" fill="rgb(0,0,0)">==&gt;</text>
<line x1="485.0" y1="20.0" x2="360.0" y2="60.0" stroke="rgb(255,0,0)" stroke-width="1.5"/>
<line x1="360.0" y1="60.0" x2="340.0" y2="100.0" stroke="rgb(255,0,0)" stroke-width="1.5"/>
<polygon points=" 318,88 362,88 362,112 318,112" fill="rgb(255,255,170)"/>
<text x="320.0" y="105.0" font-family="courier" font-size="16" fill="rgb(0,0,0)">true</text>
<line x1="360.0" y1="60.0" x2="380.0" y2="100.0" stroke="rgb(255,0,0)" stroke-width="1.5"/>
<line x1="380.0" y1="100.0" x2="360.0" y2="140.0" stroke="rgb(255,0,0)" stroke-width="1.5"/>
<polygon points=" 353,128 367,128 367,152 353,152" fill="rgb(255,255,170)"/>
<text x="355.0" y="145.0" font-family="courier" font-size="16" fill="rgb(0,0,0)">y</text>
<line x1="380.0" y1="100.0" x2="380.0" y2="140.0" stroke="rgb(255,0,0)" stroke-width="1.5"/>
<polygon points=" 373,128 387,128 387,152 373,152" fill="rgb(255,255,170)"/>
<text x="375.0" y="145.0" font-family="courier" font-size="16" fill="rgb(0,0,0)">z</text>
<line x1="380.0" y1="100.0" x2="400.0" y2="140.0" stroke="rgb(255,0,0)" stroke-width="1.5"/>
<polygon points=" 393,128 407,128 407,152 393,152" fill="rgb(255,255,170)"/>
<text x="395.0" y="145.0" font-family="courier" font-size="16" fill="rgb(0,0,0)">x</text>
<polygon points=" 368,88 392,88 392,112 368,112" fill="rgb(255,255,170)"/>
<text x="370.0" y="105.0" font-family="courier" font-size="16" fill="rgb(0,0,0)">or</text>
<polygon points=" 343,48 377,48 377,72 343,72" fill="rgb(255,255,170)"/>
<text x="345.0" y="65.0" font-family="courier" font-size="16" fill="rgb(0,0,0)">==&gt;</text>
<line x1="485.0" y1="20.0" x2="455.0" y2="60.0" stroke="rgb(255,0,0)" stroke-width="1.5"/>
<line x1="455.0" y1="60.0" x2="435.0" y2="100.0" stroke="rgb(255,0,0)" stroke-width="1.5"/>
<polygon points=" 413,88 457,88 457,112 413,112" fill="rgb(255,255,170)"/>
<text x="415.0" y="105.0" font-family="courier" font-size="16" fill="rgb(0,0,0)">true</text>
<line x1="455.0" y1="60.0" x2="475.0" y2="100.0" stroke="rgb(255,0,0)" stroke-width="1.5"/>
<line x1="475.0" y1="100.0" x2="465.0" y2="140.0" stroke="rgb(255,0,0)" stroke-width="1.5"/>
<polygon points=" 458,128 472,128 472,152 458,152" fill="rgb(255,255,170)"/>
<text x="460.0" y="145.0" font-family="courier" font-size="16" fill="rgb(0,0,0)">y</text>
<line x1="475.0" y1="100.0" x2="485.0" y2="140.0" stroke="rgb(255,0,0)" stroke-width="1.5"/>
<polygon points=" 478,128 492,128 492,152 478,152" fill="rgb(255,255,170)"/>
<text x="480.0" y="145.0" font-family="courier" font-size="16" fill="rgb(0,0,0)">z</text>
<polygon points=" 463,88 487,88 487,112 463,112" fill="rgb(255,255,170)"/>
<text x="465.0" y="105.0" font-family="courier" font-size="16" fill="rgb(0,0,0)">or</text>
<polygon points=" 438,48 472,48 472,72 438,72" fill="rgb(255,255,170)"/>
<text x="440.0" y="65.0" font-family="courier" font-size="16" fill="rgb(0,0,0)">==&gt;</text>
<line x1="485.0" y1="20.0" x2="540.0" y2="60.0" stroke="rgb(255,0,0)" stroke-width="1.5"/>
<line x1="540.0" y1="60.0" x2="520.0" y2="100.0" stroke="rgb(255,0,0)" stroke-width="1.5"/>
<polygon points=" 498,88 542,88 542,112 498,112" fill="rgb(255,255,170)"/>
<text x="500.0" y="105.0" font-family="courier" font-size="16" fill="rgb(0,0,0)">true</text>
<line x1="540.0" y1="60.0" x2="560.0" y2="100.0" stroke="rgb(255,0,0)" stroke-width="1.5"/>
<line x1="560.0" y1="100.0" x2="550.0" y2="140.0" stroke="rgb(255,0,0)" stroke-width="1.5"/>
<polygon points=" 543,128 557,128 557,152 543,152" fill="rgb(255,255,170)"/>
<text x="545.0" y="145.0" font-family="courier" font-size="16" fill="rgb(0,0,0)">z</text>
<line x1="560.0" y1="100.0" x2="570.0" y2="140.0" stroke="rgb(255,0,0)" stroke-width="1.5"/>
<polygon points=" 563,128 577,128 577,152 563,152" fill="rgb(255,255,170)"/>
<text x="565.0" y="145.0" font-family="courier" font-size="16" fill="rgb(0,0,0)">x</text>
<polygon points=" 548,88 572,88 572,112 548,112" fill="rgb(255,255,170)"/>
<text x="550.0" y="105.0" font-family="courier" font-size="16" fill="rgb(0,0,0)">or</text>
<polygon points=" 523,48 557,48 557,72 523,72" fill="rgb(255,255,170)"/>
<text x="525.0" y="65.0" font-family="courier" font-size="16" fill="rgb(0,0,0)">==&gt;</text>
<line x1="485.0" y1="20.0" x2="625.0" y2="60.0" stroke="rgb(255,0,0)" stroke-width="1.5"/>
<line x1="625.0" y1="60.0" x2="605.0" y2="100.0" stroke="rgb(255,0,0)" stroke-width="1.5"/>
<polygon points=" 583,88 627,88 627,112 583,112" fill="rgb(255,255,170)"/>
<text x="585.0" y="105.0" font-family="courier" font-size="16" fill="rgb(0,0,0)">true</text>
<line x1="625.0" y1="60.0" x2="645.0" y2="100.0" stroke="rgb(255,0,0)" stroke-width="1.5"/>
<line x1="645.0" y1="100.0" x2="625.0" y2="140.0" stroke="rgb(255,0,0)" stroke-width="1.5"/>
<polygon points=" 618,128 632,128 632,152 618,152" fill="rgb(255,255,170)"/>
<text x="620.0" y="145.0" font-family="courier" font-size="16" fill="rgb(0,0,0)">z</text>
<line x1="645.0" y1="100.0" x2="645.0" y2="140.0" stroke="rgb(255,0,0)" stroke-width="1.5"/>
<polygon points=" 638,128 652,128 652,152 638,152" fill="rgb(255,255,170)"/>
<text x="640.0" y="145.0" font-family="courier" font-size="16" fill="rgb(0,0,0)">x</text>
<line x1="645.0" y1="100.0" x2="665.0" y2="140.0" stroke="rgb(255,0,0)" stroke-width="1.5"/>
<polygon points=" 658,128 672,128 672,152 658,152" fill="rgb(255,255,170)"/>
<text x="660.0" y="145.0" font-family="courier" font-size="16" fill="rgb(0,0,0)">y</text>
<polygon points=" 633,88 657,88 657,112 633,112" fill="rgb(255,255,170)"/>
<text x="635.0" y="105.0" font-family="courier" font-size="16" fill="rgb(0,0,0)">or</text>
<polygon points=" 608,48 642,48 642,72 608,72" fill="rgb(255,255,170)"/>
<text x="610.0" y="65.0" font-family="courier" font-size="16" fill="rgb(0,0,0)">==&gt;</text>
<line x1="485.0" y1="20.0" x2="697.5" y2="60.0" stroke="rgb(255,0,0)" stroke-width="1.5"/>
<line x1="697.5" y1="60.0" x2="685.0" y2="100.0" stroke="rgb(255,0,0)" stroke-width="1.5"/>
<polygon points=" 678,88 692,88 692,112 678,112" fill="rgb(255,255,170)"/>
<text x="680.0" y="105.0" font-family="courier" font-size="16" fill="rgb(0,0,0)">y</text>
<line x1="697.5" y1="60.0" x2="710.0" y2="100.0" stroke="rgb(255,0,0)" stroke-width="1.5"/>
<line x1="710.0" y1="100.0" x2="700.0" y2="140.0" stroke="rgb(255,0,0)" stroke-width="1.5"/>
<polygon points=" 693,128 707,128 707,152 693,152" fill="rgb(255,255,170)"/>
<text x="695.0" y="145.0" font-family="courier" font-size="16" fill="rgb(0,0,0)">z</text>
<line x1="710.0" y1="100.0" x2="720.0" y2="140.0" stroke="rgb(255,0,0)" stroke-width="1.5"/>
<polygon points=" 713,128 727,128 727,152 713,152" fill="rgb(255,255,170)"/>
<text x="715.0" y="145.0" font-family="courier" font-size="16" fill="rgb(0,0,0)">x</text>
<polygon points=" 698,88 722,88 722,112 698,112" fill="rgb(255,255,170)"/>
<text x="700.0" y="105.0" font-family="courier" font-size="16" fill="rgb(0,0,0)">or</text>
<polygon points=" 680,48 714,48 714,72 680,72" fill="rgb(255,255,170)"/>
<text x="682.5" y="65.0" font-family="courier" font-size="16" fill="rgb(0,0,0)">==&gt;</text>
<line x1="485.0" y1="20.0" x2="742.5" y2="60.0" stroke="rgb(255,0,0)" stroke-width="1.5"/>
<polygon points=" 720,48 764,48 764,72 720,72" fill="rgb(170,255,170)"/>
<text x="722.5" y="65.0" font-family="courier" font-size="16" fill="rgb(0,0,0)">true</text>
<line x1="485.0" y1="20.0" x2="782.5" y2="60.0" stroke="rgb(255,0,0)" stroke-width="1.5"/>
<line x1="782.5" y1="60.0" x2="747.5" y2="100.0" stroke="rgb(255,0,0)" stroke-width="1.5"/>
<polygon points=" 740,88 754,88 754,112 740,112" fill="rgb(255,255,170)"/>
<text x="742.5" y="105.0" font-family="courier" font-size="16" fill="rgb(0,0,0)">z</text>
<line x1="782.5" y1="60.0" x2="777.5" y2="100.0" stroke="rgb(255,0,0)" stroke-width="1.5"/>
<line x1="777.5" y1="100.0" x2="777.5" y2="140.0" stroke="rgb(255,0,0)" stroke-width="1.5"/>
<polygon points=" 770,128 784,128 784,152 770,152" fill="rgb(255,255,170)"/>
<text x="772.5" y="145.0" font-family="courier" font-size="16" fill="rgb(0,0,0)">y</text>
<polygon points=" 760,88 794,88 794,112 760,112" fill="rgb(255,255,170)"/>
<text x="762.5" y="105.0" font-family="courier" font-size="16" fill="rgb(0,0,0)">not</text>
<line x1="782.5" y1="60.0" x2="817.5" y2="100.0" stroke="rgb(255,0,0)" stroke-width="1.5"/>
<line x1="817.5" y1="100.0" x2="817.5" y2="140.0" stroke="rgb(255,0,0)" stroke-width="1.5"/>
<polygon points=" 810,128 824,128 824,152 810,152" fill="rgb(255,255,170)"/>
<text x="812.5" y="145.0" font-family="courier" font-size="16" fill="rgb(0,0,0)">z</text>
<polygon points=" 800,88 834,88 834,112 800,112" fill="rgb(255,255,170)"/>
<text x="802.5" y="105.0" font-family="courier" font-size="16" fill="rgb(0,0,0)">not</text>
<polygon points=" 770,48 794,48 794,72 770,72" fill="rgb(255,255,170)"/>
<text x="772.5" y="65.0" font-family="courier" font-size="16" fill="rgb(0,0,0)">&#92;/</text>
<line x1="485.0" y1="20.0" x2="857.5" y2="60.0" stroke="rgb(255,0,0)" stroke-width="1.5"/>
<line x1="857.5" y1="60.0" x2="847.5" y2="100.0" stroke="rgb(255,0,0)" stroke-width="1.5"/>
<polygon points=" 840,88 854,88 854,112 840,112" fill="rgb(255,255,170)"/>
<text x="842.5" y="105.0" font-family="courier" font-size="16" fill="rgb(0,0,0)">z</text>
<line x1="857.5" y1="60.0" x2="867.5" y2="100.0" stroke="rgb(255,0,0)" stroke-width="1.5"/>
<polygon points=" 860,88 874,88 874,112 860,112" fill="rgb(255,255,170)"/>
<text x="862.5" y="105.0" font-family="courier" font-size="16" fill="rgb(0,0,0)">y</text>
<polygon points=" 846,48 870,48 870,72 846,72" fill="rgb(255,255,170)"/>
<text x="847.5" y="65.0" font-family="courier" font-size="16" fill="rgb(0,0,0)">&#92;/</text>
<line x1="485.0" y1="20.0" x2="902.5" y2="60.0" stroke="rgb(255,0,0)" stroke-width="1.5"/>
<line x1="902.5" y1="60.0" x2="887.5" y2="100.0" stroke="rgb(255,0,0)" stroke-width="1.5"/>
<polygon points=" 880,88 894,88 894,112 880,112" fill="rgb(255,255,170)"/>
<text x="882.5" y="105.0" font-family="courier" font-size="16" fill="rgb(0,0,0)">z</text>
<line x1="902.5" y1="60.0" x2="917.5" y2="100.0" stroke="rgb(255,0,0)" stroke-width="1.5"/>
<line x1="917.5" y1="100.0" x2="917.5" y2="140.0" stroke="rgb(255,0,0)" stroke-width="1.5"/>
<polygon points=" 910,128 924,128 924,152 910,152" fill="rgb(255,255,170)"/>
<text x="912.5" y="145.0" font-family="courier" font-size="16" fill="rgb(0,0,0)">z</text>
<polygon points=" 900,88 934,88 934,112 900,112" fill="rgb(255,255,170)"/>
<text x="902.5" y="105.0" font-family="courier" font-size="16" fill="rgb(0,0,0)">not</text>
<polygon points=" 890,48 914,48 914,72 890,72" fill="rgb(255,255,170)"/>
<text x="892.5" y="65.0" font-family="courier" font-size="16" fill="rgb(0,0,0)">&#92;/</text>
<polygon points=" 473,8 497,8 497,32 473,32" fill="rgb(255,255,170)"/>
<text x="475.0" y="25.0" font-family="courier" font-size="16" fill="rgb(0,0,0)">/&#92;</text></svg>