<svg xmlns="http://www.w3.org/2000/svg"
xmlns:xlink="http://www.w3.org/1999/xlink"
version="1.1" baseProfile="full"
width="185" height="280">
<line x1="90.0" y1="20.0" x2="90.0" y2="60.0" stroke="rgb(255,0,0)" stroke-width="1.5"/>
<line x1="90.0" y1="60.0" x2="90.0" y2="100.0" stroke="rgb(255,0,0)" stroke-width="1.5"/>
<line x1="90.0" y1="100.0" x2="50.0" y2="140.0" stroke="rgb(255,0,0)" stroke-width="1.5"/>
<line x1="50.0" y1="140.0" x2="50.0" y2="180.0" stroke="rgb(255,0,0)" stroke-width="1.5"/>
<line x1="50.0" y1="180.0" x2="30.0" y2="220.0" stroke="rgb(255,0,0)" stroke-width="1.5"/>
<line x1="30.0" y1="220.0" x2="30.0" y2="260.0" stroke="rgb(255,0,0)" stroke-width="1.5"/>
<polygon points=" 18,248 42,248 42,272 18,272" fill="rgb(255,170,170)"/>
<text x="20.0" y="265.0" font-family="courier" font-size="16" fill="rgb(0,0,0)">44</text>
<polygon points=" 23,208 37,208 37,232 23,232" fill="rgb(255,255,255)"/>
<text x="25.0" y="225.0" font-family="courier" font-size="16" fill="rgb(0,0,0)">a</text>
<line x1="50.0" y1="180.0" x2="70.0" y2="220.0" stroke="rgb(255,0,0)" stroke-width="1.5"/>
<line x1="70.0" y1="220.0" x2="70.0" y2="260.0" stroke="rgb(255,0,0)" stroke-width="1.5"/>
<polygon points=" 58,248 82,248 82,272 58,272" fill="rgb(255,170,170)"/>
<text x="60.0" y="265.0" font-family="courier" font-size="16" fill="rgb(0,0,0)">55</text>
<polygon points=" 63,208 77,208 77,232 63,232" fill="rgb(255,255,255)"/>
<text x="65.0" y="225.0" font-family="courier" font-size="16" fill="rgb(0,0,0)">b</text>
<polygon points=" 43,168 57,168 57,192 43,192" fill="rgb(255,170,170)"/>
<text x="45.0" y="185.0" font-family="courier" font-size="16" fill="rgb(0,0,0)">g</text>
<polygon points=" 43,128 57,128 57,152 43,152" fill="rgb(255,255,255)"/>
<text x="45.0" y="145.0" font-family="courier" font-size="16" fill="rgb(0,0,0)">c</text>
<line x1="90.0" y1="100.0" x2="90.0" y2="140.0" stroke="rgb(255,0,0)" stroke-width="1.5"/>
<line x1="90.0" y1="140.0" x2="90.0" y2="180.0" stroke="rgb(255,0,0)" stroke-width="1.5"/>
<polygon points=" 73,168 107,168 107,192 73,192" fill="rgb(255,170,170)"/>
<text x="75.0" y="185.0" font-family="courier" font-size="16" fill="rgb(0,0,0)">rrr</text>
<polygon points=" 83,128 97,128 97,152 83,152" fill="rgb(255,255,255)"/>
<text x="85.0" y="145.0" font-family="courier" font-size="16" fill="rgb(0,0,0)">d</text>
<line x1="90.0" y1="100.0" x2="130.0" y2="140.0" stroke="rgb(255,0,0)" stroke-width="1.5"/>
<line x1="130.0" y1="140.0" x2="130.0" y2="180.0" stroke="rgb(255,0,0)" stroke-width="1.5"/>
<line x1="130.0" y1="180.0" x2="110.0" y2="220.0" stroke="rgb(255,0,0)" stroke-width="1.5"/>
<line x1="110.0" y1="220.0" x2="110.0" y2="260.0" stroke="rgb(255,0,0)" stroke-width="1.5"/>
<polygon points=" 98,248 122,248 122,272 98,272" fill="rgb(255,170,170)"/>
<text x="100.0" y="265.0" font-family="courier" font-size="16" fill="rgb(0,0,0)">44</text>
<polygon points=" 103,208 117,208 117,232 103,232" fill="rgb(255,255,255)"/>
<text x="105.0" y="225.0" font-family="courier" font-size="16" fill="rgb(0,0,0)">a</text>
<line x1="130.0" y1="180.0" x2="150.0" y2="220.0" stroke="rgb(255,0,0)" stroke-width="1.5"/>
<line x1="150.0" y1="220.0" x2="150.0" y2="260.0" stroke="rgb(255,0,0)" stroke-width="1.5"/>
<polygon points=" 138,248 162,248 162,272 138,272" fill="rgb(255,170,170)"/>
<text x="140.0" y="265.0" font-family="courier" font-size="16" fill="rgb(0,0,0)">55</text>
<polygon points=" 143,208 157,208 157,232 143,232" fill="rgb(255,255,255)"/>
<text x="145.0" y="225.0" font-family="courier" font-size="16" fill="rgb(0,0,0)">b</text>
<polygon points=" 123,168 137,168 137,192 123,192" fill="rgb(255,170,170)"/>
<text x="125.0" y="185.0" font-family="courier" font-size="16" fill="rgb(0,0,0)">g</text>
<polygon points=" 123,128 137,128 137,152 123,152" fill="rgb(255,255,255)"/>
<text x="125.0" y="145.0" font-family="courier" font-size="16" fill="rgb(0,0,0)">e</text>
<polygon points=" 83,88 97,88 97,112 83,112" fill="rgb(255,170,170)"/>
<text x="85.0" y="105.0" font-family="courier" font-size="16" fill="rgb(0,0,0)">h</text>
<polygon points=" 83,48 97,48 97,72 83,72" fill="rgb(255,170,170)"/>
<text x="85.0" y="65.0" font-family="courier" font-size="16" fill="rgb(0,0,0)">e</text>
<polygon points=" 83,8 97,8 97,32 83,32" fill="rgb(255,255,170)"/>
<text x="85.0" y="25.0" font-family="courier" font-size="16" fill="rgb(0,0,0)">a</text></svg>