<svg xmlns="http://www.w3.org/2000/svg"
xmlns:xlink="http://www.w3.org/1999/xlink"
version="1.1" baseProfile="full"
width="352" height="304">
<line x1="207.625" y1="20.0" x2="104.25" y2="64.0" stroke="rgb(255,0,0)" stroke-width="1.5"/>
<line x1="104.25" y1="64.0" x2="56.0" y2="108.0" stroke="rgb(255,0,0)" stroke-width="1.5"/>
<line x1="56.0" y1="108.0" x2="35.0" y2="152.0" stroke="rgb(255,0,0)" stroke-width="1.5"/>
<polygon points=" 18,140 52,140 52,164 18,164" fill="rgb(170,255,170)"/>
<text x="20.0" y="157.0" font-family="courier" font-size="16" fill="rgb(0,0,0)">111</text>
<line x1="56.0" y1="108.0" x2="77.0" y2="152.0" stroke="rgb(255,0,0)" stroke-width="1.5"/>
<polygon points=" 70,140 84,140 84,164 70,164" fill="rgb(170,255,170)"/>
<text x="72.0" y="157.0" font-family="courier" font-size="16" fill="rgb(0,0,0)">5</text>
<polygon points=" 44,96 68,96 68,120 44,120" fill="rgb(170,255,170)"/>
<text x="46.0" y="113.0" font-family="courier" font-size="16" fill="rgb(0,0,0)">==</text>
<line x1="104.25" y1="64.0" x2="98.0" y2="108.0" stroke="rgb(255,0,0)" stroke-width="1.5"/>
<polygon points=" 86,96 110,96 110,120 86,120" fill="rgb(170,255,170)"/>
<text x="88.0" y="113.0" font-family="courier" font-size="16" fill="rgb(0,0,0)">10</text>
<line x1="104.25" y1="64.0" x2="152.5" y2="108.0" stroke="rgb(255,0,0)" stroke-width="1.5"/>
<line x1="152.5" y1="108.0" x2="124.0" y2="152.0" stroke="rgb(255,0,0)" stroke-width="1.5"/>
<line x1="124.0" y1="152.0" x2="108.0" y2="196.0" stroke="rgb(255,0,0)" stroke-width="1.5"/>
<polygon points=" 101,184 115,184 115,208 101,208" fill="rgb(170,255,170)"/>
<text x="103.0" y="201.0" font-family="courier" font-size="16" fill="rgb(0,0,0)">+</text>
<line x1="124.0" y1="152.0" x2="140.0" y2="196.0" stroke="rgb(255,0,0)" stroke-width="1.5"/>
<polygon points=" 133,184 147,184 147,208 133,208" fill="rgb(170,255,170)"/>
<text x="135.0" y="201.0" font-family="courier" font-size="16" fill="rgb(0,0,0)">2</text>
<polygon points=" 102,140 146,140 146,164 102,164" fill="rgb(170,255,170)"/>
<text x="104.0" y="157.0" font-family="courier" font-size="16" fill="rgb(0,0,0)">rsec</text>
<line x1="152.5" y1="108.0" x2="181.0" y2="152.0" stroke="rgb(255,0,0)" stroke-width="1.5"/>
<polygon points=" 164,140 198,140 198,164 164,164" fill="rgb(170,255,170)"/>
<text x="166.0" y="157.0" font-family="courier" font-size="16" fill="rgb(0,0,0)">111</text>
<polygon points=" 146,96 160,96 160,120 146,120" fill="rgb(170,255,170)"/>
<text x="147.5" y="113.0" font-family="courier" font-size="16" fill="rgb(0,0,0)">$</text>
<polygon points=" 87,52 121,52 121,76 87,76" fill="rgb(170,255,170)"/>
<text x="89.25" y="69.0" font-family="courier" font-size="16" fill="rgb(0,0,0)">ite</text>
<line x1="207.625" y1="20.0" x2="311.0" y2="64.0" stroke="rgb(255,0,0)" stroke-width="1.5"/>
<line x1="311.0" y1="64.0" x2="295.0" y2="108.0" stroke="rgb(255,0,0)" stroke-width="1.5"/>
<line x1="295.0" y1="108.0" x2="276.5" y2="152.0" stroke="rgb(255,0,0)" stroke-width="1.5"/>
<line x1="276.5" y1="152.0" x2="248.0" y2="196.0" stroke="rgb(255,0,0)" stroke-width="1.5"/>
<line x1="248.0" y1="196.0" x2="248.0" y2="240.0" stroke="rgb(255,0,0)" stroke-width="1.5"/>
<line x1="248.0" y1="240.0" x2="232.0" y2="284.0" stroke="rgb(255,0,0)" stroke-width="1.5"/>
<polygon points=" 225,272 239,272 239,296 225,296" fill="rgb(255,255,170)"/>
<text x="227.0" y="289.0" font-family="courier" font-size="16" fill="rgb(0,0,0)">+</text>
<line x1="248.0" y1="240.0" x2="264.0" y2="284.0" stroke="rgb(255,0,0)" stroke-width="1.5"/>
<polygon points=" 257,272 271,272 271,296 257,296" fill="rgb(255,255,170)"/>
<text x="259.0" y="289.0" font-family="courier" font-size="16" fill="rgb(0,0,0)">2</text>
<polygon points=" 226,228 270,228 270,252 226,252" fill="rgb(255,255,170)"/>
<text x="228.0" y="245.0" font-family="courier" font-size="16" fill="rgb(0,0,0)">rsec</text>
<polygon points=" 216,184 280,184 280,208 216,208" fill="rgb(255,255,170)"/>
<text x="218.0" y="201.0" font-family="courier" font-size="16" fill="rgb(0,0,0)">update</text>
<line x1="276.5" y1="152.0" x2="305.0" y2="196.0" stroke="rgb(255,0,0)" stroke-width="1.5"/>
<polygon points=" 298,184 312,184 312,208 298,208" fill="rgb(255,255,170)"/>
<text x="300.0" y="201.0" font-family="courier" font-size="16" fill="rgb(0,0,0)">5</text>
<polygon points=" 270,140 284,140 284,164 270,164" fill="rgb(255,255,170)"/>
<text x="271.5" y="157.0" font-family="courier" font-size="16" fill="rgb(0,0,0)">$</text>
<line x1="295.0" y1="108.0" x2="313.5" y2="152.0" stroke="rgb(255,0,0)" stroke-width="1.5"/>
<polygon points=" 302,140 326,140 326,164 302,164" fill="rgb(255,255,170)"/>
<text x="303.5" y="157.0" font-family="courier" font-size="16" fill="rgb(0,0,0)">10</text>
<polygon points=" 288,96 302,96 302,120 288,120" fill="rgb(255,255,170)"/>
<text x="290.0" y="113.0" font-family="courier" font-size="16" fill="rgb(0,0,0)">$</text>
<line x1="311.0" y1="64.0" x2="327.0" y2="108.0" stroke="rgb(255,0,0)" stroke-width="1.5"/>
<polygon points=" 320,96 334,96 334,120 320,120" fill="rgb(255,255,170)"/>
<text x="322.0" y="113.0" font-family="courier" font-size="16" fill="rgb(0,0,0)">5</text>
<polygon points=" 304,52 318,52 318,76 304,76" fill="rgb(255,255,170)"/>
<text x="306.0" y="69.0" font-family="courier" font-size="16" fill="rgb(0,0,0)">$</text>
<polygon points=" 201,8 215,8 215,32 201,32" fill="rgb(255,255,170)"/>
<text x="202.625" y="25.0" font-family="courier" font-size="16" fill="rgb(0,0,0)">+</text></svg>