<svg xmlns="http://www.w3.org/2000/svg"
xmlns:xlink="http://www.w3.org/1999/xlink"
version="1.1" baseProfile="full"
width="346" height="304">
<line x1="202.25" y1="20.0" x2="99.5" y2="64.0" stroke="rgb(255,0,0)" stroke-width="1.5"/>
<line x1="99.5" y1="64.0" x2="52.5" y2="108.0" stroke="rgb(255,0,0)" stroke-width="1.5"/>
<polygon points=" 26,96 80,96 80,120 26,120" fill="rgb(170,255,170)"/>
<text x="27.5" y="113.0" font-family="courier" font-size="16" fill="rgb(0,0,0)">false</text>
<line x1="99.5" y1="64.0" x2="109.5" y2="108.0" stroke="rgb(255,0,0)" stroke-width="1.5"/>
<polygon points=" 98,96 122,96 122,120 98,120" fill="rgb(255,255,170)"/>
<text x="99.5" y="113.0" font-family="courier" font-size="16" fill="rgb(0,0,0)">10</text>
<line x1="99.5" y1="64.0" x2="146.5" y2="108.0" stroke="rgb(255,0,0)" stroke-width="1.5"/>
<line x1="146.5" y1="108.0" x2="118.0" y2="152.0" stroke="rgb(255,0,0)" stroke-width="1.5"/>
<line x1="118.0" y1="152.0" x2="102.0" y2="196.0" stroke="rgb(255,0,0)" stroke-width="1.5"/>
<polygon points=" 95,184 109,184 109,208 95,208" fill="rgb(255,255,170)"/>
<text x="97.0" y="201.0" font-family="courier" font-size="16" fill="rgb(0,0,0)">+</text>
<line x1="118.0" y1="152.0" x2="134.0" y2="196.0" stroke="rgb(255,0,0)" stroke-width="1.5"/>
<polygon points=" 127,184 141,184 141,208 127,208" fill="rgb(255,255,170)"/>
<text x="129.0" y="201.0" font-family="courier" font-size="16" fill="rgb(0,0,0)">2</text>
<polygon points=" 96,140 140,140 140,164 96,164" fill="rgb(255,255,170)"/>
<text x="98.0" y="157.0" font-family="courier" font-size="16" fill="rgb(0,0,0)">rsec</text>
<line x1="146.5" y1="108.0" x2="175.0" y2="152.0" stroke="rgb(255,0,0)" stroke-width="1.5"/>
<polygon points=" 158,140 192,140 192,164 158,164" fill="rgb(255,255,170)"/>
<text x="160.0" y="157.0" font-family="courier" font-size="16" fill="rgb(0,0,0)">111</text>
<polygon points=" 140,96 154,96 154,120 140,120" fill="rgb(255,255,170)"/>
<text x="141.5" y="113.0" font-family="courier" font-size="16" fill="rgb(0,0,0)">$</text>
<polygon points=" 82,52 116,52 116,76 82,76" fill="rgb(255,255,170)"/>
<text x="84.5" y="69.0" font-family="courier" font-size="16" fill="rgb(0,0,0)">ite</text>
<line x1="202.25" y1="20.0" x2="305.0" y2="64.0" stroke="rgb(255,0,0)" stroke-width="1.5"/>
<line x1="305.0" y1="64.0" x2="289.0" y2="108.0" stroke="rgb(255,0,0)" stroke-width="1.5"/>
<line x1="289.0" y1="108.0" x2="270.5" y2="152.0" stroke="rgb(255,0,0)" stroke-width="1.5"/>
<line x1="270.5" y1="152.0" x2="242.0" y2="196.0" stroke="rgb(255,0,0)" stroke-width="1.5"/>
<line x1="242.0" y1="196.0" x2="242.0" y2="240.0" stroke="rgb(255,0,0)" stroke-width="1.5"/>
<line x1="242.0" y1="240.0" x2="226.0" y2="284.0" stroke="rgb(255,0,0)" stroke-width="1.5"/>
<polygon points=" 219,272 233,272 233,296 219,296" fill="rgb(255,255,170)"/>
<text x="221.0" y="289.0" font-family="courier" font-size="16" fill="rgb(0,0,0)">+</text>
<line x1="242.0" y1="240.0" x2="258.0" y2="284.0" stroke="rgb(255,0,0)" stroke-width="1.5"/>
<polygon points=" 251,272 265,272 265,296 251,296" fill="rgb(255,255,170)"/>
<text x="253.0" y="289.0" font-family="courier" font-size="16" fill="rgb(0,0,0)">2</text>
<polygon points=" 220,228 264,228 264,252 220,252" fill="rgb(255,255,170)"/>
<text x="222.0" y="245.0" font-family="courier" font-size="16" fill="rgb(0,0,0)">rsec</text>
<polygon points=" 210,184 274,184 274,208 210,208" fill="rgb(255,255,170)"/>
<text x="212.0" y="201.0" font-family="courier" font-size="16" fill="rgb(0,0,0)">update</text>
<line x1="270.5" y1="152.0" x2="299.0" y2="196.0" stroke="rgb(255,0,0)" stroke-width="1.5"/>
<polygon points=" 292,184 306,184 306,208 292,208" fill="rgb(255,255,170)"/>
<text x="294.0" y="201.0" font-family="courier" font-size="16" fill="rgb(0,0,0)">5</text>
<polygon points=" 264,140 278,140 278,164 264,164" fill="rgb(255,255,170)"/>
<text x="265.5" y="157.0" font-family="courier" font-size="16" fill="rgb(0,0,0)">$</text>
<line x1="289.0" y1="108.0" x2="307.5" y2="152.0" stroke="rgb(255,0,0)" stroke-width="1.5"/>
<polygon points=" 296,140 320,140 320,164 296,164" fill="rgb(255,255,170)"/>
<text x="297.5" y="157.0" font-family="courier" font-size="16" fill="rgb(0,0,0)">10</text>
<polygon points=" 282,96 296,96 296,120 282,120" fill="rgb(255,255,170)"/>
<text x="284.0" y="113.0" font-family="courier" font-size="16" fill="rgb(0,0,0)">$</text>
<line x1="305.0" y1="64.0" x2="321.0" y2="108.0" stroke="rgb(255,0,0)" stroke-width="1.5"/>
<polygon points=" 314,96 328,96 328,120 314,120" fill="rgb(255,255,170)"/>
<text x="316.0" y="113.0" font-family="courier" font-size="16" fill="rgb(0,0,0)">5</text>
<polygon points=" 298,52 312,52 312,76 298,76" fill="rgb(255,255,170)"/>
<text x="300.0" y="69.0" font-family="courier" font-size="16" fill="rgb(0,0,0)">$</text>
<polygon points=" 195,8 209,8 209,32 195,32" fill="rgb(255,255,170)"/>
<text x="197.25" y="25.0" font-family="courier" font-size="16" fill="rgb(0,0,0)">+</text></svg>