<svg xmlns="http://www.w3.org/2000/svg"
xmlns:xlink="http://www.w3.org/1999/xlink"
version="1.1" baseProfile="full"
width="166" height="304">
<line x1="90.5" y1="20.0" x2="56.0" y2="64.0" stroke="rgb(255,0,0)" stroke-width="1.5"/>
<line x1="56.0" y1="64.0" x2="35.0" y2="108.0" stroke="rgb(255,0,0)" stroke-width="1.5"/>
<polygon points=" 18,96 52,96 52,120 18,120" fill="rgb(255,170,170)"/>
<text x="20.0" y="113.0" font-family="courier" font-size="16" fill="rgb(0,0,0)">111</text>
<line x1="56.0" y1="64.0" x2="77.0" y2="108.0" stroke="rgb(255,0,0)" stroke-width="1.5"/>
<polygon points=" 70,96 84,96 84,120 70,120" fill="rgb(255,170,170)"/>
<text x="72.0" y="113.0" font-family="courier" font-size="16" fill="rgb(0,0,0)">2</text>
<polygon points=" 49,52 63,52 63,76 49,76" fill="rgb(255,170,170)"/>
<text x="51.0" y="69.0" font-family="courier" font-size="16" fill="rgb(0,0,0)">+</text>
<line x1="90.5" y1="20.0" x2="125.0" y2="64.0" stroke="rgb(255,0,0)" stroke-width="1.5"/>
<line x1="125.0" y1="64.0" x2="109.0" y2="108.0" stroke="rgb(255,0,0)" stroke-width="1.5"/>
<line x1="109.0" y1="108.0" x2="90.5" y2="152.0" stroke="rgb(255,0,0)" stroke-width="1.5"/>
<line x1="90.5" y1="152.0" x2="62.0" y2="196.0" stroke="rgb(255,0,0)" stroke-width="1.5"/>
<line x1="62.0" y1="196.0" x2="62.0" y2="240.0" stroke="rgb(255,0,0)" stroke-width="1.5"/>
<line x1="62.0" y1="240.0" x2="46.0" y2="284.0" stroke="rgb(255,0,0)" stroke-width="1.5"/>
<polygon points=" 39,272 53,272 53,296 39,296" fill="rgb(255,255,170)"/>
<text x="41.0" y="289.0" font-family="courier" font-size="16" fill="rgb(0,0,0)">+</text>
<line x1="62.0" y1="240.0" x2="78.0" y2="284.0" stroke="rgb(255,0,0)" stroke-width="1.5"/>
<polygon points=" 71,272 85,272 85,296 71,296" fill="rgb(255,255,170)"/>
<text x="73.0" y="289.0" font-family="courier" font-size="16" fill="rgb(0,0,0)">2</text>
<polygon points=" 40,228 84,228 84,252 40,252" fill="rgb(255,255,170)"/>
<text x="42.0" y="245.0" font-family="courier" font-size="16" fill="rgb(0,0,0)">rsec</text>
<polygon points=" 30,184 94,184 94,208 30,208" fill="rgb(255,255,170)"/>
<text x="32.0" y="201.0" font-family="courier" font-size="16" fill="rgb(0,0,0)">update</text>
<line x1="90.5" y1="152.0" x2="119.0" y2="196.0" stroke="rgb(255,0,0)" stroke-width="1.5"/>
<polygon points=" 112,184 126,184 126,208 112,208" fill="rgb(255,255,170)"/>
<text x="114.0" y="201.0" font-family="courier" font-size="16" fill="rgb(0,0,0)">5</text>
<polygon points=" 84,140 98,140 98,164 84,164" fill="rgb(255,255,170)"/>
<text x="85.5" y="157.0" font-family="courier" font-size="16" fill="rgb(0,0,0)">$</text>
<line x1="109.0" y1="108.0" x2="127.5" y2="152.0" stroke="rgb(255,0,0)" stroke-width="1.5"/>
<polygon points=" 116,140 140,140 140,164 116,164" fill="rgb(255,255,170)"/>
<text x="117.5" y="157.0" font-family="courier" font-size="16" fill="rgb(0,0,0)">10</text>
<polygon points=" 102,96 116,96 116,120 102,120" fill="rgb(255,255,170)"/>
<text x="104.0" y="113.0" font-family="courier" font-size="16" fill="rgb(0,0,0)">$</text>
<line x1="125.0" y1="64.0" x2="141.0" y2="108.0" stroke="rgb(255,0,0)" stroke-width="1.5"/>
<polygon points=" 134,96 148,96 148,120 134,120" fill="rgb(255,255,170)"/>
<text x="136.0" y="113.0" font-family="courier" font-size="16" fill="rgb(0,0,0)">5</text>
<polygon points=" 118,52 132,52 132,76 118,76" fill="rgb(255,255,170)"/>
<text x="120.0" y="69.0" font-family="courier" font-size="16" fill="rgb(0,0,0)">$</text>
<polygon points=" 84,8 98,8 98,32 84,32" fill="rgb(255,255,170)"/>
<text x="85.5" y="25.0" font-family="courier" font-size="16" fill="rgb(0,0,0)">+</text></svg>