<svg xmlns="http://www.w3.org/2000/svg"
xmlns:xlink="http://www.w3.org/1999/xlink"
version="1.1" baseProfile="full"
width="179" height="216">
<line x1="61.0" y1="20.0" x2="35.0" y2="64.0" stroke="rgb(255,0,0)" stroke-width="1.5"/>
<polygon points=" 18,52 52,52 52,76 18,76" fill="rgb(255,255,170)"/>
<text x="20.0" y="69.0" font-family="courier" font-size="16" fill="rgb(0,0,0)">113</text>
<line x1="61.0" y1="20.0" x2="87.0" y2="64.0" stroke="rgb(255,0,0)" stroke-width="1.5"/>
<line x1="87.0" y1="64.0" x2="43.75" y2="108.0" stroke="rgb(255,0,0)" stroke-width="1.5"/>
<line x1="43.75" y1="108.0" x2="27.75" y2="152.0" stroke="rgb(255,0,0)" stroke-width="1.5"/>
<polygon points=" 21,140 35,140 35,164 21,164" fill="rgb(170,255,170)"/>
<text x="22.75" y="157.0" font-family="courier" font-size="16" fill="rgb(0,0,0)">5</text>
<line x1="43.75" y1="108.0" x2="59.75" y2="152.0" stroke="rgb(255,0,0)" stroke-width="1.5"/>
<polygon points=" 53,140 67,140 67,164 53,164" fill="rgb(170,255,170)"/>
<text x="54.75" y="157.0" font-family="courier" font-size="16" fill="rgb(0,0,0)">5</text>
<polygon points=" 32,96 56,96 56,120 32,120" fill="rgb(170,255,170)"/>
<text x="33.75" y="113.0" font-family="courier" font-size="16" fill="rgb(0,0,0)">==</text>
<line x1="87.0" y1="64.0" x2="85.75" y2="108.0" stroke="rgb(255,0,0)" stroke-width="1.5"/>
<polygon points=" 74,96 98,96 98,120 74,120" fill="rgb(170,255,170)"/>
<text x="75.75" y="113.0" font-family="courier" font-size="16" fill="rgb(0,0,0)">10</text>
<line x1="87.0" y1="64.0" x2="130.25" y2="108.0" stroke="rgb(255,0,0)" stroke-width="1.5"/>
<line x1="130.25" y1="108.0" x2="106.75" y2="152.0" stroke="rgb(255,0,0)" stroke-width="1.5"/>
<line x1="106.75" y1="152.0" x2="90.75" y2="196.0" stroke="rgb(255,0,0)" stroke-width="1.5"/>
<polygon points=" 84,184 98,184 98,208 84,208" fill="rgb(170,255,170)"/>
<text x="85.75" y="201.0" font-family="courier" font-size="16" fill="rgb(0,0,0)">+</text>
<line x1="106.75" y1="152.0" x2="122.75" y2="196.0" stroke="rgb(255,0,0)" stroke-width="1.5"/>
<polygon points=" 116,184 130,184 130,208 116,208" fill="rgb(170,255,170)"/>
<text x="117.75" y="201.0" font-family="courier" font-size="16" fill="rgb(0,0,0)">2</text>
<polygon points=" 85,140 129,140 129,164 85,164" fill="rgb(170,255,170)"/>
<text x="86.75" y="157.0" font-family="courier" font-size="16" fill="rgb(0,0,0)">rsec</text>
<line x1="130.25" y1="108.0" x2="153.75" y2="152.0" stroke="rgb(255,0,0)" stroke-width="1.5"/>
<polygon points=" 147,140 161,140 161,164 147,164" fill="rgb(170,255,170)"/>
<text x="148.75" y="157.0" font-family="courier" font-size="16" fill="rgb(0,0,0)">5</text>
<polygon points=" 123,96 137,96 137,120 123,120" fill="rgb(170,255,170)"/>
<text x="125.25" y="113.0" font-family="courier" font-size="16" fill="rgb(0,0,0)">$</text>
<polygon points=" 70,52 104,52 104,76 70,76" fill="rgb(170,255,170)"/>
<text x="72.0" y="69.0" font-family="courier" font-size="16" fill="rgb(0,0,0)">ite</text>
<polygon points=" 54,8 68,8 68,32 54,32" fill="rgb(255,255,170)"/>
<text x="56.0" y="25.0" font-family="courier" font-size="16" fill="rgb(0,0,0)">+</text></svg>