<svg xmlns="http://www.w3.org/2000/svg"
xmlns:xlink="http://www.w3.org/1999/xlink"
version="1.1" baseProfile="full"
width="180" height="216">
<line x1="61.0" y1="20.0" x2="35.0" y2="64.0" stroke="rgb(255,0,0)" stroke-width="1.5"/>
<polygon points=" 18,52 52,52 52,76 18,76" fill="rgb(255,255,170)"/>
<text x="20.0" y="69.0" font-family="courier" font-size="16" fill="rgb(0,0,0)">113</text>
<line x1="61.0" y1="20.0" x2="87.0" y2="64.0" stroke="rgb(255,0,0)" stroke-width="1.5"/>
<line x1="87.0" y1="64.0" x2="42.5" y2="108.0" stroke="rgb(255,0,0)" stroke-width="1.5"/>
<polygon points=" 20,96 64,96 64,120 20,120" fill="rgb(170,255,170)"/>
<text x="22.5" y="113.0" font-family="courier" font-size="16" fill="rgb(0,0,0)">true</text>
<line x1="87.0" y1="64.0" x2="94.5" y2="108.0" stroke="rgb(255,0,0)" stroke-width="1.5"/>
<polygon points=" 82,96 106,96 106,120 82,120" fill="rgb(255,255,170)"/>
<text x="84.5" y="113.0" font-family="courier" font-size="16" fill="rgb(0,0,0)">10</text>
<line x1="87.0" y1="64.0" x2="131.5" y2="108.0" stroke="rgb(255,0,0)" stroke-width="1.5"/>
<line x1="131.5" y1="108.0" x2="108.0" y2="152.0" stroke="rgb(255,0,0)" stroke-width="1.5"/>
<line x1="108.0" y1="152.0" x2="92.0" y2="196.0" stroke="rgb(255,0,0)" stroke-width="1.5"/>
<polygon points=" 85,184 99,184 99,208 85,208" fill="rgb(255,255,170)"/>
<text x="87.0" y="201.0" font-family="courier" font-size="16" fill="rgb(0,0,0)">+</text>
<line x1="108.0" y1="152.0" x2="124.0" y2="196.0" stroke="rgb(255,0,0)" stroke-width="1.5"/>
<polygon points=" 117,184 131,184 131,208 117,208" fill="rgb(255,255,170)"/>
<text x="119.0" y="201.0" font-family="courier" font-size="16" fill="rgb(0,0,0)">2</text>
<polygon points=" 86,140 130,140 130,164 86,164" fill="rgb(255,255,170)"/>
<text x="88.0" y="157.0" font-family="courier" font-size="16" fill="rgb(0,0,0)">rsec</text>
<line x1="131.5" y1="108.0" x2="155.0" y2="152.0" stroke="rgb(255,0,0)" stroke-width="1.5"/>
<polygon points=" 148,140 162,140 162,164 148,164" fill="rgb(255,255,170)"/>
<text x="150.0" y="157.0" font-family="courier" font-size="16" fill="rgb(0,0,0)">5</text>
<polygon points=" 124,96 138,96 138,120 124,120" fill="rgb(255,255,170)"/>
<text x="126.5" y="113.0" font-family="courier" font-size="16" fill="rgb(0,0,0)">$</text>
<polygon points=" 70,52 104,52 104,76 70,76" fill="rgb(255,255,170)"/>
<text x="72.0" y="69.0" font-family="courier" font-size="16" fill="rgb(0,0,0)">ite</text>
<polygon points=" 54,8 68,8 68,32 54,32" fill="rgb(255,255,170)"/>
<text x="56.0" y="25.0" font-family="courier" font-size="16" fill="rgb(0,0,0)">+</text></svg>