<svg xmlns="http://www.w3.org/2000/svg"
xmlns:xlink="http://www.w3.org/1999/xlink"
version="1.1" baseProfile="full"
width="112" height="160">
<line x1="67.5" y1="20.0" x2="52.5" y2="60.0" stroke="rgb(255,0,0)" stroke-width="1.5"/>
<line x1="52.5" y1="60.0" x2="35.0" y2="100.0" stroke="rgb(255,0,0)" stroke-width="1.5"/>
<line x1="35.0" y1="100.0" x2="25.0" y2="140.0" stroke="rgb(255,0,0)" stroke-width="1.5"/>
<polygon points=" 18,128 32,128 32,152 18,152" fill="rgb(170,255,170)"/>
<text x="20.0" y="145.0" font-family="courier" font-size="16" fill="rgb(0,0,0)">+</text>
<line x1="35.0" y1="100.0" x2="45.0" y2="140.0" stroke="rgb(255,0,0)" stroke-width="1.5"/>
<polygon points=" 38,128 52,128 52,152 38,152" fill="rgb(170,255,170)"/>
<text x="40.0" y="145.0" font-family="courier" font-size="16" fill="rgb(0,0,0)">2</text>
<polygon points=" 13,88 57,88 57,112 13,112" fill="rgb(170,255,170)"/>
<text x="15.0" y="105.0" font-family="courier" font-size="16" fill="rgb(0,0,0)">rsec</text>
<line x1="52.5" y1="60.0" x2="70.0" y2="100.0" stroke="rgb(255,0,0)" stroke-width="1.5"/>
<polygon points=" 63,88 77,88 77,112 63,112" fill="rgb(170,255,170)"/>
<text x="65.0" y="105.0" font-family="courier" font-size="16" fill="rgb(0,0,0)">4</text>
<polygon points=" 40,48 64,48 64,72 40,72" fill="rgb(170,255,170)"/>
<text x="42.5" y="65.0" font-family="courier" font-size="16" fill="rgb(0,0,0)">^^</text>
<line x1="67.5" y1="20.0" x2="82.5" y2="60.0" stroke="rgb(255,0,0)" stroke-width="1.5"/>
<polygon points=" 70,48 94,48 94,72 70,72" fill="rgb(170,255,170)"/>
<text x="72.5" y="65.0" font-family="courier" font-size="16" fill="rgb(0,0,0)">10</text>
<polygon points=" 60,8 74,8 74,32 60,32" fill="rgb(170,255,170)"/>
<text x="62.5" y="25.0" font-family="courier" font-size="16" fill="rgb(0,0,0)">$</text></svg>