<svg xmlns="http://www.w3.org/2000/svg"
xmlns:xlink="http://www.w3.org/1999/xlink"
version="1.1" baseProfile="full"
width="145" height="200">
<line x1="81.25" y1="20.0" x2="68.75" y2="60.0" stroke="rgb(255,0,0)" stroke-width="1.5"/>
<line x1="68.75" y1="60.0" x2="35.0" y2="100.0" stroke="rgb(255,0,0)" stroke-width="1.5"/>
<line x1="35.0" y1="100.0" x2="25.0" y2="140.0" stroke="rgb(255,0,0)" stroke-width="1.5"/>
<polygon points=" 18,128 32,128 32,152 18,152" fill="rgb(170,255,170)"/>
<text x="20.0" y="145.0" font-family="courier" font-size="16" fill="rgb(0,0,0)">+</text>
<line x1="35.0" y1="100.0" x2="45.0" y2="140.0" stroke="rgb(255,0,0)" stroke-width="1.5"/>
<polygon points=" 38,128 52,128 52,152 38,152" fill="rgb(170,255,170)"/>
<text x="40.0" y="145.0" font-family="courier" font-size="16" fill="rgb(0,0,0)">2</text>
<polygon points=" 13,88 57,88 57,112 13,112" fill="rgb(170,255,170)"/>
<text x="15.0" y="105.0" font-family="courier" font-size="16" fill="rgb(0,0,0)">rsec</text>
<line x1="68.75" y1="60.0" x2="102.5" y2="100.0" stroke="rgb(255,0,0)" stroke-width="1.5"/>
<line x1="102.5" y1="100.0" x2="85.0" y2="140.0" stroke="rgb(255,0,0)" stroke-width="1.5"/>
<line x1="85.0" y1="140.0" x2="75.0" y2="180.0" stroke="rgb(255,0,0)" stroke-width="1.5"/>
<polygon points=" 68,168 82,168 82,192 68,192" fill="rgb(170,255,170)"/>
<text x="70.0" y="185.0" font-family="courier" font-size="16" fill="rgb(0,0,0)">+</text>
<line x1="85.0" y1="140.0" x2="95.0" y2="180.0" stroke="rgb(255,0,0)" stroke-width="1.5"/>
<polygon points=" 88,168 102,168 102,192 88,192" fill="rgb(170,255,170)"/>
<text x="90.0" y="185.0" font-family="courier" font-size="16" fill="rgb(0,0,0)">2</text>
<polygon points=" 63,128 107,128 107,152 63,152" fill="rgb(170,255,170)"/>
<text x="65.0" y="145.0" font-family="courier" font-size="16" fill="rgb(0,0,0)">rsec</text>
<line x1="102.5" y1="100.0" x2="120.0" y2="140.0" stroke="rgb(255,0,0)" stroke-width="1.5"/>
<polygon points=" 113,128 127,128 127,152 113,152" fill="rgb(170,255,170)"/>
<text x="115.0" y="145.0" font-family="courier" font-size="16" fill="rgb(0,0,0)">3</text>
<polygon points=" 90,88 114,88 114,112 90,112" fill="rgb(170,255,170)"/>
<text x="92.5" y="105.0" font-family="courier" font-size="16" fill="rgb(0,0,0)">^^</text>
<polygon points=" 62,48 76,48 76,72 62,72" fill="rgb(170,255,170)"/>
<text x="63.75" y="65.0" font-family="courier" font-size="16" fill="rgb(0,0,0)">.</text>
<line x1="81.25" y1="20.0" x2="93.75" y2="60.0" stroke="rgb(255,0,0)" stroke-width="1.5"/>
<polygon points=" 82,48 106,48 106,72 82,72" fill="rgb(255,255,170)"/>
<text x="83.75" y="65.0" font-family="courier" font-size="16" fill="rgb(0,0,0)">10</text>
<polygon points=" 74,8 88,8 88,32 74,32" fill="rgb(255,255,170)"/>
<text x="76.25" y="25.0" font-family="courier" font-size="16" fill="rgb(0,0,0)">$</text></svg>