<svg xmlns="http://www.w3.org/2000/svg"
xmlns:xlink="http://www.w3.org/1999/xlink"
version="1.1" baseProfile="full"
width="135" height="200">
<line x1="62.5" y1="20.0" x2="35.0" y2="60.0" stroke="rgb(255,0,0)" stroke-width="1.5"/>
<line x1="35.0" y1="60.0" x2="25.0" y2="100.0" stroke="rgb(255,0,0)" stroke-width="1.5"/>
<polygon points=" 18,88 32,88 32,112 18,112" fill="rgb(255,170,170)"/>
<text x="20.0" y="105.0" font-family="courier" font-size="16" fill="rgb(0,0,0)">+</text>
<line x1="35.0" y1="60.0" x2="45.0" y2="100.0" stroke="rgb(255,0,0)" stroke-width="1.5"/>
<polygon points=" 38,88 52,88 52,112 38,112" fill="rgb(255,170,170)"/>
<text x="40.0" y="105.0" font-family="courier" font-size="16" fill="rgb(0,0,0)">2</text>
<polygon points=" 13,48 57,48 57,72 13,72" fill="rgb(255,170,170)"/>
<text x="15.0" y="65.0" font-family="courier" font-size="16" fill="rgb(0,0,0)">rsec</text>
<line x1="62.5" y1="20.0" x2="90.0" y2="60.0" stroke="rgb(255,0,0)" stroke-width="1.5"/>
<line x1="90.0" y1="60.0" x2="75.0" y2="100.0" stroke="rgb(255,0,0)" stroke-width="1.5"/>
<line x1="75.0" y1="100.0" x2="57.5" y2="140.0" stroke="rgb(255,0,0)" stroke-width="1.5"/>
<line x1="57.5" y1="140.0" x2="47.5" y2="180.0" stroke="rgb(255,0,0)" stroke-width="1.5"/>
<polygon points=" 40,168 54,168 54,192 40,192" fill="rgb(255,170,170)"/>
<text x="42.5" y="185.0" font-family="courier" font-size="16" fill="rgb(0,0,0)">+</text>
<line x1="57.5" y1="140.0" x2="67.5" y2="180.0" stroke="rgb(255,0,0)" stroke-width="1.5"/>
<polygon points=" 60,168 74,168 74,192 60,192" fill="rgb(255,170,170)"/>
<text x="62.5" y="185.0" font-family="courier" font-size="16" fill="rgb(0,0,0)">2</text>
<polygon points=" 36,128 80,128 80,152 36,152" fill="rgb(255,170,170)"/>
<text x="37.5" y="145.0" font-family="courier" font-size="16" fill="rgb(0,0,0)">rsec</text>
<line x1="75.0" y1="100.0" x2="92.5" y2="140.0" stroke="rgb(255,0,0)" stroke-width="1.5"/>
<polygon points=" 86,128 100,128 100,152 86,152" fill="rgb(255,170,170)"/>
<text x="87.5" y="145.0" font-family="courier" font-size="16" fill="rgb(0,0,0)">3</text>
<polygon points=" 63,88 87,88 87,112 63,112" fill="rgb(255,170,170)"/>
<text x="65.0" y="105.0" font-family="courier" font-size="16" fill="rgb(0,0,0)">^^</text>
<line x1="90.0" y1="60.0" x2="105.0" y2="100.0" stroke="rgb(255,0,0)" stroke-width="1.5"/>
<polygon points=" 93,88 117,88 117,112 93,112" fill="rgb(255,170,170)"/>
<text x="95.0" y="105.0" font-family="courier" font-size="16" fill="rgb(0,0,0)">10</text>
<polygon points=" 83,48 97,48 97,72 83,72" fill="rgb(255,170,170)"/>
<text x="85.0" y="65.0" font-family="courier" font-size="16" fill="rgb(0,0,0)">$</text>
<polygon points=" 56,8 70,8 70,32 56,32" fill="rgb(255,170,170)"/>
<text x="57.5" y="25.0" font-family="courier" font-size="16" fill="rgb(0,0,0)">$</text></svg>