<svg xmlns="http://www.w3.org/2000/svg"
xmlns:xlink="http://www.w3.org/1999/xlink"
version="1.1" baseProfile="full"
width="112" height="200">
<line x1="77.5" y1="20.0" x2="67.5" y2="60.0" stroke="rgb(255,0,0)" stroke-width="1.5"/>
<line x1="67.5" y1="60.0" x2="52.5" y2="100.0" stroke="rgb(255,0,0)" stroke-width="1.5"/>
<line x1="52.5" y1="100.0" x2="35.0" y2="140.0" stroke="rgb(255,0,0)" stroke-width="1.5"/>
<line x1="35.0" y1="140.0" x2="25.0" y2="180.0" stroke="rgb(255,0,0)" stroke-width="1.5"/>
<polygon points=" 18,168 32,168 32,192 18,192" fill="rgb(170,255,170)"/>
<text x="20.0" y="185.0" font-family="courier" font-size="16" fill="rgb(0,0,0)">+</text>
<line x1="35.0" y1="140.0" x2="45.0" y2="180.0" stroke="rgb(255,0,0)" stroke-width="1.5"/>
<polygon points=" 38,168 52,168 52,192 38,192" fill="rgb(170,255,170)"/>
<text x="40.0" y="185.0" font-family="courier" font-size="16" fill="rgb(0,0,0)">2</text>
<polygon points=" 13,128 57,128 57,152 13,152" fill="rgb(170,255,170)"/>
<text x="15.0" y="145.0" font-family="courier" font-size="16" fill="rgb(0,0,0)">rsec</text>
<line x1="52.5" y1="100.0" x2="70.0" y2="140.0" stroke="rgb(255,0,0)" stroke-width="1.5"/>
<polygon points=" 63,128 77,128 77,152 63,152" fill="rgb(170,255,170)"/>
<text x="65.0" y="145.0" font-family="courier" font-size="16" fill="rgb(0,0,0)">3</text>
<polygon points=" 40,88 64,88 64,112 40,112" fill="rgb(170,255,170)"/>
<text x="42.5" y="105.0" font-family="courier" font-size="16" fill="rgb(0,0,0)">^^</text>
<line x1="67.5" y1="60.0" x2="82.5" y2="100.0" stroke="rgb(255,0,0)" stroke-width="1.5"/>
<polygon points=" 70,88 94,88 94,112 70,112" fill="rgb(170,255,170)"/>
<text x="72.5" y="105.0" font-family="courier" font-size="16" fill="rgb(0,0,0)">10</text>
<polygon points=" 60,48 74,48 74,72 60,72" fill="rgb(170,255,170)"/>
<text x="62.5" y="65.0" font-family="courier" font-size="16" fill="rgb(0,0,0)">$</text>
<line x1="77.5" y1="20.0" x2="87.5" y2="60.0" stroke="rgb(255,0,0)" stroke-width="1.5"/>
<polygon points=" 80,48 94,48 94,72 80,72" fill="rgb(170,255,170)"/>
<text x="82.5" y="65.0" font-family="courier" font-size="16" fill="rgb(0,0,0)">2</text>
<polygon points=" 70,8 84,8 84,32 70,32" fill="rgb(170,255,170)"/>
<text x="72.5" y="25.0" font-family="courier" font-size="16" fill="rgb(0,0,0)">+</text></svg>