<svg xmlns="http://www.w3.org/2000/svg"
xmlns:xlink="http://www.w3.org/1999/xlink"
version="1.1" baseProfile="full"
width="145" height="240">
<line x1="91.25" y1="20.0" x2="81.25" y2="60.0" stroke="rgb(255,0,0)" stroke-width="1.5"/>
<line x1="81.25" y1="60.0" x2="68.75" y2="100.0" stroke="rgb(255,0,0)" stroke-width="1.5"/>
<line x1="68.75" y1="100.0" x2="35.0" y2="140.0" stroke="rgb(255,0,0)" stroke-width="1.5"/>
<line x1="35.0" y1="140.0" x2="25.0" y2="180.0" stroke="rgb(255,0,0)" stroke-width="1.5"/>
<polygon points=" 18,168 32,168 32,192 18,192" fill="rgb(170,255,170)"/>
<text x="20.0" y="185.0" font-family="courier" font-size="16" fill="rgb(0,0,0)">+</text>
<line x1="35.0" y1="140.0" x2="45.0" y2="180.0" stroke="rgb(255,0,0)" stroke-width="1.5"/>
<polygon points=" 38,168 52,168 52,192 38,192" fill="rgb(170,255,170)"/>
<text x="40.0" y="185.0" font-family="courier" font-size="16" fill="rgb(0,0,0)">2</text>
<polygon points=" 13,128 57,128 57,152 13,152" fill="rgb(170,255,170)"/>
<text x="15.0" y="145.0" font-family="courier" font-size="16" fill="rgb(0,0,0)">rsec</text>
<line x1="68.75" y1="100.0" x2="102.5" y2="140.0" stroke="rgb(255,0,0)" stroke-width="1.5"/>
<line x1="102.5" y1="140.0" x2="85.0" y2="180.0" stroke="rgb(255,0,0)" stroke-width="1.5"/>
<line x1="85.0" y1="180.0" x2="75.0" y2="220.0" stroke="rgb(255,0,0)" stroke-width="1.5"/>
<polygon points=" 68,208 82,208 82,232 68,232" fill="rgb(170,255,170)"/>
<text x="70.0" y="225.0" font-family="courier" font-size="16" fill="rgb(0,0,0)">+</text>
<line x1="85.0" y1="180.0" x2="95.0" y2="220.0" stroke="rgb(255,0,0)" stroke-width="1.5"/>
<polygon points=" 88,208 102,208 102,232 88,232" fill="rgb(170,255,170)"/>
<text x="90.0" y="225.0" font-family="courier" font-size="16" fill="rgb(0,0,0)">2</text>
<polygon points=" 63,168 107,168 107,192 63,192" fill="rgb(170,255,170)"/>
<text x="65.0" y="185.0" font-family="courier" font-size="16" fill="rgb(0,0,0)">rsec</text>
<line x1="102.5" y1="140.0" x2="120.0" y2="180.0" stroke="rgb(255,0,0)" stroke-width="1.5"/>
<polygon points=" 113,168 127,168 127,192 113,192" fill="rgb(170,255,170)"/>
<text x="115.0" y="185.0" font-family="courier" font-size="16" fill="rgb(0,0,0)">2</text>
<polygon points=" 90,128 114,128 114,152 90,152" fill="rgb(170,255,170)"/>
<text x="92.5" y="145.0" font-family="courier" font-size="16" fill="rgb(0,0,0)">^^</text>
<polygon points=" 62,88 76,88 76,112 62,112" fill="rgb(170,255,170)"/>
<text x="63.75" y="105.0" font-family="courier" font-size="16" fill="rgb(0,0,0)">.</text>
<line x1="81.25" y1="60.0" x2="93.75" y2="100.0" stroke="rgb(255,0,0)" stroke-width="1.5"/>
<polygon points=" 82,88 106,88 106,112 82,112" fill="rgb(255,255,170)"/>
<text x="83.75" y="105.0" font-family="courier" font-size="16" fill="rgb(0,0,0)">10</text>
<polygon points=" 74,48 88,48 88,72 74,72" fill="rgb(255,255,170)"/>
<text x="76.25" y="65.0" font-family="courier" font-size="16" fill="rgb(0,0,0)">$</text>
<line x1="91.25" y1="20.0" x2="101.25" y2="60.0" stroke="rgb(255,0,0)" stroke-width="1.5"/>
<polygon points=" 94,48 108,48 108,72 94,72" fill="rgb(255,255,170)"/>
<text x="96.25" y="65.0" font-family="courier" font-size="16" fill="rgb(0,0,0)">2</text>
<polygon points=" 84,8 98,8 98,32 84,32" fill="rgb(255,255,170)"/>
<text x="86.25" y="25.0" font-family="courier" font-size="16" fill="rgb(0,0,0)">+</text></svg>