<svg xmlns="http://www.w3.org/2000/svg"
xmlns:xlink="http://www.w3.org/1999/xlink"
version="1.1" baseProfile="full"
width="135" height="240">
<line x1="72.5" y1="20.0" x2="62.5" y2="60.0" stroke="rgb(255,0,0)" stroke-width="1.5"/>
<line x1="62.5" y1="60.0" x2="35.0" y2="100.0" stroke="rgb(255,0,0)" stroke-width="1.5"/>
<line x1="35.0" y1="100.0" x2="25.0" y2="140.0" stroke="rgb(255,0,0)" stroke-width="1.5"/>
<polygon points=" 18,128 32,128 32,152 18,152" fill="rgb(255,170,170)"/>
<text x="20.0" y="145.0" font-family="courier" font-size="16" fill="rgb(0,0,0)">+</text>
<line x1="35.0" y1="100.0" x2="45.0" y2="140.0" stroke="rgb(255,0,0)" stroke-width="1.5"/>
<polygon points=" 38,128 52,128 52,152 38,152" fill="rgb(255,170,170)"/>
<text x="40.0" y="145.0" font-family="courier" font-size="16" fill="rgb(0,0,0)">2</text>
<polygon points=" 13,88 57,88 57,112 13,112" fill="rgb(255,170,170)"/>
<text x="15.0" y="105.0" font-family="courier" font-size="16" fill="rgb(0,0,0)">rsec</text>
<line x1="62.5" y1="60.0" x2="90.0" y2="100.0" stroke="rgb(255,0,0)" stroke-width="1.5"/>
<line x1="90.0" y1="100.0" x2="75.0" y2="140.0" stroke="rgb(255,0,0)" stroke-width="1.5"/>
<line x1="75.0" y1="140.0" x2="57.5" y2="180.0" stroke="rgb(255,0,0)" stroke-width="1.5"/>
<line x1="57.5" y1="180.0" x2="47.5" y2="220.0" stroke="rgb(255,0,0)" stroke-width="1.5"/>
<polygon points=" 40,208 54,208 54,232 40,232" fill="rgb(255,170,170)"/>
<text x="42.5" y="225.0" font-family="courier" font-size="16" fill="rgb(0,0,0)">+</text>
<line x1="57.5" y1="180.0" x2="67.5" y2="220.0" stroke="rgb(255,0,0)" stroke-width="1.5"/>
<polygon points=" 60,208 74,208 74,232 60,232" fill="rgb(255,170,170)"/>
<text x="62.5" y="225.0" font-family="courier" font-size="16" fill="rgb(0,0,0)">2</text>
<polygon points=" 36,168 80,168 80,192 36,192" fill="rgb(255,170,170)"/>
<text x="37.5" y="185.0" font-family="courier" font-size="16" fill="rgb(0,0,0)">rsec</text>
<line x1="75.0" y1="140.0" x2="92.5" y2="180.0" stroke="rgb(255,0,0)" stroke-width="1.5"/>
<polygon points=" 86,168 100,168 100,192 86,192" fill="rgb(255,170,170)"/>
<text x="87.5" y="185.0" font-family="courier" font-size="16" fill="rgb(0,0,0)">2</text>
<polygon points=" 63,128 87,128 87,152 63,152" fill="rgb(255,170,170)"/>
<text x="65.0" y="145.0" font-family="courier" font-size="16" fill="rgb(0,0,0)">^^</text>
<line x1="90.0" y1="100.0" x2="105.0" y2="140.0" stroke="rgb(255,0,0)" stroke-width="1.5"/>
<polygon points=" 93,128 117,128 117,152 93,152" fill="rgb(255,170,170)"/>
<text x="95.0" y="145.0" font-family="courier" font-size="16" fill="rgb(0,0,0)">10</text>
<polygon points=" 83,88 97,88 97,112 83,112" fill="rgb(255,170,170)"/>
<text x="85.0" y="105.0" font-family="courier" font-size="16" fill="rgb(0,0,0)">$</text>
<polygon points=" 56,48 70,48 70,72 56,72" fill="rgb(255,170,170)"/>
<text x="57.5" y="65.0" font-family="courier" font-size="16" fill="rgb(0,0,0)">$</text>
<line x1="72.5" y1="20.0" x2="82.5" y2="60.0" stroke="rgb(255,0,0)" stroke-width="1.5"/>
<polygon points=" 76,48 90,48 90,72 76,72" fill="rgb(255,255,170)"/>
<text x="77.5" y="65.0" font-family="courier" font-size="16" fill="rgb(0,0,0)">2</text>
<polygon points=" 66,8 80,8 80,32 66,32" fill="rgb(255,255,170)"/>
<text x="67.5" y="25.0" font-family="courier" font-size="16" fill="rgb(0,0,0)">+</text></svg>