<svg xmlns="http://www.w3.org/2000/svg"
xmlns:xlink="http://www.w3.org/1999/xlink"
version="1.1" baseProfile="full"
width="122" height="240">
<line x1="87.5" y1="20.0" x2="77.5" y2="60.0" stroke="rgb(255,0,0)" stroke-width="1.5"/>
<line x1="77.5" y1="60.0" x2="67.5" y2="100.0" stroke="rgb(255,0,0)" stroke-width="1.5"/>
<line x1="67.5" y1="100.0" x2="52.5" y2="140.0" stroke="rgb(255,0,0)" stroke-width="1.5"/>
<line x1="52.5" y1="140.0" x2="35.0" y2="180.0" stroke="rgb(255,0,0)" stroke-width="1.5"/>
<line x1="35.0" y1="180.0" x2="25.0" y2="220.0" stroke="rgb(255,0,0)" stroke-width="1.5"/>
<polygon points=" 18,208 32,208 32,232 18,232" fill="rgb(255,170,170)"/>
<text x="20.0" y="225.0" font-family="courier" font-size="16" fill="rgb(0,0,0)">+</text>
<line x1="35.0" y1="180.0" x2="45.0" y2="220.0" stroke="rgb(255,0,0)" stroke-width="1.5"/>
<polygon points=" 38,208 52,208 52,232 38,232" fill="rgb(255,170,170)"/>
<text x="40.0" y="225.0" font-family="courier" font-size="16" fill="rgb(0,0,0)">2</text>
<polygon points=" 13,168 57,168 57,192 13,192" fill="rgb(255,170,170)"/>
<text x="15.0" y="185.0" font-family="courier" font-size="16" fill="rgb(0,0,0)">rsec</text>
<line x1="52.5" y1="140.0" x2="70.0" y2="180.0" stroke="rgb(255,0,0)" stroke-width="1.5"/>
<polygon points=" 63,168 77,168 77,192 63,192" fill="rgb(255,170,170)"/>
<text x="65.0" y="185.0" font-family="courier" font-size="16" fill="rgb(0,0,0)">2</text>
<polygon points=" 40,128 64,128 64,152 40,152" fill="rgb(255,170,170)"/>
<text x="42.5" y="145.0" font-family="courier" font-size="16" fill="rgb(0,0,0)">^^</text>
<line x1="67.5" y1="100.0" x2="82.5" y2="140.0" stroke="rgb(255,0,0)" stroke-width="1.5"/>
<polygon points=" 70,128 94,128 94,152 70,152" fill="rgb(255,255,170)"/>
<text x="72.5" y="145.0" font-family="courier" font-size="16" fill="rgb(0,0,0)">10</text>
<polygon points=" 60,88 74,88 74,112 60,112" fill="rgb(255,255,170)"/>
<text x="62.5" y="105.0" font-family="courier" font-size="16" fill="rgb(0,0,0)">$</text>
<line x1="77.5" y1="60.0" x2="87.5" y2="100.0" stroke="rgb(255,0,0)" stroke-width="1.5"/>
<polygon points=" 80,88 94,88 94,112 80,112" fill="rgb(255,255,170)"/>
<text x="82.5" y="105.0" font-family="courier" font-size="16" fill="rgb(0,0,0)">2</text>
<polygon points=" 70,48 84,48 84,72 70,72" fill="rgb(255,255,170)"/>
<text x="72.5" y="65.0" font-family="courier" font-size="16" fill="rgb(0,0,0)">+</text>
<line x1="87.5" y1="20.0" x2="97.5" y2="60.0" stroke="rgb(255,0,0)" stroke-width="1.5"/>
<polygon points=" 90,48 104,48 104,72 90,72" fill="rgb(255,255,170)"/>
<text x="92.5" y="65.0" font-family="courier" font-size="16" fill="rgb(0,0,0)">2</text>
<polygon points=" 80,8 94,8 94,32 80,32" fill="rgb(255,255,170)"/>
<text x="82.5" y="25.0" font-family="courier" font-size="16" fill="rgb(0,0,0)">+</text></svg>