<svg xmlns="http://www.w3.org/2000/svg"
xmlns:xlink="http://www.w3.org/1999/xlink"
version="1.1" baseProfile="full"
width="88" height="120">
<line x1="52.5" y1="20.0" x2="42.5" y2="60.0" stroke="rgb(255,0,0)" stroke-width="1.5"/>
<line x1="42.5" y1="60.0" x2="30.0" y2="100.0" stroke="rgb(255,0,0)" stroke-width="1.5"/>
<polygon points=" 18,88 42,88 42,112 18,112" fill="rgb(170,255,170)"/>
<text x="20.0" y="105.0" font-family="courier" font-size="16" fill="rgb(0,0,0)">14</text>
<line x1="42.5" y1="60.0" x2="55.0" y2="100.0" stroke="rgb(255,0,0)" stroke-width="1.5"/>
<polygon points=" 48,88 62,88 62,112 48,112" fill="rgb(255,255,170)"/>
<text x="50.0" y="105.0" font-family="courier" font-size="16" fill="rgb(0,0,0)">2</text>
<polygon points=" 36,48 50,48 50,72 36,72" fill="rgb(255,255,170)"/>
<text x="37.5" y="65.0" font-family="courier" font-size="16" fill="rgb(0,0,0)">+</text>
<line x1="52.5" y1="20.0" x2="62.5" y2="60.0" stroke="rgb(255,0,0)" stroke-width="1.5"/>
<polygon points=" 56,48 70,48 70,72 56,72" fill="rgb(255,255,170)"/>
<text x="57.5" y="65.0" font-family="courier" font-size="16" fill="rgb(0,0,0)">2</text>
<polygon points=" 46,8 60,8 60,32 46,32" fill="rgb(255,255,170)"/>
<text x="47.5" y="25.0" font-family="courier" font-size="16" fill="rgb(0,0,0)">+</text></svg>