<svg xmlns="http://www.w3.org/2000/svg" 
xmlns:xlink="http://www.w3.org/1999/xlink" 
version="1.1" baseProfile="full" 
width="608" height="568" >
<polygon points=" 568,284 533,152 436,55 304,20 172,55 75,152 40,284 75,416 172,513 304,548 436,513 533,416 568,284" fill="rgb(255,0,0)" />
<polygon points=" 392,284 380,240 348,208 304,196 260,208 228,240 216,284 228,328 260,360 304,372 348,360 380,328 392,284" fill="rgb(128,0,255)" />
<polygon points=" 392,108 380,64 348,32 304,20 260,32 228,64 216,108 228,152 260,184 304,196 348,184 380,152 392,108" fill="rgb(128,0,255)" />
<polygon points=" 500,272 533,240 544,196 533,152 500,120 456,108 412,120 380,152 368,196 380,240 412,272 456,284 500,272" fill="rgb(128,0,255)" />
<polygon points=" 412,448 456,460 500,448 533,416 544,372 533,328 500,296 456,284 412,296 380,328 368,372 380,416 412,448" fill="rgb(128,0,255)" />
<polygon points=" 216,460 228,504 260,536 304,548 348,536 380,504 392,460 380,416 348,384 304,372 260,384 228,416 216,460" fill="rgb(128,0,255)" />
<polygon points=" 108,296 75,328 64,372 75,416 108,448 152,460 196,448 228,416 240,372 228,328 196,296 152,284 108,296" fill="rgb(128,0,255)" />
<polygon points=" 196,120 152,108 108,120 75,152 64,196 75,240 108,272 152,284 196,272 228,240 240,196 228,152 196,120" fill="rgb(128,0,255)" />
<polygon points=" 333,284 329,269 319,259 304,255 289,259 279,269 275,284 279,299 289,309 304,313 319,309 329,299 333,284" fill="rgb(0,254,255)" />
<polygon points=" 333,225 329,211 319,200 304,196 289,200 279,211 275,225 279,240 289,251 304,255 319,251 329,240 333,225" fill="rgb(0,254,255)" />
<polygon points=" 369,280 380,269 384,255 380,240 369,229 355,225 340,229 329,240 325,255 329,269 340,280 355,284 369,280" fill="rgb(0,254,255)" />
<polygon points=" 340,339 355,343 369,339 380,328 384,313 380,299 369,288 355,284 340,288 329,299 325,313 329,328 340,339" fill="rgb(0,254,255)" />
<polygon points=" 275,343 279,357 289,368 304,372 319,368 329,357 333,343 329,328 319,317 304,313 289,317 279,328 275,343" fill="rgb(0,254,255)" />
<polygon points=" 239,288 228,299 224,313 228,328 239,339 253,343 268,339 279,328 283,313 279,299 268,288 253,284 239,288" fill="rgb(0,254,255)" />
<polygon points=" 268,229 253,225 239,229 228,240 224,255 228,269 239,280 253,284 268,280 279,269 283,255 279,240 268,229" fill="rgb(0,254,255)" />
<polygon points=" 333,108 329,93 319,83 304,79 289,83 279,93 275,108 279,123 289,133 304,137 319,133 329,123 333,108" fill="rgb(0,254,255)" />
<polygon points=" 333,49 329,35 319,24 304,20 289,24 279,35 275,49 279,64 289,75 304,79 319,75 329,64 333,49" fill="rgb(0,254,255)" />
<polygon points=" 369,104 380,93 384,79 380,64 369,53 355,49 340,53 329,64 325,79 329,93 340,104 355,108 369,104" fill="rgb(0,254,255)" />
<polygon points=" 340,163 355,167 369,163 380,152 384,137 380,123 369,112 355,108 340,112 329,123 325,137 329,152 340,163" fill="rgb(0,254,255)" />
<polygon points=" 275,167 279,181 289,192 304,196 319,192 329,181 333,167 329,152 319,141 304,137 289,141 279,152 275,167" fill="rgb(0,254,255)" />
<polygon points=" 239,112 228,123 224,137 228,152 239,163 253,167 268,163 279,152 283,137 279,123 268,112 253,108 239,112" fill="rgb(0,254,255)" />
<polygon points=" 268,53 253,49 239,53 228,64 224,79 228,93 239,104 253,108 268,104 279,93 283,79 279,64 268,53" fill="rgb(0,254,255)" />
<polygon points=" 471,221 482,211 486,196 482,181 471,171 456,167 442,171 431,181 427,196 431,211 442,221 456,225 471,221" fill="rgb(0,254,255)" />
<polygon points=" 486,137 482,123 471,112 456,108 442,112 431,123 427,137 431,152 442,163 456,167 471,163 482,152 486,137" fill="rgb(0,254,255)" />
<polygon points=" 522,192 533,181 537,167 533,152 522,141 507,137 493,141 482,152 478,167 482,181 493,192 507,196 522,192" fill="rgb(0,254,255)" />
<polygon points=" 493,251 507,255 522,251 533,240 537,225 533,211 522,200 507,196 493,200 482,211 478,225 482,240 493,251" fill="rgb(0,254,255)" />
<polygon points=" 427,255 431,269 442,280 456,284 471,280 482,269 486,255 482,240 471,229 456,225 442,229 431,240 427,255" fill="rgb(0,254,255)" />
<polygon points=" 391,200 380,211 376,225 380,240 391,251 406,255 420,251 431,240 435,225 431,211 420,200 406,196 391,200" fill="rgb(0,254,255)" />
<polygon points=" 420,141 406,137 391,141 380,152 376,167 380,181 391,192 406,196 420,192 431,181 435,167 431,152 420,141" fill="rgb(0,254,255)" />
<polygon points=" 442,397 456,401 471,397 482,387 486,372 482,357 471,347 456,343 442,347 431,357 427,372 431,387 442,397" fill="rgb(0,254,255)" />
<polygon points=" 486,313 482,299 471,288 456,284 442,288 431,299 427,313 431,328 442,339 456,343 471,339 482,328 486,313" fill="rgb(0,254,255)" />
<polygon points=" 522,368 533,357 537,343 533,328 522,317 507,313 493,317 482,328 478,343 482,357 493,368 507,372 522,368" fill="rgb(0,254,255)" />
<polygon points=" 493,427 507,431 522,427 533,416 537,401 533,387 522,376 507,372 493,376 482,387 478,401 482,416 493,427" fill="rgb(0,254,255)" />
<polygon points=" 427,431 431,445 442,456 456,460 471,456 482,445 486,431 482,416 471,405 456,401 442,405 431,416 427,431" fill="rgb(0,254,255)" />
<polygon points=" 391,376 380,387 376,401 380,416 391,427 406,431 420,427 431,416 435,401 431,387 420,376 406,372 391,376" fill="rgb(0,254,255)" />
<polygon points=" 420,317 406,313 391,317 380,328 376,343 380,357 391,368 406,372 420,368 431,357 435,343 431,328 420,317" fill="rgb(0,254,255)" />
<polygon points=" 275,460 279,475 289,485 304,489 319,485 329,475 333,460 329,445 319,435 304,431 289,435 279,445 275,460" fill="rgb(0,254,255)" />
<polygon points=" 333,401 329,387 319,376 304,372 289,376 279,387 275,401 279,416 289,427 304,431 319,427 329,416 333,401" fill="rgb(0,254,255)" />
<polygon points=" 369,456 380,445 384,431 380,416 369,405 355,401 340,405 329,416 325,431 329,445 340,456 355,460 369,456" fill="rgb(0,254,255)" />
<polygon points=" 340,515 355,519 369,515 380,504 384,489 380,475 369,464 355,460 340,464 329,475 325,489 329,504 340,515" fill="rgb(0,254,255)" />
<polygon points=" 275,519 279,533 289,544 304,548 319,544 329,533 333,519 329,504 319,493 304,489 289,493 279,504 275,519" fill="rgb(0,254,255)" />
<polygon points=" 239,464 228,475 224,489 228,504 239,515 253,519 268,515 279,504 283,489 279,475 268,464 253,460 239,464" fill="rgb(0,254,255)" />
<polygon points=" 268,405 253,401 239,405 228,416 224,431 228,445 239,456 253,460 268,456 279,445 283,431 279,416 268,405" fill="rgb(0,254,255)" />
<polygon points=" 137,347 126,357 122,372 126,387 137,397 152,401 166,397 177,387 181,372 177,357 166,347 152,343 137,347" fill="rgb(0,254,255)" />
<polygon points=" 181,313 177,299 166,288 152,284 137,288 126,299 122,313 126,328 137,339 152,343 166,339 177,328 181,313" fill="rgb(0,254,255)" />
<polygon points=" 217,368 228,357 232,343 228,328 217,317 202,313 188,317 177,328 173,343 177,357 188,368 202,372 217,368" fill="rgb(0,254,255)" />
<polygon points=" 188,427 202,431 217,427 228,416 232,401 228,387 217,376 202,372 188,376 177,387 173,401 177,416 188,427" fill="rgb(0,254,255)" />
<polygon points=" 122,431 126,445 137,456 152,460 166,456 177,445 181,431 177,416 166,405 152,401 137,405 126,416 122,431" fill="rgb(0,254,255)" />
<polygon points=" 86,376 75,387 71,401 75,416 86,427 101,431 115,427 126,416 130,401 126,387 115,376 101,372 86,376" fill="rgb(0,254,255)" />
<polygon points=" 115,317 101,313 86,317 75,328 71,343 75,357 86,368 101,372 115,368 126,357 130,343 126,328 115,317" fill="rgb(0,254,255)" />
<polygon points=" 166,171 152,167 137,171 126,181 122,196 126,211 137,221 152,225 166,221 177,211 181,196 177,181 166,171" fill="rgb(0,254,255)" />
<polygon points=" 181,137 177,123 166,112 152,108 137,112 126,123 122,137 126,152 137,163 152,167 166,163 177,152 181,137" fill="rgb(0,254,255)" />
<polygon points=" 217,192 228,181 232,167 228,152 217,141 202,137 188,141 177,152 173,167 177,181 188,192 202,196 217,192" fill="rgb(0,254,255)" />
<polygon points=" 188,251 202,255 217,251 228,240 232,225 228,211 217,200 202,196 188,200 177,211 173,225 177,240 188,251" fill="rgb(0,254,255)" />
<polygon points=" 122,255 126,269 137,280 152,284 166,280 177,269 181,255 177,240 166,229 152,225 137,229 126,240 122,255" fill="rgb(0,254,255)" />
<polygon points=" 86,200 75,211 71,225 75,240 86,251 101,255 115,251 126,240 130,225 126,211 115,200 101,196 86,200" fill="rgb(0,254,255)" />
<polygon points=" 115,141 101,137 86,141 75,152 71,167 75,181 86,192 101,196 115,192 126,181 130,167 126,152 115,141" fill="rgb(0,254,255)" />
<polygon points=" 314,284 312,279 309,276 304,274 299,276 296,279 294,284 296,289 299,292 304,294 309,292 312,289 314,284" fill="rgb(126,255,0)" />
<polygon points=" 314,264 312,260 309,256 304,255 299,256 296,260 294,264 296,269 299,273 304,274 309,273 312,269 314,264" fill="rgb(126,255,0)" />
<polygon points=" 326,283 329,279 331,274 329,269 326,266 321,264 316,266 312,269 311,274 312,279 316,283 321,284 326,283" fill="rgb(126,255,0)" />
<polygon points=" 316,302 321,304 326,302 329,299 331,294 329,289 326,285 321,284 316,285 312,289 311,294 312,299 316,302" fill="rgb(126,255,0)" />
<polygon points=" 294,304 296,308 299,312 304,313 309,312 312,308 314,304 312,299 309,295 304,294 299,295 296,299 294,304" fill="rgb(126,255,0)" />
<polygon points=" 282,285 279,289 277,294 279,299 282,302 287,304 292,302 296,299 297,294 296,289 292,285 287,284 282,285" fill="rgb(126,255,0)" />
<polygon points=" 292,266 287,264 282,266 279,269 277,274 279,279 282,283 287,284 292,283 296,279 297,274 296,269 292,266" fill="rgb(126,255,0)" />
<polygon points=" 314,225 312,220 309,217 304,216 299,217 296,220 294,225 296,230 299,234 304,235 309,234 312,230 314,225" fill="rgb(126,255,0)" />
<polygon points=" 314,206 312,201 309,197 304,196 299,197 296,201 294,206 296,211 299,214 304,216 309,214 312,211 314,206" fill="rgb(126,255,0)" />
<polygon points=" 326,224 329,220 331,216 329,211 326,207 321,206 316,207 312,211 311,216 312,220 316,224 321,225 326,224" fill="rgb(126,255,0)" />
<polygon points=" 316,244 321,245 326,244 329,240 331,235 329,230 326,227 321,225 316,227 312,230 311,235 312,240 316,244" fill="rgb(126,255,0)" />
<polygon points=" 294,245 296,250 299,253 304,255 309,253 312,250 314,245 312,240 309,236 304,235 299,236 296,240 294,245" fill="rgb(126,255,0)" />
<polygon points=" 282,227 279,230 277,235 279,240 282,244 287,245 292,244 296,240 297,235 296,230 292,227 287,225 282,227" fill="rgb(126,255,0)" />
<polygon points=" 292,207 287,206 282,207 279,211 277,216 279,220 282,224 287,225 292,224 296,220 297,216 296,211 292,207" fill="rgb(126,255,0)" />
<polygon points=" 360,263 363,260 365,255 363,250 360,246 355,245 350,246 346,250 345,255 346,260 350,263 355,264 360,263" fill="rgb(126,255,0)" />
<polygon points=" 365,235 363,230 360,227 355,225 350,227 346,230 345,235 346,240 350,244 355,245 360,244 363,240 365,235" fill="rgb(126,255,0)" />
<polygon points=" 377,253 380,250 382,245 380,240 377,236 372,235 367,236 363,240 362,245 363,250 367,253 372,255 377,253" fill="rgb(126,255,0)" />
<polygon points=" 367,273 372,274 377,273 380,269 382,264 380,260 377,256 372,255 367,256 363,260 362,264 363,269 367,273" fill="rgb(126,255,0)" />
<polygon points=" 345,274 346,279 350,283 355,284 360,283 363,279 365,274 363,269 360,266 355,264 350,266 346,269 345,274" fill="rgb(126,255,0)" />
<polygon points=" 333,256 329,260 328,264 329,269 333,273 338,274 343,273 346,269 348,264 346,260 343,256 338,255 333,256" fill="rgb(126,255,0)" />
<polygon points=" 343,236 338,235 333,236 329,240 328,245 329,250 333,253 338,255 343,253 346,250 348,245 346,240 343,236" fill="rgb(126,255,0)" />
<polygon points=" 350,322 355,323 360,322 363,318 365,313 363,308 360,305 355,304 350,305 346,308 345,313 346,318 350,322" fill="rgb(126,255,0)" />
<polygon points=" 365,294 363,289 360,285 355,284 350,285 346,289 345,294 346,299 350,302 355,304 360,302 363,299 365,294" fill="rgb(126,255,0)" />
<polygon points=" 377,312 380,308 382,304 380,299 377,295 372,294 367,295 363,299 362,304 363,308 367,312 372,313 377,312" fill="rgb(126,255,0)" />
<polygon points=" 367,332 372,333 377,332 380,328 382,323 380,318 377,315 372,313 367,315 363,318 362,323 363,328 367,332" fill="rgb(126,255,0)" />
<polygon points=" 345,333 346,338 350,341 355,343 360,341 363,338 365,333 363,328 360,324 355,323 350,324 346,328 345,333" fill="rgb(126,255,0)" />
<polygon points=" 333,315 329,318 328,323 329,328 333,332 338,333 343,332 346,328 348,323 346,318 343,315 338,313 333,315" fill="rgb(126,255,0)" />
<polygon points=" 343,295 338,294 333,295 329,299 328,304 329,308 333,312 338,313 343,312 346,308 348,304 346,299 343,295" fill="rgb(126,255,0)" />
<polygon points=" 294,343 296,348 299,351 304,352 309,351 312,348 314,343 312,338 309,334 304,333 299,334 296,338 294,343" fill="rgb(126,255,0)" />
<polygon points=" 314,323 312,318 309,315 304,313 299,315 296,318 294,323 296,328 299,332 304,333 309,332 312,328 314,323" fill="rgb(126,255,0)" />
<polygon points=" 326,341 329,338 331,333 329,328 326,324 321,323 316,324 312,328 311,333 312,338 316,341 321,343 326,341" fill="rgb(126,255,0)" />
<polygon points=" 316,361 321,362 326,361 329,357 331,352 329,348 326,344 321,343 316,344 312,348 311,352 312,357 316,361" fill="rgb(126,255,0)" />
<polygon points=" 294,362 296,367 299,371 304,372 309,371 312,367 314,362 312,357 309,354 304,352 299,354 296,357 294,362" fill="rgb(126,255,0)" />
<polygon points=" 282,344 279,348 277,352 279,357 282,361 287,362 292,361 296,357 297,352 296,348 292,344 287,343 282,344" fill="rgb(126,255,0)" />
<polygon points=" 292,324 287,323 282,324 279,328 277,333 279,338 282,341 287,343 292,341 296,338 297,333 296,328 292,324" fill="rgb(126,255,0)" />
<polygon points=" 248,305 245,308 243,313 245,318 248,322 253,323 258,322 262,318 263,313 262,308 258,305 253,304 248,305" fill="rgb(126,255,0)" />
<polygon points=" 263,294 262,289 258,285 253,284 248,285 245,289 243,294 245,299 248,302 253,304 258,302 262,299 263,294" fill="rgb(126,255,0)" />
<polygon points=" 275,312 279,308 280,304 279,299 275,295 270,294 265,295 262,299 260,304 262,308 265,312 270,313 275,312" fill="rgb(126,255,0)" />
<polygon points=" 265,332 270,333 275,332 279,328 280,323 279,318 275,315 270,313 265,315 262,318 260,323 262,328 265,332" fill="rgb(126,255,0)" />
<polygon points=" 243,333 245,338 248,341 253,343 258,341 262,338 263,333 262,328 258,324 253,323 248,324 245,328 243,333" fill="rgb(126,255,0)" />
<polygon points=" 231,315 228,318 226,323 228,328 231,332 236,333 241,332 245,328 246,323 245,318 241,315 236,313 231,315" fill="rgb(126,255,0)" />
<polygon points=" 241,295 236,294 231,295 228,299 226,304 228,308 231,312 236,313 241,312 245,308 246,304 245,299 241,295" fill="rgb(126,255,0)" />
<polygon points=" 258,246 253,245 248,246 245,250 243,255 245,260 248,263 253,264 258,263 262,260 263,255 262,250 258,246" fill="rgb(126,255,0)" />
<polygon points=" 263,235 262,230 258,227 253,225 248,227 245,230 243,235 245,240 248,244 253,245 258,244 262,240 263,235" fill="rgb(126,255,0)" />
<polygon points=" 275,253 279,250 280,245 279,240 275,236 270,235 265,236 262,240 260,245 262,250 265,253 270,255 275,253" fill="rgb(126,255,0)" />
<polygon points=" 265,273 270,274 275,273 279,269 280,264 279,260 275,256 270,255 265,256 262,260 260,264 262,269 265,273" fill="rgb(126,255,0)" />
<polygon points=" 243,274 245,279 248,283 253,284 258,283 262,279 263,274 262,269 258,266 253,264 248,266 245,269 243,274" fill="rgb(126,255,0)" />
<polygon points=" 231,256 228,260 226,264 228,269 231,273 236,274 241,273 245,269 246,264 245,260 241,256 236,255 231,256" fill="rgb(126,255,0)" />
<polygon points=" 241,236 236,235 231,236 228,240 226,245 228,250 231,253 236,255 241,253 245,250 246,245 245,240 241,236" fill="rgb(126,255,0)" />
<polygon points=" 314,108 312,103 309,100 304,98 299,100 296,103 294,108 296,113 299,116 304,118 309,116 312,113 314,108" fill="rgb(126,255,0)" />
<polygon points=" 314,88 312,84 309,80 304,79 299,80 296,84 294,88 296,93 299,97 304,98 309,97 312,93 314,88" fill="rgb(126,255,0)" />
<polygon points=" 326,107 329,103 331,98 329,93 326,90 321,88 316,90 312,93 311,98 312,103 316,107 321,108 326,107" fill="rgb(126,255,0)" />
<polygon points=" 316,126 321,128 326,126 329,123 331,118 329,113 326,109 321,108 316,109 312,113 311,118 312,123 316,126" fill="rgb(126,255,0)" />
<polygon points=" 294,128 296,132 299,136 304,137 309,136 312,132 314,128 312,123 309,119 304,118 299,119 296,123 294,128" fill="rgb(126,255,0)" />
<polygon points=" 282,109 279,113 277,118 279,123 282,126 287,128 292,126 296,123 297,118 296,113 292,109 287,108 282,109" fill="rgb(126,255,0)" />
<polygon points=" 292,90 287,88 282,90 279,93 277,98 279,103 282,107 287,108 292,107 296,103 297,98 296,93 292,90" fill="rgb(126,255,0)" />
<polygon points=" 314,49 312,44 309,41 304,40 299,41 296,44 294,49 296,54 299,58 304,59 309,58 312,54 314,49" fill="rgb(126,255,0)" />
<polygon points=" 314,30 312,25 309,21 304,20 299,21 296,25 294,30 296,35 299,38 304,40 309,38 312,35 314,30" fill="rgb(126,255,0)" />
<polygon points=" 326,48 329,44 331,40 329,35 326,31 321,30 316,31 312,35 311,40 312,44 316,48 321,49 326,48" fill="rgb(126,255,0)" />
<polygon points=" 316,68 321,69 326,68 329,64 331,59 329,54 326,51 321,49 316,51 312,54 311,59 312,64 316,68" fill="rgb(126,255,0)" />
<polygon points=" 294,69 296,74 299,77 304,79 309,77 312,74 314,69 312,64 309,60 304,59 299,60 296,64 294,69" fill="rgb(126,255,0)" />
<polygon points=" 282,51 279,54 277,59 279,64 282,68 287,69 292,68 296,64 297,59 296,54 292,51 287,49 282,51" fill="rgb(126,255,0)" />
<polygon points=" 292,31 287,30 282,31 279,35 277,40 279,44 282,48 287,49 292,48 296,44 297,40 296,35 292,31" fill="rgb(126,255,0)" />
<polygon points=" 360,87 363,84 365,79 363,74 360,70 355,69 350,70 346,74 345,79 346,84 350,87 355,88 360,87" fill="rgb(126,255,0)" />
<polygon points=" 365,59 363,54 360,51 355,49 350,51 346,54 345,59 346,64 350,68 355,69 360,68 363,64 365,59" fill="rgb(126,255,0)" />
<polygon points=" 377,77 380,74 382,69 380,64 377,60 372,59 367,60 363,64 362,69 363,74 367,77 372,79 377,77" fill="rgb(126,255,0)" />
<polygon points=" 367,97 372,98 377,97 380,93 382,88 380,84 377,80 372,79 367,80 363,84 362,88 363,93 367,97" fill="rgb(126,255,0)" />
<polygon points=" 345,98 346,103 350,107 355,108 360,107 363,103 365,98 363,93 360,90 355,88 350,90 346,93 345,98" fill="rgb(126,255,0)" />
<polygon points=" 333,80 329,84 328,88 329,93 333,97 338,98 343,97 346,93 348,88 346,84 343,80 338,79 333,80" fill="rgb(126,255,0)" />
<polygon points=" 343,60 338,59 333,60 329,64 328,69 329,74 333,77 338,79 343,77 346,74 348,69 346,64 343,60" fill="rgb(126,255,0)" />
<polygon points=" 350,146 355,147 360,146 363,142 365,137 363,132 360,129 355,128 350,129 346,132 345,137 346,142 350,146" fill="rgb(126,255,0)" />
<polygon points=" 365,118 363,113 360,109 355,108 350,109 346,113 345,118 346,123 350,126 355,128 360,126 363,123 365,118" fill="rgb(126,255,0)" />
<polygon points=" 377,136 380,132 382,128 380,123 377,119 372,118 367,119 363,123 362,128 363,132 367,136 372,137 377,136" fill="rgb(126,255,0)" />
<polygon points=" 367,156 372,157 377,156 380,152 382,147 380,142 377,139 372,137 367,139 363,142 362,147 363,152 367,156" fill="rgb(126,255,0)" />
<polygon points=" 345,157 346,162 350,165 355,167 360,165 363,162 365,157 363,152 360,148 355,147 350,148 346,152 345,157" fill="rgb(126,255,0)" />
<polygon points=" 333,139 329,142 328,147 329,152 333,156 338,157 343,156 346,152 348,147 346,142 343,139 338,137 333,139" fill="rgb(126,255,0)" />
<polygon points=" 343,119 338,118 333,119 329,123 328,128 329,132 333,136 338,137 343,136 346,132 348,128 346,123 343,119" fill="rgb(126,255,0)" />
<polygon points=" 294,167 296,172 299,175 304,176 309,175 312,172 314,167 312,162 309,158 304,157 299,158 296,162 294,167" fill="rgb(126,255,0)" />
<polygon points=" 314,147 312,142 309,139 304,137 299,139 296,142 294,147 296,152 299,156 304,157 309,156 312,152 314,147" fill="rgb(126,255,0)" />
<polygon points=" 326,165 329,162 331,157 329,152 326,148 321,147 316,148 312,152 311,157 312,162 316,165 321,167 326,165" fill="rgb(126,255,0)" />
<polygon points=" 316,185 321,186 326,185 329,181 331,176 329,172 326,168 321,167 316,168 312,172 311,176 312,181 316,185" fill="rgb(126,255,0)" />
<polygon points=" 294,186 296,191 299,195 304,196 309,195 312,191 314,186 312,181 309,178 304,176 299,178 296,181 294,186" fill="rgb(126,255,0)" />
<polygon points=" 282,168 279,172 277,176 279,181 282,185 287,186 292,185 296,181 297,176 296,172 292,168 287,167 282,168" fill="rgb(126,255,0)" />
<polygon points=" 292,148 287,147 282,148 279,152 277,157 279,162 282,165 287,167 292,165 296,162 297,157 296,152 292,148" fill="rgb(126,255,0)" />
<polygon points=" 248,129 245,132 243,137 245,142 248,146 253,147 258,146 262,142 263,137 262,132 258,129 253,128 248,129" fill="rgb(126,255,0)" />
<polygon points=" 263,118 262,113 258,109 253,108 248,109 245,113 243,118 245,123 248,126 253,128 258,126 262,123 263,118" fill="rgb(126,255,0)" />
<polygon points=" 275,136 279,132 280,128 279,123 275,119 270,118 265,119 262,123 260,128 262,132 265,136 270,137 275,136" fill="rgb(126,255,0)" />
<polygon points=" 265,156 270,157 275,156 279,152 280,147 279,142 275,139 270,137 265,139 262,142 260,147 262,152 265,156" fill="rgb(126,255,0)" />
<polygon points=" 243,157 245,162 248,165 253,167 258,165 262,162 263,157 262,152 258,148 253,147 248,148 245,152 243,157" fill="rgb(126,255,0)" />
<polygon points=" 231,139 228,142 226,147 228,152 231,156 236,157 241,156 245,152 246,147 245,142 241,139 236,137 231,139" fill="rgb(126,255,0)" />
<polygon points=" 241,119 236,118 231,119 228,123 226,128 228,132 231,136 236,137 241,136 245,132 246,128 245,123 241,119" fill="rgb(126,255,0)" />
<polygon points=" 258,70 253,69 248,70 245,74 243,79 245,84 248,87 253,88 258,87 262,84 263,79 262,74 258,70" fill="rgb(126,255,0)" />
<polygon points=" 263,59 262,54 258,51 253,49 248,51 245,54 243,59 245,64 248,68 253,69 258,68 262,64 263,59" fill="rgb(126,255,0)" />
<polygon points=" 275,77 279,74 280,69 279,64 275,60 270,59 265,60 262,64 260,69 262,74 265,77 270,79 275,77" fill="rgb(126,255,0)" />
<polygon points=" 265,97 270,98 275,97 279,93 280,88 279,84 275,80 270,79 265,80 262,84 260,88 262,93 265,97" fill="rgb(126,255,0)" />
<polygon points=" 243,98 245,103 248,107 253,108 258,107 262,103 263,98 262,93 258,90 253,88 248,90 245,93 243,98" fill="rgb(126,255,0)" />
<polygon points=" 231,80 228,84 226,88 228,93 231,97 236,98 241,97 245,93 246,88 245,84 241,80 236,79 231,80" fill="rgb(126,255,0)" />
<polygon points=" 241,60 236,59 231,60 228,64 226,69 228,74 231,77 236,79 241,77 245,74 246,69 245,64 241,60" fill="rgb(126,255,0)" />
<polygon points=" 461,204 465,201 466,196 465,191 461,188 456,186 452,188 448,191 447,196 448,201 452,204 456,206 461,204" fill="rgb(126,255,0)" />
<polygon points=" 466,176 465,172 461,168 456,167 452,168 448,172 447,176 448,181 452,185 456,186 461,185 465,181 466,176" fill="rgb(126,255,0)" />
<polygon points=" 478,195 482,191 483,186 482,181 478,178 473,176 468,178 465,181 464,186 465,191 468,195 473,196 478,195" fill="rgb(126,255,0)" />
<polygon points=" 468,214 473,216 478,214 482,211 483,206 482,201 478,197 473,196 468,197 465,201 464,206 465,211 468,214" fill="rgb(126,255,0)" />
<polygon points=" 447,216 448,220 452,224 456,225 461,224 465,220 466,216 465,211 461,207 456,206 452,207 448,211 447,216" fill="rgb(126,255,0)" />
<polygon points=" 435,197 431,201 430,206 431,211 435,214 439,216 444,214 448,211 449,206 448,201 444,197 439,196 435,197" fill="rgb(126,255,0)" />
<polygon points=" 444,178 439,176 435,178 431,181 430,186 431,191 435,195 439,196 444,195 448,191 449,186 448,181 444,178" fill="rgb(126,255,0)" />
<polygon points=" 466,137 465,132 461,129 456,128 452,129 448,132 447,137 448,142 452,146 456,147 461,146 465,142 466,137" fill="rgb(126,255,0)" />
<polygon points=" 466,118 465,113 461,109 456,108 452,109 448,113 447,118 448,123 452,126 456,128 461,126 465,123 466,118" fill="rgb(126,255,0)" />
<polygon points=" 478,136 482,132 483,128 482,123 478,119 473,118 468,119 465,123 464,128 465,132 468,136 473,137 478,136" fill="rgb(126,255,0)" />
<polygon points=" 468,156 473,157 478,156 482,152 483,147 482,142 478,139 473,137 468,139 465,142 464,147 465,152 468,156" fill="rgb(126,255,0)" />
<polygon points=" 447,157 448,162 452,165 456,167 461,165 465,162 466,157 465,152 461,148 456,147 452,148 448,152 447,157" fill="rgb(126,255,0)" />
<polygon points=" 435,139 431,142 430,147 431,152 435,156 439,157 444,156 448,152 449,147 448,142 444,139 439,137 435,139" fill="rgb(126,255,0)" />
<polygon points=" 444,119 439,118 435,119 431,123 430,128 431,132 435,136 439,137 444,136 448,132 449,128 448,123 444,119" fill="rgb(126,255,0)" />
<polygon points=" 512,175 516,172 517,167 516,162 512,158 507,157 502,158 499,162 497,167 499,172 502,175 507,176 512,175" fill="rgb(126,255,0)" />
<polygon points=" 517,147 516,142 512,139 507,137 502,139 499,142 497,147 499,152 502,156 507,157 512,156 516,152 517,147" fill="rgb(126,255,0)" />
<polygon points=" 529,165 533,162 534,157 533,152 529,148 524,147 519,148 516,152 514,157 516,162 519,165 524,167 529,165" fill="rgb(126,255,0)" />
<polygon points=" 519,185 524,186 529,185 533,181 534,176 533,172 529,168 524,167 519,168 516,172 514,176 516,181 519,185" fill="rgb(126,255,0)" />
<polygon points=" 497,186 499,191 502,195 507,196 512,195 516,191 517,186 516,181 512,178 507,176 502,178 499,181 497,186" fill="rgb(126,255,0)" />
<polygon points=" 485,168 482,172 481,176 482,181 485,185 490,186 495,185 499,181 500,176 499,172 495,168 490,167 485,168" fill="rgb(126,255,0)" />
<polygon points=" 495,148 490,147 485,148 482,152 481,157 482,162 485,165 490,167 495,165 499,162 500,157 499,152 495,148" fill="rgb(126,255,0)" />
<polygon points=" 502,234 507,235 512,234 516,230 517,225 516,220 512,217 507,216 502,217 499,220 497,225 499,230 502,234" fill="rgb(126,255,0)" />
<polygon points=" 517,206 516,201 512,197 507,196 502,197 499,201 497,206 499,211 502,214 507,216 512,214 516,211 517,206" fill="rgb(126,255,0)" />
<polygon points=" 529,224 533,220 534,216 533,211 529,207 524,206 519,207 516,211 514,216 516,220 519,224 524,225 529,224" fill="rgb(126,255,0)" />
<polygon points=" 519,244 524,245 529,244 533,240 534,235 533,230 529,227 524,225 519,227 516,230 514,235 516,240 519,244" fill="rgb(126,255,0)" />
<polygon points=" 497,245 499,250 502,253 507,255 512,253 516,250 517,245 516,240 512,236 507,235 502,236 499,240 497,245" fill="rgb(126,255,0)" />
<polygon points=" 485,227 482,230 481,235 482,240 485,244 490,245 495,244 499,240 500,235 499,230 495,227 490,225 485,227" fill="rgb(126,255,0)" />
<polygon points=" 495,207 490,206 485,207 482,211 481,216 482,220 485,224 490,225 495,224 499,220 500,216 499,211 495,207" fill="rgb(126,255,0)" />
<polygon points=" 447,255 448,260 452,263 456,264 461,263 465,260 466,255 465,250 461,246 456,245 452,246 448,250 447,255" fill="rgb(126,255,0)" />
<polygon points=" 466,235 465,230 461,227 456,225 452,227 448,230 447,235 448,240 452,244 456,245 461,244 465,240 466,235" fill="rgb(126,255,0)" />
<polygon points=" 478,253 482,250 483,245 482,240 478,236 473,235 468,236 465,240 464,245 465,250 468,253 473,255 478,253" fill="rgb(126,255,0)" />
<polygon points=" 468,273 473,274 478,273 482,269 483,264 482,260 478,256 473,255 468,256 465,260 464,264 465,269 468,273" fill="rgb(126,255,0)" />
<polygon points=" 447,274 448,279 452,283 456,284 461,283 465,279 466,274 465,269 461,266 456,264 452,266 448,269 447,274" fill="rgb(126,255,0)" />
<polygon points=" 435,256 431,260 430,264 431,269 435,273 439,274 444,273 448,269 449,264 448,260 444,256 439,255 435,256" fill="rgb(126,255,0)" />
<polygon points=" 444,236 439,235 435,236 431,240 430,245 431,250 435,253 439,255 444,253 448,250 449,245 448,240 444,236" fill="rgb(126,255,0)" />
<polygon points=" 401,217 397,220 396,225 397,230 401,234 406,235 411,234 414,230 415,225 414,220 411,217 406,216 401,217" fill="rgb(126,255,0)" />
<polygon points=" 415,206 414,201 411,197 406,196 401,197 397,201 396,206 397,211 401,214 406,216 411,214 414,211 415,206" fill="rgb(126,255,0)" />
<polygon points=" 427,224 431,220 432,216 431,211 427,207 423,206 418,207 414,211 413,216 414,220 418,224 423,225 427,224" fill="rgb(126,255,0)" />
<polygon points=" 418,244 423,245 427,244 431,240 432,235 431,230 427,227 423,225 418,227 414,230 413,235 414,240 418,244" fill="rgb(126,255,0)" />
<polygon points=" 396,245 397,250 401,253 406,255 411,253 414,250 415,245 414,240 411,236 406,235 401,236 397,240 396,245" fill="rgb(126,255,0)" />
<polygon points=" 384,227 380,230 379,235 380,240 384,244 389,245 394,244 397,240 398,235 397,230 394,227 389,225 384,227" fill="rgb(126,255,0)" />
<polygon points=" 394,207 389,206 384,207 380,211 379,216 380,220 384,224 389,225 394,224 397,220 398,216 397,211 394,207" fill="rgb(126,255,0)" />
<polygon points=" 411,158 406,157 401,158 397,162 396,167 397,172 401,175 406,176 411,175 414,172 415,167 414,162 411,158" fill="rgb(126,255,0)" />
<polygon points=" 415,147 414,142 411,139 406,137 401,139 397,142 396,147 397,152 401,156 406,157 411,156 414,152 415,147" fill="rgb(126,255,0)" />
<polygon points=" 427,165 431,162 432,157 431,152 427,148 423,147 418,148 414,152 413,157 414,162 418,165 423,167 427,165" fill="rgb(126,255,0)" />
<polygon points=" 418,185 423,186 427,185 431,181 432,176 431,172 427,168 423,167 418,168 414,172 413,176 414,181 418,185" fill="rgb(126,255,0)" />
<polygon points=" 396,186 397,191 401,195 406,196 411,195 414,191 415,186 414,181 411,178 406,176 401,178 397,181 396,186" fill="rgb(126,255,0)" />
<polygon points=" 384,168 380,172 379,176 380,181 384,185 389,186 394,185 397,181 398,176 397,172 394,168 389,167 384,168" fill="rgb(126,255,0)" />
<polygon points=" 394,148 389,147 384,148 380,152 379,157 380,162 384,165 389,167 394,165 397,162 398,157 397,152 394,148" fill="rgb(126,255,0)" />
<polygon points=" 452,380 456,382 461,380 465,377 466,372 465,367 461,364 456,362 452,364 448,367 447,372 448,377 452,380" fill="rgb(126,255,0)" />
<polygon points=" 466,352 465,348 461,344 456,343 452,344 448,348 447,352 448,357 452,361 456,362 461,361 465,357 466,352" fill="rgb(126,255,0)" />
<polygon points=" 478,371 482,367 483,362 482,357 478,354 473,352 468,354 465,357 464,362 465,367 468,371 473,372 478,371" fill="rgb(126,255,0)" />
<polygon points=" 468,390 473,392 478,390 482,387 483,382 482,377 478,373 473,372 468,373 465,377 464,382 465,387 468,390" fill="rgb(126,255,0)" />
<polygon points=" 447,392 448,396 452,400 456,401 461,400 465,396 466,392 465,387 461,383 456,382 452,383 448,387 447,392" fill="rgb(126,255,0)" />
<polygon points=" 435,373 431,377 430,382 431,387 435,390 439,392 444,390 448,387 449,382 448,377 444,373 439,372 435,373" fill="rgb(126,255,0)" />
<polygon points=" 444,354 439,352 435,354 431,357 430,362 431,367 435,371 439,372 444,371 448,367 449,362 448,357 444,354" fill="rgb(126,255,0)" />
<polygon points=" 466,313 465,308 461,305 456,304 452,305 448,308 447,313 448,318 452,322 456,323 461,322 465,318 466,313" fill="rgb(126,255,0)" />
<polygon points=" 466,294 465,289 461,285 456,284 452,285 448,289 447,294 448,299 452,302 456,304 461,302 465,299 466,294" fill="rgb(126,255,0)" />
<polygon points=" 478,312 482,308 483,304 482,299 478,295 473,294 468,295 465,299 464,304 465,308 468,312 473,313 478,312" fill="rgb(126,255,0)" />
<polygon points=" 468,332 473,333 478,332 482,328 483,323 482,318 478,315 473,313 468,315 465,318 464,323 465,328 468,332" fill="rgb(126,255,0)" />
<polygon points=" 447,333 448,338 452,341 456,343 461,341 465,338 466,333 465,328 461,324 456,323 452,324 448,328 447,333" fill="rgb(126,255,0)" />
<polygon points=" 435,315 431,318 430,323 431,328 435,332 439,333 444,332 448,328 449,323 448,318 444,315 439,313 435,315" fill="rgb(126,255,0)" />
<polygon points=" 444,295 439,294 435,295 431,299 430,304 431,308 435,312 439,313 444,312 448,308 449,304 448,299 444,295" fill="rgb(126,255,0)" />
<polygon points=" 512,351 516,348 517,343 516,338 512,334 507,333 502,334 499,338 497,343 499,348 502,351 507,352 512,351" fill="rgb(126,255,0)" />
<polygon points=" 517,323 516,318 512,315 507,313 502,315 499,318 497,323 499,328 502,332 507,333 512,332 516,328 517,323" fill="rgb(126,255,0)" />
<polygon points=" 529,341 533,338 534,333 533,328 529,324 524,323 519,324 516,328 514,333 516,338 519,341 524,343 529,341" fill="rgb(126,255,0)" />
<polygon points=" 519,361 524,362 529,361 533,357 534,352 533,348 529,344 524,343 519,344 516,348 514,352 516,357 519,361" fill="rgb(126,255,0)" />
<polygon points=" 497,362 499,367 502,371 507,372 512,371 516,367 517,362 516,357 512,354 507,352 502,354 499,357 497,362" fill="rgb(126,255,0)" />
<polygon points=" 485,344 482,348 481,352 482,357 485,361 490,362 495,361 499,357 500,352 499,348 495,344 490,343 485,344" fill="rgb(126,255,0)" />
<polygon points=" 495,324 490,323 485,324 482,328 481,333 482,338 485,341 490,343 495,341 499,338 500,333 499,328 495,324" fill="rgb(126,255,0)" />
<polygon points=" 502,410 507,411 512,410 516,406 517,401 516,396 512,393 507,392 502,393 499,396 497,401 499,406 502,410" fill="rgb(126,255,0)" />
<polygon points=" 517,382 516,377 512,373 507,372 502,373 499,377 497,382 499,387 502,390 507,392 512,390 516,387 517,382" fill="rgb(126,255,0)" />
<polygon points=" 529,400 533,396 534,392 533,387 529,383 524,382 519,383 516,387 514,392 516,396 519,400 524,401 529,400" fill="rgb(126,255,0)" />
<polygon points=" 519,420 524,421 529,420 533,416 534,411 533,406 529,403 524,401 519,403 516,406 514,411 516,416 519,420" fill="rgb(126,255,0)" />
<polygon points=" 497,421 499,426 502,429 507,431 512,429 516,426 517,421 516,416 512,412 507,411 502,412 499,416 497,421" fill="rgb(126,255,0)" />
<polygon points=" 485,403 482,406 481,411 482,416 485,420 490,421 495,420 499,416 500,411 499,406 495,403 490,401 485,403" fill="rgb(126,255,0)" />
<polygon points=" 495,383 490,382 485,383 482,387 481,392 482,396 485,400 490,401 495,400 499,396 500,392 499,387 495,383" fill="rgb(126,255,0)" />
<polygon points=" 447,431 448,436 452,439 456,440 461,439 465,436 466,431 465,426 461,422 456,421 452,422 448,426 447,431" fill="rgb(126,255,0)" />
<polygon points=" 466,411 465,406 461,403 456,401 452,403 448,406 447,411 448,416 452,420 456,421 461,420 465,416 466,411" fill="rgb(126,255,0)" />
<polygon points=" 478,429 482,426 483,421 482,416 478,412 473,411 468,412 465,416 464,421 465,426 468,429 473,431 478,429" fill="rgb(126,255,0)" />
<polygon points=" 468,449 473,450 478,449 482,445 483,440 482,436 478,432 473,431 468,432 465,436 464,440 465,445 468,449" fill="rgb(126,255,0)" />
<polygon points=" 447,450 448,455 452,459 456,460 461,459 465,455 466,450 465,445 461,442 456,440 452,442 448,445 447,450" fill="rgb(126,255,0)" />
<polygon points=" 435,432 431,436 430,440 431,445 435,449 439,450 444,449 448,445 449,440 448,436 444,432 439,431 435,432" fill="rgb(126,255,0)" />
<polygon points=" 444,412 439,411 435,412 431,416 430,421 431,426 435,429 439,431 444,429 448,426 449,421 448,416 444,412" fill="rgb(126,255,0)" />
<polygon points=" 401,393 397,396 396,401 397,406 401,410 406,411 411,410 414,406 415,401 414,396 411,393 406,392 401,393" fill="rgb(126,255,0)" />
<polygon points=" 415,382 414,377 411,373 406,372 401,373 397,377 396,382 397,387 401,390 406,392 411,390 414,387 415,382" fill="rgb(126,255,0)" />
<polygon points=" 427,400 431,396 432,392 431,387 427,383 423,382 418,383 414,387 413,392 414,396 418,400 423,401 427,400" fill="rgb(126,255,0)" />
<polygon points=" 418,420 423,421 427,420 431,416 432,411 431,406 427,403 423,401 418,403 414,406 413,411 414,416 418,420" fill="rgb(126,255,0)" />
<polygon points=" 396,421 397,426 401,429 406,431 411,429 414,426 415,421 414,416 411,412 406,411 401,412 397,416 396,421" fill="rgb(126,255,0)" />
<polygon points=" 384,403 380,406 379,411 380,416 384,420 389,421 394,420 397,416 398,411 397,406 394,403 389,401 384,403" fill="rgb(126,255,0)" />
<polygon points=" 394,383 389,382 384,383 380,387 379,392 380,396 384,400 389,401 394,400 397,396 398,392 397,387 394,383" fill="rgb(126,255,0)" />
<polygon points=" 411,334 406,333 401,334 397,338 396,343 397,348 401,351 406,352 411,351 414,348 415,343 414,338 411,334" fill="rgb(126,255,0)" />
<polygon points=" 415,323 414,318 411,315 406,313 401,315 397,318 396,323 397,328 401,332 406,333 411,332 414,328 415,323" fill="rgb(126,255,0)" />
<polygon points=" 427,341 431,338 432,333 431,328 427,324 423,323 418,324 414,328 413,333 414,338 418,341 423,343 427,341" fill="rgb(126,255,0)" />
<polygon points=" 418,361 423,362 427,361 431,357 432,352 431,348 427,344 423,343 418,344 414,348 413,352 414,357 418,361" fill="rgb(126,255,0)" />
<polygon points=" 396,362 397,367 401,371 406,372 411,371 414,367 415,362 414,357 411,354 406,352 401,354 397,357 396,362" fill="rgb(126,255,0)" />
<polygon points=" 384,344 380,348 379,352 380,357 384,361 389,362 394,361 397,357 398,352 397,348 394,344 389,343 384,344" fill="rgb(126,255,0)" />
<polygon points=" 394,324 389,323 384,324 380,328 379,333 380,338 384,341 389,343 394,341 397,338 398,333 397,328 394,324" fill="rgb(126,255,0)" />
<polygon points=" 294,460 296,465 299,468 304,470 309,468 312,465 314,460 312,455 309,452 304,450 299,452 296,455 294,460" fill="rgb(126,255,0)" />
<polygon points=" 314,440 312,436 309,432 304,431 299,432 296,436 294,440 296,445 299,449 304,450 309,449 312,445 314,440" fill="rgb(126,255,0)" />
<polygon points=" 326,459 329,455 331,450 329,445 326,442 321,440 316,442 312,445 311,450 312,455 316,459 321,460 326,459" fill="rgb(126,255,0)" />
<polygon points=" 316,478 321,480 326,478 329,475 331,470 329,465 326,461 321,460 316,461 312,465 311,470 312,475 316,478" fill="rgb(126,255,0)" />
<polygon points=" 294,480 296,484 299,488 304,489 309,488 312,484 314,480 312,475 309,471 304,470 299,471 296,475 294,480" fill="rgb(126,255,0)" />
<polygon points=" 282,461 279,465 277,470 279,475 282,478 287,480 292,478 296,475 297,470 296,465 292,461 287,460 282,461" fill="rgb(126,255,0)" />
<polygon points=" 292,442 287,440 282,442 279,445 277,450 279,455 282,459 287,460 292,459 296,455 297,450 296,445 292,442" fill="rgb(126,255,0)" />
<polygon points=" 314,401 312,396 309,393 304,392 299,393 296,396 294,401 296,406 299,410 304,411 309,410 312,406 314,401" fill="rgb(126,255,0)" />
<polygon points=" 314,382 312,377 309,373 304,372 299,373 296,377 294,382 296,387 299,390 304,392 309,390 312,387 314,382" fill="rgb(126,255,0)" />
<polygon points=" 326,400 329,396 331,392 329,387 326,383 321,382 316,383 312,387 311,392 312,396 316,400 321,401 326,400" fill="rgb(126,255,0)" />
<polygon points=" 316,420 321,421 326,420 329,416 331,411 329,406 326,403 321,401 316,403 312,406 311,411 312,416 316,420" fill="rgb(126,255,0)" />
<polygon points=" 294,421 296,426 299,429 304,431 309,429 312,426 314,421 312,416 309,412 304,411 299,412 296,416 294,421" fill="rgb(126,255,0)" />
<polygon points=" 282,403 279,406 277,411 279,416 282,420 287,421 292,420 296,416 297,411 296,406 292,403 287,401 282,403" fill="rgb(126,255,0)" />
<polygon points=" 292,383 287,382 282,383 279,387 277,392 279,396 282,400 287,401 292,400 296,396 297,392 296,387 292,383" fill="rgb(126,255,0)" />
<polygon points=" 360,439 363,436 365,431 363,426 360,422 355,421 350,422 346,426 345,431 346,436 350,439 355,440 360,439" fill="rgb(126,255,0)" />
<polygon points=" 365,411 363,406 360,403 355,401 350,403 346,406 345,411 346,416 350,420 355,421 360,420 363,416 365,411" fill="rgb(126,255,0)" />
<polygon points=" 377,429 380,426 382,421 380,416 377,412 372,411 367,412 363,416 362,421 363,426 367,429 372,431 377,429" fill="rgb(126,255,0)" />
<polygon points=" 367,449 372,450 377,449 380,445 382,440 380,436 377,432 372,431 367,432 363,436 362,440 363,445 367,449" fill="rgb(126,255,0)" />
<polygon points=" 345,450 346,455 350,459 355,460 360,459 363,455 365,450 363,445 360,442 355,440 350,442 346,445 345,450" fill="rgb(126,255,0)" />
<polygon points=" 333,432 329,436 328,440 329,445 333,449 338,450 343,449 346,445 348,440 346,436 343,432 338,431 333,432" fill="rgb(126,255,0)" />
<polygon points=" 343,412 338,411 333,412 329,416 328,421 329,426 333,429 338,431 343,429 346,426 348,421 346,416 343,412" fill="rgb(126,255,0)" />
<polygon points=" 350,498 355,499 360,498 363,494 365,489 363,484 360,481 355,480 350,481 346,484 345,489 346,494 350,498" fill="rgb(126,255,0)" />
<polygon points=" 365,470 363,465 360,461 355,460 350,461 346,465 345,470 346,475 350,478 355,480 360,478 363,475 365,470" fill="rgb(126,255,0)" />
<polygon points=" 377,488 380,484 382,480 380,475 377,471 372,470 367,471 363,475 362,480 363,484 367,488 372,489 377,488" fill="rgb(126,255,0)" />
<polygon points=" 367,508 372,509 377,508 380,504 382,499 380,494 377,491 372,489 367,491 363,494 362,499 363,504 367,508" fill="rgb(126,255,0)" />
<polygon points=" 345,509 346,514 350,517 355,519 360,517 363,514 365,509 363,504 360,500 355,499 350,500 346,504 345,509" fill="rgb(126,255,0)" />
<polygon points=" 333,491 329,494 328,499 329,504 333,508 338,509 343,508 346,504 348,499 346,494 343,491 338,489 333,491" fill="rgb(126,255,0)" />
<polygon points=" 343,471 338,470 333,471 329,475 328,480 329,484 333,488 338,489 343,488 346,484 348,480 346,475 343,471" fill="rgb(126,255,0)" />
<polygon points=" 294,519 296,524 299,527 304,528 309,527 312,524 314,519 312,514 309,510 304,509 299,510 296,514 294,519" fill="rgb(126,255,0)" />
<polygon points=" 314,499 312,494 309,491 304,489 299,491 296,494 294,499 296,504 299,508 304,509 309,508 312,504 314,499" fill="rgb(126,255,0)" />
<polygon points=" 326,517 329,514 331,509 329,504 326,500 321,499 316,500 312,504 311,509 312,514 316,517 321,519 326,517" fill="rgb(126,255,0)" />
<polygon points=" 316,537 321,538 326,537 329,533 331,528 329,524 326,520 321,519 316,520 312,524 311,528 312,533 316,537" fill="rgb(126,255,0)" />
<polygon points=" 294,538 296,543 299,547 304,548 309,547 312,543 314,538 312,533 309,530 304,528 299,530 296,533 294,538" fill="rgb(126,255,0)" />
<polygon points=" 282,520 279,524 277,528 279,533 282,537 287,538 292,537 296,533 297,528 296,524 292,520 287,519 282,520" fill="rgb(126,255,0)" />
<polygon points=" 292,500 287,499 282,500 279,504 277,509 279,514 282,517 287,519 292,517 296,514 297,509 296,504 292,500" fill="rgb(126,255,0)" />
<polygon points=" 248,481 245,484 243,489 245,494 248,498 253,499 258,498 262,494 263,489 262,484 258,481 253,480 248,481" fill="rgb(126,255,0)" />
<polygon points=" 263,470 262,465 258,461 253,460 248,461 245,465 243,470 245,475 248,478 253,480 258,478 262,475 263,470" fill="rgb(126,255,0)" />
<polygon points=" 275,488 279,484 280,480 279,475 275,471 270,470 265,471 262,475 260,480 262,484 265,488 270,489 275,488" fill="rgb(126,255,0)" />
<polygon points=" 265,508 270,509 275,508 279,504 280,499 279,494 275,491 270,489 265,491 262,494 260,499 262,504 265,508" fill="rgb(126,255,0)" />
<polygon points=" 243,509 245,514 248,517 253,519 258,517 262,514 263,509 262,504 258,500 253,499 248,500 245,504 243,509" fill="rgb(126,255,0)" />
<polygon points=" 231,491 228,494 226,499 228,504 231,508 236,509 241,508 245,504 246,499 245,494 241,491 236,489 231,491" fill="rgb(126,255,0)" />
<polygon points=" 241,471 236,470 231,471 228,475 226,480 228,484 231,488 236,489 241,488 245,484 246,480 245,475 241,471" fill="rgb(126,255,0)" />
<polygon points=" 258,422 253,421 248,422 245,426 243,431 245,436 248,439 253,440 258,439 262,436 263,431 262,426 258,422" fill="rgb(126,255,0)" />
<polygon points=" 263,411 262,406 258,403 253,401 248,403 245,406 243,411 245,416 248,420 253,421 258,420 262,416 263,411" fill="rgb(126,255,0)" />
<polygon points=" 275,429 279,426 280,421 279,416 275,412 270,411 265,412 262,416 260,421 262,426 265,429 270,431 275,429" fill="rgb(126,255,0)" />
<polygon points=" 265,449 270,450 275,449 279,445 280,440 279,436 275,432 270,431 265,432 262,436 260,440 262,445 265,449" fill="rgb(126,255,0)" />
<polygon points=" 243,450 245,455 248,459 253,460 258,459 262,455 263,450 262,445 258,442 253,440 248,442 245,445 243,450" fill="rgb(126,255,0)" />
<polygon points=" 231,432 228,436 226,440 228,445 231,449 236,450 241,449 245,445 246,440 245,436 241,432 236,431 231,432" fill="rgb(126,255,0)" />
<polygon points=" 241,412 236,411 231,412 228,416 226,421 228,426 231,429 236,431 241,429 245,426 246,421 245,416 241,412" fill="rgb(126,255,0)" />
<polygon points=" 147,364 143,367 142,372 143,377 147,380 152,382 156,380 160,377 161,372 160,367 156,364 152,362 147,364" fill="rgb(126,255,0)" />
<polygon points=" 161,352 160,348 156,344 152,343 147,344 143,348 142,352 143,357 147,361 152,362 156,361 160,357 161,352" fill="rgb(126,255,0)" />
<polygon points=" 173,371 177,367 178,362 177,357 173,354 169,352 164,354 160,357 159,362 160,367 164,371 169,372 173,371" fill="rgb(126,255,0)" />
<polygon points=" 164,390 169,392 173,390 177,387 178,382 177,377 173,373 169,372 164,373 160,377 159,382 160,387 164,390" fill="rgb(126,255,0)" />
<polygon points=" 142,392 143,396 147,400 152,401 156,400 160,396 161,392 160,387 156,383 152,382 147,383 143,387 142,392" fill="rgb(126,255,0)" />
<polygon points=" 130,373 126,377 125,382 126,387 130,390 135,392 140,390 143,387 144,382 143,377 140,373 135,372 130,373" fill="rgb(126,255,0)" />
<polygon points=" 140,354 135,352 130,354 126,357 125,362 126,367 130,371 135,372 140,371 143,367 144,362 143,357 140,354" fill="rgb(126,255,0)" />
<polygon points=" 161,313 160,308 156,305 152,304 147,305 143,308 142,313 143,318 147,322 152,323 156,322 160,318 161,313" fill="rgb(126,255,0)" />
<polygon points=" 161,294 160,289 156,285 152,284 147,285 143,289 142,294 143,299 147,302 152,304 156,302 160,299 161,294" fill="rgb(126,255,0)" />
<polygon points=" 173,312 177,308 178,304 177,299 173,295 169,294 164,295 160,299 159,304 160,308 164,312 169,313 173,312" fill="rgb(126,255,0)" />
<polygon points=" 164,332 169,333 173,332 177,328 178,323 177,318 173,315 169,313 164,315 160,318 159,323 160,328 164,332" fill="rgb(126,255,0)" />
<polygon points=" 142,333 143,338 147,341 152,343 156,341 160,338 161,333 160,328 156,324 152,323 147,324 143,328 142,333" fill="rgb(126,255,0)" />
<polygon points=" 130,315 126,318 125,323 126,328 130,332 135,333 140,332 143,328 144,323 143,318 140,315 135,313 130,315" fill="rgb(126,255,0)" />
<polygon points=" 140,295 135,294 130,295 126,299 125,304 126,308 130,312 135,313 140,312 143,308 144,304 143,299 140,295" fill="rgb(126,255,0)" />
<polygon points=" 207,351 211,348 212,343 211,338 207,334 202,333 197,334 194,338 193,343 194,348 197,351 202,352 207,351" fill="rgb(126,255,0)" />
<polygon points=" 212,323 211,318 207,315 202,313 197,315 194,318 193,323 194,328 197,332 202,333 207,332 211,328 212,323" fill="rgb(126,255,0)" />
<polygon points=" 224,341 228,338 229,333 228,328 224,324 219,323 214,324 211,328 210,333 211,338 214,341 219,343 224,341" fill="rgb(126,255,0)" />
<polygon points=" 214,361 219,362 224,361 228,357 229,352 228,348 224,344 219,343 214,344 211,348 210,352 211,357 214,361" fill="rgb(126,255,0)" />
<polygon points=" 193,362 194,367 197,371 202,372 207,371 211,367 212,362 211,357 207,354 202,352 197,354 194,357 193,362" fill="rgb(126,255,0)" />
<polygon points=" 181,344 177,348 176,352 177,357 181,361 185,362 190,361 194,357 195,352 194,348 190,344 185,343 181,344" fill="rgb(126,255,0)" />
<polygon points=" 190,324 185,323 181,324 177,328 176,333 177,338 181,341 185,343 190,341 194,338 195,333 194,328 190,324" fill="rgb(126,255,0)" />
<polygon points=" 197,410 202,411 207,410 211,406 212,401 211,396 207,393 202,392 197,393 194,396 193,401 194,406 197,410" fill="rgb(126,255,0)" />
<polygon points=" 212,382 211,377 207,373 202,372 197,373 194,377 193,382 194,387 197,390 202,392 207,390 211,387 212,382" fill="rgb(126,255,0)" />
<polygon points=" 224,400 228,396 229,392 228,387 224,383 219,382 214,383 211,387 210,392 211,396 214,400 219,401 224,400" fill="rgb(126,255,0)" />
<polygon points=" 214,420 219,421 224,420 228,416 229,411 228,406 224,403 219,401 214,403 211,406 210,411 211,416 214,420" fill="rgb(126,255,0)" />
<polygon points=" 193,421 194,426 197,429 202,431 207,429 211,426 212,421 211,416 207,412 202,411 197,412 194,416 193,421" fill="rgb(126,255,0)" />
<polygon points=" 181,403 177,406 176,411 177,416 181,420 185,421 190,420 194,416 195,411 194,406 190,403 185,401 181,403" fill="rgb(126,255,0)" />
<polygon points=" 190,383 185,382 181,383 177,387 176,392 177,396 181,400 185,401 190,400 194,396 195,392 194,387 190,383" fill="rgb(126,255,0)" />
<polygon points=" 142,431 143,436 147,439 152,440 156,439 160,436 161,431 160,426 156,422 152,421 147,422 143,426 142,431" fill="rgb(126,255,0)" />
<polygon points=" 161,411 160,406 156,403 152,401 147,403 143,406 142,411 143,416 147,420 152,421 156,420 160,416 161,411" fill="rgb(126,255,0)" />
<polygon points=" 173,429 177,426 178,421 177,416 173,412 169,411 164,412 160,416 159,421 160,426 164,429 169,431 173,429" fill="rgb(126,255,0)" />
<polygon points=" 164,449 169,450 173,449 177,445 178,440 177,436 173,432 169,431 164,432 160,436 159,440 160,445 164,449" fill="rgb(126,255,0)" />
<polygon points=" 142,450 143,455 147,459 152,460 156,459 160,455 161,450 160,445 156,442 152,440 147,442 143,445 142,450" fill="rgb(126,255,0)" />
<polygon points=" 130,432 126,436 125,440 126,445 130,449 135,450 140,449 143,445 144,440 143,436 140,432 135,431 130,432" fill="rgb(126,255,0)" />
<polygon points=" 140,412 135,411 130,412 126,416 125,421 126,426 130,429 135,431 140,429 143,426 144,421 143,416 140,412" fill="rgb(126,255,0)" />
<polygon points=" 96,393 92,396 91,401 92,406 96,410 101,411 106,410 109,406 111,401 109,396 106,393 101,392 96,393" fill="rgb(126,255,0)" />
<polygon points=" 111,382 109,377 106,373 101,372 96,373 92,377 91,382 92,387 96,390 101,392 106,390 109,387 111,382" fill="rgb(126,255,0)" />
<polygon points=" 123,400 126,396 127,392 126,387 123,383 118,382 113,383 109,387 108,392 109,396 113,400 118,401 123,400" fill="rgb(126,255,0)" />
<polygon points=" 113,420 118,421 123,420 126,416 127,411 126,406 123,403 118,401 113,403 109,406 108,411 109,416 113,420" fill="rgb(126,255,0)" />
<polygon points=" 91,421 92,426 96,429 101,431 106,429 109,426 111,421 109,416 106,412 101,411 96,412 92,416 91,421" fill="rgb(126,255,0)" />
<polygon points=" 79,403 75,406 74,411 75,416 79,420 84,421 89,420 92,416 94,411 92,406 89,403 84,401 79,403" fill="rgb(126,255,0)" />
<polygon points=" 89,383 84,382 79,383 75,387 74,392 75,396 79,400 84,401 89,400 92,396 94,392 92,387 89,383" fill="rgb(126,255,0)" />
<polygon points=" 106,334 101,333 96,334 92,338 91,343 92,348 96,351 101,352 106,351 109,348 111,343 109,338 106,334" fill="rgb(126,255,0)" />
<polygon points=" 111,323 109,318 106,315 101,313 96,315 92,318 91,323 92,328 96,332 101,333 106,332 109,328 111,323" fill="rgb(126,255,0)" />
<polygon points=" 123,341 126,338 127,333 126,328 123,324 118,323 113,324 109,328 108,333 109,338 113,341 118,343 123,341" fill="rgb(126,255,0)" />
<polygon points=" 113,361 118,362 123,361 126,357 127,352 126,348 123,344 118,343 113,344 109,348 108,352 109,357 113,361" fill="rgb(126,255,0)" />
<polygon points=" 91,362 92,367 96,371 101,372 106,371 109,367 111,362 109,357 106,354 101,352 96,354 92,357 91,362" fill="rgb(126,255,0)" />
<polygon points=" 79,344 75,348 74,352 75,357 79,361 84,362 89,361 92,357 94,352 92,348 89,344 84,343 79,344" fill="rgb(126,255,0)" />
<polygon points=" 89,324 84,323 79,324 75,328 74,333 75,338 79,341 84,343 89,341 92,338 94,333 92,328 89,324" fill="rgb(126,255,0)" />
<polygon points=" 156,188 152,186 147,188 143,191 142,196 143,201 147,204 152,206 156,204 160,201 161,196 160,191 156,188" fill="rgb(126,255,0)" />
<polygon points=" 161,176 160,172 156,168 152,167 147,168 143,172 142,176 143,181 147,185 152,186 156,185 160,181 161,176" fill="rgb(126,255,0)" />
<polygon points=" 173,195 177,191 178,186 177,181 173,178 169,176 164,178 160,181 159,186 160,191 164,195 169,196 173,195" fill="rgb(126,255,0)" />
<polygon points=" 164,214 169,216 173,214 177,211 178,206 177,201 173,197 169,196 164,197 160,201 159,206 160,211 164,214" fill="rgb(126,255,0)" />
<polygon points=" 142,216 143,220 147,224 152,225 156,224 160,220 161,216 160,211 156,207 152,206 147,207 143,211 142,216" fill="rgb(126,255,0)" />
<polygon points=" 130,197 126,201 125,206 126,211 130,214 135,216 140,214 143,211 144,206 143,201 140,197 135,196 130,197" fill="rgb(126,255,0)" />
<polygon points=" 140,178 135,176 130,178 126,181 125,186 126,191 130,195 135,196 140,195 143,191 144,186 143,181 140,178" fill="rgb(126,255,0)" />
<polygon points=" 161,137 160,132 156,129 152,128 147,129 143,132 142,137 143,142 147,146 152,147 156,146 160,142 161,137" fill="rgb(126,255,0)" />
<polygon points=" 161,118 160,113 156,109 152,108 147,109 143,113 142,118 143,123 147,126 152,128 156,126 160,123 161,118" fill="rgb(126,255,0)" />
<polygon points=" 173,136 177,132 178,128 177,123 173,119 169,118 164,119 160,123 159,128 160,132 164,136 169,137 173,136" fill="rgb(126,255,0)" />
<polygon points=" 164,156 169,157 173,156 177,152 178,147 177,142 173,139 169,137 164,139 160,142 159,147 160,152 164,156" fill="rgb(126,255,0)" />
<polygon points=" 142,157 143,162 147,165 152,167 156,165 160,162 161,157 160,152 156,148 152,147 147,148 143,152 142,157" fill="rgb(126,255,0)" />
<polygon points=" 130,139 126,142 125,147 126,152 130,156 135,157 140,156 143,152 144,147 143,142 140,139 135,137 130,139" fill="rgb(126,255,0)" />
<polygon points=" 140,119 135,118 130,119 126,123 125,128 126,132 130,136 135,137 140,136 143,132 144,128 143,123 140,119" fill="rgb(126,255,0)" />
<polygon points=" 207,175 211,172 212,167 211,162 207,158 202,157 197,158 194,162 193,167 194,172 197,175 202,176 207,175" fill="rgb(126,255,0)" />
<polygon points=" 212,147 211,142 207,139 202,137 197,139 194,142 193,147 194,152 197,156 202,157 207,156 211,152 212,147" fill="rgb(126,255,0)" />
<polygon points=" 224,165 228,162 229,157 228,152 224,148 219,147 214,148 211,152 210,157 211,162 214,165 219,167 224,165" fill="rgb(126,255,0)" />
<polygon points=" 214,185 219,186 224,185 228,181 229,176 228,172 224,168 219,167 214,168 211,172 210,176 211,181 214,185" fill="rgb(126,255,0)" />
<polygon points=" 193,186 194,191 197,195 202,196 207,195 211,191 212,186 211,181 207,178 202,176 197,178 194,181 193,186" fill="rgb(126,255,0)" />
<polygon points=" 181,168 177,172 176,176 177,181 181,185 185,186 190,185 194,181 195,176 194,172 190,168 185,167 181,168" fill="rgb(126,255,0)" />
<polygon points=" 190,148 185,147 181,148 177,152 176,157 177,162 181,165 185,167 190,165 194,162 195,157 194,152 190,148" fill="rgb(126,255,0)" />
<polygon points=" 197,234 202,235 207,234 211,230 212,225 211,220 207,217 202,216 197,217 194,220 193,225 194,230 197,234" fill="rgb(126,255,0)" />
<polygon points=" 212,206 211,201 207,197 202,196 197,197 194,201 193,206 194,211 197,214 202,216 207,214 211,211 212,206" fill="rgb(126,255,0)" />
<polygon points=" 224,224 228,220 229,216 228,211 224,207 219,206 214,207 211,211 210,216 211,220 214,224 219,225 224,224" fill="rgb(126,255,0)" />
<polygon points=" 214,244 219,245 224,244 228,240 229,235 228,230 224,227 219,225 214,227 211,230 210,235 211,240 214,244" fill="rgb(126,255,0)" />
<polygon points=" 193,245 194,250 197,253 202,255 207,253 211,250 212,245 211,240 207,236 202,235 197,236 194,240 193,245" fill="rgb(126,255,0)" />
<polygon points=" 181,227 177,230 176,235 177,240 181,244 185,245 190,244 194,240 195,235 194,230 190,227 185,225 181,227" fill="rgb(126,255,0)" />
<polygon points=" 190,207 185,206 181,207 177,211 176,216 177,220 181,224 185,225 190,224 194,220 195,216 194,211 190,207" fill="rgb(126,255,0)" />
<polygon points=" 142,255 143,260 147,263 152,264 156,263 160,260 161,255 160,250 156,246 152,245 147,246 143,250 142,255" fill="rgb(126,255,0)" />
<polygon points=" 161,235 160,230 156,227 152,225 147,227 143,230 142,235 143,240 147,244 152,245 156,244 160,240 161,235" fill="rgb(126,255,0)" />
<polygon points=" 173,253 177,250 178,245 177,240 173,236 169,235 164,236 160,240 159,245 160,250 164,253 169,255 173,253" fill="rgb(126,255,0)" />
<polygon points=" 164,273 169,274 173,273 177,269 178,264 177,260 173,256 169,255 164,256 160,260 159,264 160,269 164,273" fill="rgb(126,255,0)" />
<polygon points=" 142,274 143,279 147,283 152,284 156,283 160,279 161,274 160,269 156,266 152,264 147,266 143,269 142,274" fill="rgb(126,255,0)" />
<polygon points=" 130,256 126,260 125,264 126,269 130,273 135,274 140,273 143,269 144,264 143,260 140,256 135,255 130,256" fill="rgb(126,255,0)" />
<polygon points=" 140,236 135,235 130,236 126,240 125,245 126,250 130,253 135,255 140,253 143,250 144,245 143,240 140,236" fill="rgb(126,255,0)" />
<polygon points=" 96,217 92,220 91,225 92,230 96,234 101,235 106,234 109,230 111,225 109,220 106,217 101,216 96,217" fill="rgb(126,255,0)" />
<polygon points=" 111,206 109,201 106,197 101,196 96,197 92,201 91,206 92,211 96,214 101,216 106,214 109,211 111,206" fill="rgb(126,255,0)" />
<polygon points=" 123,224 126,220 127,216 126,211 123,207 118,206 113,207 109,211 108,216 109,220 113,224 118,225 123,224" fill="rgb(126,255,0)" />
<polygon points=" 113,244 118,245 123,244 126,240 127,235 126,230 123,227 118,225 113,227 109,230 108,235 109,240 113,244" fill="rgb(126,255,0)" />
<polygon points=" 91,245 92,250 96,253 101,255 106,253 109,250 111,245 109,240 106,236 101,235 96,236 92,240 91,245" fill="rgb(126,255,0)" />
<polygon points=" 79,227 75,230 74,235 75,240 79,244 84,245 89,244 92,240 94,235 92,230 89,227 84,225 79,227" fill="rgb(126,255,0)" />
<polygon points=" 89,207 84,206 79,207 75,211 74,216 75,220 79,224 84,225 89,224 92,220 94,216 92,211 89,207" fill="rgb(126,255,0)" />
<polygon points=" 106,158 101,157 96,158 92,162 91,167 92,172 96,175 101,176 106,175 109,172 111,167 109,162 106,158" fill="rgb(126,255,0)" />
<polygon points=" 111,147 109,142 106,139 101,137 96,139 92,142 91,147 92,152 96,156 101,157 106,156 109,152 111,147" fill="rgb(126,255,0)" />
<polygon points=" 123,165 126,162 127,157 126,152 123,148 118,147 113,148 109,152 108,157 109,162 113,165 118,167 123,165" fill="rgb(126,255,0)" />
<polygon points=" 113,185 118,186 123,185 126,181 127,176 126,172 123,168 118,167 113,168 109,172 108,176 109,181 113,185" fill="rgb(126,255,0)" />
<polygon points=" 91,186 92,191 96,195 101,196 106,195 109,191 111,186 109,181 106,178 101,176 96,178 92,181 91,186" fill="rgb(126,255,0)" />
<polygon points=" 79,168 75,172 74,176 75,181 79,185 84,186 89,185 92,181 94,176 92,172 89,168 84,167 79,168" fill="rgb(126,255,0)" />
<polygon points=" 89,148 84,147 79,148 75,152 74,157 75,162 79,165 84,167 89,165 92,162 94,157 92,152 89,148" fill="rgb(126,255,0)" /></svg>