<svg xmlns="http://www.w3.org/2000/svg" 
xmlns:xlink="http://www.w3.org/1999/xlink" 
version="1.1" baseProfile="full" 
width="555" height="568" >
<polygon points=" 515,284 506,152 396,78 278,20 159,78 49,152 40,284 49,416 159,490 278,548 396,490 506,416 515,284" fill="rgb(255,0,170)" />
<polygon points=" 357,284 354,240 317,215 278,196 238,215 201,240 198,284 201,328 238,353 278,372 317,353 354,328 357,284" fill="rgb(0,42,255)" />
<polygon points=" 357,108 354,64 317,39 278,20 238,39 201,64 198,108 201,152 238,177 278,196 317,177 354,152 357,108" fill="rgb(0,42,255)" />
<polygon points=" 470,265 506,240 509,196 506,152 470,127 430,108 390,127 354,152 351,196 354,240 390,265 430,284 470,265" fill="rgb(0,42,255)" />
<polygon points=" 390,441 430,460 470,441 506,416 509,372 506,328 470,303 430,284 390,303 354,328 351,372 354,416 390,441" fill="rgb(0,42,255)" />
<polygon points=" 198,460 201,504 238,529 278,548 317,529 354,504 357,460 354,416 317,391 278,372 238,391 201,416 198,460" fill="rgb(0,42,255)" />
<polygon points=" 86,303 49,328 46,372 49,416 86,441 125,460 165,441 201,416 204,372 201,328 165,303 125,284 86,303" fill="rgb(0,42,255)" />
<polygon points=" 165,127 125,108 86,127 49,152 46,196 49,240 86,265 125,284 165,265 201,240 204,196 201,152 165,127" fill="rgb(0,42,255)" />
<polygon points=" 304,284 303,269 291,261 278,255 264,261 252,269 251,284 252,299 264,307 278,313 291,307 303,299 304,284" fill="rgb(0,255,86)" />
<polygon points=" 304,225 303,211 291,202 278,196 264,202 252,211 251,225 252,240 264,248 278,255 291,248 303,240 304,225" fill="rgb(0,255,86)" />
<polygon points=" 342,278 354,269 355,255 354,240 342,232 328,225 315,232 303,240 302,255 303,269 315,278 328,284 342,278" fill="rgb(0,255,86)" />
<polygon points=" 315,336 328,343 342,336 354,328 355,313 354,299 342,290 328,284 315,290 303,299 302,313 303,328 315,336" fill="rgb(0,255,86)" />
<polygon points=" 251,343 252,357 264,366 278,372 291,366 303,357 304,343 303,328 291,320 278,313 264,320 252,328 251,343" fill="rgb(0,255,86)" />
<polygon points=" 214,290 201,299 200,313 201,328 214,336 227,343 240,336 252,328 253,313 252,299 240,290 227,284 214,290" fill="rgb(0,255,86)" />
<polygon points=" 240,232 227,225 214,232 201,240 200,255 201,269 214,278 227,284 240,278 252,269 253,255 252,240 240,232" fill="rgb(0,255,86)" />
<polygon points=" 304,108 303,93 291,85 278,79 264,85 252,93 251,108 252,123 264,131 278,137 291,131 303,123 304,108" fill="rgb(0,255,86)" />
<polygon points=" 304,49 303,35 291,26 278,20 264,26 252,35 251,49 252,64 264,72 278,79 291,72 303,64 304,49" fill="rgb(0,255,86)" />
<polygon points=" 342,102 354,93 355,79 354,64 342,56 328,49 315,56 303,64 302,79 303,93 315,102 328,108 342,102" fill="rgb(0,255,86)" />
<polygon points=" 315,160 328,167 342,160 354,152 355,137 354,123 342,114 328,108 315,114 303,123 302,137 303,152 315,160" fill="rgb(0,255,86)" />
<polygon points=" 251,167 252,181 264,190 278,196 291,190 303,181 304,167 303,152 291,144 278,137 264,144 252,152 251,167" fill="rgb(0,255,86)" />
<polygon points=" 214,114 201,123 200,137 201,152 214,160 227,167 240,160 252,152 253,137 252,123 240,114 227,108 214,114" fill="rgb(0,255,86)" />
<polygon points=" 240,56 227,49 214,56 201,64 200,79 201,93 214,102 227,108 240,102 252,93 253,79 252,64 240,56" fill="rgb(0,255,86)" />
<polygon points=" 443,219 455,211 456,196 455,181 443,173 430,167 417,173 405,181 404,196 405,211 417,219 430,225 443,219" fill="rgb(0,255,86)" />
<polygon points=" 456,137 455,123 443,114 430,108 417,114 405,123 404,137 405,152 417,160 430,167 443,160 455,152 456,137" fill="rgb(0,255,86)" />
<polygon points=" 494,190 506,181 507,167 506,152 494,144 481,137 468,144 455,152 454,167 455,181 468,190 481,196 494,190" fill="rgb(0,255,86)" />
<polygon points=" 468,248 481,255 494,248 506,240 507,225 506,211 494,202 481,196 468,202 455,211 454,225 455,240 468,248" fill="rgb(0,255,86)" />
<polygon points=" 404,255 405,269 417,278 430,284 443,278 455,269 456,255 455,240 443,232 430,225 417,232 405,240 404,255" fill="rgb(0,255,86)" />
<polygon points=" 366,202 354,211 353,225 354,240 366,248 379,255 392,248 405,240 406,225 405,211 392,202 379,196 366,202" fill="rgb(0,255,86)" />
<polygon points=" 392,144 379,137 366,144 354,152 353,167 354,181 366,190 379,196 392,190 405,181 406,167 405,152 392,144" fill="rgb(0,255,86)" />
<polygon points=" 417,395 430,401 443,395 455,387 456,372 455,357 443,349 430,343 417,349 405,357 404,372 405,387 417,395" fill="rgb(0,255,86)" />
<polygon points=" 456,313 455,299 443,290 430,284 417,290 405,299 404,313 405,328 417,336 430,343 443,336 455,328 456,313" fill="rgb(0,255,86)" />
<polygon points=" 494,366 506,357 507,343 506,328 494,320 481,313 468,320 455,328 454,343 455,357 468,366 481,372 494,366" fill="rgb(0,255,86)" />
<polygon points=" 468,424 481,431 494,424 506,416 507,401 506,387 494,378 481,372 468,378 455,387 454,401 455,416 468,424" fill="rgb(0,255,86)" />
<polygon points=" 404,431 405,445 417,454 430,460 443,454 455,445 456,431 455,416 443,408 430,401 417,408 405,416 404,431" fill="rgb(0,255,86)" />
<polygon points=" 366,378 354,387 353,401 354,416 366,424 379,431 392,424 405,416 406,401 405,387 392,378 379,372 366,378" fill="rgb(0,255,86)" />
<polygon points=" 392,320 379,313 366,320 354,328 353,343 354,357 366,366 379,372 392,366 405,357 406,343 405,328 392,320" fill="rgb(0,255,86)" />
<polygon points=" 251,460 252,475 264,483 278,489 291,483 303,475 304,460 303,445 291,437 278,431 264,437 252,445 251,460" fill="rgb(0,255,86)" />
<polygon points=" 304,401 303,387 291,378 278,372 264,378 252,387 251,401 252,416 264,424 278,431 291,424 303,416 304,401" fill="rgb(0,255,86)" />
<polygon points=" 342,454 354,445 355,431 354,416 342,408 328,401 315,408 303,416 302,431 303,445 315,454 328,460 342,454" fill="rgb(0,255,86)" />
<polygon points=" 315,512 328,519 342,512 354,504 355,489 354,475 342,466 328,460 315,466 303,475 302,489 303,504 315,512" fill="rgb(0,255,86)" />
<polygon points=" 251,519 252,533 264,542 278,548 291,542 303,533 304,519 303,504 291,496 278,489 264,496 252,504 251,519" fill="rgb(0,255,86)" />
<polygon points=" 214,466 201,475 200,489 201,504 214,512 227,519 240,512 252,504 253,489 252,475 240,466 227,460 214,466" fill="rgb(0,255,86)" />
<polygon points=" 240,408 227,401 214,408 201,416 200,431 201,445 214,454 227,460 240,454 252,445 253,431 252,416 240,408" fill="rgb(0,255,86)" />
<polygon points=" 112,349 100,357 99,372 100,387 112,395 125,401 138,395 151,387 152,372 151,357 138,349 125,343 112,349" fill="rgb(0,255,86)" />
<polygon points=" 152,313 151,299 138,290 125,284 112,290 100,299 99,313 100,328 112,336 125,343 138,336 151,328 152,313" fill="rgb(0,255,86)" />
<polygon points=" 189,366 201,357 202,343 201,328 189,320 176,313 163,320 151,328 150,343 151,357 163,366 176,372 189,366" fill="rgb(0,255,86)" />
<polygon points=" 163,424 176,431 189,424 201,416 202,401 201,387 189,378 176,372 163,378 151,387 150,401 151,416 163,424" fill="rgb(0,255,86)" />
<polygon points=" 99,431 100,445 112,454 125,460 138,454 151,445 152,431 151,416 138,408 125,401 112,408 100,416 99,431" fill="rgb(0,255,86)" />
<polygon points=" 61,378 49,387 48,401 49,416 61,424 74,431 88,424 100,416 101,401 100,387 88,378 74,372 61,378" fill="rgb(0,255,86)" />
<polygon points=" 88,320 74,313 61,320 49,328 48,343 49,357 61,366 74,372 88,366 100,357 101,343 100,328 88,320" fill="rgb(0,255,86)" />
<polygon points=" 138,173 125,167 112,173 100,181 99,196 100,211 112,219 125,225 138,219 151,211 152,196 151,181 138,173" fill="rgb(0,255,86)" />
<polygon points=" 152,137 151,123 138,114 125,108 112,114 100,123 99,137 100,152 112,160 125,167 138,160 151,152 152,137" fill="rgb(0,255,86)" />
<polygon points=" 189,190 201,181 202,167 201,152 189,144 176,137 163,144 151,152 150,167 151,181 163,190 176,196 189,190" fill="rgb(0,255,86)" />
<polygon points=" 163,248 176,255 189,248 201,240 202,225 201,211 189,202 176,196 163,202 151,211 150,225 151,240 163,248" fill="rgb(0,255,86)" />
<polygon points=" 99,255 100,269 112,278 125,284 138,278 151,269 152,255 151,240 138,232 125,225 112,232 100,240 99,255" fill="rgb(0,255,86)" />
<polygon points=" 61,202 49,211 48,225 49,240 61,248 74,255 88,248 100,240 101,225 100,211 88,202 74,196 61,202" fill="rgb(0,255,86)" />
<polygon points=" 88,144 74,137 61,144 49,152 48,167 49,181 61,190 74,196 88,190 100,181 101,167 100,152 88,144" fill="rgb(0,255,86)" />
<polygon points=" 286,284 286,279 282,276 278,274 273,276 269,279 269,284 269,289 273,292 278,294 282,292 286,289 286,284" fill="rgb(255,214,0)" />
<polygon points=" 286,264 286,260 282,257 278,255 273,257 269,260 269,264 269,269 273,272 278,274 282,272 286,269 286,264" fill="rgb(255,214,0)" />
<polygon points=" 299,282 303,279 303,274 303,269 299,267 295,264 290,267 286,269 286,274 286,279 290,282 295,284 299,282" fill="rgb(255,214,0)" />
<polygon points=" 290,301 295,304 299,301 303,299 303,294 303,289 299,286 295,284 290,286 286,289 286,294 286,299 290,301" fill="rgb(255,214,0)" />
<polygon points=" 269,304 269,308 273,311 278,313 282,311 286,308 286,304 286,299 282,296 278,294 273,296 269,299 269,304" fill="rgb(255,214,0)" />
<polygon points=" 256,286 252,289 252,294 252,299 256,301 261,304 265,301 269,299 269,294 269,289 265,286 261,284 256,286" fill="rgb(255,214,0)" />
<polygon points=" 265,267 261,264 256,267 252,269 252,274 252,279 256,282 261,284 265,282 269,279 269,274 269,269 265,267" fill="rgb(255,214,0)" />
<polygon points=" 286,225 286,220 282,218 278,216 273,218 269,220 269,225 269,230 273,233 278,235 282,233 286,230 286,225" fill="rgb(255,214,0)" />
<polygon points=" 286,206 286,201 282,198 278,196 273,198 269,201 269,206 269,211 273,213 278,216 282,213 286,211 286,206" fill="rgb(255,214,0)" />
<polygon points=" 299,223 303,220 303,216 303,211 299,208 295,206 290,208 286,211 286,216 286,220 290,223 295,225 299,223" fill="rgb(255,214,0)" />
<polygon points=" 290,243 295,245 299,243 303,240 303,235 303,230 299,227 295,225 290,227 286,230 286,235 286,240 290,243" fill="rgb(255,214,0)" />
<polygon points=" 269,245 269,250 273,253 278,255 282,253 286,250 286,245 286,240 282,237 278,235 273,237 269,240 269,245" fill="rgb(255,214,0)" />
<polygon points=" 256,227 252,230 252,235 252,240 256,243 261,245 265,243 269,240 269,235 269,230 265,227 261,225 256,227" fill="rgb(255,214,0)" />
<polygon points=" 265,208 261,206 256,208 252,211 252,216 252,220 256,223 261,225 265,223 269,220 269,216 269,211 265,208" fill="rgb(255,214,0)" />
<polygon points=" 333,262 337,260 337,255 337,250 333,247 328,245 324,247 320,250 320,255 320,260 324,262 328,264 333,262" fill="rgb(255,214,0)" />
<polygon points=" 337,235 337,230 333,227 328,225 324,227 320,230 320,235 320,240 324,243 328,245 333,243 337,240 337,235" fill="rgb(255,214,0)" />
<polygon points=" 350,253 354,250 354,245 354,240 350,237 345,235 341,237 337,240 337,245 337,250 341,253 345,255 350,253" fill="rgb(255,214,0)" />
<polygon points=" 341,272 345,274 350,272 354,269 354,264 354,260 350,257 345,255 341,257 337,260 337,264 337,269 341,272" fill="rgb(255,214,0)" />
<polygon points=" 320,274 320,279 324,282 328,284 333,282 337,279 337,274 337,269 333,267 328,264 324,267 320,269 320,274" fill="rgb(255,214,0)" />
<polygon points=" 307,257 303,260 303,264 303,269 307,272 311,274 316,272 320,269 320,264 320,260 316,257 311,255 307,257" fill="rgb(255,214,0)" />
<polygon points=" 316,237 311,235 307,237 303,240 303,245 303,250 307,253 311,255 316,253 320,250 320,245 320,240 316,237" fill="rgb(255,214,0)" />
<polygon points=" 324,321 328,323 333,321 337,318 337,313 337,308 333,306 328,304 324,306 320,308 320,313 320,318 324,321" fill="rgb(255,214,0)" />
<polygon points=" 337,294 337,289 333,286 328,284 324,286 320,289 320,294 320,299 324,301 328,304 333,301 337,299 337,294" fill="rgb(255,214,0)" />
<polygon points=" 350,311 354,308 354,304 354,299 350,296 345,294 341,296 337,299 337,304 337,308 341,311 345,313 350,311" fill="rgb(255,214,0)" />
<polygon points=" 341,331 345,333 350,331 354,328 354,323 354,318 350,315 345,313 341,315 337,318 337,323 337,328 341,331" fill="rgb(255,214,0)" />
<polygon points=" 320,333 320,338 324,341 328,343 333,341 337,338 337,333 337,328 333,325 328,323 324,325 320,328 320,333" fill="rgb(255,214,0)" />
<polygon points=" 307,315 303,318 303,323 303,328 307,331 311,333 316,331 320,328 320,323 320,318 316,315 311,313 307,315" fill="rgb(255,214,0)" />
<polygon points=" 316,296 311,294 307,296 303,299 303,304 303,308 307,311 311,313 316,311 320,308 320,304 320,299 316,296" fill="rgb(255,214,0)" />
<polygon points=" 269,343 269,348 273,350 278,352 282,350 286,348 286,343 286,338 282,335 278,333 273,335 269,338 269,343" fill="rgb(255,214,0)" />
<polygon points=" 286,323 286,318 282,315 278,313 273,315 269,318 269,323 269,328 273,331 278,333 282,331 286,328 286,323" fill="rgb(255,214,0)" />
<polygon points=" 299,341 303,338 303,333 303,328 299,325 295,323 290,325 286,328 286,333 286,338 290,341 295,343 299,341" fill="rgb(255,214,0)" />
<polygon points=" 290,360 295,362 299,360 303,357 303,352 303,348 299,345 295,343 290,345 286,348 286,352 286,357 290,360" fill="rgb(255,214,0)" />
<polygon points=" 269,362 269,367 273,370 278,372 282,370 286,367 286,362 286,357 282,355 278,352 273,355 269,357 269,362" fill="rgb(255,214,0)" />
<polygon points=" 256,345 252,348 252,352 252,357 256,360 261,362 265,360 269,357 269,352 269,348 265,345 261,343 256,345" fill="rgb(255,214,0)" />
<polygon points=" 265,325 261,323 256,325 252,328 252,333 252,338 256,341 261,343 265,341 269,338 269,333 269,328 265,325" fill="rgb(255,214,0)" />
<polygon points=" 222,306 218,308 218,313 218,318 222,321 227,323 231,321 235,318 236,313 235,308 231,306 227,304 222,306" fill="rgb(255,214,0)" />
<polygon points=" 236,294 235,289 231,286 227,284 222,286 218,289 218,294 218,299 222,301 227,304 231,301 235,299 236,294" fill="rgb(255,214,0)" />
<polygon points=" 248,311 252,308 253,304 252,299 248,296 244,294 239,296 235,299 235,304 235,308 239,311 244,313 248,311" fill="rgb(255,214,0)" />
<polygon points=" 239,331 244,333 248,331 252,328 253,323 252,318 248,315 244,313 239,315 235,318 235,323 235,328 239,331" fill="rgb(255,214,0)" />
<polygon points=" 218,333 218,338 222,341 227,343 231,341 235,338 236,333 235,328 231,325 227,323 222,325 218,328 218,333" fill="rgb(255,214,0)" />
<polygon points=" 205,315 201,318 201,323 201,328 205,331 210,333 214,331 218,328 219,323 218,318 214,315 210,313 205,315" fill="rgb(255,214,0)" />
<polygon points=" 214,296 210,294 205,296 201,299 201,304 201,308 205,311 210,313 214,311 218,308 219,304 218,299 214,296" fill="rgb(255,214,0)" />
<polygon points=" 231,247 227,245 222,247 218,250 218,255 218,260 222,262 227,264 231,262 235,260 236,255 235,250 231,247" fill="rgb(255,214,0)" />
<polygon points=" 236,235 235,230 231,227 227,225 222,227 218,230 218,235 218,240 222,243 227,245 231,243 235,240 236,235" fill="rgb(255,214,0)" />
<polygon points=" 248,253 252,250 253,245 252,240 248,237 244,235 239,237 235,240 235,245 235,250 239,253 244,255 248,253" fill="rgb(255,214,0)" />
<polygon points=" 239,272 244,274 248,272 252,269 253,264 252,260 248,257 244,255 239,257 235,260 235,264 235,269 239,272" fill="rgb(255,214,0)" />
<polygon points=" 218,274 218,279 222,282 227,284 231,282 235,279 236,274 235,269 231,267 227,264 222,267 218,269 218,274" fill="rgb(255,214,0)" />
<polygon points=" 205,257 201,260 201,264 201,269 205,272 210,274 214,272 218,269 219,264 218,260 214,257 210,255 205,257" fill="rgb(255,214,0)" />
<polygon points=" 214,237 210,235 205,237 201,240 201,245 201,250 205,253 210,255 214,253 218,250 219,245 218,240 214,237" fill="rgb(255,214,0)" />
<polygon points=" 286,108 286,103 282,100 278,98 273,100 269,103 269,108 269,113 273,116 278,118 282,116 286,113 286,108" fill="rgb(255,214,0)" />
<polygon points=" 286,88 286,84 282,81 278,79 273,81 269,84 269,88 269,93 273,96 278,98 282,96 286,93 286,88" fill="rgb(255,214,0)" />
<polygon points=" 299,106 303,103 303,98 303,93 299,91 295,88 290,91 286,93 286,98 286,103 290,106 295,108 299,106" fill="rgb(255,214,0)" />
<polygon points=" 290,125 295,128 299,125 303,123 303,118 303,113 299,110 295,108 290,110 286,113 286,118 286,123 290,125" fill="rgb(255,214,0)" />
<polygon points=" 269,128 269,132 273,135 278,137 282,135 286,132 286,128 286,123 282,120 278,118 273,120 269,123 269,128" fill="rgb(255,214,0)" />
<polygon points=" 256,110 252,113 252,118 252,123 256,125 261,128 265,125 269,123 269,118 269,113 265,110 261,108 256,110" fill="rgb(255,214,0)" />
<polygon points=" 265,91 261,88 256,91 252,93 252,98 252,103 256,106 261,108 265,106 269,103 269,98 269,93 265,91" fill="rgb(255,214,0)" />
<polygon points=" 286,49 286,44 282,42 278,40 273,42 269,44 269,49 269,54 273,57 278,59 282,57 286,54 286,49" fill="rgb(255,214,0)" />
<polygon points=" 286,30 286,25 282,22 278,20 273,22 269,25 269,30 269,35 273,37 278,40 282,37 286,35 286,30" fill="rgb(255,214,0)" />
<polygon points=" 299,47 303,44 303,40 303,35 299,32 295,30 290,32 286,35 286,40 286,44 290,47 295,49 299,47" fill="rgb(255,214,0)" />
<polygon points=" 290,67 295,69 299,67 303,64 303,59 303,54 299,51 295,49 290,51 286,54 286,59 286,64 290,67" fill="rgb(255,214,0)" />
<polygon points=" 269,69 269,74 273,77 278,79 282,77 286,74 286,69 286,64 282,61 278,59 273,61 269,64 269,69" fill="rgb(255,214,0)" />
<polygon points=" 256,51 252,54 252,59 252,64 256,67 261,69 265,67 269,64 269,59 269,54 265,51 261,49 256,51" fill="rgb(255,214,0)" />
<polygon points=" 265,32 261,30 256,32 252,35 252,40 252,44 256,47 261,49 265,47 269,44 269,40 269,35 265,32" fill="rgb(255,214,0)" />
<polygon points=" 333,86 337,84 337,79 337,74 333,71 328,69 324,71 320,74 320,79 320,84 324,86 328,88 333,86" fill="rgb(255,214,0)" />
<polygon points=" 337,59 337,54 333,51 328,49 324,51 320,54 320,59 320,64 324,67 328,69 333,67 337,64 337,59" fill="rgb(255,214,0)" />
<polygon points=" 350,77 354,74 354,69 354,64 350,61 345,59 341,61 337,64 337,69 337,74 341,77 345,79 350,77" fill="rgb(255,214,0)" />
<polygon points=" 341,96 345,98 350,96 354,93 354,88 354,84 350,81 345,79 341,81 337,84 337,88 337,93 341,96" fill="rgb(255,214,0)" />
<polygon points=" 320,98 320,103 324,106 328,108 333,106 337,103 337,98 337,93 333,91 328,88 324,91 320,93 320,98" fill="rgb(255,214,0)" />
<polygon points=" 307,81 303,84 303,88 303,93 307,96 311,98 316,96 320,93 320,88 320,84 316,81 311,79 307,81" fill="rgb(255,214,0)" />
<polygon points=" 316,61 311,59 307,61 303,64 303,69 303,74 307,77 311,79 316,77 320,74 320,69 320,64 316,61" fill="rgb(255,214,0)" />
<polygon points=" 324,145 328,147 333,145 337,142 337,137 337,132 333,130 328,128 324,130 320,132 320,137 320,142 324,145" fill="rgb(255,214,0)" />
<polygon points=" 337,118 337,113 333,110 328,108 324,110 320,113 320,118 320,123 324,125 328,128 333,125 337,123 337,118" fill="rgb(255,214,0)" />
<polygon points=" 350,135 354,132 354,128 354,123 350,120 345,118 341,120 337,123 337,128 337,132 341,135 345,137 350,135" fill="rgb(255,214,0)" />
<polygon points=" 341,155 345,157 350,155 354,152 354,147 354,142 350,139 345,137 341,139 337,142 337,147 337,152 341,155" fill="rgb(255,214,0)" />
<polygon points=" 320,157 320,162 324,165 328,167 333,165 337,162 337,157 337,152 333,149 328,147 324,149 320,152 320,157" fill="rgb(255,214,0)" />
<polygon points=" 307,139 303,142 303,147 303,152 307,155 311,157 316,155 320,152 320,147 320,142 316,139 311,137 307,139" fill="rgb(255,214,0)" />
<polygon points=" 316,120 311,118 307,120 303,123 303,128 303,132 307,135 311,137 316,135 320,132 320,128 320,123 316,120" fill="rgb(255,214,0)" />
<polygon points=" 269,167 269,172 273,174 278,176 282,174 286,172 286,167 286,162 282,159 278,157 273,159 269,162 269,167" fill="rgb(255,214,0)" />
<polygon points=" 286,147 286,142 282,139 278,137 273,139 269,142 269,147 269,152 273,155 278,157 282,155 286,152 286,147" fill="rgb(255,214,0)" />
<polygon points=" 299,165 303,162 303,157 303,152 299,149 295,147 290,149 286,152 286,157 286,162 290,165 295,167 299,165" fill="rgb(255,214,0)" />
<polygon points=" 290,184 295,186 299,184 303,181 303,176 303,172 299,169 295,167 290,169 286,172 286,176 286,181 290,184" fill="rgb(255,214,0)" />
<polygon points=" 269,186 269,191 273,194 278,196 282,194 286,191 286,186 286,181 282,179 278,176 273,179 269,181 269,186" fill="rgb(255,214,0)" />
<polygon points=" 256,169 252,172 252,176 252,181 256,184 261,186 265,184 269,181 269,176 269,172 265,169 261,167 256,169" fill="rgb(255,214,0)" />
<polygon points=" 265,149 261,147 256,149 252,152 252,157 252,162 256,165 261,167 265,165 269,162 269,157 269,152 265,149" fill="rgb(255,214,0)" />
<polygon points=" 222,130 218,132 218,137 218,142 222,145 227,147 231,145 235,142 236,137 235,132 231,130 227,128 222,130" fill="rgb(255,214,0)" />
<polygon points=" 236,118 235,113 231,110 227,108 222,110 218,113 218,118 218,123 222,125 227,128 231,125 235,123 236,118" fill="rgb(255,214,0)" />
<polygon points=" 248,135 252,132 253,128 252,123 248,120 244,118 239,120 235,123 235,128 235,132 239,135 244,137 248,135" fill="rgb(255,214,0)" />
<polygon points=" 239,155 244,157 248,155 252,152 253,147 252,142 248,139 244,137 239,139 235,142 235,147 235,152 239,155" fill="rgb(255,214,0)" />
<polygon points=" 218,157 218,162 222,165 227,167 231,165 235,162 236,157 235,152 231,149 227,147 222,149 218,152 218,157" fill="rgb(255,214,0)" />
<polygon points=" 205,139 201,142 201,147 201,152 205,155 210,157 214,155 218,152 219,147 218,142 214,139 210,137 205,139" fill="rgb(255,214,0)" />
<polygon points=" 214,120 210,118 205,120 201,123 201,128 201,132 205,135 210,137 214,135 218,132 219,128 218,123 214,120" fill="rgb(255,214,0)" />
<polygon points=" 231,71 227,69 222,71 218,74 218,79 218,84 222,86 227,88 231,86 235,84 236,79 235,74 231,71" fill="rgb(255,214,0)" />
<polygon points=" 236,59 235,54 231,51 227,49 222,51 218,54 218,59 218,64 222,67 227,69 231,67 235,64 236,59" fill="rgb(255,214,0)" />
<polygon points=" 248,77 252,74 253,69 252,64 248,61 244,59 239,61 235,64 235,69 235,74 239,77 244,79 248,77" fill="rgb(255,214,0)" />
<polygon points=" 239,96 244,98 248,96 252,93 253,88 252,84 248,81 244,79 239,81 235,84 235,88 235,93 239,96" fill="rgb(255,214,0)" />
<polygon points=" 218,98 218,103 222,106 227,108 231,106 235,103 236,98 235,93 231,91 227,88 222,91 218,93 218,98" fill="rgb(255,214,0)" />
<polygon points=" 205,81 201,84 201,88 201,93 205,96 210,98 214,96 218,93 219,88 218,84 214,81 210,79 205,81" fill="rgb(255,214,0)" />
<polygon points=" 214,61 210,59 205,61 201,64 201,69 201,74 205,77 210,79 214,77 218,74 219,69 218,64 214,61" fill="rgb(255,214,0)" />
<polygon points=" 434,204 438,201 439,196 438,191 434,188 430,186 426,188 422,191 421,196 422,201 426,204 430,206 434,204" fill="rgb(255,214,0)" />
<polygon points=" 439,176 438,172 434,169 430,167 426,169 422,172 421,176 422,181 426,184 430,186 434,184 438,181 439,176" fill="rgb(255,214,0)" />
<polygon points=" 451,194 455,191 456,186 455,181 451,179 447,176 443,179 438,181 438,186 438,191 443,194 447,196 451,194" fill="rgb(255,214,0)" />
<polygon points=" 443,213 447,216 451,213 455,211 456,206 455,201 451,198 447,196 443,198 438,201 438,206 438,211 443,213" fill="rgb(255,214,0)" />
<polygon points=" 421,216 422,220 426,223 430,225 434,223 438,220 439,216 438,211 434,208 430,206 426,208 422,211 421,216" fill="rgb(255,214,0)" />
<polygon points=" 409,198 405,201 404,206 405,211 409,213 413,216 417,213 422,211 422,206 422,201 417,198 413,196 409,198" fill="rgb(255,214,0)" />
<polygon points=" 417,179 413,176 409,179 405,181 404,186 405,191 409,194 413,196 417,194 422,191 422,186 422,181 417,179" fill="rgb(255,214,0)" />
<polygon points=" 439,137 438,132 434,130 430,128 426,130 422,132 421,137 422,142 426,145 430,147 434,145 438,142 439,137" fill="rgb(255,214,0)" />
<polygon points=" 439,118 438,113 434,110 430,108 426,110 422,113 421,118 422,123 426,125 430,128 434,125 438,123 439,118" fill="rgb(255,214,0)" />
<polygon points=" 451,135 455,132 456,128 455,123 451,120 447,118 443,120 438,123 438,128 438,132 443,135 447,137 451,135" fill="rgb(255,214,0)" />
<polygon points=" 443,155 447,157 451,155 455,152 456,147 455,142 451,139 447,137 443,139 438,142 438,147 438,152 443,155" fill="rgb(255,214,0)" />
<polygon points=" 421,157 422,162 426,165 430,167 434,165 438,162 439,157 438,152 434,149 430,147 426,149 422,152 421,157" fill="rgb(255,214,0)" />
<polygon points=" 409,139 405,142 404,147 405,152 409,155 413,157 417,155 422,152 422,147 422,142 417,139 413,137 409,139" fill="rgb(255,214,0)" />
<polygon points=" 417,120 413,118 409,120 405,123 404,128 405,132 409,135 413,137 417,135 422,132 422,128 422,123 417,120" fill="rgb(255,214,0)" />
<polygon points=" 485,174 489,172 490,167 489,162 485,159 481,157 476,159 472,162 472,167 472,172 476,174 481,176 485,174" fill="rgb(255,214,0)" />
<polygon points=" 490,147 489,142 485,139 481,137 476,139 472,142 472,147 472,152 476,155 481,157 485,155 489,152 490,147" fill="rgb(255,214,0)" />
<polygon points=" 502,165 506,162 507,157 506,152 502,149 498,147 493,149 489,152 489,157 489,162 493,165 498,167 502,165" fill="rgb(255,214,0)" />
<polygon points=" 493,184 498,186 502,184 506,181 507,176 506,172 502,169 498,167 493,169 489,172 489,176 489,181 493,184" fill="rgb(255,214,0)" />
<polygon points=" 472,186 472,191 476,194 481,196 485,194 489,191 490,186 489,181 485,179 481,176 476,179 472,181 472,186" fill="rgb(255,214,0)" />
<polygon points=" 459,169 455,172 455,176 455,181 459,184 464,186 468,184 472,181 473,176 472,172 468,169 464,167 459,169" fill="rgb(255,214,0)" />
<polygon points=" 468,149 464,147 459,149 455,152 455,157 455,162 459,165 464,167 468,165 472,162 473,157 472,152 468,149" fill="rgb(255,214,0)" />
<polygon points=" 476,233 481,235 485,233 489,230 490,225 489,220 485,218 481,216 476,218 472,220 472,225 472,230 476,233" fill="rgb(255,214,0)" />
<polygon points=" 490,206 489,201 485,198 481,196 476,198 472,201 472,206 472,211 476,213 481,216 485,213 489,211 490,206" fill="rgb(255,214,0)" />
<polygon points=" 502,223 506,220 507,216 506,211 502,208 498,206 493,208 489,211 489,216 489,220 493,223 498,225 502,223" fill="rgb(255,214,0)" />
<polygon points=" 493,243 498,245 502,243 506,240 507,235 506,230 502,227 498,225 493,227 489,230 489,235 489,240 493,243" fill="rgb(255,214,0)" />
<polygon points=" 472,245 472,250 476,253 481,255 485,253 489,250 490,245 489,240 485,237 481,235 476,237 472,240 472,245" fill="rgb(255,214,0)" />
<polygon points=" 459,227 455,230 455,235 455,240 459,243 464,245 468,243 472,240 473,235 472,230 468,227 464,225 459,227" fill="rgb(255,214,0)" />
<polygon points=" 468,208 464,206 459,208 455,211 455,216 455,220 459,223 464,225 468,223 472,220 473,216 472,211 468,208" fill="rgb(255,214,0)" />
<polygon points=" 421,255 422,260 426,262 430,264 434,262 438,260 439,255 438,250 434,247 430,245 426,247 422,250 421,255" fill="rgb(255,214,0)" />
<polygon points=" 439,235 438,230 434,227 430,225 426,227 422,230 421,235 422,240 426,243 430,245 434,243 438,240 439,235" fill="rgb(255,214,0)" />
<polygon points=" 451,253 455,250 456,245 455,240 451,237 447,235 443,237 438,240 438,245 438,250 443,253 447,255 451,253" fill="rgb(255,214,0)" />
<polygon points=" 443,272 447,274 451,272 455,269 456,264 455,260 451,257 447,255 443,257 438,260 438,264 438,269 443,272" fill="rgb(255,214,0)" />
<polygon points=" 421,274 422,279 426,282 430,284 434,282 438,279 439,274 438,269 434,267 430,264 426,267 422,269 421,274" fill="rgb(255,214,0)" />
<polygon points=" 409,257 405,260 404,264 405,269 409,272 413,274 417,272 422,269 422,264 422,260 417,257 413,255 409,257" fill="rgb(255,214,0)" />
<polygon points=" 417,237 413,235 409,237 405,240 404,245 405,250 409,253 413,255 417,253 422,250 422,245 422,240 417,237" fill="rgb(255,214,0)" />
<polygon points=" 375,218 371,220 370,225 371,230 375,233 379,235 384,233 388,230 388,225 388,220 384,218 379,216 375,218" fill="rgb(255,214,0)" />
<polygon points=" 388,206 388,201 384,198 379,196 375,198 371,201 370,206 371,211 375,213 379,216 384,213 388,211 388,206" fill="rgb(255,214,0)" />
<polygon points=" 401,223 405,220 405,216 405,211 401,208 396,206 392,208 388,211 387,216 388,220 392,223 396,225 401,223" fill="rgb(255,214,0)" />
<polygon points=" 392,243 396,245 401,243 405,240 405,235 405,230 401,227 396,225 392,227 388,230 387,235 388,240 392,243" fill="rgb(255,214,0)" />
<polygon points=" 370,245 371,250 375,253 379,255 384,253 388,250 388,245 388,240 384,237 379,235 375,237 371,240 370,245" fill="rgb(255,214,0)" />
<polygon points=" 358,227 354,230 353,235 354,240 358,243 362,245 367,243 371,240 371,235 371,230 367,227 362,225 358,227" fill="rgb(255,214,0)" />
<polygon points=" 367,208 362,206 358,208 354,211 353,216 354,220 358,223 362,225 367,223 371,220 371,216 371,211 367,208" fill="rgb(255,214,0)" />
<polygon points=" 384,159 379,157 375,159 371,162 370,167 371,172 375,174 379,176 384,174 388,172 388,167 388,162 384,159" fill="rgb(255,214,0)" />
<polygon points=" 388,147 388,142 384,139 379,137 375,139 371,142 370,147 371,152 375,155 379,157 384,155 388,152 388,147" fill="rgb(255,214,0)" />
<polygon points=" 401,165 405,162 405,157 405,152 401,149 396,147 392,149 388,152 387,157 388,162 392,165 396,167 401,165" fill="rgb(255,214,0)" />
<polygon points=" 392,184 396,186 401,184 405,181 405,176 405,172 401,169 396,167 392,169 388,172 387,176 388,181 392,184" fill="rgb(255,214,0)" />
<polygon points=" 370,186 371,191 375,194 379,196 384,194 388,191 388,186 388,181 384,179 379,176 375,179 371,181 370,186" fill="rgb(255,214,0)" />
<polygon points=" 358,169 354,172 353,176 354,181 358,184 362,186 367,184 371,181 371,176 371,172 367,169 362,167 358,169" fill="rgb(255,214,0)" />
<polygon points=" 367,149 362,147 358,149 354,152 353,157 354,162 358,165 362,167 367,165 371,162 371,157 371,152 367,149" fill="rgb(255,214,0)" />
<polygon points=" 426,380 430,382 434,380 438,377 439,372 438,367 434,364 430,362 426,364 422,367 421,372 422,377 426,380" fill="rgb(255,214,0)" />
<polygon points=" 439,352 438,348 434,345 430,343 426,345 422,348 421,352 422,357 426,360 430,362 434,360 438,357 439,352" fill="rgb(255,214,0)" />
<polygon points=" 451,370 455,367 456,362 455,357 451,355 447,352 443,355 438,357 438,362 438,367 443,370 447,372 451,370" fill="rgb(255,214,0)" />
<polygon points=" 443,389 447,392 451,389 455,387 456,382 455,377 451,374 447,372 443,374 438,377 438,382 438,387 443,389" fill="rgb(255,214,0)" />
<polygon points=" 421,392 422,396 426,399 430,401 434,399 438,396 439,392 438,387 434,384 430,382 426,384 422,387 421,392" fill="rgb(255,214,0)" />
<polygon points=" 409,374 405,377 404,382 405,387 409,389 413,392 417,389 422,387 422,382 422,377 417,374 413,372 409,374" fill="rgb(255,214,0)" />
<polygon points=" 417,355 413,352 409,355 405,357 404,362 405,367 409,370 413,372 417,370 422,367 422,362 422,357 417,355" fill="rgb(255,214,0)" />
<polygon points=" 439,313 438,308 434,306 430,304 426,306 422,308 421,313 422,318 426,321 430,323 434,321 438,318 439,313" fill="rgb(255,214,0)" />
<polygon points=" 439,294 438,289 434,286 430,284 426,286 422,289 421,294 422,299 426,301 430,304 434,301 438,299 439,294" fill="rgb(255,214,0)" />
<polygon points=" 451,311 455,308 456,304 455,299 451,296 447,294 443,296 438,299 438,304 438,308 443,311 447,313 451,311" fill="rgb(255,214,0)" />
<polygon points=" 443,331 447,333 451,331 455,328 456,323 455,318 451,315 447,313 443,315 438,318 438,323 438,328 443,331" fill="rgb(255,214,0)" />
<polygon points=" 421,333 422,338 426,341 430,343 434,341 438,338 439,333 438,328 434,325 430,323 426,325 422,328 421,333" fill="rgb(255,214,0)" />
<polygon points=" 409,315 405,318 404,323 405,328 409,331 413,333 417,331 422,328 422,323 422,318 417,315 413,313 409,315" fill="rgb(255,214,0)" />
<polygon points=" 417,296 413,294 409,296 405,299 404,304 405,308 409,311 413,313 417,311 422,308 422,304 422,299 417,296" fill="rgb(255,214,0)" />
<polygon points=" 485,350 489,348 490,343 489,338 485,335 481,333 476,335 472,338 472,343 472,348 476,350 481,352 485,350" fill="rgb(255,214,0)" />
<polygon points=" 490,323 489,318 485,315 481,313 476,315 472,318 472,323 472,328 476,331 481,333 485,331 489,328 490,323" fill="rgb(255,214,0)" />
<polygon points=" 502,341 506,338 507,333 506,328 502,325 498,323 493,325 489,328 489,333 489,338 493,341 498,343 502,341" fill="rgb(255,214,0)" />
<polygon points=" 493,360 498,362 502,360 506,357 507,352 506,348 502,345 498,343 493,345 489,348 489,352 489,357 493,360" fill="rgb(255,214,0)" />
<polygon points=" 472,362 472,367 476,370 481,372 485,370 489,367 490,362 489,357 485,355 481,352 476,355 472,357 472,362" fill="rgb(255,214,0)" />
<polygon points=" 459,345 455,348 455,352 455,357 459,360 464,362 468,360 472,357 473,352 472,348 468,345 464,343 459,345" fill="rgb(255,214,0)" />
<polygon points=" 468,325 464,323 459,325 455,328 455,333 455,338 459,341 464,343 468,341 472,338 473,333 472,328 468,325" fill="rgb(255,214,0)" />
<polygon points=" 476,409 481,411 485,409 489,406 490,401 489,396 485,394 481,392 476,394 472,396 472,401 472,406 476,409" fill="rgb(255,214,0)" />
<polygon points=" 490,382 489,377 485,374 481,372 476,374 472,377 472,382 472,387 476,389 481,392 485,389 489,387 490,382" fill="rgb(255,214,0)" />
<polygon points=" 502,399 506,396 507,392 506,387 502,384 498,382 493,384 489,387 489,392 489,396 493,399 498,401 502,399" fill="rgb(255,214,0)" />
<polygon points=" 493,419 498,421 502,419 506,416 507,411 506,406 502,403 498,401 493,403 489,406 489,411 489,416 493,419" fill="rgb(255,214,0)" />
<polygon points=" 472,421 472,426 476,429 481,431 485,429 489,426 490,421 489,416 485,413 481,411 476,413 472,416 472,421" fill="rgb(255,214,0)" />
<polygon points=" 459,403 455,406 455,411 455,416 459,419 464,421 468,419 472,416 473,411 472,406 468,403 464,401 459,403" fill="rgb(255,214,0)" />
<polygon points=" 468,384 464,382 459,384 455,387 455,392 455,396 459,399 464,401 468,399 472,396 473,392 472,387 468,384" fill="rgb(255,214,0)" />
<polygon points=" 421,431 422,436 426,438 430,440 434,438 438,436 439,431 438,426 434,423 430,421 426,423 422,426 421,431" fill="rgb(255,214,0)" />
<polygon points=" 439,411 438,406 434,403 430,401 426,403 422,406 421,411 422,416 426,419 430,421 434,419 438,416 439,411" fill="rgb(255,214,0)" />
<polygon points=" 451,429 455,426 456,421 455,416 451,413 447,411 443,413 438,416 438,421 438,426 443,429 447,431 451,429" fill="rgb(255,214,0)" />
<polygon points=" 443,448 447,450 451,448 455,445 456,440 455,436 451,433 447,431 443,433 438,436 438,440 438,445 443,448" fill="rgb(255,214,0)" />
<polygon points=" 421,450 422,455 426,458 430,460 434,458 438,455 439,450 438,445 434,443 430,440 426,443 422,445 421,450" fill="rgb(255,214,0)" />
<polygon points=" 409,433 405,436 404,440 405,445 409,448 413,450 417,448 422,445 422,440 422,436 417,433 413,431 409,433" fill="rgb(255,214,0)" />
<polygon points=" 417,413 413,411 409,413 405,416 404,421 405,426 409,429 413,431 417,429 422,426 422,421 422,416 417,413" fill="rgb(255,214,0)" />
<polygon points=" 375,394 371,396 370,401 371,406 375,409 379,411 384,409 388,406 388,401 388,396 384,394 379,392 375,394" fill="rgb(255,214,0)" />
<polygon points=" 388,382 388,377 384,374 379,372 375,374 371,377 370,382 371,387 375,389 379,392 384,389 388,387 388,382" fill="rgb(255,214,0)" />
<polygon points=" 401,399 405,396 405,392 405,387 401,384 396,382 392,384 388,387 387,392 388,396 392,399 396,401 401,399" fill="rgb(255,214,0)" />
<polygon points=" 392,419 396,421 401,419 405,416 405,411 405,406 401,403 396,401 392,403 388,406 387,411 388,416 392,419" fill="rgb(255,214,0)" />
<polygon points=" 370,421 371,426 375,429 379,431 384,429 388,426 388,421 388,416 384,413 379,411 375,413 371,416 370,421" fill="rgb(255,214,0)" />
<polygon points=" 358,403 354,406 353,411 354,416 358,419 362,421 367,419 371,416 371,411 371,406 367,403 362,401 358,403" fill="rgb(255,214,0)" />
<polygon points=" 367,384 362,382 358,384 354,387 353,392 354,396 358,399 362,401 367,399 371,396 371,392 371,387 367,384" fill="rgb(255,214,0)" />
<polygon points=" 384,335 379,333 375,335 371,338 370,343 371,348 375,350 379,352 384,350 388,348 388,343 388,338 384,335" fill="rgb(255,214,0)" />
<polygon points=" 388,323 388,318 384,315 379,313 375,315 371,318 370,323 371,328 375,331 379,333 384,331 388,328 388,323" fill="rgb(255,214,0)" />
<polygon points=" 401,341 405,338 405,333 405,328 401,325 396,323 392,325 388,328 387,333 388,338 392,341 396,343 401,341" fill="rgb(255,214,0)" />
<polygon points=" 392,360 396,362 401,360 405,357 405,352 405,348 401,345 396,343 392,345 388,348 387,352 388,357 392,360" fill="rgb(255,214,0)" />
<polygon points=" 370,362 371,367 375,370 379,372 384,370 388,367 388,362 388,357 384,355 379,352 375,355 371,357 370,362" fill="rgb(255,214,0)" />
<polygon points=" 358,345 354,348 353,352 354,357 358,360 362,362 367,360 371,357 371,352 371,348 367,345 362,343 358,345" fill="rgb(255,214,0)" />
<polygon points=" 367,325 362,323 358,325 354,328 353,333 354,338 358,341 362,343 367,341 371,338 371,333 371,328 367,325" fill="rgb(255,214,0)" />
<polygon points=" 269,460 269,465 273,468 278,470 282,468 286,465 286,460 286,455 282,452 278,450 273,452 269,455 269,460" fill="rgb(255,214,0)" />
<polygon points=" 286,440 286,436 282,433 278,431 273,433 269,436 269,440 269,445 273,448 278,450 282,448 286,445 286,440" fill="rgb(255,214,0)" />
<polygon points=" 299,458 303,455 303,450 303,445 299,443 295,440 290,443 286,445 286,450 286,455 290,458 295,460 299,458" fill="rgb(255,214,0)" />
<polygon points=" 290,477 295,480 299,477 303,475 303,470 303,465 299,462 295,460 290,462 286,465 286,470 286,475 290,477" fill="rgb(255,214,0)" />
<polygon points=" 269,480 269,484 273,487 278,489 282,487 286,484 286,480 286,475 282,472 278,470 273,472 269,475 269,480" fill="rgb(255,214,0)" />
<polygon points=" 256,462 252,465 252,470 252,475 256,477 261,480 265,477 269,475 269,470 269,465 265,462 261,460 256,462" fill="rgb(255,214,0)" />
<polygon points=" 265,443 261,440 256,443 252,445 252,450 252,455 256,458 261,460 265,458 269,455 269,450 269,445 265,443" fill="rgb(255,214,0)" />
<polygon points=" 286,401 286,396 282,394 278,392 273,394 269,396 269,401 269,406 273,409 278,411 282,409 286,406 286,401" fill="rgb(255,214,0)" />
<polygon points=" 286,382 286,377 282,374 278,372 273,374 269,377 269,382 269,387 273,389 278,392 282,389 286,387 286,382" fill="rgb(255,214,0)" />
<polygon points=" 299,399 303,396 303,392 303,387 299,384 295,382 290,384 286,387 286,392 286,396 290,399 295,401 299,399" fill="rgb(255,214,0)" />
<polygon points=" 290,419 295,421 299,419 303,416 303,411 303,406 299,403 295,401 290,403 286,406 286,411 286,416 290,419" fill="rgb(255,214,0)" />
<polygon points=" 269,421 269,426 273,429 278,431 282,429 286,426 286,421 286,416 282,413 278,411 273,413 269,416 269,421" fill="rgb(255,214,0)" />
<polygon points=" 256,403 252,406 252,411 252,416 256,419 261,421 265,419 269,416 269,411 269,406 265,403 261,401 256,403" fill="rgb(255,214,0)" />
<polygon points=" 265,384 261,382 256,384 252,387 252,392 252,396 256,399 261,401 265,399 269,396 269,392 269,387 265,384" fill="rgb(255,214,0)" />
<polygon points=" 333,438 337,436 337,431 337,426 333,423 328,421 324,423 320,426 320,431 320,436 324,438 328,440 333,438" fill="rgb(255,214,0)" />
<polygon points=" 337,411 337,406 333,403 328,401 324,403 320,406 320,411 320,416 324,419 328,421 333,419 337,416 337,411" fill="rgb(255,214,0)" />
<polygon points=" 350,429 354,426 354,421 354,416 350,413 345,411 341,413 337,416 337,421 337,426 341,429 345,431 350,429" fill="rgb(255,214,0)" />
<polygon points=" 341,448 345,450 350,448 354,445 354,440 354,436 350,433 345,431 341,433 337,436 337,440 337,445 341,448" fill="rgb(255,214,0)" />
<polygon points=" 320,450 320,455 324,458 328,460 333,458 337,455 337,450 337,445 333,443 328,440 324,443 320,445 320,450" fill="rgb(255,214,0)" />
<polygon points=" 307,433 303,436 303,440 303,445 307,448 311,450 316,448 320,445 320,440 320,436 316,433 311,431 307,433" fill="rgb(255,214,0)" />
<polygon points=" 316,413 311,411 307,413 303,416 303,421 303,426 307,429 311,431 316,429 320,426 320,421 320,416 316,413" fill="rgb(255,214,0)" />
<polygon points=" 324,497 328,499 333,497 337,494 337,489 337,484 333,482 328,480 324,482 320,484 320,489 320,494 324,497" fill="rgb(255,214,0)" />
<polygon points=" 337,470 337,465 333,462 328,460 324,462 320,465 320,470 320,475 324,477 328,480 333,477 337,475 337,470" fill="rgb(255,214,0)" />
<polygon points=" 350,487 354,484 354,480 354,475 350,472 345,470 341,472 337,475 337,480 337,484 341,487 345,489 350,487" fill="rgb(255,214,0)" />
<polygon points=" 341,507 345,509 350,507 354,504 354,499 354,494 350,491 345,489 341,491 337,494 337,499 337,504 341,507" fill="rgb(255,214,0)" />
<polygon points=" 320,509 320,514 324,517 328,519 333,517 337,514 337,509 337,504 333,501 328,499 324,501 320,504 320,509" fill="rgb(255,214,0)" />
<polygon points=" 307,491 303,494 303,499 303,504 307,507 311,509 316,507 320,504 320,499 320,494 316,491 311,489 307,491" fill="rgb(255,214,0)" />
<polygon points=" 316,472 311,470 307,472 303,475 303,480 303,484 307,487 311,489 316,487 320,484 320,480 320,475 316,472" fill="rgb(255,214,0)" />
<polygon points=" 269,519 269,524 273,526 278,528 282,526 286,524 286,519 286,514 282,511 278,509 273,511 269,514 269,519" fill="rgb(255,214,0)" />
<polygon points=" 286,499 286,494 282,491 278,489 273,491 269,494 269,499 269,504 273,507 278,509 282,507 286,504 286,499" fill="rgb(255,214,0)" />
<polygon points=" 299,517 303,514 303,509 303,504 299,501 295,499 290,501 286,504 286,509 286,514 290,517 295,519 299,517" fill="rgb(255,214,0)" />
<polygon points=" 290,536 295,538 299,536 303,533 303,528 303,524 299,521 295,519 290,521 286,524 286,528 286,533 290,536" fill="rgb(255,214,0)" />
<polygon points=" 269,538 269,543 273,546 278,548 282,546 286,543 286,538 286,533 282,531 278,528 273,531 269,533 269,538" fill="rgb(255,214,0)" />
<polygon points=" 256,521 252,524 252,528 252,533 256,536 261,538 265,536 269,533 269,528 269,524 265,521 261,519 256,521" fill="rgb(255,214,0)" />
<polygon points=" 265,501 261,499 256,501 252,504 252,509 252,514 256,517 261,519 265,517 269,514 269,509 269,504 265,501" fill="rgb(255,214,0)" />
<polygon points=" 222,482 218,484 218,489 218,494 222,497 227,499 231,497 235,494 236,489 235,484 231,482 227,480 222,482" fill="rgb(255,214,0)" />
<polygon points=" 236,470 235,465 231,462 227,460 222,462 218,465 218,470 218,475 222,477 227,480 231,477 235,475 236,470" fill="rgb(255,214,0)" />
<polygon points=" 248,487 252,484 253,480 252,475 248,472 244,470 239,472 235,475 235,480 235,484 239,487 244,489 248,487" fill="rgb(255,214,0)" />
<polygon points=" 239,507 244,509 248,507 252,504 253,499 252,494 248,491 244,489 239,491 235,494 235,499 235,504 239,507" fill="rgb(255,214,0)" />
<polygon points=" 218,509 218,514 222,517 227,519 231,517 235,514 236,509 235,504 231,501 227,499 222,501 218,504 218,509" fill="rgb(255,214,0)" />
<polygon points=" 205,491 201,494 201,499 201,504 205,507 210,509 214,507 218,504 219,499 218,494 214,491 210,489 205,491" fill="rgb(255,214,0)" />
<polygon points=" 214,472 210,470 205,472 201,475 201,480 201,484 205,487 210,489 214,487 218,484 219,480 218,475 214,472" fill="rgb(255,214,0)" />
<polygon points=" 231,423 227,421 222,423 218,426 218,431 218,436 222,438 227,440 231,438 235,436 236,431 235,426 231,423" fill="rgb(255,214,0)" />
<polygon points=" 236,411 235,406 231,403 227,401 222,403 218,406 218,411 218,416 222,419 227,421 231,419 235,416 236,411" fill="rgb(255,214,0)" />
<polygon points=" 248,429 252,426 253,421 252,416 248,413 244,411 239,413 235,416 235,421 235,426 239,429 244,431 248,429" fill="rgb(255,214,0)" />
<polygon points=" 239,448 244,450 248,448 252,445 253,440 252,436 248,433 244,431 239,433 235,436 235,440 235,445 239,448" fill="rgb(255,214,0)" />
<polygon points=" 218,450 218,455 222,458 227,460 231,458 235,455 236,450 235,445 231,443 227,440 222,443 218,445 218,450" fill="rgb(255,214,0)" />
<polygon points=" 205,433 201,436 201,440 201,445 205,448 210,450 214,448 218,445 219,440 218,436 214,433 210,431 205,433" fill="rgb(255,214,0)" />
<polygon points=" 214,413 210,411 205,413 201,416 201,421 201,426 205,429 210,431 214,429 218,426 219,421 218,416 214,413" fill="rgb(255,214,0)" />
<polygon points=" 121,364 117,367 116,372 117,377 121,380 125,382 130,380 134,377 134,372 134,367 130,364 125,362 121,364" fill="rgb(255,214,0)" />
<polygon points=" 134,352 134,348 130,345 125,343 121,345 117,348 116,352 117,357 121,360 125,362 130,360 134,357 134,352" fill="rgb(255,214,0)" />
<polygon points=" 147,370 151,367 151,362 151,357 147,355 142,352 138,355 134,357 133,362 134,367 138,370 142,372 147,370" fill="rgb(255,214,0)" />
<polygon points=" 138,389 142,392 147,389 151,387 151,382 151,377 147,374 142,372 138,374 134,377 133,382 134,387 138,389" fill="rgb(255,214,0)" />
<polygon points=" 116,392 117,396 121,399 125,401 130,399 134,396 134,392 134,387 130,384 125,382 121,384 117,387 116,392" fill="rgb(255,214,0)" />
<polygon points=" 104,374 100,377 99,382 100,387 104,389 108,392 113,389 117,387 117,382 117,377 113,374 108,372 104,374" fill="rgb(255,214,0)" />
<polygon points=" 113,355 108,352 104,355 100,357 99,362 100,367 104,370 108,372 113,370 117,367 117,362 117,357 113,355" fill="rgb(255,214,0)" />
<polygon points=" 134,313 134,308 130,306 125,304 121,306 117,308 116,313 117,318 121,321 125,323 130,321 134,318 134,313" fill="rgb(255,214,0)" />
<polygon points=" 134,294 134,289 130,286 125,284 121,286 117,289 116,294 117,299 121,301 125,304 130,301 134,299 134,294" fill="rgb(255,214,0)" />
<polygon points=" 147,311 151,308 151,304 151,299 147,296 142,294 138,296 134,299 133,304 134,308 138,311 142,313 147,311" fill="rgb(255,214,0)" />
<polygon points=" 138,331 142,333 147,331 151,328 151,323 151,318 147,315 142,313 138,315 134,318 133,323 134,328 138,331" fill="rgb(255,214,0)" />
<polygon points=" 116,333 117,338 121,341 125,343 130,341 134,338 134,333 134,328 130,325 125,323 121,325 117,328 116,333" fill="rgb(255,214,0)" />
<polygon points=" 104,315 100,318 99,323 100,328 104,331 108,333 113,331 117,328 117,323 117,318 113,315 108,313 104,315" fill="rgb(255,214,0)" />
<polygon points=" 113,296 108,294 104,296 100,299 99,304 100,308 104,311 108,313 113,311 117,308 117,304 117,299 113,296" fill="rgb(255,214,0)" />
<polygon points=" 180,350 184,348 185,343 184,338 180,335 176,333 172,335 168,338 167,343 168,348 172,350 176,352 180,350" fill="rgb(255,214,0)" />
<polygon points=" 185,323 184,318 180,315 176,313 172,315 168,318 167,323 168,328 172,331 176,333 180,331 184,328 185,323" fill="rgb(255,214,0)" />
<polygon points=" 197,341 201,338 202,333 201,328 197,325 193,323 189,325 184,328 184,333 184,338 189,341 193,343 197,341" fill="rgb(255,214,0)" />
<polygon points=" 189,360 193,362 197,360 201,357 202,352 201,348 197,345 193,343 189,345 184,348 184,352 184,357 189,360" fill="rgb(255,214,0)" />
<polygon points=" 167,362 168,367 172,370 176,372 180,370 184,367 185,362 184,357 180,355 176,352 172,355 168,357 167,362" fill="rgb(255,214,0)" />
<polygon points=" 155,345 151,348 150,352 151,357 155,360 159,362 163,360 168,357 168,352 168,348 163,345 159,343 155,345" fill="rgb(255,214,0)" />
<polygon points=" 163,325 159,323 155,325 151,328 150,333 151,338 155,341 159,343 163,341 168,338 168,333 168,328 163,325" fill="rgb(255,214,0)" />
<polygon points=" 172,409 176,411 180,409 184,406 185,401 184,396 180,394 176,392 172,394 168,396 167,401 168,406 172,409" fill="rgb(255,214,0)" />
<polygon points=" 185,382 184,377 180,374 176,372 172,374 168,377 167,382 168,387 172,389 176,392 180,389 184,387 185,382" fill="rgb(255,214,0)" />
<polygon points=" 197,399 201,396 202,392 201,387 197,384 193,382 189,384 184,387 184,392 184,396 189,399 193,401 197,399" fill="rgb(255,214,0)" />
<polygon points=" 189,419 193,421 197,419 201,416 202,411 201,406 197,403 193,401 189,403 184,406 184,411 184,416 189,419" fill="rgb(255,214,0)" />
<polygon points=" 167,421 168,426 172,429 176,431 180,429 184,426 185,421 184,416 180,413 176,411 172,413 168,416 167,421" fill="rgb(255,214,0)" />
<polygon points=" 155,403 151,406 150,411 151,416 155,419 159,421 163,419 168,416 168,411 168,406 163,403 159,401 155,403" fill="rgb(255,214,0)" />
<polygon points=" 163,384 159,382 155,384 151,387 150,392 151,396 155,399 159,401 163,399 168,396 168,392 168,387 163,384" fill="rgb(255,214,0)" />
<polygon points=" 116,431 117,436 121,438 125,440 130,438 134,436 134,431 134,426 130,423 125,421 121,423 117,426 116,431" fill="rgb(255,214,0)" />
<polygon points=" 134,411 134,406 130,403 125,401 121,403 117,406 116,411 117,416 121,419 125,421 130,419 134,416 134,411" fill="rgb(255,214,0)" />
<polygon points=" 147,429 151,426 151,421 151,416 147,413 142,411 138,413 134,416 133,421 134,426 138,429 142,431 147,429" fill="rgb(255,214,0)" />
<polygon points=" 138,448 142,450 147,448 151,445 151,440 151,436 147,433 142,431 138,433 134,436 133,440 134,445 138,448" fill="rgb(255,214,0)" />
<polygon points=" 116,450 117,455 121,458 125,460 130,458 134,455 134,450 134,445 130,443 125,440 121,443 117,445 116,450" fill="rgb(255,214,0)" />
<polygon points=" 104,433 100,436 99,440 100,445 104,448 108,450 113,448 117,445 117,440 117,436 113,433 108,431 104,433" fill="rgb(255,214,0)" />
<polygon points=" 113,413 108,411 104,413 100,416 99,421 100,426 104,429 108,431 113,429 117,426 117,421 117,416 113,413" fill="rgb(255,214,0)" />
<polygon points=" 70,394 66,396 66,401 66,406 70,409 74,411 79,409 83,406 83,401 83,396 79,394 74,392 70,394" fill="rgb(255,214,0)" />
<polygon points=" 83,382 83,377 79,374 74,372 70,374 66,377 66,382 66,387 70,389 74,392 79,389 83,387 83,382" fill="rgb(255,214,0)" />
<polygon points=" 96,399 100,396 100,392 100,387 96,384 91,382 87,384 83,387 83,392 83,396 87,399 91,401 96,399" fill="rgb(255,214,0)" />
<polygon points=" 87,419 91,421 96,419 100,416 100,411 100,406 96,403 91,401 87,403 83,406 83,411 83,416 87,419" fill="rgb(255,214,0)" />
<polygon points=" 66,421 66,426 70,429 74,431 79,429 83,426 83,421 83,416 79,413 74,411 70,413 66,416 66,421" fill="rgb(255,214,0)" />
<polygon points=" 53,403 49,406 49,411 49,416 53,419 57,421 62,419 66,416 66,411 66,406 62,403 57,401 53,403" fill="rgb(255,214,0)" />
<polygon points=" 62,384 57,382 53,384 49,387 49,392 49,396 53,399 57,401 62,399 66,396 66,392 66,387 62,384" fill="rgb(255,214,0)" />
<polygon points=" 79,335 74,333 70,335 66,338 66,343 66,348 70,350 74,352 79,350 83,348 83,343 83,338 79,335" fill="rgb(255,214,0)" />
<polygon points=" 83,323 83,318 79,315 74,313 70,315 66,318 66,323 66,328 70,331 74,333 79,331 83,328 83,323" fill="rgb(255,214,0)" />
<polygon points=" 96,341 100,338 100,333 100,328 96,325 91,323 87,325 83,328 83,333 83,338 87,341 91,343 96,341" fill="rgb(255,214,0)" />
<polygon points=" 87,360 91,362 96,360 100,357 100,352 100,348 96,345 91,343 87,345 83,348 83,352 83,357 87,360" fill="rgb(255,214,0)" />
<polygon points=" 66,362 66,367 70,370 74,372 79,370 83,367 83,362 83,357 79,355 74,352 70,355 66,357 66,362" fill="rgb(255,214,0)" />
<polygon points=" 53,345 49,348 49,352 49,357 53,360 57,362 62,360 66,357 66,352 66,348 62,345 57,343 53,345" fill="rgb(255,214,0)" />
<polygon points=" 62,325 57,323 53,325 49,328 49,333 49,338 53,341 57,343 62,341 66,338 66,333 66,328 62,325" fill="rgb(255,214,0)" />
<polygon points=" 130,188 125,186 121,188 117,191 116,196 117,201 121,204 125,206 130,204 134,201 134,196 134,191 130,188" fill="rgb(255,214,0)" />
<polygon points=" 134,176 134,172 130,169 125,167 121,169 117,172 116,176 117,181 121,184 125,186 130,184 134,181 134,176" fill="rgb(255,214,0)" />
<polygon points=" 147,194 151,191 151,186 151,181 147,179 142,176 138,179 134,181 133,186 134,191 138,194 142,196 147,194" fill="rgb(255,214,0)" />
<polygon points=" 138,213 142,216 147,213 151,211 151,206 151,201 147,198 142,196 138,198 134,201 133,206 134,211 138,213" fill="rgb(255,214,0)" />
<polygon points=" 116,216 117,220 121,223 125,225 130,223 134,220 134,216 134,211 130,208 125,206 121,208 117,211 116,216" fill="rgb(255,214,0)" />
<polygon points=" 104,198 100,201 99,206 100,211 104,213 108,216 113,213 117,211 117,206 117,201 113,198 108,196 104,198" fill="rgb(255,214,0)" />
<polygon points=" 113,179 108,176 104,179 100,181 99,186 100,191 104,194 108,196 113,194 117,191 117,186 117,181 113,179" fill="rgb(255,214,0)" />
<polygon points=" 134,137 134,132 130,130 125,128 121,130 117,132 116,137 117,142 121,145 125,147 130,145 134,142 134,137" fill="rgb(255,214,0)" />
<polygon points=" 134,118 134,113 130,110 125,108 121,110 117,113 116,118 117,123 121,125 125,128 130,125 134,123 134,118" fill="rgb(255,214,0)" />
<polygon points=" 147,135 151,132 151,128 151,123 147,120 142,118 138,120 134,123 133,128 134,132 138,135 142,137 147,135" fill="rgb(255,214,0)" />
<polygon points=" 138,155 142,157 147,155 151,152 151,147 151,142 147,139 142,137 138,139 134,142 133,147 134,152 138,155" fill="rgb(255,214,0)" />
<polygon points=" 116,157 117,162 121,165 125,167 130,165 134,162 134,157 134,152 130,149 125,147 121,149 117,152 116,157" fill="rgb(255,214,0)" />
<polygon points=" 104,139 100,142 99,147 100,152 104,155 108,157 113,155 117,152 117,147 117,142 113,139 108,137 104,139" fill="rgb(255,214,0)" />
<polygon points=" 113,120 108,118 104,120 100,123 99,128 100,132 104,135 108,137 113,135 117,132 117,128 117,123 113,120" fill="rgb(255,214,0)" />
<polygon points=" 180,174 184,172 185,167 184,162 180,159 176,157 172,159 168,162 167,167 168,172 172,174 176,176 180,174" fill="rgb(255,214,0)" />
<polygon points=" 185,147 184,142 180,139 176,137 172,139 168,142 167,147 168,152 172,155 176,157 180,155 184,152 185,147" fill="rgb(255,214,0)" />
<polygon points=" 197,165 201,162 202,157 201,152 197,149 193,147 189,149 184,152 184,157 184,162 189,165 193,167 197,165" fill="rgb(255,214,0)" />
<polygon points=" 189,184 193,186 197,184 201,181 202,176 201,172 197,169 193,167 189,169 184,172 184,176 184,181 189,184" fill="rgb(255,214,0)" />
<polygon points=" 167,186 168,191 172,194 176,196 180,194 184,191 185,186 184,181 180,179 176,176 172,179 168,181 167,186" fill="rgb(255,214,0)" />
<polygon points=" 155,169 151,172 150,176 151,181 155,184 159,186 163,184 168,181 168,176 168,172 163,169 159,167 155,169" fill="rgb(255,214,0)" />
<polygon points=" 163,149 159,147 155,149 151,152 150,157 151,162 155,165 159,167 163,165 168,162 168,157 168,152 163,149" fill="rgb(255,214,0)" />
<polygon points=" 172,233 176,235 180,233 184,230 185,225 184,220 180,218 176,216 172,218 168,220 167,225 168,230 172,233" fill="rgb(255,214,0)" />
<polygon points=" 185,206 184,201 180,198 176,196 172,198 168,201 167,206 168,211 172,213 176,216 180,213 184,211 185,206" fill="rgb(255,214,0)" />
<polygon points=" 197,223 201,220 202,216 201,211 197,208 193,206 189,208 184,211 184,216 184,220 189,223 193,225 197,223" fill="rgb(255,214,0)" />
<polygon points=" 189,243 193,245 197,243 201,240 202,235 201,230 197,227 193,225 189,227 184,230 184,235 184,240 189,243" fill="rgb(255,214,0)" />
<polygon points=" 167,245 168,250 172,253 176,255 180,253 184,250 185,245 184,240 180,237 176,235 172,237 168,240 167,245" fill="rgb(255,214,0)" />
<polygon points=" 155,227 151,230 150,235 151,240 155,243 159,245 163,243 168,240 168,235 168,230 163,227 159,225 155,227" fill="rgb(255,214,0)" />
<polygon points=" 163,208 159,206 155,208 151,211 150,216 151,220 155,223 159,225 163,223 168,220 168,216 168,211 163,208" fill="rgb(255,214,0)" />
<polygon points=" 116,255 117,260 121,262 125,264 130,262 134,260 134,255 134,250 130,247 125,245 121,247 117,250 116,255" fill="rgb(255,214,0)" />
<polygon points=" 134,235 134,230 130,227 125,225 121,227 117,230 116,235 117,240 121,243 125,245 130,243 134,240 134,235" fill="rgb(255,214,0)" />
<polygon points=" 147,253 151,250 151,245 151,240 147,237 142,235 138,237 134,240 133,245 134,250 138,253 142,255 147,253" fill="rgb(255,214,0)" />
<polygon points=" 138,272 142,274 147,272 151,269 151,264 151,260 147,257 142,255 138,257 134,260 133,264 134,269 138,272" fill="rgb(255,214,0)" />
<polygon points=" 116,274 117,279 121,282 125,284 130,282 134,279 134,274 134,269 130,267 125,264 121,267 117,269 116,274" fill="rgb(255,214,0)" />
<polygon points=" 104,257 100,260 99,264 100,269 104,272 108,274 113,272 117,269 117,264 117,260 113,257 108,255 104,257" fill="rgb(255,214,0)" />
<polygon points=" 113,237 108,235 104,237 100,240 99,245 100,250 104,253 108,255 113,253 117,250 117,245 117,240 113,237" fill="rgb(255,214,0)" />
<polygon points=" 70,218 66,220 66,225 66,230 70,233 74,235 79,233 83,230 83,225 83,220 79,218 74,216 70,218" fill="rgb(255,214,0)" />
<polygon points=" 83,206 83,201 79,198 74,196 70,198 66,201 66,206 66,211 70,213 74,216 79,213 83,211 83,206" fill="rgb(255,214,0)" />
<polygon points=" 96,223 100,220 100,216 100,211 96,208 91,206 87,208 83,211 83,216 83,220 87,223 91,225 96,223" fill="rgb(255,214,0)" />
<polygon points=" 87,243 91,245 96,243 100,240 100,235 100,230 96,227 91,225 87,227 83,230 83,235 83,240 87,243" fill="rgb(255,214,0)" />
<polygon points=" 66,245 66,250 70,253 74,255 79,253 83,250 83,245 83,240 79,237 74,235 70,237 66,240 66,245" fill="rgb(255,214,0)" />
<polygon points=" 53,227 49,230 49,235 49,240 53,243 57,245 62,243 66,240 66,235 66,230 62,227 57,225 53,227" fill="rgb(255,214,0)" />
<polygon points=" 62,208 57,206 53,208 49,211 49,216 49,220 53,223 57,225 62,223 66,220 66,216 66,211 62,208" fill="rgb(255,214,0)" />
<polygon points=" 79,159 74,157 70,159 66,162 66,167 66,172 70,174 74,176 79,174 83,172 83,167 83,162 79,159" fill="rgb(255,214,0)" />
<polygon points=" 83,147 83,142 79,139 74,137 70,139 66,142 66,147 66,152 70,155 74,157 79,155 83,152 83,147" fill="rgb(255,214,0)" />
<polygon points=" 96,165 100,162 100,157 100,152 96,149 91,147 87,149 83,152 83,157 83,162 87,165 91,167 96,165" fill="rgb(255,214,0)" />
<polygon points=" 87,184 91,186 96,184 100,181 100,176 100,172 96,169 91,167 87,169 83,172 83,176 83,181 87,184" fill="rgb(255,214,0)" />
<polygon points=" 66,186 66,191 70,194 74,196 79,194 83,191 83,186 83,181 79,179 74,176 70,179 66,181 66,186" fill="rgb(255,214,0)" />
<polygon points=" 53,169 49,172 49,176 49,181 53,184 57,186 62,184 66,181 66,176 66,172 62,169 57,167 53,169" fill="rgb(255,214,0)" />
<polygon points=" 62,149 57,147 53,149 49,152 49,157 49,162 53,165 57,167 62,165 66,162 66,157 66,152 62,149" fill="rgb(255,214,0)" /></svg>