<svg xmlns="http://www.w3.org/2000/svg" 
xmlns:xlink="http://www.w3.org/1999/xlink" 
version="1.1" baseProfile="full" 
width="537" height="568" >
<polygon points=" 480,284 497,152 374,101 269,20 163,101 40,152 57,284 40,416 163,467 269,548 374,467 497,416 480,284" fill="rgb(170,0,255)" />
<polygon points=" 339,284 345,240 304,223 269,196 233,223 192,240 198,284 192,328 233,345 269,372 304,345 345,328 339,284" fill="rgb(0,212,255)" />
<polygon points=" 339,108 345,64 304,47 269,20 233,47 192,64 198,108 192,152 233,169 269,196 304,169 345,152 339,108" fill="rgb(0,212,255)" />
<polygon points=" 456,257 497,240 491,196 497,152 456,135 421,108 386,135 345,152 351,196 345,240 386,257 421,284 456,257" fill="rgb(0,212,255)" />
<polygon points=" 386,433 421,460 456,433 497,416 491,372 497,328 456,311 421,284 386,311 345,328 351,372 345,416 386,433" fill="rgb(0,212,255)" />
<polygon points=" 198,460 192,504 233,521 269,548 304,521 345,504 339,460 345,416 304,399 269,372 233,399 192,416 198,460" fill="rgb(0,212,255)" />
<polygon points=" 81,311 40,328 46,372 40,416 81,433 116,460 151,433 192,416 187,372 192,328 151,311 116,284 81,311" fill="rgb(0,212,255)" />
<polygon points=" 151,135 116,108 81,135 40,152 46,196 40,240 81,257 116,284 151,257 192,240 187,196 192,152 151,135" fill="rgb(0,212,255)" />
<polygon points=" 292,284 294,269 280,264 269,255 257,264 243,269 245,284 243,299 257,304 269,313 280,304 294,299 292,284" fill="rgb(84,255,0)" />
<polygon points=" 292,225 294,211 280,205 269,196 257,205 243,211 245,225 243,240 257,246 269,255 280,246 294,240 292,225" fill="rgb(84,255,0)" />
<polygon points=" 331,275 345,269 343,255 345,240 331,234 319,225 308,234 294,240 296,255 294,269 308,275 319,284 331,275" fill="rgb(84,255,0)" />
<polygon points=" 308,334 319,343 331,334 345,328 343,313 345,299 331,293 319,284 308,293 294,299 296,313 294,328 308,334" fill="rgb(84,255,0)" />
<polygon points=" 245,343 243,357 257,363 269,372 280,363 294,357 292,343 294,328 280,322 269,313 257,322 243,328 245,343" fill="rgb(84,255,0)" />
<polygon points=" 206,293 192,299 194,313 192,328 206,334 218,343 230,334 243,328 241,313 243,299 230,293 218,284 206,293" fill="rgb(84,255,0)" />
<polygon points=" 230,234 218,225 206,234 192,240 194,255 192,269 206,275 218,284 230,275 243,269 241,255 243,240 230,234" fill="rgb(84,255,0)" />
<polygon points=" 292,108 294,93 280,88 269,79 257,88 243,93 245,108 243,123 257,128 269,137 280,128 294,123 292,108" fill="rgb(84,255,0)" />
<polygon points=" 292,49 294,35 280,29 269,20 257,29 243,35 245,49 243,64 257,70 269,79 280,70 294,64 292,49" fill="rgb(84,255,0)" />
<polygon points=" 331,99 345,93 343,79 345,64 331,58 319,49 308,58 294,64 296,79 294,93 308,99 319,108 331,99" fill="rgb(84,255,0)" />
<polygon points=" 308,158 319,167 331,158 345,152 343,137 345,123 331,117 319,108 308,117 294,123 296,137 294,152 308,158" fill="rgb(84,255,0)" />
<polygon points=" 245,167 243,181 257,187 269,196 280,187 294,181 292,167 294,152 280,146 269,137 257,146 243,152 245,167" fill="rgb(84,255,0)" />
<polygon points=" 206,117 192,123 194,137 192,152 206,158 218,167 230,158 243,152 241,137 243,123 230,117 218,108 206,117" fill="rgb(84,255,0)" />
<polygon points=" 230,58 218,49 206,58 192,64 194,79 192,93 206,99 218,108 230,99 243,93 241,79 243,64 230,58" fill="rgb(84,255,0)" />
<polygon points=" 433,216 446,211 445,196 446,181 433,176 421,167 409,176 396,181 398,196 396,211 409,216 421,225 433,216" fill="rgb(84,255,0)" />
<polygon points=" 445,137 446,123 433,117 421,108 409,117 396,123 398,137 396,152 409,158 421,167 433,158 446,152 445,137" fill="rgb(84,255,0)" />
<polygon points=" 484,187 497,181 495,167 497,152 484,146 472,137 460,146 446,152 448,167 446,181 460,187 472,196 484,187" fill="rgb(84,255,0)" />
<polygon points=" 460,246 472,255 484,246 497,240 495,225 497,211 484,205 472,196 460,205 446,211 448,225 446,240 460,246" fill="rgb(84,255,0)" />
<polygon points=" 398,255 396,269 409,275 421,284 433,275 446,269 445,255 446,240 433,234 421,225 409,234 396,240 398,255" fill="rgb(84,255,0)" />
<polygon points=" 359,205 345,211 347,225 345,240 359,246 370,255 382,246 396,240 394,225 396,211 382,205 370,196 359,205" fill="rgb(84,255,0)" />
<polygon points=" 382,146 370,137 359,146 345,152 347,167 345,181 359,187 370,196 382,187 396,181 394,167 396,152 382,146" fill="rgb(84,255,0)" />
<polygon points=" 409,392 421,401 433,392 446,387 445,372 446,357 433,352 421,343 409,352 396,357 398,372 396,387 409,392" fill="rgb(84,255,0)" />
<polygon points=" 445,313 446,299 433,293 421,284 409,293 396,299 398,313 396,328 409,334 421,343 433,334 446,328 445,313" fill="rgb(84,255,0)" />
<polygon points=" 484,363 497,357 495,343 497,328 484,322 472,313 460,322 446,328 448,343 446,357 460,363 472,372 484,363" fill="rgb(84,255,0)" />
<polygon points=" 460,422 472,431 484,422 497,416 495,401 497,387 484,381 472,372 460,381 446,387 448,401 446,416 460,422" fill="rgb(84,255,0)" />
<polygon points=" 398,431 396,445 409,451 421,460 433,451 446,445 445,431 446,416 433,410 421,401 409,410 396,416 398,431" fill="rgb(84,255,0)" />
<polygon points=" 359,381 345,387 347,401 345,416 359,422 370,431 382,422 396,416 394,401 396,387 382,381 370,372 359,381" fill="rgb(84,255,0)" />
<polygon points=" 382,322 370,313 359,322 345,328 347,343 345,357 359,363 370,372 382,363 396,357 394,343 396,328 382,322" fill="rgb(84,255,0)" />
<polygon points=" 245,460 243,475 257,480 269,489 280,480 294,475 292,460 294,445 280,440 269,431 257,440 243,445 245,460" fill="rgb(84,255,0)" />
<polygon points=" 292,401 294,387 280,381 269,372 257,381 243,387 245,401 243,416 257,422 269,431 280,422 294,416 292,401" fill="rgb(84,255,0)" />
<polygon points=" 331,451 345,445 343,431 345,416 331,410 319,401 308,410 294,416 296,431 294,445 308,451 319,460 331,451" fill="rgb(84,255,0)" />
<polygon points=" 308,510 319,519 331,510 345,504 343,489 345,475 331,469 319,460 308,469 294,475 296,489 294,504 308,510" fill="rgb(84,255,0)" />
<polygon points=" 245,519 243,533 257,539 269,548 280,539 294,533 292,519 294,504 280,498 269,489 257,498 243,504 245,519" fill="rgb(84,255,0)" />
<polygon points=" 206,469 192,475 194,489 192,504 206,510 218,519 230,510 243,504 241,489 243,475 230,469 218,460 206,469" fill="rgb(84,255,0)" />
<polygon points=" 230,410 218,401 206,410 192,416 194,431 192,445 206,451 218,460 230,451 243,445 241,431 243,416 230,410" fill="rgb(84,255,0)" />
<polygon points=" 104,352 91,357 93,372 91,387 104,392 116,401 128,392 142,387 140,372 142,357 128,352 116,343 104,352" fill="rgb(84,255,0)" />
<polygon points=" 140,313 142,299 128,293 116,284 104,293 91,299 93,313 91,328 104,334 116,343 128,334 142,328 140,313" fill="rgb(84,255,0)" />
<polygon points=" 179,363 192,357 190,343 192,328 179,322 167,313 155,322 142,328 144,343 142,357 155,363 167,372 179,363" fill="rgb(84,255,0)" />
<polygon points=" 155,422 167,431 179,422 192,416 190,401 192,387 179,381 167,372 155,381 142,387 144,401 142,416 155,422" fill="rgb(84,255,0)" />
<polygon points=" 93,431 91,445 104,451 116,460 128,451 142,445 140,431 142,416 128,410 116,401 104,410 91,416 93,431" fill="rgb(84,255,0)" />
<polygon points=" 54,381 40,387 42,401 40,416 54,422 65,431 77,422 91,416 89,401 91,387 77,381 65,372 54,381" fill="rgb(84,255,0)" />
<polygon points=" 77,322 65,313 54,322 40,328 42,343 40,357 54,363 65,372 77,363 91,357 89,343 91,328 77,322" fill="rgb(84,255,0)" />
<polygon points=" 128,176 116,167 104,176 91,181 93,196 91,211 104,216 116,225 128,216 142,211 140,196 142,181 128,176" fill="rgb(84,255,0)" />
<polygon points=" 140,137 142,123 128,117 116,108 104,117 91,123 93,137 91,152 104,158 116,167 128,158 142,152 140,137" fill="rgb(84,255,0)" />
<polygon points=" 179,187 192,181 190,167 192,152 179,146 167,137 155,146 142,152 144,167 142,181 155,187 167,196 179,187" fill="rgb(84,255,0)" />
<polygon points=" 155,246 167,255 179,246 192,240 190,225 192,211 179,205 167,196 155,205 142,211 144,225 142,240 155,246" fill="rgb(84,255,0)" />
<polygon points=" 93,255 91,269 104,275 116,284 128,275 142,269 140,255 142,240 128,234 116,225 104,234 91,240 93,255" fill="rgb(84,255,0)" />
<polygon points=" 54,205 40,211 42,225 40,240 54,246 65,255 77,246 91,240 89,225 91,211 77,205 65,196 54,205" fill="rgb(84,255,0)" />
<polygon points=" 77,146 65,137 54,146 40,152 42,167 40,181 54,187 65,196 77,187 91,181 89,167 91,152 77,146" fill="rgb(84,255,0)" />
<polygon points=" 276,284 277,279 273,277 269,274 265,277 260,279 261,284 260,289 265,291 269,294 273,291 277,289 276,284" fill="rgb(255,44,0)" />
<polygon points=" 276,264 277,260 273,258 269,255 265,258 260,260 261,264 260,269 265,271 269,274 273,271 277,269 276,264" fill="rgb(255,44,0)" />
<polygon points=" 289,281 294,279 293,274 294,269 289,267 286,264 282,267 277,269 278,274 277,279 282,281 286,284 289,281" fill="rgb(255,44,0)" />
<polygon points=" 282,301 286,304 289,301 294,299 293,294 294,289 289,287 286,284 282,287 277,289 278,294 277,299 282,301" fill="rgb(255,44,0)" />
<polygon points=" 261,304 260,308 265,310 269,313 273,310 277,308 276,304 277,299 273,297 269,294 265,297 260,299 261,304" fill="rgb(255,44,0)" />
<polygon points=" 248,287 243,289 244,294 243,299 248,301 252,304 256,301 260,299 260,294 260,289 256,287 252,284 248,287" fill="rgb(255,44,0)" />
<polygon points=" 256,267 252,264 248,267 243,269 244,274 243,279 248,281 252,284 256,281 260,279 260,274 260,269 256,267" fill="rgb(255,44,0)" />
<polygon points=" 276,225 277,220 273,219 269,216 265,219 260,220 261,225 260,230 265,232 269,235 273,232 277,230 276,225" fill="rgb(255,44,0)" />
<polygon points=" 276,206 277,201 273,199 269,196 265,199 260,201 261,206 260,211 265,213 269,216 273,213 277,211 276,206" fill="rgb(255,44,0)" />
<polygon points=" 289,222 294,220 293,216 294,211 289,209 286,206 282,209 277,211 278,216 277,220 282,222 286,225 289,222" fill="rgb(255,44,0)" />
<polygon points=" 282,242 286,245 289,242 294,240 293,235 294,230 289,228 286,225 282,228 277,230 278,235 277,240 282,242" fill="rgb(255,44,0)" />
<polygon points=" 261,245 260,250 265,252 269,255 273,252 277,250 276,245 277,240 273,238 269,235 265,238 260,240 261,245" fill="rgb(255,44,0)" />
<polygon points=" 248,228 243,230 244,235 243,240 248,242 252,245 256,242 260,240 260,235 260,230 256,228 252,225 248,228" fill="rgb(255,44,0)" />
<polygon points=" 256,209 252,206 248,209 243,211 244,216 243,220 248,222 252,225 256,222 260,220 260,216 260,211 256,209" fill="rgb(255,44,0)" />
<polygon points=" 323,261 328,260 327,255 328,250 323,248 319,245 316,248 311,250 312,255 311,260 316,261 319,264 323,261" fill="rgb(255,44,0)" />
<polygon points=" 327,235 328,230 323,228 319,225 316,228 311,230 312,235 311,240 316,242 319,245 323,242 328,240 327,235" fill="rgb(255,44,0)" />
<polygon points=" 340,252 345,250 344,245 345,240 340,238 336,235 332,238 328,240 329,245 328,250 332,252 336,255 340,252" fill="rgb(255,44,0)" />
<polygon points=" 332,271 336,274 340,271 345,269 344,264 345,260 340,258 336,255 332,258 328,260 329,264 328,269 332,271" fill="rgb(255,44,0)" />
<polygon points=" 312,274 311,279 316,281 319,284 323,281 328,279 327,274 328,269 323,267 319,264 316,267 311,269 312,274" fill="rgb(255,44,0)" />
<polygon points=" 299,258 294,260 295,264 294,269 299,271 303,274 306,271 311,269 310,264 311,260 306,258 303,255 299,258" fill="rgb(255,44,0)" />
<polygon points=" 306,238 303,235 299,238 294,240 295,245 294,250 299,252 303,255 306,252 311,250 310,245 311,240 306,238" fill="rgb(255,44,0)" />
<polygon points=" 316,320 319,323 323,320 328,318 327,313 328,308 323,307 319,304 316,307 311,308 312,313 311,318 316,320" fill="rgb(255,44,0)" />
<polygon points=" 327,294 328,289 323,287 319,284 316,287 311,289 312,294 311,299 316,301 319,304 323,301 328,299 327,294" fill="rgb(255,44,0)" />
<polygon points=" 340,310 345,308 344,304 345,299 340,297 336,294 332,297 328,299 329,304 328,308 332,310 336,313 340,310" fill="rgb(255,44,0)" />
<polygon points=" 332,330 336,333 340,330 345,328 344,323 345,318 340,316 336,313 332,316 328,318 329,323 328,328 332,330" fill="rgb(255,44,0)" />
<polygon points=" 312,333 311,338 316,340 319,343 323,340 328,338 327,333 328,328 323,326 319,323 316,326 311,328 312,333" fill="rgb(255,44,0)" />
<polygon points=" 299,316 294,318 295,323 294,328 299,330 303,333 306,330 311,328 310,323 311,318 306,316 303,313 299,316" fill="rgb(255,44,0)" />
<polygon points=" 306,297 303,294 299,297 294,299 295,304 294,308 299,310 303,313 306,310 311,308 310,304 311,299 306,297" fill="rgb(255,44,0)" />
<polygon points=" 261,343 260,348 265,349 269,352 273,349 277,348 276,343 277,338 273,336 269,333 265,336 260,338 261,343" fill="rgb(255,44,0)" />
<polygon points=" 276,323 277,318 273,316 269,313 265,316 260,318 261,323 260,328 265,330 269,333 273,330 277,328 276,323" fill="rgb(255,44,0)" />
<polygon points=" 289,340 294,338 293,333 294,328 289,326 286,323 282,326 277,328 278,333 277,338 282,340 286,343 289,340" fill="rgb(255,44,0)" />
<polygon points=" 282,359 286,362 289,359 294,357 293,352 294,348 289,346 286,343 282,346 277,348 278,352 277,357 282,359" fill="rgb(255,44,0)" />
<polygon points=" 261,362 260,367 265,369 269,372 273,369 277,367 276,362 277,357 273,355 269,352 265,355 260,357 261,362" fill="rgb(255,44,0)" />
<polygon points=" 248,346 243,348 244,352 243,357 248,359 252,362 256,359 260,357 260,352 260,348 256,346 252,343 248,346" fill="rgb(255,44,0)" />
<polygon points=" 256,326 252,323 248,326 243,328 244,333 243,338 248,340 252,343 256,340 260,338 260,333 260,328 256,326" fill="rgb(255,44,0)" />
<polygon points=" 214,307 209,308 210,313 209,318 214,320 218,323 222,320 226,318 226,313 226,308 222,307 218,304 214,307" fill="rgb(255,44,0)" />
<polygon points=" 226,294 226,289 222,287 218,284 214,287 209,289 210,294 209,299 214,301 218,304 222,301 226,299 226,294" fill="rgb(255,44,0)" />
<polygon points=" 239,310 243,308 243,304 243,299 239,297 235,294 231,297 226,299 227,304 226,308 231,310 235,313 239,310" fill="rgb(255,44,0)" />
<polygon points=" 231,330 235,333 239,330 243,328 243,323 243,318 239,316 235,313 231,316 226,318 227,323 226,328 231,330" fill="rgb(255,44,0)" />
<polygon points=" 210,333 209,338 214,340 218,343 222,340 226,338 226,333 226,328 222,326 218,323 214,326 209,328 210,333" fill="rgb(255,44,0)" />
<polygon points=" 197,316 192,318 193,323 192,328 197,330 201,333 205,330 209,328 209,323 209,318 205,316 201,313 197,316" fill="rgb(255,44,0)" />
<polygon points=" 205,297 201,294 197,297 192,299 193,304 192,308 197,310 201,313 205,310 209,308 209,304 209,299 205,297" fill="rgb(255,44,0)" />
<polygon points=" 222,248 218,245 214,248 209,250 210,255 209,260 214,261 218,264 222,261 226,260 226,255 226,250 222,248" fill="rgb(255,44,0)" />
<polygon points=" 226,235 226,230 222,228 218,225 214,228 209,230 210,235 209,240 214,242 218,245 222,242 226,240 226,235" fill="rgb(255,44,0)" />
<polygon points=" 239,252 243,250 243,245 243,240 239,238 235,235 231,238 226,240 227,245 226,250 231,252 235,255 239,252" fill="rgb(255,44,0)" />
<polygon points=" 231,271 235,274 239,271 243,269 243,264 243,260 239,258 235,255 231,258 226,260 227,264 226,269 231,271" fill="rgb(255,44,0)" />
<polygon points=" 210,274 209,279 214,281 218,284 222,281 226,279 226,274 226,269 222,267 218,264 214,267 209,269 210,274" fill="rgb(255,44,0)" />
<polygon points=" 197,258 192,260 193,264 192,269 197,271 201,274 205,271 209,269 209,264 209,260 205,258 201,255 197,258" fill="rgb(255,44,0)" />
<polygon points=" 205,238 201,235 197,238 192,240 193,245 192,250 197,252 201,255 205,252 209,250 209,245 209,240 205,238" fill="rgb(255,44,0)" />
<polygon points=" 276,108 277,103 273,101 269,98 265,101 260,103 261,108 260,113 265,115 269,118 273,115 277,113 276,108" fill="rgb(255,44,0)" />
<polygon points=" 276,88 277,84 273,82 269,79 265,82 260,84 261,88 260,93 265,95 269,98 273,95 277,93 276,88" fill="rgb(255,44,0)" />
<polygon points=" 289,105 294,103 293,98 294,93 289,91 286,88 282,91 277,93 278,98 277,103 282,105 286,108 289,105" fill="rgb(255,44,0)" />
<polygon points=" 282,125 286,128 289,125 294,123 293,118 294,113 289,111 286,108 282,111 277,113 278,118 277,123 282,125" fill="rgb(255,44,0)" />
<polygon points=" 261,128 260,132 265,134 269,137 273,134 277,132 276,128 277,123 273,121 269,118 265,121 260,123 261,128" fill="rgb(255,44,0)" />
<polygon points=" 248,111 243,113 244,118 243,123 248,125 252,128 256,125 260,123 260,118 260,113 256,111 252,108 248,111" fill="rgb(255,44,0)" />
<polygon points=" 256,91 252,88 248,91 243,93 244,98 243,103 248,105 252,108 256,105 260,103 260,98 260,93 256,91" fill="rgb(255,44,0)" />
<polygon points=" 276,49 277,44 273,43 269,40 265,43 260,44 261,49 260,54 265,56 269,59 273,56 277,54 276,49" fill="rgb(255,44,0)" />
<polygon points=" 276,30 277,25 273,23 269,20 265,23 260,25 261,30 260,35 265,37 269,40 273,37 277,35 276,30" fill="rgb(255,44,0)" />
<polygon points=" 289,46 294,44 293,40 294,35 289,33 286,30 282,33 277,35 278,40 277,44 282,46 286,49 289,46" fill="rgb(255,44,0)" />
<polygon points=" 282,66 286,69 289,66 294,64 293,59 294,54 289,52 286,49 282,52 277,54 278,59 277,64 282,66" fill="rgb(255,44,0)" />
<polygon points=" 261,69 260,74 265,76 269,79 273,76 277,74 276,69 277,64 273,62 269,59 265,62 260,64 261,69" fill="rgb(255,44,0)" />
<polygon points=" 248,52 243,54 244,59 243,64 248,66 252,69 256,66 260,64 260,59 260,54 256,52 252,49 248,52" fill="rgb(255,44,0)" />
<polygon points=" 256,33 252,30 248,33 243,35 244,40 243,44 248,46 252,49 256,46 260,44 260,40 260,35 256,33" fill="rgb(255,44,0)" />
<polygon points=" 323,85 328,84 327,79 328,74 323,72 319,69 316,72 311,74 312,79 311,84 316,85 319,88 323,85" fill="rgb(255,44,0)" />
<polygon points=" 327,59 328,54 323,52 319,49 316,52 311,54 312,59 311,64 316,66 319,69 323,66 328,64 327,59" fill="rgb(255,44,0)" />
<polygon points=" 340,76 345,74 344,69 345,64 340,62 336,59 332,62 328,64 329,69 328,74 332,76 336,79 340,76" fill="rgb(255,44,0)" />
<polygon points=" 332,95 336,98 340,95 345,93 344,88 345,84 340,82 336,79 332,82 328,84 329,88 328,93 332,95" fill="rgb(255,44,0)" />
<polygon points=" 312,98 311,103 316,105 319,108 323,105 328,103 327,98 328,93 323,91 319,88 316,91 311,93 312,98" fill="rgb(255,44,0)" />
<polygon points=" 299,82 294,84 295,88 294,93 299,95 303,98 306,95 311,93 310,88 311,84 306,82 303,79 299,82" fill="rgb(255,44,0)" />
<polygon points=" 306,62 303,59 299,62 294,64 295,69 294,74 299,76 303,79 306,76 311,74 310,69 311,64 306,62" fill="rgb(255,44,0)" />
<polygon points=" 316,144 319,147 323,144 328,142 327,137 328,132 323,131 319,128 316,131 311,132 312,137 311,142 316,144" fill="rgb(255,44,0)" />
<polygon points=" 327,118 328,113 323,111 319,108 316,111 311,113 312,118 311,123 316,125 319,128 323,125 328,123 327,118" fill="rgb(255,44,0)" />
<polygon points=" 340,134 345,132 344,128 345,123 340,121 336,118 332,121 328,123 329,128 328,132 332,134 336,137 340,134" fill="rgb(255,44,0)" />
<polygon points=" 332,154 336,157 340,154 345,152 344,147 345,142 340,140 336,137 332,140 328,142 329,147 328,152 332,154" fill="rgb(255,44,0)" />
<polygon points=" 312,157 311,162 316,164 319,167 323,164 328,162 327,157 328,152 323,150 319,147 316,150 311,152 312,157" fill="rgb(255,44,0)" />
<polygon points=" 299,140 294,142 295,147 294,152 299,154 303,157 306,154 311,152 310,147 311,142 306,140 303,137 299,140" fill="rgb(255,44,0)" />
<polygon points=" 306,121 303,118 299,121 294,123 295,128 294,132 299,134 303,137 306,134 311,132 310,128 311,123 306,121" fill="rgb(255,44,0)" />
<polygon points=" 261,167 260,172 265,173 269,176 273,173 277,172 276,167 277,162 273,160 269,157 265,160 260,162 261,167" fill="rgb(255,44,0)" />
<polygon points=" 276,147 277,142 273,140 269,137 265,140 260,142 261,147 260,152 265,154 269,157 273,154 277,152 276,147" fill="rgb(255,44,0)" />
<polygon points=" 289,164 294,162 293,157 294,152 289,150 286,147 282,150 277,152 278,157 277,162 282,164 286,167 289,164" fill="rgb(255,44,0)" />
<polygon points=" 282,183 286,186 289,183 294,181 293,176 294,172 289,170 286,167 282,170 277,172 278,176 277,181 282,183" fill="rgb(255,44,0)" />
<polygon points=" 261,186 260,191 265,193 269,196 273,193 277,191 276,186 277,181 273,179 269,176 265,179 260,181 261,186" fill="rgb(255,44,0)" />
<polygon points=" 248,170 243,172 244,176 243,181 248,183 252,186 256,183 260,181 260,176 260,172 256,170 252,167 248,170" fill="rgb(255,44,0)" />
<polygon points=" 256,150 252,147 248,150 243,152 244,157 243,162 248,164 252,167 256,164 260,162 260,157 260,152 256,150" fill="rgb(255,44,0)" />
<polygon points=" 214,131 209,132 210,137 209,142 214,144 218,147 222,144 226,142 226,137 226,132 222,131 218,128 214,131" fill="rgb(255,44,0)" />
<polygon points=" 226,118 226,113 222,111 218,108 214,111 209,113 210,118 209,123 214,125 218,128 222,125 226,123 226,118" fill="rgb(255,44,0)" />
<polygon points=" 239,134 243,132 243,128 243,123 239,121 235,118 231,121 226,123 227,128 226,132 231,134 235,137 239,134" fill="rgb(255,44,0)" />
<polygon points=" 231,154 235,157 239,154 243,152 243,147 243,142 239,140 235,137 231,140 226,142 227,147 226,152 231,154" fill="rgb(255,44,0)" />
<polygon points=" 210,157 209,162 214,164 218,167 222,164 226,162 226,157 226,152 222,150 218,147 214,150 209,152 210,157" fill="rgb(255,44,0)" />
<polygon points=" 197,140 192,142 193,147 192,152 197,154 201,157 205,154 209,152 209,147 209,142 205,140 201,137 197,140" fill="rgb(255,44,0)" />
<polygon points=" 205,121 201,118 197,121 192,123 193,128 192,132 197,134 201,137 205,134 209,132 209,128 209,123 205,121" fill="rgb(255,44,0)" />
<polygon points=" 222,72 218,69 214,72 209,74 210,79 209,84 214,85 218,88 222,85 226,84 226,79 226,74 222,72" fill="rgb(255,44,0)" />
<polygon points=" 226,59 226,54 222,52 218,49 214,52 209,54 210,59 209,64 214,66 218,69 222,66 226,64 226,59" fill="rgb(255,44,0)" />
<polygon points=" 239,76 243,74 243,69 243,64 239,62 235,59 231,62 226,64 227,69 226,74 231,76 235,79 239,76" fill="rgb(255,44,0)" />
<polygon points=" 231,95 235,98 239,95 243,93 243,88 243,84 239,82 235,79 231,82 226,84 227,88 226,93 231,95" fill="rgb(255,44,0)" />
<polygon points=" 210,98 209,103 214,105 218,108 222,105 226,103 226,98 226,93 222,91 218,88 214,91 209,93 210,98" fill="rgb(255,44,0)" />
<polygon points=" 197,82 192,84 193,88 192,93 197,95 201,98 205,95 209,93 209,88 209,84 205,82 201,79 197,82" fill="rgb(255,44,0)" />
<polygon points=" 205,62 201,59 197,62 192,64 193,69 192,74 197,76 201,79 205,76 209,74 209,69 209,64 205,62" fill="rgb(255,44,0)" />
<polygon points=" 425,203 430,201 429,196 430,191 425,189 421,186 417,189 413,191 413,196 413,201 417,203 421,206 425,203" fill="rgb(255,44,0)" />
<polygon points=" 429,176 430,172 425,170 421,167 417,170 413,172 413,176 413,181 417,183 421,186 425,183 430,181 429,176" fill="rgb(255,44,0)" />
<polygon points=" 442,193 446,191 446,186 446,181 442,179 438,176 434,179 430,181 430,186 430,191 434,193 438,196 442,193" fill="rgb(255,44,0)" />
<polygon points=" 434,213 438,216 442,213 446,211 446,206 446,201 442,199 438,196 434,199 430,201 430,206 430,211 434,213" fill="rgb(255,44,0)" />
<polygon points=" 413,216 413,220 417,222 421,225 425,222 430,220 429,216 430,211 425,209 421,206 417,209 413,211 413,216" fill="rgb(255,44,0)" />
<polygon points=" 400,199 396,201 396,206 396,211 400,213 404,216 408,213 413,211 412,206 413,201 408,199 404,196 400,199" fill="rgb(255,44,0)" />
<polygon points=" 408,179 404,176 400,179 396,181 396,186 396,191 400,193 404,196 408,193 413,191 412,186 413,181 408,179" fill="rgb(255,44,0)" />
<polygon points=" 429,137 430,132 425,131 421,128 417,131 413,132 413,137 413,142 417,144 421,147 425,144 430,142 429,137" fill="rgb(255,44,0)" />
<polygon points=" 429,118 430,113 425,111 421,108 417,111 413,113 413,118 413,123 417,125 421,128 425,125 430,123 429,118" fill="rgb(255,44,0)" />
<polygon points=" 442,134 446,132 446,128 446,123 442,121 438,118 434,121 430,123 430,128 430,132 434,134 438,137 442,134" fill="rgb(255,44,0)" />
<polygon points=" 434,154 438,157 442,154 446,152 446,147 446,142 442,140 438,137 434,140 430,142 430,147 430,152 434,154" fill="rgb(255,44,0)" />
<polygon points=" 413,157 413,162 417,164 421,167 425,164 430,162 429,157 430,152 425,150 421,147 417,150 413,152 413,157" fill="rgb(255,44,0)" />
<polygon points=" 400,140 396,142 396,147 396,152 400,154 404,157 408,154 413,152 412,147 413,142 408,140 404,137 400,140" fill="rgb(255,44,0)" />
<polygon points=" 408,121 404,118 400,121 396,123 396,128 396,132 400,134 404,137 408,134 413,132 412,128 413,123 408,121" fill="rgb(255,44,0)" />
<polygon points=" 476,173 480,172 480,167 480,162 476,160 472,157 468,160 463,162 464,167 463,172 468,173 472,176 476,173" fill="rgb(255,44,0)" />
<polygon points=" 480,147 480,142 476,140 472,137 468,140 463,142 464,147 463,152 468,154 472,157 476,154 480,152 480,147" fill="rgb(255,44,0)" />
<polygon points=" 493,164 497,162 497,157 497,152 493,150 489,147 485,150 480,152 481,157 480,162 485,164 489,167 493,164" fill="rgb(255,44,0)" />
<polygon points=" 485,183 489,186 493,183 497,181 497,176 497,172 493,170 489,167 485,170 480,172 481,176 480,181 485,183" fill="rgb(255,44,0)" />
<polygon points=" 464,186 463,191 468,193 472,196 476,193 480,191 480,186 480,181 476,179 472,176 468,179 463,181 464,186" fill="rgb(255,44,0)" />
<polygon points=" 451,170 446,172 447,176 446,181 451,183 455,186 459,183 463,181 463,176 463,172 459,170 455,167 451,170" fill="rgb(255,44,0)" />
<polygon points=" 459,150 455,147 451,150 446,152 447,157 446,162 451,164 455,167 459,164 463,162 463,157 463,152 459,150" fill="rgb(255,44,0)" />
<polygon points=" 468,232 472,235 476,232 480,230 480,225 480,220 476,219 472,216 468,219 463,220 464,225 463,230 468,232" fill="rgb(255,44,0)" />
<polygon points=" 480,206 480,201 476,199 472,196 468,199 463,201 464,206 463,211 468,213 472,216 476,213 480,211 480,206" fill="rgb(255,44,0)" />
<polygon points=" 493,222 497,220 497,216 497,211 493,209 489,206 485,209 480,211 481,216 480,220 485,222 489,225 493,222" fill="rgb(255,44,0)" />
<polygon points=" 485,242 489,245 493,242 497,240 497,235 497,230 493,228 489,225 485,228 480,230 481,235 480,240 485,242" fill="rgb(255,44,0)" />
<polygon points=" 464,245 463,250 468,252 472,255 476,252 480,250 480,245 480,240 476,238 472,235 468,238 463,240 464,245" fill="rgb(255,44,0)" />
<polygon points=" 451,228 446,230 447,235 446,240 451,242 455,245 459,242 463,240 463,235 463,230 459,228 455,225 451,228" fill="rgb(255,44,0)" />
<polygon points=" 459,209 455,206 451,209 446,211 447,216 446,220 451,222 455,225 459,222 463,220 463,216 463,211 459,209" fill="rgb(255,44,0)" />
<polygon points=" 413,255 413,260 417,261 421,264 425,261 430,260 429,255 430,250 425,248 421,245 417,248 413,250 413,255" fill="rgb(255,44,0)" />
<polygon points=" 429,235 430,230 425,228 421,225 417,228 413,230 413,235 413,240 417,242 421,245 425,242 430,240 429,235" fill="rgb(255,44,0)" />
<polygon points=" 442,252 446,250 446,245 446,240 442,238 438,235 434,238 430,240 430,245 430,250 434,252 438,255 442,252" fill="rgb(255,44,0)" />
<polygon points=" 434,271 438,274 442,271 446,269 446,264 446,260 442,258 438,255 434,258 430,260 430,264 430,269 434,271" fill="rgb(255,44,0)" />
<polygon points=" 413,274 413,279 417,281 421,284 425,281 430,279 429,274 430,269 425,267 421,264 417,267 413,269 413,274" fill="rgb(255,44,0)" />
<polygon points=" 400,258 396,260 396,264 396,269 400,271 404,274 408,271 413,269 412,264 413,260 408,258 404,255 400,258" fill="rgb(255,44,0)" />
<polygon points=" 408,238 404,235 400,238 396,240 396,245 396,250 400,252 404,255 408,252 413,250 412,245 413,240 408,238" fill="rgb(255,44,0)" />
<polygon points=" 366,219 362,220 362,225 362,230 366,232 370,235 374,232 379,230 378,225 379,220 374,219 370,216 366,219" fill="rgb(255,44,0)" />
<polygon points=" 378,206 379,201 374,199 370,196 366,199 362,201 362,206 362,211 366,213 370,216 374,213 379,211 378,206" fill="rgb(255,44,0)" />
<polygon points=" 391,222 396,220 395,216 396,211 391,209 387,206 383,209 379,211 379,216 379,220 383,222 387,225 391,222" fill="rgb(255,44,0)" />
<polygon points=" 383,242 387,245 391,242 396,240 395,235 396,230 391,228 387,225 383,228 379,230 379,235 379,240 383,242" fill="rgb(255,44,0)" />
<polygon points=" 362,245 362,250 366,252 370,255 374,252 379,250 378,245 379,240 374,238 370,235 366,238 362,240 362,245" fill="rgb(255,44,0)" />
<polygon points=" 349,228 345,230 345,235 345,240 349,242 353,245 357,242 362,240 361,235 362,230 357,228 353,225 349,228" fill="rgb(255,44,0)" />
<polygon points=" 357,209 353,206 349,209 345,211 345,216 345,220 349,222 353,225 357,222 362,220 361,216 362,211 357,209" fill="rgb(255,44,0)" />
<polygon points=" 374,160 370,157 366,160 362,162 362,167 362,172 366,173 370,176 374,173 379,172 378,167 379,162 374,160" fill="rgb(255,44,0)" />
<polygon points=" 378,147 379,142 374,140 370,137 366,140 362,142 362,147 362,152 366,154 370,157 374,154 379,152 378,147" fill="rgb(255,44,0)" />
<polygon points=" 391,164 396,162 395,157 396,152 391,150 387,147 383,150 379,152 379,157 379,162 383,164 387,167 391,164" fill="rgb(255,44,0)" />
<polygon points=" 383,183 387,186 391,183 396,181 395,176 396,172 391,170 387,167 383,170 379,172 379,176 379,181 383,183" fill="rgb(255,44,0)" />
<polygon points=" 362,186 362,191 366,193 370,196 374,193 379,191 378,186 379,181 374,179 370,176 366,179 362,181 362,186" fill="rgb(255,44,0)" />
<polygon points=" 349,170 345,172 345,176 345,181 349,183 353,186 357,183 362,181 361,176 362,172 357,170 353,167 349,170" fill="rgb(255,44,0)" />
<polygon points=" 357,150 353,147 349,150 345,152 345,157 345,162 349,164 353,167 357,164 362,162 361,157 362,152 357,150" fill="rgb(255,44,0)" />
<polygon points=" 417,379 421,382 425,379 430,377 429,372 430,367 425,365 421,362 417,365 413,367 413,372 413,377 417,379" fill="rgb(255,44,0)" />
<polygon points=" 429,352 430,348 425,346 421,343 417,346 413,348 413,352 413,357 417,359 421,362 425,359 430,357 429,352" fill="rgb(255,44,0)" />
<polygon points=" 442,369 446,367 446,362 446,357 442,355 438,352 434,355 430,357 430,362 430,367 434,369 438,372 442,369" fill="rgb(255,44,0)" />
<polygon points=" 434,389 438,392 442,389 446,387 446,382 446,377 442,375 438,372 434,375 430,377 430,382 430,387 434,389" fill="rgb(255,44,0)" />
<polygon points=" 413,392 413,396 417,398 421,401 425,398 430,396 429,392 430,387 425,385 421,382 417,385 413,387 413,392" fill="rgb(255,44,0)" />
<polygon points=" 400,375 396,377 396,382 396,387 400,389 404,392 408,389 413,387 412,382 413,377 408,375 404,372 400,375" fill="rgb(255,44,0)" />
<polygon points=" 408,355 404,352 400,355 396,357 396,362 396,367 400,369 404,372 408,369 413,367 412,362 413,357 408,355" fill="rgb(255,44,0)" />
<polygon points=" 429,313 430,308 425,307 421,304 417,307 413,308 413,313 413,318 417,320 421,323 425,320 430,318 429,313" fill="rgb(255,44,0)" />
<polygon points=" 429,294 430,289 425,287 421,284 417,287 413,289 413,294 413,299 417,301 421,304 425,301 430,299 429,294" fill="rgb(255,44,0)" />
<polygon points=" 442,310 446,308 446,304 446,299 442,297 438,294 434,297 430,299 430,304 430,308 434,310 438,313 442,310" fill="rgb(255,44,0)" />
<polygon points=" 434,330 438,333 442,330 446,328 446,323 446,318 442,316 438,313 434,316 430,318 430,323 430,328 434,330" fill="rgb(255,44,0)" />
<polygon points=" 413,333 413,338 417,340 421,343 425,340 430,338 429,333 430,328 425,326 421,323 417,326 413,328 413,333" fill="rgb(255,44,0)" />
<polygon points=" 400,316 396,318 396,323 396,328 400,330 404,333 408,330 413,328 412,323 413,318 408,316 404,313 400,316" fill="rgb(255,44,0)" />
<polygon points=" 408,297 404,294 400,297 396,299 396,304 396,308 400,310 404,313 408,310 413,308 412,304 413,299 408,297" fill="rgb(255,44,0)" />
<polygon points=" 476,349 480,348 480,343 480,338 476,336 472,333 468,336 463,338 464,343 463,348 468,349 472,352 476,349" fill="rgb(255,44,0)" />
<polygon points=" 480,323 480,318 476,316 472,313 468,316 463,318 464,323 463,328 468,330 472,333 476,330 480,328 480,323" fill="rgb(255,44,0)" />
<polygon points=" 493,340 497,338 497,333 497,328 493,326 489,323 485,326 480,328 481,333 480,338 485,340 489,343 493,340" fill="rgb(255,44,0)" />
<polygon points=" 485,359 489,362 493,359 497,357 497,352 497,348 493,346 489,343 485,346 480,348 481,352 480,357 485,359" fill="rgb(255,44,0)" />
<polygon points=" 464,362 463,367 468,369 472,372 476,369 480,367 480,362 480,357 476,355 472,352 468,355 463,357 464,362" fill="rgb(255,44,0)" />
<polygon points=" 451,346 446,348 447,352 446,357 451,359 455,362 459,359 463,357 463,352 463,348 459,346 455,343 451,346" fill="rgb(255,44,0)" />
<polygon points=" 459,326 455,323 451,326 446,328 447,333 446,338 451,340 455,343 459,340 463,338 463,333 463,328 459,326" fill="rgb(255,44,0)" />
<polygon points=" 468,408 472,411 476,408 480,406 480,401 480,396 476,395 472,392 468,395 463,396 464,401 463,406 468,408" fill="rgb(255,44,0)" />
<polygon points=" 480,382 480,377 476,375 472,372 468,375 463,377 464,382 463,387 468,389 472,392 476,389 480,387 480,382" fill="rgb(255,44,0)" />
<polygon points=" 493,398 497,396 497,392 497,387 493,385 489,382 485,385 480,387 481,392 480,396 485,398 489,401 493,398" fill="rgb(255,44,0)" />
<polygon points=" 485,418 489,421 493,418 497,416 497,411 497,406 493,404 489,401 485,404 480,406 481,411 480,416 485,418" fill="rgb(255,44,0)" />
<polygon points=" 464,421 463,426 468,428 472,431 476,428 480,426 480,421 480,416 476,414 472,411 468,414 463,416 464,421" fill="rgb(255,44,0)" />
<polygon points=" 451,404 446,406 447,411 446,416 451,418 455,421 459,418 463,416 463,411 463,406 459,404 455,401 451,404" fill="rgb(255,44,0)" />
<polygon points=" 459,385 455,382 451,385 446,387 447,392 446,396 451,398 455,401 459,398 463,396 463,392 463,387 459,385" fill="rgb(255,44,0)" />
<polygon points=" 413,431 413,436 417,437 421,440 425,437 430,436 429,431 430,426 425,424 421,421 417,424 413,426 413,431" fill="rgb(255,44,0)" />
<polygon points=" 429,411 430,406 425,404 421,401 417,404 413,406 413,411 413,416 417,418 421,421 425,418 430,416 429,411" fill="rgb(255,44,0)" />
<polygon points=" 442,428 446,426 446,421 446,416 442,414 438,411 434,414 430,416 430,421 430,426 434,428 438,431 442,428" fill="rgb(255,44,0)" />
<polygon points=" 434,447 438,450 442,447 446,445 446,440 446,436 442,434 438,431 434,434 430,436 430,440 430,445 434,447" fill="rgb(255,44,0)" />
<polygon points=" 413,450 413,455 417,457 421,460 425,457 430,455 429,450 430,445 425,443 421,440 417,443 413,445 413,450" fill="rgb(255,44,0)" />
<polygon points=" 400,434 396,436 396,440 396,445 400,447 404,450 408,447 413,445 412,440 413,436 408,434 404,431 400,434" fill="rgb(255,44,0)" />
<polygon points=" 408,414 404,411 400,414 396,416 396,421 396,426 400,428 404,431 408,428 413,426 412,421 413,416 408,414" fill="rgb(255,44,0)" />
<polygon points=" 366,395 362,396 362,401 362,406 366,408 370,411 374,408 379,406 378,401 379,396 374,395 370,392 366,395" fill="rgb(255,44,0)" />
<polygon points=" 378,382 379,377 374,375 370,372 366,375 362,377 362,382 362,387 366,389 370,392 374,389 379,387 378,382" fill="rgb(255,44,0)" />
<polygon points=" 391,398 396,396 395,392 396,387 391,385 387,382 383,385 379,387 379,392 379,396 383,398 387,401 391,398" fill="rgb(255,44,0)" />
<polygon points=" 383,418 387,421 391,418 396,416 395,411 396,406 391,404 387,401 383,404 379,406 379,411 379,416 383,418" fill="rgb(255,44,0)" />
<polygon points=" 362,421 362,426 366,428 370,431 374,428 379,426 378,421 379,416 374,414 370,411 366,414 362,416 362,421" fill="rgb(255,44,0)" />
<polygon points=" 349,404 345,406 345,411 345,416 349,418 353,421 357,418 362,416 361,411 362,406 357,404 353,401 349,404" fill="rgb(255,44,0)" />
<polygon points=" 357,385 353,382 349,385 345,387 345,392 345,396 349,398 353,401 357,398 362,396 361,392 362,387 357,385" fill="rgb(255,44,0)" />
<polygon points=" 374,336 370,333 366,336 362,338 362,343 362,348 366,349 370,352 374,349 379,348 378,343 379,338 374,336" fill="rgb(255,44,0)" />
<polygon points=" 378,323 379,318 374,316 370,313 366,316 362,318 362,323 362,328 366,330 370,333 374,330 379,328 378,323" fill="rgb(255,44,0)" />
<polygon points=" 391,340 396,338 395,333 396,328 391,326 387,323 383,326 379,328 379,333 379,338 383,340 387,343 391,340" fill="rgb(255,44,0)" />
<polygon points=" 383,359 387,362 391,359 396,357 395,352 396,348 391,346 387,343 383,346 379,348 379,352 379,357 383,359" fill="rgb(255,44,0)" />
<polygon points=" 362,362 362,367 366,369 370,372 374,369 379,367 378,362 379,357 374,355 370,352 366,355 362,357 362,362" fill="rgb(255,44,0)" />
<polygon points=" 349,346 345,348 345,352 345,357 349,359 353,362 357,359 362,357 361,352 362,348 357,346 353,343 349,346" fill="rgb(255,44,0)" />
<polygon points=" 357,326 353,323 349,326 345,328 345,333 345,338 349,340 353,343 357,340 362,338 361,333 362,328 357,326" fill="rgb(255,44,0)" />
<polygon points=" 261,460 260,465 265,467 269,470 273,467 277,465 276,460 277,455 273,453 269,450 265,453 260,455 261,460" fill="rgb(255,44,0)" />
<polygon points=" 276,440 277,436 273,434 269,431 265,434 260,436 261,440 260,445 265,447 269,450 273,447 277,445 276,440" fill="rgb(255,44,0)" />
<polygon points=" 289,457 294,455 293,450 294,445 289,443 286,440 282,443 277,445 278,450 277,455 282,457 286,460 289,457" fill="rgb(255,44,0)" />
<polygon points=" 282,477 286,480 289,477 294,475 293,470 294,465 289,463 286,460 282,463 277,465 278,470 277,475 282,477" fill="rgb(255,44,0)" />
<polygon points=" 261,480 260,484 265,486 269,489 273,486 277,484 276,480 277,475 273,473 269,470 265,473 260,475 261,480" fill="rgb(255,44,0)" />
<polygon points=" 248,463 243,465 244,470 243,475 248,477 252,480 256,477 260,475 260,470 260,465 256,463 252,460 248,463" fill="rgb(255,44,0)" />
<polygon points=" 256,443 252,440 248,443 243,445 244,450 243,455 248,457 252,460 256,457 260,455 260,450 260,445 256,443" fill="rgb(255,44,0)" />
<polygon points=" 276,401 277,396 273,395 269,392 265,395 260,396 261,401 260,406 265,408 269,411 273,408 277,406 276,401" fill="rgb(255,44,0)" />
<polygon points=" 276,382 277,377 273,375 269,372 265,375 260,377 261,382 260,387 265,389 269,392 273,389 277,387 276,382" fill="rgb(255,44,0)" />
<polygon points=" 289,398 294,396 293,392 294,387 289,385 286,382 282,385 277,387 278,392 277,396 282,398 286,401 289,398" fill="rgb(255,44,0)" />
<polygon points=" 282,418 286,421 289,418 294,416 293,411 294,406 289,404 286,401 282,404 277,406 278,411 277,416 282,418" fill="rgb(255,44,0)" />
<polygon points=" 261,421 260,426 265,428 269,431 273,428 277,426 276,421 277,416 273,414 269,411 265,414 260,416 261,421" fill="rgb(255,44,0)" />
<polygon points=" 248,404 243,406 244,411 243,416 248,418 252,421 256,418 260,416 260,411 260,406 256,404 252,401 248,404" fill="rgb(255,44,0)" />
<polygon points=" 256,385 252,382 248,385 243,387 244,392 243,396 248,398 252,401 256,398 260,396 260,392 260,387 256,385" fill="rgb(255,44,0)" />
<polygon points=" 323,437 328,436 327,431 328,426 323,424 319,421 316,424 311,426 312,431 311,436 316,437 319,440 323,437" fill="rgb(255,44,0)" />
<polygon points=" 327,411 328,406 323,404 319,401 316,404 311,406 312,411 311,416 316,418 319,421 323,418 328,416 327,411" fill="rgb(255,44,0)" />
<polygon points=" 340,428 345,426 344,421 345,416 340,414 336,411 332,414 328,416 329,421 328,426 332,428 336,431 340,428" fill="rgb(255,44,0)" />
<polygon points=" 332,447 336,450 340,447 345,445 344,440 345,436 340,434 336,431 332,434 328,436 329,440 328,445 332,447" fill="rgb(255,44,0)" />
<polygon points=" 312,450 311,455 316,457 319,460 323,457 328,455 327,450 328,445 323,443 319,440 316,443 311,445 312,450" fill="rgb(255,44,0)" />
<polygon points=" 299,434 294,436 295,440 294,445 299,447 303,450 306,447 311,445 310,440 311,436 306,434 303,431 299,434" fill="rgb(255,44,0)" />
<polygon points=" 306,414 303,411 299,414 294,416 295,421 294,426 299,428 303,431 306,428 311,426 310,421 311,416 306,414" fill="rgb(255,44,0)" />
<polygon points=" 316,496 319,499 323,496 328,494 327,489 328,484 323,483 319,480 316,483 311,484 312,489 311,494 316,496" fill="rgb(255,44,0)" />
<polygon points=" 327,470 328,465 323,463 319,460 316,463 311,465 312,470 311,475 316,477 319,480 323,477 328,475 327,470" fill="rgb(255,44,0)" />
<polygon points=" 340,486 345,484 344,480 345,475 340,473 336,470 332,473 328,475 329,480 328,484 332,486 336,489 340,486" fill="rgb(255,44,0)" />
<polygon points=" 332,506 336,509 340,506 345,504 344,499 345,494 340,492 336,489 332,492 328,494 329,499 328,504 332,506" fill="rgb(255,44,0)" />
<polygon points=" 312,509 311,514 316,516 319,519 323,516 328,514 327,509 328,504 323,502 319,499 316,502 311,504 312,509" fill="rgb(255,44,0)" />
<polygon points=" 299,492 294,494 295,499 294,504 299,506 303,509 306,506 311,504 310,499 311,494 306,492 303,489 299,492" fill="rgb(255,44,0)" />
<polygon points=" 306,473 303,470 299,473 294,475 295,480 294,484 299,486 303,489 306,486 311,484 310,480 311,475 306,473" fill="rgb(255,44,0)" />
<polygon points=" 261,519 260,524 265,525 269,528 273,525 277,524 276,519 277,514 273,512 269,509 265,512 260,514 261,519" fill="rgb(255,44,0)" />
<polygon points=" 276,499 277,494 273,492 269,489 265,492 260,494 261,499 260,504 265,506 269,509 273,506 277,504 276,499" fill="rgb(255,44,0)" />
<polygon points=" 289,516 294,514 293,509 294,504 289,502 286,499 282,502 277,504 278,509 277,514 282,516 286,519 289,516" fill="rgb(255,44,0)" />
<polygon points=" 282,535 286,538 289,535 294,533 293,528 294,524 289,522 286,519 282,522 277,524 278,528 277,533 282,535" fill="rgb(255,44,0)" />
<polygon points=" 261,538 260,543 265,545 269,548 273,545 277,543 276,538 277,533 273,531 269,528 265,531 260,533 261,538" fill="rgb(255,44,0)" />
<polygon points=" 248,522 243,524 244,528 243,533 248,535 252,538 256,535 260,533 260,528 260,524 256,522 252,519 248,522" fill="rgb(255,44,0)" />
<polygon points=" 256,502 252,499 248,502 243,504 244,509 243,514 248,516 252,519 256,516 260,514 260,509 260,504 256,502" fill="rgb(255,44,0)" />
<polygon points=" 214,483 209,484 210,489 209,494 214,496 218,499 222,496 226,494 226,489 226,484 222,483 218,480 214,483" fill="rgb(255,44,0)" />
<polygon points=" 226,470 226,465 222,463 218,460 214,463 209,465 210,470 209,475 214,477 218,480 222,477 226,475 226,470" fill="rgb(255,44,0)" />
<polygon points=" 239,486 243,484 243,480 243,475 239,473 235,470 231,473 226,475 227,480 226,484 231,486 235,489 239,486" fill="rgb(255,44,0)" />
<polygon points=" 231,506 235,509 239,506 243,504 243,499 243,494 239,492 235,489 231,492 226,494 227,499 226,504 231,506" fill="rgb(255,44,0)" />
<polygon points=" 210,509 209,514 214,516 218,519 222,516 226,514 226,509 226,504 222,502 218,499 214,502 209,504 210,509" fill="rgb(255,44,0)" />
<polygon points=" 197,492 192,494 193,499 192,504 197,506 201,509 205,506 209,504 209,499 209,494 205,492 201,489 197,492" fill="rgb(255,44,0)" />
<polygon points=" 205,473 201,470 197,473 192,475 193,480 192,484 197,486 201,489 205,486 209,484 209,480 209,475 205,473" fill="rgb(255,44,0)" />
<polygon points=" 222,424 218,421 214,424 209,426 210,431 209,436 214,437 218,440 222,437 226,436 226,431 226,426 222,424" fill="rgb(255,44,0)" />
<polygon points=" 226,411 226,406 222,404 218,401 214,404 209,406 210,411 209,416 214,418 218,421 222,418 226,416 226,411" fill="rgb(255,44,0)" />
<polygon points=" 239,428 243,426 243,421 243,416 239,414 235,411 231,414 226,416 227,421 226,426 231,428 235,431 239,428" fill="rgb(255,44,0)" />
<polygon points=" 231,447 235,450 239,447 243,445 243,440 243,436 239,434 235,431 231,434 226,436 227,440 226,445 231,447" fill="rgb(255,44,0)" />
<polygon points=" 210,450 209,455 214,457 218,460 222,457 226,455 226,450 226,445 222,443 218,440 214,443 209,445 210,450" fill="rgb(255,44,0)" />
<polygon points=" 197,434 192,436 193,440 192,445 197,447 201,450 205,447 209,445 209,440 209,436 205,434 201,431 197,434" fill="rgb(255,44,0)" />
<polygon points=" 205,414 201,411 197,414 192,416 193,421 192,426 197,428 201,431 205,428 209,426 209,421 209,416 205,414" fill="rgb(255,44,0)" />
<polygon points=" 112,365 108,367 108,372 108,377 112,379 116,382 120,379 125,377 124,372 125,367 120,365 116,362 112,365" fill="rgb(255,44,0)" />
<polygon points=" 124,352 125,348 120,346 116,343 112,346 108,348 108,352 108,357 112,359 116,362 120,359 125,357 124,352" fill="rgb(255,44,0)" />
<polygon points=" 137,369 142,367 141,362 142,357 137,355 133,352 129,355 125,357 125,362 125,367 129,369 133,372 137,369" fill="rgb(255,44,0)" />
<polygon points=" 129,389 133,392 137,389 142,387 141,382 142,377 137,375 133,372 129,375 125,377 125,382 125,387 129,389" fill="rgb(255,44,0)" />
<polygon points=" 108,392 108,396 112,398 116,401 120,398 125,396 124,392 125,387 120,385 116,382 112,385 108,387 108,392" fill="rgb(255,44,0)" />
<polygon points=" 95,375 91,377 91,382 91,387 95,389 99,392 103,389 108,387 107,382 108,377 103,375 99,372 95,375" fill="rgb(255,44,0)" />
<polygon points=" 103,355 99,352 95,355 91,357 91,362 91,367 95,369 99,372 103,369 108,367 107,362 108,357 103,355" fill="rgb(255,44,0)" />
<polygon points=" 124,313 125,308 120,307 116,304 112,307 108,308 108,313 108,318 112,320 116,323 120,320 125,318 124,313" fill="rgb(255,44,0)" />
<polygon points=" 124,294 125,289 120,287 116,284 112,287 108,289 108,294 108,299 112,301 116,304 120,301 125,299 124,294" fill="rgb(255,44,0)" />
<polygon points=" 137,310 142,308 141,304 142,299 137,297 133,294 129,297 125,299 125,304 125,308 129,310 133,313 137,310" fill="rgb(255,44,0)" />
<polygon points=" 129,330 133,333 137,330 142,328 141,323 142,318 137,316 133,313 129,316 125,318 125,323 125,328 129,330" fill="rgb(255,44,0)" />
<polygon points=" 108,333 108,338 112,340 116,343 120,340 125,338 124,333 125,328 120,326 116,323 112,326 108,328 108,333" fill="rgb(255,44,0)" />
<polygon points=" 95,316 91,318 91,323 91,328 95,330 99,333 103,330 108,328 107,323 108,318 103,316 99,313 95,316" fill="rgb(255,44,0)" />
<polygon points=" 103,297 99,294 95,297 91,299 91,304 91,308 95,310 99,313 103,310 108,308 107,304 108,299 103,297" fill="rgb(255,44,0)" />
<polygon points=" 171,349 175,348 175,343 175,338 171,336 167,333 163,336 159,338 159,343 159,348 163,349 167,352 171,349" fill="rgb(255,44,0)" />
<polygon points=" 175,323 175,318 171,316 167,313 163,316 159,318 159,323 159,328 163,330 167,333 171,330 175,328 175,323" fill="rgb(255,44,0)" />
<polygon points=" 188,340 192,338 192,333 192,328 188,326 184,323 180,326 175,328 176,333 175,338 180,340 184,343 188,340" fill="rgb(255,44,0)" />
<polygon points=" 180,359 184,362 188,359 192,357 192,352 192,348 188,346 184,343 180,346 175,348 176,352 175,357 180,359" fill="rgb(255,44,0)" />
<polygon points=" 159,362 159,367 163,369 167,372 171,369 175,367 175,362 175,357 171,355 167,352 163,355 159,357 159,362" fill="rgb(255,44,0)" />
<polygon points=" 146,346 142,348 142,352 142,357 146,359 150,362 154,359 159,357 158,352 159,348 154,346 150,343 146,346" fill="rgb(255,44,0)" />
<polygon points=" 154,326 150,323 146,326 142,328 142,333 142,338 146,340 150,343 154,340 159,338 158,333 159,328 154,326" fill="rgb(255,44,0)" />
<polygon points=" 163,408 167,411 171,408 175,406 175,401 175,396 171,395 167,392 163,395 159,396 159,401 159,406 163,408" fill="rgb(255,44,0)" />
<polygon points=" 175,382 175,377 171,375 167,372 163,375 159,377 159,382 159,387 163,389 167,392 171,389 175,387 175,382" fill="rgb(255,44,0)" />
<polygon points=" 188,398 192,396 192,392 192,387 188,385 184,382 180,385 175,387 176,392 175,396 180,398 184,401 188,398" fill="rgb(255,44,0)" />
<polygon points=" 180,418 184,421 188,418 192,416 192,411 192,406 188,404 184,401 180,404 175,406 176,411 175,416 180,418" fill="rgb(255,44,0)" />
<polygon points=" 159,421 159,426 163,428 167,431 171,428 175,426 175,421 175,416 171,414 167,411 163,414 159,416 159,421" fill="rgb(255,44,0)" />
<polygon points=" 146,404 142,406 142,411 142,416 146,418 150,421 154,418 159,416 158,411 159,406 154,404 150,401 146,404" fill="rgb(255,44,0)" />
<polygon points=" 154,385 150,382 146,385 142,387 142,392 142,396 146,398 150,401 154,398 159,396 158,392 159,387 154,385" fill="rgb(255,44,0)" />
<polygon points=" 108,431 108,436 112,437 116,440 120,437 125,436 124,431 125,426 120,424 116,421 112,424 108,426 108,431" fill="rgb(255,44,0)" />
<polygon points=" 124,411 125,406 120,404 116,401 112,404 108,406 108,411 108,416 112,418 116,421 120,418 125,416 124,411" fill="rgb(255,44,0)" />
<polygon points=" 137,428 142,426 141,421 142,416 137,414 133,411 129,414 125,416 125,421 125,426 129,428 133,431 137,428" fill="rgb(255,44,0)" />
<polygon points=" 129,447 133,450 137,447 142,445 141,440 142,436 137,434 133,431 129,434 125,436 125,440 125,445 129,447" fill="rgb(255,44,0)" />
<polygon points=" 108,450 108,455 112,457 116,460 120,457 125,455 124,450 125,445 120,443 116,440 112,443 108,445 108,450" fill="rgb(255,44,0)" />
<polygon points=" 95,434 91,436 91,440 91,445 95,447 99,450 103,447 108,445 107,440 108,436 103,434 99,431 95,434" fill="rgb(255,44,0)" />
<polygon points=" 103,414 99,411 95,414 91,416 91,421 91,426 95,428 99,431 103,428 108,426 107,421 108,416 103,414" fill="rgb(255,44,0)" />
<polygon points=" 61,395 57,396 58,401 57,406 61,408 65,411 69,408 74,406 73,401 74,396 69,395 65,392 61,395" fill="rgb(255,44,0)" />
<polygon points=" 73,382 74,377 69,375 65,372 61,375 57,377 58,382 57,387 61,389 65,392 69,389 74,387 73,382" fill="rgb(255,44,0)" />
<polygon points=" 86,398 91,396 90,392 91,387 86,385 82,382 78,385 74,387 75,392 74,396 78,398 82,401 86,398" fill="rgb(255,44,0)" />
<polygon points=" 78,418 82,421 86,418 91,416 90,411 91,406 86,404 82,401 78,404 74,406 75,411 74,416 78,418" fill="rgb(255,44,0)" />
<polygon points=" 58,421 57,426 61,428 65,431 69,428 74,426 73,421 74,416 69,414 65,411 61,414 57,416 58,421" fill="rgb(255,44,0)" />
<polygon points=" 45,404 40,406 41,411 40,416 45,418 48,421 52,418 57,416 56,411 57,406 52,404 48,401 45,404" fill="rgb(255,44,0)" />
<polygon points=" 52,385 48,382 45,385 40,387 41,392 40,396 45,398 48,401 52,398 57,396 56,392 57,387 52,385" fill="rgb(255,44,0)" />
<polygon points=" 69,336 65,333 61,336 57,338 58,343 57,348 61,349 65,352 69,349 74,348 73,343 74,338 69,336" fill="rgb(255,44,0)" />
<polygon points=" 73,323 74,318 69,316 65,313 61,316 57,318 58,323 57,328 61,330 65,333 69,330 74,328 73,323" fill="rgb(255,44,0)" />
<polygon points=" 86,340 91,338 90,333 91,328 86,326 82,323 78,326 74,328 75,333 74,338 78,340 82,343 86,340" fill="rgb(255,44,0)" />
<polygon points=" 78,359 82,362 86,359 91,357 90,352 91,348 86,346 82,343 78,346 74,348 75,352 74,357 78,359" fill="rgb(255,44,0)" />
<polygon points=" 58,362 57,367 61,369 65,372 69,369 74,367 73,362 74,357 69,355 65,352 61,355 57,357 58,362" fill="rgb(255,44,0)" />
<polygon points=" 45,346 40,348 41,352 40,357 45,359 48,362 52,359 57,357 56,352 57,348 52,346 48,343 45,346" fill="rgb(255,44,0)" />
<polygon points=" 52,326 48,323 45,326 40,328 41,333 40,338 45,340 48,343 52,340 57,338 56,333 57,328 52,326" fill="rgb(255,44,0)" />
<polygon points=" 120,189 116,186 112,189 108,191 108,196 108,201 112,203 116,206 120,203 125,201 124,196 125,191 120,189" fill="rgb(255,44,0)" />
<polygon points=" 124,176 125,172 120,170 116,167 112,170 108,172 108,176 108,181 112,183 116,186 120,183 125,181 124,176" fill="rgb(255,44,0)" />
<polygon points=" 137,193 142,191 141,186 142,181 137,179 133,176 129,179 125,181 125,186 125,191 129,193 133,196 137,193" fill="rgb(255,44,0)" />
<polygon points=" 129,213 133,216 137,213 142,211 141,206 142,201 137,199 133,196 129,199 125,201 125,206 125,211 129,213" fill="rgb(255,44,0)" />
<polygon points=" 108,216 108,220 112,222 116,225 120,222 125,220 124,216 125,211 120,209 116,206 112,209 108,211 108,216" fill="rgb(255,44,0)" />
<polygon points=" 95,199 91,201 91,206 91,211 95,213 99,216 103,213 108,211 107,206 108,201 103,199 99,196 95,199" fill="rgb(255,44,0)" />
<polygon points=" 103,179 99,176 95,179 91,181 91,186 91,191 95,193 99,196 103,193 108,191 107,186 108,181 103,179" fill="rgb(255,44,0)" />
<polygon points=" 124,137 125,132 120,131 116,128 112,131 108,132 108,137 108,142 112,144 116,147 120,144 125,142 124,137" fill="rgb(255,44,0)" />
<polygon points=" 124,118 125,113 120,111 116,108 112,111 108,113 108,118 108,123 112,125 116,128 120,125 125,123 124,118" fill="rgb(255,44,0)" />
<polygon points=" 137,134 142,132 141,128 142,123 137,121 133,118 129,121 125,123 125,128 125,132 129,134 133,137 137,134" fill="rgb(255,44,0)" />
<polygon points=" 129,154 133,157 137,154 142,152 141,147 142,142 137,140 133,137 129,140 125,142 125,147 125,152 129,154" fill="rgb(255,44,0)" />
<polygon points=" 108,157 108,162 112,164 116,167 120,164 125,162 124,157 125,152 120,150 116,147 112,150 108,152 108,157" fill="rgb(255,44,0)" />
<polygon points=" 95,140 91,142 91,147 91,152 95,154 99,157 103,154 108,152 107,147 108,142 103,140 99,137 95,140" fill="rgb(255,44,0)" />
<polygon points=" 103,121 99,118 95,121 91,123 91,128 91,132 95,134 99,137 103,134 108,132 107,128 108,123 103,121" fill="rgb(255,44,0)" />
<polygon points=" 171,173 175,172 175,167 175,162 171,160 167,157 163,160 159,162 159,167 159,172 163,173 167,176 171,173" fill="rgb(255,44,0)" />
<polygon points=" 175,147 175,142 171,140 167,137 163,140 159,142 159,147 159,152 163,154 167,157 171,154 175,152 175,147" fill="rgb(255,44,0)" />
<polygon points=" 188,164 192,162 192,157 192,152 188,150 184,147 180,150 175,152 176,157 175,162 180,164 184,167 188,164" fill="rgb(255,44,0)" />
<polygon points=" 180,183 184,186 188,183 192,181 192,176 192,172 188,170 184,167 180,170 175,172 176,176 175,181 180,183" fill="rgb(255,44,0)" />
<polygon points=" 159,186 159,191 163,193 167,196 171,193 175,191 175,186 175,181 171,179 167,176 163,179 159,181 159,186" fill="rgb(255,44,0)" />
<polygon points=" 146,170 142,172 142,176 142,181 146,183 150,186 154,183 159,181 158,176 159,172 154,170 150,167 146,170" fill="rgb(255,44,0)" />
<polygon points=" 154,150 150,147 146,150 142,152 142,157 142,162 146,164 150,167 154,164 159,162 158,157 159,152 154,150" fill="rgb(255,44,0)" />
<polygon points=" 163,232 167,235 171,232 175,230 175,225 175,220 171,219 167,216 163,219 159,220 159,225 159,230 163,232" fill="rgb(255,44,0)" />
<polygon points=" 175,206 175,201 171,199 167,196 163,199 159,201 159,206 159,211 163,213 167,216 171,213 175,211 175,206" fill="rgb(255,44,0)" />
<polygon points=" 188,222 192,220 192,216 192,211 188,209 184,206 180,209 175,211 176,216 175,220 180,222 184,225 188,222" fill="rgb(255,44,0)" />
<polygon points=" 180,242 184,245 188,242 192,240 192,235 192,230 188,228 184,225 180,228 175,230 176,235 175,240 180,242" fill="rgb(255,44,0)" />
<polygon points=" 159,245 159,250 163,252 167,255 171,252 175,250 175,245 175,240 171,238 167,235 163,238 159,240 159,245" fill="rgb(255,44,0)" />
<polygon points=" 146,228 142,230 142,235 142,240 146,242 150,245 154,242 159,240 158,235 159,230 154,228 150,225 146,228" fill="rgb(255,44,0)" />
<polygon points=" 154,209 150,206 146,209 142,211 142,216 142,220 146,222 150,225 154,222 159,220 158,216 159,211 154,209" fill="rgb(255,44,0)" />
<polygon points=" 108,255 108,260 112,261 116,264 120,261 125,260 124,255 125,250 120,248 116,245 112,248 108,250 108,255" fill="rgb(255,44,0)" />
<polygon points=" 124,235 125,230 120,228 116,225 112,228 108,230 108,235 108,240 112,242 116,245 120,242 125,240 124,235" fill="rgb(255,44,0)" />
<polygon points=" 137,252 142,250 141,245 142,240 137,238 133,235 129,238 125,240 125,245 125,250 129,252 133,255 137,252" fill="rgb(255,44,0)" />
<polygon points=" 129,271 133,274 137,271 142,269 141,264 142,260 137,258 133,255 129,258 125,260 125,264 125,269 129,271" fill="rgb(255,44,0)" />
<polygon points=" 108,274 108,279 112,281 116,284 120,281 125,279 124,274 125,269 120,267 116,264 112,267 108,269 108,274" fill="rgb(255,44,0)" />
<polygon points=" 95,258 91,260 91,264 91,269 95,271 99,274 103,271 108,269 107,264 108,260 103,258 99,255 95,258" fill="rgb(255,44,0)" />
<polygon points=" 103,238 99,235 95,238 91,240 91,245 91,250 95,252 99,255 103,252 108,250 107,245 108,240 103,238" fill="rgb(255,44,0)" />
<polygon points=" 61,219 57,220 58,225 57,230 61,232 65,235 69,232 74,230 73,225 74,220 69,219 65,216 61,219" fill="rgb(255,44,0)" />
<polygon points=" 73,206 74,201 69,199 65,196 61,199 57,201 58,206 57,211 61,213 65,216 69,213 74,211 73,206" fill="rgb(255,44,0)" />
<polygon points=" 86,222 91,220 90,216 91,211 86,209 82,206 78,209 74,211 75,216 74,220 78,222 82,225 86,222" fill="rgb(255,44,0)" />
<polygon points=" 78,242 82,245 86,242 91,240 90,235 91,230 86,228 82,225 78,228 74,230 75,235 74,240 78,242" fill="rgb(255,44,0)" />
<polygon points=" 58,245 57,250 61,252 65,255 69,252 74,250 73,245 74,240 69,238 65,235 61,238 57,240 58,245" fill="rgb(255,44,0)" />
<polygon points=" 45,228 40,230 41,235 40,240 45,242 48,245 52,242 57,240 56,235 57,230 52,228 48,225 45,228" fill="rgb(255,44,0)" />
<polygon points=" 52,209 48,206 45,209 40,211 41,216 40,220 45,222 48,225 52,222 57,220 56,216 57,211 52,209" fill="rgb(255,44,0)" />
<polygon points=" 69,160 65,157 61,160 57,162 58,167 57,172 61,173 65,176 69,173 74,172 73,167 74,162 69,160" fill="rgb(255,44,0)" />
<polygon points=" 73,147 74,142 69,140 65,137 61,140 57,142 58,147 57,152 61,154 65,157 69,154 74,152 73,147" fill="rgb(255,44,0)" />
<polygon points=" 86,164 91,162 90,157 91,152 86,150 82,147 78,150 74,152 75,157 74,162 78,164 82,167 86,164" fill="rgb(255,44,0)" />
<polygon points=" 78,183 82,186 86,183 91,181 90,176 91,172 86,170 82,167 78,170 74,172 75,176 74,181 78,183" fill="rgb(255,44,0)" />
<polygon points=" 58,186 57,191 61,193 65,196 69,193 74,191 73,186 74,181 69,179 65,176 61,179 57,181 58,186" fill="rgb(255,44,0)" />
<polygon points=" 45,170 40,172 41,176 40,181 45,183 48,186 52,183 57,181 56,176 57,172 52,170 48,167 45,170" fill="rgb(255,44,0)" />
<polygon points=" 52,150 48,147 45,150 40,152 41,157 40,162 45,164 48,167 52,164 57,162 56,157 57,152 52,150" fill="rgb(255,44,0)" /></svg>