<svg xmlns="http://www.w3.org/2000/svg" 
xmlns:xlink="http://www.w3.org/1999/xlink" 
version="1.1" baseProfile="full" 
width="537" height="568" >
<polygon points=" 453,284 497,152 361,124 269,20 176,124 40,152 84,284 40,416 176,444 269,548 361,444 497,416 453,284" fill="rgb(0,0,255)" />
<polygon points=" 330,284 345,240 299,231 269,196 238,231 192,240 207,284 192,328 238,337 269,372 299,337 345,328 330,284" fill="rgb(0,255,128)" />
<polygon points=" 330,108 345,64 299,55 269,20 238,55 192,64 207,108 192,152 238,161 269,196 299,161 345,152 330,108" fill="rgb(0,255,128)" />
<polygon points=" 452,249 497,240 483,196 497,152 452,143 421,108 390,143 345,152 359,196 345,240 390,249 421,284 452,249" fill="rgb(0,255,128)" />
<polygon points=" 390,425 421,460 452,425 497,416 483,372 497,328 452,319 421,284 390,319 345,328 359,372 345,416 390,425" fill="rgb(0,255,128)" />
<polygon points=" 207,460 192,504 238,513 269,548 299,513 345,504 330,460 345,416 299,407 269,372 238,407 192,416 207,460" fill="rgb(0,255,128)" />
<polygon points=" 85,319 40,328 55,372 40,416 85,425 116,460 147,425 192,416 178,372 192,328 147,319 116,284 85,319" fill="rgb(0,255,128)" />
<polygon points=" 147,143 116,108 85,143 40,152 55,196 40,240 85,249 116,284 147,249 192,240 178,196 192,152 147,143" fill="rgb(0,255,128)" />
<polygon points=" 289,284 294,269 279,266 269,255 258,266 243,269 248,284 243,299 258,302 269,313 279,302 294,299 289,284" fill="rgb(254,255,0)" />
<polygon points=" 289,225 294,211 279,208 269,196 258,208 243,211 248,225 243,240 258,243 269,255 279,243 294,240 289,225" fill="rgb(254,255,0)" />
<polygon points=" 330,272 345,269 340,255 345,240 330,237 319,225 309,237 294,240 299,255 294,269 309,272 319,284 330,272" fill="rgb(254,255,0)" />
<polygon points=" 309,331 319,343 330,331 345,328 340,313 345,299 330,296 319,284 309,296 294,299 299,313 294,328 309,331" fill="rgb(254,255,0)" />
<polygon points=" 248,343 243,357 258,360 269,372 279,360 294,357 289,343 294,328 279,325 269,313 258,325 243,328 248,343" fill="rgb(254,255,0)" />
<polygon points=" 208,296 192,299 197,313 192,328 208,331 218,343 228,331 243,328 238,313 243,299 228,296 218,284 208,296" fill="rgb(254,255,0)" />
<polygon points=" 228,237 218,225 208,237 192,240 197,255 192,269 208,272 218,284 228,272 243,269 238,255 243,240 228,237" fill="rgb(254,255,0)" />
<polygon points=" 289,108 294,93 279,90 269,79 258,90 243,93 248,108 243,123 258,126 269,137 279,126 294,123 289,108" fill="rgb(254,255,0)" />
<polygon points=" 289,49 294,35 279,32 269,20 258,32 243,35 248,49 243,64 258,67 269,79 279,67 294,64 289,49" fill="rgb(254,255,0)" />
<polygon points=" 330,96 345,93 340,79 345,64 330,61 319,49 309,61 294,64 299,79 294,93 309,96 319,108 330,96" fill="rgb(254,255,0)" />
<polygon points=" 309,155 319,167 330,155 345,152 340,137 345,123 330,120 319,108 309,120 294,123 299,137 294,152 309,155" fill="rgb(254,255,0)" />
<polygon points=" 248,167 243,181 258,184 269,196 279,184 294,181 289,167 294,152 279,149 269,137 258,149 243,152 248,167" fill="rgb(254,255,0)" />
<polygon points=" 208,120 192,123 197,137 192,152 208,155 218,167 228,155 243,152 238,137 243,123 228,120 218,108 208,120" fill="rgb(254,255,0)" />
<polygon points=" 228,61 218,49 208,61 192,64 197,79 192,93 208,96 218,108 228,96 243,93 238,79 243,64 228,61" fill="rgb(254,255,0)" />
<polygon points=" 431,214 446,211 442,196 446,181 431,178 421,167 411,178 396,181 401,196 396,211 411,214 421,225 431,214" fill="rgb(254,255,0)" />
<polygon points=" 442,137 446,123 431,120 421,108 411,120 396,123 401,137 396,152 411,155 421,167 431,155 446,152 442,137" fill="rgb(254,255,0)" />
<polygon points=" 482,184 497,181 492,167 497,152 482,149 472,137 462,149 446,152 451,167 446,181 462,184 472,196 482,184" fill="rgb(254,255,0)" />
<polygon points=" 462,243 472,255 482,243 497,240 492,225 497,211 482,208 472,196 462,208 446,211 451,225 446,240 462,243" fill="rgb(254,255,0)" />
<polygon points=" 401,255 396,269 411,272 421,284 431,272 446,269 442,255 446,240 431,237 421,225 411,237 396,240 401,255" fill="rgb(254,255,0)" />
<polygon points=" 360,208 345,211 350,225 345,240 360,243 370,255 381,243 396,240 391,225 396,211 381,208 370,196 360,208" fill="rgb(254,255,0)" />
<polygon points=" 381,149 370,137 360,149 345,152 350,167 345,181 360,184 370,196 381,184 396,181 391,167 396,152 381,149" fill="rgb(254,255,0)" />
<polygon points=" 411,390 421,401 431,390 446,387 442,372 446,357 431,354 421,343 411,354 396,357 401,372 396,387 411,390" fill="rgb(254,255,0)" />
<polygon points=" 442,313 446,299 431,296 421,284 411,296 396,299 401,313 396,328 411,331 421,343 431,331 446,328 442,313" fill="rgb(254,255,0)" />
<polygon points=" 482,360 497,357 492,343 497,328 482,325 472,313 462,325 446,328 451,343 446,357 462,360 472,372 482,360" fill="rgb(254,255,0)" />
<polygon points=" 462,419 472,431 482,419 497,416 492,401 497,387 482,384 472,372 462,384 446,387 451,401 446,416 462,419" fill="rgb(254,255,0)" />
<polygon points=" 401,431 396,445 411,448 421,460 431,448 446,445 442,431 446,416 431,413 421,401 411,413 396,416 401,431" fill="rgb(254,255,0)" />
<polygon points=" 360,384 345,387 350,401 345,416 360,419 370,431 381,419 396,416 391,401 396,387 381,384 370,372 360,384" fill="rgb(254,255,0)" />
<polygon points=" 381,325 370,313 360,325 345,328 350,343 345,357 360,360 370,372 381,360 396,357 391,343 396,328 381,325" fill="rgb(254,255,0)" />
<polygon points=" 248,460 243,475 258,478 269,489 279,478 294,475 289,460 294,445 279,442 269,431 258,442 243,445 248,460" fill="rgb(254,255,0)" />
<polygon points=" 289,401 294,387 279,384 269,372 258,384 243,387 248,401 243,416 258,419 269,431 279,419 294,416 289,401" fill="rgb(254,255,0)" />
<polygon points=" 330,448 345,445 340,431 345,416 330,413 319,401 309,413 294,416 299,431 294,445 309,448 319,460 330,448" fill="rgb(254,255,0)" />
<polygon points=" 309,507 319,519 330,507 345,504 340,489 345,475 330,472 319,460 309,472 294,475 299,489 294,504 309,507" fill="rgb(254,255,0)" />
<polygon points=" 248,519 243,533 258,536 269,548 279,536 294,533 289,519 294,504 279,501 269,489 258,501 243,504 248,519" fill="rgb(254,255,0)" />
<polygon points=" 208,472 192,475 197,489 192,504 208,507 218,519 228,507 243,504 238,489 243,475 228,472 218,460 208,472" fill="rgb(254,255,0)" />
<polygon points=" 228,413 218,401 208,413 192,416 197,431 192,445 208,448 218,460 228,448 243,445 238,431 243,416 228,413" fill="rgb(254,255,0)" />
<polygon points=" 106,354 91,357 96,372 91,387 106,390 116,401 126,390 142,387 137,372 142,357 126,354 116,343 106,354" fill="rgb(254,255,0)" />
<polygon points=" 137,313 142,299 126,296 116,284 106,296 91,299 96,313 91,328 106,331 116,343 126,331 142,328 137,313" fill="rgb(254,255,0)" />
<polygon points=" 177,360 192,357 188,343 192,328 177,325 167,313 157,325 142,328 146,343 142,357 157,360 167,372 177,360" fill="rgb(254,255,0)" />
<polygon points=" 157,419 167,431 177,419 192,416 188,401 192,387 177,384 167,372 157,384 142,387 146,401 142,416 157,419" fill="rgb(254,255,0)" />
<polygon points=" 96,431 91,445 106,448 116,460 126,448 142,445 137,431 142,416 126,413 116,401 106,413 91,416 96,431" fill="rgb(254,255,0)" />
<polygon points=" 55,384 40,387 45,401 40,416 55,419 65,431 76,419 91,416 86,401 91,387 76,384 65,372 55,384" fill="rgb(254,255,0)" />
<polygon points=" 76,325 65,313 55,325 40,328 45,343 40,357 55,360 65,372 76,360 91,357 86,343 91,328 76,325" fill="rgb(254,255,0)" />
<polygon points=" 126,178 116,167 106,178 91,181 96,196 91,211 106,214 116,225 126,214 142,211 137,196 142,181 126,178" fill="rgb(254,255,0)" />
<polygon points=" 137,137 142,123 126,120 116,108 106,120 91,123 96,137 91,152 106,155 116,167 126,155 142,152 137,137" fill="rgb(254,255,0)" />
<polygon points=" 177,184 192,181 188,167 192,152 177,149 167,137 157,149 142,152 146,167 142,181 157,184 167,196 177,184" fill="rgb(254,255,0)" />
<polygon points=" 157,243 167,255 177,243 192,240 188,225 192,211 177,208 167,196 157,208 142,211 146,225 142,240 157,243" fill="rgb(254,255,0)" />
<polygon points=" 96,255 91,269 106,272 116,284 126,272 142,269 137,255 142,240 126,237 116,225 106,237 91,240 96,255" fill="rgb(254,255,0)" />
<polygon points=" 55,208 40,211 45,225 40,240 55,243 65,255 76,243 91,240 86,225 91,211 76,208 65,196 55,208" fill="rgb(254,255,0)" />
<polygon points=" 76,149 65,137 55,149 40,152 45,167 40,181 55,184 65,196 76,184 91,181 86,167 91,152 76,149" fill="rgb(254,255,0)" />
<polygon points=" 275,284 277,279 272,278 269,274 265,278 260,279 262,284 260,289 265,290 269,294 272,290 277,289 275,284" fill="rgb(255,0,126)" />
<polygon points=" 275,264 277,260 272,259 269,255 265,259 260,260 262,264 260,269 265,270 269,274 272,270 277,269 275,264" fill="rgb(255,0,126)" />
<polygon points=" 289,280 294,279 292,274 294,269 289,268 286,264 282,268 277,269 279,274 277,279 282,280 286,284 289,280" fill="rgb(255,0,126)" />
<polygon points=" 282,300 286,304 289,300 294,299 292,294 294,289 289,288 286,284 282,288 277,289 279,294 277,299 282,300" fill="rgb(255,0,126)" />
<polygon points=" 262,304 260,308 265,309 269,313 272,309 277,308 275,304 277,299 272,298 269,294 265,298 260,299 262,304" fill="rgb(255,0,126)" />
<polygon points=" 248,288 243,289 245,294 243,299 248,300 252,304 255,300 260,299 259,294 260,289 255,288 252,284 248,288" fill="rgb(255,0,126)" />
<polygon points=" 255,268 252,264 248,268 243,269 245,274 243,279 248,280 252,284 255,280 260,279 259,274 260,269 255,268" fill="rgb(255,0,126)" />
<polygon points=" 275,225 277,220 272,219 269,216 265,219 260,220 262,225 260,230 265,231 269,235 272,231 277,230 275,225" fill="rgb(255,0,126)" />
<polygon points=" 275,206 277,201 272,200 269,196 265,200 260,201 262,206 260,211 265,212 269,216 272,212 277,211 275,206" fill="rgb(255,0,126)" />
<polygon points=" 289,221 294,220 292,216 294,211 289,210 286,206 282,210 277,211 279,216 277,220 282,221 286,225 289,221" fill="rgb(255,0,126)" />
<polygon points=" 282,241 286,245 289,241 294,240 292,235 294,230 289,229 286,225 282,229 277,230 279,235 277,240 282,241" fill="rgb(255,0,126)" />
<polygon points=" 262,245 260,250 265,251 269,255 272,251 277,250 275,245 277,240 272,239 269,235 265,239 260,240 262,245" fill="rgb(255,0,126)" />
<polygon points=" 248,229 243,230 245,235 243,240 248,241 252,245 255,241 260,240 259,235 260,230 255,229 252,225 248,229" fill="rgb(255,0,126)" />
<polygon points=" 255,210 252,206 248,210 243,211 245,216 243,220 248,221 252,225 255,221 260,220 259,216 260,211 255,210" fill="rgb(255,0,126)" />
<polygon points=" 323,261 328,260 326,255 328,250 323,249 319,245 316,249 311,250 313,255 311,260 316,261 319,264 323,261" fill="rgb(255,0,126)" />
<polygon points=" 326,235 328,230 323,229 319,225 316,229 311,230 313,235 311,240 316,241 319,245 323,241 328,240 326,235" fill="rgb(255,0,126)" />
<polygon points=" 340,251 345,250 343,245 345,240 340,239 336,235 333,239 328,240 330,245 328,250 333,251 336,255 340,251" fill="rgb(255,0,126)" />
<polygon points=" 333,270 336,274 340,270 345,269 343,264 345,260 340,259 336,255 333,259 328,260 330,264 328,269 333,270" fill="rgb(255,0,126)" />
<polygon points=" 313,274 311,279 316,280 319,284 323,280 328,279 326,274 328,269 323,268 319,264 316,268 311,269 313,274" fill="rgb(255,0,126)" />
<polygon points=" 299,259 294,260 296,264 294,269 299,270 303,274 306,270 311,269 309,264 311,260 306,259 303,255 299,259" fill="rgb(255,0,126)" />
<polygon points=" 306,239 303,235 299,239 294,240 296,245 294,250 299,251 303,255 306,251 311,250 309,245 311,240 306,239" fill="rgb(255,0,126)" />
<polygon points=" 316,319 319,323 323,319 328,318 326,313 328,308 323,307 319,304 316,307 311,308 313,313 311,318 316,319" fill="rgb(255,0,126)" />
<polygon points=" 326,294 328,289 323,288 319,284 316,288 311,289 313,294 311,299 316,300 319,304 323,300 328,299 326,294" fill="rgb(255,0,126)" />
<polygon points=" 340,309 345,308 343,304 345,299 340,298 336,294 333,298 328,299 330,304 328,308 333,309 336,313 340,309" fill="rgb(255,0,126)" />
<polygon points=" 333,329 336,333 340,329 345,328 343,323 345,318 340,317 336,313 333,317 328,318 330,323 328,328 333,329" fill="rgb(255,0,126)" />
<polygon points=" 313,333 311,338 316,339 319,343 323,339 328,338 326,333 328,328 323,327 319,323 316,327 311,328 313,333" fill="rgb(255,0,126)" />
<polygon points=" 299,317 294,318 296,323 294,328 299,329 303,333 306,329 311,328 309,323 311,318 306,317 303,313 299,317" fill="rgb(255,0,126)" />
<polygon points=" 306,298 303,294 299,298 294,299 296,304 294,308 299,309 303,313 306,309 311,308 309,304 311,299 306,298" fill="rgb(255,0,126)" />
<polygon points=" 262,343 260,348 265,349 269,352 272,349 277,348 275,343 277,338 272,337 269,333 265,337 260,338 262,343" fill="rgb(255,0,126)" />
<polygon points=" 275,323 277,318 272,317 269,313 265,317 260,318 262,323 260,328 265,329 269,333 272,329 277,328 275,323" fill="rgb(255,0,126)" />
<polygon points=" 289,339 294,338 292,333 294,328 289,327 286,323 282,327 277,328 279,333 277,338 282,339 286,343 289,339" fill="rgb(255,0,126)" />
<polygon points=" 282,358 286,362 289,358 294,357 292,352 294,348 289,347 286,343 282,347 277,348 279,352 277,357 282,358" fill="rgb(255,0,126)" />
<polygon points=" 262,362 260,367 265,368 269,372 272,368 277,367 275,362 277,357 272,356 269,352 265,356 260,357 262,362" fill="rgb(255,0,126)" />
<polygon points=" 248,347 243,348 245,352 243,357 248,358 252,362 255,358 260,357 259,352 260,348 255,347 252,343 248,347" fill="rgb(255,0,126)" />
<polygon points=" 255,327 252,323 248,327 243,328 245,333 243,338 248,339 252,343 255,339 260,338 259,333 260,328 255,327" fill="rgb(255,0,126)" />
<polygon points=" 214,307 209,308 211,313 209,318 214,319 218,323 221,319 226,318 225,313 226,308 221,307 218,304 214,307" fill="rgb(255,0,126)" />
<polygon points=" 225,294 226,289 221,288 218,284 214,288 209,289 211,294 209,299 214,300 218,304 221,300 226,299 225,294" fill="rgb(255,0,126)" />
<polygon points=" 238,309 243,308 242,304 243,299 238,298 235,294 231,298 226,299 228,304 226,308 231,309 235,313 238,309" fill="rgb(255,0,126)" />
<polygon points=" 231,329 235,333 238,329 243,328 242,323 243,318 238,317 235,313 231,317 226,318 228,323 226,328 231,329" fill="rgb(255,0,126)" />
<polygon points=" 211,333 209,338 214,339 218,343 221,339 226,338 225,333 226,328 221,327 218,323 214,327 209,328 211,333" fill="rgb(255,0,126)" />
<polygon points=" 197,317 192,318 194,323 192,328 197,329 201,333 204,329 209,328 208,323 209,318 204,317 201,313 197,317" fill="rgb(255,0,126)" />
<polygon points=" 204,298 201,294 197,298 192,299 194,304 192,308 197,309 201,313 204,309 209,308 208,304 209,299 204,298" fill="rgb(255,0,126)" />
<polygon points=" 221,249 218,245 214,249 209,250 211,255 209,260 214,261 218,264 221,261 226,260 225,255 226,250 221,249" fill="rgb(255,0,126)" />
<polygon points=" 225,235 226,230 221,229 218,225 214,229 209,230 211,235 209,240 214,241 218,245 221,241 226,240 225,235" fill="rgb(255,0,126)" />
<polygon points=" 238,251 243,250 242,245 243,240 238,239 235,235 231,239 226,240 228,245 226,250 231,251 235,255 238,251" fill="rgb(255,0,126)" />
<polygon points=" 231,270 235,274 238,270 243,269 242,264 243,260 238,259 235,255 231,259 226,260 228,264 226,269 231,270" fill="rgb(255,0,126)" />
<polygon points=" 211,274 209,279 214,280 218,284 221,280 226,279 225,274 226,269 221,268 218,264 214,268 209,269 211,274" fill="rgb(255,0,126)" />
<polygon points=" 197,259 192,260 194,264 192,269 197,270 201,274 204,270 209,269 208,264 209,260 204,259 201,255 197,259" fill="rgb(255,0,126)" />
<polygon points=" 204,239 201,235 197,239 192,240 194,245 192,250 197,251 201,255 204,251 209,250 208,245 209,240 204,239" fill="rgb(255,0,126)" />
<polygon points=" 275,108 277,103 272,102 269,98 265,102 260,103 262,108 260,113 265,114 269,118 272,114 277,113 275,108" fill="rgb(255,0,126)" />
<polygon points=" 275,88 277,84 272,83 269,79 265,83 260,84 262,88 260,93 265,94 269,98 272,94 277,93 275,88" fill="rgb(255,0,126)" />
<polygon points=" 289,104 294,103 292,98 294,93 289,92 286,88 282,92 277,93 279,98 277,103 282,104 286,108 289,104" fill="rgb(255,0,126)" />
<polygon points=" 282,124 286,128 289,124 294,123 292,118 294,113 289,112 286,108 282,112 277,113 279,118 277,123 282,124" fill="rgb(255,0,126)" />
<polygon points=" 262,128 260,132 265,133 269,137 272,133 277,132 275,128 277,123 272,122 269,118 265,122 260,123 262,128" fill="rgb(255,0,126)" />
<polygon points=" 248,112 243,113 245,118 243,123 248,124 252,128 255,124 260,123 259,118 260,113 255,112 252,108 248,112" fill="rgb(255,0,126)" />
<polygon points=" 255,92 252,88 248,92 243,93 245,98 243,103 248,104 252,108 255,104 260,103 259,98 260,93 255,92" fill="rgb(255,0,126)" />
<polygon points=" 275,49 277,44 272,43 269,40 265,43 260,44 262,49 260,54 265,55 269,59 272,55 277,54 275,49" fill="rgb(255,0,126)" />
<polygon points=" 275,30 277,25 272,24 269,20 265,24 260,25 262,30 260,35 265,36 269,40 272,36 277,35 275,30" fill="rgb(255,0,126)" />
<polygon points=" 289,45 294,44 292,40 294,35 289,34 286,30 282,34 277,35 279,40 277,44 282,45 286,49 289,45" fill="rgb(255,0,126)" />
<polygon points=" 282,65 286,69 289,65 294,64 292,59 294,54 289,53 286,49 282,53 277,54 279,59 277,64 282,65" fill="rgb(255,0,126)" />
<polygon points=" 262,69 260,74 265,75 269,79 272,75 277,74 275,69 277,64 272,63 269,59 265,63 260,64 262,69" fill="rgb(255,0,126)" />
<polygon points=" 248,53 243,54 245,59 243,64 248,65 252,69 255,65 260,64 259,59 260,54 255,53 252,49 248,53" fill="rgb(255,0,126)" />
<polygon points=" 255,34 252,30 248,34 243,35 245,40 243,44 248,45 252,49 255,45 260,44 259,40 260,35 255,34" fill="rgb(255,0,126)" />
<polygon points=" 323,85 328,84 326,79 328,74 323,73 319,69 316,73 311,74 313,79 311,84 316,85 319,88 323,85" fill="rgb(255,0,126)" />
<polygon points=" 326,59 328,54 323,53 319,49 316,53 311,54 313,59 311,64 316,65 319,69 323,65 328,64 326,59" fill="rgb(255,0,126)" />
<polygon points=" 340,75 345,74 343,69 345,64 340,63 336,59 333,63 328,64 330,69 328,74 333,75 336,79 340,75" fill="rgb(255,0,126)" />
<polygon points=" 333,94 336,98 340,94 345,93 343,88 345,84 340,83 336,79 333,83 328,84 330,88 328,93 333,94" fill="rgb(255,0,126)" />
<polygon points=" 313,98 311,103 316,104 319,108 323,104 328,103 326,98 328,93 323,92 319,88 316,92 311,93 313,98" fill="rgb(255,0,126)" />
<polygon points=" 299,83 294,84 296,88 294,93 299,94 303,98 306,94 311,93 309,88 311,84 306,83 303,79 299,83" fill="rgb(255,0,126)" />
<polygon points=" 306,63 303,59 299,63 294,64 296,69 294,74 299,75 303,79 306,75 311,74 309,69 311,64 306,63" fill="rgb(255,0,126)" />
<polygon points=" 316,143 319,147 323,143 328,142 326,137 328,132 323,131 319,128 316,131 311,132 313,137 311,142 316,143" fill="rgb(255,0,126)" />
<polygon points=" 326,118 328,113 323,112 319,108 316,112 311,113 313,118 311,123 316,124 319,128 323,124 328,123 326,118" fill="rgb(255,0,126)" />
<polygon points=" 340,133 345,132 343,128 345,123 340,122 336,118 333,122 328,123 330,128 328,132 333,133 336,137 340,133" fill="rgb(255,0,126)" />
<polygon points=" 333,153 336,157 340,153 345,152 343,147 345,142 340,141 336,137 333,141 328,142 330,147 328,152 333,153" fill="rgb(255,0,126)" />
<polygon points=" 313,157 311,162 316,163 319,167 323,163 328,162 326,157 328,152 323,151 319,147 316,151 311,152 313,157" fill="rgb(255,0,126)" />
<polygon points=" 299,141 294,142 296,147 294,152 299,153 303,157 306,153 311,152 309,147 311,142 306,141 303,137 299,141" fill="rgb(255,0,126)" />
<polygon points=" 306,122 303,118 299,122 294,123 296,128 294,132 299,133 303,137 306,133 311,132 309,128 311,123 306,122" fill="rgb(255,0,126)" />
<polygon points=" 262,167 260,172 265,173 269,176 272,173 277,172 275,167 277,162 272,161 269,157 265,161 260,162 262,167" fill="rgb(255,0,126)" />
<polygon points=" 275,147 277,142 272,141 269,137 265,141 260,142 262,147 260,152 265,153 269,157 272,153 277,152 275,147" fill="rgb(255,0,126)" />
<polygon points=" 289,163 294,162 292,157 294,152 289,151 286,147 282,151 277,152 279,157 277,162 282,163 286,167 289,163" fill="rgb(255,0,126)" />
<polygon points=" 282,182 286,186 289,182 294,181 292,176 294,172 289,171 286,167 282,171 277,172 279,176 277,181 282,182" fill="rgb(255,0,126)" />
<polygon points=" 262,186 260,191 265,192 269,196 272,192 277,191 275,186 277,181 272,180 269,176 265,180 260,181 262,186" fill="rgb(255,0,126)" />
<polygon points=" 248,171 243,172 245,176 243,181 248,182 252,186 255,182 260,181 259,176 260,172 255,171 252,167 248,171" fill="rgb(255,0,126)" />
<polygon points=" 255,151 252,147 248,151 243,152 245,157 243,162 248,163 252,167 255,163 260,162 259,157 260,152 255,151" fill="rgb(255,0,126)" />
<polygon points=" 214,131 209,132 211,137 209,142 214,143 218,147 221,143 226,142 225,137 226,132 221,131 218,128 214,131" fill="rgb(255,0,126)" />
<polygon points=" 225,118 226,113 221,112 218,108 214,112 209,113 211,118 209,123 214,124 218,128 221,124 226,123 225,118" fill="rgb(255,0,126)" />
<polygon points=" 238,133 243,132 242,128 243,123 238,122 235,118 231,122 226,123 228,128 226,132 231,133 235,137 238,133" fill="rgb(255,0,126)" />
<polygon points=" 231,153 235,157 238,153 243,152 242,147 243,142 238,141 235,137 231,141 226,142 228,147 226,152 231,153" fill="rgb(255,0,126)" />
<polygon points=" 211,157 209,162 214,163 218,167 221,163 226,162 225,157 226,152 221,151 218,147 214,151 209,152 211,157" fill="rgb(255,0,126)" />
<polygon points=" 197,141 192,142 194,147 192,152 197,153 201,157 204,153 209,152 208,147 209,142 204,141 201,137 197,141" fill="rgb(255,0,126)" />
<polygon points=" 204,122 201,118 197,122 192,123 194,128 192,132 197,133 201,137 204,133 209,132 208,128 209,123 204,122" fill="rgb(255,0,126)" />
<polygon points=" 221,73 218,69 214,73 209,74 211,79 209,84 214,85 218,88 221,85 226,84 225,79 226,74 221,73" fill="rgb(255,0,126)" />
<polygon points=" 225,59 226,54 221,53 218,49 214,53 209,54 211,59 209,64 214,65 218,69 221,65 226,64 225,59" fill="rgb(255,0,126)" />
<polygon points=" 238,75 243,74 242,69 243,64 238,63 235,59 231,63 226,64 228,69 226,74 231,75 235,79 238,75" fill="rgb(255,0,126)" />
<polygon points=" 231,94 235,98 238,94 243,93 242,88 243,84 238,83 235,79 231,83 226,84 228,88 226,93 231,94" fill="rgb(255,0,126)" />
<polygon points=" 211,98 209,103 214,104 218,108 221,104 226,103 225,98 226,93 221,92 218,88 214,92 209,93 211,98" fill="rgb(255,0,126)" />
<polygon points=" 197,83 192,84 194,88 192,93 197,94 201,98 204,94 209,93 208,88 209,84 204,83 201,79 197,83" fill="rgb(255,0,126)" />
<polygon points=" 204,63 201,59 197,63 192,64 194,69 192,74 197,75 201,79 204,75 209,74 208,69 209,64 204,63" fill="rgb(255,0,126)" />
<polygon points=" 424,202 430,201 428,196 430,191 424,190 421,186 418,190 413,191 414,196 413,201 418,202 421,206 424,202" fill="rgb(255,0,126)" />
<polygon points=" 428,176 430,172 424,171 421,167 418,171 413,172 414,176 413,181 418,182 421,186 424,182 430,181 428,176" fill="rgb(255,0,126)" />
<polygon points=" 441,192 446,191 445,186 446,181 441,180 438,176 435,180 430,181 431,186 430,191 435,192 438,196 441,192" fill="rgb(255,0,126)" />
<polygon points=" 435,212 438,216 441,212 446,211 445,206 446,201 441,200 438,196 435,200 430,201 431,206 430,211 435,212" fill="rgb(255,0,126)" />
<polygon points=" 414,216 413,220 418,221 421,225 424,221 430,220 428,216 430,211 424,210 421,206 418,210 413,211 414,216" fill="rgb(255,0,126)" />
<polygon points=" 401,200 396,201 397,206 396,211 401,212 404,216 408,212 413,211 411,206 413,201 408,200 404,196 401,200" fill="rgb(255,0,126)" />
<polygon points=" 408,180 404,176 401,180 396,181 397,186 396,191 401,192 404,196 408,192 413,191 411,186 413,181 408,180" fill="rgb(255,0,126)" />
<polygon points=" 428,137 430,132 424,131 421,128 418,131 413,132 414,137 413,142 418,143 421,147 424,143 430,142 428,137" fill="rgb(255,0,126)" />
<polygon points=" 428,118 430,113 424,112 421,108 418,112 413,113 414,118 413,123 418,124 421,128 424,124 430,123 428,118" fill="rgb(255,0,126)" />
<polygon points=" 441,133 446,132 445,128 446,123 441,122 438,118 435,122 430,123 431,128 430,132 435,133 438,137 441,133" fill="rgb(255,0,126)" />
<polygon points=" 435,153 438,157 441,153 446,152 445,147 446,142 441,141 438,137 435,141 430,142 431,147 430,152 435,153" fill="rgb(255,0,126)" />
<polygon points=" 414,157 413,162 418,163 421,167 424,163 430,162 428,157 430,152 424,151 421,147 418,151 413,152 414,157" fill="rgb(255,0,126)" />
<polygon points=" 401,141 396,142 397,147 396,152 401,153 404,157 408,153 413,152 411,147 413,142 408,141 404,137 401,141" fill="rgb(255,0,126)" />
<polygon points=" 408,122 404,118 401,122 396,123 397,128 396,132 401,133 404,137 408,133 413,132 411,128 413,123 408,122" fill="rgb(255,0,126)" />
<polygon points=" 475,173 480,172 479,167 480,162 475,161 472,157 468,161 463,162 465,167 463,172 468,173 472,176 475,173" fill="rgb(255,0,126)" />
<polygon points=" 479,147 480,142 475,141 472,137 468,141 463,142 465,147 463,152 468,153 472,157 475,153 480,152 479,147" fill="rgb(255,0,126)" />
<polygon points=" 492,163 497,162 496,157 497,152 492,151 489,147 485,151 480,152 482,157 480,162 485,163 489,167 492,163" fill="rgb(255,0,126)" />
<polygon points=" 485,182 489,186 492,182 497,181 496,176 497,172 492,171 489,167 485,171 480,172 482,176 480,181 485,182" fill="rgb(255,0,126)" />
<polygon points=" 465,186 463,191 468,192 472,196 475,192 480,191 479,186 480,181 475,180 472,176 468,180 463,181 465,186" fill="rgb(255,0,126)" />
<polygon points=" 452,171 446,172 448,176 446,181 452,182 455,186 458,182 463,181 462,176 463,172 458,171 455,167 452,171" fill="rgb(255,0,126)" />
<polygon points=" 458,151 455,147 452,151 446,152 448,157 446,162 452,163 455,167 458,163 463,162 462,157 463,152 458,151" fill="rgb(255,0,126)" />
<polygon points=" 468,231 472,235 475,231 480,230 479,225 480,220 475,219 472,216 468,219 463,220 465,225 463,230 468,231" fill="rgb(255,0,126)" />
<polygon points=" 479,206 480,201 475,200 472,196 468,200 463,201 465,206 463,211 468,212 472,216 475,212 480,211 479,206" fill="rgb(255,0,126)" />
<polygon points=" 492,221 497,220 496,216 497,211 492,210 489,206 485,210 480,211 482,216 480,220 485,221 489,225 492,221" fill="rgb(255,0,126)" />
<polygon points=" 485,241 489,245 492,241 497,240 496,235 497,230 492,229 489,225 485,229 480,230 482,235 480,240 485,241" fill="rgb(255,0,126)" />
<polygon points=" 465,245 463,250 468,251 472,255 475,251 480,250 479,245 480,240 475,239 472,235 468,239 463,240 465,245" fill="rgb(255,0,126)" />
<polygon points=" 452,229 446,230 448,235 446,240 452,241 455,245 458,241 463,240 462,235 463,230 458,229 455,225 452,229" fill="rgb(255,0,126)" />
<polygon points=" 458,210 455,206 452,210 446,211 448,216 446,220 452,221 455,225 458,221 463,220 462,216 463,211 458,210" fill="rgb(255,0,126)" />
<polygon points=" 414,255 413,260 418,261 421,264 424,261 430,260 428,255 430,250 424,249 421,245 418,249 413,250 414,255" fill="rgb(255,0,126)" />
<polygon points=" 428,235 430,230 424,229 421,225 418,229 413,230 414,235 413,240 418,241 421,245 424,241 430,240 428,235" fill="rgb(255,0,126)" />
<polygon points=" 441,251 446,250 445,245 446,240 441,239 438,235 435,239 430,240 431,245 430,250 435,251 438,255 441,251" fill="rgb(255,0,126)" />
<polygon points=" 435,270 438,274 441,270 446,269 445,264 446,260 441,259 438,255 435,259 430,260 431,264 430,269 435,270" fill="rgb(255,0,126)" />
<polygon points=" 414,274 413,279 418,280 421,284 424,280 430,279 428,274 430,269 424,268 421,264 418,268 413,269 414,274" fill="rgb(255,0,126)" />
<polygon points=" 401,259 396,260 397,264 396,269 401,270 404,274 408,270 413,269 411,264 413,260 408,259 404,255 401,259" fill="rgb(255,0,126)" />
<polygon points=" 408,239 404,235 401,239 396,240 397,245 396,250 401,251 404,255 408,251 413,250 411,245 413,240 408,239" fill="rgb(255,0,126)" />
<polygon points=" 367,219 362,220 363,225 362,230 367,231 370,235 374,231 379,230 377,225 379,220 374,219 370,216 367,219" fill="rgb(255,0,126)" />
<polygon points=" 377,206 379,201 374,200 370,196 367,200 362,201 363,206 362,211 367,212 370,216 374,212 379,211 377,206" fill="rgb(255,0,126)" />
<polygon points=" 391,221 396,220 394,216 396,211 391,210 387,206 384,210 379,211 380,216 379,220 384,221 387,225 391,221" fill="rgb(255,0,126)" />
<polygon points=" 384,241 387,245 391,241 396,240 394,235 396,230 391,229 387,225 384,229 379,230 380,235 379,240 384,241" fill="rgb(255,0,126)" />
<polygon points=" 363,245 362,250 367,251 370,255 374,251 379,250 377,245 379,240 374,239 370,235 367,239 362,240 363,245" fill="rgb(255,0,126)" />
<polygon points=" 350,229 345,230 346,235 345,240 350,241 353,245 357,241 362,240 360,235 362,230 357,229 353,225 350,229" fill="rgb(255,0,126)" />
<polygon points=" 357,210 353,206 350,210 345,211 346,216 345,220 350,221 353,225 357,221 362,220 360,216 362,211 357,210" fill="rgb(255,0,126)" />
<polygon points=" 374,161 370,157 367,161 362,162 363,167 362,172 367,173 370,176 374,173 379,172 377,167 379,162 374,161" fill="rgb(255,0,126)" />
<polygon points=" 377,147 379,142 374,141 370,137 367,141 362,142 363,147 362,152 367,153 370,157 374,153 379,152 377,147" fill="rgb(255,0,126)" />
<polygon points=" 391,163 396,162 394,157 396,152 391,151 387,147 384,151 379,152 380,157 379,162 384,163 387,167 391,163" fill="rgb(255,0,126)" />
<polygon points=" 384,182 387,186 391,182 396,181 394,176 396,172 391,171 387,167 384,171 379,172 380,176 379,181 384,182" fill="rgb(255,0,126)" />
<polygon points=" 363,186 362,191 367,192 370,196 374,192 379,191 377,186 379,181 374,180 370,176 367,180 362,181 363,186" fill="rgb(255,0,126)" />
<polygon points=" 350,171 345,172 346,176 345,181 350,182 353,186 357,182 362,181 360,176 362,172 357,171 353,167 350,171" fill="rgb(255,0,126)" />
<polygon points=" 357,151 353,147 350,151 345,152 346,157 345,162 350,163 353,167 357,163 362,162 360,157 362,152 357,151" fill="rgb(255,0,126)" />
<polygon points=" 418,378 421,382 424,378 430,377 428,372 430,367 424,366 421,362 418,366 413,367 414,372 413,377 418,378" fill="rgb(255,0,126)" />
<polygon points=" 428,352 430,348 424,347 421,343 418,347 413,348 414,352 413,357 418,358 421,362 424,358 430,357 428,352" fill="rgb(255,0,126)" />
<polygon points=" 441,368 446,367 445,362 446,357 441,356 438,352 435,356 430,357 431,362 430,367 435,368 438,372 441,368" fill="rgb(255,0,126)" />
<polygon points=" 435,388 438,392 441,388 446,387 445,382 446,377 441,376 438,372 435,376 430,377 431,382 430,387 435,388" fill="rgb(255,0,126)" />
<polygon points=" 414,392 413,396 418,397 421,401 424,397 430,396 428,392 430,387 424,386 421,382 418,386 413,387 414,392" fill="rgb(255,0,126)" />
<polygon points=" 401,376 396,377 397,382 396,387 401,388 404,392 408,388 413,387 411,382 413,377 408,376 404,372 401,376" fill="rgb(255,0,126)" />
<polygon points=" 408,356 404,352 401,356 396,357 397,362 396,367 401,368 404,372 408,368 413,367 411,362 413,357 408,356" fill="rgb(255,0,126)" />
<polygon points=" 428,313 430,308 424,307 421,304 418,307 413,308 414,313 413,318 418,319 421,323 424,319 430,318 428,313" fill="rgb(255,0,126)" />
<polygon points=" 428,294 430,289 424,288 421,284 418,288 413,289 414,294 413,299 418,300 421,304 424,300 430,299 428,294" fill="rgb(255,0,126)" />
<polygon points=" 441,309 446,308 445,304 446,299 441,298 438,294 435,298 430,299 431,304 430,308 435,309 438,313 441,309" fill="rgb(255,0,126)" />
<polygon points=" 435,329 438,333 441,329 446,328 445,323 446,318 441,317 438,313 435,317 430,318 431,323 430,328 435,329" fill="rgb(255,0,126)" />
<polygon points=" 414,333 413,338 418,339 421,343 424,339 430,338 428,333 430,328 424,327 421,323 418,327 413,328 414,333" fill="rgb(255,0,126)" />
<polygon points=" 401,317 396,318 397,323 396,328 401,329 404,333 408,329 413,328 411,323 413,318 408,317 404,313 401,317" fill="rgb(255,0,126)" />
<polygon points=" 408,298 404,294 401,298 396,299 397,304 396,308 401,309 404,313 408,309 413,308 411,304 413,299 408,298" fill="rgb(255,0,126)" />
<polygon points=" 475,349 480,348 479,343 480,338 475,337 472,333 468,337 463,338 465,343 463,348 468,349 472,352 475,349" fill="rgb(255,0,126)" />
<polygon points=" 479,323 480,318 475,317 472,313 468,317 463,318 465,323 463,328 468,329 472,333 475,329 480,328 479,323" fill="rgb(255,0,126)" />
<polygon points=" 492,339 497,338 496,333 497,328 492,327 489,323 485,327 480,328 482,333 480,338 485,339 489,343 492,339" fill="rgb(255,0,126)" />
<polygon points=" 485,358 489,362 492,358 497,357 496,352 497,348 492,347 489,343 485,347 480,348 482,352 480,357 485,358" fill="rgb(255,0,126)" />
<polygon points=" 465,362 463,367 468,368 472,372 475,368 480,367 479,362 480,357 475,356 472,352 468,356 463,357 465,362" fill="rgb(255,0,126)" />
<polygon points=" 452,347 446,348 448,352 446,357 452,358 455,362 458,358 463,357 462,352 463,348 458,347 455,343 452,347" fill="rgb(255,0,126)" />
<polygon points=" 458,327 455,323 452,327 446,328 448,333 446,338 452,339 455,343 458,339 463,338 462,333 463,328 458,327" fill="rgb(255,0,126)" />
<polygon points=" 468,407 472,411 475,407 480,406 479,401 480,396 475,395 472,392 468,395 463,396 465,401 463,406 468,407" fill="rgb(255,0,126)" />
<polygon points=" 479,382 480,377 475,376 472,372 468,376 463,377 465,382 463,387 468,388 472,392 475,388 480,387 479,382" fill="rgb(255,0,126)" />
<polygon points=" 492,397 497,396 496,392 497,387 492,386 489,382 485,386 480,387 482,392 480,396 485,397 489,401 492,397" fill="rgb(255,0,126)" />
<polygon points=" 485,417 489,421 492,417 497,416 496,411 497,406 492,405 489,401 485,405 480,406 482,411 480,416 485,417" fill="rgb(255,0,126)" />
<polygon points=" 465,421 463,426 468,427 472,431 475,427 480,426 479,421 480,416 475,415 472,411 468,415 463,416 465,421" fill="rgb(255,0,126)" />
<polygon points=" 452,405 446,406 448,411 446,416 452,417 455,421 458,417 463,416 462,411 463,406 458,405 455,401 452,405" fill="rgb(255,0,126)" />
<polygon points=" 458,386 455,382 452,386 446,387 448,392 446,396 452,397 455,401 458,397 463,396 462,392 463,387 458,386" fill="rgb(255,0,126)" />
<polygon points=" 414,431 413,436 418,437 421,440 424,437 430,436 428,431 430,426 424,425 421,421 418,425 413,426 414,431" fill="rgb(255,0,126)" />
<polygon points=" 428,411 430,406 424,405 421,401 418,405 413,406 414,411 413,416 418,417 421,421 424,417 430,416 428,411" fill="rgb(255,0,126)" />
<polygon points=" 441,427 446,426 445,421 446,416 441,415 438,411 435,415 430,416 431,421 430,426 435,427 438,431 441,427" fill="rgb(255,0,126)" />
<polygon points=" 435,446 438,450 441,446 446,445 445,440 446,436 441,435 438,431 435,435 430,436 431,440 430,445 435,446" fill="rgb(255,0,126)" />
<polygon points=" 414,450 413,455 418,456 421,460 424,456 430,455 428,450 430,445 424,444 421,440 418,444 413,445 414,450" fill="rgb(255,0,126)" />
<polygon points=" 401,435 396,436 397,440 396,445 401,446 404,450 408,446 413,445 411,440 413,436 408,435 404,431 401,435" fill="rgb(255,0,126)" />
<polygon points=" 408,415 404,411 401,415 396,416 397,421 396,426 401,427 404,431 408,427 413,426 411,421 413,416 408,415" fill="rgb(255,0,126)" />
<polygon points=" 367,395 362,396 363,401 362,406 367,407 370,411 374,407 379,406 377,401 379,396 374,395 370,392 367,395" fill="rgb(255,0,126)" />
<polygon points=" 377,382 379,377 374,376 370,372 367,376 362,377 363,382 362,387 367,388 370,392 374,388 379,387 377,382" fill="rgb(255,0,126)" />
<polygon points=" 391,397 396,396 394,392 396,387 391,386 387,382 384,386 379,387 380,392 379,396 384,397 387,401 391,397" fill="rgb(255,0,126)" />
<polygon points=" 384,417 387,421 391,417 396,416 394,411 396,406 391,405 387,401 384,405 379,406 380,411 379,416 384,417" fill="rgb(255,0,126)" />
<polygon points=" 363,421 362,426 367,427 370,431 374,427 379,426 377,421 379,416 374,415 370,411 367,415 362,416 363,421" fill="rgb(255,0,126)" />
<polygon points=" 350,405 345,406 346,411 345,416 350,417 353,421 357,417 362,416 360,411 362,406 357,405 353,401 350,405" fill="rgb(255,0,126)" />
<polygon points=" 357,386 353,382 350,386 345,387 346,392 345,396 350,397 353,401 357,397 362,396 360,392 362,387 357,386" fill="rgb(255,0,126)" />
<polygon points=" 374,337 370,333 367,337 362,338 363,343 362,348 367,349 370,352 374,349 379,348 377,343 379,338 374,337" fill="rgb(255,0,126)" />
<polygon points=" 377,323 379,318 374,317 370,313 367,317 362,318 363,323 362,328 367,329 370,333 374,329 379,328 377,323" fill="rgb(255,0,126)" />
<polygon points=" 391,339 396,338 394,333 396,328 391,327 387,323 384,327 379,328 380,333 379,338 384,339 387,343 391,339" fill="rgb(255,0,126)" />
<polygon points=" 384,358 387,362 391,358 396,357 394,352 396,348 391,347 387,343 384,347 379,348 380,352 379,357 384,358" fill="rgb(255,0,126)" />
<polygon points=" 363,362 362,367 367,368 370,372 374,368 379,367 377,362 379,357 374,356 370,352 367,356 362,357 363,362" fill="rgb(255,0,126)" />
<polygon points=" 350,347 345,348 346,352 345,357 350,358 353,362 357,358 362,357 360,352 362,348 357,347 353,343 350,347" fill="rgb(255,0,126)" />
<polygon points=" 357,327 353,323 350,327 345,328 346,333 345,338 350,339 353,343 357,339 362,338 360,333 362,328 357,327" fill="rgb(255,0,126)" />
<polygon points=" 262,460 260,465 265,466 269,470 272,466 277,465 275,460 277,455 272,454 269,450 265,454 260,455 262,460" fill="rgb(255,0,126)" />
<polygon points=" 275,440 277,436 272,435 269,431 265,435 260,436 262,440 260,445 265,446 269,450 272,446 277,445 275,440" fill="rgb(255,0,126)" />
<polygon points=" 289,456 294,455 292,450 294,445 289,444 286,440 282,444 277,445 279,450 277,455 282,456 286,460 289,456" fill="rgb(255,0,126)" />
<polygon points=" 282,476 286,480 289,476 294,475 292,470 294,465 289,464 286,460 282,464 277,465 279,470 277,475 282,476" fill="rgb(255,0,126)" />
<polygon points=" 262,480 260,484 265,485 269,489 272,485 277,484 275,480 277,475 272,474 269,470 265,474 260,475 262,480" fill="rgb(255,0,126)" />
<polygon points=" 248,464 243,465 245,470 243,475 248,476 252,480 255,476 260,475 259,470 260,465 255,464 252,460 248,464" fill="rgb(255,0,126)" />
<polygon points=" 255,444 252,440 248,444 243,445 245,450 243,455 248,456 252,460 255,456 260,455 259,450 260,445 255,444" fill="rgb(255,0,126)" />
<polygon points=" 275,401 277,396 272,395 269,392 265,395 260,396 262,401 260,406 265,407 269,411 272,407 277,406 275,401" fill="rgb(255,0,126)" />
<polygon points=" 275,382 277,377 272,376 269,372 265,376 260,377 262,382 260,387 265,388 269,392 272,388 277,387 275,382" fill="rgb(255,0,126)" />
<polygon points=" 289,397 294,396 292,392 294,387 289,386 286,382 282,386 277,387 279,392 277,396 282,397 286,401 289,397" fill="rgb(255,0,126)" />
<polygon points=" 282,417 286,421 289,417 294,416 292,411 294,406 289,405 286,401 282,405 277,406 279,411 277,416 282,417" fill="rgb(255,0,126)" />
<polygon points=" 262,421 260,426 265,427 269,431 272,427 277,426 275,421 277,416 272,415 269,411 265,415 260,416 262,421" fill="rgb(255,0,126)" />
<polygon points=" 248,405 243,406 245,411 243,416 248,417 252,421 255,417 260,416 259,411 260,406 255,405 252,401 248,405" fill="rgb(255,0,126)" />
<polygon points=" 255,386 252,382 248,386 243,387 245,392 243,396 248,397 252,401 255,397 260,396 259,392 260,387 255,386" fill="rgb(255,0,126)" />
<polygon points=" 323,437 328,436 326,431 328,426 323,425 319,421 316,425 311,426 313,431 311,436 316,437 319,440 323,437" fill="rgb(255,0,126)" />
<polygon points=" 326,411 328,406 323,405 319,401 316,405 311,406 313,411 311,416 316,417 319,421 323,417 328,416 326,411" fill="rgb(255,0,126)" />
<polygon points=" 340,427 345,426 343,421 345,416 340,415 336,411 333,415 328,416 330,421 328,426 333,427 336,431 340,427" fill="rgb(255,0,126)" />
<polygon points=" 333,446 336,450 340,446 345,445 343,440 345,436 340,435 336,431 333,435 328,436 330,440 328,445 333,446" fill="rgb(255,0,126)" />
<polygon points=" 313,450 311,455 316,456 319,460 323,456 328,455 326,450 328,445 323,444 319,440 316,444 311,445 313,450" fill="rgb(255,0,126)" />
<polygon points=" 299,435 294,436 296,440 294,445 299,446 303,450 306,446 311,445 309,440 311,436 306,435 303,431 299,435" fill="rgb(255,0,126)" />
<polygon points=" 306,415 303,411 299,415 294,416 296,421 294,426 299,427 303,431 306,427 311,426 309,421 311,416 306,415" fill="rgb(255,0,126)" />
<polygon points=" 316,495 319,499 323,495 328,494 326,489 328,484 323,483 319,480 316,483 311,484 313,489 311,494 316,495" fill="rgb(255,0,126)" />
<polygon points=" 326,470 328,465 323,464 319,460 316,464 311,465 313,470 311,475 316,476 319,480 323,476 328,475 326,470" fill="rgb(255,0,126)" />
<polygon points=" 340,485 345,484 343,480 345,475 340,474 336,470 333,474 328,475 330,480 328,484 333,485 336,489 340,485" fill="rgb(255,0,126)" />
<polygon points=" 333,505 336,509 340,505 345,504 343,499 345,494 340,493 336,489 333,493 328,494 330,499 328,504 333,505" fill="rgb(255,0,126)" />
<polygon points=" 313,509 311,514 316,515 319,519 323,515 328,514 326,509 328,504 323,503 319,499 316,503 311,504 313,509" fill="rgb(255,0,126)" />
<polygon points=" 299,493 294,494 296,499 294,504 299,505 303,509 306,505 311,504 309,499 311,494 306,493 303,489 299,493" fill="rgb(255,0,126)" />
<polygon points=" 306,474 303,470 299,474 294,475 296,480 294,484 299,485 303,489 306,485 311,484 309,480 311,475 306,474" fill="rgb(255,0,126)" />
<polygon points=" 262,519 260,524 265,525 269,528 272,525 277,524 275,519 277,514 272,513 269,509 265,513 260,514 262,519" fill="rgb(255,0,126)" />
<polygon points=" 275,499 277,494 272,493 269,489 265,493 260,494 262,499 260,504 265,505 269,509 272,505 277,504 275,499" fill="rgb(255,0,126)" />
<polygon points=" 289,515 294,514 292,509 294,504 289,503 286,499 282,503 277,504 279,509 277,514 282,515 286,519 289,515" fill="rgb(255,0,126)" />
<polygon points=" 282,534 286,538 289,534 294,533 292,528 294,524 289,523 286,519 282,523 277,524 279,528 277,533 282,534" fill="rgb(255,0,126)" />
<polygon points=" 262,538 260,543 265,544 269,548 272,544 277,543 275,538 277,533 272,532 269,528 265,532 260,533 262,538" fill="rgb(255,0,126)" />
<polygon points=" 248,523 243,524 245,528 243,533 248,534 252,538 255,534 260,533 259,528 260,524 255,523 252,519 248,523" fill="rgb(255,0,126)" />
<polygon points=" 255,503 252,499 248,503 243,504 245,509 243,514 248,515 252,519 255,515 260,514 259,509 260,504 255,503" fill="rgb(255,0,126)" />
<polygon points=" 214,483 209,484 211,489 209,494 214,495 218,499 221,495 226,494 225,489 226,484 221,483 218,480 214,483" fill="rgb(255,0,126)" />
<polygon points=" 225,470 226,465 221,464 218,460 214,464 209,465 211,470 209,475 214,476 218,480 221,476 226,475 225,470" fill="rgb(255,0,126)" />
<polygon points=" 238,485 243,484 242,480 243,475 238,474 235,470 231,474 226,475 228,480 226,484 231,485 235,489 238,485" fill="rgb(255,0,126)" />
<polygon points=" 231,505 235,509 238,505 243,504 242,499 243,494 238,493 235,489 231,493 226,494 228,499 226,504 231,505" fill="rgb(255,0,126)" />
<polygon points=" 211,509 209,514 214,515 218,519 221,515 226,514 225,509 226,504 221,503 218,499 214,503 209,504 211,509" fill="rgb(255,0,126)" />
<polygon points=" 197,493 192,494 194,499 192,504 197,505 201,509 204,505 209,504 208,499 209,494 204,493 201,489 197,493" fill="rgb(255,0,126)" />
<polygon points=" 204,474 201,470 197,474 192,475 194,480 192,484 197,485 201,489 204,485 209,484 208,480 209,475 204,474" fill="rgb(255,0,126)" />
<polygon points=" 221,425 218,421 214,425 209,426 211,431 209,436 214,437 218,440 221,437 226,436 225,431 226,426 221,425" fill="rgb(255,0,126)" />
<polygon points=" 225,411 226,406 221,405 218,401 214,405 209,406 211,411 209,416 214,417 218,421 221,417 226,416 225,411" fill="rgb(255,0,126)" />
<polygon points=" 238,427 243,426 242,421 243,416 238,415 235,411 231,415 226,416 228,421 226,426 231,427 235,431 238,427" fill="rgb(255,0,126)" />
<polygon points=" 231,446 235,450 238,446 243,445 242,440 243,436 238,435 235,431 231,435 226,436 228,440 226,445 231,446" fill="rgb(255,0,126)" />
<polygon points=" 211,450 209,455 214,456 218,460 221,456 226,455 225,450 226,445 221,444 218,440 214,444 209,445 211,450" fill="rgb(255,0,126)" />
<polygon points=" 197,435 192,436 194,440 192,445 197,446 201,450 204,446 209,445 208,440 209,436 204,435 201,431 197,435" fill="rgb(255,0,126)" />
<polygon points=" 204,415 201,411 197,415 192,416 194,421 192,426 197,427 201,431 204,427 209,426 208,421 209,416 204,415" fill="rgb(255,0,126)" />
<polygon points=" 113,366 108,367 109,372 108,377 113,378 116,382 120,378 125,377 123,372 125,367 120,366 116,362 113,366" fill="rgb(255,0,126)" />
<polygon points=" 123,352 125,348 120,347 116,343 113,347 108,348 109,352 108,357 113,358 116,362 120,358 125,357 123,352" fill="rgb(255,0,126)" />
<polygon points=" 137,368 142,367 140,362 142,357 137,356 133,352 130,356 125,357 126,362 125,367 130,368 133,372 137,368" fill="rgb(255,0,126)" />
<polygon points=" 130,388 133,392 137,388 142,387 140,382 142,377 137,376 133,372 130,376 125,377 126,382 125,387 130,388" fill="rgb(255,0,126)" />
<polygon points=" 109,392 108,396 113,397 116,401 120,397 125,396 123,392 125,387 120,386 116,382 113,386 108,387 109,392" fill="rgb(255,0,126)" />
<polygon points=" 96,376 91,377 92,382 91,387 96,388 99,392 103,388 108,387 106,382 108,377 103,376 99,372 96,376" fill="rgb(255,0,126)" />
<polygon points=" 103,356 99,352 96,356 91,357 92,362 91,367 96,368 99,372 103,368 108,367 106,362 108,357 103,356" fill="rgb(255,0,126)" />
<polygon points=" 123,313 125,308 120,307 116,304 113,307 108,308 109,313 108,318 113,319 116,323 120,319 125,318 123,313" fill="rgb(255,0,126)" />
<polygon points=" 123,294 125,289 120,288 116,284 113,288 108,289 109,294 108,299 113,300 116,304 120,300 125,299 123,294" fill="rgb(255,0,126)" />
<polygon points=" 137,309 142,308 140,304 142,299 137,298 133,294 130,298 125,299 126,304 125,308 130,309 133,313 137,309" fill="rgb(255,0,126)" />
<polygon points=" 130,329 133,333 137,329 142,328 140,323 142,318 137,317 133,313 130,317 125,318 126,323 125,328 130,329" fill="rgb(255,0,126)" />
<polygon points=" 109,333 108,338 113,339 116,343 120,339 125,338 123,333 125,328 120,327 116,323 113,327 108,328 109,333" fill="rgb(255,0,126)" />
<polygon points=" 96,317 91,318 92,323 91,328 96,329 99,333 103,329 108,328 106,323 108,318 103,317 99,313 96,317" fill="rgb(255,0,126)" />
<polygon points=" 103,298 99,294 96,298 91,299 92,304 91,308 96,309 99,313 103,309 108,308 106,304 108,299 103,298" fill="rgb(255,0,126)" />
<polygon points=" 170,349 175,348 174,343 175,338 170,337 167,333 164,337 159,338 160,343 159,348 164,349 167,352 170,349" fill="rgb(255,0,126)" />
<polygon points=" 174,323 175,318 170,317 167,313 164,317 159,318 160,323 159,328 164,329 167,333 170,329 175,328 174,323" fill="rgb(255,0,126)" />
<polygon points=" 187,339 192,338 191,333 192,328 187,327 184,323 181,327 175,328 177,333 175,338 181,339 184,343 187,339" fill="rgb(255,0,126)" />
<polygon points=" 181,358 184,362 187,358 192,357 191,352 192,348 187,347 184,343 181,347 175,348 177,352 175,357 181,358" fill="rgb(255,0,126)" />
<polygon points=" 160,362 159,367 164,368 167,372 170,368 175,367 174,362 175,357 170,356 167,352 164,356 159,357 160,362" fill="rgb(255,0,126)" />
<polygon points=" 147,347 142,348 143,352 142,357 147,358 150,362 154,358 159,357 157,352 159,348 154,347 150,343 147,347" fill="rgb(255,0,126)" />
<polygon points=" 154,327 150,323 147,327 142,328 143,333 142,338 147,339 150,343 154,339 159,338 157,333 159,328 154,327" fill="rgb(255,0,126)" />
<polygon points=" 164,407 167,411 170,407 175,406 174,401 175,396 170,395 167,392 164,395 159,396 160,401 159,406 164,407" fill="rgb(255,0,126)" />
<polygon points=" 174,382 175,377 170,376 167,372 164,376 159,377 160,382 159,387 164,388 167,392 170,388 175,387 174,382" fill="rgb(255,0,126)" />
<polygon points=" 187,397 192,396 191,392 192,387 187,386 184,382 181,386 175,387 177,392 175,396 181,397 184,401 187,397" fill="rgb(255,0,126)" />
<polygon points=" 181,417 184,421 187,417 192,416 191,411 192,406 187,405 184,401 181,405 175,406 177,411 175,416 181,417" fill="rgb(255,0,126)" />
<polygon points=" 160,421 159,426 164,427 167,431 170,427 175,426 174,421 175,416 170,415 167,411 164,415 159,416 160,421" fill="rgb(255,0,126)" />
<polygon points=" 147,405 142,406 143,411 142,416 147,417 150,421 154,417 159,416 157,411 159,406 154,405 150,401 147,405" fill="rgb(255,0,126)" />
<polygon points=" 154,386 150,382 147,386 142,387 143,392 142,396 147,397 150,401 154,397 159,396 157,392 159,387 154,386" fill="rgb(255,0,126)" />
<polygon points=" 109,431 108,436 113,437 116,440 120,437 125,436 123,431 125,426 120,425 116,421 113,425 108,426 109,431" fill="rgb(255,0,126)" />
<polygon points=" 123,411 125,406 120,405 116,401 113,405 108,406 109,411 108,416 113,417 116,421 120,417 125,416 123,411" fill="rgb(255,0,126)" />
<polygon points=" 137,427 142,426 140,421 142,416 137,415 133,411 130,415 125,416 126,421 125,426 130,427 133,431 137,427" fill="rgb(255,0,126)" />
<polygon points=" 130,446 133,450 137,446 142,445 140,440 142,436 137,435 133,431 130,435 125,436 126,440 125,445 130,446" fill="rgb(255,0,126)" />
<polygon points=" 109,450 108,455 113,456 116,460 120,456 125,455 123,450 125,445 120,444 116,440 113,444 108,445 109,450" fill="rgb(255,0,126)" />
<polygon points=" 96,435 91,436 92,440 91,445 96,446 99,450 103,446 108,445 106,440 108,436 103,435 99,431 96,435" fill="rgb(255,0,126)" />
<polygon points=" 103,415 99,411 96,415 91,416 92,421 91,426 96,427 99,431 103,427 108,426 106,421 108,416 103,415" fill="rgb(255,0,126)" />
<polygon points=" 62,395 57,396 59,401 57,406 62,407 65,411 69,407 74,406 72,401 74,396 69,395 65,392 62,395" fill="rgb(255,0,126)" />
<polygon points=" 72,382 74,377 69,376 65,372 62,376 57,377 59,382 57,387 62,388 65,392 69,388 74,387 72,382" fill="rgb(255,0,126)" />
<polygon points=" 86,397 91,396 89,392 91,387 86,386 82,382 79,386 74,387 75,392 74,396 79,397 82,401 86,397" fill="rgb(255,0,126)" />
<polygon points=" 79,417 82,421 86,417 91,416 89,411 91,406 86,405 82,401 79,405 74,406 75,411 74,416 79,417" fill="rgb(255,0,126)" />
<polygon points=" 59,421 57,426 62,427 65,431 69,427 74,426 72,421 74,416 69,415 65,411 62,415 57,416 59,421" fill="rgb(255,0,126)" />
<polygon points=" 45,405 40,406 42,411 40,416 45,417 48,421 52,417 57,416 55,411 57,406 52,405 48,401 45,405" fill="rgb(255,0,126)" />
<polygon points=" 52,386 48,382 45,386 40,387 42,392 40,396 45,397 48,401 52,397 57,396 55,392 57,387 52,386" fill="rgb(255,0,126)" />
<polygon points=" 69,337 65,333 62,337 57,338 59,343 57,348 62,349 65,352 69,349 74,348 72,343 74,338 69,337" fill="rgb(255,0,126)" />
<polygon points=" 72,323 74,318 69,317 65,313 62,317 57,318 59,323 57,328 62,329 65,333 69,329 74,328 72,323" fill="rgb(255,0,126)" />
<polygon points=" 86,339 91,338 89,333 91,328 86,327 82,323 79,327 74,328 75,333 74,338 79,339 82,343 86,339" fill="rgb(255,0,126)" />
<polygon points=" 79,358 82,362 86,358 91,357 89,352 91,348 86,347 82,343 79,347 74,348 75,352 74,357 79,358" fill="rgb(255,0,126)" />
<polygon points=" 59,362 57,367 62,368 65,372 69,368 74,367 72,362 74,357 69,356 65,352 62,356 57,357 59,362" fill="rgb(255,0,126)" />
<polygon points=" 45,347 40,348 42,352 40,357 45,358 48,362 52,358 57,357 55,352 57,348 52,347 48,343 45,347" fill="rgb(255,0,126)" />
<polygon points=" 52,327 48,323 45,327 40,328 42,333 40,338 45,339 48,343 52,339 57,338 55,333 57,328 52,327" fill="rgb(255,0,126)" />
<polygon points=" 120,190 116,186 113,190 108,191 109,196 108,201 113,202 116,206 120,202 125,201 123,196 125,191 120,190" fill="rgb(255,0,126)" />
<polygon points=" 123,176 125,172 120,171 116,167 113,171 108,172 109,176 108,181 113,182 116,186 120,182 125,181 123,176" fill="rgb(255,0,126)" />
<polygon points=" 137,192 142,191 140,186 142,181 137,180 133,176 130,180 125,181 126,186 125,191 130,192 133,196 137,192" fill="rgb(255,0,126)" />
<polygon points=" 130,212 133,216 137,212 142,211 140,206 142,201 137,200 133,196 130,200 125,201 126,206 125,211 130,212" fill="rgb(255,0,126)" />
<polygon points=" 109,216 108,220 113,221 116,225 120,221 125,220 123,216 125,211 120,210 116,206 113,210 108,211 109,216" fill="rgb(255,0,126)" />
<polygon points=" 96,200 91,201 92,206 91,211 96,212 99,216 103,212 108,211 106,206 108,201 103,200 99,196 96,200" fill="rgb(255,0,126)" />
<polygon points=" 103,180 99,176 96,180 91,181 92,186 91,191 96,192 99,196 103,192 108,191 106,186 108,181 103,180" fill="rgb(255,0,126)" />
<polygon points=" 123,137 125,132 120,131 116,128 113,131 108,132 109,137 108,142 113,143 116,147 120,143 125,142 123,137" fill="rgb(255,0,126)" />
<polygon points=" 123,118 125,113 120,112 116,108 113,112 108,113 109,118 108,123 113,124 116,128 120,124 125,123 123,118" fill="rgb(255,0,126)" />
<polygon points=" 137,133 142,132 140,128 142,123 137,122 133,118 130,122 125,123 126,128 125,132 130,133 133,137 137,133" fill="rgb(255,0,126)" />
<polygon points=" 130,153 133,157 137,153 142,152 140,147 142,142 137,141 133,137 130,141 125,142 126,147 125,152 130,153" fill="rgb(255,0,126)" />
<polygon points=" 109,157 108,162 113,163 116,167 120,163 125,162 123,157 125,152 120,151 116,147 113,151 108,152 109,157" fill="rgb(255,0,126)" />
<polygon points=" 96,141 91,142 92,147 91,152 96,153 99,157 103,153 108,152 106,147 108,142 103,141 99,137 96,141" fill="rgb(255,0,126)" />
<polygon points=" 103,122 99,118 96,122 91,123 92,128 91,132 96,133 99,137 103,133 108,132 106,128 108,123 103,122" fill="rgb(255,0,126)" />
<polygon points=" 170,173 175,172 174,167 175,162 170,161 167,157 164,161 159,162 160,167 159,172 164,173 167,176 170,173" fill="rgb(255,0,126)" />
<polygon points=" 174,147 175,142 170,141 167,137 164,141 159,142 160,147 159,152 164,153 167,157 170,153 175,152 174,147" fill="rgb(255,0,126)" />
<polygon points=" 187,163 192,162 191,157 192,152 187,151 184,147 181,151 175,152 177,157 175,162 181,163 184,167 187,163" fill="rgb(255,0,126)" />
<polygon points=" 181,182 184,186 187,182 192,181 191,176 192,172 187,171 184,167 181,171 175,172 177,176 175,181 181,182" fill="rgb(255,0,126)" />
<polygon points=" 160,186 159,191 164,192 167,196 170,192 175,191 174,186 175,181 170,180 167,176 164,180 159,181 160,186" fill="rgb(255,0,126)" />
<polygon points=" 147,171 142,172 143,176 142,181 147,182 150,186 154,182 159,181 157,176 159,172 154,171 150,167 147,171" fill="rgb(255,0,126)" />
<polygon points=" 154,151 150,147 147,151 142,152 143,157 142,162 147,163 150,167 154,163 159,162 157,157 159,152 154,151" fill="rgb(255,0,126)" />
<polygon points=" 164,231 167,235 170,231 175,230 174,225 175,220 170,219 167,216 164,219 159,220 160,225 159,230 164,231" fill="rgb(255,0,126)" />
<polygon points=" 174,206 175,201 170,200 167,196 164,200 159,201 160,206 159,211 164,212 167,216 170,212 175,211 174,206" fill="rgb(255,0,126)" />
<polygon points=" 187,221 192,220 191,216 192,211 187,210 184,206 181,210 175,211 177,216 175,220 181,221 184,225 187,221" fill="rgb(255,0,126)" />
<polygon points=" 181,241 184,245 187,241 192,240 191,235 192,230 187,229 184,225 181,229 175,230 177,235 175,240 181,241" fill="rgb(255,0,126)" />
<polygon points=" 160,245 159,250 164,251 167,255 170,251 175,250 174,245 175,240 170,239 167,235 164,239 159,240 160,245" fill="rgb(255,0,126)" />
<polygon points=" 147,229 142,230 143,235 142,240 147,241 150,245 154,241 159,240 157,235 159,230 154,229 150,225 147,229" fill="rgb(255,0,126)" />
<polygon points=" 154,210 150,206 147,210 142,211 143,216 142,220 147,221 150,225 154,221 159,220 157,216 159,211 154,210" fill="rgb(255,0,126)" />
<polygon points=" 109,255 108,260 113,261 116,264 120,261 125,260 123,255 125,250 120,249 116,245 113,249 108,250 109,255" fill="rgb(255,0,126)" />
<polygon points=" 123,235 125,230 120,229 116,225 113,229 108,230 109,235 108,240 113,241 116,245 120,241 125,240 123,235" fill="rgb(255,0,126)" />
<polygon points=" 137,251 142,250 140,245 142,240 137,239 133,235 130,239 125,240 126,245 125,250 130,251 133,255 137,251" fill="rgb(255,0,126)" />
<polygon points=" 130,270 133,274 137,270 142,269 140,264 142,260 137,259 133,255 130,259 125,260 126,264 125,269 130,270" fill="rgb(255,0,126)" />
<polygon points=" 109,274 108,279 113,280 116,284 120,280 125,279 123,274 125,269 120,268 116,264 113,268 108,269 109,274" fill="rgb(255,0,126)" />
<polygon points=" 96,259 91,260 92,264 91,269 96,270 99,274 103,270 108,269 106,264 108,260 103,259 99,255 96,259" fill="rgb(255,0,126)" />
<polygon points=" 103,239 99,235 96,239 91,240 92,245 91,250 96,251 99,255 103,251 108,250 106,245 108,240 103,239" fill="rgb(255,0,126)" />
<polygon points=" 62,219 57,220 59,225 57,230 62,231 65,235 69,231 74,230 72,225 74,220 69,219 65,216 62,219" fill="rgb(255,0,126)" />
<polygon points=" 72,206 74,201 69,200 65,196 62,200 57,201 59,206 57,211 62,212 65,216 69,212 74,211 72,206" fill="rgb(255,0,126)" />
<polygon points=" 86,221 91,220 89,216 91,211 86,210 82,206 79,210 74,211 75,216 74,220 79,221 82,225 86,221" fill="rgb(255,0,126)" />
<polygon points=" 79,241 82,245 86,241 91,240 89,235 91,230 86,229 82,225 79,229 74,230 75,235 74,240 79,241" fill="rgb(255,0,126)" />
<polygon points=" 59,245 57,250 62,251 65,255 69,251 74,250 72,245 74,240 69,239 65,235 62,239 57,240 59,245" fill="rgb(255,0,126)" />
<polygon points=" 45,229 40,230 42,235 40,240 45,241 48,245 52,241 57,240 55,235 57,230 52,229 48,225 45,229" fill="rgb(255,0,126)" />
<polygon points=" 52,210 48,206 45,210 40,211 42,216 40,220 45,221 48,225 52,221 57,220 55,216 57,211 52,210" fill="rgb(255,0,126)" />
<polygon points=" 69,161 65,157 62,161 57,162 59,167 57,172 62,173 65,176 69,173 74,172 72,167 74,162 69,161" fill="rgb(255,0,126)" />
<polygon points=" 72,147 74,142 69,141 65,137 62,141 57,142 59,147 57,152 62,153 65,157 69,153 74,152 72,147" fill="rgb(255,0,126)" />
<polygon points=" 86,163 91,162 89,157 91,152 86,151 82,147 79,151 74,152 75,157 74,162 79,163 82,167 86,163" fill="rgb(255,0,126)" />
<polygon points=" 79,182 82,186 86,182 91,181 89,176 91,172 86,171 82,167 79,171 74,172 75,176 74,181 79,182" fill="rgb(255,0,126)" />
<polygon points=" 59,186 57,191 62,192 65,196 69,192 74,191 72,186 74,181 69,180 65,176 62,180 57,181 59,186" fill="rgb(255,0,126)" />
<polygon points=" 45,171 40,172 42,176 40,181 45,182 48,186 52,182 57,181 55,176 57,172 52,171 48,167 45,171" fill="rgb(255,0,126)" />
<polygon points=" 52,151 48,147 45,151 40,152 42,157 40,162 45,163 48,167 52,163 57,162 55,157 57,152 52,151" fill="rgb(255,0,126)" /></svg>