<svg xmlns="http://www.w3.org/2000/svg" 
xmlns:xlink="http://www.w3.org/1999/xlink" 
version="1.1" baseProfile="full" 
width="537" height="568" >
<polygon points=" 427,284 497,152 348,147 269,20 189,147 40,152 110,284 40,416 189,421 269,548 348,421 497,416 427,284" fill="rgb(0,170,255)" />
<polygon points=" 321,284 345,240 295,238 269,196 242,238 192,240 216,284 192,328 242,330 269,372 295,330 345,328 321,284" fill="rgb(42,255,0)" />
<polygon points=" 321,108 345,64 295,62 269,20 242,62 192,64 216,108 192,152 242,154 269,196 295,154 345,152 321,108" fill="rgb(42,255,0)" />
<polygon points=" 447,242 497,240 474,196 497,152 447,150 421,108 395,150 345,152 368,196 345,240 395,242 421,284 447,242" fill="rgb(42,255,0)" />
<polygon points=" 395,418 421,460 447,418 497,416 474,372 497,328 447,326 421,284 395,326 345,328 368,372 345,416 395,418" fill="rgb(42,255,0)" />
<polygon points=" 216,460 192,504 242,506 269,548 295,506 345,504 321,460 345,416 295,414 269,372 242,414 192,416 216,460" fill="rgb(42,255,0)" />
<polygon points=" 90,326 40,328 63,372 40,416 90,418 116,460 143,418 192,416 169,372 192,328 143,326 116,284 90,326" fill="rgb(42,255,0)" />
<polygon points=" 143,150 116,108 90,150 40,152 63,196 40,240 90,242 116,284 143,242 192,240 169,196 192,152 143,150" fill="rgb(42,255,0)" />
<polygon points=" 286,284 294,269 277,269 269,255 260,269 243,269 251,284 243,299 260,299 269,313 277,299 294,299 286,284" fill="rgb(255,86,0)" />
<polygon points=" 286,225 294,211 277,210 269,196 260,210 243,211 251,225 243,240 260,241 269,255 277,241 294,240 286,225" fill="rgb(255,86,0)" />
<polygon points=" 328,270 345,269 337,255 345,240 328,239 319,225 311,239 294,240 302,255 294,269 311,270 319,284 328,270" fill="rgb(255,86,0)" />
<polygon points=" 311,329 319,343 328,329 345,328 337,313 345,299 328,298 319,284 311,298 294,299 302,313 294,328 311,329" fill="rgb(255,86,0)" />
<polygon points=" 251,343 243,357 260,358 269,372 277,358 294,357 286,343 294,328 277,327 269,313 260,327 243,328 251,343" fill="rgb(255,86,0)" />
<polygon points=" 209,298 192,299 200,313 192,328 209,329 218,343 227,329 243,328 235,313 243,299 227,298 218,284 209,298" fill="rgb(255,86,0)" />
<polygon points=" 227,239 218,225 209,239 192,240 200,255 192,269 209,270 218,284 227,270 243,269 235,255 243,240 227,239" fill="rgb(255,86,0)" />
<polygon points=" 286,108 294,93 277,93 269,79 260,93 243,93 251,108 243,123 260,123 269,137 277,123 294,123 286,108" fill="rgb(255,86,0)" />
<polygon points=" 286,49 294,35 277,34 269,20 260,34 243,35 251,49 243,64 260,65 269,79 277,65 294,64 286,49" fill="rgb(255,86,0)" />
<polygon points=" 328,94 345,93 337,79 345,64 328,63 319,49 311,63 294,64 302,79 294,93 311,94 319,108 328,94" fill="rgb(255,86,0)" />
<polygon points=" 311,153 319,167 328,153 345,152 337,137 345,123 328,122 319,108 311,122 294,123 302,137 294,152 311,153" fill="rgb(255,86,0)" />
<polygon points=" 251,167 243,181 260,182 269,196 277,182 294,181 286,167 294,152 277,151 269,137 260,151 243,152 251,167" fill="rgb(255,86,0)" />
<polygon points=" 209,122 192,123 200,137 192,152 209,153 218,167 227,153 243,152 235,137 243,123 227,122 218,108 209,122" fill="rgb(255,86,0)" />
<polygon points=" 227,63 218,49 209,63 192,64 200,79 192,93 209,94 218,108 227,94 243,93 235,79 243,64 227,63" fill="rgb(255,86,0)" />
<polygon points=" 430,211 446,211 439,196 446,181 430,181 421,167 412,181 396,181 403,196 396,211 412,211 421,225 430,211" fill="rgb(255,86,0)" />
<polygon points=" 439,137 446,123 430,122 421,108 412,122 396,123 403,137 396,152 412,153 421,167 430,153 446,152 439,137" fill="rgb(255,86,0)" />
<polygon points=" 481,182 497,181 489,167 497,152 481,151 472,137 463,151 446,152 454,167 446,181 463,182 472,196 481,182" fill="rgb(255,86,0)" />
<polygon points=" 463,241 472,255 481,241 497,240 489,225 497,211 481,210 472,196 463,210 446,211 454,225 446,240 463,241" fill="rgb(255,86,0)" />
<polygon points=" 403,255 396,269 412,270 421,284 430,270 446,269 439,255 446,240 430,239 421,225 412,239 396,240 403,255" fill="rgb(255,86,0)" />
<polygon points=" 361,210 345,211 353,225 345,240 361,241 370,255 379,241 396,240 388,225 396,211 379,210 370,196 361,210" fill="rgb(255,86,0)" />
<polygon points=" 379,151 370,137 361,151 345,152 353,167 345,181 361,182 370,196 379,182 396,181 388,167 396,152 379,151" fill="rgb(255,86,0)" />
<polygon points=" 412,387 421,401 430,387 446,387 439,372 446,357 430,357 421,343 412,357 396,357 403,372 396,387 412,387" fill="rgb(255,86,0)" />
<polygon points=" 439,313 446,299 430,298 421,284 412,298 396,299 403,313 396,328 412,329 421,343 430,329 446,328 439,313" fill="rgb(255,86,0)" />
<polygon points=" 481,358 497,357 489,343 497,328 481,327 472,313 463,327 446,328 454,343 446,357 463,358 472,372 481,358" fill="rgb(255,86,0)" />
<polygon points=" 463,417 472,431 481,417 497,416 489,401 497,387 481,386 472,372 463,386 446,387 454,401 446,416 463,417" fill="rgb(255,86,0)" />
<polygon points=" 403,431 396,445 412,446 421,460 430,446 446,445 439,431 446,416 430,415 421,401 412,415 396,416 403,431" fill="rgb(255,86,0)" />
<polygon points=" 361,386 345,387 353,401 345,416 361,417 370,431 379,417 396,416 388,401 396,387 379,386 370,372 361,386" fill="rgb(255,86,0)" />
<polygon points=" 379,327 370,313 361,327 345,328 353,343 345,357 361,358 370,372 379,358 396,357 388,343 396,328 379,327" fill="rgb(255,86,0)" />
<polygon points=" 251,460 243,475 260,475 269,489 277,475 294,475 286,460 294,445 277,445 269,431 260,445 243,445 251,460" fill="rgb(255,86,0)" />
<polygon points=" 286,401 294,387 277,386 269,372 260,386 243,387 251,401 243,416 260,417 269,431 277,417 294,416 286,401" fill="rgb(255,86,0)" />
<polygon points=" 328,446 345,445 337,431 345,416 328,415 319,401 311,415 294,416 302,431 294,445 311,446 319,460 328,446" fill="rgb(255,86,0)" />
<polygon points=" 311,505 319,519 328,505 345,504 337,489 345,475 328,474 319,460 311,474 294,475 302,489 294,504 311,505" fill="rgb(255,86,0)" />
<polygon points=" 251,519 243,533 260,534 269,548 277,534 294,533 286,519 294,504 277,503 269,489 260,503 243,504 251,519" fill="rgb(255,86,0)" />
<polygon points=" 209,474 192,475 200,489 192,504 209,505 218,519 227,505 243,504 235,489 243,475 227,474 218,460 209,474" fill="rgb(255,86,0)" />
<polygon points=" 227,415 218,401 209,415 192,416 200,431 192,445 209,446 218,460 227,446 243,445 235,431 243,416 227,415" fill="rgb(255,86,0)" />
<polygon points=" 107,357 91,357 99,372 91,387 107,387 116,401 125,387 142,387 134,372 142,357 125,357 116,343 107,357" fill="rgb(255,86,0)" />
<polygon points=" 134,313 142,299 125,298 116,284 107,298 91,299 99,313 91,328 107,329 116,343 125,329 142,328 134,313" fill="rgb(255,86,0)" />
<polygon points=" 176,358 192,357 185,343 192,328 176,327 167,313 158,327 142,328 149,343 142,357 158,358 167,372 176,358" fill="rgb(255,86,0)" />
<polygon points=" 158,417 167,431 176,417 192,416 185,401 192,387 176,386 167,372 158,386 142,387 149,401 142,416 158,417" fill="rgb(255,86,0)" />
<polygon points=" 99,431 91,445 107,446 116,460 125,446 142,445 134,431 142,416 125,415 116,401 107,415 91,416 99,431" fill="rgb(255,86,0)" />
<polygon points=" 57,386 40,387 48,401 40,416 57,417 65,431 74,417 91,416 83,401 91,387 74,386 65,372 57,386" fill="rgb(255,86,0)" />
<polygon points=" 74,327 65,313 57,327 40,328 48,343 40,357 57,358 65,372 74,358 91,357 83,343 91,328 74,327" fill="rgb(255,86,0)" />
<polygon points=" 125,181 116,167 107,181 91,181 99,196 91,211 107,211 116,225 125,211 142,211 134,196 142,181 125,181" fill="rgb(255,86,0)" />
<polygon points=" 134,137 142,123 125,122 116,108 107,122 91,123 99,137 91,152 107,153 116,167 125,153 142,152 134,137" fill="rgb(255,86,0)" />
<polygon points=" 176,182 192,181 185,167 192,152 176,151 167,137 158,151 142,152 149,167 142,181 158,182 167,196 176,182" fill="rgb(255,86,0)" />
<polygon points=" 158,241 167,255 176,241 192,240 185,225 192,211 176,210 167,196 158,210 142,211 149,225 142,240 158,241" fill="rgb(255,86,0)" />
<polygon points=" 99,255 91,269 107,270 116,284 125,270 142,269 134,255 142,240 125,239 116,225 107,239 91,240 99,255" fill="rgb(255,86,0)" />
<polygon points=" 57,210 40,211 48,225 40,240 57,241 65,255 74,241 91,240 83,225 91,211 74,210 65,196 57,210" fill="rgb(255,86,0)" />
<polygon points=" 74,151 65,137 57,151 40,152 48,167 40,181 57,182 65,196 74,182 91,181 83,167 91,152 74,151" fill="rgb(255,86,0)" />
<polygon points=" 274,284 277,279 272,279 269,274 266,279 260,279 263,284 260,289 266,289 269,294 272,289 277,289 274,284" fill="rgb(214,0,255)" />
<polygon points=" 274,264 277,260 272,259 269,255 266,259 260,260 263,264 260,269 266,270 269,274 272,270 277,269 274,264" fill="rgb(214,0,255)" />
<polygon points=" 288,279 294,279 291,274 294,269 288,269 286,264 283,269 277,269 280,274 277,279 283,279 286,284 288,279" fill="rgb(214,0,255)" />
<polygon points=" 283,299 286,304 288,299 294,299 291,294 294,289 288,289 286,284 283,289 277,289 280,294 277,299 283,299" fill="rgb(214,0,255)" />
<polygon points=" 263,304 260,308 266,309 269,313 272,309 277,308 274,304 277,299 272,298 269,294 266,298 260,299 263,304" fill="rgb(214,0,255)" />
<polygon points=" 249,289 243,289 246,294 243,299 249,299 252,304 255,299 260,299 258,294 260,289 255,289 252,284 249,289" fill="rgb(214,0,255)" />
<polygon points=" 255,269 252,264 249,269 243,269 246,274 243,279 249,279 252,284 255,279 260,279 258,274 260,269 255,269" fill="rgb(214,0,255)" />
<polygon points=" 274,225 277,220 272,220 269,216 266,220 260,220 263,225 260,230 266,230 269,235 272,230 277,230 274,225" fill="rgb(214,0,255)" />
<polygon points=" 274,206 277,201 272,201 269,196 266,201 260,201 263,206 260,211 266,211 269,216 272,211 277,211 274,206" fill="rgb(214,0,255)" />
<polygon points=" 288,221 294,220 291,216 294,211 288,210 286,206 283,210 277,211 280,216 277,220 283,221 286,225 288,221" fill="rgb(214,0,255)" />
<polygon points=" 283,240 286,245 288,240 294,240 291,235 294,230 288,230 286,225 283,230 277,230 280,235 277,240 283,240" fill="rgb(214,0,255)" />
<polygon points=" 263,245 260,250 266,250 269,255 272,250 277,250 274,245 277,240 272,240 269,235 266,240 260,240 263,245" fill="rgb(214,0,255)" />
<polygon points=" 249,230 243,230 246,235 243,240 249,240 252,245 255,240 260,240 258,235 260,230 255,230 252,225 249,230" fill="rgb(214,0,255)" />
<polygon points=" 255,210 252,206 249,210 243,211 246,216 243,220 249,221 252,225 255,221 260,220 258,216 260,211 255,210" fill="rgb(214,0,255)" />
<polygon points=" 322,260 328,260 325,255 328,250 322,250 319,245 317,250 311,250 314,255 311,260 317,260 319,264 322,260" fill="rgb(214,0,255)" />
<polygon points=" 325,235 328,230 322,230 319,225 317,230 311,230 314,235 311,240 317,240 319,245 322,240 328,240 325,235" fill="rgb(214,0,255)" />
<polygon points=" 339,250 345,250 342,245 345,240 339,240 336,235 333,240 328,240 331,245 328,250 333,250 336,255 339,250" fill="rgb(214,0,255)" />
<polygon points=" 333,270 336,274 339,270 345,269 342,264 345,260 339,259 336,255 333,259 328,260 331,264 328,269 333,270" fill="rgb(214,0,255)" />
<polygon points=" 314,274 311,279 317,279 319,284 322,279 328,279 325,274 328,269 322,269 319,264 317,269 311,269 314,274" fill="rgb(214,0,255)" />
<polygon points=" 300,259 294,260 297,264 294,269 300,270 303,274 305,270 311,269 308,264 311,260 305,259 303,255 300,259" fill="rgb(214,0,255)" />
<polygon points=" 305,240 303,235 300,240 294,240 297,245 294,250 300,250 303,255 305,250 311,250 308,245 311,240 305,240" fill="rgb(214,0,255)" />
<polygon points=" 317,318 319,323 322,318 328,318 325,313 328,308 322,308 319,304 317,308 311,308 314,313 311,318 317,318" fill="rgb(214,0,255)" />
<polygon points=" 325,294 328,289 322,289 319,284 317,289 311,289 314,294 311,299 317,299 319,304 322,299 328,299 325,294" fill="rgb(214,0,255)" />
<polygon points=" 339,309 345,308 342,304 345,299 339,298 336,294 333,298 328,299 331,304 328,308 333,309 336,313 339,309" fill="rgb(214,0,255)" />
<polygon points=" 333,328 336,333 339,328 345,328 342,323 345,318 339,318 336,313 333,318 328,318 331,323 328,328 333,328" fill="rgb(214,0,255)" />
<polygon points=" 314,333 311,338 317,338 319,343 322,338 328,338 325,333 328,328 322,328 319,323 317,328 311,328 314,333" fill="rgb(214,0,255)" />
<polygon points=" 300,318 294,318 297,323 294,328 300,328 303,333 305,328 311,328 308,323 311,318 305,318 303,313 300,318" fill="rgb(214,0,255)" />
<polygon points=" 305,298 303,294 300,298 294,299 297,304 294,308 300,309 303,313 305,309 311,308 308,304 311,299 305,298" fill="rgb(214,0,255)" />
<polygon points=" 263,343 260,348 266,348 269,352 272,348 277,348 274,343 277,338 272,338 269,333 266,338 260,338 263,343" fill="rgb(214,0,255)" />
<polygon points=" 274,323 277,318 272,318 269,313 266,318 260,318 263,323 260,328 266,328 269,333 272,328 277,328 274,323" fill="rgb(214,0,255)" />
<polygon points=" 288,338 294,338 291,333 294,328 288,328 286,323 283,328 277,328 280,333 277,338 283,338 286,343 288,338" fill="rgb(214,0,255)" />
<polygon points=" 283,358 286,362 288,358 294,357 291,352 294,348 288,347 286,343 283,347 277,348 280,352 277,357 283,358" fill="rgb(214,0,255)" />
<polygon points=" 263,362 260,367 266,367 269,372 272,367 277,367 274,362 277,357 272,357 269,352 266,357 260,357 263,362" fill="rgb(214,0,255)" />
<polygon points=" 249,347 243,348 246,352 243,357 249,358 252,362 255,358 260,357 258,352 260,348 255,347 252,343 249,347" fill="rgb(214,0,255)" />
<polygon points=" 255,328 252,323 249,328 243,328 246,333 243,338 249,338 252,343 255,338 260,338 258,333 260,328 255,328" fill="rgb(214,0,255)" />
<polygon points=" 215,308 209,308 212,313 209,318 215,318 218,323 221,318 226,318 224,313 226,308 221,308 218,304 215,308" fill="rgb(214,0,255)" />
<polygon points=" 224,294 226,289 221,289 218,284 215,289 209,289 212,294 209,299 215,299 218,304 221,299 226,299 224,294" fill="rgb(214,0,255)" />
<polygon points=" 238,309 243,308 241,304 243,299 238,298 235,294 232,298 226,299 229,304 226,308 232,309 235,313 238,309" fill="rgb(214,0,255)" />
<polygon points=" 232,328 235,333 238,328 243,328 241,323 243,318 238,318 235,313 232,318 226,318 229,323 226,328 232,328" fill="rgb(214,0,255)" />
<polygon points=" 212,333 209,338 215,338 218,343 221,338 226,338 224,333 226,328 221,328 218,323 215,328 209,328 212,333" fill="rgb(214,0,255)" />
<polygon points=" 198,318 192,318 195,323 192,328 198,328 201,333 204,328 209,328 207,323 209,318 204,318 201,313 198,318" fill="rgb(214,0,255)" />
<polygon points=" 204,298 201,294 198,298 192,299 195,304 192,308 198,309 201,313 204,309 209,308 207,304 209,299 204,298" fill="rgb(214,0,255)" />
<polygon points=" 221,250 218,245 215,250 209,250 212,255 209,260 215,260 218,264 221,260 226,260 224,255 226,250 221,250" fill="rgb(214,0,255)" />
<polygon points=" 224,235 226,230 221,230 218,225 215,230 209,230 212,235 209,240 215,240 218,245 221,240 226,240 224,235" fill="rgb(214,0,255)" />
<polygon points=" 238,250 243,250 241,245 243,240 238,240 235,235 232,240 226,240 229,245 226,250 232,250 235,255 238,250" fill="rgb(214,0,255)" />
<polygon points=" 232,270 235,274 238,270 243,269 241,264 243,260 238,259 235,255 232,259 226,260 229,264 226,269 232,270" fill="rgb(214,0,255)" />
<polygon points=" 212,274 209,279 215,279 218,284 221,279 226,279 224,274 226,269 221,269 218,264 215,269 209,269 212,274" fill="rgb(214,0,255)" />
<polygon points=" 198,259 192,260 195,264 192,269 198,270 201,274 204,270 209,269 207,264 209,260 204,259 201,255 198,259" fill="rgb(214,0,255)" />
<polygon points=" 204,240 201,235 198,240 192,240 195,245 192,250 198,250 201,255 204,250 209,250 207,245 209,240 204,240" fill="rgb(214,0,255)" />
<polygon points=" 274,108 277,103 272,103 269,98 266,103 260,103 263,108 260,113 266,113 269,118 272,113 277,113 274,108" fill="rgb(214,0,255)" />
<polygon points=" 274,88 277,84 272,83 269,79 266,83 260,84 263,88 260,93 266,94 269,98 272,94 277,93 274,88" fill="rgb(214,0,255)" />
<polygon points=" 288,103 294,103 291,98 294,93 288,93 286,88 283,93 277,93 280,98 277,103 283,103 286,108 288,103" fill="rgb(214,0,255)" />
<polygon points=" 283,123 286,128 288,123 294,123 291,118 294,113 288,113 286,108 283,113 277,113 280,118 277,123 283,123" fill="rgb(214,0,255)" />
<polygon points=" 263,128 260,132 266,133 269,137 272,133 277,132 274,128 277,123 272,122 269,118 266,122 260,123 263,128" fill="rgb(214,0,255)" />
<polygon points=" 249,113 243,113 246,118 243,123 249,123 252,128 255,123 260,123 258,118 260,113 255,113 252,108 249,113" fill="rgb(214,0,255)" />
<polygon points=" 255,93 252,88 249,93 243,93 246,98 243,103 249,103 252,108 255,103 260,103 258,98 260,93 255,93" fill="rgb(214,0,255)" />
<polygon points=" 274,49 277,44 272,44 269,40 266,44 260,44 263,49 260,54 266,54 269,59 272,54 277,54 274,49" fill="rgb(214,0,255)" />
<polygon points=" 274,30 277,25 272,25 269,20 266,25 260,25 263,30 260,35 266,35 269,40 272,35 277,35 274,30" fill="rgb(214,0,255)" />
<polygon points=" 288,45 294,44 291,40 294,35 288,34 286,30 283,34 277,35 280,40 277,44 283,45 286,49 288,45" fill="rgb(214,0,255)" />
<polygon points=" 283,64 286,69 288,64 294,64 291,59 294,54 288,54 286,49 283,54 277,54 280,59 277,64 283,64" fill="rgb(214,0,255)" />
<polygon points=" 263,69 260,74 266,74 269,79 272,74 277,74 274,69 277,64 272,64 269,59 266,64 260,64 263,69" fill="rgb(214,0,255)" />
<polygon points=" 249,54 243,54 246,59 243,64 249,64 252,69 255,64 260,64 258,59 260,54 255,54 252,49 249,54" fill="rgb(214,0,255)" />
<polygon points=" 255,34 252,30 249,34 243,35 246,40 243,44 249,45 252,49 255,45 260,44 258,40 260,35 255,34" fill="rgb(214,0,255)" />
<polygon points=" 322,84 328,84 325,79 328,74 322,74 319,69 317,74 311,74 314,79 311,84 317,84 319,88 322,84" fill="rgb(214,0,255)" />
<polygon points=" 325,59 328,54 322,54 319,49 317,54 311,54 314,59 311,64 317,64 319,69 322,64 328,64 325,59" fill="rgb(214,0,255)" />
<polygon points=" 339,74 345,74 342,69 345,64 339,64 336,59 333,64 328,64 331,69 328,74 333,74 336,79 339,74" fill="rgb(214,0,255)" />
<polygon points=" 333,94 336,98 339,94 345,93 342,88 345,84 339,83 336,79 333,83 328,84 331,88 328,93 333,94" fill="rgb(214,0,255)" />
<polygon points=" 314,98 311,103 317,103 319,108 322,103 328,103 325,98 328,93 322,93 319,88 317,93 311,93 314,98" fill="rgb(214,0,255)" />
<polygon points=" 300,83 294,84 297,88 294,93 300,94 303,98 305,94 311,93 308,88 311,84 305,83 303,79 300,83" fill="rgb(214,0,255)" />
<polygon points=" 305,64 303,59 300,64 294,64 297,69 294,74 300,74 303,79 305,74 311,74 308,69 311,64 305,64" fill="rgb(214,0,255)" />
<polygon points=" 317,142 319,147 322,142 328,142 325,137 328,132 322,132 319,128 317,132 311,132 314,137 311,142 317,142" fill="rgb(214,0,255)" />
<polygon points=" 325,118 328,113 322,113 319,108 317,113 311,113 314,118 311,123 317,123 319,128 322,123 328,123 325,118" fill="rgb(214,0,255)" />
<polygon points=" 339,133 345,132 342,128 345,123 339,122 336,118 333,122 328,123 331,128 328,132 333,133 336,137 339,133" fill="rgb(214,0,255)" />
<polygon points=" 333,152 336,157 339,152 345,152 342,147 345,142 339,142 336,137 333,142 328,142 331,147 328,152 333,152" fill="rgb(214,0,255)" />
<polygon points=" 314,157 311,162 317,162 319,167 322,162 328,162 325,157 328,152 322,152 319,147 317,152 311,152 314,157" fill="rgb(214,0,255)" />
<polygon points=" 300,142 294,142 297,147 294,152 300,152 303,157 305,152 311,152 308,147 311,142 305,142 303,137 300,142" fill="rgb(214,0,255)" />
<polygon points=" 305,122 303,118 300,122 294,123 297,128 294,132 300,133 303,137 305,133 311,132 308,128 311,123 305,122" fill="rgb(214,0,255)" />
<polygon points=" 263,167 260,172 266,172 269,176 272,172 277,172 274,167 277,162 272,162 269,157 266,162 260,162 263,167" fill="rgb(214,0,255)" />
<polygon points=" 274,147 277,142 272,142 269,137 266,142 260,142 263,147 260,152 266,152 269,157 272,152 277,152 274,147" fill="rgb(214,0,255)" />
<polygon points=" 288,162 294,162 291,157 294,152 288,152 286,147 283,152 277,152 280,157 277,162 283,162 286,167 288,162" fill="rgb(214,0,255)" />
<polygon points=" 283,182 286,186 288,182 294,181 291,176 294,172 288,171 286,167 283,171 277,172 280,176 277,181 283,182" fill="rgb(214,0,255)" />
<polygon points=" 263,186 260,191 266,191 269,196 272,191 277,191 274,186 277,181 272,181 269,176 266,181 260,181 263,186" fill="rgb(214,0,255)" />
<polygon points=" 249,171 243,172 246,176 243,181 249,182 252,186 255,182 260,181 258,176 260,172 255,171 252,167 249,171" fill="rgb(214,0,255)" />
<polygon points=" 255,152 252,147 249,152 243,152 246,157 243,162 249,162 252,167 255,162 260,162 258,157 260,152 255,152" fill="rgb(214,0,255)" />
<polygon points=" 215,132 209,132 212,137 209,142 215,142 218,147 221,142 226,142 224,137 226,132 221,132 218,128 215,132" fill="rgb(214,0,255)" />
<polygon points=" 224,118 226,113 221,113 218,108 215,113 209,113 212,118 209,123 215,123 218,128 221,123 226,123 224,118" fill="rgb(214,0,255)" />
<polygon points=" 238,133 243,132 241,128 243,123 238,122 235,118 232,122 226,123 229,128 226,132 232,133 235,137 238,133" fill="rgb(214,0,255)" />
<polygon points=" 232,152 235,157 238,152 243,152 241,147 243,142 238,142 235,137 232,142 226,142 229,147 226,152 232,152" fill="rgb(214,0,255)" />
<polygon points=" 212,157 209,162 215,162 218,167 221,162 226,162 224,157 226,152 221,152 218,147 215,152 209,152 212,157" fill="rgb(214,0,255)" />
<polygon points=" 198,142 192,142 195,147 192,152 198,152 201,157 204,152 209,152 207,147 209,142 204,142 201,137 198,142" fill="rgb(214,0,255)" />
<polygon points=" 204,122 201,118 198,122 192,123 195,128 192,132 198,133 201,137 204,133 209,132 207,128 209,123 204,122" fill="rgb(214,0,255)" />
<polygon points=" 221,74 218,69 215,74 209,74 212,79 209,84 215,84 218,88 221,84 226,84 224,79 226,74 221,74" fill="rgb(214,0,255)" />
<polygon points=" 224,59 226,54 221,54 218,49 215,54 209,54 212,59 209,64 215,64 218,69 221,64 226,64 224,59" fill="rgb(214,0,255)" />
<polygon points=" 238,74 243,74 241,69 243,64 238,64 235,59 232,64 226,64 229,69 226,74 232,74 235,79 238,74" fill="rgb(214,0,255)" />
<polygon points=" 232,94 235,98 238,94 243,93 241,88 243,84 238,83 235,79 232,83 226,84 229,88 226,93 232,94" fill="rgb(214,0,255)" />
<polygon points=" 212,98 209,103 215,103 218,108 221,103 226,103 224,98 226,93 221,93 218,88 215,93 209,93 212,98" fill="rgb(214,0,255)" />
<polygon points=" 198,83 192,84 195,88 192,93 198,94 201,98 204,94 209,93 207,88 209,84 204,83 201,79 198,83" fill="rgb(214,0,255)" />
<polygon points=" 204,64 201,59 198,64 192,64 195,69 192,74 198,74 201,79 204,74 209,74 207,69 209,64 204,64" fill="rgb(214,0,255)" />
<polygon points=" 424,201 430,201 427,196 430,191 424,191 421,186 418,191 413,191 415,196 413,201 418,201 421,206 424,201" fill="rgb(214,0,255)" />
<polygon points=" 427,176 430,172 424,171 421,167 418,171 413,172 415,176 413,181 418,182 421,186 424,182 430,181 427,176" fill="rgb(214,0,255)" />
<polygon points=" 441,191 446,191 444,186 446,181 441,181 438,176 435,181 430,181 432,186 430,191 435,191 438,196 441,191" fill="rgb(214,0,255)" />
<polygon points=" 435,211 438,216 441,211 446,211 444,206 446,201 441,201 438,196 435,201 430,201 432,206 430,211 435,211" fill="rgb(214,0,255)" />
<polygon points=" 415,216 413,220 418,221 421,225 424,221 430,220 427,216 430,211 424,210 421,206 418,210 413,211 415,216" fill="rgb(214,0,255)" />
<polygon points=" 401,201 396,201 398,206 396,211 401,211 404,216 407,211 413,211 410,206 413,201 407,201 404,196 401,201" fill="rgb(214,0,255)" />
<polygon points=" 407,181 404,176 401,181 396,181 398,186 396,191 401,191 404,196 407,191 413,191 410,186 413,181 407,181" fill="rgb(214,0,255)" />
<polygon points=" 427,137 430,132 424,132 421,128 418,132 413,132 415,137 413,142 418,142 421,147 424,142 430,142 427,137" fill="rgb(214,0,255)" />
<polygon points=" 427,118 430,113 424,113 421,108 418,113 413,113 415,118 413,123 418,123 421,128 424,123 430,123 427,118" fill="rgb(214,0,255)" />
<polygon points=" 441,133 446,132 444,128 446,123 441,122 438,118 435,122 430,123 432,128 430,132 435,133 438,137 441,133" fill="rgb(214,0,255)" />
<polygon points=" 435,152 438,157 441,152 446,152 444,147 446,142 441,142 438,137 435,142 430,142 432,147 430,152 435,152" fill="rgb(214,0,255)" />
<polygon points=" 415,157 413,162 418,162 421,167 424,162 430,162 427,157 430,152 424,152 421,147 418,152 413,152 415,157" fill="rgb(214,0,255)" />
<polygon points=" 401,142 396,142 398,147 396,152 401,152 404,157 407,152 413,152 410,147 413,142 407,142 404,137 401,142" fill="rgb(214,0,255)" />
<polygon points=" 407,122 404,118 401,122 396,123 398,128 396,132 401,133 404,137 407,133 413,132 410,128 413,123 407,122" fill="rgb(214,0,255)" />
<polygon points=" 475,172 480,172 478,167 480,162 475,162 472,157 469,162 463,162 466,167 463,172 469,172 472,176 475,172" fill="rgb(214,0,255)" />
<polygon points=" 478,147 480,142 475,142 472,137 469,142 463,142 466,147 463,152 469,152 472,157 475,152 480,152 478,147" fill="rgb(214,0,255)" />
<polygon points=" 492,162 497,162 495,157 497,152 492,152 489,147 486,152 480,152 483,157 480,162 486,162 489,167 492,162" fill="rgb(214,0,255)" />
<polygon points=" 486,182 489,186 492,182 497,181 495,176 497,172 492,171 489,167 486,171 480,172 483,176 480,181 486,182" fill="rgb(214,0,255)" />
<polygon points=" 466,186 463,191 469,191 472,196 475,191 480,191 478,186 480,181 475,181 472,176 469,181 463,181 466,186" fill="rgb(214,0,255)" />
<polygon points=" 452,171 446,172 449,176 446,181 452,182 455,186 458,182 463,181 461,176 463,172 458,171 455,167 452,171" fill="rgb(214,0,255)" />
<polygon points=" 458,152 455,147 452,152 446,152 449,157 446,162 452,162 455,167 458,162 463,162 461,157 463,152 458,152" fill="rgb(214,0,255)" />
<polygon points=" 469,230 472,235 475,230 480,230 478,225 480,220 475,220 472,216 469,220 463,220 466,225 463,230 469,230" fill="rgb(214,0,255)" />
<polygon points=" 478,206 480,201 475,201 472,196 469,201 463,201 466,206 463,211 469,211 472,216 475,211 480,211 478,206" fill="rgb(214,0,255)" />
<polygon points=" 492,221 497,220 495,216 497,211 492,210 489,206 486,210 480,211 483,216 480,220 486,221 489,225 492,221" fill="rgb(214,0,255)" />
<polygon points=" 486,240 489,245 492,240 497,240 495,235 497,230 492,230 489,225 486,230 480,230 483,235 480,240 486,240" fill="rgb(214,0,255)" />
<polygon points=" 466,245 463,250 469,250 472,255 475,250 480,250 478,245 480,240 475,240 472,235 469,240 463,240 466,245" fill="rgb(214,0,255)" />
<polygon points=" 452,230 446,230 449,235 446,240 452,240 455,245 458,240 463,240 461,235 463,230 458,230 455,225 452,230" fill="rgb(214,0,255)" />
<polygon points=" 458,210 455,206 452,210 446,211 449,216 446,220 452,221 455,225 458,221 463,220 461,216 463,211 458,210" fill="rgb(214,0,255)" />
<polygon points=" 415,255 413,260 418,260 421,264 424,260 430,260 427,255 430,250 424,250 421,245 418,250 413,250 415,255" fill="rgb(214,0,255)" />
<polygon points=" 427,235 430,230 424,230 421,225 418,230 413,230 415,235 413,240 418,240 421,245 424,240 430,240 427,235" fill="rgb(214,0,255)" />
<polygon points=" 441,250 446,250 444,245 446,240 441,240 438,235 435,240 430,240 432,245 430,250 435,250 438,255 441,250" fill="rgb(214,0,255)" />
<polygon points=" 435,270 438,274 441,270 446,269 444,264 446,260 441,259 438,255 435,259 430,260 432,264 430,269 435,270" fill="rgb(214,0,255)" />
<polygon points=" 415,274 413,279 418,279 421,284 424,279 430,279 427,274 430,269 424,269 421,264 418,269 413,269 415,274" fill="rgb(214,0,255)" />
<polygon points=" 401,259 396,260 398,264 396,269 401,270 404,274 407,270 413,269 410,264 413,260 407,259 404,255 401,259" fill="rgb(214,0,255)" />
<polygon points=" 407,240 404,235 401,240 396,240 398,245 396,250 401,250 404,255 407,250 413,250 410,245 413,240 407,240" fill="rgb(214,0,255)" />
<polygon points=" 367,220 362,220 364,225 362,230 367,230 370,235 373,230 379,230 376,225 379,220 373,220 370,216 367,220" fill="rgb(214,0,255)" />
<polygon points=" 376,206 379,201 373,201 370,196 367,201 362,201 364,206 362,211 367,211 370,216 373,211 379,211 376,206" fill="rgb(214,0,255)" />
<polygon points=" 390,221 396,220 393,216 396,211 390,210 387,206 384,210 379,211 381,216 379,220 384,221 387,225 390,221" fill="rgb(214,0,255)" />
<polygon points=" 384,240 387,245 390,240 396,240 393,235 396,230 390,230 387,225 384,230 379,230 381,235 379,240 384,240" fill="rgb(214,0,255)" />
<polygon points=" 364,245 362,250 367,250 370,255 373,250 379,250 376,245 379,240 373,240 370,235 367,240 362,240 364,245" fill="rgb(214,0,255)" />
<polygon points=" 350,230 345,230 347,235 345,240 350,240 353,245 356,240 362,240 359,235 362,230 356,230 353,225 350,230" fill="rgb(214,0,255)" />
<polygon points=" 356,210 353,206 350,210 345,211 347,216 345,220 350,221 353,225 356,221 362,220 359,216 362,211 356,210" fill="rgb(214,0,255)" />
<polygon points=" 373,162 370,157 367,162 362,162 364,167 362,172 367,172 370,176 373,172 379,172 376,167 379,162 373,162" fill="rgb(214,0,255)" />
<polygon points=" 376,147 379,142 373,142 370,137 367,142 362,142 364,147 362,152 367,152 370,157 373,152 379,152 376,147" fill="rgb(214,0,255)" />
<polygon points=" 390,162 396,162 393,157 396,152 390,152 387,147 384,152 379,152 381,157 379,162 384,162 387,167 390,162" fill="rgb(214,0,255)" />
<polygon points=" 384,182 387,186 390,182 396,181 393,176 396,172 390,171 387,167 384,171 379,172 381,176 379,181 384,182" fill="rgb(214,0,255)" />
<polygon points=" 364,186 362,191 367,191 370,196 373,191 379,191 376,186 379,181 373,181 370,176 367,181 362,181 364,186" fill="rgb(214,0,255)" />
<polygon points=" 350,171 345,172 347,176 345,181 350,182 353,186 356,182 362,181 359,176 362,172 356,171 353,167 350,171" fill="rgb(214,0,255)" />
<polygon points=" 356,152 353,147 350,152 345,152 347,157 345,162 350,162 353,167 356,162 362,162 359,157 362,152 356,152" fill="rgb(214,0,255)" />
<polygon points=" 418,377 421,382 424,377 430,377 427,372 430,367 424,367 421,362 418,367 413,367 415,372 413,377 418,377" fill="rgb(214,0,255)" />
<polygon points=" 427,352 430,348 424,347 421,343 418,347 413,348 415,352 413,357 418,358 421,362 424,358 430,357 427,352" fill="rgb(214,0,255)" />
<polygon points=" 441,367 446,367 444,362 446,357 441,357 438,352 435,357 430,357 432,362 430,367 435,367 438,372 441,367" fill="rgb(214,0,255)" />
<polygon points=" 435,387 438,392 441,387 446,387 444,382 446,377 441,377 438,372 435,377 430,377 432,382 430,387 435,387" fill="rgb(214,0,255)" />
<polygon points=" 415,392 413,396 418,397 421,401 424,397 430,396 427,392 430,387 424,386 421,382 418,386 413,387 415,392" fill="rgb(214,0,255)" />
<polygon points=" 401,377 396,377 398,382 396,387 401,387 404,392 407,387 413,387 410,382 413,377 407,377 404,372 401,377" fill="rgb(214,0,255)" />
<polygon points=" 407,357 404,352 401,357 396,357 398,362 396,367 401,367 404,372 407,367 413,367 410,362 413,357 407,357" fill="rgb(214,0,255)" />
<polygon points=" 427,313 430,308 424,308 421,304 418,308 413,308 415,313 413,318 418,318 421,323 424,318 430,318 427,313" fill="rgb(214,0,255)" />
<polygon points=" 427,294 430,289 424,289 421,284 418,289 413,289 415,294 413,299 418,299 421,304 424,299 430,299 427,294" fill="rgb(214,0,255)" />
<polygon points=" 441,309 446,308 444,304 446,299 441,298 438,294 435,298 430,299 432,304 430,308 435,309 438,313 441,309" fill="rgb(214,0,255)" />
<polygon points=" 435,328 438,333 441,328 446,328 444,323 446,318 441,318 438,313 435,318 430,318 432,323 430,328 435,328" fill="rgb(214,0,255)" />
<polygon points=" 415,333 413,338 418,338 421,343 424,338 430,338 427,333 430,328 424,328 421,323 418,328 413,328 415,333" fill="rgb(214,0,255)" />
<polygon points=" 401,318 396,318 398,323 396,328 401,328 404,333 407,328 413,328 410,323 413,318 407,318 404,313 401,318" fill="rgb(214,0,255)" />
<polygon points=" 407,298 404,294 401,298 396,299 398,304 396,308 401,309 404,313 407,309 413,308 410,304 413,299 407,298" fill="rgb(214,0,255)" />
<polygon points=" 475,348 480,348 478,343 480,338 475,338 472,333 469,338 463,338 466,343 463,348 469,348 472,352 475,348" fill="rgb(214,0,255)" />
<polygon points=" 478,323 480,318 475,318 472,313 469,318 463,318 466,323 463,328 469,328 472,333 475,328 480,328 478,323" fill="rgb(214,0,255)" />
<polygon points=" 492,338 497,338 495,333 497,328 492,328 489,323 486,328 480,328 483,333 480,338 486,338 489,343 492,338" fill="rgb(214,0,255)" />
<polygon points=" 486,358 489,362 492,358 497,357 495,352 497,348 492,347 489,343 486,347 480,348 483,352 480,357 486,358" fill="rgb(214,0,255)" />
<polygon points=" 466,362 463,367 469,367 472,372 475,367 480,367 478,362 480,357 475,357 472,352 469,357 463,357 466,362" fill="rgb(214,0,255)" />
<polygon points=" 452,347 446,348 449,352 446,357 452,358 455,362 458,358 463,357 461,352 463,348 458,347 455,343 452,347" fill="rgb(214,0,255)" />
<polygon points=" 458,328 455,323 452,328 446,328 449,333 446,338 452,338 455,343 458,338 463,338 461,333 463,328 458,328" fill="rgb(214,0,255)" />
<polygon points=" 469,406 472,411 475,406 480,406 478,401 480,396 475,396 472,392 469,396 463,396 466,401 463,406 469,406" fill="rgb(214,0,255)" />
<polygon points=" 478,382 480,377 475,377 472,372 469,377 463,377 466,382 463,387 469,387 472,392 475,387 480,387 478,382" fill="rgb(214,0,255)" />
<polygon points=" 492,397 497,396 495,392 497,387 492,386 489,382 486,386 480,387 483,392 480,396 486,397 489,401 492,397" fill="rgb(214,0,255)" />
<polygon points=" 486,416 489,421 492,416 497,416 495,411 497,406 492,406 489,401 486,406 480,406 483,411 480,416 486,416" fill="rgb(214,0,255)" />
<polygon points=" 466,421 463,426 469,426 472,431 475,426 480,426 478,421 480,416 475,416 472,411 469,416 463,416 466,421" fill="rgb(214,0,255)" />
<polygon points=" 452,406 446,406 449,411 446,416 452,416 455,421 458,416 463,416 461,411 463,406 458,406 455,401 452,406" fill="rgb(214,0,255)" />
<polygon points=" 458,386 455,382 452,386 446,387 449,392 446,396 452,397 455,401 458,397 463,396 461,392 463,387 458,386" fill="rgb(214,0,255)" />
<polygon points=" 415,431 413,436 418,436 421,440 424,436 430,436 427,431 430,426 424,426 421,421 418,426 413,426 415,431" fill="rgb(214,0,255)" />
<polygon points=" 427,411 430,406 424,406 421,401 418,406 413,406 415,411 413,416 418,416 421,421 424,416 430,416 427,411" fill="rgb(214,0,255)" />
<polygon points=" 441,426 446,426 444,421 446,416 441,416 438,411 435,416 430,416 432,421 430,426 435,426 438,431 441,426" fill="rgb(214,0,255)" />
<polygon points=" 435,446 438,450 441,446 446,445 444,440 446,436 441,435 438,431 435,435 430,436 432,440 430,445 435,446" fill="rgb(214,0,255)" />
<polygon points=" 415,450 413,455 418,455 421,460 424,455 430,455 427,450 430,445 424,445 421,440 418,445 413,445 415,450" fill="rgb(214,0,255)" />
<polygon points=" 401,435 396,436 398,440 396,445 401,446 404,450 407,446 413,445 410,440 413,436 407,435 404,431 401,435" fill="rgb(214,0,255)" />
<polygon points=" 407,416 404,411 401,416 396,416 398,421 396,426 401,426 404,431 407,426 413,426 410,421 413,416 407,416" fill="rgb(214,0,255)" />
<polygon points=" 367,396 362,396 364,401 362,406 367,406 370,411 373,406 379,406 376,401 379,396 373,396 370,392 367,396" fill="rgb(214,0,255)" />
<polygon points=" 376,382 379,377 373,377 370,372 367,377 362,377 364,382 362,387 367,387 370,392 373,387 379,387 376,382" fill="rgb(214,0,255)" />
<polygon points=" 390,397 396,396 393,392 396,387 390,386 387,382 384,386 379,387 381,392 379,396 384,397 387,401 390,397" fill="rgb(214,0,255)" />
<polygon points=" 384,416 387,421 390,416 396,416 393,411 396,406 390,406 387,401 384,406 379,406 381,411 379,416 384,416" fill="rgb(214,0,255)" />
<polygon points=" 364,421 362,426 367,426 370,431 373,426 379,426 376,421 379,416 373,416 370,411 367,416 362,416 364,421" fill="rgb(214,0,255)" />
<polygon points=" 350,406 345,406 347,411 345,416 350,416 353,421 356,416 362,416 359,411 362,406 356,406 353,401 350,406" fill="rgb(214,0,255)" />
<polygon points=" 356,386 353,382 350,386 345,387 347,392 345,396 350,397 353,401 356,397 362,396 359,392 362,387 356,386" fill="rgb(214,0,255)" />
<polygon points=" 373,338 370,333 367,338 362,338 364,343 362,348 367,348 370,352 373,348 379,348 376,343 379,338 373,338" fill="rgb(214,0,255)" />
<polygon points=" 376,323 379,318 373,318 370,313 367,318 362,318 364,323 362,328 367,328 370,333 373,328 379,328 376,323" fill="rgb(214,0,255)" />
<polygon points=" 390,338 396,338 393,333 396,328 390,328 387,323 384,328 379,328 381,333 379,338 384,338 387,343 390,338" fill="rgb(214,0,255)" />
<polygon points=" 384,358 387,362 390,358 396,357 393,352 396,348 390,347 387,343 384,347 379,348 381,352 379,357 384,358" fill="rgb(214,0,255)" />
<polygon points=" 364,362 362,367 367,367 370,372 373,367 379,367 376,362 379,357 373,357 370,352 367,357 362,357 364,362" fill="rgb(214,0,255)" />
<polygon points=" 350,347 345,348 347,352 345,357 350,358 353,362 356,358 362,357 359,352 362,348 356,347 353,343 350,347" fill="rgb(214,0,255)" />
<polygon points=" 356,328 353,323 350,328 345,328 347,333 345,338 350,338 353,343 356,338 362,338 359,333 362,328 356,328" fill="rgb(214,0,255)" />
<polygon points=" 263,460 260,465 266,465 269,470 272,465 277,465 274,460 277,455 272,455 269,450 266,455 260,455 263,460" fill="rgb(214,0,255)" />
<polygon points=" 274,440 277,436 272,435 269,431 266,435 260,436 263,440 260,445 266,446 269,450 272,446 277,445 274,440" fill="rgb(214,0,255)" />
<polygon points=" 288,455 294,455 291,450 294,445 288,445 286,440 283,445 277,445 280,450 277,455 283,455 286,460 288,455" fill="rgb(214,0,255)" />
<polygon points=" 283,475 286,480 288,475 294,475 291,470 294,465 288,465 286,460 283,465 277,465 280,470 277,475 283,475" fill="rgb(214,0,255)" />
<polygon points=" 263,480 260,484 266,485 269,489 272,485 277,484 274,480 277,475 272,474 269,470 266,474 260,475 263,480" fill="rgb(214,0,255)" />
<polygon points=" 249,465 243,465 246,470 243,475 249,475 252,480 255,475 260,475 258,470 260,465 255,465 252,460 249,465" fill="rgb(214,0,255)" />
<polygon points=" 255,445 252,440 249,445 243,445 246,450 243,455 249,455 252,460 255,455 260,455 258,450 260,445 255,445" fill="rgb(214,0,255)" />
<polygon points=" 274,401 277,396 272,396 269,392 266,396 260,396 263,401 260,406 266,406 269,411 272,406 277,406 274,401" fill="rgb(214,0,255)" />
<polygon points=" 274,382 277,377 272,377 269,372 266,377 260,377 263,382 260,387 266,387 269,392 272,387 277,387 274,382" fill="rgb(214,0,255)" />
<polygon points=" 288,397 294,396 291,392 294,387 288,386 286,382 283,386 277,387 280,392 277,396 283,397 286,401 288,397" fill="rgb(214,0,255)" />
<polygon points=" 283,416 286,421 288,416 294,416 291,411 294,406 288,406 286,401 283,406 277,406 280,411 277,416 283,416" fill="rgb(214,0,255)" />
<polygon points=" 263,421 260,426 266,426 269,431 272,426 277,426 274,421 277,416 272,416 269,411 266,416 260,416 263,421" fill="rgb(214,0,255)" />
<polygon points=" 249,406 243,406 246,411 243,416 249,416 252,421 255,416 260,416 258,411 260,406 255,406 252,401 249,406" fill="rgb(214,0,255)" />
<polygon points=" 255,386 252,382 249,386 243,387 246,392 243,396 249,397 252,401 255,397 260,396 258,392 260,387 255,386" fill="rgb(214,0,255)" />
<polygon points=" 322,436 328,436 325,431 328,426 322,426 319,421 317,426 311,426 314,431 311,436 317,436 319,440 322,436" fill="rgb(214,0,255)" />
<polygon points=" 325,411 328,406 322,406 319,401 317,406 311,406 314,411 311,416 317,416 319,421 322,416 328,416 325,411" fill="rgb(214,0,255)" />
<polygon points=" 339,426 345,426 342,421 345,416 339,416 336,411 333,416 328,416 331,421 328,426 333,426 336,431 339,426" fill="rgb(214,0,255)" />
<polygon points=" 333,446 336,450 339,446 345,445 342,440 345,436 339,435 336,431 333,435 328,436 331,440 328,445 333,446" fill="rgb(214,0,255)" />
<polygon points=" 314,450 311,455 317,455 319,460 322,455 328,455 325,450 328,445 322,445 319,440 317,445 311,445 314,450" fill="rgb(214,0,255)" />
<polygon points=" 300,435 294,436 297,440 294,445 300,446 303,450 305,446 311,445 308,440 311,436 305,435 303,431 300,435" fill="rgb(214,0,255)" />
<polygon points=" 305,416 303,411 300,416 294,416 297,421 294,426 300,426 303,431 305,426 311,426 308,421 311,416 305,416" fill="rgb(214,0,255)" />
<polygon points=" 317,494 319,499 322,494 328,494 325,489 328,484 322,484 319,480 317,484 311,484 314,489 311,494 317,494" fill="rgb(214,0,255)" />
<polygon points=" 325,470 328,465 322,465 319,460 317,465 311,465 314,470 311,475 317,475 319,480 322,475 328,475 325,470" fill="rgb(214,0,255)" />
<polygon points=" 339,485 345,484 342,480 345,475 339,474 336,470 333,474 328,475 331,480 328,484 333,485 336,489 339,485" fill="rgb(214,0,255)" />
<polygon points=" 333,504 336,509 339,504 345,504 342,499 345,494 339,494 336,489 333,494 328,494 331,499 328,504 333,504" fill="rgb(214,0,255)" />
<polygon points=" 314,509 311,514 317,514 319,519 322,514 328,514 325,509 328,504 322,504 319,499 317,504 311,504 314,509" fill="rgb(214,0,255)" />
<polygon points=" 300,494 294,494 297,499 294,504 300,504 303,509 305,504 311,504 308,499 311,494 305,494 303,489 300,494" fill="rgb(214,0,255)" />
<polygon points=" 305,474 303,470 300,474 294,475 297,480 294,484 300,485 303,489 305,485 311,484 308,480 311,475 305,474" fill="rgb(214,0,255)" />
<polygon points=" 263,519 260,524 266,524 269,528 272,524 277,524 274,519 277,514 272,514 269,509 266,514 260,514 263,519" fill="rgb(214,0,255)" />
<polygon points=" 274,499 277,494 272,494 269,489 266,494 260,494 263,499 260,504 266,504 269,509 272,504 277,504 274,499" fill="rgb(214,0,255)" />
<polygon points=" 288,514 294,514 291,509 294,504 288,504 286,499 283,504 277,504 280,509 277,514 283,514 286,519 288,514" fill="rgb(214,0,255)" />
<polygon points=" 283,534 286,538 288,534 294,533 291,528 294,524 288,523 286,519 283,523 277,524 280,528 277,533 283,534" fill="rgb(214,0,255)" />
<polygon points=" 263,538 260,543 266,543 269,548 272,543 277,543 274,538 277,533 272,533 269,528 266,533 260,533 263,538" fill="rgb(214,0,255)" />
<polygon points=" 249,523 243,524 246,528 243,533 249,534 252,538 255,534 260,533 258,528 260,524 255,523 252,519 249,523" fill="rgb(214,0,255)" />
<polygon points=" 255,504 252,499 249,504 243,504 246,509 243,514 249,514 252,519 255,514 260,514 258,509 260,504 255,504" fill="rgb(214,0,255)" />
<polygon points=" 215,484 209,484 212,489 209,494 215,494 218,499 221,494 226,494 224,489 226,484 221,484 218,480 215,484" fill="rgb(214,0,255)" />
<polygon points=" 224,470 226,465 221,465 218,460 215,465 209,465 212,470 209,475 215,475 218,480 221,475 226,475 224,470" fill="rgb(214,0,255)" />
<polygon points=" 238,485 243,484 241,480 243,475 238,474 235,470 232,474 226,475 229,480 226,484 232,485 235,489 238,485" fill="rgb(214,0,255)" />
<polygon points=" 232,504 235,509 238,504 243,504 241,499 243,494 238,494 235,489 232,494 226,494 229,499 226,504 232,504" fill="rgb(214,0,255)" />
<polygon points=" 212,509 209,514 215,514 218,519 221,514 226,514 224,509 226,504 221,504 218,499 215,504 209,504 212,509" fill="rgb(214,0,255)" />
<polygon points=" 198,494 192,494 195,499 192,504 198,504 201,509 204,504 209,504 207,499 209,494 204,494 201,489 198,494" fill="rgb(214,0,255)" />
<polygon points=" 204,474 201,470 198,474 192,475 195,480 192,484 198,485 201,489 204,485 209,484 207,480 209,475 204,474" fill="rgb(214,0,255)" />
<polygon points=" 221,426 218,421 215,426 209,426 212,431 209,436 215,436 218,440 221,436 226,436 224,431 226,426 221,426" fill="rgb(214,0,255)" />
<polygon points=" 224,411 226,406 221,406 218,401 215,406 209,406 212,411 209,416 215,416 218,421 221,416 226,416 224,411" fill="rgb(214,0,255)" />
<polygon points=" 238,426 243,426 241,421 243,416 238,416 235,411 232,416 226,416 229,421 226,426 232,426 235,431 238,426" fill="rgb(214,0,255)" />
<polygon points=" 232,446 235,450 238,446 243,445 241,440 243,436 238,435 235,431 232,435 226,436 229,440 226,445 232,446" fill="rgb(214,0,255)" />
<polygon points=" 212,450 209,455 215,455 218,460 221,455 226,455 224,450 226,445 221,445 218,440 215,445 209,445 212,450" fill="rgb(214,0,255)" />
<polygon points=" 198,435 192,436 195,440 192,445 198,446 201,450 204,446 209,445 207,440 209,436 204,435 201,431 198,435" fill="rgb(214,0,255)" />
<polygon points=" 204,416 201,411 198,416 192,416 195,421 192,426 198,426 201,431 204,426 209,426 207,421 209,416 204,416" fill="rgb(214,0,255)" />
<polygon points=" 113,367 108,367 110,372 108,377 113,377 116,382 119,377 125,377 122,372 125,367 119,367 116,362 113,367" fill="rgb(214,0,255)" />
<polygon points=" 122,352 125,348 119,347 116,343 113,347 108,348 110,352 108,357 113,358 116,362 119,358 125,357 122,352" fill="rgb(214,0,255)" />
<polygon points=" 136,367 142,367 139,362 142,357 136,357 133,352 130,357 125,357 127,362 125,367 130,367 133,372 136,367" fill="rgb(214,0,255)" />
<polygon points=" 130,387 133,392 136,387 142,387 139,382 142,377 136,377 133,372 130,377 125,377 127,382 125,387 130,387" fill="rgb(214,0,255)" />
<polygon points=" 110,392 108,396 113,397 116,401 119,397 125,396 122,392 125,387 119,386 116,382 113,386 108,387 110,392" fill="rgb(214,0,255)" />
<polygon points=" 96,377 91,377 93,382 91,387 96,387 99,392 102,387 108,387 105,382 108,377 102,377 99,372 96,377" fill="rgb(214,0,255)" />
<polygon points=" 102,357 99,352 96,357 91,357 93,362 91,367 96,367 99,372 102,367 108,367 105,362 108,357 102,357" fill="rgb(214,0,255)" />
<polygon points=" 122,313 125,308 119,308 116,304 113,308 108,308 110,313 108,318 113,318 116,323 119,318 125,318 122,313" fill="rgb(214,0,255)" />
<polygon points=" 122,294 125,289 119,289 116,284 113,289 108,289 110,294 108,299 113,299 116,304 119,299 125,299 122,294" fill="rgb(214,0,255)" />
<polygon points=" 136,309 142,308 139,304 142,299 136,298 133,294 130,298 125,299 127,304 125,308 130,309 133,313 136,309" fill="rgb(214,0,255)" />
<polygon points=" 130,328 133,333 136,328 142,328 139,323 142,318 136,318 133,313 130,318 125,318 127,323 125,328 130,328" fill="rgb(214,0,255)" />
<polygon points=" 110,333 108,338 113,338 116,343 119,338 125,338 122,333 125,328 119,328 116,323 113,328 108,328 110,333" fill="rgb(214,0,255)" />
<polygon points=" 96,318 91,318 93,323 91,328 96,328 99,333 102,328 108,328 105,323 108,318 102,318 99,313 96,318" fill="rgb(214,0,255)" />
<polygon points=" 102,298 99,294 96,298 91,299 93,304 91,308 96,309 99,313 102,309 108,308 105,304 108,299 102,298" fill="rgb(214,0,255)" />
<polygon points=" 170,348 175,348 173,343 175,338 170,338 167,333 164,338 159,338 161,343 159,348 164,348 167,352 170,348" fill="rgb(214,0,255)" />
<polygon points=" 173,323 175,318 170,318 167,313 164,318 159,318 161,323 159,328 164,328 167,333 170,328 175,328 173,323" fill="rgb(214,0,255)" />
<polygon points=" 187,338 192,338 190,333 192,328 187,328 184,323 181,328 175,328 178,333 175,338 181,338 184,343 187,338" fill="rgb(214,0,255)" />
<polygon points=" 181,358 184,362 187,358 192,357 190,352 192,348 187,347 184,343 181,347 175,348 178,352 175,357 181,358" fill="rgb(214,0,255)" />
<polygon points=" 161,362 159,367 164,367 167,372 170,367 175,367 173,362 175,357 170,357 167,352 164,357 159,357 161,362" fill="rgb(214,0,255)" />
<polygon points=" 147,347 142,348 144,352 142,357 147,358 150,362 153,358 159,357 156,352 159,348 153,347 150,343 147,347" fill="rgb(214,0,255)" />
<polygon points=" 153,328 150,323 147,328 142,328 144,333 142,338 147,338 150,343 153,338 159,338 156,333 159,328 153,328" fill="rgb(214,0,255)" />
<polygon points=" 164,406 167,411 170,406 175,406 173,401 175,396 170,396 167,392 164,396 159,396 161,401 159,406 164,406" fill="rgb(214,0,255)" />
<polygon points=" 173,382 175,377 170,377 167,372 164,377 159,377 161,382 159,387 164,387 167,392 170,387 175,387 173,382" fill="rgb(214,0,255)" />
<polygon points=" 187,397 192,396 190,392 192,387 187,386 184,382 181,386 175,387 178,392 175,396 181,397 184,401 187,397" fill="rgb(214,0,255)" />
<polygon points=" 181,416 184,421 187,416 192,416 190,411 192,406 187,406 184,401 181,406 175,406 178,411 175,416 181,416" fill="rgb(214,0,255)" />
<polygon points=" 161,421 159,426 164,426 167,431 170,426 175,426 173,421 175,416 170,416 167,411 164,416 159,416 161,421" fill="rgb(214,0,255)" />
<polygon points=" 147,406 142,406 144,411 142,416 147,416 150,421 153,416 159,416 156,411 159,406 153,406 150,401 147,406" fill="rgb(214,0,255)" />
<polygon points=" 153,386 150,382 147,386 142,387 144,392 142,396 147,397 150,401 153,397 159,396 156,392 159,387 153,386" fill="rgb(214,0,255)" />
<polygon points=" 110,431 108,436 113,436 116,440 119,436 125,436 122,431 125,426 119,426 116,421 113,426 108,426 110,431" fill="rgb(214,0,255)" />
<polygon points=" 122,411 125,406 119,406 116,401 113,406 108,406 110,411 108,416 113,416 116,421 119,416 125,416 122,411" fill="rgb(214,0,255)" />
<polygon points=" 136,426 142,426 139,421 142,416 136,416 133,411 130,416 125,416 127,421 125,426 130,426 133,431 136,426" fill="rgb(214,0,255)" />
<polygon points=" 130,446 133,450 136,446 142,445 139,440 142,436 136,435 133,431 130,435 125,436 127,440 125,445 130,446" fill="rgb(214,0,255)" />
<polygon points=" 110,450 108,455 113,455 116,460 119,455 125,455 122,450 125,445 119,445 116,440 113,445 108,445 110,450" fill="rgb(214,0,255)" />
<polygon points=" 96,435 91,436 93,440 91,445 96,446 99,450 102,446 108,445 105,440 108,436 102,435 99,431 96,435" fill="rgb(214,0,255)" />
<polygon points=" 102,416 99,411 96,416 91,416 93,421 91,426 96,426 99,431 102,426 108,426 105,421 108,416 102,416" fill="rgb(214,0,255)" />
<polygon points=" 62,396 57,396 60,401 57,406 62,406 65,411 68,406 74,406 71,401 74,396 68,396 65,392 62,396" fill="rgb(214,0,255)" />
<polygon points=" 71,382 74,377 68,377 65,372 62,377 57,377 60,382 57,387 62,387 65,392 68,387 74,387 71,382" fill="rgb(214,0,255)" />
<polygon points=" 85,397 91,396 88,392 91,387 85,386 82,382 79,386 74,387 76,392 74,396 79,397 82,401 85,397" fill="rgb(214,0,255)" />
<polygon points=" 79,416 82,421 85,416 91,416 88,411 91,406 85,406 82,401 79,406 74,406 76,411 74,416 79,416" fill="rgb(214,0,255)" />
<polygon points=" 60,421 57,426 62,426 65,431 68,426 74,426 71,421 74,416 68,416 65,411 62,416 57,416 60,421" fill="rgb(214,0,255)" />
<polygon points=" 46,406 40,406 43,411 40,416 46,416 48,421 51,416 57,416 54,411 57,406 51,406 48,401 46,406" fill="rgb(214,0,255)" />
<polygon points=" 51,386 48,382 46,386 40,387 43,392 40,396 46,397 48,401 51,397 57,396 54,392 57,387 51,386" fill="rgb(214,0,255)" />
<polygon points=" 68,338 65,333 62,338 57,338 60,343 57,348 62,348 65,352 68,348 74,348 71,343 74,338 68,338" fill="rgb(214,0,255)" />
<polygon points=" 71,323 74,318 68,318 65,313 62,318 57,318 60,323 57,328 62,328 65,333 68,328 74,328 71,323" fill="rgb(214,0,255)" />
<polygon points=" 85,338 91,338 88,333 91,328 85,328 82,323 79,328 74,328 76,333 74,338 79,338 82,343 85,338" fill="rgb(214,0,255)" />
<polygon points=" 79,358 82,362 85,358 91,357 88,352 91,348 85,347 82,343 79,347 74,348 76,352 74,357 79,358" fill="rgb(214,0,255)" />
<polygon points=" 60,362 57,367 62,367 65,372 68,367 74,367 71,362 74,357 68,357 65,352 62,357 57,357 60,362" fill="rgb(214,0,255)" />
<polygon points=" 46,347 40,348 43,352 40,357 46,358 48,362 51,358 57,357 54,352 57,348 51,347 48,343 46,347" fill="rgb(214,0,255)" />
<polygon points=" 51,328 48,323 46,328 40,328 43,333 40,338 46,338 48,343 51,338 57,338 54,333 57,328 51,328" fill="rgb(214,0,255)" />
<polygon points=" 119,191 116,186 113,191 108,191 110,196 108,201 113,201 116,206 119,201 125,201 122,196 125,191 119,191" fill="rgb(214,0,255)" />
<polygon points=" 122,176 125,172 119,171 116,167 113,171 108,172 110,176 108,181 113,182 116,186 119,182 125,181 122,176" fill="rgb(214,0,255)" />
<polygon points=" 136,191 142,191 139,186 142,181 136,181 133,176 130,181 125,181 127,186 125,191 130,191 133,196 136,191" fill="rgb(214,0,255)" />
<polygon points=" 130,211 133,216 136,211 142,211 139,206 142,201 136,201 133,196 130,201 125,201 127,206 125,211 130,211" fill="rgb(214,0,255)" />
<polygon points=" 110,216 108,220 113,221 116,225 119,221 125,220 122,216 125,211 119,210 116,206 113,210 108,211 110,216" fill="rgb(214,0,255)" />
<polygon points=" 96,201 91,201 93,206 91,211 96,211 99,216 102,211 108,211 105,206 108,201 102,201 99,196 96,201" fill="rgb(214,0,255)" />
<polygon points=" 102,181 99,176 96,181 91,181 93,186 91,191 96,191 99,196 102,191 108,191 105,186 108,181 102,181" fill="rgb(214,0,255)" />
<polygon points=" 122,137 125,132 119,132 116,128 113,132 108,132 110,137 108,142 113,142 116,147 119,142 125,142 122,137" fill="rgb(214,0,255)" />
<polygon points=" 122,118 125,113 119,113 116,108 113,113 108,113 110,118 108,123 113,123 116,128 119,123 125,123 122,118" fill="rgb(214,0,255)" />
<polygon points=" 136,133 142,132 139,128 142,123 136,122 133,118 130,122 125,123 127,128 125,132 130,133 133,137 136,133" fill="rgb(214,0,255)" />
<polygon points=" 130,152 133,157 136,152 142,152 139,147 142,142 136,142 133,137 130,142 125,142 127,147 125,152 130,152" fill="rgb(214,0,255)" />
<polygon points=" 110,157 108,162 113,162 116,167 119,162 125,162 122,157 125,152 119,152 116,147 113,152 108,152 110,157" fill="rgb(214,0,255)" />
<polygon points=" 96,142 91,142 93,147 91,152 96,152 99,157 102,152 108,152 105,147 108,142 102,142 99,137 96,142" fill="rgb(214,0,255)" />
<polygon points=" 102,122 99,118 96,122 91,123 93,128 91,132 96,133 99,137 102,133 108,132 105,128 108,123 102,122" fill="rgb(214,0,255)" />
<polygon points=" 170,172 175,172 173,167 175,162 170,162 167,157 164,162 159,162 161,167 159,172 164,172 167,176 170,172" fill="rgb(214,0,255)" />
<polygon points=" 173,147 175,142 170,142 167,137 164,142 159,142 161,147 159,152 164,152 167,157 170,152 175,152 173,147" fill="rgb(214,0,255)" />
<polygon points=" 187,162 192,162 190,157 192,152 187,152 184,147 181,152 175,152 178,157 175,162 181,162 184,167 187,162" fill="rgb(214,0,255)" />
<polygon points=" 181,182 184,186 187,182 192,181 190,176 192,172 187,171 184,167 181,171 175,172 178,176 175,181 181,182" fill="rgb(214,0,255)" />
<polygon points=" 161,186 159,191 164,191 167,196 170,191 175,191 173,186 175,181 170,181 167,176 164,181 159,181 161,186" fill="rgb(214,0,255)" />
<polygon points=" 147,171 142,172 144,176 142,181 147,182 150,186 153,182 159,181 156,176 159,172 153,171 150,167 147,171" fill="rgb(214,0,255)" />
<polygon points=" 153,152 150,147 147,152 142,152 144,157 142,162 147,162 150,167 153,162 159,162 156,157 159,152 153,152" fill="rgb(214,0,255)" />
<polygon points=" 164,230 167,235 170,230 175,230 173,225 175,220 170,220 167,216 164,220 159,220 161,225 159,230 164,230" fill="rgb(214,0,255)" />
<polygon points=" 173,206 175,201 170,201 167,196 164,201 159,201 161,206 159,211 164,211 167,216 170,211 175,211 173,206" fill="rgb(214,0,255)" />
<polygon points=" 187,221 192,220 190,216 192,211 187,210 184,206 181,210 175,211 178,216 175,220 181,221 184,225 187,221" fill="rgb(214,0,255)" />
<polygon points=" 181,240 184,245 187,240 192,240 190,235 192,230 187,230 184,225 181,230 175,230 178,235 175,240 181,240" fill="rgb(214,0,255)" />
<polygon points=" 161,245 159,250 164,250 167,255 170,250 175,250 173,245 175,240 170,240 167,235 164,240 159,240 161,245" fill="rgb(214,0,255)" />
<polygon points=" 147,230 142,230 144,235 142,240 147,240 150,245 153,240 159,240 156,235 159,230 153,230 150,225 147,230" fill="rgb(214,0,255)" />
<polygon points=" 153,210 150,206 147,210 142,211 144,216 142,220 147,221 150,225 153,221 159,220 156,216 159,211 153,210" fill="rgb(214,0,255)" />
<polygon points=" 110,255 108,260 113,260 116,264 119,260 125,260 122,255 125,250 119,250 116,245 113,250 108,250 110,255" fill="rgb(214,0,255)" />
<polygon points=" 122,235 125,230 119,230 116,225 113,230 108,230 110,235 108,240 113,240 116,245 119,240 125,240 122,235" fill="rgb(214,0,255)" />
<polygon points=" 136,250 142,250 139,245 142,240 136,240 133,235 130,240 125,240 127,245 125,250 130,250 133,255 136,250" fill="rgb(214,0,255)" />
<polygon points=" 130,270 133,274 136,270 142,269 139,264 142,260 136,259 133,255 130,259 125,260 127,264 125,269 130,270" fill="rgb(214,0,255)" />
<polygon points=" 110,274 108,279 113,279 116,284 119,279 125,279 122,274 125,269 119,269 116,264 113,269 108,269 110,274" fill="rgb(214,0,255)" />
<polygon points=" 96,259 91,260 93,264 91,269 96,270 99,274 102,270 108,269 105,264 108,260 102,259 99,255 96,259" fill="rgb(214,0,255)" />
<polygon points=" 102,240 99,235 96,240 91,240 93,245 91,250 96,250 99,255 102,250 108,250 105,245 108,240 102,240" fill="rgb(214,0,255)" />
<polygon points=" 62,220 57,220 60,225 57,230 62,230 65,235 68,230 74,230 71,225 74,220 68,220 65,216 62,220" fill="rgb(214,0,255)" />
<polygon points=" 71,206 74,201 68,201 65,196 62,201 57,201 60,206 57,211 62,211 65,216 68,211 74,211 71,206" fill="rgb(214,0,255)" />
<polygon points=" 85,221 91,220 88,216 91,211 85,210 82,206 79,210 74,211 76,216 74,220 79,221 82,225 85,221" fill="rgb(214,0,255)" />
<polygon points=" 79,240 82,245 85,240 91,240 88,235 91,230 85,230 82,225 79,230 74,230 76,235 74,240 79,240" fill="rgb(214,0,255)" />
<polygon points=" 60,245 57,250 62,250 65,255 68,250 74,250 71,245 74,240 68,240 65,235 62,240 57,240 60,245" fill="rgb(214,0,255)" />
<polygon points=" 46,230 40,230 43,235 40,240 46,240 48,245 51,240 57,240 54,235 57,230 51,230 48,225 46,230" fill="rgb(214,0,255)" />
<polygon points=" 51,210 48,206 46,210 40,211 43,216 40,220 46,221 48,225 51,221 57,220 54,216 57,211 51,210" fill="rgb(214,0,255)" />
<polygon points=" 68,162 65,157 62,162 57,162 60,167 57,172 62,172 65,176 68,172 74,172 71,167 74,162 68,162" fill="rgb(214,0,255)" />
<polygon points=" 71,147 74,142 68,142 65,137 62,142 57,142 60,147 57,152 62,152 65,157 68,152 74,152 71,147" fill="rgb(214,0,255)" />
<polygon points=" 85,162 91,162 88,157 91,152 85,152 82,147 79,152 74,152 76,157 74,162 79,162 82,167 85,162" fill="rgb(214,0,255)" />
<polygon points=" 79,182 82,186 85,182 91,181 88,176 91,172 85,171 82,167 79,171 74,172 76,176 74,181 79,182" fill="rgb(214,0,255)" />
<polygon points=" 60,186 57,191 62,191 65,196 68,191 74,191 71,186 74,181 68,181 65,176 62,181 57,181 60,186" fill="rgb(214,0,255)" />
<polygon points=" 46,171 40,172 43,176 40,181 46,182 48,186 51,182 57,181 54,176 57,172 51,171 48,167 46,171" fill="rgb(214,0,255)" />
<polygon points=" 51,152 48,147 46,152 40,152 43,157 40,162 46,162 48,167 51,162 57,162 54,157 57,152 51,152" fill="rgb(214,0,255)" /></svg>