<svg xmlns="http://www.w3.org/2000/svg" 
xmlns:xlink="http://www.w3.org/1999/xlink" 
version="1.1" baseProfile="full" 
width="537" height="568" >
<polygon points=" 401,284 497,152 335,170 269,20 203,170 40,152 137,284 40,416 203,398 269,548 335,398 497,416 401,284" fill="rgb(0,255,170)" />
<polygon points=" 313,284 345,240 291,246 269,196 247,246 192,240 225,284 192,328 247,322 269,372 291,322 345,328 313,284" fill="rgb(212,255,0)" />
<polygon points=" 313,108 345,64 291,70 269,20 247,70 192,64 225,108 192,152 247,146 269,196 291,146 345,152 313,108" fill="rgb(212,255,0)" />
<polygon points=" 443,234 497,240 465,196 497,152 443,158 421,108 399,158 345,152 377,196 345,240 399,234 421,284 443,234" fill="rgb(212,255,0)" />
<polygon points=" 399,410 421,460 443,410 497,416 465,372 497,328 443,334 421,284 399,334 345,328 377,372 345,416 399,410" fill="rgb(212,255,0)" />
<polygon points=" 225,460 192,504 247,498 269,548 291,498 345,504 313,460 345,416 291,422 269,372 247,422 192,416 225,460" fill="rgb(212,255,0)" />
<polygon points=" 94,334 40,328 72,372 40,416 94,410 116,460 138,410 192,416 160,372 192,328 138,334 116,284 94,334" fill="rgb(212,255,0)" />
<polygon points=" 138,158 116,108 94,158 40,152 72,196 40,240 94,234 116,284 138,234 192,240 160,196 192,152 138,158" fill="rgb(212,255,0)" />
<polygon points=" 283,284 294,269 276,271 269,255 261,271 243,269 254,284 243,299 261,297 269,313 276,297 294,299 283,284" fill="rgb(255,0,84)" />
<polygon points=" 283,225 294,211 276,213 269,196 261,213 243,211 254,225 243,240 261,238 269,255 276,238 294,240 283,225" fill="rgb(255,0,84)" />
<polygon points=" 327,267 345,269 334,255 345,240 327,242 319,225 312,242 294,240 305,255 294,269 312,267 319,284 327,267" fill="rgb(255,0,84)" />
<polygon points=" 312,326 319,343 327,326 345,328 334,313 345,299 327,301 319,284 312,301 294,299 305,313 294,328 312,326" fill="rgb(255,0,84)" />
<polygon points=" 254,343 243,357 261,355 269,372 276,355 294,357 283,343 294,328 276,330 269,313 261,330 243,328 254,343" fill="rgb(255,0,84)" />
<polygon points=" 210,301 192,299 203,313 192,328 210,326 218,343 225,326 243,328 232,313 243,299 225,301 218,284 210,301" fill="rgb(255,0,84)" />
<polygon points=" 225,242 218,225 210,242 192,240 203,255 192,269 210,267 218,284 225,267 243,269 232,255 243,240 225,242" fill="rgb(255,0,84)" />
<polygon points=" 283,108 294,93 276,95 269,79 261,95 243,93 254,108 243,123 261,121 269,137 276,121 294,123 283,108" fill="rgb(255,0,84)" />
<polygon points=" 283,49 294,35 276,37 269,20 261,37 243,35 254,49 243,64 261,62 269,79 276,62 294,64 283,49" fill="rgb(255,0,84)" />
<polygon points=" 327,91 345,93 334,79 345,64 327,66 319,49 312,66 294,64 305,79 294,93 312,91 319,108 327,91" fill="rgb(255,0,84)" />
<polygon points=" 312,150 319,167 327,150 345,152 334,137 345,123 327,125 319,108 312,125 294,123 305,137 294,152 312,150" fill="rgb(255,0,84)" />
<polygon points=" 254,167 243,181 261,179 269,196 276,179 294,181 283,167 294,152 276,154 269,137 261,154 243,152 254,167" fill="rgb(255,0,84)" />
<polygon points=" 210,125 192,123 203,137 192,152 210,150 218,167 225,150 243,152 232,137 243,123 225,125 218,108 210,125" fill="rgb(255,0,84)" />
<polygon points=" 225,66 218,49 210,66 192,64 203,79 192,93 210,91 218,108 225,91 243,93 232,79 243,64 225,66" fill="rgb(255,0,84)" />
<polygon points=" 428,209 446,211 436,196 446,181 428,183 421,167 414,183 396,181 406,196 396,211 414,209 421,225 428,209" fill="rgb(255,0,84)" />
<polygon points=" 436,137 446,123 428,125 421,108 414,125 396,123 406,137 396,152 414,150 421,167 428,150 446,152 436,137" fill="rgb(255,0,84)" />
<polygon points=" 479,179 497,181 487,167 497,152 479,154 472,137 465,154 446,152 457,167 446,181 465,179 472,196 479,179" fill="rgb(255,0,84)" />
<polygon points=" 465,238 472,255 479,238 497,240 487,225 497,211 479,213 472,196 465,213 446,211 457,225 446,240 465,238" fill="rgb(255,0,84)" />
<polygon points=" 406,255 396,269 414,267 421,284 428,267 446,269 436,255 446,240 428,242 421,225 414,242 396,240 406,255" fill="rgb(255,0,84)" />
<polygon points=" 363,213 345,211 356,225 345,240 363,238 370,255 378,238 396,240 385,225 396,211 378,213 370,196 363,213" fill="rgb(255,0,84)" />
<polygon points=" 378,154 370,137 363,154 345,152 356,167 345,181 363,179 370,196 378,179 396,181 385,167 396,152 378,154" fill="rgb(255,0,84)" />
<polygon points=" 414,385 421,401 428,385 446,387 436,372 446,357 428,359 421,343 414,359 396,357 406,372 396,387 414,385" fill="rgb(255,0,84)" />
<polygon points=" 436,313 446,299 428,301 421,284 414,301 396,299 406,313 396,328 414,326 421,343 428,326 446,328 436,313" fill="rgb(255,0,84)" />
<polygon points=" 479,355 497,357 487,343 497,328 479,330 472,313 465,330 446,328 457,343 446,357 465,355 472,372 479,355" fill="rgb(255,0,84)" />
<polygon points=" 465,414 472,431 479,414 497,416 487,401 497,387 479,389 472,372 465,389 446,387 457,401 446,416 465,414" fill="rgb(255,0,84)" />
<polygon points=" 406,431 396,445 414,443 421,460 428,443 446,445 436,431 446,416 428,418 421,401 414,418 396,416 406,431" fill="rgb(255,0,84)" />
<polygon points=" 363,389 345,387 356,401 345,416 363,414 370,431 378,414 396,416 385,401 396,387 378,389 370,372 363,389" fill="rgb(255,0,84)" />
<polygon points=" 378,330 370,313 363,330 345,328 356,343 345,357 363,355 370,372 378,355 396,357 385,343 396,328 378,330" fill="rgb(255,0,84)" />
<polygon points=" 254,460 243,475 261,473 269,489 276,473 294,475 283,460 294,445 276,447 269,431 261,447 243,445 254,460" fill="rgb(255,0,84)" />
<polygon points=" 283,401 294,387 276,389 269,372 261,389 243,387 254,401 243,416 261,414 269,431 276,414 294,416 283,401" fill="rgb(255,0,84)" />
<polygon points=" 327,443 345,445 334,431 345,416 327,418 319,401 312,418 294,416 305,431 294,445 312,443 319,460 327,443" fill="rgb(255,0,84)" />
<polygon points=" 312,502 319,519 327,502 345,504 334,489 345,475 327,477 319,460 312,477 294,475 305,489 294,504 312,502" fill="rgb(255,0,84)" />
<polygon points=" 254,519 243,533 261,531 269,548 276,531 294,533 283,519 294,504 276,506 269,489 261,506 243,504 254,519" fill="rgb(255,0,84)" />
<polygon points=" 210,477 192,475 203,489 192,504 210,502 218,519 225,502 243,504 232,489 243,475 225,477 218,460 210,477" fill="rgb(255,0,84)" />
<polygon points=" 225,418 218,401 210,418 192,416 203,431 192,445 210,443 218,460 225,443 243,445 232,431 243,416 225,418" fill="rgb(255,0,84)" />
<polygon points=" 109,359 91,357 102,372 91,387 109,385 116,401 124,385 142,387 131,372 142,357 124,359 116,343 109,359" fill="rgb(255,0,84)" />
<polygon points=" 131,313 142,299 124,301 116,284 109,301 91,299 102,313 91,328 109,326 116,343 124,326 142,328 131,313" fill="rgb(255,0,84)" />
<polygon points=" 174,355 192,357 182,343 192,328 174,330 167,313 160,330 142,328 152,343 142,357 160,355 167,372 174,355" fill="rgb(255,0,84)" />
<polygon points=" 160,414 167,431 174,414 192,416 182,401 192,387 174,389 167,372 160,389 142,387 152,401 142,416 160,414" fill="rgb(255,0,84)" />
<polygon points=" 102,431 91,445 109,443 116,460 124,443 142,445 131,431 142,416 124,418 116,401 109,418 91,416 102,431" fill="rgb(255,0,84)" />
<polygon points=" 58,389 40,387 51,401 40,416 58,414 65,431 73,414 91,416 80,401 91,387 73,389 65,372 58,389" fill="rgb(255,0,84)" />
<polygon points=" 73,330 65,313 58,330 40,328 51,343 40,357 58,355 65,372 73,355 91,357 80,343 91,328 73,330" fill="rgb(255,0,84)" />
<polygon points=" 124,183 116,167 109,183 91,181 102,196 91,211 109,209 116,225 124,209 142,211 131,196 142,181 124,183" fill="rgb(255,0,84)" />
<polygon points=" 131,137 142,123 124,125 116,108 109,125 91,123 102,137 91,152 109,150 116,167 124,150 142,152 131,137" fill="rgb(255,0,84)" />
<polygon points=" 174,179 192,181 182,167 192,152 174,154 167,137 160,154 142,152 152,167 142,181 160,179 167,196 174,179" fill="rgb(255,0,84)" />
<polygon points=" 160,238 167,255 174,238 192,240 182,225 192,211 174,213 167,196 160,213 142,211 152,225 142,240 160,238" fill="rgb(255,0,84)" />
<polygon points=" 102,255 91,269 109,267 116,284 124,267 142,269 131,255 142,240 124,242 116,225 109,242 91,240 102,255" fill="rgb(255,0,84)" />
<polygon points=" 58,213 40,211 51,225 40,240 58,238 65,255 73,238 91,240 80,225 91,211 73,213 65,196 58,213" fill="rgb(255,0,84)" />
<polygon points=" 73,154 65,137 58,154 40,152 51,167 40,181 58,179 65,196 73,179 91,181 80,167 91,152 73,154" fill="rgb(255,0,84)" />
<polygon points=" 274,284 277,279 271,280 269,274 266,280 260,279 264,284 260,289 266,288 269,294 271,288 277,289 274,284" fill="rgb(44,0,255)" />
<polygon points=" 274,264 277,260 271,260 269,255 266,260 260,260 264,264 260,269 266,269 269,274 271,269 277,269 274,264" fill="rgb(44,0,255)" />
<polygon points=" 288,278 294,279 290,274 294,269 288,270 286,264 283,270 277,269 281,274 277,279 283,278 286,284 288,278" fill="rgb(44,0,255)" />
<polygon points=" 283,298 286,304 288,298 294,299 290,294 294,289 288,290 286,284 283,290 277,289 281,294 277,299 283,298" fill="rgb(44,0,255)" />
<polygon points=" 264,304 260,308 266,308 269,313 271,308 277,308 274,304 277,299 271,299 269,294 266,299 260,299 264,304" fill="rgb(44,0,255)" />
<polygon points=" 249,290 243,289 247,294 243,299 249,298 252,304 254,298 260,299 257,294 260,289 254,290 252,284 249,290" fill="rgb(44,0,255)" />
<polygon points=" 254,270 252,264 249,270 243,269 247,274 243,279 249,278 252,284 254,278 260,279 257,274 260,269 254,270" fill="rgb(44,0,255)" />
<polygon points=" 274,225 277,220 271,221 269,216 266,221 260,220 264,225 260,230 266,230 269,235 271,230 277,230 274,225" fill="rgb(44,0,255)" />
<polygon points=" 274,206 277,201 271,202 269,196 266,202 260,201 264,206 260,211 266,210 269,216 271,210 277,211 274,206" fill="rgb(44,0,255)" />
<polygon points=" 288,220 294,220 290,216 294,211 288,211 286,206 283,211 277,211 281,216 277,220 283,220 286,225 288,220" fill="rgb(44,0,255)" />
<polygon points=" 283,239 286,245 288,239 294,240 290,235 294,230 288,231 286,225 283,231 277,230 281,235 277,240 283,239" fill="rgb(44,0,255)" />
<polygon points=" 264,245 260,250 266,249 269,255 271,249 277,250 274,245 277,240 271,241 269,235 266,241 260,240 264,245" fill="rgb(44,0,255)" />
<polygon points=" 249,231 243,230 247,235 243,240 249,239 252,245 254,239 260,240 257,235 260,230 254,231 252,225 249,231" fill="rgb(44,0,255)" />
<polygon points=" 254,211 252,206 249,211 243,211 247,216 243,220 249,220 252,225 254,220 260,220 257,216 260,211 254,211" fill="rgb(44,0,255)" />
<polygon points=" 322,259 328,260 324,255 328,250 322,250 319,245 317,250 311,250 315,255 311,260 317,259 319,264 322,259" fill="rgb(44,0,255)" />
<polygon points=" 324,235 328,230 322,231 319,225 317,231 311,230 315,235 311,240 317,239 319,245 322,239 328,240 324,235" fill="rgb(44,0,255)" />
<polygon points=" 339,249 345,250 341,245 345,240 339,241 336,235 334,241 328,240 331,245 328,250 334,249 336,255 339,249" fill="rgb(44,0,255)" />
<polygon points=" 334,269 336,274 339,269 345,269 341,264 345,260 339,260 336,255 334,260 328,260 331,264 328,269 334,269" fill="rgb(44,0,255)" />
<polygon points=" 315,274 311,279 317,278 319,284 322,278 328,279 324,274 328,269 322,270 319,264 317,270 311,269 315,274" fill="rgb(44,0,255)" />
<polygon points=" 300,260 294,260 298,264 294,269 300,269 303,274 305,269 311,269 307,264 311,260 305,260 303,255 300,260" fill="rgb(44,0,255)" />
<polygon points=" 305,241 303,235 300,241 294,240 298,245 294,250 300,249 303,255 305,249 311,250 307,245 311,240 305,241" fill="rgb(44,0,255)" />
<polygon points=" 317,318 319,323 322,318 328,318 324,313 328,308 322,309 319,304 317,309 311,308 315,313 311,318 317,318" fill="rgb(44,0,255)" />
<polygon points=" 324,294 328,289 322,290 319,284 317,290 311,289 315,294 311,299 317,298 319,304 322,298 328,299 324,294" fill="rgb(44,0,255)" />
<polygon points=" 339,308 345,308 341,304 345,299 339,299 336,294 334,299 328,299 331,304 328,308 334,308 336,313 339,308" fill="rgb(44,0,255)" />
<polygon points=" 334,327 336,333 339,327 345,328 341,323 345,318 339,319 336,313 334,319 328,318 331,323 328,328 334,327" fill="rgb(44,0,255)" />
<polygon points=" 315,333 311,338 317,337 319,343 322,337 328,338 324,333 328,328 322,329 319,323 317,329 311,328 315,333" fill="rgb(44,0,255)" />
<polygon points=" 300,319 294,318 298,323 294,328 300,327 303,333 305,327 311,328 307,323 311,318 305,319 303,313 300,319" fill="rgb(44,0,255)" />
<polygon points=" 305,299 303,294 300,299 294,299 298,304 294,308 300,308 303,313 305,308 311,308 307,304 311,299 305,299" fill="rgb(44,0,255)" />
<polygon points=" 264,343 260,348 266,347 269,352 271,347 277,348 274,343 277,338 271,338 269,333 266,338 260,338 264,343" fill="rgb(44,0,255)" />
<polygon points=" 274,323 277,318 271,319 269,313 266,319 260,318 264,323 260,328 266,327 269,333 271,327 277,328 274,323" fill="rgb(44,0,255)" />
<polygon points=" 288,337 294,338 290,333 294,328 288,329 286,323 283,329 277,328 281,333 277,338 283,337 286,343 288,337" fill="rgb(44,0,255)" />
<polygon points=" 283,357 286,362 288,357 294,357 290,352 294,348 288,348 286,343 283,348 277,348 281,352 277,357 283,357" fill="rgb(44,0,255)" />
<polygon points=" 264,362 260,367 266,366 269,372 271,366 277,367 274,362 277,357 271,358 269,352 266,358 260,357 264,362" fill="rgb(44,0,255)" />
<polygon points=" 249,348 243,348 247,352 243,357 249,357 252,362 254,357 260,357 257,352 260,348 254,348 252,343 249,348" fill="rgb(44,0,255)" />
<polygon points=" 254,329 252,323 249,329 243,328 247,333 243,338 249,337 252,343 254,337 260,338 257,333 260,328 254,329" fill="rgb(44,0,255)" />
<polygon points=" 215,309 209,308 213,313 209,318 215,318 218,323 220,318 226,318 223,313 226,308 220,309 218,304 215,309" fill="rgb(44,0,255)" />
<polygon points=" 223,294 226,289 220,290 218,284 215,290 209,289 213,294 209,299 215,298 218,304 220,298 226,299 223,294" fill="rgb(44,0,255)" />
<polygon points=" 237,308 243,308 240,304 243,299 237,299 235,294 232,299 226,299 230,304 226,308 232,308 235,313 237,308" fill="rgb(44,0,255)" />
<polygon points=" 232,327 235,333 237,327 243,328 240,323 243,318 237,319 235,313 232,319 226,318 230,323 226,328 232,327" fill="rgb(44,0,255)" />
<polygon points=" 213,333 209,338 215,337 218,343 220,337 226,338 223,333 226,328 220,329 218,323 215,329 209,328 213,333" fill="rgb(44,0,255)" />
<polygon points=" 198,319 192,318 196,323 192,328 198,327 201,333 203,327 209,328 206,323 209,318 203,319 201,313 198,319" fill="rgb(44,0,255)" />
<polygon points=" 203,299 201,294 198,299 192,299 196,304 192,308 198,308 201,313 203,308 209,308 206,304 209,299 203,299" fill="rgb(44,0,255)" />
<polygon points=" 220,250 218,245 215,250 209,250 213,255 209,260 215,259 218,264 220,259 226,260 223,255 226,250 220,250" fill="rgb(44,0,255)" />
<polygon points=" 223,235 226,230 220,231 218,225 215,231 209,230 213,235 209,240 215,239 218,245 220,239 226,240 223,235" fill="rgb(44,0,255)" />
<polygon points=" 237,249 243,250 240,245 243,240 237,241 235,235 232,241 226,240 230,245 226,250 232,249 235,255 237,249" fill="rgb(44,0,255)" />
<polygon points=" 232,269 235,274 237,269 243,269 240,264 243,260 237,260 235,255 232,260 226,260 230,264 226,269 232,269" fill="rgb(44,0,255)" />
<polygon points=" 213,274 209,279 215,278 218,284 220,278 226,279 223,274 226,269 220,270 218,264 215,270 209,269 213,274" fill="rgb(44,0,255)" />
<polygon points=" 198,260 192,260 196,264 192,269 198,269 201,274 203,269 209,269 206,264 209,260 203,260 201,255 198,260" fill="rgb(44,0,255)" />
<polygon points=" 203,241 201,235 198,241 192,240 196,245 192,250 198,249 201,255 203,249 209,250 206,245 209,240 203,241" fill="rgb(44,0,255)" />
<polygon points=" 274,108 277,103 271,104 269,98 266,104 260,103 264,108 260,113 266,112 269,118 271,112 277,113 274,108" fill="rgb(44,0,255)" />
<polygon points=" 274,88 277,84 271,84 269,79 266,84 260,84 264,88 260,93 266,93 269,98 271,93 277,93 274,88" fill="rgb(44,0,255)" />
<polygon points=" 288,102 294,103 290,98 294,93 288,94 286,88 283,94 277,93 281,98 277,103 283,102 286,108 288,102" fill="rgb(44,0,255)" />
<polygon points=" 283,122 286,128 288,122 294,123 290,118 294,113 288,114 286,108 283,114 277,113 281,118 277,123 283,122" fill="rgb(44,0,255)" />
<polygon points=" 264,128 260,132 266,132 269,137 271,132 277,132 274,128 277,123 271,123 269,118 266,123 260,123 264,128" fill="rgb(44,0,255)" />
<polygon points=" 249,114 243,113 247,118 243,123 249,122 252,128 254,122 260,123 257,118 260,113 254,114 252,108 249,114" fill="rgb(44,0,255)" />
<polygon points=" 254,94 252,88 249,94 243,93 247,98 243,103 249,102 252,108 254,102 260,103 257,98 260,93 254,94" fill="rgb(44,0,255)" />
<polygon points=" 274,49 277,44 271,45 269,40 266,45 260,44 264,49 260,54 266,54 269,59 271,54 277,54 274,49" fill="rgb(44,0,255)" />
<polygon points=" 274,30 277,25 271,26 269,20 266,26 260,25 264,30 260,35 266,34 269,40 271,34 277,35 274,30" fill="rgb(44,0,255)" />
<polygon points=" 288,44 294,44 290,40 294,35 288,35 286,30 283,35 277,35 281,40 277,44 283,44 286,49 288,44" fill="rgb(44,0,255)" />
<polygon points=" 283,63 286,69 288,63 294,64 290,59 294,54 288,55 286,49 283,55 277,54 281,59 277,64 283,63" fill="rgb(44,0,255)" />
<polygon points=" 264,69 260,74 266,73 269,79 271,73 277,74 274,69 277,64 271,65 269,59 266,65 260,64 264,69" fill="rgb(44,0,255)" />
<polygon points=" 249,55 243,54 247,59 243,64 249,63 252,69 254,63 260,64 257,59 260,54 254,55 252,49 249,55" fill="rgb(44,0,255)" />
<polygon points=" 254,35 252,30 249,35 243,35 247,40 243,44 249,44 252,49 254,44 260,44 257,40 260,35 254,35" fill="rgb(44,0,255)" />
<polygon points=" 322,83 328,84 324,79 328,74 322,74 319,69 317,74 311,74 315,79 311,84 317,83 319,88 322,83" fill="rgb(44,0,255)" />
<polygon points=" 324,59 328,54 322,55 319,49 317,55 311,54 315,59 311,64 317,63 319,69 322,63 328,64 324,59" fill="rgb(44,0,255)" />
<polygon points=" 339,73 345,74 341,69 345,64 339,65 336,59 334,65 328,64 331,69 328,74 334,73 336,79 339,73" fill="rgb(44,0,255)" />
<polygon points=" 334,93 336,98 339,93 345,93 341,88 345,84 339,84 336,79 334,84 328,84 331,88 328,93 334,93" fill="rgb(44,0,255)" />
<polygon points=" 315,98 311,103 317,102 319,108 322,102 328,103 324,98 328,93 322,94 319,88 317,94 311,93 315,98" fill="rgb(44,0,255)" />
<polygon points=" 300,84 294,84 298,88 294,93 300,93 303,98 305,93 311,93 307,88 311,84 305,84 303,79 300,84" fill="rgb(44,0,255)" />
<polygon points=" 305,65 303,59 300,65 294,64 298,69 294,74 300,73 303,79 305,73 311,74 307,69 311,64 305,65" fill="rgb(44,0,255)" />
<polygon points=" 317,142 319,147 322,142 328,142 324,137 328,132 322,133 319,128 317,133 311,132 315,137 311,142 317,142" fill="rgb(44,0,255)" />
<polygon points=" 324,118 328,113 322,114 319,108 317,114 311,113 315,118 311,123 317,122 319,128 322,122 328,123 324,118" fill="rgb(44,0,255)" />
<polygon points=" 339,132 345,132 341,128 345,123 339,123 336,118 334,123 328,123 331,128 328,132 334,132 336,137 339,132" fill="rgb(44,0,255)" />
<polygon points=" 334,151 336,157 339,151 345,152 341,147 345,142 339,143 336,137 334,143 328,142 331,147 328,152 334,151" fill="rgb(44,0,255)" />
<polygon points=" 315,157 311,162 317,161 319,167 322,161 328,162 324,157 328,152 322,153 319,147 317,153 311,152 315,157" fill="rgb(44,0,255)" />
<polygon points=" 300,143 294,142 298,147 294,152 300,151 303,157 305,151 311,152 307,147 311,142 305,143 303,137 300,143" fill="rgb(44,0,255)" />
<polygon points=" 305,123 303,118 300,123 294,123 298,128 294,132 300,132 303,137 305,132 311,132 307,128 311,123 305,123" fill="rgb(44,0,255)" />
<polygon points=" 264,167 260,172 266,171 269,176 271,171 277,172 274,167 277,162 271,162 269,157 266,162 260,162 264,167" fill="rgb(44,0,255)" />
<polygon points=" 274,147 277,142 271,143 269,137 266,143 260,142 264,147 260,152 266,151 269,157 271,151 277,152 274,147" fill="rgb(44,0,255)" />
<polygon points=" 288,161 294,162 290,157 294,152 288,153 286,147 283,153 277,152 281,157 277,162 283,161 286,167 288,161" fill="rgb(44,0,255)" />
<polygon points=" 283,181 286,186 288,181 294,181 290,176 294,172 288,172 286,167 283,172 277,172 281,176 277,181 283,181" fill="rgb(44,0,255)" />
<polygon points=" 264,186 260,191 266,190 269,196 271,190 277,191 274,186 277,181 271,182 269,176 266,182 260,181 264,186" fill="rgb(44,0,255)" />
<polygon points=" 249,172 243,172 247,176 243,181 249,181 252,186 254,181 260,181 257,176 260,172 254,172 252,167 249,172" fill="rgb(44,0,255)" />
<polygon points=" 254,153 252,147 249,153 243,152 247,157 243,162 249,161 252,167 254,161 260,162 257,157 260,152 254,153" fill="rgb(44,0,255)" />
<polygon points=" 215,133 209,132 213,137 209,142 215,142 218,147 220,142 226,142 223,137 226,132 220,133 218,128 215,133" fill="rgb(44,0,255)" />
<polygon points=" 223,118 226,113 220,114 218,108 215,114 209,113 213,118 209,123 215,122 218,128 220,122 226,123 223,118" fill="rgb(44,0,255)" />
<polygon points=" 237,132 243,132 240,128 243,123 237,123 235,118 232,123 226,123 230,128 226,132 232,132 235,137 237,132" fill="rgb(44,0,255)" />
<polygon points=" 232,151 235,157 237,151 243,152 240,147 243,142 237,143 235,137 232,143 226,142 230,147 226,152 232,151" fill="rgb(44,0,255)" />
<polygon points=" 213,157 209,162 215,161 218,167 220,161 226,162 223,157 226,152 220,153 218,147 215,153 209,152 213,157" fill="rgb(44,0,255)" />
<polygon points=" 198,143 192,142 196,147 192,152 198,151 201,157 203,151 209,152 206,147 209,142 203,143 201,137 198,143" fill="rgb(44,0,255)" />
<polygon points=" 203,123 201,118 198,123 192,123 196,128 192,132 198,132 201,137 203,132 209,132 206,128 209,123 203,123" fill="rgb(44,0,255)" />
<polygon points=" 220,74 218,69 215,74 209,74 213,79 209,84 215,83 218,88 220,83 226,84 223,79 226,74 220,74" fill="rgb(44,0,255)" />
<polygon points=" 223,59 226,54 220,55 218,49 215,55 209,54 213,59 209,64 215,63 218,69 220,63 226,64 223,59" fill="rgb(44,0,255)" />
<polygon points=" 237,73 243,74 240,69 243,64 237,65 235,59 232,65 226,64 230,69 226,74 232,73 235,79 237,73" fill="rgb(44,0,255)" />
<polygon points=" 232,93 235,98 237,93 243,93 240,88 243,84 237,84 235,79 232,84 226,84 230,88 226,93 232,93" fill="rgb(44,0,255)" />
<polygon points=" 213,98 209,103 215,102 218,108 220,102 226,103 223,98 226,93 220,94 218,88 215,94 209,93 213,98" fill="rgb(44,0,255)" />
<polygon points=" 198,84 192,84 196,88 192,93 198,93 201,98 203,93 209,93 206,88 209,84 203,84 201,79 198,84" fill="rgb(44,0,255)" />
<polygon points=" 203,65 201,59 198,65 192,64 196,69 192,74 198,73 201,79 203,73 209,74 206,69 209,64 203,65" fill="rgb(44,0,255)" />
<polygon points=" 423,200 430,201 426,196 430,191 423,192 421,186 419,192 413,191 416,196 413,201 419,200 421,206 423,200" fill="rgb(44,0,255)" />
<polygon points=" 426,176 430,172 423,172 421,167 419,172 413,172 416,176 413,181 419,181 421,186 423,181 430,181 426,176" fill="rgb(44,0,255)" />
<polygon points=" 440,190 446,191 443,186 446,181 440,182 438,176 436,182 430,181 433,186 430,191 436,190 438,196 440,190" fill="rgb(44,0,255)" />
<polygon points=" 436,210 438,216 440,210 446,211 443,206 446,201 440,202 438,196 436,202 430,201 433,206 430,211 436,210" fill="rgb(44,0,255)" />
<polygon points=" 416,216 413,220 419,220 421,225 423,220 430,220 426,216 430,211 423,211 421,206 419,211 413,211 416,216" fill="rgb(44,0,255)" />
<polygon points=" 402,202 396,201 399,206 396,211 402,210 404,216 407,210 413,211 409,206 413,201 407,202 404,196 402,202" fill="rgb(44,0,255)" />
<polygon points=" 407,182 404,176 402,182 396,181 399,186 396,191 402,190 404,196 407,190 413,191 409,186 413,181 407,182" fill="rgb(44,0,255)" />
<polygon points=" 426,137 430,132 423,133 421,128 419,133 413,132 416,137 413,142 419,142 421,147 423,142 430,142 426,137" fill="rgb(44,0,255)" />
<polygon points=" 426,118 430,113 423,114 421,108 419,114 413,113 416,118 413,123 419,122 421,128 423,122 430,123 426,118" fill="rgb(44,0,255)" />
<polygon points=" 440,132 446,132 443,128 446,123 440,123 438,118 436,123 430,123 433,128 430,132 436,132 438,137 440,132" fill="rgb(44,0,255)" />
<polygon points=" 436,151 438,157 440,151 446,152 443,147 446,142 440,143 438,137 436,143 430,142 433,147 430,152 436,151" fill="rgb(44,0,255)" />
<polygon points=" 416,157 413,162 419,161 421,167 423,161 430,162 426,157 430,152 423,153 421,147 419,153 413,152 416,157" fill="rgb(44,0,255)" />
<polygon points=" 402,143 396,142 399,147 396,152 402,151 404,157 407,151 413,152 409,147 413,142 407,143 404,137 402,143" fill="rgb(44,0,255)" />
<polygon points=" 407,123 404,118 402,123 396,123 399,128 396,132 402,132 404,137 407,132 413,132 409,128 413,123 407,123" fill="rgb(44,0,255)" />
<polygon points=" 474,171 480,172 477,167 480,162 474,162 472,157 469,162 463,162 467,167 463,172 469,171 472,176 474,171" fill="rgb(44,0,255)" />
<polygon points=" 477,147 480,142 474,143 472,137 469,143 463,142 467,147 463,152 469,151 472,157 474,151 480,152 477,147" fill="rgb(44,0,255)" />
<polygon points=" 491,161 497,162 494,157 497,152 491,153 489,147 486,153 480,152 484,157 480,162 486,161 489,167 491,161" fill="rgb(44,0,255)" />
<polygon points=" 486,181 489,186 491,181 497,181 494,176 497,172 491,172 489,167 486,172 480,172 484,176 480,181 486,181" fill="rgb(44,0,255)" />
<polygon points=" 467,186 463,191 469,190 472,196 474,190 480,191 477,186 480,181 474,182 472,176 469,182 463,181 467,186" fill="rgb(44,0,255)" />
<polygon points=" 452,172 446,172 450,176 446,181 452,181 455,186 457,181 463,181 460,176 463,172 457,172 455,167 452,172" fill="rgb(44,0,255)" />
<polygon points=" 457,153 455,147 452,153 446,152 450,157 446,162 452,161 455,167 457,161 463,162 460,157 463,152 457,153" fill="rgb(44,0,255)" />
<polygon points=" 469,230 472,235 474,230 480,230 477,225 480,220 474,221 472,216 469,221 463,220 467,225 463,230 469,230" fill="rgb(44,0,255)" />
<polygon points=" 477,206 480,201 474,202 472,196 469,202 463,201 467,206 463,211 469,210 472,216 474,210 480,211 477,206" fill="rgb(44,0,255)" />
<polygon points=" 491,220 497,220 494,216 497,211 491,211 489,206 486,211 480,211 484,216 480,220 486,220 489,225 491,220" fill="rgb(44,0,255)" />
<polygon points=" 486,239 489,245 491,239 497,240 494,235 497,230 491,231 489,225 486,231 480,230 484,235 480,240 486,239" fill="rgb(44,0,255)" />
<polygon points=" 467,245 463,250 469,249 472,255 474,249 480,250 477,245 480,240 474,241 472,235 469,241 463,240 467,245" fill="rgb(44,0,255)" />
<polygon points=" 452,231 446,230 450,235 446,240 452,239 455,245 457,239 463,240 460,235 463,230 457,231 455,225 452,231" fill="rgb(44,0,255)" />
<polygon points=" 457,211 455,206 452,211 446,211 450,216 446,220 452,220 455,225 457,220 463,220 460,216 463,211 457,211" fill="rgb(44,0,255)" />
<polygon points=" 416,255 413,260 419,259 421,264 423,259 430,260 426,255 430,250 423,250 421,245 419,250 413,250 416,255" fill="rgb(44,0,255)" />
<polygon points=" 426,235 430,230 423,231 421,225 419,231 413,230 416,235 413,240 419,239 421,245 423,239 430,240 426,235" fill="rgb(44,0,255)" />
<polygon points=" 440,249 446,250 443,245 446,240 440,241 438,235 436,241 430,240 433,245 430,250 436,249 438,255 440,249" fill="rgb(44,0,255)" />
<polygon points=" 436,269 438,274 440,269 446,269 443,264 446,260 440,260 438,255 436,260 430,260 433,264 430,269 436,269" fill="rgb(44,0,255)" />
<polygon points=" 416,274 413,279 419,278 421,284 423,278 430,279 426,274 430,269 423,270 421,264 419,270 413,269 416,274" fill="rgb(44,0,255)" />
<polygon points=" 402,260 396,260 399,264 396,269 402,269 404,274 407,269 413,269 409,264 413,260 407,260 404,255 402,260" fill="rgb(44,0,255)" />
<polygon points=" 407,241 404,235 402,241 396,240 399,245 396,250 402,249 404,255 407,249 413,250 409,245 413,240 407,241" fill="rgb(44,0,255)" />
<polygon points=" 368,221 362,220 365,225 362,230 368,230 370,235 373,230 379,230 375,225 379,220 373,221 370,216 368,221" fill="rgb(44,0,255)" />
<polygon points=" 375,206 379,201 373,202 370,196 368,202 362,201 365,206 362,211 368,210 370,216 373,210 379,211 375,206" fill="rgb(44,0,255)" />
<polygon points=" 390,220 396,220 392,216 396,211 390,211 387,206 385,211 379,211 382,216 379,220 385,220 387,225 390,220" fill="rgb(44,0,255)" />
<polygon points=" 385,239 387,245 390,239 396,240 392,235 396,230 390,231 387,225 385,231 379,230 382,235 379,240 385,239" fill="rgb(44,0,255)" />
<polygon points=" 365,245 362,250 368,249 370,255 373,249 379,250 375,245 379,240 373,241 370,235 368,241 362,240 365,245" fill="rgb(44,0,255)" />
<polygon points=" 351,231 345,230 348,235 345,240 351,239 353,245 356,239 362,240 358,235 362,230 356,231 353,225 351,231" fill="rgb(44,0,255)" />
<polygon points=" 356,211 353,206 351,211 345,211 348,216 345,220 351,220 353,225 356,220 362,220 358,216 362,211 356,211" fill="rgb(44,0,255)" />
<polygon points=" 373,162 370,157 368,162 362,162 365,167 362,172 368,171 370,176 373,171 379,172 375,167 379,162 373,162" fill="rgb(44,0,255)" />
<polygon points=" 375,147 379,142 373,143 370,137 368,143 362,142 365,147 362,152 368,151 370,157 373,151 379,152 375,147" fill="rgb(44,0,255)" />
<polygon points=" 390,161 396,162 392,157 396,152 390,153 387,147 385,153 379,152 382,157 379,162 385,161 387,167 390,161" fill="rgb(44,0,255)" />
<polygon points=" 385,181 387,186 390,181 396,181 392,176 396,172 390,172 387,167 385,172 379,172 382,176 379,181 385,181" fill="rgb(44,0,255)" />
<polygon points=" 365,186 362,191 368,190 370,196 373,190 379,191 375,186 379,181 373,182 370,176 368,182 362,181 365,186" fill="rgb(44,0,255)" />
<polygon points=" 351,172 345,172 348,176 345,181 351,181 353,186 356,181 362,181 358,176 362,172 356,172 353,167 351,172" fill="rgb(44,0,255)" />
<polygon points=" 356,153 353,147 351,153 345,152 348,157 345,162 351,161 353,167 356,161 362,162 358,157 362,152 356,153" fill="rgb(44,0,255)" />
<polygon points=" 419,376 421,382 423,376 430,377 426,372 430,367 423,368 421,362 419,368 413,367 416,372 413,377 419,376" fill="rgb(44,0,255)" />
<polygon points=" 426,352 430,348 423,348 421,343 419,348 413,348 416,352 413,357 419,357 421,362 423,357 430,357 426,352" fill="rgb(44,0,255)" />
<polygon points=" 440,366 446,367 443,362 446,357 440,358 438,352 436,358 430,357 433,362 430,367 436,366 438,372 440,366" fill="rgb(44,0,255)" />
<polygon points=" 436,386 438,392 440,386 446,387 443,382 446,377 440,378 438,372 436,378 430,377 433,382 430,387 436,386" fill="rgb(44,0,255)" />
<polygon points=" 416,392 413,396 419,396 421,401 423,396 430,396 426,392 430,387 423,387 421,382 419,387 413,387 416,392" fill="rgb(44,0,255)" />
<polygon points=" 402,378 396,377 399,382 396,387 402,386 404,392 407,386 413,387 409,382 413,377 407,378 404,372 402,378" fill="rgb(44,0,255)" />
<polygon points=" 407,358 404,352 402,358 396,357 399,362 396,367 402,366 404,372 407,366 413,367 409,362 413,357 407,358" fill="rgb(44,0,255)" />
<polygon points=" 426,313 430,308 423,309 421,304 419,309 413,308 416,313 413,318 419,318 421,323 423,318 430,318 426,313" fill="rgb(44,0,255)" />
<polygon points=" 426,294 430,289 423,290 421,284 419,290 413,289 416,294 413,299 419,298 421,304 423,298 430,299 426,294" fill="rgb(44,0,255)" />
<polygon points=" 440,308 446,308 443,304 446,299 440,299 438,294 436,299 430,299 433,304 430,308 436,308 438,313 440,308" fill="rgb(44,0,255)" />
<polygon points=" 436,327 438,333 440,327 446,328 443,323 446,318 440,319 438,313 436,319 430,318 433,323 430,328 436,327" fill="rgb(44,0,255)" />
<polygon points=" 416,333 413,338 419,337 421,343 423,337 430,338 426,333 430,328 423,329 421,323 419,329 413,328 416,333" fill="rgb(44,0,255)" />
<polygon points=" 402,319 396,318 399,323 396,328 402,327 404,333 407,327 413,328 409,323 413,318 407,319 404,313 402,319" fill="rgb(44,0,255)" />
<polygon points=" 407,299 404,294 402,299 396,299 399,304 396,308 402,308 404,313 407,308 413,308 409,304 413,299 407,299" fill="rgb(44,0,255)" />
<polygon points=" 474,347 480,348 477,343 480,338 474,338 472,333 469,338 463,338 467,343 463,348 469,347 472,352 474,347" fill="rgb(44,0,255)" />
<polygon points=" 477,323 480,318 474,319 472,313 469,319 463,318 467,323 463,328 469,327 472,333 474,327 480,328 477,323" fill="rgb(44,0,255)" />
<polygon points=" 491,337 497,338 494,333 497,328 491,329 489,323 486,329 480,328 484,333 480,338 486,337 489,343 491,337" fill="rgb(44,0,255)" />
<polygon points=" 486,357 489,362 491,357 497,357 494,352 497,348 491,348 489,343 486,348 480,348 484,352 480,357 486,357" fill="rgb(44,0,255)" />
<polygon points=" 467,362 463,367 469,366 472,372 474,366 480,367 477,362 480,357 474,358 472,352 469,358 463,357 467,362" fill="rgb(44,0,255)" />
<polygon points=" 452,348 446,348 450,352 446,357 452,357 455,362 457,357 463,357 460,352 463,348 457,348 455,343 452,348" fill="rgb(44,0,255)" />
<polygon points=" 457,329 455,323 452,329 446,328 450,333 446,338 452,337 455,343 457,337 463,338 460,333 463,328 457,329" fill="rgb(44,0,255)" />
<polygon points=" 469,406 472,411 474,406 480,406 477,401 480,396 474,397 472,392 469,397 463,396 467,401 463,406 469,406" fill="rgb(44,0,255)" />
<polygon points=" 477,382 480,377 474,378 472,372 469,378 463,377 467,382 463,387 469,386 472,392 474,386 480,387 477,382" fill="rgb(44,0,255)" />
<polygon points=" 491,396 497,396 494,392 497,387 491,387 489,382 486,387 480,387 484,392 480,396 486,396 489,401 491,396" fill="rgb(44,0,255)" />
<polygon points=" 486,415 489,421 491,415 497,416 494,411 497,406 491,407 489,401 486,407 480,406 484,411 480,416 486,415" fill="rgb(44,0,255)" />
<polygon points=" 467,421 463,426 469,425 472,431 474,425 480,426 477,421 480,416 474,417 472,411 469,417 463,416 467,421" fill="rgb(44,0,255)" />
<polygon points=" 452,407 446,406 450,411 446,416 452,415 455,421 457,415 463,416 460,411 463,406 457,407 455,401 452,407" fill="rgb(44,0,255)" />
<polygon points=" 457,387 455,382 452,387 446,387 450,392 446,396 452,396 455,401 457,396 463,396 460,392 463,387 457,387" fill="rgb(44,0,255)" />
<polygon points=" 416,431 413,436 419,435 421,440 423,435 430,436 426,431 430,426 423,426 421,421 419,426 413,426 416,431" fill="rgb(44,0,255)" />
<polygon points=" 426,411 430,406 423,407 421,401 419,407 413,406 416,411 413,416 419,415 421,421 423,415 430,416 426,411" fill="rgb(44,0,255)" />
<polygon points=" 440,425 446,426 443,421 446,416 440,417 438,411 436,417 430,416 433,421 430,426 436,425 438,431 440,425" fill="rgb(44,0,255)" />
<polygon points=" 436,445 438,450 440,445 446,445 443,440 446,436 440,436 438,431 436,436 430,436 433,440 430,445 436,445" fill="rgb(44,0,255)" />
<polygon points=" 416,450 413,455 419,454 421,460 423,454 430,455 426,450 430,445 423,446 421,440 419,446 413,445 416,450" fill="rgb(44,0,255)" />
<polygon points=" 402,436 396,436 399,440 396,445 402,445 404,450 407,445 413,445 409,440 413,436 407,436 404,431 402,436" fill="rgb(44,0,255)" />
<polygon points=" 407,417 404,411 402,417 396,416 399,421 396,426 402,425 404,431 407,425 413,426 409,421 413,416 407,417" fill="rgb(44,0,255)" />
<polygon points=" 368,397 362,396 365,401 362,406 368,406 370,411 373,406 379,406 375,401 379,396 373,397 370,392 368,397" fill="rgb(44,0,255)" />
<polygon points=" 375,382 379,377 373,378 370,372 368,378 362,377 365,382 362,387 368,386 370,392 373,386 379,387 375,382" fill="rgb(44,0,255)" />
<polygon points=" 390,396 396,396 392,392 396,387 390,387 387,382 385,387 379,387 382,392 379,396 385,396 387,401 390,396" fill="rgb(44,0,255)" />
<polygon points=" 385,415 387,421 390,415 396,416 392,411 396,406 390,407 387,401 385,407 379,406 382,411 379,416 385,415" fill="rgb(44,0,255)" />
<polygon points=" 365,421 362,426 368,425 370,431 373,425 379,426 375,421 379,416 373,417 370,411 368,417 362,416 365,421" fill="rgb(44,0,255)" />
<polygon points=" 351,407 345,406 348,411 345,416 351,415 353,421 356,415 362,416 358,411 362,406 356,407 353,401 351,407" fill="rgb(44,0,255)" />
<polygon points=" 356,387 353,382 351,387 345,387 348,392 345,396 351,396 353,401 356,396 362,396 358,392 362,387 356,387" fill="rgb(44,0,255)" />
<polygon points=" 373,338 370,333 368,338 362,338 365,343 362,348 368,347 370,352 373,347 379,348 375,343 379,338 373,338" fill="rgb(44,0,255)" />
<polygon points=" 375,323 379,318 373,319 370,313 368,319 362,318 365,323 362,328 368,327 370,333 373,327 379,328 375,323" fill="rgb(44,0,255)" />
<polygon points=" 390,337 396,338 392,333 396,328 390,329 387,323 385,329 379,328 382,333 379,338 385,337 387,343 390,337" fill="rgb(44,0,255)" />
<polygon points=" 385,357 387,362 390,357 396,357 392,352 396,348 390,348 387,343 385,348 379,348 382,352 379,357 385,357" fill="rgb(44,0,255)" />
<polygon points=" 365,362 362,367 368,366 370,372 373,366 379,367 375,362 379,357 373,358 370,352 368,358 362,357 365,362" fill="rgb(44,0,255)" />
<polygon points=" 351,348 345,348 348,352 345,357 351,357 353,362 356,357 362,357 358,352 362,348 356,348 353,343 351,348" fill="rgb(44,0,255)" />
<polygon points=" 356,329 353,323 351,329 345,328 348,333 345,338 351,337 353,343 356,337 362,338 358,333 362,328 356,329" fill="rgb(44,0,255)" />
<polygon points=" 264,460 260,465 266,464 269,470 271,464 277,465 274,460 277,455 271,456 269,450 266,456 260,455 264,460" fill="rgb(44,0,255)" />
<polygon points=" 274,440 277,436 271,436 269,431 266,436 260,436 264,440 260,445 266,445 269,450 271,445 277,445 274,440" fill="rgb(44,0,255)" />
<polygon points=" 288,454 294,455 290,450 294,445 288,446 286,440 283,446 277,445 281,450 277,455 283,454 286,460 288,454" fill="rgb(44,0,255)" />
<polygon points=" 283,474 286,480 288,474 294,475 290,470 294,465 288,466 286,460 283,466 277,465 281,470 277,475 283,474" fill="rgb(44,0,255)" />
<polygon points=" 264,480 260,484 266,484 269,489 271,484 277,484 274,480 277,475 271,475 269,470 266,475 260,475 264,480" fill="rgb(44,0,255)" />
<polygon points=" 249,466 243,465 247,470 243,475 249,474 252,480 254,474 260,475 257,470 260,465 254,466 252,460 249,466" fill="rgb(44,0,255)" />
<polygon points=" 254,446 252,440 249,446 243,445 247,450 243,455 249,454 252,460 254,454 260,455 257,450 260,445 254,446" fill="rgb(44,0,255)" />
<polygon points=" 274,401 277,396 271,397 269,392 266,397 260,396 264,401 260,406 266,406 269,411 271,406 277,406 274,401" fill="rgb(44,0,255)" />
<polygon points=" 274,382 277,377 271,378 269,372 266,378 260,377 264,382 260,387 266,386 269,392 271,386 277,387 274,382" fill="rgb(44,0,255)" />
<polygon points=" 288,396 294,396 290,392 294,387 288,387 286,382 283,387 277,387 281,392 277,396 283,396 286,401 288,396" fill="rgb(44,0,255)" />
<polygon points=" 283,415 286,421 288,415 294,416 290,411 294,406 288,407 286,401 283,407 277,406 281,411 277,416 283,415" fill="rgb(44,0,255)" />
<polygon points=" 264,421 260,426 266,425 269,431 271,425 277,426 274,421 277,416 271,417 269,411 266,417 260,416 264,421" fill="rgb(44,0,255)" />
<polygon points=" 249,407 243,406 247,411 243,416 249,415 252,421 254,415 260,416 257,411 260,406 254,407 252,401 249,407" fill="rgb(44,0,255)" />
<polygon points=" 254,387 252,382 249,387 243,387 247,392 243,396 249,396 252,401 254,396 260,396 257,392 260,387 254,387" fill="rgb(44,0,255)" />
<polygon points=" 322,435 328,436 324,431 328,426 322,426 319,421 317,426 311,426 315,431 311,436 317,435 319,440 322,435" fill="rgb(44,0,255)" />
<polygon points=" 324,411 328,406 322,407 319,401 317,407 311,406 315,411 311,416 317,415 319,421 322,415 328,416 324,411" fill="rgb(44,0,255)" />
<polygon points=" 339,425 345,426 341,421 345,416 339,417 336,411 334,417 328,416 331,421 328,426 334,425 336,431 339,425" fill="rgb(44,0,255)" />
<polygon points=" 334,445 336,450 339,445 345,445 341,440 345,436 339,436 336,431 334,436 328,436 331,440 328,445 334,445" fill="rgb(44,0,255)" />
<polygon points=" 315,450 311,455 317,454 319,460 322,454 328,455 324,450 328,445 322,446 319,440 317,446 311,445 315,450" fill="rgb(44,0,255)" />
<polygon points=" 300,436 294,436 298,440 294,445 300,445 303,450 305,445 311,445 307,440 311,436 305,436 303,431 300,436" fill="rgb(44,0,255)" />
<polygon points=" 305,417 303,411 300,417 294,416 298,421 294,426 300,425 303,431 305,425 311,426 307,421 311,416 305,417" fill="rgb(44,0,255)" />
<polygon points=" 317,494 319,499 322,494 328,494 324,489 328,484 322,485 319,480 317,485 311,484 315,489 311,494 317,494" fill="rgb(44,0,255)" />
<polygon points=" 324,470 328,465 322,466 319,460 317,466 311,465 315,470 311,475 317,474 319,480 322,474 328,475 324,470" fill="rgb(44,0,255)" />
<polygon points=" 339,484 345,484 341,480 345,475 339,475 336,470 334,475 328,475 331,480 328,484 334,484 336,489 339,484" fill="rgb(44,0,255)" />
<polygon points=" 334,503 336,509 339,503 345,504 341,499 345,494 339,495 336,489 334,495 328,494 331,499 328,504 334,503" fill="rgb(44,0,255)" />
<polygon points=" 315,509 311,514 317,513 319,519 322,513 328,514 324,509 328,504 322,505 319,499 317,505 311,504 315,509" fill="rgb(44,0,255)" />
<polygon points=" 300,495 294,494 298,499 294,504 300,503 303,509 305,503 311,504 307,499 311,494 305,495 303,489 300,495" fill="rgb(44,0,255)" />
<polygon points=" 305,475 303,470 300,475 294,475 298,480 294,484 300,484 303,489 305,484 311,484 307,480 311,475 305,475" fill="rgb(44,0,255)" />
<polygon points=" 264,519 260,524 266,523 269,528 271,523 277,524 274,519 277,514 271,514 269,509 266,514 260,514 264,519" fill="rgb(44,0,255)" />
<polygon points=" 274,499 277,494 271,495 269,489 266,495 260,494 264,499 260,504 266,503 269,509 271,503 277,504 274,499" fill="rgb(44,0,255)" />
<polygon points=" 288,513 294,514 290,509 294,504 288,505 286,499 283,505 277,504 281,509 277,514 283,513 286,519 288,513" fill="rgb(44,0,255)" />
<polygon points=" 283,533 286,538 288,533 294,533 290,528 294,524 288,524 286,519 283,524 277,524 281,528 277,533 283,533" fill="rgb(44,0,255)" />
<polygon points=" 264,538 260,543 266,542 269,548 271,542 277,543 274,538 277,533 271,534 269,528 266,534 260,533 264,538" fill="rgb(44,0,255)" />
<polygon points=" 249,524 243,524 247,528 243,533 249,533 252,538 254,533 260,533 257,528 260,524 254,524 252,519 249,524" fill="rgb(44,0,255)" />
<polygon points=" 254,505 252,499 249,505 243,504 247,509 243,514 249,513 252,519 254,513 260,514 257,509 260,504 254,505" fill="rgb(44,0,255)" />
<polygon points=" 215,485 209,484 213,489 209,494 215,494 218,499 220,494 226,494 223,489 226,484 220,485 218,480 215,485" fill="rgb(44,0,255)" />
<polygon points=" 223,470 226,465 220,466 218,460 215,466 209,465 213,470 209,475 215,474 218,480 220,474 226,475 223,470" fill="rgb(44,0,255)" />
<polygon points=" 237,484 243,484 240,480 243,475 237,475 235,470 232,475 226,475 230,480 226,484 232,484 235,489 237,484" fill="rgb(44,0,255)" />
<polygon points=" 232,503 235,509 237,503 243,504 240,499 243,494 237,495 235,489 232,495 226,494 230,499 226,504 232,503" fill="rgb(44,0,255)" />
<polygon points=" 213,509 209,514 215,513 218,519 220,513 226,514 223,509 226,504 220,505 218,499 215,505 209,504 213,509" fill="rgb(44,0,255)" />
<polygon points=" 198,495 192,494 196,499 192,504 198,503 201,509 203,503 209,504 206,499 209,494 203,495 201,489 198,495" fill="rgb(44,0,255)" />
<polygon points=" 203,475 201,470 198,475 192,475 196,480 192,484 198,484 201,489 203,484 209,484 206,480 209,475 203,475" fill="rgb(44,0,255)" />
<polygon points=" 220,426 218,421 215,426 209,426 213,431 209,436 215,435 218,440 220,435 226,436 223,431 226,426 220,426" fill="rgb(44,0,255)" />
<polygon points=" 223,411 226,406 220,407 218,401 215,407 209,406 213,411 209,416 215,415 218,421 220,415 226,416 223,411" fill="rgb(44,0,255)" />
<polygon points=" 237,425 243,426 240,421 243,416 237,417 235,411 232,417 226,416 230,421 226,426 232,425 235,431 237,425" fill="rgb(44,0,255)" />
<polygon points=" 232,445 235,450 237,445 243,445 240,440 243,436 237,436 235,431 232,436 226,436 230,440 226,445 232,445" fill="rgb(44,0,255)" />
<polygon points=" 213,450 209,455 215,454 218,460 220,454 226,455 223,450 226,445 220,446 218,440 215,446 209,445 213,450" fill="rgb(44,0,255)" />
<polygon points=" 198,436 192,436 196,440 192,445 198,445 201,450 203,445 209,445 206,440 209,436 203,436 201,431 198,436" fill="rgb(44,0,255)" />
<polygon points=" 203,417 201,411 198,417 192,416 196,421 192,426 198,425 201,431 203,425 209,426 206,421 209,416 203,417" fill="rgb(44,0,255)" />
<polygon points=" 114,368 108,367 111,372 108,377 114,376 116,382 119,376 125,377 121,372 125,367 119,368 116,362 114,368" fill="rgb(44,0,255)" />
<polygon points=" 121,352 125,348 119,348 116,343 114,348 108,348 111,352 108,357 114,357 116,362 119,357 125,357 121,352" fill="rgb(44,0,255)" />
<polygon points=" 136,366 142,367 138,362 142,357 136,358 133,352 131,358 125,357 128,362 125,367 131,366 133,372 136,366" fill="rgb(44,0,255)" />
<polygon points=" 131,386 133,392 136,386 142,387 138,382 142,377 136,378 133,372 131,378 125,377 128,382 125,387 131,386" fill="rgb(44,0,255)" />
<polygon points=" 111,392 108,396 114,396 116,401 119,396 125,396 121,392 125,387 119,387 116,382 114,387 108,387 111,392" fill="rgb(44,0,255)" />
<polygon points=" 97,378 91,377 94,382 91,387 97,386 99,392 102,386 108,387 104,382 108,377 102,378 99,372 97,378" fill="rgb(44,0,255)" />
<polygon points=" 102,358 99,352 97,358 91,357 94,362 91,367 97,366 99,372 102,366 108,367 104,362 108,357 102,358" fill="rgb(44,0,255)" />
<polygon points=" 121,313 125,308 119,309 116,304 114,309 108,308 111,313 108,318 114,318 116,323 119,318 125,318 121,313" fill="rgb(44,0,255)" />
<polygon points=" 121,294 125,289 119,290 116,284 114,290 108,289 111,294 108,299 114,298 116,304 119,298 125,299 121,294" fill="rgb(44,0,255)" />
<polygon points=" 136,308 142,308 138,304 142,299 136,299 133,294 131,299 125,299 128,304 125,308 131,308 133,313 136,308" fill="rgb(44,0,255)" />
<polygon points=" 131,327 133,333 136,327 142,328 138,323 142,318 136,319 133,313 131,319 125,318 128,323 125,328 131,327" fill="rgb(44,0,255)" />
<polygon points=" 111,333 108,338 114,337 116,343 119,337 125,338 121,333 125,328 119,329 116,323 114,329 108,328 111,333" fill="rgb(44,0,255)" />
<polygon points=" 97,319 91,318 94,323 91,328 97,327 99,333 102,327 108,328 104,323 108,318 102,319 99,313 97,319" fill="rgb(44,0,255)" />
<polygon points=" 102,299 99,294 97,299 91,299 94,304 91,308 97,308 99,313 102,308 108,308 104,304 108,299 102,299" fill="rgb(44,0,255)" />
<polygon points=" 169,347 175,348 172,343 175,338 169,338 167,333 165,338 159,338 162,343 159,348 165,347 167,352 169,347" fill="rgb(44,0,255)" />
<polygon points=" 172,323 175,318 169,319 167,313 165,319 159,318 162,323 159,328 165,327 167,333 169,327 175,328 172,323" fill="rgb(44,0,255)" />
<polygon points=" 186,337 192,338 189,333 192,328 186,329 184,323 182,329 175,328 179,333 175,338 182,337 184,343 186,337" fill="rgb(44,0,255)" />
<polygon points=" 182,357 184,362 186,357 192,357 189,352 192,348 186,348 184,343 182,348 175,348 179,352 175,357 182,357" fill="rgb(44,0,255)" />
<polygon points=" 162,362 159,367 165,366 167,372 169,366 175,367 172,362 175,357 169,358 167,352 165,358 159,357 162,362" fill="rgb(44,0,255)" />
<polygon points=" 148,348 142,348 145,352 142,357 148,357 150,362 153,357 159,357 155,352 159,348 153,348 150,343 148,348" fill="rgb(44,0,255)" />
<polygon points=" 153,329 150,323 148,329 142,328 145,333 142,338 148,337 150,343 153,337 159,338 155,333 159,328 153,329" fill="rgb(44,0,255)" />
<polygon points=" 165,406 167,411 169,406 175,406 172,401 175,396 169,397 167,392 165,397 159,396 162,401 159,406 165,406" fill="rgb(44,0,255)" />
<polygon points=" 172,382 175,377 169,378 167,372 165,378 159,377 162,382 159,387 165,386 167,392 169,386 175,387 172,382" fill="rgb(44,0,255)" />
<polygon points=" 186,396 192,396 189,392 192,387 186,387 184,382 182,387 175,387 179,392 175,396 182,396 184,401 186,396" fill="rgb(44,0,255)" />
<polygon points=" 182,415 184,421 186,415 192,416 189,411 192,406 186,407 184,401 182,407 175,406 179,411 175,416 182,415" fill="rgb(44,0,255)" />
<polygon points=" 162,421 159,426 165,425 167,431 169,425 175,426 172,421 175,416 169,417 167,411 165,417 159,416 162,421" fill="rgb(44,0,255)" />
<polygon points=" 148,407 142,406 145,411 142,416 148,415 150,421 153,415 159,416 155,411 159,406 153,407 150,401 148,407" fill="rgb(44,0,255)" />
<polygon points=" 153,387 150,382 148,387 142,387 145,392 142,396 148,396 150,401 153,396 159,396 155,392 159,387 153,387" fill="rgb(44,0,255)" />
<polygon points=" 111,431 108,436 114,435 116,440 119,435 125,436 121,431 125,426 119,426 116,421 114,426 108,426 111,431" fill="rgb(44,0,255)" />
<polygon points=" 121,411 125,406 119,407 116,401 114,407 108,406 111,411 108,416 114,415 116,421 119,415 125,416 121,411" fill="rgb(44,0,255)" />
<polygon points=" 136,425 142,426 138,421 142,416 136,417 133,411 131,417 125,416 128,421 125,426 131,425 133,431 136,425" fill="rgb(44,0,255)" />
<polygon points=" 131,445 133,450 136,445 142,445 138,440 142,436 136,436 133,431 131,436 125,436 128,440 125,445 131,445" fill="rgb(44,0,255)" />
<polygon points=" 111,450 108,455 114,454 116,460 119,454 125,455 121,450 125,445 119,446 116,440 114,446 108,445 111,450" fill="rgb(44,0,255)" />
<polygon points=" 97,436 91,436 94,440 91,445 97,445 99,450 102,445 108,445 104,440 108,436 102,436 99,431 97,436" fill="rgb(44,0,255)" />
<polygon points=" 102,417 99,411 97,417 91,416 94,421 91,426 97,425 99,431 102,425 108,426 104,421 108,416 102,417" fill="rgb(44,0,255)" />
<polygon points=" 63,397 57,396 61,401 57,406 63,406 65,411 68,406 74,406 70,401 74,396 68,397 65,392 63,397" fill="rgb(44,0,255)" />
<polygon points=" 70,382 74,377 68,378 65,372 63,378 57,377 61,382 57,387 63,386 65,392 68,386 74,387 70,382" fill="rgb(44,0,255)" />
<polygon points=" 85,396 91,396 87,392 91,387 85,387 82,382 80,387 74,387 77,392 74,396 80,396 82,401 85,396" fill="rgb(44,0,255)" />
<polygon points=" 80,415 82,421 85,415 91,416 87,411 91,406 85,407 82,401 80,407 74,406 77,411 74,416 80,415" fill="rgb(44,0,255)" />
<polygon points=" 61,421 57,426 63,425 65,431 68,425 74,426 70,421 74,416 68,417 65,411 63,417 57,416 61,421" fill="rgb(44,0,255)" />
<polygon points=" 46,407 40,406 44,411 40,416 46,415 48,421 51,415 57,416 53,411 57,406 51,407 48,401 46,407" fill="rgb(44,0,255)" />
<polygon points=" 51,387 48,382 46,387 40,387 44,392 40,396 46,396 48,401 51,396 57,396 53,392 57,387 51,387" fill="rgb(44,0,255)" />
<polygon points=" 68,338 65,333 63,338 57,338 61,343 57,348 63,347 65,352 68,347 74,348 70,343 74,338 68,338" fill="rgb(44,0,255)" />
<polygon points=" 70,323 74,318 68,319 65,313 63,319 57,318 61,323 57,328 63,327 65,333 68,327 74,328 70,323" fill="rgb(44,0,255)" />
<polygon points=" 85,337 91,338 87,333 91,328 85,329 82,323 80,329 74,328 77,333 74,338 80,337 82,343 85,337" fill="rgb(44,0,255)" />
<polygon points=" 80,357 82,362 85,357 91,357 87,352 91,348 85,348 82,343 80,348 74,348 77,352 74,357 80,357" fill="rgb(44,0,255)" />
<polygon points=" 61,362 57,367 63,366 65,372 68,366 74,367 70,362 74,357 68,358 65,352 63,358 57,357 61,362" fill="rgb(44,0,255)" />
<polygon points=" 46,348 40,348 44,352 40,357 46,357 48,362 51,357 57,357 53,352 57,348 51,348 48,343 46,348" fill="rgb(44,0,255)" />
<polygon points=" 51,329 48,323 46,329 40,328 44,333 40,338 46,337 48,343 51,337 57,338 53,333 57,328 51,329" fill="rgb(44,0,255)" />
<polygon points=" 119,192 116,186 114,192 108,191 111,196 108,201 114,200 116,206 119,200 125,201 121,196 125,191 119,192" fill="rgb(44,0,255)" />
<polygon points=" 121,176 125,172 119,172 116,167 114,172 108,172 111,176 108,181 114,181 116,186 119,181 125,181 121,176" fill="rgb(44,0,255)" />
<polygon points=" 136,190 142,191 138,186 142,181 136,182 133,176 131,182 125,181 128,186 125,191 131,190 133,196 136,190" fill="rgb(44,0,255)" />
<polygon points=" 131,210 133,216 136,210 142,211 138,206 142,201 136,202 133,196 131,202 125,201 128,206 125,211 131,210" fill="rgb(44,0,255)" />
<polygon points=" 111,216 108,220 114,220 116,225 119,220 125,220 121,216 125,211 119,211 116,206 114,211 108,211 111,216" fill="rgb(44,0,255)" />
<polygon points=" 97,202 91,201 94,206 91,211 97,210 99,216 102,210 108,211 104,206 108,201 102,202 99,196 97,202" fill="rgb(44,0,255)" />
<polygon points=" 102,182 99,176 97,182 91,181 94,186 91,191 97,190 99,196 102,190 108,191 104,186 108,181 102,182" fill="rgb(44,0,255)" />
<polygon points=" 121,137 125,132 119,133 116,128 114,133 108,132 111,137 108,142 114,142 116,147 119,142 125,142 121,137" fill="rgb(44,0,255)" />
<polygon points=" 121,118 125,113 119,114 116,108 114,114 108,113 111,118 108,123 114,122 116,128 119,122 125,123 121,118" fill="rgb(44,0,255)" />
<polygon points=" 136,132 142,132 138,128 142,123 136,123 133,118 131,123 125,123 128,128 125,132 131,132 133,137 136,132" fill="rgb(44,0,255)" />
<polygon points=" 131,151 133,157 136,151 142,152 138,147 142,142 136,143 133,137 131,143 125,142 128,147 125,152 131,151" fill="rgb(44,0,255)" />
<polygon points=" 111,157 108,162 114,161 116,167 119,161 125,162 121,157 125,152 119,153 116,147 114,153 108,152 111,157" fill="rgb(44,0,255)" />
<polygon points=" 97,143 91,142 94,147 91,152 97,151 99,157 102,151 108,152 104,147 108,142 102,143 99,137 97,143" fill="rgb(44,0,255)" />
<polygon points=" 102,123 99,118 97,123 91,123 94,128 91,132 97,132 99,137 102,132 108,132 104,128 108,123 102,123" fill="rgb(44,0,255)" />
<polygon points=" 169,171 175,172 172,167 175,162 169,162 167,157 165,162 159,162 162,167 159,172 165,171 167,176 169,171" fill="rgb(44,0,255)" />
<polygon points=" 172,147 175,142 169,143 167,137 165,143 159,142 162,147 159,152 165,151 167,157 169,151 175,152 172,147" fill="rgb(44,0,255)" />
<polygon points=" 186,161 192,162 189,157 192,152 186,153 184,147 182,153 175,152 179,157 175,162 182,161 184,167 186,161" fill="rgb(44,0,255)" />
<polygon points=" 182,181 184,186 186,181 192,181 189,176 192,172 186,172 184,167 182,172 175,172 179,176 175,181 182,181" fill="rgb(44,0,255)" />
<polygon points=" 162,186 159,191 165,190 167,196 169,190 175,191 172,186 175,181 169,182 167,176 165,182 159,181 162,186" fill="rgb(44,0,255)" />
<polygon points=" 148,172 142,172 145,176 142,181 148,181 150,186 153,181 159,181 155,176 159,172 153,172 150,167 148,172" fill="rgb(44,0,255)" />
<polygon points=" 153,153 150,147 148,153 142,152 145,157 142,162 148,161 150,167 153,161 159,162 155,157 159,152 153,153" fill="rgb(44,0,255)" />
<polygon points=" 165,230 167,235 169,230 175,230 172,225 175,220 169,221 167,216 165,221 159,220 162,225 159,230 165,230" fill="rgb(44,0,255)" />
<polygon points=" 172,206 175,201 169,202 167,196 165,202 159,201 162,206 159,211 165,210 167,216 169,210 175,211 172,206" fill="rgb(44,0,255)" />
<polygon points=" 186,220 192,220 189,216 192,211 186,211 184,206 182,211 175,211 179,216 175,220 182,220 184,225 186,220" fill="rgb(44,0,255)" />
<polygon points=" 182,239 184,245 186,239 192,240 189,235 192,230 186,231 184,225 182,231 175,230 179,235 175,240 182,239" fill="rgb(44,0,255)" />
<polygon points=" 162,245 159,250 165,249 167,255 169,249 175,250 172,245 175,240 169,241 167,235 165,241 159,240 162,245" fill="rgb(44,0,255)" />
<polygon points=" 148,231 142,230 145,235 142,240 148,239 150,245 153,239 159,240 155,235 159,230 153,231 150,225 148,231" fill="rgb(44,0,255)" />
<polygon points=" 153,211 150,206 148,211 142,211 145,216 142,220 148,220 150,225 153,220 159,220 155,216 159,211 153,211" fill="rgb(44,0,255)" />
<polygon points=" 111,255 108,260 114,259 116,264 119,259 125,260 121,255 125,250 119,250 116,245 114,250 108,250 111,255" fill="rgb(44,0,255)" />
<polygon points=" 121,235 125,230 119,231 116,225 114,231 108,230 111,235 108,240 114,239 116,245 119,239 125,240 121,235" fill="rgb(44,0,255)" />
<polygon points=" 136,249 142,250 138,245 142,240 136,241 133,235 131,241 125,240 128,245 125,250 131,249 133,255 136,249" fill="rgb(44,0,255)" />
<polygon points=" 131,269 133,274 136,269 142,269 138,264 142,260 136,260 133,255 131,260 125,260 128,264 125,269 131,269" fill="rgb(44,0,255)" />
<polygon points=" 111,274 108,279 114,278 116,284 119,278 125,279 121,274 125,269 119,270 116,264 114,270 108,269 111,274" fill="rgb(44,0,255)" />
<polygon points=" 97,260 91,260 94,264 91,269 97,269 99,274 102,269 108,269 104,264 108,260 102,260 99,255 97,260" fill="rgb(44,0,255)" />
<polygon points=" 102,241 99,235 97,241 91,240 94,245 91,250 97,249 99,255 102,249 108,250 104,245 108,240 102,241" fill="rgb(44,0,255)" />
<polygon points=" 63,221 57,220 61,225 57,230 63,230 65,235 68,230 74,230 70,225 74,220 68,221 65,216 63,221" fill="rgb(44,0,255)" />
<polygon points=" 70,206 74,201 68,202 65,196 63,202 57,201 61,206 57,211 63,210 65,216 68,210 74,211 70,206" fill="rgb(44,0,255)" />
<polygon points=" 85,220 91,220 87,216 91,211 85,211 82,206 80,211 74,211 77,216 74,220 80,220 82,225 85,220" fill="rgb(44,0,255)" />
<polygon points=" 80,239 82,245 85,239 91,240 87,235 91,230 85,231 82,225 80,231 74,230 77,235 74,240 80,239" fill="rgb(44,0,255)" />
<polygon points=" 61,245 57,250 63,249 65,255 68,249 74,250 70,245 74,240 68,241 65,235 63,241 57,240 61,245" fill="rgb(44,0,255)" />
<polygon points=" 46,231 40,230 44,235 40,240 46,239 48,245 51,239 57,240 53,235 57,230 51,231 48,225 46,231" fill="rgb(44,0,255)" />
<polygon points=" 51,211 48,206 46,211 40,211 44,216 40,220 46,220 48,225 51,220 57,220 53,216 57,211 51,211" fill="rgb(44,0,255)" />
<polygon points=" 68,162 65,157 63,162 57,162 61,167 57,172 63,171 65,176 68,171 74,172 70,167 74,162 68,162" fill="rgb(44,0,255)" />
<polygon points=" 70,147 74,142 68,143 65,137 63,143 57,142 61,147 57,152 63,151 65,157 68,151 74,152 70,147" fill="rgb(44,0,255)" />
<polygon points=" 85,161 91,162 87,157 91,152 85,153 82,147 80,153 74,152 77,157 74,162 80,161 82,167 85,161" fill="rgb(44,0,255)" />
<polygon points=" 80,181 82,186 85,181 91,181 87,176 91,172 85,172 82,167 80,172 74,172 77,176 74,181 80,181" fill="rgb(44,0,255)" />
<polygon points=" 61,186 57,191 63,190 65,196 68,190 74,191 70,186 74,181 68,182 65,176 63,182 57,181 61,186" fill="rgb(44,0,255)" />
<polygon points=" 46,172 40,172 44,176 40,181 46,181 48,186 51,181 57,181 53,176 57,172 51,172 48,167 46,172" fill="rgb(44,0,255)" />
<polygon points=" 51,153 48,147 46,153 40,152 44,157 40,162 46,161 48,167 51,161 57,162 53,157 57,152 51,153" fill="rgb(44,0,255)" /></svg>