<svg xmlns="http://www.w3.org/2000/svg" 
xmlns:xlink="http://www.w3.org/1999/xlink" 
version="1.1" baseProfile="full" 
width="537" height="568" >
<polygon points=" 374,284 497,152 321,193 269,20 216,193 40,152 163,284 40,416 216,375 269,548 321,375 497,416 374,284" fill="rgb(0,255,0)" />
<polygon points=" 304,284 345,240 286,254 269,196 251,254 192,240 233,284 192,328 251,314 269,372 286,314 345,328 304,284" fill="rgb(255,128,0)" />
<polygon points=" 304,108 345,64 286,78 269,20 251,78 192,64 233,108 192,152 251,138 269,196 286,138 345,152 304,108" fill="rgb(255,128,0)" />
<polygon points=" 439,226 497,240 456,196 497,152 439,166 421,108 403,166 345,152 386,196 345,240 403,226 421,284 439,226" fill="rgb(255,128,0)" />
<polygon points=" 403,402 421,460 439,402 497,416 456,372 497,328 439,342 421,284 403,342 345,328 386,372 345,416 403,402" fill="rgb(255,128,0)" />
<polygon points=" 233,460 192,504 251,490 269,548 286,490 345,504 304,460 345,416 286,430 269,372 251,430 192,416 233,460" fill="rgb(255,128,0)" />
<polygon points=" 99,342 40,328 81,372 40,416 99,402 116,460 134,402 192,416 151,372 192,328 134,342 116,284 99,342" fill="rgb(255,128,0)" />
<polygon points=" 134,166 116,108 99,166 40,152 81,196 40,240 99,226 116,284 134,226 192,240 151,196 192,152 134,166" fill="rgb(255,128,0)" />
<polygon points=" 280,284 294,269 274,274 269,255 263,274 243,269 257,284 243,299 263,294 269,313 274,294 294,299 280,284" fill="rgb(255,0,254)" />
<polygon points=" 280,225 294,211 274,215 269,196 263,215 243,211 257,225 243,240 263,235 269,255 274,235 294,240 280,225" fill="rgb(255,0,254)" />
<polygon points=" 325,265 345,269 331,255 345,240 325,245 319,225 314,245 294,240 308,255 294,269 314,265 319,284 325,265" fill="rgb(255,0,254)" />
<polygon points=" 314,323 319,343 325,323 345,328 331,313 345,299 325,303 319,284 314,303 294,299 308,313 294,328 314,323" fill="rgb(255,0,254)" />
<polygon points=" 257,343 243,357 263,353 269,372 274,353 294,357 280,343 294,328 274,333 269,313 263,333 243,328 257,343" fill="rgb(255,0,254)" />
<polygon points=" 212,303 192,299 206,313 192,328 212,323 218,343 224,323 243,328 230,313 243,299 224,303 218,284 212,303" fill="rgb(255,0,254)" />
<polygon points=" 224,245 218,225 212,245 192,240 206,255 192,269 212,265 218,284 224,265 243,269 230,255 243,240 224,245" fill="rgb(255,0,254)" />
<polygon points=" 280,108 294,93 274,98 269,79 263,98 243,93 257,108 243,123 263,118 269,137 274,118 294,123 280,108" fill="rgb(255,0,254)" />
<polygon points=" 280,49 294,35 274,39 269,20 263,39 243,35 257,49 243,64 263,59 269,79 274,59 294,64 280,49" fill="rgb(255,0,254)" />
<polygon points=" 325,89 345,93 331,79 345,64 325,69 319,49 314,69 294,64 308,79 294,93 314,89 319,108 325,89" fill="rgb(255,0,254)" />
<polygon points=" 314,147 319,167 325,147 345,152 331,137 345,123 325,127 319,108 314,127 294,123 308,137 294,152 314,147" fill="rgb(255,0,254)" />
<polygon points=" 257,167 243,181 263,177 269,196 274,177 294,181 280,167 294,152 274,157 269,137 263,157 243,152 257,167" fill="rgb(255,0,254)" />
<polygon points=" 212,127 192,123 206,137 192,152 212,147 218,167 224,147 243,152 230,137 243,123 224,127 218,108 212,127" fill="rgb(255,0,254)" />
<polygon points=" 224,69 218,49 212,69 192,64 206,79 192,93 212,89 218,108 224,89 243,93 230,79 243,64 224,69" fill="rgb(255,0,254)" />
<polygon points=" 427,206 446,211 433,196 446,181 427,186 421,167 415,186 396,181 409,196 396,211 415,206 421,225 427,206" fill="rgb(255,0,254)" />
<polygon points=" 433,137 446,123 427,127 421,108 415,127 396,123 409,137 396,152 415,147 421,167 427,147 446,152 433,137" fill="rgb(255,0,254)" />
<polygon points=" 478,177 497,181 484,167 497,152 478,157 472,137 466,157 446,152 460,167 446,181 466,177 472,196 478,177" fill="rgb(255,0,254)" />
<polygon points=" 466,235 472,255 478,235 497,240 484,225 497,211 478,215 472,196 466,215 446,211 460,225 446,240 466,235" fill="rgb(255,0,254)" />
<polygon points=" 409,255 396,269 415,265 421,284 427,265 446,269 433,255 446,240 427,245 421,225 415,245 396,240 409,255" fill="rgb(255,0,254)" />
<polygon points=" 364,215 345,211 359,225 345,240 364,235 370,255 376,235 396,240 382,225 396,211 376,215 370,196 364,215" fill="rgb(255,0,254)" />
<polygon points=" 376,157 370,137 364,157 345,152 359,167 345,181 364,177 370,196 376,177 396,181 382,167 396,152 376,157" fill="rgb(255,0,254)" />
<polygon points=" 415,382 421,401 427,382 446,387 433,372 446,357 427,362 421,343 415,362 396,357 409,372 396,387 415,382" fill="rgb(255,0,254)" />
<polygon points=" 433,313 446,299 427,303 421,284 415,303 396,299 409,313 396,328 415,323 421,343 427,323 446,328 433,313" fill="rgb(255,0,254)" />
<polygon points=" 478,353 497,357 484,343 497,328 478,333 472,313 466,333 446,328 460,343 446,357 466,353 472,372 478,353" fill="rgb(255,0,254)" />
<polygon points=" 466,411 472,431 478,411 497,416 484,401 497,387 478,391 472,372 466,391 446,387 460,401 446,416 466,411" fill="rgb(255,0,254)" />
<polygon points=" 409,431 396,445 415,441 421,460 427,441 446,445 433,431 446,416 427,421 421,401 415,421 396,416 409,431" fill="rgb(255,0,254)" />
<polygon points=" 364,391 345,387 359,401 345,416 364,411 370,431 376,411 396,416 382,401 396,387 376,391 370,372 364,391" fill="rgb(255,0,254)" />
<polygon points=" 376,333 370,313 364,333 345,328 359,343 345,357 364,353 370,372 376,353 396,357 382,343 396,328 376,333" fill="rgb(255,0,254)" />
<polygon points=" 257,460 243,475 263,470 269,489 274,470 294,475 280,460 294,445 274,450 269,431 263,450 243,445 257,460" fill="rgb(255,0,254)" />
<polygon points=" 280,401 294,387 274,391 269,372 263,391 243,387 257,401 243,416 263,411 269,431 274,411 294,416 280,401" fill="rgb(255,0,254)" />
<polygon points=" 325,441 345,445 331,431 345,416 325,421 319,401 314,421 294,416 308,431 294,445 314,441 319,460 325,441" fill="rgb(255,0,254)" />
<polygon points=" 314,499 319,519 325,499 345,504 331,489 345,475 325,479 319,460 314,479 294,475 308,489 294,504 314,499" fill="rgb(255,0,254)" />
<polygon points=" 257,519 243,533 263,529 269,548 274,529 294,533 280,519 294,504 274,509 269,489 263,509 243,504 257,519" fill="rgb(255,0,254)" />
<polygon points=" 212,479 192,475 206,489 192,504 212,499 218,519 224,499 243,504 230,489 243,475 224,479 218,460 212,479" fill="rgb(255,0,254)" />
<polygon points=" 224,421 218,401 212,421 192,416 206,431 192,445 212,441 218,460 224,441 243,445 230,431 243,416 224,421" fill="rgb(255,0,254)" />
<polygon points=" 110,362 91,357 104,372 91,387 110,382 116,401 122,382 142,387 128,372 142,357 122,362 116,343 110,362" fill="rgb(255,0,254)" />
<polygon points=" 128,313 142,299 122,303 116,284 110,303 91,299 104,313 91,328 110,323 116,343 122,323 142,328 128,313" fill="rgb(255,0,254)" />
<polygon points=" 173,353 192,357 179,343 192,328 173,333 167,313 161,333 142,328 155,343 142,357 161,353 167,372 173,353" fill="rgb(255,0,254)" />
<polygon points=" 161,411 167,431 173,411 192,416 179,401 192,387 173,391 167,372 161,391 142,387 155,401 142,416 161,411" fill="rgb(255,0,254)" />
<polygon points=" 104,431 91,445 110,441 116,460 122,441 142,445 128,431 142,416 122,421 116,401 110,421 91,416 104,431" fill="rgb(255,0,254)" />
<polygon points=" 60,391 40,387 54,401 40,416 60,411 65,431 71,411 91,416 77,401 91,387 71,391 65,372 60,391" fill="rgb(255,0,254)" />
<polygon points=" 71,333 65,313 60,333 40,328 54,343 40,357 60,353 65,372 71,353 91,357 77,343 91,328 71,333" fill="rgb(255,0,254)" />
<polygon points=" 122,186 116,167 110,186 91,181 104,196 91,211 110,206 116,225 122,206 142,211 128,196 142,181 122,186" fill="rgb(255,0,254)" />
<polygon points=" 128,137 142,123 122,127 116,108 110,127 91,123 104,137 91,152 110,147 116,167 122,147 142,152 128,137" fill="rgb(255,0,254)" />
<polygon points=" 173,177 192,181 179,167 192,152 173,157 167,137 161,157 142,152 155,167 142,181 161,177 167,196 173,177" fill="rgb(255,0,254)" />
<polygon points=" 161,235 167,255 173,235 192,240 179,225 192,211 173,215 167,196 161,215 142,211 155,225 142,240 161,235" fill="rgb(255,0,254)" />
<polygon points=" 104,255 91,269 110,265 116,284 122,265 142,269 128,255 142,240 122,245 116,225 110,245 91,240 104,255" fill="rgb(255,0,254)" />
<polygon points=" 60,215 40,211 54,225 40,240 60,235 65,255 71,235 91,240 77,225 91,211 71,215 65,196 60,215" fill="rgb(255,0,254)" />
<polygon points=" 71,157 65,137 60,157 40,152 54,167 40,181 60,177 65,196 71,177 91,181 77,167 91,152 71,157" fill="rgb(255,0,254)" />
<polygon points=" 273,284 277,279 271,281 269,274 267,281 260,279 265,284 260,289 267,287 269,294 271,287 277,289 273,284" fill="rgb(0,126,255)" />
<polygon points=" 273,264 277,260 271,261 269,255 267,261 260,260 265,264 260,269 267,268 269,274 271,268 277,269 273,264" fill="rgb(0,126,255)" />
<polygon points=" 288,278 294,279 289,274 294,269 288,271 286,264 284,271 277,269 282,274 277,279 284,278 286,284 288,278" fill="rgb(0,126,255)" />
<polygon points=" 284,297 286,304 288,297 294,299 289,294 294,289 288,290 286,284 284,290 277,289 282,294 277,299 284,297" fill="rgb(0,126,255)" />
<polygon points=" 265,304 260,308 267,307 269,313 271,307 277,308 273,304 277,299 271,300 269,294 267,300 260,299 265,304" fill="rgb(0,126,255)" />
<polygon points=" 250,290 243,289 248,294 243,299 250,297 252,304 254,297 260,299 256,294 260,289 254,290 252,284 250,290" fill="rgb(0,126,255)" />
<polygon points=" 254,271 252,264 250,271 243,269 248,274 243,279 250,278 252,284 254,278 260,279 256,274 260,269 254,271" fill="rgb(0,126,255)" />
<polygon points=" 273,225 277,220 271,222 269,216 267,222 260,220 265,225 260,230 267,229 269,235 271,229 277,230 273,225" fill="rgb(0,126,255)" />
<polygon points=" 273,206 277,201 271,202 269,196 267,202 260,201 265,206 260,211 267,209 269,216 271,209 277,211 273,206" fill="rgb(0,126,255)" />
<polygon points=" 288,219 294,220 289,216 294,211 288,212 286,206 284,212 277,211 282,216 277,220 284,219 286,225 288,219" fill="rgb(0,126,255)" />
<polygon points=" 284,238 286,245 288,238 294,240 289,235 294,230 288,232 286,225 284,232 277,230 282,235 277,240 284,238" fill="rgb(0,126,255)" />
<polygon points=" 265,245 260,250 267,248 269,255 271,248 277,250 273,245 277,240 271,242 269,235 267,242 260,240 265,245" fill="rgb(0,126,255)" />
<polygon points=" 250,232 243,230 248,235 243,240 250,238 252,245 254,238 260,240 256,235 260,230 254,232 252,225 250,232" fill="rgb(0,126,255)" />
<polygon points=" 254,212 252,206 250,212 243,211 248,216 243,220 250,219 252,225 254,219 260,220 256,216 260,211 254,212" fill="rgb(0,126,255)" />
<polygon points=" 321,258 328,260 323,255 328,250 321,251 319,245 317,251 311,250 316,255 311,260 317,258 319,264 321,258" fill="rgb(0,126,255)" />
<polygon points=" 323,235 328,230 321,232 319,225 317,232 311,230 316,235 311,240 317,238 319,245 321,238 328,240 323,235" fill="rgb(0,126,255)" />
<polygon points=" 338,248 345,250 340,245 345,240 338,242 336,235 334,242 328,240 332,245 328,250 334,248 336,255 338,248" fill="rgb(0,126,255)" />
<polygon points=" 334,268 336,274 338,268 345,269 340,264 345,260 338,261 336,255 334,261 328,260 332,264 328,269 334,268" fill="rgb(0,126,255)" />
<polygon points=" 316,274 311,279 317,278 319,284 321,278 328,279 323,274 328,269 321,271 319,264 317,271 311,269 316,274" fill="rgb(0,126,255)" />
<polygon points=" 301,261 294,260 299,264 294,269 301,268 303,274 304,268 311,269 306,264 311,260 304,261 303,255 301,261" fill="rgb(0,126,255)" />
<polygon points=" 304,242 303,235 301,242 294,240 299,245 294,250 301,248 303,255 304,248 311,250 306,245 311,240 304,242" fill="rgb(0,126,255)" />
<polygon points=" 317,317 319,323 321,317 328,318 323,313 328,308 321,310 319,304 317,310 311,308 316,313 311,318 317,317" fill="rgb(0,126,255)" />
<polygon points=" 323,294 328,289 321,290 319,284 317,290 311,289 316,294 311,299 317,297 319,304 321,297 328,299 323,294" fill="rgb(0,126,255)" />
<polygon points=" 338,307 345,308 340,304 345,299 338,300 336,294 334,300 328,299 332,304 328,308 334,307 336,313 338,307" fill="rgb(0,126,255)" />
<polygon points=" 334,326 336,333 338,326 345,328 340,323 345,318 338,320 336,313 334,320 328,318 332,323 328,328 334,326" fill="rgb(0,126,255)" />
<polygon points=" 316,333 311,338 317,336 319,343 321,336 328,338 323,333 328,328 321,330 319,323 317,330 311,328 316,333" fill="rgb(0,126,255)" />
<polygon points=" 301,320 294,318 299,323 294,328 301,326 303,333 304,326 311,328 306,323 311,318 304,320 303,313 301,320" fill="rgb(0,126,255)" />
<polygon points=" 304,300 303,294 301,300 294,299 299,304 294,308 301,307 303,313 304,307 311,308 306,304 311,299 304,300" fill="rgb(0,126,255)" />
<polygon points=" 265,343 260,348 267,346 269,352 271,346 277,348 273,343 277,338 271,339 269,333 267,339 260,338 265,343" fill="rgb(0,126,255)" />
<polygon points=" 273,323 277,318 271,320 269,313 267,320 260,318 265,323 260,328 267,326 269,333 271,326 277,328 273,323" fill="rgb(0,126,255)" />
<polygon points=" 288,336 294,338 289,333 294,328 288,330 286,323 284,330 277,328 282,333 277,338 284,336 286,343 288,336" fill="rgb(0,126,255)" />
<polygon points=" 284,356 286,362 288,356 294,357 289,352 294,348 288,349 286,343 284,349 277,348 282,352 277,357 284,356" fill="rgb(0,126,255)" />
<polygon points=" 265,362 260,367 267,366 269,372 271,366 277,367 273,362 277,357 271,359 269,352 267,359 260,357 265,362" fill="rgb(0,126,255)" />
<polygon points=" 250,349 243,348 248,352 243,357 250,356 252,362 254,356 260,357 256,352 260,348 254,349 252,343 250,349" fill="rgb(0,126,255)" />
<polygon points=" 254,330 252,323 250,330 243,328 248,333 243,338 250,336 252,343 254,336 260,338 256,333 260,328 254,330" fill="rgb(0,126,255)" />
<polygon points=" 216,310 209,308 214,313 209,318 216,317 218,323 220,317 226,318 222,313 226,308 220,310 218,304 216,310" fill="rgb(0,126,255)" />
<polygon points=" 222,294 226,289 220,290 218,284 216,290 209,289 214,294 209,299 216,297 218,304 220,297 226,299 222,294" fill="rgb(0,126,255)" />
<polygon points=" 237,307 243,308 239,304 243,299 237,300 235,294 233,300 226,299 231,304 226,308 233,307 235,313 237,307" fill="rgb(0,126,255)" />
<polygon points=" 233,326 235,333 237,326 243,328 239,323 243,318 237,320 235,313 233,320 226,318 231,323 226,328 233,326" fill="rgb(0,126,255)" />
<polygon points=" 214,333 209,338 216,336 218,343 220,336 226,338 222,333 226,328 220,330 218,323 216,330 209,328 214,333" fill="rgb(0,126,255)" />
<polygon points=" 199,320 192,318 197,323 192,328 199,326 201,333 203,326 209,328 205,323 209,318 203,320 201,313 199,320" fill="rgb(0,126,255)" />
<polygon points=" 203,300 201,294 199,300 192,299 197,304 192,308 199,307 201,313 203,307 209,308 205,304 209,299 203,300" fill="rgb(0,126,255)" />
<polygon points=" 220,251 218,245 216,251 209,250 214,255 209,260 216,258 218,264 220,258 226,260 222,255 226,250 220,251" fill="rgb(0,126,255)" />
<polygon points=" 222,235 226,230 220,232 218,225 216,232 209,230 214,235 209,240 216,238 218,245 220,238 226,240 222,235" fill="rgb(0,126,255)" />
<polygon points=" 237,248 243,250 239,245 243,240 237,242 235,235 233,242 226,240 231,245 226,250 233,248 235,255 237,248" fill="rgb(0,126,255)" />
<polygon points=" 233,268 235,274 237,268 243,269 239,264 243,260 237,261 235,255 233,261 226,260 231,264 226,269 233,268" fill="rgb(0,126,255)" />
<polygon points=" 214,274 209,279 216,278 218,284 220,278 226,279 222,274 226,269 220,271 218,264 216,271 209,269 214,274" fill="rgb(0,126,255)" />
<polygon points=" 199,261 192,260 197,264 192,269 199,268 201,274 203,268 209,269 205,264 209,260 203,261 201,255 199,261" fill="rgb(0,126,255)" />
<polygon points=" 203,242 201,235 199,242 192,240 197,245 192,250 199,248 201,255 203,248 209,250 205,245 209,240 203,242" fill="rgb(0,126,255)" />
<polygon points=" 273,108 277,103 271,105 269,98 267,105 260,103 265,108 260,113 267,111 269,118 271,111 277,113 273,108" fill="rgb(0,126,255)" />
<polygon points=" 273,88 277,84 271,85 269,79 267,85 260,84 265,88 260,93 267,92 269,98 271,92 277,93 273,88" fill="rgb(0,126,255)" />
<polygon points=" 288,102 294,103 289,98 294,93 288,95 286,88 284,95 277,93 282,98 277,103 284,102 286,108 288,102" fill="rgb(0,126,255)" />
<polygon points=" 284,121 286,128 288,121 294,123 289,118 294,113 288,114 286,108 284,114 277,113 282,118 277,123 284,121" fill="rgb(0,126,255)" />
<polygon points=" 265,128 260,132 267,131 269,137 271,131 277,132 273,128 277,123 271,124 269,118 267,124 260,123 265,128" fill="rgb(0,126,255)" />
<polygon points=" 250,114 243,113 248,118 243,123 250,121 252,128 254,121 260,123 256,118 260,113 254,114 252,108 250,114" fill="rgb(0,126,255)" />
<polygon points=" 254,95 252,88 250,95 243,93 248,98 243,103 250,102 252,108 254,102 260,103 256,98 260,93 254,95" fill="rgb(0,126,255)" />
<polygon points=" 273,49 277,44 271,46 269,40 267,46 260,44 265,49 260,54 267,53 269,59 271,53 277,54 273,49" fill="rgb(0,126,255)" />
<polygon points=" 273,30 277,25 271,26 269,20 267,26 260,25 265,30 260,35 267,33 269,40 271,33 277,35 273,30" fill="rgb(0,126,255)" />
<polygon points=" 288,43 294,44 289,40 294,35 288,36 286,30 284,36 277,35 282,40 277,44 284,43 286,49 288,43" fill="rgb(0,126,255)" />
<polygon points=" 284,62 286,69 288,62 294,64 289,59 294,54 288,56 286,49 284,56 277,54 282,59 277,64 284,62" fill="rgb(0,126,255)" />
<polygon points=" 265,69 260,74 267,72 269,79 271,72 277,74 273,69 277,64 271,66 269,59 267,66 260,64 265,69" fill="rgb(0,126,255)" />
<polygon points=" 250,56 243,54 248,59 243,64 250,62 252,69 254,62 260,64 256,59 260,54 254,56 252,49 250,56" fill="rgb(0,126,255)" />
<polygon points=" 254,36 252,30 250,36 243,35 248,40 243,44 250,43 252,49 254,43 260,44 256,40 260,35 254,36" fill="rgb(0,126,255)" />
<polygon points=" 321,82 328,84 323,79 328,74 321,75 319,69 317,75 311,74 316,79 311,84 317,82 319,88 321,82" fill="rgb(0,126,255)" />
<polygon points=" 323,59 328,54 321,56 319,49 317,56 311,54 316,59 311,64 317,62 319,69 321,62 328,64 323,59" fill="rgb(0,126,255)" />
<polygon points=" 338,72 345,74 340,69 345,64 338,66 336,59 334,66 328,64 332,69 328,74 334,72 336,79 338,72" fill="rgb(0,126,255)" />
<polygon points=" 334,92 336,98 338,92 345,93 340,88 345,84 338,85 336,79 334,85 328,84 332,88 328,93 334,92" fill="rgb(0,126,255)" />
<polygon points=" 316,98 311,103 317,102 319,108 321,102 328,103 323,98 328,93 321,95 319,88 317,95 311,93 316,98" fill="rgb(0,126,255)" />
<polygon points=" 301,85 294,84 299,88 294,93 301,92 303,98 304,92 311,93 306,88 311,84 304,85 303,79 301,85" fill="rgb(0,126,255)" />
<polygon points=" 304,66 303,59 301,66 294,64 299,69 294,74 301,72 303,79 304,72 311,74 306,69 311,64 304,66" fill="rgb(0,126,255)" />
<polygon points=" 317,141 319,147 321,141 328,142 323,137 328,132 321,134 319,128 317,134 311,132 316,137 311,142 317,141" fill="rgb(0,126,255)" />
<polygon points=" 323,118 328,113 321,114 319,108 317,114 311,113 316,118 311,123 317,121 319,128 321,121 328,123 323,118" fill="rgb(0,126,255)" />
<polygon points=" 338,131 345,132 340,128 345,123 338,124 336,118 334,124 328,123 332,128 328,132 334,131 336,137 338,131" fill="rgb(0,126,255)" />
<polygon points=" 334,150 336,157 338,150 345,152 340,147 345,142 338,144 336,137 334,144 328,142 332,147 328,152 334,150" fill="rgb(0,126,255)" />
<polygon points=" 316,157 311,162 317,160 319,167 321,160 328,162 323,157 328,152 321,154 319,147 317,154 311,152 316,157" fill="rgb(0,126,255)" />
<polygon points=" 301,144 294,142 299,147 294,152 301,150 303,157 304,150 311,152 306,147 311,142 304,144 303,137 301,144" fill="rgb(0,126,255)" />
<polygon points=" 304,124 303,118 301,124 294,123 299,128 294,132 301,131 303,137 304,131 311,132 306,128 311,123 304,124" fill="rgb(0,126,255)" />
<polygon points=" 265,167 260,172 267,170 269,176 271,170 277,172 273,167 277,162 271,163 269,157 267,163 260,162 265,167" fill="rgb(0,126,255)" />
<polygon points=" 273,147 277,142 271,144 269,137 267,144 260,142 265,147 260,152 267,150 269,157 271,150 277,152 273,147" fill="rgb(0,126,255)" />
<polygon points=" 288,160 294,162 289,157 294,152 288,154 286,147 284,154 277,152 282,157 277,162 284,160 286,167 288,160" fill="rgb(0,126,255)" />
<polygon points=" 284,180 286,186 288,180 294,181 289,176 294,172 288,173 286,167 284,173 277,172 282,176 277,181 284,180" fill="rgb(0,126,255)" />
<polygon points=" 265,186 260,191 267,190 269,196 271,190 277,191 273,186 277,181 271,183 269,176 267,183 260,181 265,186" fill="rgb(0,126,255)" />
<polygon points=" 250,173 243,172 248,176 243,181 250,180 252,186 254,180 260,181 256,176 260,172 254,173 252,167 250,173" fill="rgb(0,126,255)" />
<polygon points=" 254,154 252,147 250,154 243,152 248,157 243,162 250,160 252,167 254,160 260,162 256,157 260,152 254,154" fill="rgb(0,126,255)" />
<polygon points=" 216,134 209,132 214,137 209,142 216,141 218,147 220,141 226,142 222,137 226,132 220,134 218,128 216,134" fill="rgb(0,126,255)" />
<polygon points=" 222,118 226,113 220,114 218,108 216,114 209,113 214,118 209,123 216,121 218,128 220,121 226,123 222,118" fill="rgb(0,126,255)" />
<polygon points=" 237,131 243,132 239,128 243,123 237,124 235,118 233,124 226,123 231,128 226,132 233,131 235,137 237,131" fill="rgb(0,126,255)" />
<polygon points=" 233,150 235,157 237,150 243,152 239,147 243,142 237,144 235,137 233,144 226,142 231,147 226,152 233,150" fill="rgb(0,126,255)" />
<polygon points=" 214,157 209,162 216,160 218,167 220,160 226,162 222,157 226,152 220,154 218,147 216,154 209,152 214,157" fill="rgb(0,126,255)" />
<polygon points=" 199,144 192,142 197,147 192,152 199,150 201,157 203,150 209,152 205,147 209,142 203,144 201,137 199,144" fill="rgb(0,126,255)" />
<polygon points=" 203,124 201,118 199,124 192,123 197,128 192,132 199,131 201,137 203,131 209,132 205,128 209,123 203,124" fill="rgb(0,126,255)" />
<polygon points=" 220,75 218,69 216,75 209,74 214,79 209,84 216,82 218,88 220,82 226,84 222,79 226,74 220,75" fill="rgb(0,126,255)" />
<polygon points=" 222,59 226,54 220,56 218,49 216,56 209,54 214,59 209,64 216,62 218,69 220,62 226,64 222,59" fill="rgb(0,126,255)" />
<polygon points=" 237,72 243,74 239,69 243,64 237,66 235,59 233,66 226,64 231,69 226,74 233,72 235,79 237,72" fill="rgb(0,126,255)" />
<polygon points=" 233,92 235,98 237,92 243,93 239,88 243,84 237,85 235,79 233,85 226,84 231,88 226,93 233,92" fill="rgb(0,126,255)" />
<polygon points=" 214,98 209,103 216,102 218,108 220,102 226,103 222,98 226,93 220,95 218,88 216,95 209,93 214,98" fill="rgb(0,126,255)" />
<polygon points=" 199,85 192,84 197,88 192,93 199,92 201,98 203,92 209,93 205,88 209,84 203,85 201,79 199,85" fill="rgb(0,126,255)" />
<polygon points=" 203,66 201,59 199,66 192,64 197,69 192,74 199,72 201,79 203,72 209,74 205,69 209,64 203,66" fill="rgb(0,126,255)" />
<polygon points=" 423,199 430,201 425,196 430,191 423,193 421,186 419,193 413,191 417,196 413,201 419,199 421,206 423,199" fill="rgb(0,126,255)" />
<polygon points=" 425,176 430,172 423,173 421,167 419,173 413,172 417,176 413,181 419,180 421,186 423,180 430,181 425,176" fill="rgb(0,126,255)" />
<polygon points=" 440,190 446,191 442,186 446,181 440,183 438,176 436,183 430,181 434,186 430,191 436,190 438,196 440,190" fill="rgb(0,126,255)" />
<polygon points=" 436,209 438,216 440,209 446,211 442,206 446,201 440,202 438,196 436,202 430,201 434,206 430,211 436,209" fill="rgb(0,126,255)" />
<polygon points=" 417,216 413,220 419,219 421,225 423,219 430,220 425,216 430,211 423,212 421,206 419,212 413,211 417,216" fill="rgb(0,126,255)" />
<polygon points=" 402,202 396,201 400,206 396,211 402,209 404,216 406,209 413,211 408,206 413,201 406,202 404,196 402,202" fill="rgb(0,126,255)" />
<polygon points=" 406,183 404,176 402,183 396,181 400,186 396,191 402,190 404,196 406,190 413,191 408,186 413,181 406,183" fill="rgb(0,126,255)" />
<polygon points=" 425,137 430,132 423,134 421,128 419,134 413,132 417,137 413,142 419,141 421,147 423,141 430,142 425,137" fill="rgb(0,126,255)" />
<polygon points=" 425,118 430,113 423,114 421,108 419,114 413,113 417,118 413,123 419,121 421,128 423,121 430,123 425,118" fill="rgb(0,126,255)" />
<polygon points=" 440,131 446,132 442,128 446,123 440,124 438,118 436,124 430,123 434,128 430,132 436,131 438,137 440,131" fill="rgb(0,126,255)" />
<polygon points=" 436,150 438,157 440,150 446,152 442,147 446,142 440,144 438,137 436,144 430,142 434,147 430,152 436,150" fill="rgb(0,126,255)" />
<polygon points=" 417,157 413,162 419,160 421,167 423,160 430,162 425,157 430,152 423,154 421,147 419,154 413,152 417,157" fill="rgb(0,126,255)" />
<polygon points=" 402,144 396,142 400,147 396,152 402,150 404,157 406,150 413,152 408,147 413,142 406,144 404,137 402,144" fill="rgb(0,126,255)" />
<polygon points=" 406,124 404,118 402,124 396,123 400,128 396,132 402,131 404,137 406,131 413,132 408,128 413,123 406,124" fill="rgb(0,126,255)" />
<polygon points=" 474,170 480,172 476,167 480,162 474,163 472,157 470,163 463,162 468,167 463,172 470,170 472,176 474,170" fill="rgb(0,126,255)" />
<polygon points=" 476,147 480,142 474,144 472,137 470,144 463,142 468,147 463,152 470,150 472,157 474,150 480,152 476,147" fill="rgb(0,126,255)" />
<polygon points=" 491,160 497,162 493,157 497,152 491,154 489,147 487,154 480,152 485,157 480,162 487,160 489,167 491,160" fill="rgb(0,126,255)" />
<polygon points=" 487,180 489,186 491,180 497,181 493,176 497,172 491,173 489,167 487,173 480,172 485,176 480,181 487,180" fill="rgb(0,126,255)" />
<polygon points=" 468,186 463,191 470,190 472,196 474,190 480,191 476,186 480,181 474,183 472,176 470,183 463,181 468,186" fill="rgb(0,126,255)" />
<polygon points=" 453,173 446,172 451,176 446,181 453,180 455,186 457,180 463,181 459,176 463,172 457,173 455,167 453,173" fill="rgb(0,126,255)" />
<polygon points=" 457,154 455,147 453,154 446,152 451,157 446,162 453,160 455,167 457,160 463,162 459,157 463,152 457,154" fill="rgb(0,126,255)" />
<polygon points=" 470,229 472,235 474,229 480,230 476,225 480,220 474,222 472,216 470,222 463,220 468,225 463,230 470,229" fill="rgb(0,126,255)" />
<polygon points=" 476,206 480,201 474,202 472,196 470,202 463,201 468,206 463,211 470,209 472,216 474,209 480,211 476,206" fill="rgb(0,126,255)" />
<polygon points=" 491,219 497,220 493,216 497,211 491,212 489,206 487,212 480,211 485,216 480,220 487,219 489,225 491,219" fill="rgb(0,126,255)" />
<polygon points=" 487,238 489,245 491,238 497,240 493,235 497,230 491,232 489,225 487,232 480,230 485,235 480,240 487,238" fill="rgb(0,126,255)" />
<polygon points=" 468,245 463,250 470,248 472,255 474,248 480,250 476,245 480,240 474,242 472,235 470,242 463,240 468,245" fill="rgb(0,126,255)" />
<polygon points=" 453,232 446,230 451,235 446,240 453,238 455,245 457,238 463,240 459,235 463,230 457,232 455,225 453,232" fill="rgb(0,126,255)" />
<polygon points=" 457,212 455,206 453,212 446,211 451,216 446,220 453,219 455,225 457,219 463,220 459,216 463,211 457,212" fill="rgb(0,126,255)" />
<polygon points=" 417,255 413,260 419,258 421,264 423,258 430,260 425,255 430,250 423,251 421,245 419,251 413,250 417,255" fill="rgb(0,126,255)" />
<polygon points=" 425,235 430,230 423,232 421,225 419,232 413,230 417,235 413,240 419,238 421,245 423,238 430,240 425,235" fill="rgb(0,126,255)" />
<polygon points=" 440,248 446,250 442,245 446,240 440,242 438,235 436,242 430,240 434,245 430,250 436,248 438,255 440,248" fill="rgb(0,126,255)" />
<polygon points=" 436,268 438,274 440,268 446,269 442,264 446,260 440,261 438,255 436,261 430,260 434,264 430,269 436,268" fill="rgb(0,126,255)" />
<polygon points=" 417,274 413,279 419,278 421,284 423,278 430,279 425,274 430,269 423,271 421,264 419,271 413,269 417,274" fill="rgb(0,126,255)" />
<polygon points=" 402,261 396,260 400,264 396,269 402,268 404,274 406,268 413,269 408,264 413,260 406,261 404,255 402,261" fill="rgb(0,126,255)" />
<polygon points=" 406,242 404,235 402,242 396,240 400,245 396,250 402,248 404,255 406,248 413,250 408,245 413,240 406,242" fill="rgb(0,126,255)" />
<polygon points=" 368,222 362,220 366,225 362,230 368,229 370,235 372,229 379,230 374,225 379,220 372,222 370,216 368,222" fill="rgb(0,126,255)" />
<polygon points=" 374,206 379,201 372,202 370,196 368,202 362,201 366,206 362,211 368,209 370,216 372,209 379,211 374,206" fill="rgb(0,126,255)" />
<polygon points=" 389,219 396,220 391,216 396,211 389,212 387,206 385,212 379,211 383,216 379,220 385,219 387,225 389,219" fill="rgb(0,126,255)" />
<polygon points=" 385,238 387,245 389,238 396,240 391,235 396,230 389,232 387,225 385,232 379,230 383,235 379,240 385,238" fill="rgb(0,126,255)" />
<polygon points=" 366,245 362,250 368,248 370,255 372,248 379,250 374,245 379,240 372,242 370,235 368,242 362,240 366,245" fill="rgb(0,126,255)" />
<polygon points=" 351,232 345,230 349,235 345,240 351,238 353,245 355,238 362,240 357,235 362,230 355,232 353,225 351,232" fill="rgb(0,126,255)" />
<polygon points=" 355,212 353,206 351,212 345,211 349,216 345,220 351,219 353,225 355,219 362,220 357,216 362,211 355,212" fill="rgb(0,126,255)" />
<polygon points=" 372,163 370,157 368,163 362,162 366,167 362,172 368,170 370,176 372,170 379,172 374,167 379,162 372,163" fill="rgb(0,126,255)" />
<polygon points=" 374,147 379,142 372,144 370,137 368,144 362,142 366,147 362,152 368,150 370,157 372,150 379,152 374,147" fill="rgb(0,126,255)" />
<polygon points=" 389,160 396,162 391,157 396,152 389,154 387,147 385,154 379,152 383,157 379,162 385,160 387,167 389,160" fill="rgb(0,126,255)" />
<polygon points=" 385,180 387,186 389,180 396,181 391,176 396,172 389,173 387,167 385,173 379,172 383,176 379,181 385,180" fill="rgb(0,126,255)" />
<polygon points=" 366,186 362,191 368,190 370,196 372,190 379,191 374,186 379,181 372,183 370,176 368,183 362,181 366,186" fill="rgb(0,126,255)" />
<polygon points=" 351,173 345,172 349,176 345,181 351,180 353,186 355,180 362,181 357,176 362,172 355,173 353,167 351,173" fill="rgb(0,126,255)" />
<polygon points=" 355,154 353,147 351,154 345,152 349,157 345,162 351,160 353,167 355,160 362,162 357,157 362,152 355,154" fill="rgb(0,126,255)" />
<polygon points=" 419,375 421,382 423,375 430,377 425,372 430,367 423,369 421,362 419,369 413,367 417,372 413,377 419,375" fill="rgb(0,126,255)" />
<polygon points=" 425,352 430,348 423,349 421,343 419,349 413,348 417,352 413,357 419,356 421,362 423,356 430,357 425,352" fill="rgb(0,126,255)" />
<polygon points=" 440,366 446,367 442,362 446,357 440,359 438,352 436,359 430,357 434,362 430,367 436,366 438,372 440,366" fill="rgb(0,126,255)" />
<polygon points=" 436,385 438,392 440,385 446,387 442,382 446,377 440,378 438,372 436,378 430,377 434,382 430,387 436,385" fill="rgb(0,126,255)" />
<polygon points=" 417,392 413,396 419,395 421,401 423,395 430,396 425,392 430,387 423,388 421,382 419,388 413,387 417,392" fill="rgb(0,126,255)" />
<polygon points=" 402,378 396,377 400,382 396,387 402,385 404,392 406,385 413,387 408,382 413,377 406,378 404,372 402,378" fill="rgb(0,126,255)" />
<polygon points=" 406,359 404,352 402,359 396,357 400,362 396,367 402,366 404,372 406,366 413,367 408,362 413,357 406,359" fill="rgb(0,126,255)" />
<polygon points=" 425,313 430,308 423,310 421,304 419,310 413,308 417,313 413,318 419,317 421,323 423,317 430,318 425,313" fill="rgb(0,126,255)" />
<polygon points=" 425,294 430,289 423,290 421,284 419,290 413,289 417,294 413,299 419,297 421,304 423,297 430,299 425,294" fill="rgb(0,126,255)" />
<polygon points=" 440,307 446,308 442,304 446,299 440,300 438,294 436,300 430,299 434,304 430,308 436,307 438,313 440,307" fill="rgb(0,126,255)" />
<polygon points=" 436,326 438,333 440,326 446,328 442,323 446,318 440,320 438,313 436,320 430,318 434,323 430,328 436,326" fill="rgb(0,126,255)" />
<polygon points=" 417,333 413,338 419,336 421,343 423,336 430,338 425,333 430,328 423,330 421,323 419,330 413,328 417,333" fill="rgb(0,126,255)" />
<polygon points=" 402,320 396,318 400,323 396,328 402,326 404,333 406,326 413,328 408,323 413,318 406,320 404,313 402,320" fill="rgb(0,126,255)" />
<polygon points=" 406,300 404,294 402,300 396,299 400,304 396,308 402,307 404,313 406,307 413,308 408,304 413,299 406,300" fill="rgb(0,126,255)" />
<polygon points=" 474,346 480,348 476,343 480,338 474,339 472,333 470,339 463,338 468,343 463,348 470,346 472,352 474,346" fill="rgb(0,126,255)" />
<polygon points=" 476,323 480,318 474,320 472,313 470,320 463,318 468,323 463,328 470,326 472,333 474,326 480,328 476,323" fill="rgb(0,126,255)" />
<polygon points=" 491,336 497,338 493,333 497,328 491,330 489,323 487,330 480,328 485,333 480,338 487,336 489,343 491,336" fill="rgb(0,126,255)" />
<polygon points=" 487,356 489,362 491,356 497,357 493,352 497,348 491,349 489,343 487,349 480,348 485,352 480,357 487,356" fill="rgb(0,126,255)" />
<polygon points=" 468,362 463,367 470,366 472,372 474,366 480,367 476,362 480,357 474,359 472,352 470,359 463,357 468,362" fill="rgb(0,126,255)" />
<polygon points=" 453,349 446,348 451,352 446,357 453,356 455,362 457,356 463,357 459,352 463,348 457,349 455,343 453,349" fill="rgb(0,126,255)" />
<polygon points=" 457,330 455,323 453,330 446,328 451,333 446,338 453,336 455,343 457,336 463,338 459,333 463,328 457,330" fill="rgb(0,126,255)" />
<polygon points=" 470,405 472,411 474,405 480,406 476,401 480,396 474,398 472,392 470,398 463,396 468,401 463,406 470,405" fill="rgb(0,126,255)" />
<polygon points=" 476,382 480,377 474,378 472,372 470,378 463,377 468,382 463,387 470,385 472,392 474,385 480,387 476,382" fill="rgb(0,126,255)" />
<polygon points=" 491,395 497,396 493,392 497,387 491,388 489,382 487,388 480,387 485,392 480,396 487,395 489,401 491,395" fill="rgb(0,126,255)" />
<polygon points=" 487,414 489,421 491,414 497,416 493,411 497,406 491,408 489,401 487,408 480,406 485,411 480,416 487,414" fill="rgb(0,126,255)" />
<polygon points=" 468,421 463,426 470,424 472,431 474,424 480,426 476,421 480,416 474,418 472,411 470,418 463,416 468,421" fill="rgb(0,126,255)" />
<polygon points=" 453,408 446,406 451,411 446,416 453,414 455,421 457,414 463,416 459,411 463,406 457,408 455,401 453,408" fill="rgb(0,126,255)" />
<polygon points=" 457,388 455,382 453,388 446,387 451,392 446,396 453,395 455,401 457,395 463,396 459,392 463,387 457,388" fill="rgb(0,126,255)" />
<polygon points=" 417,431 413,436 419,434 421,440 423,434 430,436 425,431 430,426 423,427 421,421 419,427 413,426 417,431" fill="rgb(0,126,255)" />
<polygon points=" 425,411 430,406 423,408 421,401 419,408 413,406 417,411 413,416 419,414 421,421 423,414 430,416 425,411" fill="rgb(0,126,255)" />
<polygon points=" 440,424 446,426 442,421 446,416 440,418 438,411 436,418 430,416 434,421 430,426 436,424 438,431 440,424" fill="rgb(0,126,255)" />
<polygon points=" 436,444 438,450 440,444 446,445 442,440 446,436 440,437 438,431 436,437 430,436 434,440 430,445 436,444" fill="rgb(0,126,255)" />
<polygon points=" 417,450 413,455 419,454 421,460 423,454 430,455 425,450 430,445 423,447 421,440 419,447 413,445 417,450" fill="rgb(0,126,255)" />
<polygon points=" 402,437 396,436 400,440 396,445 402,444 404,450 406,444 413,445 408,440 413,436 406,437 404,431 402,437" fill="rgb(0,126,255)" />
<polygon points=" 406,418 404,411 402,418 396,416 400,421 396,426 402,424 404,431 406,424 413,426 408,421 413,416 406,418" fill="rgb(0,126,255)" />
<polygon points=" 368,398 362,396 366,401 362,406 368,405 370,411 372,405 379,406 374,401 379,396 372,398 370,392 368,398" fill="rgb(0,126,255)" />
<polygon points=" 374,382 379,377 372,378 370,372 368,378 362,377 366,382 362,387 368,385 370,392 372,385 379,387 374,382" fill="rgb(0,126,255)" />
<polygon points=" 389,395 396,396 391,392 396,387 389,388 387,382 385,388 379,387 383,392 379,396 385,395 387,401 389,395" fill="rgb(0,126,255)" />
<polygon points=" 385,414 387,421 389,414 396,416 391,411 396,406 389,408 387,401 385,408 379,406 383,411 379,416 385,414" fill="rgb(0,126,255)" />
<polygon points=" 366,421 362,426 368,424 370,431 372,424 379,426 374,421 379,416 372,418 370,411 368,418 362,416 366,421" fill="rgb(0,126,255)" />
<polygon points=" 351,408 345,406 349,411 345,416 351,414 353,421 355,414 362,416 357,411 362,406 355,408 353,401 351,408" fill="rgb(0,126,255)" />
<polygon points=" 355,388 353,382 351,388 345,387 349,392 345,396 351,395 353,401 355,395 362,396 357,392 362,387 355,388" fill="rgb(0,126,255)" />
<polygon points=" 372,339 370,333 368,339 362,338 366,343 362,348 368,346 370,352 372,346 379,348 374,343 379,338 372,339" fill="rgb(0,126,255)" />
<polygon points=" 374,323 379,318 372,320 370,313 368,320 362,318 366,323 362,328 368,326 370,333 372,326 379,328 374,323" fill="rgb(0,126,255)" />
<polygon points=" 389,336 396,338 391,333 396,328 389,330 387,323 385,330 379,328 383,333 379,338 385,336 387,343 389,336" fill="rgb(0,126,255)" />
<polygon points=" 385,356 387,362 389,356 396,357 391,352 396,348 389,349 387,343 385,349 379,348 383,352 379,357 385,356" fill="rgb(0,126,255)" />
<polygon points=" 366,362 362,367 368,366 370,372 372,366 379,367 374,362 379,357 372,359 370,352 368,359 362,357 366,362" fill="rgb(0,126,255)" />
<polygon points=" 351,349 345,348 349,352 345,357 351,356 353,362 355,356 362,357 357,352 362,348 355,349 353,343 351,349" fill="rgb(0,126,255)" />
<polygon points=" 355,330 353,323 351,330 345,328 349,333 345,338 351,336 353,343 355,336 362,338 357,333 362,328 355,330" fill="rgb(0,126,255)" />
<polygon points=" 265,460 260,465 267,463 269,470 271,463 277,465 273,460 277,455 271,457 269,450 267,457 260,455 265,460" fill="rgb(0,126,255)" />
<polygon points=" 273,440 277,436 271,437 269,431 267,437 260,436 265,440 260,445 267,444 269,450 271,444 277,445 273,440" fill="rgb(0,126,255)" />
<polygon points=" 288,454 294,455 289,450 294,445 288,447 286,440 284,447 277,445 282,450 277,455 284,454 286,460 288,454" fill="rgb(0,126,255)" />
<polygon points=" 284,473 286,480 288,473 294,475 289,470 294,465 288,466 286,460 284,466 277,465 282,470 277,475 284,473" fill="rgb(0,126,255)" />
<polygon points=" 265,480 260,484 267,483 269,489 271,483 277,484 273,480 277,475 271,476 269,470 267,476 260,475 265,480" fill="rgb(0,126,255)" />
<polygon points=" 250,466 243,465 248,470 243,475 250,473 252,480 254,473 260,475 256,470 260,465 254,466 252,460 250,466" fill="rgb(0,126,255)" />
<polygon points=" 254,447 252,440 250,447 243,445 248,450 243,455 250,454 252,460 254,454 260,455 256,450 260,445 254,447" fill="rgb(0,126,255)" />
<polygon points=" 273,401 277,396 271,398 269,392 267,398 260,396 265,401 260,406 267,405 269,411 271,405 277,406 273,401" fill="rgb(0,126,255)" />
<polygon points=" 273,382 277,377 271,378 269,372 267,378 260,377 265,382 260,387 267,385 269,392 271,385 277,387 273,382" fill="rgb(0,126,255)" />
<polygon points=" 288,395 294,396 289,392 294,387 288,388 286,382 284,388 277,387 282,392 277,396 284,395 286,401 288,395" fill="rgb(0,126,255)" />
<polygon points=" 284,414 286,421 288,414 294,416 289,411 294,406 288,408 286,401 284,408 277,406 282,411 277,416 284,414" fill="rgb(0,126,255)" />
<polygon points=" 265,421 260,426 267,424 269,431 271,424 277,426 273,421 277,416 271,418 269,411 267,418 260,416 265,421" fill="rgb(0,126,255)" />
<polygon points=" 250,408 243,406 248,411 243,416 250,414 252,421 254,414 260,416 256,411 260,406 254,408 252,401 250,408" fill="rgb(0,126,255)" />
<polygon points=" 254,388 252,382 250,388 243,387 248,392 243,396 250,395 252,401 254,395 260,396 256,392 260,387 254,388" fill="rgb(0,126,255)" />
<polygon points=" 321,434 328,436 323,431 328,426 321,427 319,421 317,427 311,426 316,431 311,436 317,434 319,440 321,434" fill="rgb(0,126,255)" />
<polygon points=" 323,411 328,406 321,408 319,401 317,408 311,406 316,411 311,416 317,414 319,421 321,414 328,416 323,411" fill="rgb(0,126,255)" />
<polygon points=" 338,424 345,426 340,421 345,416 338,418 336,411 334,418 328,416 332,421 328,426 334,424 336,431 338,424" fill="rgb(0,126,255)" />
<polygon points=" 334,444 336,450 338,444 345,445 340,440 345,436 338,437 336,431 334,437 328,436 332,440 328,445 334,444" fill="rgb(0,126,255)" />
<polygon points=" 316,450 311,455 317,454 319,460 321,454 328,455 323,450 328,445 321,447 319,440 317,447 311,445 316,450" fill="rgb(0,126,255)" />
<polygon points=" 301,437 294,436 299,440 294,445 301,444 303,450 304,444 311,445 306,440 311,436 304,437 303,431 301,437" fill="rgb(0,126,255)" />
<polygon points=" 304,418 303,411 301,418 294,416 299,421 294,426 301,424 303,431 304,424 311,426 306,421 311,416 304,418" fill="rgb(0,126,255)" />
<polygon points=" 317,493 319,499 321,493 328,494 323,489 328,484 321,486 319,480 317,486 311,484 316,489 311,494 317,493" fill="rgb(0,126,255)" />
<polygon points=" 323,470 328,465 321,466 319,460 317,466 311,465 316,470 311,475 317,473 319,480 321,473 328,475 323,470" fill="rgb(0,126,255)" />
<polygon points=" 338,483 345,484 340,480 345,475 338,476 336,470 334,476 328,475 332,480 328,484 334,483 336,489 338,483" fill="rgb(0,126,255)" />
<polygon points=" 334,502 336,509 338,502 345,504 340,499 345,494 338,496 336,489 334,496 328,494 332,499 328,504 334,502" fill="rgb(0,126,255)" />
<polygon points=" 316,509 311,514 317,512 319,519 321,512 328,514 323,509 328,504 321,506 319,499 317,506 311,504 316,509" fill="rgb(0,126,255)" />
<polygon points=" 301,496 294,494 299,499 294,504 301,502 303,509 304,502 311,504 306,499 311,494 304,496 303,489 301,496" fill="rgb(0,126,255)" />
<polygon points=" 304,476 303,470 301,476 294,475 299,480 294,484 301,483 303,489 304,483 311,484 306,480 311,475 304,476" fill="rgb(0,126,255)" />
<polygon points=" 265,519 260,524 267,522 269,528 271,522 277,524 273,519 277,514 271,515 269,509 267,515 260,514 265,519" fill="rgb(0,126,255)" />
<polygon points=" 273,499 277,494 271,496 269,489 267,496 260,494 265,499 260,504 267,502 269,509 271,502 277,504 273,499" fill="rgb(0,126,255)" />
<polygon points=" 288,512 294,514 289,509 294,504 288,506 286,499 284,506 277,504 282,509 277,514 284,512 286,519 288,512" fill="rgb(0,126,255)" />
<polygon points=" 284,532 286,538 288,532 294,533 289,528 294,524 288,525 286,519 284,525 277,524 282,528 277,533 284,532" fill="rgb(0,126,255)" />
<polygon points=" 265,538 260,543 267,542 269,548 271,542 277,543 273,538 277,533 271,535 269,528 267,535 260,533 265,538" fill="rgb(0,126,255)" />
<polygon points=" 250,525 243,524 248,528 243,533 250,532 252,538 254,532 260,533 256,528 260,524 254,525 252,519 250,525" fill="rgb(0,126,255)" />
<polygon points=" 254,506 252,499 250,506 243,504 248,509 243,514 250,512 252,519 254,512 260,514 256,509 260,504 254,506" fill="rgb(0,126,255)" />
<polygon points=" 216,486 209,484 214,489 209,494 216,493 218,499 220,493 226,494 222,489 226,484 220,486 218,480 216,486" fill="rgb(0,126,255)" />
<polygon points=" 222,470 226,465 220,466 218,460 216,466 209,465 214,470 209,475 216,473 218,480 220,473 226,475 222,470" fill="rgb(0,126,255)" />
<polygon points=" 237,483 243,484 239,480 243,475 237,476 235,470 233,476 226,475 231,480 226,484 233,483 235,489 237,483" fill="rgb(0,126,255)" />
<polygon points=" 233,502 235,509 237,502 243,504 239,499 243,494 237,496 235,489 233,496 226,494 231,499 226,504 233,502" fill="rgb(0,126,255)" />
<polygon points=" 214,509 209,514 216,512 218,519 220,512 226,514 222,509 226,504 220,506 218,499 216,506 209,504 214,509" fill="rgb(0,126,255)" />
<polygon points=" 199,496 192,494 197,499 192,504 199,502 201,509 203,502 209,504 205,499 209,494 203,496 201,489 199,496" fill="rgb(0,126,255)" />
<polygon points=" 203,476 201,470 199,476 192,475 197,480 192,484 199,483 201,489 203,483 209,484 205,480 209,475 203,476" fill="rgb(0,126,255)" />
<polygon points=" 220,427 218,421 216,427 209,426 214,431 209,436 216,434 218,440 220,434 226,436 222,431 226,426 220,427" fill="rgb(0,126,255)" />
<polygon points=" 222,411 226,406 220,408 218,401 216,408 209,406 214,411 209,416 216,414 218,421 220,414 226,416 222,411" fill="rgb(0,126,255)" />
<polygon points=" 237,424 243,426 239,421 243,416 237,418 235,411 233,418 226,416 231,421 226,426 233,424 235,431 237,424" fill="rgb(0,126,255)" />
<polygon points=" 233,444 235,450 237,444 243,445 239,440 243,436 237,437 235,431 233,437 226,436 231,440 226,445 233,444" fill="rgb(0,126,255)" />
<polygon points=" 214,450 209,455 216,454 218,460 220,454 226,455 222,450 226,445 220,447 218,440 216,447 209,445 214,450" fill="rgb(0,126,255)" />
<polygon points=" 199,437 192,436 197,440 192,445 199,444 201,450 203,444 209,445 205,440 209,436 203,437 201,431 199,437" fill="rgb(0,126,255)" />
<polygon points=" 203,418 201,411 199,418 192,416 197,421 192,426 199,424 201,431 203,424 209,426 205,421 209,416 203,418" fill="rgb(0,126,255)" />
<polygon points=" 114,369 108,367 112,372 108,377 114,375 116,382 118,375 125,377 120,372 125,367 118,369 116,362 114,369" fill="rgb(0,126,255)" />
<polygon points=" 120,352 125,348 118,349 116,343 114,349 108,348 112,352 108,357 114,356 116,362 118,356 125,357 120,352" fill="rgb(0,126,255)" />
<polygon points=" 135,366 142,367 137,362 142,357 135,359 133,352 131,359 125,357 129,362 125,367 131,366 133,372 135,366" fill="rgb(0,126,255)" />
<polygon points=" 131,385 133,392 135,385 142,387 137,382 142,377 135,378 133,372 131,378 125,377 129,382 125,387 131,385" fill="rgb(0,126,255)" />
<polygon points=" 112,392 108,396 114,395 116,401 118,395 125,396 120,392 125,387 118,388 116,382 114,388 108,387 112,392" fill="rgb(0,126,255)" />
<polygon points=" 97,378 91,377 95,382 91,387 97,385 99,392 101,385 108,387 103,382 108,377 101,378 99,372 97,378" fill="rgb(0,126,255)" />
<polygon points=" 101,359 99,352 97,359 91,357 95,362 91,367 97,366 99,372 101,366 108,367 103,362 108,357 101,359" fill="rgb(0,126,255)" />
<polygon points=" 120,313 125,308 118,310 116,304 114,310 108,308 112,313 108,318 114,317 116,323 118,317 125,318 120,313" fill="rgb(0,126,255)" />
<polygon points=" 120,294 125,289 118,290 116,284 114,290 108,289 112,294 108,299 114,297 116,304 118,297 125,299 120,294" fill="rgb(0,126,255)" />
<polygon points=" 135,307 142,308 137,304 142,299 135,300 133,294 131,300 125,299 129,304 125,308 131,307 133,313 135,307" fill="rgb(0,126,255)" />
<polygon points=" 131,326 133,333 135,326 142,328 137,323 142,318 135,320 133,313 131,320 125,318 129,323 125,328 131,326" fill="rgb(0,126,255)" />
<polygon points=" 112,333 108,338 114,336 116,343 118,336 125,338 120,333 125,328 118,330 116,323 114,330 108,328 112,333" fill="rgb(0,126,255)" />
<polygon points=" 97,320 91,318 95,323 91,328 97,326 99,333 101,326 108,328 103,323 108,318 101,320 99,313 97,320" fill="rgb(0,126,255)" />
<polygon points=" 101,300 99,294 97,300 91,299 95,304 91,308 97,307 99,313 101,307 108,308 103,304 108,299 101,300" fill="rgb(0,126,255)" />
<polygon points=" 169,346 175,348 171,343 175,338 169,339 167,333 165,339 159,338 163,343 159,348 165,346 167,352 169,346" fill="rgb(0,126,255)" />
<polygon points=" 171,323 175,318 169,320 167,313 165,320 159,318 163,323 159,328 165,326 167,333 169,326 175,328 171,323" fill="rgb(0,126,255)" />
<polygon points=" 186,336 192,338 188,333 192,328 186,330 184,323 182,330 175,328 180,333 175,338 182,336 184,343 186,336" fill="rgb(0,126,255)" />
<polygon points=" 182,356 184,362 186,356 192,357 188,352 192,348 186,349 184,343 182,349 175,348 180,352 175,357 182,356" fill="rgb(0,126,255)" />
<polygon points=" 163,362 159,367 165,366 167,372 169,366 175,367 171,362 175,357 169,359 167,352 165,359 159,357 163,362" fill="rgb(0,126,255)" />
<polygon points=" 148,349 142,348 146,352 142,357 148,356 150,362 152,356 159,357 154,352 159,348 152,349 150,343 148,349" fill="rgb(0,126,255)" />
<polygon points=" 152,330 150,323 148,330 142,328 146,333 142,338 148,336 150,343 152,336 159,338 154,333 159,328 152,330" fill="rgb(0,126,255)" />
<polygon points=" 165,405 167,411 169,405 175,406 171,401 175,396 169,398 167,392 165,398 159,396 163,401 159,406 165,405" fill="rgb(0,126,255)" />
<polygon points=" 171,382 175,377 169,378 167,372 165,378 159,377 163,382 159,387 165,385 167,392 169,385 175,387 171,382" fill="rgb(0,126,255)" />
<polygon points=" 186,395 192,396 188,392 192,387 186,388 184,382 182,388 175,387 180,392 175,396 182,395 184,401 186,395" fill="rgb(0,126,255)" />
<polygon points=" 182,414 184,421 186,414 192,416 188,411 192,406 186,408 184,401 182,408 175,406 180,411 175,416 182,414" fill="rgb(0,126,255)" />
<polygon points=" 163,421 159,426 165,424 167,431 169,424 175,426 171,421 175,416 169,418 167,411 165,418 159,416 163,421" fill="rgb(0,126,255)" />
<polygon points=" 148,408 142,406 146,411 142,416 148,414 150,421 152,414 159,416 154,411 159,406 152,408 150,401 148,408" fill="rgb(0,126,255)" />
<polygon points=" 152,388 150,382 148,388 142,387 146,392 142,396 148,395 150,401 152,395 159,396 154,392 159,387 152,388" fill="rgb(0,126,255)" />
<polygon points=" 112,431 108,436 114,434 116,440 118,434 125,436 120,431 125,426 118,427 116,421 114,427 108,426 112,431" fill="rgb(0,126,255)" />
<polygon points=" 120,411 125,406 118,408 116,401 114,408 108,406 112,411 108,416 114,414 116,421 118,414 125,416 120,411" fill="rgb(0,126,255)" />
<polygon points=" 135,424 142,426 137,421 142,416 135,418 133,411 131,418 125,416 129,421 125,426 131,424 133,431 135,424" fill="rgb(0,126,255)" />
<polygon points=" 131,444 133,450 135,444 142,445 137,440 142,436 135,437 133,431 131,437 125,436 129,440 125,445 131,444" fill="rgb(0,126,255)" />
<polygon points=" 112,450 108,455 114,454 116,460 118,454 125,455 120,450 125,445 118,447 116,440 114,447 108,445 112,450" fill="rgb(0,126,255)" />
<polygon points=" 97,437 91,436 95,440 91,445 97,444 99,450 101,444 108,445 103,440 108,436 101,437 99,431 97,437" fill="rgb(0,126,255)" />
<polygon points=" 101,418 99,411 97,418 91,416 95,421 91,426 97,424 99,431 101,424 108,426 103,421 108,416 101,418" fill="rgb(0,126,255)" />
<polygon points=" 63,398 57,396 61,401 57,406 63,405 65,411 67,405 74,406 69,401 74,396 67,398 65,392 63,398" fill="rgb(0,126,255)" />
<polygon points=" 69,382 74,377 67,378 65,372 63,378 57,377 61,382 57,387 63,385 65,392 67,385 74,387 69,382" fill="rgb(0,126,255)" />
<polygon points=" 84,395 91,396 86,392 91,387 84,388 82,382 80,388 74,387 78,392 74,396 80,395 82,401 84,395" fill="rgb(0,126,255)" />
<polygon points=" 80,414 82,421 84,414 91,416 86,411 91,406 84,408 82,401 80,408 74,406 78,411 74,416 80,414" fill="rgb(0,126,255)" />
<polygon points=" 61,421 57,426 63,424 65,431 67,424 74,426 69,421 74,416 67,418 65,411 63,418 57,416 61,421" fill="rgb(0,126,255)" />
<polygon points=" 47,408 40,406 45,411 40,416 47,414 48,421 50,414 57,416 52,411 57,406 50,408 48,401 47,408" fill="rgb(0,126,255)" />
<polygon points=" 50,388 48,382 47,388 40,387 45,392 40,396 47,395 48,401 50,395 57,396 52,392 57,387 50,388" fill="rgb(0,126,255)" />
<polygon points=" 67,339 65,333 63,339 57,338 61,343 57,348 63,346 65,352 67,346 74,348 69,343 74,338 67,339" fill="rgb(0,126,255)" />
<polygon points=" 69,323 74,318 67,320 65,313 63,320 57,318 61,323 57,328 63,326 65,333 67,326 74,328 69,323" fill="rgb(0,126,255)" />
<polygon points=" 84,336 91,338 86,333 91,328 84,330 82,323 80,330 74,328 78,333 74,338 80,336 82,343 84,336" fill="rgb(0,126,255)" />
<polygon points=" 80,356 82,362 84,356 91,357 86,352 91,348 84,349 82,343 80,349 74,348 78,352 74,357 80,356" fill="rgb(0,126,255)" />
<polygon points=" 61,362 57,367 63,366 65,372 67,366 74,367 69,362 74,357 67,359 65,352 63,359 57,357 61,362" fill="rgb(0,126,255)" />
<polygon points=" 47,349 40,348 45,352 40,357 47,356 48,362 50,356 57,357 52,352 57,348 50,349 48,343 47,349" fill="rgb(0,126,255)" />
<polygon points=" 50,330 48,323 47,330 40,328 45,333 40,338 47,336 48,343 50,336 57,338 52,333 57,328 50,330" fill="rgb(0,126,255)" />
<polygon points=" 118,193 116,186 114,193 108,191 112,196 108,201 114,199 116,206 118,199 125,201 120,196 125,191 118,193" fill="rgb(0,126,255)" />
<polygon points=" 120,176 125,172 118,173 116,167 114,173 108,172 112,176 108,181 114,180 116,186 118,180 125,181 120,176" fill="rgb(0,126,255)" />
<polygon points=" 135,190 142,191 137,186 142,181 135,183 133,176 131,183 125,181 129,186 125,191 131,190 133,196 135,190" fill="rgb(0,126,255)" />
<polygon points=" 131,209 133,216 135,209 142,211 137,206 142,201 135,202 133,196 131,202 125,201 129,206 125,211 131,209" fill="rgb(0,126,255)" />
<polygon points=" 112,216 108,220 114,219 116,225 118,219 125,220 120,216 125,211 118,212 116,206 114,212 108,211 112,216" fill="rgb(0,126,255)" />
<polygon points=" 97,202 91,201 95,206 91,211 97,209 99,216 101,209 108,211 103,206 108,201 101,202 99,196 97,202" fill="rgb(0,126,255)" />
<polygon points=" 101,183 99,176 97,183 91,181 95,186 91,191 97,190 99,196 101,190 108,191 103,186 108,181 101,183" fill="rgb(0,126,255)" />
<polygon points=" 120,137 125,132 118,134 116,128 114,134 108,132 112,137 108,142 114,141 116,147 118,141 125,142 120,137" fill="rgb(0,126,255)" />
<polygon points=" 120,118 125,113 118,114 116,108 114,114 108,113 112,118 108,123 114,121 116,128 118,121 125,123 120,118" fill="rgb(0,126,255)" />
<polygon points=" 135,131 142,132 137,128 142,123 135,124 133,118 131,124 125,123 129,128 125,132 131,131 133,137 135,131" fill="rgb(0,126,255)" />
<polygon points=" 131,150 133,157 135,150 142,152 137,147 142,142 135,144 133,137 131,144 125,142 129,147 125,152 131,150" fill="rgb(0,126,255)" />
<polygon points=" 112,157 108,162 114,160 116,167 118,160 125,162 120,157 125,152 118,154 116,147 114,154 108,152 112,157" fill="rgb(0,126,255)" />
<polygon points=" 97,144 91,142 95,147 91,152 97,150 99,157 101,150 108,152 103,147 108,142 101,144 99,137 97,144" fill="rgb(0,126,255)" />
<polygon points=" 101,124 99,118 97,124 91,123 95,128 91,132 97,131 99,137 101,131 108,132 103,128 108,123 101,124" fill="rgb(0,126,255)" />
<polygon points=" 169,170 175,172 171,167 175,162 169,163 167,157 165,163 159,162 163,167 159,172 165,170 167,176 169,170" fill="rgb(0,126,255)" />
<polygon points=" 171,147 175,142 169,144 167,137 165,144 159,142 163,147 159,152 165,150 167,157 169,150 175,152 171,147" fill="rgb(0,126,255)" />
<polygon points=" 186,160 192,162 188,157 192,152 186,154 184,147 182,154 175,152 180,157 175,162 182,160 184,167 186,160" fill="rgb(0,126,255)" />
<polygon points=" 182,180 184,186 186,180 192,181 188,176 192,172 186,173 184,167 182,173 175,172 180,176 175,181 182,180" fill="rgb(0,126,255)" />
<polygon points=" 163,186 159,191 165,190 167,196 169,190 175,191 171,186 175,181 169,183 167,176 165,183 159,181 163,186" fill="rgb(0,126,255)" />
<polygon points=" 148,173 142,172 146,176 142,181 148,180 150,186 152,180 159,181 154,176 159,172 152,173 150,167 148,173" fill="rgb(0,126,255)" />
<polygon points=" 152,154 150,147 148,154 142,152 146,157 142,162 148,160 150,167 152,160 159,162 154,157 159,152 152,154" fill="rgb(0,126,255)" />
<polygon points=" 165,229 167,235 169,229 175,230 171,225 175,220 169,222 167,216 165,222 159,220 163,225 159,230 165,229" fill="rgb(0,126,255)" />
<polygon points=" 171,206 175,201 169,202 167,196 165,202 159,201 163,206 159,211 165,209 167,216 169,209 175,211 171,206" fill="rgb(0,126,255)" />
<polygon points=" 186,219 192,220 188,216 192,211 186,212 184,206 182,212 175,211 180,216 175,220 182,219 184,225 186,219" fill="rgb(0,126,255)" />
<polygon points=" 182,238 184,245 186,238 192,240 188,235 192,230 186,232 184,225 182,232 175,230 180,235 175,240 182,238" fill="rgb(0,126,255)" />
<polygon points=" 163,245 159,250 165,248 167,255 169,248 175,250 171,245 175,240 169,242 167,235 165,242 159,240 163,245" fill="rgb(0,126,255)" />
<polygon points=" 148,232 142,230 146,235 142,240 148,238 150,245 152,238 159,240 154,235 159,230 152,232 150,225 148,232" fill="rgb(0,126,255)" />
<polygon points=" 152,212 150,206 148,212 142,211 146,216 142,220 148,219 150,225 152,219 159,220 154,216 159,211 152,212" fill="rgb(0,126,255)" />
<polygon points=" 112,255 108,260 114,258 116,264 118,258 125,260 120,255 125,250 118,251 116,245 114,251 108,250 112,255" fill="rgb(0,126,255)" />
<polygon points=" 120,235 125,230 118,232 116,225 114,232 108,230 112,235 108,240 114,238 116,245 118,238 125,240 120,235" fill="rgb(0,126,255)" />
<polygon points=" 135,248 142,250 137,245 142,240 135,242 133,235 131,242 125,240 129,245 125,250 131,248 133,255 135,248" fill="rgb(0,126,255)" />
<polygon points=" 131,268 133,274 135,268 142,269 137,264 142,260 135,261 133,255 131,261 125,260 129,264 125,269 131,268" fill="rgb(0,126,255)" />
<polygon points=" 112,274 108,279 114,278 116,284 118,278 125,279 120,274 125,269 118,271 116,264 114,271 108,269 112,274" fill="rgb(0,126,255)" />
<polygon points=" 97,261 91,260 95,264 91,269 97,268 99,274 101,268 108,269 103,264 108,260 101,261 99,255 97,261" fill="rgb(0,126,255)" />
<polygon points=" 101,242 99,235 97,242 91,240 95,245 91,250 97,248 99,255 101,248 108,250 103,245 108,240 101,242" fill="rgb(0,126,255)" />
<polygon points=" 63,222 57,220 61,225 57,230 63,229 65,235 67,229 74,230 69,225 74,220 67,222 65,216 63,222" fill="rgb(0,126,255)" />
<polygon points=" 69,206 74,201 67,202 65,196 63,202 57,201 61,206 57,211 63,209 65,216 67,209 74,211 69,206" fill="rgb(0,126,255)" />
<polygon points=" 84,219 91,220 86,216 91,211 84,212 82,206 80,212 74,211 78,216 74,220 80,219 82,225 84,219" fill="rgb(0,126,255)" />
<polygon points=" 80,238 82,245 84,238 91,240 86,235 91,230 84,232 82,225 80,232 74,230 78,235 74,240 80,238" fill="rgb(0,126,255)" />
<polygon points=" 61,245 57,250 63,248 65,255 67,248 74,250 69,245 74,240 67,242 65,235 63,242 57,240 61,245" fill="rgb(0,126,255)" />
<polygon points=" 47,232 40,230 45,235 40,240 47,238 48,245 50,238 57,240 52,235 57,230 50,232 48,225 47,232" fill="rgb(0,126,255)" />
<polygon points=" 50,212 48,206 47,212 40,211 45,216 40,220 47,219 48,225 50,219 57,220 52,216 57,211 50,212" fill="rgb(0,126,255)" />
<polygon points=" 67,163 65,157 63,163 57,162 61,167 57,172 63,170 65,176 67,170 74,172 69,167 74,162 67,163" fill="rgb(0,126,255)" />
<polygon points=" 69,147 74,142 67,144 65,137 63,144 57,142 61,147 57,152 63,150 65,157 67,150 74,152 69,147" fill="rgb(0,126,255)" />
<polygon points=" 84,160 91,162 86,157 91,152 84,154 82,147 80,154 74,152 78,157 74,162 80,160 82,167 84,160" fill="rgb(0,126,255)" />
<polygon points=" 80,180 82,186 84,180 91,181 86,176 91,172 84,173 82,167 80,173 74,172 78,176 74,181 80,180" fill="rgb(0,126,255)" />
<polygon points=" 61,186 57,191 63,190 65,196 67,190 74,191 69,186 74,181 67,183 65,176 63,183 57,181 61,186" fill="rgb(0,126,255)" />
<polygon points=" 47,173 40,172 45,176 40,181 47,180 48,186 50,180 57,181 52,176 57,172 50,173 48,167 47,173" fill="rgb(0,126,255)" />
<polygon points=" 50,154 48,147 47,154 40,152 45,157 40,162 47,160 48,167 50,160 57,162 52,157 57,152 50,154" fill="rgb(0,126,255)" /></svg>