<svg xmlns="http://www.w3.org/2000/svg" 
xmlns:xlink="http://www.w3.org/1999/xlink" 
version="1.1" baseProfile="full" 
width="537" height="568" >
<polygon points=" 348,284 497,152 308,215 269,20 229,215 40,152 189,284 40,416 229,353 269,548 308,353 497,416 348,284" fill="rgb(170,255,0)" />
<polygon points=" 295,284 345,240 282,261 269,196 255,261 192,240 242,284 192,328 255,307 269,372 282,307 345,328 295,284" fill="rgb(255,0,42)" />
<polygon points=" 295,108 345,64 282,85 269,20 255,85 192,64 242,108 192,152 255,131 269,196 282,131 345,152 295,108" fill="rgb(255,0,42)" />
<polygon points=" 434,219 497,240 447,196 497,152 434,173 421,108 408,173 345,152 395,196 345,240 408,219 421,284 434,219" fill="rgb(255,0,42)" />
<polygon points=" 408,395 421,460 434,395 497,416 447,372 497,328 434,349 421,284 408,349 345,328 395,372 345,416 408,395" fill="rgb(255,0,42)" />
<polygon points=" 242,460 192,504 255,483 269,548 282,483 345,504 295,460 345,416 282,437 269,372 255,437 192,416 242,460" fill="rgb(255,0,42)" />
<polygon points=" 103,349 40,328 90,372 40,416 103,395 116,460 129,395 192,416 143,372 192,328 129,349 116,284 103,349" fill="rgb(255,0,42)" />
<polygon points=" 129,173 116,108 103,173 40,152 90,196 40,240 103,219 116,284 129,219 192,240 143,196 192,152 129,173" fill="rgb(255,0,42)" />
<polygon points=" 277,284 294,269 273,276 269,255 264,276 243,269 260,284 243,299 264,292 269,313 273,292 294,299 277,284" fill="rgb(86,0,255)" />
<polygon points=" 277,225 294,211 273,218 269,196 264,218 243,211 260,225 243,240 264,233 269,255 273,233 294,240 277,225" fill="rgb(86,0,255)" />
<polygon points=" 324,262 345,269 328,255 345,240 324,247 319,225 315,247 294,240 311,255 294,269 315,262 319,284 324,262" fill="rgb(86,0,255)" />
<polygon points=" 315,321 319,343 324,321 345,328 328,313 345,299 324,306 319,284 315,306 294,299 311,313 294,328 315,321" fill="rgb(86,0,255)" />
<polygon points=" 260,343 243,357 264,350 269,372 273,350 294,357 277,343 294,328 273,335 269,313 264,335 243,328 260,343" fill="rgb(86,0,255)" />
<polygon points=" 213,306 192,299 209,313 192,328 213,321 218,343 222,321 243,328 227,313 243,299 222,306 218,284 213,306" fill="rgb(86,0,255)" />
<polygon points=" 222,247 218,225 213,247 192,240 209,255 192,269 213,262 218,284 222,262 243,269 227,255 243,240 222,247" fill="rgb(86,0,255)" />
<polygon points=" 277,108 294,93 273,100 269,79 264,100 243,93 260,108 243,123 264,116 269,137 273,116 294,123 277,108" fill="rgb(86,0,255)" />
<polygon points=" 277,49 294,35 273,42 269,20 264,42 243,35 260,49 243,64 264,57 269,79 273,57 294,64 277,49" fill="rgb(86,0,255)" />
<polygon points=" 324,86 345,93 328,79 345,64 324,71 319,49 315,71 294,64 311,79 294,93 315,86 319,108 324,86" fill="rgb(86,0,255)" />
<polygon points=" 315,145 319,167 324,145 345,152 328,137 345,123 324,130 319,108 315,130 294,123 311,137 294,152 315,145" fill="rgb(86,0,255)" />
<polygon points=" 260,167 243,181 264,174 269,196 273,174 294,181 277,167 294,152 273,159 269,137 264,159 243,152 260,167" fill="rgb(86,0,255)" />
<polygon points=" 213,130 192,123 209,137 192,152 213,145 218,167 222,145 243,152 227,137 243,123 222,130 218,108 213,130" fill="rgb(86,0,255)" />
<polygon points=" 222,71 218,49 213,71 192,64 209,79 192,93 213,86 218,108 222,86 243,93 227,79 243,64 222,71" fill="rgb(86,0,255)" />
<polygon points=" 425,204 446,211 430,196 446,181 425,188 421,167 417,188 396,181 412,196 396,211 417,204 421,225 425,204" fill="rgb(86,0,255)" />
<polygon points=" 430,137 446,123 425,130 421,108 417,130 396,123 412,137 396,152 417,145 421,167 425,145 446,152 430,137" fill="rgb(86,0,255)" />
<polygon points=" 476,174 497,181 481,167 497,152 476,159 472,137 467,159 446,152 463,167 446,181 467,174 472,196 476,174" fill="rgb(86,0,255)" />
<polygon points=" 467,233 472,255 476,233 497,240 481,225 497,211 476,218 472,196 467,218 446,211 463,225 446,240 467,233" fill="rgb(86,0,255)" />
<polygon points=" 412,255 396,269 417,262 421,284 425,262 446,269 430,255 446,240 425,247 421,225 417,247 396,240 412,255" fill="rgb(86,0,255)" />
<polygon points=" 366,218 345,211 361,225 345,240 366,233 370,255 375,233 396,240 379,225 396,211 375,218 370,196 366,218" fill="rgb(86,0,255)" />
<polygon points=" 375,159 370,137 366,159 345,152 361,167 345,181 366,174 370,196 375,174 396,181 379,167 396,152 375,159" fill="rgb(86,0,255)" />
<polygon points=" 417,380 421,401 425,380 446,387 430,372 446,357 425,364 421,343 417,364 396,357 412,372 396,387 417,380" fill="rgb(86,0,255)" />
<polygon points=" 430,313 446,299 425,306 421,284 417,306 396,299 412,313 396,328 417,321 421,343 425,321 446,328 430,313" fill="rgb(86,0,255)" />
<polygon points=" 476,350 497,357 481,343 497,328 476,335 472,313 467,335 446,328 463,343 446,357 467,350 472,372 476,350" fill="rgb(86,0,255)" />
<polygon points=" 467,409 472,431 476,409 497,416 481,401 497,387 476,394 472,372 467,394 446,387 463,401 446,416 467,409" fill="rgb(86,0,255)" />
<polygon points=" 412,431 396,445 417,438 421,460 425,438 446,445 430,431 446,416 425,423 421,401 417,423 396,416 412,431" fill="rgb(86,0,255)" />
<polygon points=" 366,394 345,387 361,401 345,416 366,409 370,431 375,409 396,416 379,401 396,387 375,394 370,372 366,394" fill="rgb(86,0,255)" />
<polygon points=" 375,335 370,313 366,335 345,328 361,343 345,357 366,350 370,372 375,350 396,357 379,343 396,328 375,335" fill="rgb(86,0,255)" />
<polygon points=" 260,460 243,475 264,468 269,489 273,468 294,475 277,460 294,445 273,452 269,431 264,452 243,445 260,460" fill="rgb(86,0,255)" />
<polygon points=" 277,401 294,387 273,394 269,372 264,394 243,387 260,401 243,416 264,409 269,431 273,409 294,416 277,401" fill="rgb(86,0,255)" />
<polygon points=" 324,438 345,445 328,431 345,416 324,423 319,401 315,423 294,416 311,431 294,445 315,438 319,460 324,438" fill="rgb(86,0,255)" />
<polygon points=" 315,497 319,519 324,497 345,504 328,489 345,475 324,482 319,460 315,482 294,475 311,489 294,504 315,497" fill="rgb(86,0,255)" />
<polygon points=" 260,519 243,533 264,526 269,548 273,526 294,533 277,519 294,504 273,511 269,489 264,511 243,504 260,519" fill="rgb(86,0,255)" />
<polygon points=" 213,482 192,475 209,489 192,504 213,497 218,519 222,497 243,504 227,489 243,475 222,482 218,460 213,482" fill="rgb(86,0,255)" />
<polygon points=" 222,423 218,401 213,423 192,416 209,431 192,445 213,438 218,460 222,438 243,445 227,431 243,416 222,423" fill="rgb(86,0,255)" />
<polygon points=" 112,364 91,357 107,372 91,387 112,380 116,401 121,380 142,387 125,372 142,357 121,364 116,343 112,364" fill="rgb(86,0,255)" />
<polygon points=" 125,313 142,299 121,306 116,284 112,306 91,299 107,313 91,328 112,321 116,343 121,321 142,328 125,313" fill="rgb(86,0,255)" />
<polygon points=" 171,350 192,357 176,343 192,328 171,335 167,313 163,335 142,328 158,343 142,357 163,350 167,372 171,350" fill="rgb(86,0,255)" />
<polygon points=" 163,409 167,431 171,409 192,416 176,401 192,387 171,394 167,372 163,394 142,387 158,401 142,416 163,409" fill="rgb(86,0,255)" />
<polygon points=" 107,431 91,445 112,438 116,460 121,438 142,445 125,431 142,416 121,423 116,401 112,423 91,416 107,431" fill="rgb(86,0,255)" />
<polygon points=" 61,394 40,387 57,401 40,416 61,409 65,431 70,409 91,416 74,401 91,387 70,394 65,372 61,394" fill="rgb(86,0,255)" />
<polygon points=" 70,335 65,313 61,335 40,328 57,343 40,357 61,350 65,372 70,350 91,357 74,343 91,328 70,335" fill="rgb(86,0,255)" />
<polygon points=" 121,188 116,167 112,188 91,181 107,196 91,211 112,204 116,225 121,204 142,211 125,196 142,181 121,188" fill="rgb(86,0,255)" />
<polygon points=" 125,137 142,123 121,130 116,108 112,130 91,123 107,137 91,152 112,145 116,167 121,145 142,152 125,137" fill="rgb(86,0,255)" />
<polygon points=" 171,174 192,181 176,167 192,152 171,159 167,137 163,159 142,152 158,167 142,181 163,174 167,196 171,174" fill="rgb(86,0,255)" />
<polygon points=" 163,233 167,255 171,233 192,240 176,225 192,211 171,218 167,196 163,218 142,211 158,225 142,240 163,233" fill="rgb(86,0,255)" />
<polygon points=" 107,255 91,269 112,262 116,284 121,262 142,269 125,255 142,240 121,247 116,225 112,247 91,240 107,255" fill="rgb(86,0,255)" />
<polygon points=" 61,218 40,211 57,225 40,240 61,233 65,255 70,233 91,240 74,225 91,211 70,218 65,196 61,218" fill="rgb(86,0,255)" />
<polygon points=" 70,159 65,137 61,159 40,152 57,167 40,181 61,174 65,196 70,174 91,181 74,167 91,152 70,159" fill="rgb(86,0,255)" />
<polygon points=" 272,284 277,279 270,281 269,274 267,281 260,279 266,284 260,289 267,287 269,294 270,287 277,289 272,284" fill="rgb(0,255,214)" />
<polygon points=" 272,264 277,260 270,262 269,255 267,262 260,260 266,264 260,269 267,267 269,274 270,267 277,269 272,264" fill="rgb(0,255,214)" />
<polygon points=" 287,277 294,279 288,274 294,269 287,272 286,264 284,272 277,269 283,274 277,279 284,277 286,284 287,277" fill="rgb(0,255,214)" />
<polygon points=" 284,296 286,304 287,296 294,299 288,294 294,289 287,291 286,284 284,291 277,289 283,294 277,299 284,296" fill="rgb(0,255,214)" />
<polygon points=" 266,304 260,308 267,306 269,313 270,306 277,308 272,304 277,299 270,301 269,294 267,301 260,299 266,304" fill="rgb(0,255,214)" />
<polygon points=" 250,291 243,289 249,294 243,299 250,296 252,304 253,296 260,299 255,294 260,289 253,291 252,284 250,291" fill="rgb(0,255,214)" />
<polygon points=" 253,272 252,264 250,272 243,269 249,274 243,279 250,277 252,284 253,277 260,279 255,274 260,269 253,272" fill="rgb(0,255,214)" />
<polygon points=" 272,225 277,220 270,223 269,216 267,223 260,220 266,225 260,230 267,228 269,235 270,228 277,230 272,225" fill="rgb(0,255,214)" />
<polygon points=" 272,206 277,201 270,203 269,196 267,203 260,201 266,206 260,211 267,208 269,216 270,208 277,211 272,206" fill="rgb(0,255,214)" />
<polygon points=" 287,218 294,220 288,216 294,211 287,213 286,206 284,213 277,211 283,216 277,220 284,218 286,225 287,218" fill="rgb(0,255,214)" />
<polygon points=" 284,238 286,245 287,238 294,240 288,235 294,230 287,233 286,225 284,233 277,230 283,235 277,240 284,238" fill="rgb(0,255,214)" />
<polygon points=" 266,245 260,250 267,247 269,255 270,247 277,250 272,245 277,240 270,242 269,235 267,242 260,240 266,245" fill="rgb(0,255,214)" />
<polygon points=" 250,233 243,230 249,235 243,240 250,238 252,245 253,238 260,240 255,235 260,230 253,233 252,225 250,233" fill="rgb(0,255,214)" />
<polygon points=" 253,213 252,206 250,213 243,211 249,216 243,220 250,218 252,225 253,218 260,220 255,216 260,211 253,213" fill="rgb(0,255,214)" />
<polygon points=" 321,257 328,260 322,255 328,250 321,252 319,245 318,252 311,250 317,255 311,260 318,257 319,264 321,257" fill="rgb(0,255,214)" />
<polygon points=" 322,235 328,230 321,233 319,225 318,233 311,230 317,235 311,240 318,238 319,245 321,238 328,240 322,235" fill="rgb(0,255,214)" />
<polygon points=" 338,247 345,250 339,245 345,240 338,242 336,235 335,242 328,240 333,245 328,250 335,247 336,255 338,247" fill="rgb(0,255,214)" />
<polygon points=" 335,267 336,274 338,267 345,269 339,264 345,260 338,262 336,255 335,262 328,260 333,264 328,269 335,267" fill="rgb(0,255,214)" />
<polygon points=" 317,274 311,279 318,277 319,284 321,277 328,279 322,274 328,269 321,272 319,264 318,272 311,269 317,274" fill="rgb(0,255,214)" />
<polygon points=" 301,262 294,260 300,264 294,269 301,267 303,274 304,267 311,269 305,264 311,260 304,262 303,255 301,262" fill="rgb(0,255,214)" />
<polygon points=" 304,242 303,235 301,242 294,240 300,245 294,250 301,247 303,255 304,247 311,250 305,245 311,240 304,242" fill="rgb(0,255,214)" />
<polygon points=" 318,316 319,323 321,316 328,318 322,313 328,308 321,311 319,304 318,311 311,308 317,313 311,318 318,316" fill="rgb(0,255,214)" />
<polygon points=" 322,294 328,289 321,291 319,284 318,291 311,289 317,294 311,299 318,296 319,304 321,296 328,299 322,294" fill="rgb(0,255,214)" />
<polygon points=" 338,306 345,308 339,304 345,299 338,301 336,294 335,301 328,299 333,304 328,308 335,306 336,313 338,306" fill="rgb(0,255,214)" />
<polygon points=" 335,326 336,333 338,326 345,328 339,323 345,318 338,321 336,313 335,321 328,318 333,323 328,328 335,326" fill="rgb(0,255,214)" />
<polygon points=" 317,333 311,338 318,335 319,343 321,335 328,338 322,333 328,328 321,330 319,323 318,330 311,328 317,333" fill="rgb(0,255,214)" />
<polygon points=" 301,321 294,318 300,323 294,328 301,326 303,333 304,326 311,328 305,323 311,318 304,321 303,313 301,321" fill="rgb(0,255,214)" />
<polygon points=" 304,301 303,294 301,301 294,299 300,304 294,308 301,306 303,313 304,306 311,308 305,304 311,299 304,301" fill="rgb(0,255,214)" />
<polygon points=" 266,343 260,348 267,345 269,352 270,345 277,348 272,343 277,338 270,340 269,333 267,340 260,338 266,343" fill="rgb(0,255,214)" />
<polygon points=" 272,323 277,318 270,321 269,313 267,321 260,318 266,323 260,328 267,326 269,333 270,326 277,328 272,323" fill="rgb(0,255,214)" />
<polygon points=" 287,335 294,338 288,333 294,328 287,330 286,323 284,330 277,328 283,333 277,338 284,335 286,343 287,335" fill="rgb(0,255,214)" />
<polygon points=" 284,355 286,362 287,355 294,357 288,352 294,348 287,350 286,343 284,350 277,348 283,352 277,357 284,355" fill="rgb(0,255,214)" />
<polygon points=" 266,362 260,367 267,365 269,372 270,365 277,367 272,362 277,357 270,360 269,352 267,360 260,357 266,362" fill="rgb(0,255,214)" />
<polygon points=" 250,350 243,348 249,352 243,357 250,355 252,362 253,355 260,357 255,352 260,348 253,350 252,343 250,350" fill="rgb(0,255,214)" />
<polygon points=" 253,330 252,323 250,330 243,328 249,333 243,338 250,335 252,343 253,335 260,338 255,333 260,328 253,330" fill="rgb(0,255,214)" />
<polygon points=" 216,311 209,308 215,313 209,318 216,316 218,323 219,316 226,318 221,313 226,308 219,311 218,304 216,311" fill="rgb(0,255,214)" />
<polygon points=" 221,294 226,289 219,291 218,284 216,291 209,289 215,294 209,299 216,296 218,304 219,296 226,299 221,294" fill="rgb(0,255,214)" />
<polygon points=" 236,306 243,308 238,304 243,299 236,301 235,294 233,301 226,299 232,304 226,308 233,306 235,313 236,306" fill="rgb(0,255,214)" />
<polygon points=" 233,326 235,333 236,326 243,328 238,323 243,318 236,321 235,313 233,321 226,318 232,323 226,328 233,326" fill="rgb(0,255,214)" />
<polygon points=" 215,333 209,338 216,335 218,343 219,335 226,338 221,333 226,328 219,330 218,323 216,330 209,328 215,333" fill="rgb(0,255,214)" />
<polygon points=" 199,321 192,318 198,323 192,328 199,326 201,333 202,326 209,328 204,323 209,318 202,321 201,313 199,321" fill="rgb(0,255,214)" />
<polygon points=" 202,301 201,294 199,301 192,299 198,304 192,308 199,306 201,313 202,306 209,308 204,304 209,299 202,301" fill="rgb(0,255,214)" />
<polygon points=" 219,252 218,245 216,252 209,250 215,255 209,260 216,257 218,264 219,257 226,260 221,255 226,250 219,252" fill="rgb(0,255,214)" />
<polygon points=" 221,235 226,230 219,233 218,225 216,233 209,230 215,235 209,240 216,238 218,245 219,238 226,240 221,235" fill="rgb(0,255,214)" />
<polygon points=" 236,247 243,250 238,245 243,240 236,242 235,235 233,242 226,240 232,245 226,250 233,247 235,255 236,247" fill="rgb(0,255,214)" />
<polygon points=" 233,267 235,274 236,267 243,269 238,264 243,260 236,262 235,255 233,262 226,260 232,264 226,269 233,267" fill="rgb(0,255,214)" />
<polygon points=" 215,274 209,279 216,277 218,284 219,277 226,279 221,274 226,269 219,272 218,264 216,272 209,269 215,274" fill="rgb(0,255,214)" />
<polygon points=" 199,262 192,260 198,264 192,269 199,267 201,274 202,267 209,269 204,264 209,260 202,262 201,255 199,262" fill="rgb(0,255,214)" />
<polygon points=" 202,242 201,235 199,242 192,240 198,245 192,250 199,247 201,255 202,247 209,250 204,245 209,240 202,242" fill="rgb(0,255,214)" />
<polygon points=" 272,108 277,103 270,105 269,98 267,105 260,103 266,108 260,113 267,111 269,118 270,111 277,113 272,108" fill="rgb(0,255,214)" />
<polygon points=" 272,88 277,84 270,86 269,79 267,86 260,84 266,88 260,93 267,91 269,98 270,91 277,93 272,88" fill="rgb(0,255,214)" />
<polygon points=" 287,101 294,103 288,98 294,93 287,96 286,88 284,96 277,93 283,98 277,103 284,101 286,108 287,101" fill="rgb(0,255,214)" />
<polygon points=" 284,120 286,128 287,120 294,123 288,118 294,113 287,115 286,108 284,115 277,113 283,118 277,123 284,120" fill="rgb(0,255,214)" />
<polygon points=" 266,128 260,132 267,130 269,137 270,130 277,132 272,128 277,123 270,125 269,118 267,125 260,123 266,128" fill="rgb(0,255,214)" />
<polygon points=" 250,115 243,113 249,118 243,123 250,120 252,128 253,120 260,123 255,118 260,113 253,115 252,108 250,115" fill="rgb(0,255,214)" />
<polygon points=" 253,96 252,88 250,96 243,93 249,98 243,103 250,101 252,108 253,101 260,103 255,98 260,93 253,96" fill="rgb(0,255,214)" />
<polygon points=" 272,49 277,44 270,47 269,40 267,47 260,44 266,49 260,54 267,52 269,59 270,52 277,54 272,49" fill="rgb(0,255,214)" />
<polygon points=" 272,30 277,25 270,27 269,20 267,27 260,25 266,30 260,35 267,32 269,40 270,32 277,35 272,30" fill="rgb(0,255,214)" />
<polygon points=" 287,42 294,44 288,40 294,35 287,37 286,30 284,37 277,35 283,40 277,44 284,42 286,49 287,42" fill="rgb(0,255,214)" />
<polygon points=" 284,62 286,69 287,62 294,64 288,59 294,54 287,57 286,49 284,57 277,54 283,59 277,64 284,62" fill="rgb(0,255,214)" />
<polygon points=" 266,69 260,74 267,71 269,79 270,71 277,74 272,69 277,64 270,66 269,59 267,66 260,64 266,69" fill="rgb(0,255,214)" />
<polygon points=" 250,57 243,54 249,59 243,64 250,62 252,69 253,62 260,64 255,59 260,54 253,57 252,49 250,57" fill="rgb(0,255,214)" />
<polygon points=" 253,37 252,30 250,37 243,35 249,40 243,44 250,42 252,49 253,42 260,44 255,40 260,35 253,37" fill="rgb(0,255,214)" />
<polygon points=" 321,81 328,84 322,79 328,74 321,76 319,69 318,76 311,74 317,79 311,84 318,81 319,88 321,81" fill="rgb(0,255,214)" />
<polygon points=" 322,59 328,54 321,57 319,49 318,57 311,54 317,59 311,64 318,62 319,69 321,62 328,64 322,59" fill="rgb(0,255,214)" />
<polygon points=" 338,71 345,74 339,69 345,64 338,66 336,59 335,66 328,64 333,69 328,74 335,71 336,79 338,71" fill="rgb(0,255,214)" />
<polygon points=" 335,91 336,98 338,91 345,93 339,88 345,84 338,86 336,79 335,86 328,84 333,88 328,93 335,91" fill="rgb(0,255,214)" />
<polygon points=" 317,98 311,103 318,101 319,108 321,101 328,103 322,98 328,93 321,96 319,88 318,96 311,93 317,98" fill="rgb(0,255,214)" />
<polygon points=" 301,86 294,84 300,88 294,93 301,91 303,98 304,91 311,93 305,88 311,84 304,86 303,79 301,86" fill="rgb(0,255,214)" />
<polygon points=" 304,66 303,59 301,66 294,64 300,69 294,74 301,71 303,79 304,71 311,74 305,69 311,64 304,66" fill="rgb(0,255,214)" />
<polygon points=" 318,140 319,147 321,140 328,142 322,137 328,132 321,135 319,128 318,135 311,132 317,137 311,142 318,140" fill="rgb(0,255,214)" />
<polygon points=" 322,118 328,113 321,115 319,108 318,115 311,113 317,118 311,123 318,120 319,128 321,120 328,123 322,118" fill="rgb(0,255,214)" />
<polygon points=" 338,130 345,132 339,128 345,123 338,125 336,118 335,125 328,123 333,128 328,132 335,130 336,137 338,130" fill="rgb(0,255,214)" />
<polygon points=" 335,150 336,157 338,150 345,152 339,147 345,142 338,145 336,137 335,145 328,142 333,147 328,152 335,150" fill="rgb(0,255,214)" />
<polygon points=" 317,157 311,162 318,159 319,167 321,159 328,162 322,157 328,152 321,154 319,147 318,154 311,152 317,157" fill="rgb(0,255,214)" />
<polygon points=" 301,145 294,142 300,147 294,152 301,150 303,157 304,150 311,152 305,147 311,142 304,145 303,137 301,145" fill="rgb(0,255,214)" />
<polygon points=" 304,125 303,118 301,125 294,123 300,128 294,132 301,130 303,137 304,130 311,132 305,128 311,123 304,125" fill="rgb(0,255,214)" />
<polygon points=" 266,167 260,172 267,169 269,176 270,169 277,172 272,167 277,162 270,164 269,157 267,164 260,162 266,167" fill="rgb(0,255,214)" />
<polygon points=" 272,147 277,142 270,145 269,137 267,145 260,142 266,147 260,152 267,150 269,157 270,150 277,152 272,147" fill="rgb(0,255,214)" />
<polygon points=" 287,159 294,162 288,157 294,152 287,154 286,147 284,154 277,152 283,157 277,162 284,159 286,167 287,159" fill="rgb(0,255,214)" />
<polygon points=" 284,179 286,186 287,179 294,181 288,176 294,172 287,174 286,167 284,174 277,172 283,176 277,181 284,179" fill="rgb(0,255,214)" />
<polygon points=" 266,186 260,191 267,189 269,196 270,189 277,191 272,186 277,181 270,184 269,176 267,184 260,181 266,186" fill="rgb(0,255,214)" />
<polygon points=" 250,174 243,172 249,176 243,181 250,179 252,186 253,179 260,181 255,176 260,172 253,174 252,167 250,174" fill="rgb(0,255,214)" />
<polygon points=" 253,154 252,147 250,154 243,152 249,157 243,162 250,159 252,167 253,159 260,162 255,157 260,152 253,154" fill="rgb(0,255,214)" />
<polygon points=" 216,135 209,132 215,137 209,142 216,140 218,147 219,140 226,142 221,137 226,132 219,135 218,128 216,135" fill="rgb(0,255,214)" />
<polygon points=" 221,118 226,113 219,115 218,108 216,115 209,113 215,118 209,123 216,120 218,128 219,120 226,123 221,118" fill="rgb(0,255,214)" />
<polygon points=" 236,130 243,132 238,128 243,123 236,125 235,118 233,125 226,123 232,128 226,132 233,130 235,137 236,130" fill="rgb(0,255,214)" />
<polygon points=" 233,150 235,157 236,150 243,152 238,147 243,142 236,145 235,137 233,145 226,142 232,147 226,152 233,150" fill="rgb(0,255,214)" />
<polygon points=" 215,157 209,162 216,159 218,167 219,159 226,162 221,157 226,152 219,154 218,147 216,154 209,152 215,157" fill="rgb(0,255,214)" />
<polygon points=" 199,145 192,142 198,147 192,152 199,150 201,157 202,150 209,152 204,147 209,142 202,145 201,137 199,145" fill="rgb(0,255,214)" />
<polygon points=" 202,125 201,118 199,125 192,123 198,128 192,132 199,130 201,137 202,130 209,132 204,128 209,123 202,125" fill="rgb(0,255,214)" />
<polygon points=" 219,76 218,69 216,76 209,74 215,79 209,84 216,81 218,88 219,81 226,84 221,79 226,74 219,76" fill="rgb(0,255,214)" />
<polygon points=" 221,59 226,54 219,57 218,49 216,57 209,54 215,59 209,64 216,62 218,69 219,62 226,64 221,59" fill="rgb(0,255,214)" />
<polygon points=" 236,71 243,74 238,69 243,64 236,66 235,59 233,66 226,64 232,69 226,74 233,71 235,79 236,71" fill="rgb(0,255,214)" />
<polygon points=" 233,91 235,98 236,91 243,93 238,88 243,84 236,86 235,79 233,86 226,84 232,88 226,93 233,91" fill="rgb(0,255,214)" />
<polygon points=" 215,98 209,103 216,101 218,108 219,101 226,103 221,98 226,93 219,96 218,88 216,96 209,93 215,98" fill="rgb(0,255,214)" />
<polygon points=" 199,86 192,84 198,88 192,93 199,91 201,98 202,91 209,93 204,88 209,84 202,86 201,79 199,86" fill="rgb(0,255,214)" />
<polygon points=" 202,66 201,59 199,66 192,64 198,69 192,74 199,71 201,79 202,71 209,74 204,69 209,64 202,66" fill="rgb(0,255,214)" />
<polygon points=" 423,199 430,201 424,196 430,191 423,193 421,186 420,193 413,191 418,196 413,201 420,199 421,206 423,199" fill="rgb(0,255,214)" />
<polygon points=" 424,176 430,172 423,174 421,167 420,174 413,172 418,176 413,181 420,179 421,186 423,179 430,181 424,176" fill="rgb(0,255,214)" />
<polygon points=" 439,189 446,191 441,186 446,181 439,184 438,176 437,184 430,181 435,186 430,191 437,189 438,196 439,189" fill="rgb(0,255,214)" />
<polygon points=" 437,208 438,216 439,208 446,211 441,206 446,201 439,203 438,196 437,203 430,201 435,206 430,211 437,208" fill="rgb(0,255,214)" />
<polygon points=" 418,216 413,220 420,218 421,225 423,218 430,220 424,216 430,211 423,213 421,206 420,213 413,211 418,216" fill="rgb(0,255,214)" />
<polygon points=" 403,203 396,201 401,206 396,211 403,208 404,216 406,208 413,211 407,206 413,201 406,203 404,196 403,203" fill="rgb(0,255,214)" />
<polygon points=" 406,184 404,176 403,184 396,181 401,186 396,191 403,189 404,196 406,189 413,191 407,186 413,181 406,184" fill="rgb(0,255,214)" />
<polygon points=" 424,137 430,132 423,135 421,128 420,135 413,132 418,137 413,142 420,140 421,147 423,140 430,142 424,137" fill="rgb(0,255,214)" />
<polygon points=" 424,118 430,113 423,115 421,108 420,115 413,113 418,118 413,123 420,120 421,128 423,120 430,123 424,118" fill="rgb(0,255,214)" />
<polygon points=" 439,130 446,132 441,128 446,123 439,125 438,118 437,125 430,123 435,128 430,132 437,130 438,137 439,130" fill="rgb(0,255,214)" />
<polygon points=" 437,150 438,157 439,150 446,152 441,147 446,142 439,145 438,137 437,145 430,142 435,147 430,152 437,150" fill="rgb(0,255,214)" />
<polygon points=" 418,157 413,162 420,159 421,167 423,159 430,162 424,157 430,152 423,154 421,147 420,154 413,152 418,157" fill="rgb(0,255,214)" />
<polygon points=" 403,145 396,142 401,147 396,152 403,150 404,157 406,150 413,152 407,147 413,142 406,145 404,137 403,145" fill="rgb(0,255,214)" />
<polygon points=" 406,125 404,118 403,125 396,123 401,128 396,132 403,130 404,137 406,130 413,132 407,128 413,123 406,125" fill="rgb(0,255,214)" />
<polygon points=" 473,169 480,172 475,167 480,162 473,164 472,157 470,164 463,162 469,167 463,172 470,169 472,176 473,169" fill="rgb(0,255,214)" />
<polygon points=" 475,147 480,142 473,145 472,137 470,145 463,142 469,147 463,152 470,150 472,157 473,150 480,152 475,147" fill="rgb(0,255,214)" />
<polygon points=" 490,159 497,162 492,157 497,152 490,154 489,147 487,154 480,152 486,157 480,162 487,159 489,167 490,159" fill="rgb(0,255,214)" />
<polygon points=" 487,179 489,186 490,179 497,181 492,176 497,172 490,174 489,167 487,174 480,172 486,176 480,181 487,179" fill="rgb(0,255,214)" />
<polygon points=" 469,186 463,191 470,189 472,196 473,189 480,191 475,186 480,181 473,184 472,176 470,184 463,181 469,186" fill="rgb(0,255,214)" />
<polygon points=" 453,174 446,172 452,176 446,181 453,179 455,186 456,179 463,181 458,176 463,172 456,174 455,167 453,174" fill="rgb(0,255,214)" />
<polygon points=" 456,154 455,147 453,154 446,152 452,157 446,162 453,159 455,167 456,159 463,162 458,157 463,152 456,154" fill="rgb(0,255,214)" />
<polygon points=" 470,228 472,235 473,228 480,230 475,225 480,220 473,223 472,216 470,223 463,220 469,225 463,230 470,228" fill="rgb(0,255,214)" />
<polygon points=" 475,206 480,201 473,203 472,196 470,203 463,201 469,206 463,211 470,208 472,216 473,208 480,211 475,206" fill="rgb(0,255,214)" />
<polygon points=" 490,218 497,220 492,216 497,211 490,213 489,206 487,213 480,211 486,216 480,220 487,218 489,225 490,218" fill="rgb(0,255,214)" />
<polygon points=" 487,238 489,245 490,238 497,240 492,235 497,230 490,233 489,225 487,233 480,230 486,235 480,240 487,238" fill="rgb(0,255,214)" />
<polygon points=" 469,245 463,250 470,247 472,255 473,247 480,250 475,245 480,240 473,242 472,235 470,242 463,240 469,245" fill="rgb(0,255,214)" />
<polygon points=" 453,233 446,230 452,235 446,240 453,238 455,245 456,238 463,240 458,235 463,230 456,233 455,225 453,233" fill="rgb(0,255,214)" />
<polygon points=" 456,213 455,206 453,213 446,211 452,216 446,220 453,218 455,225 456,218 463,220 458,216 463,211 456,213" fill="rgb(0,255,214)" />
<polygon points=" 418,255 413,260 420,257 421,264 423,257 430,260 424,255 430,250 423,252 421,245 420,252 413,250 418,255" fill="rgb(0,255,214)" />
<polygon points=" 424,235 430,230 423,233 421,225 420,233 413,230 418,235 413,240 420,238 421,245 423,238 430,240 424,235" fill="rgb(0,255,214)" />
<polygon points=" 439,247 446,250 441,245 446,240 439,242 438,235 437,242 430,240 435,245 430,250 437,247 438,255 439,247" fill="rgb(0,255,214)" />
<polygon points=" 437,267 438,274 439,267 446,269 441,264 446,260 439,262 438,255 437,262 430,260 435,264 430,269 437,267" fill="rgb(0,255,214)" />
<polygon points=" 418,274 413,279 420,277 421,284 423,277 430,279 424,274 430,269 423,272 421,264 420,272 413,269 418,274" fill="rgb(0,255,214)" />
<polygon points=" 403,262 396,260 401,264 396,269 403,267 404,274 406,267 413,269 407,264 413,260 406,262 404,255 403,262" fill="rgb(0,255,214)" />
<polygon points=" 406,242 404,235 403,242 396,240 401,245 396,250 403,247 404,255 406,247 413,250 407,245 413,240 406,242" fill="rgb(0,255,214)" />
<polygon points=" 369,223 362,220 367,225 362,230 369,228 370,235 372,228 379,230 373,225 379,220 372,223 370,216 369,223" fill="rgb(0,255,214)" />
<polygon points=" 373,206 379,201 372,203 370,196 369,203 362,201 367,206 362,211 369,208 370,216 372,208 379,211 373,206" fill="rgb(0,255,214)" />
<polygon points=" 389,218 396,220 390,216 396,211 389,213 387,206 386,213 379,211 384,216 379,220 386,218 387,225 389,218" fill="rgb(0,255,214)" />
<polygon points=" 386,238 387,245 389,238 396,240 390,235 396,230 389,233 387,225 386,233 379,230 384,235 379,240 386,238" fill="rgb(0,255,214)" />
<polygon points=" 367,245 362,250 369,247 370,255 372,247 379,250 373,245 379,240 372,242 370,235 369,242 362,240 367,245" fill="rgb(0,255,214)" />
<polygon points=" 352,233 345,230 350,235 345,240 352,238 353,245 355,238 362,240 356,235 362,230 355,233 353,225 352,233" fill="rgb(0,255,214)" />
<polygon points=" 355,213 353,206 352,213 345,211 350,216 345,220 352,218 353,225 355,218 362,220 356,216 362,211 355,213" fill="rgb(0,255,214)" />
<polygon points=" 372,164 370,157 369,164 362,162 367,167 362,172 369,169 370,176 372,169 379,172 373,167 379,162 372,164" fill="rgb(0,255,214)" />
<polygon points=" 373,147 379,142 372,145 370,137 369,145 362,142 367,147 362,152 369,150 370,157 372,150 379,152 373,147" fill="rgb(0,255,214)" />
<polygon points=" 389,159 396,162 390,157 396,152 389,154 387,147 386,154 379,152 384,157 379,162 386,159 387,167 389,159" fill="rgb(0,255,214)" />
<polygon points=" 386,179 387,186 389,179 396,181 390,176 396,172 389,174 387,167 386,174 379,172 384,176 379,181 386,179" fill="rgb(0,255,214)" />
<polygon points=" 367,186 362,191 369,189 370,196 372,189 379,191 373,186 379,181 372,184 370,176 369,184 362,181 367,186" fill="rgb(0,255,214)" />
<polygon points=" 352,174 345,172 350,176 345,181 352,179 353,186 355,179 362,181 356,176 362,172 355,174 353,167 352,174" fill="rgb(0,255,214)" />
<polygon points=" 355,154 353,147 352,154 345,152 350,157 345,162 352,159 353,167 355,159 362,162 356,157 362,152 355,154" fill="rgb(0,255,214)" />
<polygon points=" 420,375 421,382 423,375 430,377 424,372 430,367 423,369 421,362 420,369 413,367 418,372 413,377 420,375" fill="rgb(0,255,214)" />
<polygon points=" 424,352 430,348 423,350 421,343 420,350 413,348 418,352 413,357 420,355 421,362 423,355 430,357 424,352" fill="rgb(0,255,214)" />
<polygon points=" 439,365 446,367 441,362 446,357 439,360 438,352 437,360 430,357 435,362 430,367 437,365 438,372 439,365" fill="rgb(0,255,214)" />
<polygon points=" 437,384 438,392 439,384 446,387 441,382 446,377 439,379 438,372 437,379 430,377 435,382 430,387 437,384" fill="rgb(0,255,214)" />
<polygon points=" 418,392 413,396 420,394 421,401 423,394 430,396 424,392 430,387 423,389 421,382 420,389 413,387 418,392" fill="rgb(0,255,214)" />
<polygon points=" 403,379 396,377 401,382 396,387 403,384 404,392 406,384 413,387 407,382 413,377 406,379 404,372 403,379" fill="rgb(0,255,214)" />
<polygon points=" 406,360 404,352 403,360 396,357 401,362 396,367 403,365 404,372 406,365 413,367 407,362 413,357 406,360" fill="rgb(0,255,214)" />
<polygon points=" 424,313 430,308 423,311 421,304 420,311 413,308 418,313 413,318 420,316 421,323 423,316 430,318 424,313" fill="rgb(0,255,214)" />
<polygon points=" 424,294 430,289 423,291 421,284 420,291 413,289 418,294 413,299 420,296 421,304 423,296 430,299 424,294" fill="rgb(0,255,214)" />
<polygon points=" 439,306 446,308 441,304 446,299 439,301 438,294 437,301 430,299 435,304 430,308 437,306 438,313 439,306" fill="rgb(0,255,214)" />
<polygon points=" 437,326 438,333 439,326 446,328 441,323 446,318 439,321 438,313 437,321 430,318 435,323 430,328 437,326" fill="rgb(0,255,214)" />
<polygon points=" 418,333 413,338 420,335 421,343 423,335 430,338 424,333 430,328 423,330 421,323 420,330 413,328 418,333" fill="rgb(0,255,214)" />
<polygon points=" 403,321 396,318 401,323 396,328 403,326 404,333 406,326 413,328 407,323 413,318 406,321 404,313 403,321" fill="rgb(0,255,214)" />
<polygon points=" 406,301 404,294 403,301 396,299 401,304 396,308 403,306 404,313 406,306 413,308 407,304 413,299 406,301" fill="rgb(0,255,214)" />
<polygon points=" 473,345 480,348 475,343 480,338 473,340 472,333 470,340 463,338 469,343 463,348 470,345 472,352 473,345" fill="rgb(0,255,214)" />
<polygon points=" 475,323 480,318 473,321 472,313 470,321 463,318 469,323 463,328 470,326 472,333 473,326 480,328 475,323" fill="rgb(0,255,214)" />
<polygon points=" 490,335 497,338 492,333 497,328 490,330 489,323 487,330 480,328 486,333 480,338 487,335 489,343 490,335" fill="rgb(0,255,214)" />
<polygon points=" 487,355 489,362 490,355 497,357 492,352 497,348 490,350 489,343 487,350 480,348 486,352 480,357 487,355" fill="rgb(0,255,214)" />
<polygon points=" 469,362 463,367 470,365 472,372 473,365 480,367 475,362 480,357 473,360 472,352 470,360 463,357 469,362" fill="rgb(0,255,214)" />
<polygon points=" 453,350 446,348 452,352 446,357 453,355 455,362 456,355 463,357 458,352 463,348 456,350 455,343 453,350" fill="rgb(0,255,214)" />
<polygon points=" 456,330 455,323 453,330 446,328 452,333 446,338 453,335 455,343 456,335 463,338 458,333 463,328 456,330" fill="rgb(0,255,214)" />
<polygon points=" 470,404 472,411 473,404 480,406 475,401 480,396 473,399 472,392 470,399 463,396 469,401 463,406 470,404" fill="rgb(0,255,214)" />
<polygon points=" 475,382 480,377 473,379 472,372 470,379 463,377 469,382 463,387 470,384 472,392 473,384 480,387 475,382" fill="rgb(0,255,214)" />
<polygon points=" 490,394 497,396 492,392 497,387 490,389 489,382 487,389 480,387 486,392 480,396 487,394 489,401 490,394" fill="rgb(0,255,214)" />
<polygon points=" 487,414 489,421 490,414 497,416 492,411 497,406 490,409 489,401 487,409 480,406 486,411 480,416 487,414" fill="rgb(0,255,214)" />
<polygon points=" 469,421 463,426 470,423 472,431 473,423 480,426 475,421 480,416 473,418 472,411 470,418 463,416 469,421" fill="rgb(0,255,214)" />
<polygon points=" 453,409 446,406 452,411 446,416 453,414 455,421 456,414 463,416 458,411 463,406 456,409 455,401 453,409" fill="rgb(0,255,214)" />
<polygon points=" 456,389 455,382 453,389 446,387 452,392 446,396 453,394 455,401 456,394 463,396 458,392 463,387 456,389" fill="rgb(0,255,214)" />
<polygon points=" 418,431 413,436 420,433 421,440 423,433 430,436 424,431 430,426 423,428 421,421 420,428 413,426 418,431" fill="rgb(0,255,214)" />
<polygon points=" 424,411 430,406 423,409 421,401 420,409 413,406 418,411 413,416 420,414 421,421 423,414 430,416 424,411" fill="rgb(0,255,214)" />
<polygon points=" 439,423 446,426 441,421 446,416 439,418 438,411 437,418 430,416 435,421 430,426 437,423 438,431 439,423" fill="rgb(0,255,214)" />
<polygon points=" 437,443 438,450 439,443 446,445 441,440 446,436 439,438 438,431 437,438 430,436 435,440 430,445 437,443" fill="rgb(0,255,214)" />
<polygon points=" 418,450 413,455 420,453 421,460 423,453 430,455 424,450 430,445 423,448 421,440 420,448 413,445 418,450" fill="rgb(0,255,214)" />
<polygon points=" 403,438 396,436 401,440 396,445 403,443 404,450 406,443 413,445 407,440 413,436 406,438 404,431 403,438" fill="rgb(0,255,214)" />
<polygon points=" 406,418 404,411 403,418 396,416 401,421 396,426 403,423 404,431 406,423 413,426 407,421 413,416 406,418" fill="rgb(0,255,214)" />
<polygon points=" 369,399 362,396 367,401 362,406 369,404 370,411 372,404 379,406 373,401 379,396 372,399 370,392 369,399" fill="rgb(0,255,214)" />
<polygon points=" 373,382 379,377 372,379 370,372 369,379 362,377 367,382 362,387 369,384 370,392 372,384 379,387 373,382" fill="rgb(0,255,214)" />
<polygon points=" 389,394 396,396 390,392 396,387 389,389 387,382 386,389 379,387 384,392 379,396 386,394 387,401 389,394" fill="rgb(0,255,214)" />
<polygon points=" 386,414 387,421 389,414 396,416 390,411 396,406 389,409 387,401 386,409 379,406 384,411 379,416 386,414" fill="rgb(0,255,214)" />
<polygon points=" 367,421 362,426 369,423 370,431 372,423 379,426 373,421 379,416 372,418 370,411 369,418 362,416 367,421" fill="rgb(0,255,214)" />
<polygon points=" 352,409 345,406 350,411 345,416 352,414 353,421 355,414 362,416 356,411 362,406 355,409 353,401 352,409" fill="rgb(0,255,214)" />
<polygon points=" 355,389 353,382 352,389 345,387 350,392 345,396 352,394 353,401 355,394 362,396 356,392 362,387 355,389" fill="rgb(0,255,214)" />
<polygon points=" 372,340 370,333 369,340 362,338 367,343 362,348 369,345 370,352 372,345 379,348 373,343 379,338 372,340" fill="rgb(0,255,214)" />
<polygon points=" 373,323 379,318 372,321 370,313 369,321 362,318 367,323 362,328 369,326 370,333 372,326 379,328 373,323" fill="rgb(0,255,214)" />
<polygon points=" 389,335 396,338 390,333 396,328 389,330 387,323 386,330 379,328 384,333 379,338 386,335 387,343 389,335" fill="rgb(0,255,214)" />
<polygon points=" 386,355 387,362 389,355 396,357 390,352 396,348 389,350 387,343 386,350 379,348 384,352 379,357 386,355" fill="rgb(0,255,214)" />
<polygon points=" 367,362 362,367 369,365 370,372 372,365 379,367 373,362 379,357 372,360 370,352 369,360 362,357 367,362" fill="rgb(0,255,214)" />
<polygon points=" 352,350 345,348 350,352 345,357 352,355 353,362 355,355 362,357 356,352 362,348 355,350 353,343 352,350" fill="rgb(0,255,214)" />
<polygon points=" 355,330 353,323 352,330 345,328 350,333 345,338 352,335 353,343 355,335 362,338 356,333 362,328 355,330" fill="rgb(0,255,214)" />
<polygon points=" 266,460 260,465 267,463 269,470 270,463 277,465 272,460 277,455 270,457 269,450 267,457 260,455 266,460" fill="rgb(0,255,214)" />
<polygon points=" 272,440 277,436 270,438 269,431 267,438 260,436 266,440 260,445 267,443 269,450 270,443 277,445 272,440" fill="rgb(0,255,214)" />
<polygon points=" 287,453 294,455 288,450 294,445 287,448 286,440 284,448 277,445 283,450 277,455 284,453 286,460 287,453" fill="rgb(0,255,214)" />
<polygon points=" 284,472 286,480 287,472 294,475 288,470 294,465 287,467 286,460 284,467 277,465 283,470 277,475 284,472" fill="rgb(0,255,214)" />
<polygon points=" 266,480 260,484 267,482 269,489 270,482 277,484 272,480 277,475 270,477 269,470 267,477 260,475 266,480" fill="rgb(0,255,214)" />
<polygon points=" 250,467 243,465 249,470 243,475 250,472 252,480 253,472 260,475 255,470 260,465 253,467 252,460 250,467" fill="rgb(0,255,214)" />
<polygon points=" 253,448 252,440 250,448 243,445 249,450 243,455 250,453 252,460 253,453 260,455 255,450 260,445 253,448" fill="rgb(0,255,214)" />
<polygon points=" 272,401 277,396 270,399 269,392 267,399 260,396 266,401 260,406 267,404 269,411 270,404 277,406 272,401" fill="rgb(0,255,214)" />
<polygon points=" 272,382 277,377 270,379 269,372 267,379 260,377 266,382 260,387 267,384 269,392 270,384 277,387 272,382" fill="rgb(0,255,214)" />
<polygon points=" 287,394 294,396 288,392 294,387 287,389 286,382 284,389 277,387 283,392 277,396 284,394 286,401 287,394" fill="rgb(0,255,214)" />
<polygon points=" 284,414 286,421 287,414 294,416 288,411 294,406 287,409 286,401 284,409 277,406 283,411 277,416 284,414" fill="rgb(0,255,214)" />
<polygon points=" 266,421 260,426 267,423 269,431 270,423 277,426 272,421 277,416 270,418 269,411 267,418 260,416 266,421" fill="rgb(0,255,214)" />
<polygon points=" 250,409 243,406 249,411 243,416 250,414 252,421 253,414 260,416 255,411 260,406 253,409 252,401 250,409" fill="rgb(0,255,214)" />
<polygon points=" 253,389 252,382 250,389 243,387 249,392 243,396 250,394 252,401 253,394 260,396 255,392 260,387 253,389" fill="rgb(0,255,214)" />
<polygon points=" 321,433 328,436 322,431 328,426 321,428 319,421 318,428 311,426 317,431 311,436 318,433 319,440 321,433" fill="rgb(0,255,214)" />
<polygon points=" 322,411 328,406 321,409 319,401 318,409 311,406 317,411 311,416 318,414 319,421 321,414 328,416 322,411" fill="rgb(0,255,214)" />
<polygon points=" 338,423 345,426 339,421 345,416 338,418 336,411 335,418 328,416 333,421 328,426 335,423 336,431 338,423" fill="rgb(0,255,214)" />
<polygon points=" 335,443 336,450 338,443 345,445 339,440 345,436 338,438 336,431 335,438 328,436 333,440 328,445 335,443" fill="rgb(0,255,214)" />
<polygon points=" 317,450 311,455 318,453 319,460 321,453 328,455 322,450 328,445 321,448 319,440 318,448 311,445 317,450" fill="rgb(0,255,214)" />
<polygon points=" 301,438 294,436 300,440 294,445 301,443 303,450 304,443 311,445 305,440 311,436 304,438 303,431 301,438" fill="rgb(0,255,214)" />
<polygon points=" 304,418 303,411 301,418 294,416 300,421 294,426 301,423 303,431 304,423 311,426 305,421 311,416 304,418" fill="rgb(0,255,214)" />
<polygon points=" 318,492 319,499 321,492 328,494 322,489 328,484 321,487 319,480 318,487 311,484 317,489 311,494 318,492" fill="rgb(0,255,214)" />
<polygon points=" 322,470 328,465 321,467 319,460 318,467 311,465 317,470 311,475 318,472 319,480 321,472 328,475 322,470" fill="rgb(0,255,214)" />
<polygon points=" 338,482 345,484 339,480 345,475 338,477 336,470 335,477 328,475 333,480 328,484 335,482 336,489 338,482" fill="rgb(0,255,214)" />
<polygon points=" 335,502 336,509 338,502 345,504 339,499 345,494 338,497 336,489 335,497 328,494 333,499 328,504 335,502" fill="rgb(0,255,214)" />
<polygon points=" 317,509 311,514 318,511 319,519 321,511 328,514 322,509 328,504 321,506 319,499 318,506 311,504 317,509" fill="rgb(0,255,214)" />
<polygon points=" 301,497 294,494 300,499 294,504 301,502 303,509 304,502 311,504 305,499 311,494 304,497 303,489 301,497" fill="rgb(0,255,214)" />
<polygon points=" 304,477 303,470 301,477 294,475 300,480 294,484 301,482 303,489 304,482 311,484 305,480 311,475 304,477" fill="rgb(0,255,214)" />
<polygon points=" 266,519 260,524 267,521 269,528 270,521 277,524 272,519 277,514 270,516 269,509 267,516 260,514 266,519" fill="rgb(0,255,214)" />
<polygon points=" 272,499 277,494 270,497 269,489 267,497 260,494 266,499 260,504 267,502 269,509 270,502 277,504 272,499" fill="rgb(0,255,214)" />
<polygon points=" 287,511 294,514 288,509 294,504 287,506 286,499 284,506 277,504 283,509 277,514 284,511 286,519 287,511" fill="rgb(0,255,214)" />
<polygon points=" 284,531 286,538 287,531 294,533 288,528 294,524 287,526 286,519 284,526 277,524 283,528 277,533 284,531" fill="rgb(0,255,214)" />
<polygon points=" 266,538 260,543 267,541 269,548 270,541 277,543 272,538 277,533 270,536 269,528 267,536 260,533 266,538" fill="rgb(0,255,214)" />
<polygon points=" 250,526 243,524 249,528 243,533 250,531 252,538 253,531 260,533 255,528 260,524 253,526 252,519 250,526" fill="rgb(0,255,214)" />
<polygon points=" 253,506 252,499 250,506 243,504 249,509 243,514 250,511 252,519 253,511 260,514 255,509 260,504 253,506" fill="rgb(0,255,214)" />
<polygon points=" 216,487 209,484 215,489 209,494 216,492 218,499 219,492 226,494 221,489 226,484 219,487 218,480 216,487" fill="rgb(0,255,214)" />
<polygon points=" 221,470 226,465 219,467 218,460 216,467 209,465 215,470 209,475 216,472 218,480 219,472 226,475 221,470" fill="rgb(0,255,214)" />
<polygon points=" 236,482 243,484 238,480 243,475 236,477 235,470 233,477 226,475 232,480 226,484 233,482 235,489 236,482" fill="rgb(0,255,214)" />
<polygon points=" 233,502 235,509 236,502 243,504 238,499 243,494 236,497 235,489 233,497 226,494 232,499 226,504 233,502" fill="rgb(0,255,214)" />
<polygon points=" 215,509 209,514 216,511 218,519 219,511 226,514 221,509 226,504 219,506 218,499 216,506 209,504 215,509" fill="rgb(0,255,214)" />
<polygon points=" 199,497 192,494 198,499 192,504 199,502 201,509 202,502 209,504 204,499 209,494 202,497 201,489 199,497" fill="rgb(0,255,214)" />
<polygon points=" 202,477 201,470 199,477 192,475 198,480 192,484 199,482 201,489 202,482 209,484 204,480 209,475 202,477" fill="rgb(0,255,214)" />
<polygon points=" 219,428 218,421 216,428 209,426 215,431 209,436 216,433 218,440 219,433 226,436 221,431 226,426 219,428" fill="rgb(0,255,214)" />
<polygon points=" 221,411 226,406 219,409 218,401 216,409 209,406 215,411 209,416 216,414 218,421 219,414 226,416 221,411" fill="rgb(0,255,214)" />
<polygon points=" 236,423 243,426 238,421 243,416 236,418 235,411 233,418 226,416 232,421 226,426 233,423 235,431 236,423" fill="rgb(0,255,214)" />
<polygon points=" 233,443 235,450 236,443 243,445 238,440 243,436 236,438 235,431 233,438 226,436 232,440 226,445 233,443" fill="rgb(0,255,214)" />
<polygon points=" 215,450 209,455 216,453 218,460 219,453 226,455 221,450 226,445 219,448 218,440 216,448 209,445 215,450" fill="rgb(0,255,214)" />
<polygon points=" 199,438 192,436 198,440 192,445 199,443 201,450 202,443 209,445 204,440 209,436 202,438 201,431 199,438" fill="rgb(0,255,214)" />
<polygon points=" 202,418 201,411 199,418 192,416 198,421 192,426 199,423 201,431 202,423 209,426 204,421 209,416 202,418" fill="rgb(0,255,214)" />
<polygon points=" 115,369 108,367 113,372 108,377 115,375 116,382 118,375 125,377 119,372 125,367 118,369 116,362 115,369" fill="rgb(0,255,214)" />
<polygon points=" 119,352 125,348 118,350 116,343 115,350 108,348 113,352 108,357 115,355 116,362 118,355 125,357 119,352" fill="rgb(0,255,214)" />
<polygon points=" 135,365 142,367 136,362 142,357 135,360 133,352 132,360 125,357 130,362 125,367 132,365 133,372 135,365" fill="rgb(0,255,214)" />
<polygon points=" 132,384 133,392 135,384 142,387 136,382 142,377 135,379 133,372 132,379 125,377 130,382 125,387 132,384" fill="rgb(0,255,214)" />
<polygon points=" 113,392 108,396 115,394 116,401 118,394 125,396 119,392 125,387 118,389 116,382 115,389 108,387 113,392" fill="rgb(0,255,214)" />
<polygon points=" 98,379 91,377 96,382 91,387 98,384 99,392 101,384 108,387 102,382 108,377 101,379 99,372 98,379" fill="rgb(0,255,214)" />
<polygon points=" 101,360 99,352 98,360 91,357 96,362 91,367 98,365 99,372 101,365 108,367 102,362 108,357 101,360" fill="rgb(0,255,214)" />
<polygon points=" 119,313 125,308 118,311 116,304 115,311 108,308 113,313 108,318 115,316 116,323 118,316 125,318 119,313" fill="rgb(0,255,214)" />
<polygon points=" 119,294 125,289 118,291 116,284 115,291 108,289 113,294 108,299 115,296 116,304 118,296 125,299 119,294" fill="rgb(0,255,214)" />
<polygon points=" 135,306 142,308 136,304 142,299 135,301 133,294 132,301 125,299 130,304 125,308 132,306 133,313 135,306" fill="rgb(0,255,214)" />
<polygon points=" 132,326 133,333 135,326 142,328 136,323 142,318 135,321 133,313 132,321 125,318 130,323 125,328 132,326" fill="rgb(0,255,214)" />
<polygon points=" 113,333 108,338 115,335 116,343 118,335 125,338 119,333 125,328 118,330 116,323 115,330 108,328 113,333" fill="rgb(0,255,214)" />
<polygon points=" 98,321 91,318 96,323 91,328 98,326 99,333 101,326 108,328 102,323 108,318 101,321 99,313 98,321" fill="rgb(0,255,214)" />
<polygon points=" 101,301 99,294 98,301 91,299 96,304 91,308 98,306 99,313 101,306 108,308 102,304 108,299 101,301" fill="rgb(0,255,214)" />
<polygon points=" 168,345 175,348 170,343 175,338 168,340 167,333 166,340 159,338 164,343 159,348 166,345 167,352 168,345" fill="rgb(0,255,214)" />
<polygon points=" 170,323 175,318 168,321 167,313 166,321 159,318 164,323 159,328 166,326 167,333 168,326 175,328 170,323" fill="rgb(0,255,214)" />
<polygon points=" 185,335 192,338 187,333 192,328 185,330 184,323 182,330 175,328 181,333 175,338 182,335 184,343 185,335" fill="rgb(0,255,214)" />
<polygon points=" 182,355 184,362 185,355 192,357 187,352 192,348 185,350 184,343 182,350 175,348 181,352 175,357 182,355" fill="rgb(0,255,214)" />
<polygon points=" 164,362 159,367 166,365 167,372 168,365 175,367 170,362 175,357 168,360 167,352 166,360 159,357 164,362" fill="rgb(0,255,214)" />
<polygon points=" 149,350 142,348 147,352 142,357 149,355 150,362 152,355 159,357 153,352 159,348 152,350 150,343 149,350" fill="rgb(0,255,214)" />
<polygon points=" 152,330 150,323 149,330 142,328 147,333 142,338 149,335 150,343 152,335 159,338 153,333 159,328 152,330" fill="rgb(0,255,214)" />
<polygon points=" 166,404 167,411 168,404 175,406 170,401 175,396 168,399 167,392 166,399 159,396 164,401 159,406 166,404" fill="rgb(0,255,214)" />
<polygon points=" 170,382 175,377 168,379 167,372 166,379 159,377 164,382 159,387 166,384 167,392 168,384 175,387 170,382" fill="rgb(0,255,214)" />
<polygon points=" 185,394 192,396 187,392 192,387 185,389 184,382 182,389 175,387 181,392 175,396 182,394 184,401 185,394" fill="rgb(0,255,214)" />
<polygon points=" 182,414 184,421 185,414 192,416 187,411 192,406 185,409 184,401 182,409 175,406 181,411 175,416 182,414" fill="rgb(0,255,214)" />
<polygon points=" 164,421 159,426 166,423 167,431 168,423 175,426 170,421 175,416 168,418 167,411 166,418 159,416 164,421" fill="rgb(0,255,214)" />
<polygon points=" 149,409 142,406 147,411 142,416 149,414 150,421 152,414 159,416 153,411 159,406 152,409 150,401 149,409" fill="rgb(0,255,214)" />
<polygon points=" 152,389 150,382 149,389 142,387 147,392 142,396 149,394 150,401 152,394 159,396 153,392 159,387 152,389" fill="rgb(0,255,214)" />
<polygon points=" 113,431 108,436 115,433 116,440 118,433 125,436 119,431 125,426 118,428 116,421 115,428 108,426 113,431" fill="rgb(0,255,214)" />
<polygon points=" 119,411 125,406 118,409 116,401 115,409 108,406 113,411 108,416 115,414 116,421 118,414 125,416 119,411" fill="rgb(0,255,214)" />
<polygon points=" 135,423 142,426 136,421 142,416 135,418 133,411 132,418 125,416 130,421 125,426 132,423 133,431 135,423" fill="rgb(0,255,214)" />
<polygon points=" 132,443 133,450 135,443 142,445 136,440 142,436 135,438 133,431 132,438 125,436 130,440 125,445 132,443" fill="rgb(0,255,214)" />
<polygon points=" 113,450 108,455 115,453 116,460 118,453 125,455 119,450 125,445 118,448 116,440 115,448 108,445 113,450" fill="rgb(0,255,214)" />
<polygon points=" 98,438 91,436 96,440 91,445 98,443 99,450 101,443 108,445 102,440 108,436 101,438 99,431 98,438" fill="rgb(0,255,214)" />
<polygon points=" 101,418 99,411 98,418 91,416 96,421 91,426 98,423 99,431 101,423 108,426 102,421 108,416 101,418" fill="rgb(0,255,214)" />
<polygon points=" 64,399 57,396 62,401 57,406 64,404 65,411 67,404 74,406 68,401 74,396 67,399 65,392 64,399" fill="rgb(0,255,214)" />
<polygon points=" 68,382 74,377 67,379 65,372 64,379 57,377 62,382 57,387 64,384 65,392 67,384 74,387 68,382" fill="rgb(0,255,214)" />
<polygon points=" 84,394 91,396 85,392 91,387 84,389 82,382 81,389 74,387 79,392 74,396 81,394 82,401 84,394" fill="rgb(0,255,214)" />
<polygon points=" 81,414 82,421 84,414 91,416 85,411 91,406 84,409 82,401 81,409 74,406 79,411 74,416 81,414" fill="rgb(0,255,214)" />
<polygon points=" 62,421 57,426 64,423 65,431 67,423 74,426 68,421 74,416 67,418 65,411 64,418 57,416 62,421" fill="rgb(0,255,214)" />
<polygon points=" 47,409 40,406 46,411 40,416 47,414 48,421 50,414 57,416 51,411 57,406 50,409 48,401 47,409" fill="rgb(0,255,214)" />
<polygon points=" 50,389 48,382 47,389 40,387 46,392 40,396 47,394 48,401 50,394 57,396 51,392 57,387 50,389" fill="rgb(0,255,214)" />
<polygon points=" 67,340 65,333 64,340 57,338 62,343 57,348 64,345 65,352 67,345 74,348 68,343 74,338 67,340" fill="rgb(0,255,214)" />
<polygon points=" 68,323 74,318 67,321 65,313 64,321 57,318 62,323 57,328 64,326 65,333 67,326 74,328 68,323" fill="rgb(0,255,214)" />
<polygon points=" 84,335 91,338 85,333 91,328 84,330 82,323 81,330 74,328 79,333 74,338 81,335 82,343 84,335" fill="rgb(0,255,214)" />
<polygon points=" 81,355 82,362 84,355 91,357 85,352 91,348 84,350 82,343 81,350 74,348 79,352 74,357 81,355" fill="rgb(0,255,214)" />
<polygon points=" 62,362 57,367 64,365 65,372 67,365 74,367 68,362 74,357 67,360 65,352 64,360 57,357 62,362" fill="rgb(0,255,214)" />
<polygon points=" 47,350 40,348 46,352 40,357 47,355 48,362 50,355 57,357 51,352 57,348 50,350 48,343 47,350" fill="rgb(0,255,214)" />
<polygon points=" 50,330 48,323 47,330 40,328 46,333 40,338 47,335 48,343 50,335 57,338 51,333 57,328 50,330" fill="rgb(0,255,214)" />
<polygon points=" 118,193 116,186 115,193 108,191 113,196 108,201 115,199 116,206 118,199 125,201 119,196 125,191 118,193" fill="rgb(0,255,214)" />
<polygon points=" 119,176 125,172 118,174 116,167 115,174 108,172 113,176 108,181 115,179 116,186 118,179 125,181 119,176" fill="rgb(0,255,214)" />
<polygon points=" 135,189 142,191 136,186 142,181 135,184 133,176 132,184 125,181 130,186 125,191 132,189 133,196 135,189" fill="rgb(0,255,214)" />
<polygon points=" 132,208 133,216 135,208 142,211 136,206 142,201 135,203 133,196 132,203 125,201 130,206 125,211 132,208" fill="rgb(0,255,214)" />
<polygon points=" 113,216 108,220 115,218 116,225 118,218 125,220 119,216 125,211 118,213 116,206 115,213 108,211 113,216" fill="rgb(0,255,214)" />
<polygon points=" 98,203 91,201 96,206 91,211 98,208 99,216 101,208 108,211 102,206 108,201 101,203 99,196 98,203" fill="rgb(0,255,214)" />
<polygon points=" 101,184 99,176 98,184 91,181 96,186 91,191 98,189 99,196 101,189 108,191 102,186 108,181 101,184" fill="rgb(0,255,214)" />
<polygon points=" 119,137 125,132 118,135 116,128 115,135 108,132 113,137 108,142 115,140 116,147 118,140 125,142 119,137" fill="rgb(0,255,214)" />
<polygon points=" 119,118 125,113 118,115 116,108 115,115 108,113 113,118 108,123 115,120 116,128 118,120 125,123 119,118" fill="rgb(0,255,214)" />
<polygon points=" 135,130 142,132 136,128 142,123 135,125 133,118 132,125 125,123 130,128 125,132 132,130 133,137 135,130" fill="rgb(0,255,214)" />
<polygon points=" 132,150 133,157 135,150 142,152 136,147 142,142 135,145 133,137 132,145 125,142 130,147 125,152 132,150" fill="rgb(0,255,214)" />
<polygon points=" 113,157 108,162 115,159 116,167 118,159 125,162 119,157 125,152 118,154 116,147 115,154 108,152 113,157" fill="rgb(0,255,214)" />
<polygon points=" 98,145 91,142 96,147 91,152 98,150 99,157 101,150 108,152 102,147 108,142 101,145 99,137 98,145" fill="rgb(0,255,214)" />
<polygon points=" 101,125 99,118 98,125 91,123 96,128 91,132 98,130 99,137 101,130 108,132 102,128 108,123 101,125" fill="rgb(0,255,214)" />
<polygon points=" 168,169 175,172 170,167 175,162 168,164 167,157 166,164 159,162 164,167 159,172 166,169 167,176 168,169" fill="rgb(0,255,214)" />
<polygon points=" 170,147 175,142 168,145 167,137 166,145 159,142 164,147 159,152 166,150 167,157 168,150 175,152 170,147" fill="rgb(0,255,214)" />
<polygon points=" 185,159 192,162 187,157 192,152 185,154 184,147 182,154 175,152 181,157 175,162 182,159 184,167 185,159" fill="rgb(0,255,214)" />
<polygon points=" 182,179 184,186 185,179 192,181 187,176 192,172 185,174 184,167 182,174 175,172 181,176 175,181 182,179" fill="rgb(0,255,214)" />
<polygon points=" 164,186 159,191 166,189 167,196 168,189 175,191 170,186 175,181 168,184 167,176 166,184 159,181 164,186" fill="rgb(0,255,214)" />
<polygon points=" 149,174 142,172 147,176 142,181 149,179 150,186 152,179 159,181 153,176 159,172 152,174 150,167 149,174" fill="rgb(0,255,214)" />
<polygon points=" 152,154 150,147 149,154 142,152 147,157 142,162 149,159 150,167 152,159 159,162 153,157 159,152 152,154" fill="rgb(0,255,214)" />
<polygon points=" 166,228 167,235 168,228 175,230 170,225 175,220 168,223 167,216 166,223 159,220 164,225 159,230 166,228" fill="rgb(0,255,214)" />
<polygon points=" 170,206 175,201 168,203 167,196 166,203 159,201 164,206 159,211 166,208 167,216 168,208 175,211 170,206" fill="rgb(0,255,214)" />
<polygon points=" 185,218 192,220 187,216 192,211 185,213 184,206 182,213 175,211 181,216 175,220 182,218 184,225 185,218" fill="rgb(0,255,214)" />
<polygon points=" 182,238 184,245 185,238 192,240 187,235 192,230 185,233 184,225 182,233 175,230 181,235 175,240 182,238" fill="rgb(0,255,214)" />
<polygon points=" 164,245 159,250 166,247 167,255 168,247 175,250 170,245 175,240 168,242 167,235 166,242 159,240 164,245" fill="rgb(0,255,214)" />
<polygon points=" 149,233 142,230 147,235 142,240 149,238 150,245 152,238 159,240 153,235 159,230 152,233 150,225 149,233" fill="rgb(0,255,214)" />
<polygon points=" 152,213 150,206 149,213 142,211 147,216 142,220 149,218 150,225 152,218 159,220 153,216 159,211 152,213" fill="rgb(0,255,214)" />
<polygon points=" 113,255 108,260 115,257 116,264 118,257 125,260 119,255 125,250 118,252 116,245 115,252 108,250 113,255" fill="rgb(0,255,214)" />
<polygon points=" 119,235 125,230 118,233 116,225 115,233 108,230 113,235 108,240 115,238 116,245 118,238 125,240 119,235" fill="rgb(0,255,214)" />
<polygon points=" 135,247 142,250 136,245 142,240 135,242 133,235 132,242 125,240 130,245 125,250 132,247 133,255 135,247" fill="rgb(0,255,214)" />
<polygon points=" 132,267 133,274 135,267 142,269 136,264 142,260 135,262 133,255 132,262 125,260 130,264 125,269 132,267" fill="rgb(0,255,214)" />
<polygon points=" 113,274 108,279 115,277 116,284 118,277 125,279 119,274 125,269 118,272 116,264 115,272 108,269 113,274" fill="rgb(0,255,214)" />
<polygon points=" 98,262 91,260 96,264 91,269 98,267 99,274 101,267 108,269 102,264 108,260 101,262 99,255 98,262" fill="rgb(0,255,214)" />
<polygon points=" 101,242 99,235 98,242 91,240 96,245 91,250 98,247 99,255 101,247 108,250 102,245 108,240 101,242" fill="rgb(0,255,214)" />
<polygon points=" 64,223 57,220 62,225 57,230 64,228 65,235 67,228 74,230 68,225 74,220 67,223 65,216 64,223" fill="rgb(0,255,214)" />
<polygon points=" 68,206 74,201 67,203 65,196 64,203 57,201 62,206 57,211 64,208 65,216 67,208 74,211 68,206" fill="rgb(0,255,214)" />
<polygon points=" 84,218 91,220 85,216 91,211 84,213 82,206 81,213 74,211 79,216 74,220 81,218 82,225 84,218" fill="rgb(0,255,214)" />
<polygon points=" 81,238 82,245 84,238 91,240 85,235 91,230 84,233 82,225 81,233 74,230 79,235 74,240 81,238" fill="rgb(0,255,214)" />
<polygon points=" 62,245 57,250 64,247 65,255 67,247 74,250 68,245 74,240 67,242 65,235 64,242 57,240 62,245" fill="rgb(0,255,214)" />
<polygon points=" 47,233 40,230 46,235 40,240 47,238 48,245 50,238 57,240 51,235 57,230 50,233 48,225 47,233" fill="rgb(0,255,214)" />
<polygon points=" 50,213 48,206 47,213 40,211 46,216 40,220 47,218 48,225 50,218 57,220 51,216 57,211 50,213" fill="rgb(0,255,214)" />
<polygon points=" 67,164 65,157 64,164 57,162 62,167 57,172 64,169 65,176 67,169 74,172 68,167 74,162 67,164" fill="rgb(0,255,214)" />
<polygon points=" 68,147 74,142 67,145 65,137 64,145 57,142 62,147 57,152 64,150 65,157 67,150 74,152 68,147" fill="rgb(0,255,214)" />
<polygon points=" 84,159 91,162 85,157 91,152 84,154 82,147 81,154 74,152 79,157 74,162 81,159 82,167 84,159" fill="rgb(0,255,214)" />
<polygon points=" 81,179 82,186 84,179 91,181 85,176 91,172 84,174 82,167 81,174 74,172 79,176 74,181 81,179" fill="rgb(0,255,214)" />
<polygon points=" 62,186 57,191 64,189 65,196 67,189 74,191 68,186 74,181 67,184 65,176 64,184 57,181 62,186" fill="rgb(0,255,214)" />
<polygon points=" 47,174 40,172 46,176 40,181 47,179 48,186 50,179 57,181 51,176 57,172 50,174 48,167 47,174" fill="rgb(0,255,214)" />
<polygon points=" 50,154 48,147 47,154 40,152 46,157 40,162 47,159 48,167 50,159 57,162 51,157 57,152 50,154" fill="rgb(0,255,214)" /></svg>