<svg xmlns="http://www.w3.org/2000/svg" 
xmlns:xlink="http://www.w3.org/1999/xlink" 
version="1.1" baseProfile="full" 
width="537" height="568" >
<polygon points=" 321,284 497,152 295,238 269,20 242,238 40,152 216,284 40,416 242,330 269,548 295,330 497,416 321,284" fill="rgb(255,170,0)" />
<polygon points=" 286,284 345,240 277,269 269,196 260,269 192,240 251,284 192,328 260,299 269,372 277,299 345,328 286,284" fill="rgb(255,0,212)" />
<polygon points=" 286,108 345,64 277,93 269,20 260,93 192,64 251,108 192,152 260,123 269,196 277,123 345,152 286,108" fill="rgb(255,0,212)" />
<polygon points=" 430,211 497,240 439,196 497,152 430,181 421,108 412,181 345,152 403,196 345,240 412,211 421,284 430,211" fill="rgb(255,0,212)" />
<polygon points=" 412,387 421,460 430,387 497,416 439,372 497,328 430,357 421,284 412,357 345,328 403,372 345,416 412,387" fill="rgb(255,0,212)" />
<polygon points=" 251,460 192,504 260,475 269,548 277,475 345,504 286,460 345,416 277,445 269,372 260,445 192,416 251,460" fill="rgb(255,0,212)" />
<polygon points=" 107,357 40,328 99,372 40,416 107,387 116,460 125,387 192,416 134,372 192,328 125,357 116,284 107,357" fill="rgb(255,0,212)" />
<polygon points=" 125,181 116,108 107,181 40,152 99,196 40,240 107,211 116,284 125,211 192,240 134,196 192,152 125,181" fill="rgb(255,0,212)" />
<polygon points=" 274,284 294,269 272,279 269,255 266,279 243,269 263,284 243,299 266,289 269,313 272,289 294,299 274,284" fill="rgb(0,84,255)" />
<polygon points=" 274,225 294,211 272,220 269,196 266,220 243,211 263,225 243,240 266,230 269,255 272,230 294,240 274,225" fill="rgb(0,84,255)" />
<polygon points=" 322,260 345,269 325,255 345,240 322,250 319,225 317,250 294,240 314,255 294,269 317,260 319,284 322,260" fill="rgb(0,84,255)" />
<polygon points=" 317,318 319,343 322,318 345,328 325,313 345,299 322,308 319,284 317,308 294,299 314,313 294,328 317,318" fill="rgb(0,84,255)" />
<polygon points=" 263,343 243,357 266,348 269,372 272,348 294,357 274,343 294,328 272,338 269,313 266,338 243,328 263,343" fill="rgb(0,84,255)" />
<polygon points=" 215,308 192,299 212,313 192,328 215,318 218,343 221,318 243,328 224,313 243,299 221,308 218,284 215,308" fill="rgb(0,84,255)" />
<polygon points=" 221,250 218,225 215,250 192,240 212,255 192,269 215,260 218,284 221,260 243,269 224,255 243,240 221,250" fill="rgb(0,84,255)" />
<polygon points=" 274,108 294,93 272,103 269,79 266,103 243,93 263,108 243,123 266,113 269,137 272,113 294,123 274,108" fill="rgb(0,84,255)" />
<polygon points=" 274,49 294,35 272,44 269,20 266,44 243,35 263,49 243,64 266,54 269,79 272,54 294,64 274,49" fill="rgb(0,84,255)" />
<polygon points=" 322,84 345,93 325,79 345,64 322,74 319,49 317,74 294,64 314,79 294,93 317,84 319,108 322,84" fill="rgb(0,84,255)" />
<polygon points=" 317,142 319,167 322,142 345,152 325,137 345,123 322,132 319,108 317,132 294,123 314,137 294,152 317,142" fill="rgb(0,84,255)" />
<polygon points=" 263,167 243,181 266,172 269,196 272,172 294,181 274,167 294,152 272,162 269,137 266,162 243,152 263,167" fill="rgb(0,84,255)" />
<polygon points=" 215,132 192,123 212,137 192,152 215,142 218,167 221,142 243,152 224,137 243,123 221,132 218,108 215,132" fill="rgb(0,84,255)" />
<polygon points=" 221,74 218,49 215,74 192,64 212,79 192,93 215,84 218,108 221,84 243,93 224,79 243,64 221,74" fill="rgb(0,84,255)" />
<polygon points=" 424,201 446,211 427,196 446,181 424,191 421,167 418,191 396,181 415,196 396,211 418,201 421,225 424,201" fill="rgb(0,84,255)" />
<polygon points=" 427,137 446,123 424,132 421,108 418,132 396,123 415,137 396,152 418,142 421,167 424,142 446,152 427,137" fill="rgb(0,84,255)" />
<polygon points=" 475,172 497,181 478,167 497,152 475,162 472,137 469,162 446,152 466,167 446,181 469,172 472,196 475,172" fill="rgb(0,84,255)" />
<polygon points=" 469,230 472,255 475,230 497,240 478,225 497,211 475,220 472,196 469,220 446,211 466,225 446,240 469,230" fill="rgb(0,84,255)" />
<polygon points=" 415,255 396,269 418,260 421,284 424,260 446,269 427,255 446,240 424,250 421,225 418,250 396,240 415,255" fill="rgb(0,84,255)" />
<polygon points=" 367,220 345,211 364,225 345,240 367,230 370,255 373,230 396,240 376,225 396,211 373,220 370,196 367,220" fill="rgb(0,84,255)" />
<polygon points=" 373,162 370,137 367,162 345,152 364,167 345,181 367,172 370,196 373,172 396,181 376,167 396,152 373,162" fill="rgb(0,84,255)" />
<polygon points=" 418,377 421,401 424,377 446,387 427,372 446,357 424,367 421,343 418,367 396,357 415,372 396,387 418,377" fill="rgb(0,84,255)" />
<polygon points=" 427,313 446,299 424,308 421,284 418,308 396,299 415,313 396,328 418,318 421,343 424,318 446,328 427,313" fill="rgb(0,84,255)" />
<polygon points=" 475,348 497,357 478,343 497,328 475,338 472,313 469,338 446,328 466,343 446,357 469,348 472,372 475,348" fill="rgb(0,84,255)" />
<polygon points=" 469,406 472,431 475,406 497,416 478,401 497,387 475,396 472,372 469,396 446,387 466,401 446,416 469,406" fill="rgb(0,84,255)" />
<polygon points=" 415,431 396,445 418,436 421,460 424,436 446,445 427,431 446,416 424,426 421,401 418,426 396,416 415,431" fill="rgb(0,84,255)" />
<polygon points=" 367,396 345,387 364,401 345,416 367,406 370,431 373,406 396,416 376,401 396,387 373,396 370,372 367,396" fill="rgb(0,84,255)" />
<polygon points=" 373,338 370,313 367,338 345,328 364,343 345,357 367,348 370,372 373,348 396,357 376,343 396,328 373,338" fill="rgb(0,84,255)" />
<polygon points=" 263,460 243,475 266,465 269,489 272,465 294,475 274,460 294,445 272,455 269,431 266,455 243,445 263,460" fill="rgb(0,84,255)" />
<polygon points=" 274,401 294,387 272,396 269,372 266,396 243,387 263,401 243,416 266,406 269,431 272,406 294,416 274,401" fill="rgb(0,84,255)" />
<polygon points=" 322,436 345,445 325,431 345,416 322,426 319,401 317,426 294,416 314,431 294,445 317,436 319,460 322,436" fill="rgb(0,84,255)" />
<polygon points=" 317,494 319,519 322,494 345,504 325,489 345,475 322,484 319,460 317,484 294,475 314,489 294,504 317,494" fill="rgb(0,84,255)" />
<polygon points=" 263,519 243,533 266,524 269,548 272,524 294,533 274,519 294,504 272,514 269,489 266,514 243,504 263,519" fill="rgb(0,84,255)" />
<polygon points=" 215,484 192,475 212,489 192,504 215,494 218,519 221,494 243,504 224,489 243,475 221,484 218,460 215,484" fill="rgb(0,84,255)" />
<polygon points=" 221,426 218,401 215,426 192,416 212,431 192,445 215,436 218,460 221,436 243,445 224,431 243,416 221,426" fill="rgb(0,84,255)" />
<polygon points=" 113,367 91,357 110,372 91,387 113,377 116,401 119,377 142,387 122,372 142,357 119,367 116,343 113,367" fill="rgb(0,84,255)" />
<polygon points=" 122,313 142,299 119,308 116,284 113,308 91,299 110,313 91,328 113,318 116,343 119,318 142,328 122,313" fill="rgb(0,84,255)" />
<polygon points=" 170,348 192,357 173,343 192,328 170,338 167,313 164,338 142,328 161,343 142,357 164,348 167,372 170,348" fill="rgb(0,84,255)" />
<polygon points=" 164,406 167,431 170,406 192,416 173,401 192,387 170,396 167,372 164,396 142,387 161,401 142,416 164,406" fill="rgb(0,84,255)" />
<polygon points=" 110,431 91,445 113,436 116,460 119,436 142,445 122,431 142,416 119,426 116,401 113,426 91,416 110,431" fill="rgb(0,84,255)" />
<polygon points=" 62,396 40,387 60,401 40,416 62,406 65,431 68,406 91,416 71,401 91,387 68,396 65,372 62,396" fill="rgb(0,84,255)" />
<polygon points=" 68,338 65,313 62,338 40,328 60,343 40,357 62,348 65,372 68,348 91,357 71,343 91,328 68,338" fill="rgb(0,84,255)" />
<polygon points=" 119,191 116,167 113,191 91,181 110,196 91,211 113,201 116,225 119,201 142,211 122,196 142,181 119,191" fill="rgb(0,84,255)" />
<polygon points=" 122,137 142,123 119,132 116,108 113,132 91,123 110,137 91,152 113,142 116,167 119,142 142,152 122,137" fill="rgb(0,84,255)" />
<polygon points=" 170,172 192,181 173,167 192,152 170,162 167,137 164,162 142,152 161,167 142,181 164,172 167,196 170,172" fill="rgb(0,84,255)" />
<polygon points=" 164,230 167,255 170,230 192,240 173,225 192,211 170,220 167,196 164,220 142,211 161,225 142,240 164,230" fill="rgb(0,84,255)" />
<polygon points=" 110,255 91,269 113,260 116,284 119,260 142,269 122,255 142,240 119,250 116,225 113,250 91,240 110,255" fill="rgb(0,84,255)" />
<polygon points=" 62,220 40,211 60,225 40,240 62,230 65,255 68,230 91,240 71,225 91,211 68,220 65,196 62,220" fill="rgb(0,84,255)" />
<polygon points=" 68,162 65,137 62,162 40,152 60,167 40,181 62,172 65,196 68,172 91,181 71,167 91,152 68,162" fill="rgb(0,84,255)" />
<polygon points=" 271,284 277,279 270,282 269,274 268,282 260,279 267,284 260,289 268,286 269,294 270,286 277,289 271,284" fill="rgb(0,255,44)" />
<polygon points=" 271,264 277,260 270,263 269,255 268,263 260,260 267,264 260,269 268,266 269,274 270,266 277,269 271,264" fill="rgb(0,255,44)" />
<polygon points=" 287,276 294,279 288,274 294,269 287,273 286,264 285,273 277,269 284,274 277,279 285,276 286,284 287,276" fill="rgb(0,255,44)" />
<polygon points=" 285,295 286,304 287,295 294,299 288,294 294,289 287,292 286,284 285,292 277,289 284,294 277,299 285,295" fill="rgb(0,255,44)" />
<polygon points=" 267,304 260,308 268,305 269,313 270,305 277,308 271,304 277,299 270,302 269,294 268,302 260,299 267,304" fill="rgb(0,255,44)" />
<polygon points=" 251,292 243,289 250,294 243,299 251,295 252,304 253,295 260,299 254,294 260,289 253,292 252,284 251,292" fill="rgb(0,255,44)" />
<polygon points=" 253,273 252,264 251,273 243,269 250,274 243,279 251,276 252,284 253,276 260,279 254,274 260,269 253,273" fill="rgb(0,255,44)" />
<polygon points=" 271,225 277,220 270,224 269,216 268,224 260,220 267,225 260,230 268,227 269,235 270,227 277,230 271,225" fill="rgb(0,255,44)" />
<polygon points=" 271,206 277,201 270,204 269,196 268,204 260,201 267,206 260,211 268,207 269,216 270,207 277,211 271,206" fill="rgb(0,255,44)" />
<polygon points=" 287,217 294,220 288,216 294,211 287,214 286,206 285,214 277,211 284,216 277,220 285,217 286,225 287,217" fill="rgb(0,255,44)" />
<polygon points=" 285,237 286,245 287,237 294,240 288,235 294,230 287,233 286,225 285,233 277,230 284,235 277,240 285,237" fill="rgb(0,255,44)" />
<polygon points=" 267,245 260,250 268,247 269,255 270,247 277,250 271,245 277,240 270,243 269,235 268,243 260,240 267,245" fill="rgb(0,255,44)" />
<polygon points=" 251,233 243,230 250,235 243,240 251,237 252,245 253,237 260,240 254,235 260,230 253,233 252,225 251,233" fill="rgb(0,255,44)" />
<polygon points=" 253,214 252,206 251,214 243,211 250,216 243,220 251,217 252,225 253,217 260,220 254,216 260,211 253,214" fill="rgb(0,255,44)" />
<polygon points=" 320,256 328,260 321,255 328,250 320,253 319,245 318,253 311,250 317,255 311,260 318,256 319,264 320,256" fill="rgb(0,255,44)" />
<polygon points=" 321,235 328,230 320,233 319,225 318,233 311,230 317,235 311,240 318,237 319,245 320,237 328,240 321,235" fill="rgb(0,255,44)" />
<polygon points=" 337,247 345,250 338,245 345,240 337,243 336,235 335,243 328,240 334,245 328,250 335,247 336,255 337,247" fill="rgb(0,255,44)" />
<polygon points=" 335,266 336,274 337,266 345,269 338,264 345,260 337,263 336,255 335,263 328,260 334,264 328,269 335,266" fill="rgb(0,255,44)" />
<polygon points=" 317,274 311,279 318,276 319,284 320,276 328,279 321,274 328,269 320,273 319,264 318,273 311,269 317,274" fill="rgb(0,255,44)" />
<polygon points=" 302,263 294,260 301,264 294,269 302,266 303,274 303,266 311,269 304,264 311,260 303,263 303,255 302,263" fill="rgb(0,255,44)" />
<polygon points=" 303,243 303,235 302,243 294,240 301,245 294,250 302,247 303,255 303,247 311,250 304,245 311,240 303,243" fill="rgb(0,255,44)" />
<polygon points=" 318,315 319,323 320,315 328,318 321,313 328,308 320,312 319,304 318,312 311,308 317,313 311,318 318,315" fill="rgb(0,255,44)" />
<polygon points=" 321,294 328,289 320,292 319,284 318,292 311,289 317,294 311,299 318,295 319,304 320,295 328,299 321,294" fill="rgb(0,255,44)" />
<polygon points=" 337,305 345,308 338,304 345,299 337,302 336,294 335,302 328,299 334,304 328,308 335,305 336,313 337,305" fill="rgb(0,255,44)" />
<polygon points=" 335,325 336,333 337,325 345,328 338,323 345,318 337,321 336,313 335,321 328,318 334,323 328,328 335,325" fill="rgb(0,255,44)" />
<polygon points=" 317,333 311,338 318,335 319,343 320,335 328,338 321,333 328,328 320,331 319,323 318,331 311,328 317,333" fill="rgb(0,255,44)" />
<polygon points=" 302,321 294,318 301,323 294,328 302,325 303,333 303,325 311,328 304,323 311,318 303,321 303,313 302,321" fill="rgb(0,255,44)" />
<polygon points=" 303,302 303,294 302,302 294,299 301,304 294,308 302,305 303,313 303,305 311,308 304,304 311,299 303,302" fill="rgb(0,255,44)" />
<polygon points=" 267,343 260,348 268,344 269,352 270,344 277,348 271,343 277,338 270,341 269,333 268,341 260,338 267,343" fill="rgb(0,255,44)" />
<polygon points=" 271,323 277,318 270,321 269,313 268,321 260,318 267,323 260,328 268,325 269,333 270,325 277,328 271,323" fill="rgb(0,255,44)" />
<polygon points=" 287,335 294,338 288,333 294,328 287,331 286,323 285,331 277,328 284,333 277,338 285,335 286,343 287,335" fill="rgb(0,255,44)" />
<polygon points=" 285,354 286,362 287,354 294,357 288,352 294,348 287,351 286,343 285,351 277,348 284,352 277,357 285,354" fill="rgb(0,255,44)" />
<polygon points=" 267,362 260,367 268,364 269,372 270,364 277,367 271,362 277,357 270,361 269,352 268,361 260,357 267,362" fill="rgb(0,255,44)" />
<polygon points=" 251,351 243,348 250,352 243,357 251,354 252,362 253,354 260,357 254,352 260,348 253,351 252,343 251,351" fill="rgb(0,255,44)" />
<polygon points=" 253,331 252,323 251,331 243,328 250,333 243,338 251,335 252,343 253,335 260,338 254,333 260,328 253,331" fill="rgb(0,255,44)" />
<polygon points=" 217,312 209,308 216,313 209,318 217,315 218,323 219,315 226,318 220,313 226,308 219,312 218,304 217,312" fill="rgb(0,255,44)" />
<polygon points=" 220,294 226,289 219,292 218,284 217,292 209,289 216,294 209,299 217,295 218,304 219,295 226,299 220,294" fill="rgb(0,255,44)" />
<polygon points=" 236,305 243,308 237,304 243,299 236,302 235,294 234,302 226,299 233,304 226,308 234,305 235,313 236,305" fill="rgb(0,255,44)" />
<polygon points=" 234,325 235,333 236,325 243,328 237,323 243,318 236,321 235,313 234,321 226,318 233,323 226,328 234,325" fill="rgb(0,255,44)" />
<polygon points=" 216,333 209,338 217,335 218,343 219,335 226,338 220,333 226,328 219,331 218,323 217,331 209,328 216,333" fill="rgb(0,255,44)" />
<polygon points=" 200,321 192,318 199,323 192,328 200,325 201,333 202,325 209,328 203,323 209,318 202,321 201,313 200,321" fill="rgb(0,255,44)" />
<polygon points=" 202,302 201,294 200,302 192,299 199,304 192,308 200,305 201,313 202,305 209,308 203,304 209,299 202,302" fill="rgb(0,255,44)" />
<polygon points=" 219,253 218,245 217,253 209,250 216,255 209,260 217,256 218,264 219,256 226,260 220,255 226,250 219,253" fill="rgb(0,255,44)" />
<polygon points=" 220,235 226,230 219,233 218,225 217,233 209,230 216,235 209,240 217,237 218,245 219,237 226,240 220,235" fill="rgb(0,255,44)" />
<polygon points=" 236,247 243,250 237,245 243,240 236,243 235,235 234,243 226,240 233,245 226,250 234,247 235,255 236,247" fill="rgb(0,255,44)" />
<polygon points=" 234,266 235,274 236,266 243,269 237,264 243,260 236,263 235,255 234,263 226,260 233,264 226,269 234,266" fill="rgb(0,255,44)" />
<polygon points=" 216,274 209,279 217,276 218,284 219,276 226,279 220,274 226,269 219,273 218,264 217,273 209,269 216,274" fill="rgb(0,255,44)" />
<polygon points=" 200,263 192,260 199,264 192,269 200,266 201,274 202,266 209,269 203,264 209,260 202,263 201,255 200,263" fill="rgb(0,255,44)" />
<polygon points=" 202,243 201,235 200,243 192,240 199,245 192,250 200,247 201,255 202,247 209,250 203,245 209,240 202,243" fill="rgb(0,255,44)" />
<polygon points=" 271,108 277,103 270,106 269,98 268,106 260,103 267,108 260,113 268,110 269,118 270,110 277,113 271,108" fill="rgb(0,255,44)" />
<polygon points=" 271,88 277,84 270,87 269,79 268,87 260,84 267,88 260,93 268,90 269,98 270,90 277,93 271,88" fill="rgb(0,255,44)" />
<polygon points=" 287,100 294,103 288,98 294,93 287,97 286,88 285,97 277,93 284,98 277,103 285,100 286,108 287,100" fill="rgb(0,255,44)" />
<polygon points=" 285,119 286,128 287,119 294,123 288,118 294,113 287,116 286,108 285,116 277,113 284,118 277,123 285,119" fill="rgb(0,255,44)" />
<polygon points=" 267,128 260,132 268,129 269,137 270,129 277,132 271,128 277,123 270,126 269,118 268,126 260,123 267,128" fill="rgb(0,255,44)" />
<polygon points=" 251,116 243,113 250,118 243,123 251,119 252,128 253,119 260,123 254,118 260,113 253,116 252,108 251,116" fill="rgb(0,255,44)" />
<polygon points=" 253,97 252,88 251,97 243,93 250,98 243,103 251,100 252,108 253,100 260,103 254,98 260,93 253,97" fill="rgb(0,255,44)" />
<polygon points=" 271,49 277,44 270,48 269,40 268,48 260,44 267,49 260,54 268,51 269,59 270,51 277,54 271,49" fill="rgb(0,255,44)" />
<polygon points=" 271,30 277,25 270,28 269,20 268,28 260,25 267,30 260,35 268,31 269,40 270,31 277,35 271,30" fill="rgb(0,255,44)" />
<polygon points=" 287,41 294,44 288,40 294,35 287,38 286,30 285,38 277,35 284,40 277,44 285,41 286,49 287,41" fill="rgb(0,255,44)" />
<polygon points=" 285,61 286,69 287,61 294,64 288,59 294,54 287,57 286,49 285,57 277,54 284,59 277,64 285,61" fill="rgb(0,255,44)" />
<polygon points=" 267,69 260,74 268,71 269,79 270,71 277,74 271,69 277,64 270,67 269,59 268,67 260,64 267,69" fill="rgb(0,255,44)" />
<polygon points=" 251,57 243,54 250,59 243,64 251,61 252,69 253,61 260,64 254,59 260,54 253,57 252,49 251,57" fill="rgb(0,255,44)" />
<polygon points=" 253,38 252,30 251,38 243,35 250,40 243,44 251,41 252,49 253,41 260,44 254,40 260,35 253,38" fill="rgb(0,255,44)" />
<polygon points=" 320,80 328,84 321,79 328,74 320,77 319,69 318,77 311,74 317,79 311,84 318,80 319,88 320,80" fill="rgb(0,255,44)" />
<polygon points=" 321,59 328,54 320,57 319,49 318,57 311,54 317,59 311,64 318,61 319,69 320,61 328,64 321,59" fill="rgb(0,255,44)" />
<polygon points=" 337,71 345,74 338,69 345,64 337,67 336,59 335,67 328,64 334,69 328,74 335,71 336,79 337,71" fill="rgb(0,255,44)" />
<polygon points=" 335,90 336,98 337,90 345,93 338,88 345,84 337,87 336,79 335,87 328,84 334,88 328,93 335,90" fill="rgb(0,255,44)" />
<polygon points=" 317,98 311,103 318,100 319,108 320,100 328,103 321,98 328,93 320,97 319,88 318,97 311,93 317,98" fill="rgb(0,255,44)" />
<polygon points=" 302,87 294,84 301,88 294,93 302,90 303,98 303,90 311,93 304,88 311,84 303,87 303,79 302,87" fill="rgb(0,255,44)" />
<polygon points=" 303,67 303,59 302,67 294,64 301,69 294,74 302,71 303,79 303,71 311,74 304,69 311,64 303,67" fill="rgb(0,255,44)" />
<polygon points=" 318,139 319,147 320,139 328,142 321,137 328,132 320,136 319,128 318,136 311,132 317,137 311,142 318,139" fill="rgb(0,255,44)" />
<polygon points=" 321,118 328,113 320,116 319,108 318,116 311,113 317,118 311,123 318,119 319,128 320,119 328,123 321,118" fill="rgb(0,255,44)" />
<polygon points=" 337,129 345,132 338,128 345,123 337,126 336,118 335,126 328,123 334,128 328,132 335,129 336,137 337,129" fill="rgb(0,255,44)" />
<polygon points=" 335,149 336,157 337,149 345,152 338,147 345,142 337,145 336,137 335,145 328,142 334,147 328,152 335,149" fill="rgb(0,255,44)" />
<polygon points=" 317,157 311,162 318,159 319,167 320,159 328,162 321,157 328,152 320,155 319,147 318,155 311,152 317,157" fill="rgb(0,255,44)" />
<polygon points=" 302,145 294,142 301,147 294,152 302,149 303,157 303,149 311,152 304,147 311,142 303,145 303,137 302,145" fill="rgb(0,255,44)" />
<polygon points=" 303,126 303,118 302,126 294,123 301,128 294,132 302,129 303,137 303,129 311,132 304,128 311,123 303,126" fill="rgb(0,255,44)" />
<polygon points=" 267,167 260,172 268,168 269,176 270,168 277,172 271,167 277,162 270,165 269,157 268,165 260,162 267,167" fill="rgb(0,255,44)" />
<polygon points=" 271,147 277,142 270,145 269,137 268,145 260,142 267,147 260,152 268,149 269,157 270,149 277,152 271,147" fill="rgb(0,255,44)" />
<polygon points=" 287,159 294,162 288,157 294,152 287,155 286,147 285,155 277,152 284,157 277,162 285,159 286,167 287,159" fill="rgb(0,255,44)" />
<polygon points=" 285,178 286,186 287,178 294,181 288,176 294,172 287,175 286,167 285,175 277,172 284,176 277,181 285,178" fill="rgb(0,255,44)" />
<polygon points=" 267,186 260,191 268,188 269,196 270,188 277,191 271,186 277,181 270,185 269,176 268,185 260,181 267,186" fill="rgb(0,255,44)" />
<polygon points=" 251,175 243,172 250,176 243,181 251,178 252,186 253,178 260,181 254,176 260,172 253,175 252,167 251,175" fill="rgb(0,255,44)" />
<polygon points=" 253,155 252,147 251,155 243,152 250,157 243,162 251,159 252,167 253,159 260,162 254,157 260,152 253,155" fill="rgb(0,255,44)" />
<polygon points=" 217,136 209,132 216,137 209,142 217,139 218,147 219,139 226,142 220,137 226,132 219,136 218,128 217,136" fill="rgb(0,255,44)" />
<polygon points=" 220,118 226,113 219,116 218,108 217,116 209,113 216,118 209,123 217,119 218,128 219,119 226,123 220,118" fill="rgb(0,255,44)" />
<polygon points=" 236,129 243,132 237,128 243,123 236,126 235,118 234,126 226,123 233,128 226,132 234,129 235,137 236,129" fill="rgb(0,255,44)" />
<polygon points=" 234,149 235,157 236,149 243,152 237,147 243,142 236,145 235,137 234,145 226,142 233,147 226,152 234,149" fill="rgb(0,255,44)" />
<polygon points=" 216,157 209,162 217,159 218,167 219,159 226,162 220,157 226,152 219,155 218,147 217,155 209,152 216,157" fill="rgb(0,255,44)" />
<polygon points=" 200,145 192,142 199,147 192,152 200,149 201,157 202,149 209,152 203,147 209,142 202,145 201,137 200,145" fill="rgb(0,255,44)" />
<polygon points=" 202,126 201,118 200,126 192,123 199,128 192,132 200,129 201,137 202,129 209,132 203,128 209,123 202,126" fill="rgb(0,255,44)" />
<polygon points=" 219,77 218,69 217,77 209,74 216,79 209,84 217,80 218,88 219,80 226,84 220,79 226,74 219,77" fill="rgb(0,255,44)" />
<polygon points=" 220,59 226,54 219,57 218,49 217,57 209,54 216,59 209,64 217,61 218,69 219,61 226,64 220,59" fill="rgb(0,255,44)" />
<polygon points=" 236,71 243,74 237,69 243,64 236,67 235,59 234,67 226,64 233,69 226,74 234,71 235,79 236,71" fill="rgb(0,255,44)" />
<polygon points=" 234,90 235,98 236,90 243,93 237,88 243,84 236,87 235,79 234,87 226,84 233,88 226,93 234,90" fill="rgb(0,255,44)" />
<polygon points=" 216,98 209,103 217,100 218,108 219,100 226,103 220,98 226,93 219,97 218,88 217,97 209,93 216,98" fill="rgb(0,255,44)" />
<polygon points=" 200,87 192,84 199,88 192,93 200,90 201,98 202,90 209,93 203,88 209,84 202,87 201,79 200,87" fill="rgb(0,255,44)" />
<polygon points=" 202,67 201,59 200,67 192,64 199,69 192,74 200,71 201,79 202,71 209,74 203,69 209,64 202,67" fill="rgb(0,255,44)" />
<polygon points=" 422,198 430,201 423,196 430,191 422,194 421,186 420,194 413,191 419,196 413,201 420,198 421,206 422,198" fill="rgb(0,255,44)" />
<polygon points=" 423,176 430,172 422,175 421,167 420,175 413,172 419,176 413,181 420,178 421,186 422,178 430,181 423,176" fill="rgb(0,255,44)" />
<polygon points=" 439,188 446,191 440,186 446,181 439,185 438,176 437,185 430,181 436,186 430,191 437,188 438,196 439,188" fill="rgb(0,255,44)" />
<polygon points=" 437,207 438,216 439,207 446,211 440,206 446,201 439,204 438,196 437,204 430,201 436,206 430,211 437,207" fill="rgb(0,255,44)" />
<polygon points=" 419,216 413,220 420,217 421,225 422,217 430,220 423,216 430,211 422,214 421,206 420,214 413,211 419,216" fill="rgb(0,255,44)" />
<polygon points=" 403,204 396,201 402,206 396,211 403,207 404,216 405,207 413,211 406,206 413,201 405,204 404,196 403,204" fill="rgb(0,255,44)" />
<polygon points=" 405,185 404,176 403,185 396,181 402,186 396,191 403,188 404,196 405,188 413,191 406,186 413,181 405,185" fill="rgb(0,255,44)" />
<polygon points=" 423,137 430,132 422,136 421,128 420,136 413,132 419,137 413,142 420,139 421,147 422,139 430,142 423,137" fill="rgb(0,255,44)" />
<polygon points=" 423,118 430,113 422,116 421,108 420,116 413,113 419,118 413,123 420,119 421,128 422,119 430,123 423,118" fill="rgb(0,255,44)" />
<polygon points=" 439,129 446,132 440,128 446,123 439,126 438,118 437,126 430,123 436,128 430,132 437,129 438,137 439,129" fill="rgb(0,255,44)" />
<polygon points=" 437,149 438,157 439,149 446,152 440,147 446,142 439,145 438,137 437,145 430,142 436,147 430,152 437,149" fill="rgb(0,255,44)" />
<polygon points=" 419,157 413,162 420,159 421,167 422,159 430,162 423,157 430,152 422,155 421,147 420,155 413,152 419,157" fill="rgb(0,255,44)" />
<polygon points=" 403,145 396,142 402,147 396,152 403,149 404,157 405,149 413,152 406,147 413,142 405,145 404,137 403,145" fill="rgb(0,255,44)" />
<polygon points=" 405,126 404,118 403,126 396,123 402,128 396,132 403,129 404,137 405,129 413,132 406,128 413,123 405,126" fill="rgb(0,255,44)" />
<polygon points=" 473,168 480,172 474,167 480,162 473,165 472,157 471,165 463,162 470,167 463,172 471,168 472,176 473,168" fill="rgb(0,255,44)" />
<polygon points=" 474,147 480,142 473,145 472,137 471,145 463,142 470,147 463,152 471,149 472,157 473,149 480,152 474,147" fill="rgb(0,255,44)" />
<polygon points=" 490,159 497,162 491,157 497,152 490,155 489,147 488,155 480,152 487,157 480,162 488,159 489,167 490,159" fill="rgb(0,255,44)" />
<polygon points=" 488,178 489,186 490,178 497,181 491,176 497,172 490,175 489,167 488,175 480,172 487,176 480,181 488,178" fill="rgb(0,255,44)" />
<polygon points=" 470,186 463,191 471,188 472,196 473,188 480,191 474,186 480,181 473,185 472,176 471,185 463,181 470,186" fill="rgb(0,255,44)" />
<polygon points=" 454,175 446,172 453,176 446,181 454,178 455,186 456,178 463,181 457,176 463,172 456,175 455,167 454,175" fill="rgb(0,255,44)" />
<polygon points=" 456,155 455,147 454,155 446,152 453,157 446,162 454,159 455,167 456,159 463,162 457,157 463,152 456,155" fill="rgb(0,255,44)" />
<polygon points=" 471,227 472,235 473,227 480,230 474,225 480,220 473,224 472,216 471,224 463,220 470,225 463,230 471,227" fill="rgb(0,255,44)" />
<polygon points=" 474,206 480,201 473,204 472,196 471,204 463,201 470,206 463,211 471,207 472,216 473,207 480,211 474,206" fill="rgb(0,255,44)" />
<polygon points=" 490,217 497,220 491,216 497,211 490,214 489,206 488,214 480,211 487,216 480,220 488,217 489,225 490,217" fill="rgb(0,255,44)" />
<polygon points=" 488,237 489,245 490,237 497,240 491,235 497,230 490,233 489,225 488,233 480,230 487,235 480,240 488,237" fill="rgb(0,255,44)" />
<polygon points=" 470,245 463,250 471,247 472,255 473,247 480,250 474,245 480,240 473,243 472,235 471,243 463,240 470,245" fill="rgb(0,255,44)" />
<polygon points=" 454,233 446,230 453,235 446,240 454,237 455,245 456,237 463,240 457,235 463,230 456,233 455,225 454,233" fill="rgb(0,255,44)" />
<polygon points=" 456,214 455,206 454,214 446,211 453,216 446,220 454,217 455,225 456,217 463,220 457,216 463,211 456,214" fill="rgb(0,255,44)" />
<polygon points=" 419,255 413,260 420,256 421,264 422,256 430,260 423,255 430,250 422,253 421,245 420,253 413,250 419,255" fill="rgb(0,255,44)" />
<polygon points=" 423,235 430,230 422,233 421,225 420,233 413,230 419,235 413,240 420,237 421,245 422,237 430,240 423,235" fill="rgb(0,255,44)" />
<polygon points=" 439,247 446,250 440,245 446,240 439,243 438,235 437,243 430,240 436,245 430,250 437,247 438,255 439,247" fill="rgb(0,255,44)" />
<polygon points=" 437,266 438,274 439,266 446,269 440,264 446,260 439,263 438,255 437,263 430,260 436,264 430,269 437,266" fill="rgb(0,255,44)" />
<polygon points=" 419,274 413,279 420,276 421,284 422,276 430,279 423,274 430,269 422,273 421,264 420,273 413,269 419,274" fill="rgb(0,255,44)" />
<polygon points=" 403,263 396,260 402,264 396,269 403,266 404,274 405,266 413,269 406,264 413,260 405,263 404,255 403,263" fill="rgb(0,255,44)" />
<polygon points=" 405,243 404,235 403,243 396,240 402,245 396,250 403,247 404,255 405,247 413,250 406,245 413,240 405,243" fill="rgb(0,255,44)" />
<polygon points=" 369,224 362,220 368,225 362,230 369,227 370,235 371,227 379,230 372,225 379,220 371,224 370,216 369,224" fill="rgb(0,255,44)" />
<polygon points=" 372,206 379,201 371,204 370,196 369,204 362,201 368,206 362,211 369,207 370,216 371,207 379,211 372,206" fill="rgb(0,255,44)" />
<polygon points=" 388,217 396,220 389,216 396,211 388,214 387,206 386,214 379,211 385,216 379,220 386,217 387,225 388,217" fill="rgb(0,255,44)" />
<polygon points=" 386,237 387,245 388,237 396,240 389,235 396,230 388,233 387,225 386,233 379,230 385,235 379,240 386,237" fill="rgb(0,255,44)" />
<polygon points=" 368,245 362,250 369,247 370,255 371,247 379,250 372,245 379,240 371,243 370,235 369,243 362,240 368,245" fill="rgb(0,255,44)" />
<polygon points=" 352,233 345,230 351,235 345,240 352,237 353,245 354,237 362,240 355,235 362,230 354,233 353,225 352,233" fill="rgb(0,255,44)" />
<polygon points=" 354,214 353,206 352,214 345,211 351,216 345,220 352,217 353,225 354,217 362,220 355,216 362,211 354,214" fill="rgb(0,255,44)" />
<polygon points=" 371,165 370,157 369,165 362,162 368,167 362,172 369,168 370,176 371,168 379,172 372,167 379,162 371,165" fill="rgb(0,255,44)" />
<polygon points=" 372,147 379,142 371,145 370,137 369,145 362,142 368,147 362,152 369,149 370,157 371,149 379,152 372,147" fill="rgb(0,255,44)" />
<polygon points=" 388,159 396,162 389,157 396,152 388,155 387,147 386,155 379,152 385,157 379,162 386,159 387,167 388,159" fill="rgb(0,255,44)" />
<polygon points=" 386,178 387,186 388,178 396,181 389,176 396,172 388,175 387,167 386,175 379,172 385,176 379,181 386,178" fill="rgb(0,255,44)" />
<polygon points=" 368,186 362,191 369,188 370,196 371,188 379,191 372,186 379,181 371,185 370,176 369,185 362,181 368,186" fill="rgb(0,255,44)" />
<polygon points=" 352,175 345,172 351,176 345,181 352,178 353,186 354,178 362,181 355,176 362,172 354,175 353,167 352,175" fill="rgb(0,255,44)" />
<polygon points=" 354,155 353,147 352,155 345,152 351,157 345,162 352,159 353,167 354,159 362,162 355,157 362,152 354,155" fill="rgb(0,255,44)" />
<polygon points=" 420,374 421,382 422,374 430,377 423,372 430,367 422,370 421,362 420,370 413,367 419,372 413,377 420,374" fill="rgb(0,255,44)" />
<polygon points=" 423,352 430,348 422,351 421,343 420,351 413,348 419,352 413,357 420,354 421,362 422,354 430,357 423,352" fill="rgb(0,255,44)" />
<polygon points=" 439,364 446,367 440,362 446,357 439,361 438,352 437,361 430,357 436,362 430,367 437,364 438,372 439,364" fill="rgb(0,255,44)" />
<polygon points=" 437,383 438,392 439,383 446,387 440,382 446,377 439,380 438,372 437,380 430,377 436,382 430,387 437,383" fill="rgb(0,255,44)" />
<polygon points=" 419,392 413,396 420,393 421,401 422,393 430,396 423,392 430,387 422,390 421,382 420,390 413,387 419,392" fill="rgb(0,255,44)" />
<polygon points=" 403,380 396,377 402,382 396,387 403,383 404,392 405,383 413,387 406,382 413,377 405,380 404,372 403,380" fill="rgb(0,255,44)" />
<polygon points=" 405,361 404,352 403,361 396,357 402,362 396,367 403,364 404,372 405,364 413,367 406,362 413,357 405,361" fill="rgb(0,255,44)" />
<polygon points=" 423,313 430,308 422,312 421,304 420,312 413,308 419,313 413,318 420,315 421,323 422,315 430,318 423,313" fill="rgb(0,255,44)" />
<polygon points=" 423,294 430,289 422,292 421,284 420,292 413,289 419,294 413,299 420,295 421,304 422,295 430,299 423,294" fill="rgb(0,255,44)" />
<polygon points=" 439,305 446,308 440,304 446,299 439,302 438,294 437,302 430,299 436,304 430,308 437,305 438,313 439,305" fill="rgb(0,255,44)" />
<polygon points=" 437,325 438,333 439,325 446,328 440,323 446,318 439,321 438,313 437,321 430,318 436,323 430,328 437,325" fill="rgb(0,255,44)" />
<polygon points=" 419,333 413,338 420,335 421,343 422,335 430,338 423,333 430,328 422,331 421,323 420,331 413,328 419,333" fill="rgb(0,255,44)" />
<polygon points=" 403,321 396,318 402,323 396,328 403,325 404,333 405,325 413,328 406,323 413,318 405,321 404,313 403,321" fill="rgb(0,255,44)" />
<polygon points=" 405,302 404,294 403,302 396,299 402,304 396,308 403,305 404,313 405,305 413,308 406,304 413,299 405,302" fill="rgb(0,255,44)" />
<polygon points=" 473,344 480,348 474,343 480,338 473,341 472,333 471,341 463,338 470,343 463,348 471,344 472,352 473,344" fill="rgb(0,255,44)" />
<polygon points=" 474,323 480,318 473,321 472,313 471,321 463,318 470,323 463,328 471,325 472,333 473,325 480,328 474,323" fill="rgb(0,255,44)" />
<polygon points=" 490,335 497,338 491,333 497,328 490,331 489,323 488,331 480,328 487,333 480,338 488,335 489,343 490,335" fill="rgb(0,255,44)" />
<polygon points=" 488,354 489,362 490,354 497,357 491,352 497,348 490,351 489,343 488,351 480,348 487,352 480,357 488,354" fill="rgb(0,255,44)" />
<polygon points=" 470,362 463,367 471,364 472,372 473,364 480,367 474,362 480,357 473,361 472,352 471,361 463,357 470,362" fill="rgb(0,255,44)" />
<polygon points=" 454,351 446,348 453,352 446,357 454,354 455,362 456,354 463,357 457,352 463,348 456,351 455,343 454,351" fill="rgb(0,255,44)" />
<polygon points=" 456,331 455,323 454,331 446,328 453,333 446,338 454,335 455,343 456,335 463,338 457,333 463,328 456,331" fill="rgb(0,255,44)" />
<polygon points=" 471,403 472,411 473,403 480,406 474,401 480,396 473,400 472,392 471,400 463,396 470,401 463,406 471,403" fill="rgb(0,255,44)" />
<polygon points=" 474,382 480,377 473,380 472,372 471,380 463,377 470,382 463,387 471,383 472,392 473,383 480,387 474,382" fill="rgb(0,255,44)" />
<polygon points=" 490,393 497,396 491,392 497,387 490,390 489,382 488,390 480,387 487,392 480,396 488,393 489,401 490,393" fill="rgb(0,255,44)" />
<polygon points=" 488,413 489,421 490,413 497,416 491,411 497,406 490,409 489,401 488,409 480,406 487,411 480,416 488,413" fill="rgb(0,255,44)" />
<polygon points=" 470,421 463,426 471,423 472,431 473,423 480,426 474,421 480,416 473,419 472,411 471,419 463,416 470,421" fill="rgb(0,255,44)" />
<polygon points=" 454,409 446,406 453,411 446,416 454,413 455,421 456,413 463,416 457,411 463,406 456,409 455,401 454,409" fill="rgb(0,255,44)" />
<polygon points=" 456,390 455,382 454,390 446,387 453,392 446,396 454,393 455,401 456,393 463,396 457,392 463,387 456,390" fill="rgb(0,255,44)" />
<polygon points=" 419,431 413,436 420,432 421,440 422,432 430,436 423,431 430,426 422,429 421,421 420,429 413,426 419,431" fill="rgb(0,255,44)" />
<polygon points=" 423,411 430,406 422,409 421,401 420,409 413,406 419,411 413,416 420,413 421,421 422,413 430,416 423,411" fill="rgb(0,255,44)" />
<polygon points=" 439,423 446,426 440,421 446,416 439,419 438,411 437,419 430,416 436,421 430,426 437,423 438,431 439,423" fill="rgb(0,255,44)" />
<polygon points=" 437,442 438,450 439,442 446,445 440,440 446,436 439,439 438,431 437,439 430,436 436,440 430,445 437,442" fill="rgb(0,255,44)" />
<polygon points=" 419,450 413,455 420,452 421,460 422,452 430,455 423,450 430,445 422,449 421,440 420,449 413,445 419,450" fill="rgb(0,255,44)" />
<polygon points=" 403,439 396,436 402,440 396,445 403,442 404,450 405,442 413,445 406,440 413,436 405,439 404,431 403,439" fill="rgb(0,255,44)" />
<polygon points=" 405,419 404,411 403,419 396,416 402,421 396,426 403,423 404,431 405,423 413,426 406,421 413,416 405,419" fill="rgb(0,255,44)" />
<polygon points=" 369,400 362,396 368,401 362,406 369,403 370,411 371,403 379,406 372,401 379,396 371,400 370,392 369,400" fill="rgb(0,255,44)" />
<polygon points=" 372,382 379,377 371,380 370,372 369,380 362,377 368,382 362,387 369,383 370,392 371,383 379,387 372,382" fill="rgb(0,255,44)" />
<polygon points=" 388,393 396,396 389,392 396,387 388,390 387,382 386,390 379,387 385,392 379,396 386,393 387,401 388,393" fill="rgb(0,255,44)" />
<polygon points=" 386,413 387,421 388,413 396,416 389,411 396,406 388,409 387,401 386,409 379,406 385,411 379,416 386,413" fill="rgb(0,255,44)" />
<polygon points=" 368,421 362,426 369,423 370,431 371,423 379,426 372,421 379,416 371,419 370,411 369,419 362,416 368,421" fill="rgb(0,255,44)" />
<polygon points=" 352,409 345,406 351,411 345,416 352,413 353,421 354,413 362,416 355,411 362,406 354,409 353,401 352,409" fill="rgb(0,255,44)" />
<polygon points=" 354,390 353,382 352,390 345,387 351,392 345,396 352,393 353,401 354,393 362,396 355,392 362,387 354,390" fill="rgb(0,255,44)" />
<polygon points=" 371,341 370,333 369,341 362,338 368,343 362,348 369,344 370,352 371,344 379,348 372,343 379,338 371,341" fill="rgb(0,255,44)" />
<polygon points=" 372,323 379,318 371,321 370,313 369,321 362,318 368,323 362,328 369,325 370,333 371,325 379,328 372,323" fill="rgb(0,255,44)" />
<polygon points=" 388,335 396,338 389,333 396,328 388,331 387,323 386,331 379,328 385,333 379,338 386,335 387,343 388,335" fill="rgb(0,255,44)" />
<polygon points=" 386,354 387,362 388,354 396,357 389,352 396,348 388,351 387,343 386,351 379,348 385,352 379,357 386,354" fill="rgb(0,255,44)" />
<polygon points=" 368,362 362,367 369,364 370,372 371,364 379,367 372,362 379,357 371,361 370,352 369,361 362,357 368,362" fill="rgb(0,255,44)" />
<polygon points=" 352,351 345,348 351,352 345,357 352,354 353,362 354,354 362,357 355,352 362,348 354,351 353,343 352,351" fill="rgb(0,255,44)" />
<polygon points=" 354,331 353,323 352,331 345,328 351,333 345,338 352,335 353,343 354,335 362,338 355,333 362,328 354,331" fill="rgb(0,255,44)" />
<polygon points=" 267,460 260,465 268,462 269,470 270,462 277,465 271,460 277,455 270,458 269,450 268,458 260,455 267,460" fill="rgb(0,255,44)" />
<polygon points=" 271,440 277,436 270,439 269,431 268,439 260,436 267,440 260,445 268,442 269,450 270,442 277,445 271,440" fill="rgb(0,255,44)" />
<polygon points=" 287,452 294,455 288,450 294,445 287,449 286,440 285,449 277,445 284,450 277,455 285,452 286,460 287,452" fill="rgb(0,255,44)" />
<polygon points=" 285,471 286,480 287,471 294,475 288,470 294,465 287,468 286,460 285,468 277,465 284,470 277,475 285,471" fill="rgb(0,255,44)" />
<polygon points=" 267,480 260,484 268,481 269,489 270,481 277,484 271,480 277,475 270,478 269,470 268,478 260,475 267,480" fill="rgb(0,255,44)" />
<polygon points=" 251,468 243,465 250,470 243,475 251,471 252,480 253,471 260,475 254,470 260,465 253,468 252,460 251,468" fill="rgb(0,255,44)" />
<polygon points=" 253,449 252,440 251,449 243,445 250,450 243,455 251,452 252,460 253,452 260,455 254,450 260,445 253,449" fill="rgb(0,255,44)" />
<polygon points=" 271,401 277,396 270,400 269,392 268,400 260,396 267,401 260,406 268,403 269,411 270,403 277,406 271,401" fill="rgb(0,255,44)" />
<polygon points=" 271,382 277,377 270,380 269,372 268,380 260,377 267,382 260,387 268,383 269,392 270,383 277,387 271,382" fill="rgb(0,255,44)" />
<polygon points=" 287,393 294,396 288,392 294,387 287,390 286,382 285,390 277,387 284,392 277,396 285,393 286,401 287,393" fill="rgb(0,255,44)" />
<polygon points=" 285,413 286,421 287,413 294,416 288,411 294,406 287,409 286,401 285,409 277,406 284,411 277,416 285,413" fill="rgb(0,255,44)" />
<polygon points=" 267,421 260,426 268,423 269,431 270,423 277,426 271,421 277,416 270,419 269,411 268,419 260,416 267,421" fill="rgb(0,255,44)" />
<polygon points=" 251,409 243,406 250,411 243,416 251,413 252,421 253,413 260,416 254,411 260,406 253,409 252,401 251,409" fill="rgb(0,255,44)" />
<polygon points=" 253,390 252,382 251,390 243,387 250,392 243,396 251,393 252,401 253,393 260,396 254,392 260,387 253,390" fill="rgb(0,255,44)" />
<polygon points=" 320,432 328,436 321,431 328,426 320,429 319,421 318,429 311,426 317,431 311,436 318,432 319,440 320,432" fill="rgb(0,255,44)" />
<polygon points=" 321,411 328,406 320,409 319,401 318,409 311,406 317,411 311,416 318,413 319,421 320,413 328,416 321,411" fill="rgb(0,255,44)" />
<polygon points=" 337,423 345,426 338,421 345,416 337,419 336,411 335,419 328,416 334,421 328,426 335,423 336,431 337,423" fill="rgb(0,255,44)" />
<polygon points=" 335,442 336,450 337,442 345,445 338,440 345,436 337,439 336,431 335,439 328,436 334,440 328,445 335,442" fill="rgb(0,255,44)" />
<polygon points=" 317,450 311,455 318,452 319,460 320,452 328,455 321,450 328,445 320,449 319,440 318,449 311,445 317,450" fill="rgb(0,255,44)" />
<polygon points=" 302,439 294,436 301,440 294,445 302,442 303,450 303,442 311,445 304,440 311,436 303,439 303,431 302,439" fill="rgb(0,255,44)" />
<polygon points=" 303,419 303,411 302,419 294,416 301,421 294,426 302,423 303,431 303,423 311,426 304,421 311,416 303,419" fill="rgb(0,255,44)" />
<polygon points=" 318,491 319,499 320,491 328,494 321,489 328,484 320,488 319,480 318,488 311,484 317,489 311,494 318,491" fill="rgb(0,255,44)" />
<polygon points=" 321,470 328,465 320,468 319,460 318,468 311,465 317,470 311,475 318,471 319,480 320,471 328,475 321,470" fill="rgb(0,255,44)" />
<polygon points=" 337,481 345,484 338,480 345,475 337,478 336,470 335,478 328,475 334,480 328,484 335,481 336,489 337,481" fill="rgb(0,255,44)" />
<polygon points=" 335,501 336,509 337,501 345,504 338,499 345,494 337,497 336,489 335,497 328,494 334,499 328,504 335,501" fill="rgb(0,255,44)" />
<polygon points=" 317,509 311,514 318,511 319,519 320,511 328,514 321,509 328,504 320,507 319,499 318,507 311,504 317,509" fill="rgb(0,255,44)" />
<polygon points=" 302,497 294,494 301,499 294,504 302,501 303,509 303,501 311,504 304,499 311,494 303,497 303,489 302,497" fill="rgb(0,255,44)" />
<polygon points=" 303,478 303,470 302,478 294,475 301,480 294,484 302,481 303,489 303,481 311,484 304,480 311,475 303,478" fill="rgb(0,255,44)" />
<polygon points=" 267,519 260,524 268,520 269,528 270,520 277,524 271,519 277,514 270,517 269,509 268,517 260,514 267,519" fill="rgb(0,255,44)" />
<polygon points=" 271,499 277,494 270,497 269,489 268,497 260,494 267,499 260,504 268,501 269,509 270,501 277,504 271,499" fill="rgb(0,255,44)" />
<polygon points=" 287,511 294,514 288,509 294,504 287,507 286,499 285,507 277,504 284,509 277,514 285,511 286,519 287,511" fill="rgb(0,255,44)" />
<polygon points=" 285,530 286,538 287,530 294,533 288,528 294,524 287,527 286,519 285,527 277,524 284,528 277,533 285,530" fill="rgb(0,255,44)" />
<polygon points=" 267,538 260,543 268,540 269,548 270,540 277,543 271,538 277,533 270,537 269,528 268,537 260,533 267,538" fill="rgb(0,255,44)" />
<polygon points=" 251,527 243,524 250,528 243,533 251,530 252,538 253,530 260,533 254,528 260,524 253,527 252,519 251,527" fill="rgb(0,255,44)" />
<polygon points=" 253,507 252,499 251,507 243,504 250,509 243,514 251,511 252,519 253,511 260,514 254,509 260,504 253,507" fill="rgb(0,255,44)" />
<polygon points=" 217,488 209,484 216,489 209,494 217,491 218,499 219,491 226,494 220,489 226,484 219,488 218,480 217,488" fill="rgb(0,255,44)" />
<polygon points=" 220,470 226,465 219,468 218,460 217,468 209,465 216,470 209,475 217,471 218,480 219,471 226,475 220,470" fill="rgb(0,255,44)" />
<polygon points=" 236,481 243,484 237,480 243,475 236,478 235,470 234,478 226,475 233,480 226,484 234,481 235,489 236,481" fill="rgb(0,255,44)" />
<polygon points=" 234,501 235,509 236,501 243,504 237,499 243,494 236,497 235,489 234,497 226,494 233,499 226,504 234,501" fill="rgb(0,255,44)" />
<polygon points=" 216,509 209,514 217,511 218,519 219,511 226,514 220,509 226,504 219,507 218,499 217,507 209,504 216,509" fill="rgb(0,255,44)" />
<polygon points=" 200,497 192,494 199,499 192,504 200,501 201,509 202,501 209,504 203,499 209,494 202,497 201,489 200,497" fill="rgb(0,255,44)" />
<polygon points=" 202,478 201,470 200,478 192,475 199,480 192,484 200,481 201,489 202,481 209,484 203,480 209,475 202,478" fill="rgb(0,255,44)" />
<polygon points=" 219,429 218,421 217,429 209,426 216,431 209,436 217,432 218,440 219,432 226,436 220,431 226,426 219,429" fill="rgb(0,255,44)" />
<polygon points=" 220,411 226,406 219,409 218,401 217,409 209,406 216,411 209,416 217,413 218,421 219,413 226,416 220,411" fill="rgb(0,255,44)" />
<polygon points=" 236,423 243,426 237,421 243,416 236,419 235,411 234,419 226,416 233,421 226,426 234,423 235,431 236,423" fill="rgb(0,255,44)" />
<polygon points=" 234,442 235,450 236,442 243,445 237,440 243,436 236,439 235,431 234,439 226,436 233,440 226,445 234,442" fill="rgb(0,255,44)" />
<polygon points=" 216,450 209,455 217,452 218,460 219,452 226,455 220,450 226,445 219,449 218,440 217,449 209,445 216,450" fill="rgb(0,255,44)" />
<polygon points=" 200,439 192,436 199,440 192,445 200,442 201,450 202,442 209,445 203,440 209,436 202,439 201,431 200,439" fill="rgb(0,255,44)" />
<polygon points=" 202,419 201,411 200,419 192,416 199,421 192,426 200,423 201,431 202,423 209,426 203,421 209,416 202,419" fill="rgb(0,255,44)" />
<polygon points=" 115,370 108,367 114,372 108,377 115,374 116,382 117,374 125,377 118,372 125,367 117,370 116,362 115,370" fill="rgb(0,255,44)" />
<polygon points=" 118,352 125,348 117,351 116,343 115,351 108,348 114,352 108,357 115,354 116,362 117,354 125,357 118,352" fill="rgb(0,255,44)" />
<polygon points=" 134,364 142,367 135,362 142,357 134,361 133,352 132,361 125,357 131,362 125,367 132,364 133,372 134,364" fill="rgb(0,255,44)" />
<polygon points=" 132,383 133,392 134,383 142,387 135,382 142,377 134,380 133,372 132,380 125,377 131,382 125,387 132,383" fill="rgb(0,255,44)" />
<polygon points=" 114,392 108,396 115,393 116,401 117,393 125,396 118,392 125,387 117,390 116,382 115,390 108,387 114,392" fill="rgb(0,255,44)" />
<polygon points=" 98,380 91,377 97,382 91,387 98,383 99,392 100,383 108,387 101,382 108,377 100,380 99,372 98,380" fill="rgb(0,255,44)" />
<polygon points=" 100,361 99,352 98,361 91,357 97,362 91,367 98,364 99,372 100,364 108,367 101,362 108,357 100,361" fill="rgb(0,255,44)" />
<polygon points=" 118,313 125,308 117,312 116,304 115,312 108,308 114,313 108,318 115,315 116,323 117,315 125,318 118,313" fill="rgb(0,255,44)" />
<polygon points=" 118,294 125,289 117,292 116,284 115,292 108,289 114,294 108,299 115,295 116,304 117,295 125,299 118,294" fill="rgb(0,255,44)" />
<polygon points=" 134,305 142,308 135,304 142,299 134,302 133,294 132,302 125,299 131,304 125,308 132,305 133,313 134,305" fill="rgb(0,255,44)" />
<polygon points=" 132,325 133,333 134,325 142,328 135,323 142,318 134,321 133,313 132,321 125,318 131,323 125,328 132,325" fill="rgb(0,255,44)" />
<polygon points=" 114,333 108,338 115,335 116,343 117,335 125,338 118,333 125,328 117,331 116,323 115,331 108,328 114,333" fill="rgb(0,255,44)" />
<polygon points=" 98,321 91,318 97,323 91,328 98,325 99,333 100,325 108,328 101,323 108,318 100,321 99,313 98,321" fill="rgb(0,255,44)" />
<polygon points=" 100,302 99,294 98,302 91,299 97,304 91,308 98,305 99,313 100,305 108,308 101,304 108,299 100,302" fill="rgb(0,255,44)" />
<polygon points=" 168,344 175,348 169,343 175,338 168,341 167,333 166,341 159,338 165,343 159,348 166,344 167,352 168,344" fill="rgb(0,255,44)" />
<polygon points=" 169,323 175,318 168,321 167,313 166,321 159,318 165,323 159,328 166,325 167,333 168,325 175,328 169,323" fill="rgb(0,255,44)" />
<polygon points=" 185,335 192,338 186,333 192,328 185,331 184,323 183,331 175,328 182,333 175,338 183,335 184,343 185,335" fill="rgb(0,255,44)" />
<polygon points=" 183,354 184,362 185,354 192,357 186,352 192,348 185,351 184,343 183,351 175,348 182,352 175,357 183,354" fill="rgb(0,255,44)" />
<polygon points=" 165,362 159,367 166,364 167,372 168,364 175,367 169,362 175,357 168,361 167,352 166,361 159,357 165,362" fill="rgb(0,255,44)" />
<polygon points=" 149,351 142,348 148,352 142,357 149,354 150,362 151,354 159,357 152,352 159,348 151,351 150,343 149,351" fill="rgb(0,255,44)" />
<polygon points=" 151,331 150,323 149,331 142,328 148,333 142,338 149,335 150,343 151,335 159,338 152,333 159,328 151,331" fill="rgb(0,255,44)" />
<polygon points=" 166,403 167,411 168,403 175,406 169,401 175,396 168,400 167,392 166,400 159,396 165,401 159,406 166,403" fill="rgb(0,255,44)" />
<polygon points=" 169,382 175,377 168,380 167,372 166,380 159,377 165,382 159,387 166,383 167,392 168,383 175,387 169,382" fill="rgb(0,255,44)" />
<polygon points=" 185,393 192,396 186,392 192,387 185,390 184,382 183,390 175,387 182,392 175,396 183,393 184,401 185,393" fill="rgb(0,255,44)" />
<polygon points=" 183,413 184,421 185,413 192,416 186,411 192,406 185,409 184,401 183,409 175,406 182,411 175,416 183,413" fill="rgb(0,255,44)" />
<polygon points=" 165,421 159,426 166,423 167,431 168,423 175,426 169,421 175,416 168,419 167,411 166,419 159,416 165,421" fill="rgb(0,255,44)" />
<polygon points=" 149,409 142,406 148,411 142,416 149,413 150,421 151,413 159,416 152,411 159,406 151,409 150,401 149,409" fill="rgb(0,255,44)" />
<polygon points=" 151,390 150,382 149,390 142,387 148,392 142,396 149,393 150,401 151,393 159,396 152,392 159,387 151,390" fill="rgb(0,255,44)" />
<polygon points=" 114,431 108,436 115,432 116,440 117,432 125,436 118,431 125,426 117,429 116,421 115,429 108,426 114,431" fill="rgb(0,255,44)" />
<polygon points=" 118,411 125,406 117,409 116,401 115,409 108,406 114,411 108,416 115,413 116,421 117,413 125,416 118,411" fill="rgb(0,255,44)" />
<polygon points=" 134,423 142,426 135,421 142,416 134,419 133,411 132,419 125,416 131,421 125,426 132,423 133,431 134,423" fill="rgb(0,255,44)" />
<polygon points=" 132,442 133,450 134,442 142,445 135,440 142,436 134,439 133,431 132,439 125,436 131,440 125,445 132,442" fill="rgb(0,255,44)" />
<polygon points=" 114,450 108,455 115,452 116,460 117,452 125,455 118,450 125,445 117,449 116,440 115,449 108,445 114,450" fill="rgb(0,255,44)" />
<polygon points=" 98,439 91,436 97,440 91,445 98,442 99,450 100,442 108,445 101,440 108,436 100,439 99,431 98,439" fill="rgb(0,255,44)" />
<polygon points=" 100,419 99,411 98,419 91,416 97,421 91,426 98,423 99,431 100,423 108,426 101,421 108,416 100,419" fill="rgb(0,255,44)" />
<polygon points=" 64,400 57,396 63,401 57,406 64,403 65,411 66,403 74,406 67,401 74,396 66,400 65,392 64,400" fill="rgb(0,255,44)" />
<polygon points=" 67,382 74,377 66,380 65,372 64,380 57,377 63,382 57,387 64,383 65,392 66,383 74,387 67,382" fill="rgb(0,255,44)" />
<polygon points=" 83,393 91,396 84,392 91,387 83,390 82,382 81,390 74,387 80,392 74,396 81,393 82,401 83,393" fill="rgb(0,255,44)" />
<polygon points=" 81,413 82,421 83,413 91,416 84,411 91,406 83,409 82,401 81,409 74,406 80,411 74,416 81,413" fill="rgb(0,255,44)" />
<polygon points=" 63,421 57,426 64,423 65,431 66,423 74,426 67,421 74,416 66,419 65,411 64,419 57,416 63,421" fill="rgb(0,255,44)" />
<polygon points=" 47,409 40,406 47,411 40,416 47,413 48,421 49,413 57,416 50,411 57,406 49,409 48,401 47,409" fill="rgb(0,255,44)" />
<polygon points=" 49,390 48,382 47,390 40,387 47,392 40,396 47,393 48,401 49,393 57,396 50,392 57,387 49,390" fill="rgb(0,255,44)" />
<polygon points=" 66,341 65,333 64,341 57,338 63,343 57,348 64,344 65,352 66,344 74,348 67,343 74,338 66,341" fill="rgb(0,255,44)" />
<polygon points=" 67,323 74,318 66,321 65,313 64,321 57,318 63,323 57,328 64,325 65,333 66,325 74,328 67,323" fill="rgb(0,255,44)" />
<polygon points=" 83,335 91,338 84,333 91,328 83,331 82,323 81,331 74,328 80,333 74,338 81,335 82,343 83,335" fill="rgb(0,255,44)" />
<polygon points=" 81,354 82,362 83,354 91,357 84,352 91,348 83,351 82,343 81,351 74,348 80,352 74,357 81,354" fill="rgb(0,255,44)" />
<polygon points=" 63,362 57,367 64,364 65,372 66,364 74,367 67,362 74,357 66,361 65,352 64,361 57,357 63,362" fill="rgb(0,255,44)" />
<polygon points=" 47,351 40,348 47,352 40,357 47,354 48,362 49,354 57,357 50,352 57,348 49,351 48,343 47,351" fill="rgb(0,255,44)" />
<polygon points=" 49,331 48,323 47,331 40,328 47,333 40,338 47,335 48,343 49,335 57,338 50,333 57,328 49,331" fill="rgb(0,255,44)" />
<polygon points=" 117,194 116,186 115,194 108,191 114,196 108,201 115,198 116,206 117,198 125,201 118,196 125,191 117,194" fill="rgb(0,255,44)" />
<polygon points=" 118,176 125,172 117,175 116,167 115,175 108,172 114,176 108,181 115,178 116,186 117,178 125,181 118,176" fill="rgb(0,255,44)" />
<polygon points=" 134,188 142,191 135,186 142,181 134,185 133,176 132,185 125,181 131,186 125,191 132,188 133,196 134,188" fill="rgb(0,255,44)" />
<polygon points=" 132,207 133,216 134,207 142,211 135,206 142,201 134,204 133,196 132,204 125,201 131,206 125,211 132,207" fill="rgb(0,255,44)" />
<polygon points=" 114,216 108,220 115,217 116,225 117,217 125,220 118,216 125,211 117,214 116,206 115,214 108,211 114,216" fill="rgb(0,255,44)" />
<polygon points=" 98,204 91,201 97,206 91,211 98,207 99,216 100,207 108,211 101,206 108,201 100,204 99,196 98,204" fill="rgb(0,255,44)" />
<polygon points=" 100,185 99,176 98,185 91,181 97,186 91,191 98,188 99,196 100,188 108,191 101,186 108,181 100,185" fill="rgb(0,255,44)" />
<polygon points=" 118,137 125,132 117,136 116,128 115,136 108,132 114,137 108,142 115,139 116,147 117,139 125,142 118,137" fill="rgb(0,255,44)" />
<polygon points=" 118,118 125,113 117,116 116,108 115,116 108,113 114,118 108,123 115,119 116,128 117,119 125,123 118,118" fill="rgb(0,255,44)" />
<polygon points=" 134,129 142,132 135,128 142,123 134,126 133,118 132,126 125,123 131,128 125,132 132,129 133,137 134,129" fill="rgb(0,255,44)" />
<polygon points=" 132,149 133,157 134,149 142,152 135,147 142,142 134,145 133,137 132,145 125,142 131,147 125,152 132,149" fill="rgb(0,255,44)" />
<polygon points=" 114,157 108,162 115,159 116,167 117,159 125,162 118,157 125,152 117,155 116,147 115,155 108,152 114,157" fill="rgb(0,255,44)" />
<polygon points=" 98,145 91,142 97,147 91,152 98,149 99,157 100,149 108,152 101,147 108,142 100,145 99,137 98,145" fill="rgb(0,255,44)" />
<polygon points=" 100,126 99,118 98,126 91,123 97,128 91,132 98,129 99,137 100,129 108,132 101,128 108,123 100,126" fill="rgb(0,255,44)" />
<polygon points=" 168,168 175,172 169,167 175,162 168,165 167,157 166,165 159,162 165,167 159,172 166,168 167,176 168,168" fill="rgb(0,255,44)" />
<polygon points=" 169,147 175,142 168,145 167,137 166,145 159,142 165,147 159,152 166,149 167,157 168,149 175,152 169,147" fill="rgb(0,255,44)" />
<polygon points=" 185,159 192,162 186,157 192,152 185,155 184,147 183,155 175,152 182,157 175,162 183,159 184,167 185,159" fill="rgb(0,255,44)" />
<polygon points=" 183,178 184,186 185,178 192,181 186,176 192,172 185,175 184,167 183,175 175,172 182,176 175,181 183,178" fill="rgb(0,255,44)" />
<polygon points=" 165,186 159,191 166,188 167,196 168,188 175,191 169,186 175,181 168,185 167,176 166,185 159,181 165,186" fill="rgb(0,255,44)" />
<polygon points=" 149,175 142,172 148,176 142,181 149,178 150,186 151,178 159,181 152,176 159,172 151,175 150,167 149,175" fill="rgb(0,255,44)" />
<polygon points=" 151,155 150,147 149,155 142,152 148,157 142,162 149,159 150,167 151,159 159,162 152,157 159,152 151,155" fill="rgb(0,255,44)" />
<polygon points=" 166,227 167,235 168,227 175,230 169,225 175,220 168,224 167,216 166,224 159,220 165,225 159,230 166,227" fill="rgb(0,255,44)" />
<polygon points=" 169,206 175,201 168,204 167,196 166,204 159,201 165,206 159,211 166,207 167,216 168,207 175,211 169,206" fill="rgb(0,255,44)" />
<polygon points=" 185,217 192,220 186,216 192,211 185,214 184,206 183,214 175,211 182,216 175,220 183,217 184,225 185,217" fill="rgb(0,255,44)" />
<polygon points=" 183,237 184,245 185,237 192,240 186,235 192,230 185,233 184,225 183,233 175,230 182,235 175,240 183,237" fill="rgb(0,255,44)" />
<polygon points=" 165,245 159,250 166,247 167,255 168,247 175,250 169,245 175,240 168,243 167,235 166,243 159,240 165,245" fill="rgb(0,255,44)" />
<polygon points=" 149,233 142,230 148,235 142,240 149,237 150,245 151,237 159,240 152,235 159,230 151,233 150,225 149,233" fill="rgb(0,255,44)" />
<polygon points=" 151,214 150,206 149,214 142,211 148,216 142,220 149,217 150,225 151,217 159,220 152,216 159,211 151,214" fill="rgb(0,255,44)" />
<polygon points=" 114,255 108,260 115,256 116,264 117,256 125,260 118,255 125,250 117,253 116,245 115,253 108,250 114,255" fill="rgb(0,255,44)" />
<polygon points=" 118,235 125,230 117,233 116,225 115,233 108,230 114,235 108,240 115,237 116,245 117,237 125,240 118,235" fill="rgb(0,255,44)" />
<polygon points=" 134,247 142,250 135,245 142,240 134,243 133,235 132,243 125,240 131,245 125,250 132,247 133,255 134,247" fill="rgb(0,255,44)" />
<polygon points=" 132,266 133,274 134,266 142,269 135,264 142,260 134,263 133,255 132,263 125,260 131,264 125,269 132,266" fill="rgb(0,255,44)" />
<polygon points=" 114,274 108,279 115,276 116,284 117,276 125,279 118,274 125,269 117,273 116,264 115,273 108,269 114,274" fill="rgb(0,255,44)" />
<polygon points=" 98,263 91,260 97,264 91,269 98,266 99,274 100,266 108,269 101,264 108,260 100,263 99,255 98,263" fill="rgb(0,255,44)" />
<polygon points=" 100,243 99,235 98,243 91,240 97,245 91,250 98,247 99,255 100,247 108,250 101,245 108,240 100,243" fill="rgb(0,255,44)" />
<polygon points=" 64,224 57,220 63,225 57,230 64,227 65,235 66,227 74,230 67,225 74,220 66,224 65,216 64,224" fill="rgb(0,255,44)" />
<polygon points=" 67,206 74,201 66,204 65,196 64,204 57,201 63,206 57,211 64,207 65,216 66,207 74,211 67,206" fill="rgb(0,255,44)" />
<polygon points=" 83,217 91,220 84,216 91,211 83,214 82,206 81,214 74,211 80,216 74,220 81,217 82,225 83,217" fill="rgb(0,255,44)" />
<polygon points=" 81,237 82,245 83,237 91,240 84,235 91,230 83,233 82,225 81,233 74,230 80,235 74,240 81,237" fill="rgb(0,255,44)" />
<polygon points=" 63,245 57,250 64,247 65,255 66,247 74,250 67,245 74,240 66,243 65,235 64,243 57,240 63,245" fill="rgb(0,255,44)" />
<polygon points=" 47,233 40,230 47,235 40,240 47,237 48,245 49,237 57,240 50,235 57,230 49,233 48,225 47,233" fill="rgb(0,255,44)" />
<polygon points=" 49,214 48,206 47,214 40,211 47,216 40,220 47,217 48,225 49,217 57,220 50,216 57,211 49,214" fill="rgb(0,255,44)" />
<polygon points=" 66,165 65,157 64,165 57,162 63,167 57,172 64,168 65,176 66,168 74,172 67,167 74,162 66,165" fill="rgb(0,255,44)" />
<polygon points=" 67,147 74,142 66,145 65,137 64,145 57,142 63,147 57,152 64,149 65,157 66,149 74,152 67,147" fill="rgb(0,255,44)" />
<polygon points=" 83,159 91,162 84,157 91,152 83,155 82,147 81,155 74,152 80,157 74,162 81,159 82,167 83,159" fill="rgb(0,255,44)" />
<polygon points=" 81,178 82,186 83,178 91,181 84,176 91,172 83,175 82,167 81,175 74,172 80,176 74,181 81,178" fill="rgb(0,255,44)" />
<polygon points=" 63,186 57,191 64,188 65,196 66,188 74,191 67,186 74,181 66,185 65,176 64,185 57,181 63,186" fill="rgb(0,255,44)" />
<polygon points=" 47,175 40,172 47,176 40,181 47,178 48,186 49,178 57,181 50,176 57,172 49,175 48,167 47,175" fill="rgb(0,255,44)" />
<polygon points=" 49,155 48,147 47,155 40,152 47,157 40,162 47,159 48,167 49,159 57,162 50,157 57,152 49,155" fill="rgb(0,255,44)" /></svg>