<svg xmlns="http://www.w3.org/2000/svg" 
xmlns:xlink="http://www.w3.org/1999/xlink" 
version="1.1" baseProfile="full" 
width="537" height="568" >
<polygon points=" 295,284 497,152 282,261 269,20 255,261 40,152 242,284 40,416 255,307 269,548 282,307 497,416 295,284" fill="rgb(255,0,0)" />
<polygon points=" 277,284 345,240 273,276 269,196 264,276 192,240 260,284 192,328 264,292 269,372 273,292 345,328 277,284" fill="rgb(128,0,255)" />
<polygon points=" 277,108 345,64 273,100 269,20 264,100 192,64 260,108 192,152 264,116 269,196 273,116 345,152 277,108" fill="rgb(128,0,255)" />
<polygon points=" 425,204 497,240 430,196 497,152 425,188 421,108 417,188 345,152 412,196 345,240 417,204 421,284 425,204" fill="rgb(128,0,255)" />
<polygon points=" 417,380 421,460 425,380 497,416 430,372 497,328 425,364 421,284 417,364 345,328 412,372 345,416 417,380" fill="rgb(128,0,255)" />
<polygon points=" 260,460 192,504 264,468 269,548 273,468 345,504 277,460 345,416 273,452 269,372 264,452 192,416 260,460" fill="rgb(128,0,255)" />
<polygon points=" 112,364 40,328 107,372 40,416 112,380 116,460 121,380 192,416 125,372 192,328 121,364 116,284 112,364" fill="rgb(128,0,255)" />
<polygon points=" 121,188 116,108 112,188 40,152 107,196 40,240 112,204 116,284 121,204 192,240 125,196 192,152 121,188" fill="rgb(128,0,255)" />
<polygon points=" 272,284 294,269 270,281 269,255 267,281 243,269 266,284 243,299 267,287 269,313 270,287 294,299 272,284" fill="rgb(0,254,255)" />
<polygon points=" 272,225 294,211 270,223 269,196 267,223 243,211 266,225 243,240 267,228 269,255 270,228 294,240 272,225" fill="rgb(0,254,255)" />
<polygon points=" 321,257 345,269 322,255 345,240 321,252 319,225 318,252 294,240 317,255 294,269 318,257 319,284 321,257" fill="rgb(0,254,255)" />
<polygon points=" 318,316 319,343 321,316 345,328 322,313 345,299 321,311 319,284 318,311 294,299 317,313 294,328 318,316" fill="rgb(0,254,255)" />
<polygon points=" 266,343 243,357 267,345 269,372 270,345 294,357 272,343 294,328 270,340 269,313 267,340 243,328 266,343" fill="rgb(0,254,255)" />
<polygon points=" 216,311 192,299 215,313 192,328 216,316 218,343 219,316 243,328 221,313 243,299 219,311 218,284 216,311" fill="rgb(0,254,255)" />
<polygon points=" 219,252 218,225 216,252 192,240 215,255 192,269 216,257 218,284 219,257 243,269 221,255 243,240 219,252" fill="rgb(0,254,255)" />
<polygon points=" 272,108 294,93 270,105 269,79 267,105 243,93 266,108 243,123 267,111 269,137 270,111 294,123 272,108" fill="rgb(0,254,255)" />
<polygon points=" 272,49 294,35 270,47 269,20 267,47 243,35 266,49 243,64 267,52 269,79 270,52 294,64 272,49" fill="rgb(0,254,255)" />
<polygon points=" 321,81 345,93 322,79 345,64 321,76 319,49 318,76 294,64 317,79 294,93 318,81 319,108 321,81" fill="rgb(0,254,255)" />
<polygon points=" 318,140 319,167 321,140 345,152 322,137 345,123 321,135 319,108 318,135 294,123 317,137 294,152 318,140" fill="rgb(0,254,255)" />
<polygon points=" 266,167 243,181 267,169 269,196 270,169 294,181 272,167 294,152 270,164 269,137 267,164 243,152 266,167" fill="rgb(0,254,255)" />
<polygon points=" 216,135 192,123 215,137 192,152 216,140 218,167 219,140 243,152 221,137 243,123 219,135 218,108 216,135" fill="rgb(0,254,255)" />
<polygon points=" 219,76 218,49 216,76 192,64 215,79 192,93 216,81 218,108 219,81 243,93 221,79 243,64 219,76" fill="rgb(0,254,255)" />
<polygon points=" 423,199 446,211 424,196 446,181 423,193 421,167 420,193 396,181 418,196 396,211 420,199 421,225 423,199" fill="rgb(0,254,255)" />
<polygon points=" 424,137 446,123 423,135 421,108 420,135 396,123 418,137 396,152 420,140 421,167 423,140 446,152 424,137" fill="rgb(0,254,255)" />
<polygon points=" 473,169 497,181 475,167 497,152 473,164 472,137 470,164 446,152 469,167 446,181 470,169 472,196 473,169" fill="rgb(0,254,255)" />
<polygon points=" 470,228 472,255 473,228 497,240 475,225 497,211 473,223 472,196 470,223 446,211 469,225 446,240 470,228" fill="rgb(0,254,255)" />
<polygon points=" 418,255 396,269 420,257 421,284 423,257 446,269 424,255 446,240 423,252 421,225 420,252 396,240 418,255" fill="rgb(0,254,255)" />
<polygon points=" 369,223 345,211 367,225 345,240 369,228 370,255 372,228 396,240 373,225 396,211 372,223 370,196 369,223" fill="rgb(0,254,255)" />
<polygon points=" 372,164 370,137 369,164 345,152 367,167 345,181 369,169 370,196 372,169 396,181 373,167 396,152 372,164" fill="rgb(0,254,255)" />
<polygon points=" 420,375 421,401 423,375 446,387 424,372 446,357 423,369 421,343 420,369 396,357 418,372 396,387 420,375" fill="rgb(0,254,255)" />
<polygon points=" 424,313 446,299 423,311 421,284 420,311 396,299 418,313 396,328 420,316 421,343 423,316 446,328 424,313" fill="rgb(0,254,255)" />
<polygon points=" 473,345 497,357 475,343 497,328 473,340 472,313 470,340 446,328 469,343 446,357 470,345 472,372 473,345" fill="rgb(0,254,255)" />
<polygon points=" 470,404 472,431 473,404 497,416 475,401 497,387 473,399 472,372 470,399 446,387 469,401 446,416 470,404" fill="rgb(0,254,255)" />
<polygon points=" 418,431 396,445 420,433 421,460 423,433 446,445 424,431 446,416 423,428 421,401 420,428 396,416 418,431" fill="rgb(0,254,255)" />
<polygon points=" 369,399 345,387 367,401 345,416 369,404 370,431 372,404 396,416 373,401 396,387 372,399 370,372 369,399" fill="rgb(0,254,255)" />
<polygon points=" 372,340 370,313 369,340 345,328 367,343 345,357 369,345 370,372 372,345 396,357 373,343 396,328 372,340" fill="rgb(0,254,255)" />
<polygon points=" 266,460 243,475 267,463 269,489 270,463 294,475 272,460 294,445 270,457 269,431 267,457 243,445 266,460" fill="rgb(0,254,255)" />
<polygon points=" 272,401 294,387 270,399 269,372 267,399 243,387 266,401 243,416 267,404 269,431 270,404 294,416 272,401" fill="rgb(0,254,255)" />
<polygon points=" 321,433 345,445 322,431 345,416 321,428 319,401 318,428 294,416 317,431 294,445 318,433 319,460 321,433" fill="rgb(0,254,255)" />
<polygon points=" 318,492 319,519 321,492 345,504 322,489 345,475 321,487 319,460 318,487 294,475 317,489 294,504 318,492" fill="rgb(0,254,255)" />
<polygon points=" 266,519 243,533 267,521 269,548 270,521 294,533 272,519 294,504 270,516 269,489 267,516 243,504 266,519" fill="rgb(0,254,255)" />
<polygon points=" 216,487 192,475 215,489 192,504 216,492 218,519 219,492 243,504 221,489 243,475 219,487 218,460 216,487" fill="rgb(0,254,255)" />
<polygon points=" 219,428 218,401 216,428 192,416 215,431 192,445 216,433 218,460 219,433 243,445 221,431 243,416 219,428" fill="rgb(0,254,255)" />
<polygon points=" 115,369 91,357 113,372 91,387 115,375 116,401 118,375 142,387 119,372 142,357 118,369 116,343 115,369" fill="rgb(0,254,255)" />
<polygon points=" 119,313 142,299 118,311 116,284 115,311 91,299 113,313 91,328 115,316 116,343 118,316 142,328 119,313" fill="rgb(0,254,255)" />
<polygon points=" 168,345 192,357 170,343 192,328 168,340 167,313 166,340 142,328 164,343 142,357 166,345 167,372 168,345" fill="rgb(0,254,255)" />
<polygon points=" 166,404 167,431 168,404 192,416 170,401 192,387 168,399 167,372 166,399 142,387 164,401 142,416 166,404" fill="rgb(0,254,255)" />
<polygon points=" 113,431 91,445 115,433 116,460 118,433 142,445 119,431 142,416 118,428 116,401 115,428 91,416 113,431" fill="rgb(0,254,255)" />
<polygon points=" 64,399 40,387 62,401 40,416 64,404 65,431 67,404 91,416 68,401 91,387 67,399 65,372 64,399" fill="rgb(0,254,255)" />
<polygon points=" 67,340 65,313 64,340 40,328 62,343 40,357 64,345 65,372 67,345 91,357 68,343 91,328 67,340" fill="rgb(0,254,255)" />
<polygon points=" 118,193 116,167 115,193 91,181 113,196 91,211 115,199 116,225 118,199 142,211 119,196 142,181 118,193" fill="rgb(0,254,255)" />
<polygon points=" 119,137 142,123 118,135 116,108 115,135 91,123 113,137 91,152 115,140 116,167 118,140 142,152 119,137" fill="rgb(0,254,255)" />
<polygon points=" 168,169 192,181 170,167 192,152 168,164 167,137 166,164 142,152 164,167 142,181 166,169 167,196 168,169" fill="rgb(0,254,255)" />
<polygon points=" 166,228 167,255 168,228 192,240 170,225 192,211 168,223 167,196 166,223 142,211 164,225 142,240 166,228" fill="rgb(0,254,255)" />
<polygon points=" 113,255 91,269 115,257 116,284 118,257 142,269 119,255 142,240 118,252 116,225 115,252 91,240 113,255" fill="rgb(0,254,255)" />
<polygon points=" 64,223 40,211 62,225 40,240 64,228 65,255 67,228 91,240 68,225 91,211 67,223 65,196 64,223" fill="rgb(0,254,255)" />
<polygon points=" 67,164 65,137 64,164 40,152 62,167 40,181 64,169 65,196 67,169 91,181 68,167 91,152 67,164" fill="rgb(0,254,255)" />
<polygon points=" 270,284 277,279 269,283 269,274 268,283 260,279 268,284 260,289 268,285 269,294 269,285 277,289 270,284" fill="rgb(126,255,0)" />
<polygon points=" 270,264 277,260 269,264 269,255 268,264 260,260 268,264 260,269 268,265 269,274 269,265 277,269 270,264" fill="rgb(126,255,0)" />
<polygon points=" 286,275 294,279 287,274 294,269 286,273 286,264 285,273 277,269 285,274 277,279 285,275 286,284 286,275" fill="rgb(126,255,0)" />
<polygon points=" 285,295 286,304 286,295 294,299 287,294 294,289 286,293 286,284 285,293 277,289 285,294 277,299 285,295" fill="rgb(126,255,0)" />
<polygon points=" 268,304 260,308 268,304 269,313 269,304 277,308 270,304 277,299 269,303 269,294 268,303 260,299 268,304" fill="rgb(126,255,0)" />
<polygon points=" 251,293 243,289 251,294 243,299 251,295 252,304 252,295 260,299 253,294 260,289 252,293 252,284 251,293" fill="rgb(126,255,0)" />
<polygon points=" 252,273 252,264 251,273 243,269 251,274 243,279 251,275 252,284 252,275 260,279 253,274 260,269 252,273" fill="rgb(126,255,0)" />
<polygon points=" 270,225 277,220 269,224 269,216 268,224 260,220 268,225 260,230 268,226 269,235 269,226 277,230 270,225" fill="rgb(126,255,0)" />
<polygon points=" 270,206 277,201 269,205 269,196 268,205 260,201 268,206 260,211 268,207 269,216 269,207 277,211 270,206" fill="rgb(126,255,0)" />
<polygon points=" 286,216 294,220 287,216 294,211 286,215 286,206 285,215 277,211 285,216 277,220 285,216 286,225 286,216" fill="rgb(126,255,0)" />
<polygon points=" 285,236 286,245 286,236 294,240 287,235 294,230 286,234 286,225 285,234 277,230 285,235 277,240 285,236" fill="rgb(126,255,0)" />
<polygon points=" 268,245 260,250 268,246 269,255 269,246 277,250 270,245 277,240 269,244 269,235 268,244 260,240 268,245" fill="rgb(126,255,0)" />
<polygon points=" 251,234 243,230 251,235 243,240 251,236 252,245 252,236 260,240 253,235 260,230 252,234 252,225 251,234" fill="rgb(126,255,0)" />
<polygon points=" 252,215 252,206 251,215 243,211 251,216 243,220 251,216 252,225 252,216 260,220 253,216 260,211 252,215" fill="rgb(126,255,0)" />
<polygon points=" 320,256 328,260 320,255 328,250 320,254 319,245 319,254 311,250 318,255 311,260 319,256 319,264 320,256" fill="rgb(126,255,0)" />
<polygon points=" 320,235 328,230 320,234 319,225 319,234 311,230 318,235 311,240 319,236 319,245 320,236 328,240 320,235" fill="rgb(126,255,0)" />
<polygon points=" 337,246 345,250 337,245 345,240 337,244 336,235 336,244 328,240 335,245 328,250 336,246 336,255 337,246" fill="rgb(126,255,0)" />
<polygon points=" 336,265 336,274 337,265 345,269 337,264 345,260 337,264 336,255 336,264 328,260 335,264 328,269 336,265" fill="rgb(126,255,0)" />
<polygon points=" 318,274 311,279 319,275 319,284 320,275 328,279 320,274 328,269 320,273 319,264 319,273 311,269 318,274" fill="rgb(126,255,0)" />
<polygon points=" 302,264 294,260 302,264 294,269 302,265 303,274 303,265 311,269 303,264 311,260 303,264 303,255 302,264" fill="rgb(126,255,0)" />
<polygon points=" 303,244 303,235 302,244 294,240 302,245 294,250 302,246 303,255 303,246 311,250 303,245 311,240 303,244" fill="rgb(126,255,0)" />
<polygon points=" 319,314 319,323 320,314 328,318 320,313 328,308 320,312 319,304 319,312 311,308 318,313 311,318 319,314" fill="rgb(126,255,0)" />
<polygon points=" 320,294 328,289 320,293 319,284 319,293 311,289 318,294 311,299 319,295 319,304 320,295 328,299 320,294" fill="rgb(126,255,0)" />
<polygon points=" 337,304 345,308 337,304 345,299 337,303 336,294 336,303 328,299 335,304 328,308 336,304 336,313 337,304" fill="rgb(126,255,0)" />
<polygon points=" 336,324 336,333 337,324 345,328 337,323 345,318 337,322 336,313 336,322 328,318 335,323 328,328 336,324" fill="rgb(126,255,0)" />
<polygon points=" 318,333 311,338 319,334 319,343 320,334 328,338 320,333 328,328 320,332 319,323 319,332 311,328 318,333" fill="rgb(126,255,0)" />
<polygon points=" 302,322 294,318 302,323 294,328 302,324 303,333 303,324 311,328 303,323 311,318 303,322 303,313 302,322" fill="rgb(126,255,0)" />
<polygon points=" 303,303 303,294 302,303 294,299 302,304 294,308 302,304 303,313 303,304 311,308 303,304 311,299 303,303" fill="rgb(126,255,0)" />
<polygon points=" 268,343 260,348 268,344 269,352 269,344 277,348 270,343 277,338 269,342 269,333 268,342 260,338 268,343" fill="rgb(126,255,0)" />
<polygon points=" 270,323 277,318 269,322 269,313 268,322 260,318 268,323 260,328 268,324 269,333 269,324 277,328 270,323" fill="rgb(126,255,0)" />
<polygon points=" 286,334 294,338 287,333 294,328 286,332 286,323 285,332 277,328 285,333 277,338 285,334 286,343 286,334" fill="rgb(126,255,0)" />
<polygon points=" 285,353 286,362 286,353 294,357 287,352 294,348 286,352 286,343 285,352 277,348 285,352 277,357 285,353" fill="rgb(126,255,0)" />
<polygon points=" 268,362 260,367 268,363 269,372 269,363 277,367 270,362 277,357 269,361 269,352 268,361 260,357 268,362" fill="rgb(126,255,0)" />
<polygon points=" 251,352 243,348 251,352 243,357 251,353 252,362 252,353 260,357 253,352 260,348 252,352 252,343 251,352" fill="rgb(126,255,0)" />
<polygon points=" 252,332 252,323 251,332 243,328 251,333 243,338 251,334 252,343 252,334 260,338 253,333 260,328 252,332" fill="rgb(126,255,0)" />
<polygon points=" 217,312 209,308 217,313 209,318 217,314 218,323 218,314 226,318 219,313 226,308 218,312 218,304 217,312" fill="rgb(126,255,0)" />
<polygon points=" 219,294 226,289 218,293 218,284 217,293 209,289 217,294 209,299 217,295 218,304 218,295 226,299 219,294" fill="rgb(126,255,0)" />
<polygon points=" 235,304 243,308 236,304 243,299 235,303 235,294 234,303 226,299 234,304 226,308 234,304 235,313 235,304" fill="rgb(126,255,0)" />
<polygon points=" 234,324 235,333 235,324 243,328 236,323 243,318 235,322 235,313 234,322 226,318 234,323 226,328 234,324" fill="rgb(126,255,0)" />
<polygon points=" 217,333 209,338 217,334 218,343 218,334 226,338 219,333 226,328 218,332 218,323 217,332 209,328 217,333" fill="rgb(126,255,0)" />
<polygon points=" 200,322 192,318 200,323 192,328 200,324 201,333 201,324 209,328 202,323 209,318 201,322 201,313 200,322" fill="rgb(126,255,0)" />
<polygon points=" 201,303 201,294 200,303 192,299 200,304 192,308 200,304 201,313 201,304 209,308 202,304 209,299 201,303" fill="rgb(126,255,0)" />
<polygon points=" 218,254 218,245 217,254 209,250 217,255 209,260 217,256 218,264 218,256 226,260 219,255 226,250 218,254" fill="rgb(126,255,0)" />
<polygon points=" 219,235 226,230 218,234 218,225 217,234 209,230 217,235 209,240 217,236 218,245 218,236 226,240 219,235" fill="rgb(126,255,0)" />
<polygon points=" 235,246 243,250 236,245 243,240 235,244 235,235 234,244 226,240 234,245 226,250 234,246 235,255 235,246" fill="rgb(126,255,0)" />
<polygon points=" 234,265 235,274 235,265 243,269 236,264 243,260 235,264 235,255 234,264 226,260 234,264 226,269 234,265" fill="rgb(126,255,0)" />
<polygon points=" 217,274 209,279 217,275 218,284 218,275 226,279 219,274 226,269 218,273 218,264 217,273 209,269 217,274" fill="rgb(126,255,0)" />
<polygon points=" 200,264 192,260 200,264 192,269 200,265 201,274 201,265 209,269 202,264 209,260 201,264 201,255 200,264" fill="rgb(126,255,0)" />
<polygon points=" 201,244 201,235 200,244 192,240 200,245 192,250 200,246 201,255 201,246 209,250 202,245 209,240 201,244" fill="rgb(126,255,0)" />
<polygon points=" 270,108 277,103 269,107 269,98 268,107 260,103 268,108 260,113 268,109 269,118 269,109 277,113 270,108" fill="rgb(126,255,0)" />
<polygon points=" 270,88 277,84 269,88 269,79 268,88 260,84 268,88 260,93 268,89 269,98 269,89 277,93 270,88" fill="rgb(126,255,0)" />
<polygon points=" 286,99 294,103 287,98 294,93 286,97 286,88 285,97 277,93 285,98 277,103 285,99 286,108 286,99" fill="rgb(126,255,0)" />
<polygon points=" 285,119 286,128 286,119 294,123 287,118 294,113 286,117 286,108 285,117 277,113 285,118 277,123 285,119" fill="rgb(126,255,0)" />
<polygon points=" 268,128 260,132 268,128 269,137 269,128 277,132 270,128 277,123 269,127 269,118 268,127 260,123 268,128" fill="rgb(126,255,0)" />
<polygon points=" 251,117 243,113 251,118 243,123 251,119 252,128 252,119 260,123 253,118 260,113 252,117 252,108 251,117" fill="rgb(126,255,0)" />
<polygon points=" 252,97 252,88 251,97 243,93 251,98 243,103 251,99 252,108 252,99 260,103 253,98 260,93 252,97" fill="rgb(126,255,0)" />
<polygon points=" 270,49 277,44 269,48 269,40 268,48 260,44 268,49 260,54 268,50 269,59 269,50 277,54 270,49" fill="rgb(126,255,0)" />
<polygon points=" 270,30 277,25 269,29 269,20 268,29 260,25 268,30 260,35 268,31 269,40 269,31 277,35 270,30" fill="rgb(126,255,0)" />
<polygon points=" 286,40 294,44 287,40 294,35 286,39 286,30 285,39 277,35 285,40 277,44 285,40 286,49 286,40" fill="rgb(126,255,0)" />
<polygon points=" 285,60 286,69 286,60 294,64 287,59 294,54 286,58 286,49 285,58 277,54 285,59 277,64 285,60" fill="rgb(126,255,0)" />
<polygon points=" 268,69 260,74 268,70 269,79 269,70 277,74 270,69 277,64 269,68 269,59 268,68 260,64 268,69" fill="rgb(126,255,0)" />
<polygon points=" 251,58 243,54 251,59 243,64 251,60 252,69 252,60 260,64 253,59 260,54 252,58 252,49 251,58" fill="rgb(126,255,0)" />
<polygon points=" 252,39 252,30 251,39 243,35 251,40 243,44 251,40 252,49 252,40 260,44 253,40 260,35 252,39" fill="rgb(126,255,0)" />
<polygon points=" 320,80 328,84 320,79 328,74 320,78 319,69 319,78 311,74 318,79 311,84 319,80 319,88 320,80" fill="rgb(126,255,0)" />
<polygon points=" 320,59 328,54 320,58 319,49 319,58 311,54 318,59 311,64 319,60 319,69 320,60 328,64 320,59" fill="rgb(126,255,0)" />
<polygon points=" 337,70 345,74 337,69 345,64 337,68 336,59 336,68 328,64 335,69 328,74 336,70 336,79 337,70" fill="rgb(126,255,0)" />
<polygon points=" 336,89 336,98 337,89 345,93 337,88 345,84 337,88 336,79 336,88 328,84 335,88 328,93 336,89" fill="rgb(126,255,0)" />
<polygon points=" 318,98 311,103 319,99 319,108 320,99 328,103 320,98 328,93 320,97 319,88 319,97 311,93 318,98" fill="rgb(126,255,0)" />
<polygon points=" 302,88 294,84 302,88 294,93 302,89 303,98 303,89 311,93 303,88 311,84 303,88 303,79 302,88" fill="rgb(126,255,0)" />
<polygon points=" 303,68 303,59 302,68 294,64 302,69 294,74 302,70 303,79 303,70 311,74 303,69 311,64 303,68" fill="rgb(126,255,0)" />
<polygon points=" 319,138 319,147 320,138 328,142 320,137 328,132 320,136 319,128 319,136 311,132 318,137 311,142 319,138" fill="rgb(126,255,0)" />
<polygon points=" 320,118 328,113 320,117 319,108 319,117 311,113 318,118 311,123 319,119 319,128 320,119 328,123 320,118" fill="rgb(126,255,0)" />
<polygon points=" 337,128 345,132 337,128 345,123 337,127 336,118 336,127 328,123 335,128 328,132 336,128 336,137 337,128" fill="rgb(126,255,0)" />
<polygon points=" 336,148 336,157 337,148 345,152 337,147 345,142 337,146 336,137 336,146 328,142 335,147 328,152 336,148" fill="rgb(126,255,0)" />
<polygon points=" 318,157 311,162 319,158 319,167 320,158 328,162 320,157 328,152 320,156 319,147 319,156 311,152 318,157" fill="rgb(126,255,0)" />
<polygon points=" 302,146 294,142 302,147 294,152 302,148 303,157 303,148 311,152 303,147 311,142 303,146 303,137 302,146" fill="rgb(126,255,0)" />
<polygon points=" 303,127 303,118 302,127 294,123 302,128 294,132 302,128 303,137 303,128 311,132 303,128 311,123 303,127" fill="rgb(126,255,0)" />
<polygon points=" 268,167 260,172 268,168 269,176 269,168 277,172 270,167 277,162 269,166 269,157 268,166 260,162 268,167" fill="rgb(126,255,0)" />
<polygon points=" 270,147 277,142 269,146 269,137 268,146 260,142 268,147 260,152 268,148 269,157 269,148 277,152 270,147" fill="rgb(126,255,0)" />
<polygon points=" 286,158 294,162 287,157 294,152 286,156 286,147 285,156 277,152 285,157 277,162 285,158 286,167 286,158" fill="rgb(126,255,0)" />
<polygon points=" 285,177 286,186 286,177 294,181 287,176 294,172 286,176 286,167 285,176 277,172 285,176 277,181 285,177" fill="rgb(126,255,0)" />
<polygon points=" 268,186 260,191 268,187 269,196 269,187 277,191 270,186 277,181 269,185 269,176 268,185 260,181 268,186" fill="rgb(126,255,0)" />
<polygon points=" 251,176 243,172 251,176 243,181 251,177 252,186 252,177 260,181 253,176 260,172 252,176 252,167 251,176" fill="rgb(126,255,0)" />
<polygon points=" 252,156 252,147 251,156 243,152 251,157 243,162 251,158 252,167 252,158 260,162 253,157 260,152 252,156" fill="rgb(126,255,0)" />
<polygon points=" 217,136 209,132 217,137 209,142 217,138 218,147 218,138 226,142 219,137 226,132 218,136 218,128 217,136" fill="rgb(126,255,0)" />
<polygon points=" 219,118 226,113 218,117 218,108 217,117 209,113 217,118 209,123 217,119 218,128 218,119 226,123 219,118" fill="rgb(126,255,0)" />
<polygon points=" 235,128 243,132 236,128 243,123 235,127 235,118 234,127 226,123 234,128 226,132 234,128 235,137 235,128" fill="rgb(126,255,0)" />
<polygon points=" 234,148 235,157 235,148 243,152 236,147 243,142 235,146 235,137 234,146 226,142 234,147 226,152 234,148" fill="rgb(126,255,0)" />
<polygon points=" 217,157 209,162 217,158 218,167 218,158 226,162 219,157 226,152 218,156 218,147 217,156 209,152 217,157" fill="rgb(126,255,0)" />
<polygon points=" 200,146 192,142 200,147 192,152 200,148 201,157 201,148 209,152 202,147 209,142 201,146 201,137 200,146" fill="rgb(126,255,0)" />
<polygon points=" 201,127 201,118 200,127 192,123 200,128 192,132 200,128 201,137 201,128 209,132 202,128 209,123 201,127" fill="rgb(126,255,0)" />
<polygon points=" 218,78 218,69 217,78 209,74 217,79 209,84 217,80 218,88 218,80 226,84 219,79 226,74 218,78" fill="rgb(126,255,0)" />
<polygon points=" 219,59 226,54 218,58 218,49 217,58 209,54 217,59 209,64 217,60 218,69 218,60 226,64 219,59" fill="rgb(126,255,0)" />
<polygon points=" 235,70 243,74 236,69 243,64 235,68 235,59 234,68 226,64 234,69 226,74 234,70 235,79 235,70" fill="rgb(126,255,0)" />
<polygon points=" 234,89 235,98 235,89 243,93 236,88 243,84 235,88 235,79 234,88 226,84 234,88 226,93 234,89" fill="rgb(126,255,0)" />
<polygon points=" 217,98 209,103 217,99 218,108 218,99 226,103 219,98 226,93 218,97 218,88 217,97 209,93 217,98" fill="rgb(126,255,0)" />
<polygon points=" 200,88 192,84 200,88 192,93 200,89 201,98 201,89 209,93 202,88 209,84 201,88 201,79 200,88" fill="rgb(126,255,0)" />
<polygon points=" 201,68 201,59 200,68 192,64 200,69 192,74 200,70 201,79 201,70 209,74 202,69 209,64 201,68" fill="rgb(126,255,0)" />
<polygon points=" 422,197 430,201 422,196 430,191 422,195 421,186 421,195 413,191 420,196 413,201 421,197 421,206 422,197" fill="rgb(126,255,0)" />
<polygon points=" 422,176 430,172 422,176 421,167 421,176 413,172 420,176 413,181 421,177 421,186 422,177 430,181 422,176" fill="rgb(126,255,0)" />
<polygon points=" 438,187 446,191 439,186 446,181 438,185 438,176 437,185 430,181 437,186 430,191 437,187 438,196 438,187" fill="rgb(126,255,0)" />
<polygon points=" 437,207 438,216 438,207 446,211 439,206 446,201 438,205 438,196 437,205 430,201 437,206 430,211 437,207" fill="rgb(126,255,0)" />
<polygon points=" 420,216 413,220 421,216 421,225 422,216 430,220 422,216 430,211 422,215 421,206 421,215 413,211 420,216" fill="rgb(126,255,0)" />
<polygon points=" 404,205 396,201 403,206 396,211 404,207 404,216 405,207 413,211 405,206 413,201 405,205 404,196 404,205" fill="rgb(126,255,0)" />
<polygon points=" 405,185 404,176 404,185 396,181 403,186 396,191 404,187 404,196 405,187 413,191 405,186 413,181 405,185" fill="rgb(126,255,0)" />
<polygon points=" 422,137 430,132 422,136 421,128 421,136 413,132 420,137 413,142 421,138 421,147 422,138 430,142 422,137" fill="rgb(126,255,0)" />
<polygon points=" 422,118 430,113 422,117 421,108 421,117 413,113 420,118 413,123 421,119 421,128 422,119 430,123 422,118" fill="rgb(126,255,0)" />
<polygon points=" 438,128 446,132 439,128 446,123 438,127 438,118 437,127 430,123 437,128 430,132 437,128 438,137 438,128" fill="rgb(126,255,0)" />
<polygon points=" 437,148 438,157 438,148 446,152 439,147 446,142 438,146 438,137 437,146 430,142 437,147 430,152 437,148" fill="rgb(126,255,0)" />
<polygon points=" 420,157 413,162 421,158 421,167 422,158 430,162 422,157 430,152 422,156 421,147 421,156 413,152 420,157" fill="rgb(126,255,0)" />
<polygon points=" 404,146 396,142 403,147 396,152 404,148 404,157 405,148 413,152 405,147 413,142 405,146 404,137 404,146" fill="rgb(126,255,0)" />
<polygon points=" 405,127 404,118 404,127 396,123 403,128 396,132 404,128 404,137 405,128 413,132 405,128 413,123 405,127" fill="rgb(126,255,0)" />
<polygon points=" 472,168 480,172 473,167 480,162 472,166 472,157 471,166 463,162 471,167 463,172 471,168 472,176 472,168" fill="rgb(126,255,0)" />
<polygon points=" 473,147 480,142 472,146 472,137 471,146 463,142 471,147 463,152 471,148 472,157 472,148 480,152 473,147" fill="rgb(126,255,0)" />
<polygon points=" 489,158 497,162 490,157 497,152 489,156 489,147 488,156 480,152 488,157 480,162 488,158 489,167 489,158" fill="rgb(126,255,0)" />
<polygon points=" 488,177 489,186 489,177 497,181 490,176 497,172 489,176 489,167 488,176 480,172 488,176 480,181 488,177" fill="rgb(126,255,0)" />
<polygon points=" 471,186 463,191 471,187 472,196 472,187 480,191 473,186 480,181 472,185 472,176 471,185 463,181 471,186" fill="rgb(126,255,0)" />
<polygon points=" 454,176 446,172 454,176 446,181 454,177 455,186 455,177 463,181 456,176 463,172 455,176 455,167 454,176" fill="rgb(126,255,0)" />
<polygon points=" 455,156 455,147 454,156 446,152 454,157 446,162 454,158 455,167 455,158 463,162 456,157 463,152 455,156" fill="rgb(126,255,0)" />
<polygon points=" 471,226 472,235 472,226 480,230 473,225 480,220 472,224 472,216 471,224 463,220 471,225 463,230 471,226" fill="rgb(126,255,0)" />
<polygon points=" 473,206 480,201 472,205 472,196 471,205 463,201 471,206 463,211 471,207 472,216 472,207 480,211 473,206" fill="rgb(126,255,0)" />
<polygon points=" 489,216 497,220 490,216 497,211 489,215 489,206 488,215 480,211 488,216 480,220 488,216 489,225 489,216" fill="rgb(126,255,0)" />
<polygon points=" 488,236 489,245 489,236 497,240 490,235 497,230 489,234 489,225 488,234 480,230 488,235 480,240 488,236" fill="rgb(126,255,0)" />
<polygon points=" 471,245 463,250 471,246 472,255 472,246 480,250 473,245 480,240 472,244 472,235 471,244 463,240 471,245" fill="rgb(126,255,0)" />
<polygon points=" 454,234 446,230 454,235 446,240 454,236 455,245 455,236 463,240 456,235 463,230 455,234 455,225 454,234" fill="rgb(126,255,0)" />
<polygon points=" 455,215 455,206 454,215 446,211 454,216 446,220 454,216 455,225 455,216 463,220 456,216 463,211 455,215" fill="rgb(126,255,0)" />
<polygon points=" 420,255 413,260 421,256 421,264 422,256 430,260 422,255 430,250 422,254 421,245 421,254 413,250 420,255" fill="rgb(126,255,0)" />
<polygon points=" 422,235 430,230 422,234 421,225 421,234 413,230 420,235 413,240 421,236 421,245 422,236 430,240 422,235" fill="rgb(126,255,0)" />
<polygon points=" 438,246 446,250 439,245 446,240 438,244 438,235 437,244 430,240 437,245 430,250 437,246 438,255 438,246" fill="rgb(126,255,0)" />
<polygon points=" 437,265 438,274 438,265 446,269 439,264 446,260 438,264 438,255 437,264 430,260 437,264 430,269 437,265" fill="rgb(126,255,0)" />
<polygon points=" 420,274 413,279 421,275 421,284 422,275 430,279 422,274 430,269 422,273 421,264 421,273 413,269 420,274" fill="rgb(126,255,0)" />
<polygon points=" 404,264 396,260 403,264 396,269 404,265 404,274 405,265 413,269 405,264 413,260 405,264 404,255 404,264" fill="rgb(126,255,0)" />
<polygon points=" 405,244 404,235 404,244 396,240 403,245 396,250 404,246 404,255 405,246 413,250 405,245 413,240 405,244" fill="rgb(126,255,0)" />
<polygon points=" 370,224 362,220 369,225 362,230 370,226 370,235 371,226 379,230 371,225 379,220 371,224 370,216 370,224" fill="rgb(126,255,0)" />
<polygon points=" 371,206 379,201 371,205 370,196 370,205 362,201 369,206 362,211 370,207 370,216 371,207 379,211 371,206" fill="rgb(126,255,0)" />
<polygon points=" 388,216 396,220 388,216 396,211 388,215 387,206 387,215 379,211 386,216 379,220 387,216 387,225 388,216" fill="rgb(126,255,0)" />
<polygon points=" 387,236 387,245 388,236 396,240 388,235 396,230 388,234 387,225 387,234 379,230 386,235 379,240 387,236" fill="rgb(126,255,0)" />
<polygon points=" 369,245 362,250 370,246 370,255 371,246 379,250 371,245 379,240 371,244 370,235 370,244 362,240 369,245" fill="rgb(126,255,0)" />
<polygon points=" 353,234 345,230 352,235 345,240 353,236 353,245 354,236 362,240 354,235 362,230 354,234 353,225 353,234" fill="rgb(126,255,0)" />
<polygon points=" 354,215 353,206 353,215 345,211 352,216 345,220 353,216 353,225 354,216 362,220 354,216 362,211 354,215" fill="rgb(126,255,0)" />
<polygon points=" 371,166 370,157 370,166 362,162 369,167 362,172 370,168 370,176 371,168 379,172 371,167 379,162 371,166" fill="rgb(126,255,0)" />
<polygon points=" 371,147 379,142 371,146 370,137 370,146 362,142 369,147 362,152 370,148 370,157 371,148 379,152 371,147" fill="rgb(126,255,0)" />
<polygon points=" 388,158 396,162 388,157 396,152 388,156 387,147 387,156 379,152 386,157 379,162 387,158 387,167 388,158" fill="rgb(126,255,0)" />
<polygon points=" 387,177 387,186 388,177 396,181 388,176 396,172 388,176 387,167 387,176 379,172 386,176 379,181 387,177" fill="rgb(126,255,0)" />
<polygon points=" 369,186 362,191 370,187 370,196 371,187 379,191 371,186 379,181 371,185 370,176 370,185 362,181 369,186" fill="rgb(126,255,0)" />
<polygon points=" 353,176 345,172 352,176 345,181 353,177 353,186 354,177 362,181 354,176 362,172 354,176 353,167 353,176" fill="rgb(126,255,0)" />
<polygon points=" 354,156 353,147 353,156 345,152 352,157 345,162 353,158 353,167 354,158 362,162 354,157 362,152 354,156" fill="rgb(126,255,0)" />
<polygon points=" 421,373 421,382 422,373 430,377 422,372 430,367 422,371 421,362 421,371 413,367 420,372 413,377 421,373" fill="rgb(126,255,0)" />
<polygon points=" 422,352 430,348 422,352 421,343 421,352 413,348 420,352 413,357 421,353 421,362 422,353 430,357 422,352" fill="rgb(126,255,0)" />
<polygon points=" 438,363 446,367 439,362 446,357 438,361 438,352 437,361 430,357 437,362 430,367 437,363 438,372 438,363" fill="rgb(126,255,0)" />
<polygon points=" 437,383 438,392 438,383 446,387 439,382 446,377 438,381 438,372 437,381 430,377 437,382 430,387 437,383" fill="rgb(126,255,0)" />
<polygon points=" 420,392 413,396 421,392 421,401 422,392 430,396 422,392 430,387 422,391 421,382 421,391 413,387 420,392" fill="rgb(126,255,0)" />
<polygon points=" 404,381 396,377 403,382 396,387 404,383 404,392 405,383 413,387 405,382 413,377 405,381 404,372 404,381" fill="rgb(126,255,0)" />
<polygon points=" 405,361 404,352 404,361 396,357 403,362 396,367 404,363 404,372 405,363 413,367 405,362 413,357 405,361" fill="rgb(126,255,0)" />
<polygon points=" 422,313 430,308 422,312 421,304 421,312 413,308 420,313 413,318 421,314 421,323 422,314 430,318 422,313" fill="rgb(126,255,0)" />
<polygon points=" 422,294 430,289 422,293 421,284 421,293 413,289 420,294 413,299 421,295 421,304 422,295 430,299 422,294" fill="rgb(126,255,0)" />
<polygon points=" 438,304 446,308 439,304 446,299 438,303 438,294 437,303 430,299 437,304 430,308 437,304 438,313 438,304" fill="rgb(126,255,0)" />
<polygon points=" 437,324 438,333 438,324 446,328 439,323 446,318 438,322 438,313 437,322 430,318 437,323 430,328 437,324" fill="rgb(126,255,0)" />
<polygon points=" 420,333 413,338 421,334 421,343 422,334 430,338 422,333 430,328 422,332 421,323 421,332 413,328 420,333" fill="rgb(126,255,0)" />
<polygon points=" 404,322 396,318 403,323 396,328 404,324 404,333 405,324 413,328 405,323 413,318 405,322 404,313 404,322" fill="rgb(126,255,0)" />
<polygon points=" 405,303 404,294 404,303 396,299 403,304 396,308 404,304 404,313 405,304 413,308 405,304 413,299 405,303" fill="rgb(126,255,0)" />
<polygon points=" 472,344 480,348 473,343 480,338 472,342 472,333 471,342 463,338 471,343 463,348 471,344 472,352 472,344" fill="rgb(126,255,0)" />
<polygon points=" 473,323 480,318 472,322 472,313 471,322 463,318 471,323 463,328 471,324 472,333 472,324 480,328 473,323" fill="rgb(126,255,0)" />
<polygon points=" 489,334 497,338 490,333 497,328 489,332 489,323 488,332 480,328 488,333 480,338 488,334 489,343 489,334" fill="rgb(126,255,0)" />
<polygon points=" 488,353 489,362 489,353 497,357 490,352 497,348 489,352 489,343 488,352 480,348 488,352 480,357 488,353" fill="rgb(126,255,0)" />
<polygon points=" 471,362 463,367 471,363 472,372 472,363 480,367 473,362 480,357 472,361 472,352 471,361 463,357 471,362" fill="rgb(126,255,0)" />
<polygon points=" 454,352 446,348 454,352 446,357 454,353 455,362 455,353 463,357 456,352 463,348 455,352 455,343 454,352" fill="rgb(126,255,0)" />
<polygon points=" 455,332 455,323 454,332 446,328 454,333 446,338 454,334 455,343 455,334 463,338 456,333 463,328 455,332" fill="rgb(126,255,0)" />
<polygon points=" 471,402 472,411 472,402 480,406 473,401 480,396 472,400 472,392 471,400 463,396 471,401 463,406 471,402" fill="rgb(126,255,0)" />
<polygon points=" 473,382 480,377 472,381 472,372 471,381 463,377 471,382 463,387 471,383 472,392 472,383 480,387 473,382" fill="rgb(126,255,0)" />
<polygon points=" 489,392 497,396 490,392 497,387 489,391 489,382 488,391 480,387 488,392 480,396 488,392 489,401 489,392" fill="rgb(126,255,0)" />
<polygon points=" 488,412 489,421 489,412 497,416 490,411 497,406 489,410 489,401 488,410 480,406 488,411 480,416 488,412" fill="rgb(126,255,0)" />
<polygon points=" 471,421 463,426 471,422 472,431 472,422 480,426 473,421 480,416 472,420 472,411 471,420 463,416 471,421" fill="rgb(126,255,0)" />
<polygon points=" 454,410 446,406 454,411 446,416 454,412 455,421 455,412 463,416 456,411 463,406 455,410 455,401 454,410" fill="rgb(126,255,0)" />
<polygon points=" 455,391 455,382 454,391 446,387 454,392 446,396 454,392 455,401 455,392 463,396 456,392 463,387 455,391" fill="rgb(126,255,0)" />
<polygon points=" 420,431 413,436 421,432 421,440 422,432 430,436 422,431 430,426 422,430 421,421 421,430 413,426 420,431" fill="rgb(126,255,0)" />
<polygon points=" 422,411 430,406 422,410 421,401 421,410 413,406 420,411 413,416 421,412 421,421 422,412 430,416 422,411" fill="rgb(126,255,0)" />
<polygon points=" 438,422 446,426 439,421 446,416 438,420 438,411 437,420 430,416 437,421 430,426 437,422 438,431 438,422" fill="rgb(126,255,0)" />
<polygon points=" 437,441 438,450 438,441 446,445 439,440 446,436 438,440 438,431 437,440 430,436 437,440 430,445 437,441" fill="rgb(126,255,0)" />
<polygon points=" 420,450 413,455 421,451 421,460 422,451 430,455 422,450 430,445 422,449 421,440 421,449 413,445 420,450" fill="rgb(126,255,0)" />
<polygon points=" 404,440 396,436 403,440 396,445 404,441 404,450 405,441 413,445 405,440 413,436 405,440 404,431 404,440" fill="rgb(126,255,0)" />
<polygon points=" 405,420 404,411 404,420 396,416 403,421 396,426 404,422 404,431 405,422 413,426 405,421 413,416 405,420" fill="rgb(126,255,0)" />
<polygon points=" 370,400 362,396 369,401 362,406 370,402 370,411 371,402 379,406 371,401 379,396 371,400 370,392 370,400" fill="rgb(126,255,0)" />
<polygon points=" 371,382 379,377 371,381 370,372 370,381 362,377 369,382 362,387 370,383 370,392 371,383 379,387 371,382" fill="rgb(126,255,0)" />
<polygon points=" 388,392 396,396 388,392 396,387 388,391 387,382 387,391 379,387 386,392 379,396 387,392 387,401 388,392" fill="rgb(126,255,0)" />
<polygon points=" 387,412 387,421 388,412 396,416 388,411 396,406 388,410 387,401 387,410 379,406 386,411 379,416 387,412" fill="rgb(126,255,0)" />
<polygon points=" 369,421 362,426 370,422 370,431 371,422 379,426 371,421 379,416 371,420 370,411 370,420 362,416 369,421" fill="rgb(126,255,0)" />
<polygon points=" 353,410 345,406 352,411 345,416 353,412 353,421 354,412 362,416 354,411 362,406 354,410 353,401 353,410" fill="rgb(126,255,0)" />
<polygon points=" 354,391 353,382 353,391 345,387 352,392 345,396 353,392 353,401 354,392 362,396 354,392 362,387 354,391" fill="rgb(126,255,0)" />
<polygon points=" 371,342 370,333 370,342 362,338 369,343 362,348 370,344 370,352 371,344 379,348 371,343 379,338 371,342" fill="rgb(126,255,0)" />
<polygon points=" 371,323 379,318 371,322 370,313 370,322 362,318 369,323 362,328 370,324 370,333 371,324 379,328 371,323" fill="rgb(126,255,0)" />
<polygon points=" 388,334 396,338 388,333 396,328 388,332 387,323 387,332 379,328 386,333 379,338 387,334 387,343 388,334" fill="rgb(126,255,0)" />
<polygon points=" 387,353 387,362 388,353 396,357 388,352 396,348 388,352 387,343 387,352 379,348 386,352 379,357 387,353" fill="rgb(126,255,0)" />
<polygon points=" 369,362 362,367 370,363 370,372 371,363 379,367 371,362 379,357 371,361 370,352 370,361 362,357 369,362" fill="rgb(126,255,0)" />
<polygon points=" 353,352 345,348 352,352 345,357 353,353 353,362 354,353 362,357 354,352 362,348 354,352 353,343 353,352" fill="rgb(126,255,0)" />
<polygon points=" 354,332 353,323 353,332 345,328 352,333 345,338 353,334 353,343 354,334 362,338 354,333 362,328 354,332" fill="rgb(126,255,0)" />
<polygon points=" 268,460 260,465 268,461 269,470 269,461 277,465 270,460 277,455 269,459 269,450 268,459 260,455 268,460" fill="rgb(126,255,0)" />
<polygon points=" 270,440 277,436 269,440 269,431 268,440 260,436 268,440 260,445 268,441 269,450 269,441 277,445 270,440" fill="rgb(126,255,0)" />
<polygon points=" 286,451 294,455 287,450 294,445 286,449 286,440 285,449 277,445 285,450 277,455 285,451 286,460 286,451" fill="rgb(126,255,0)" />
<polygon points=" 285,471 286,480 286,471 294,475 287,470 294,465 286,469 286,460 285,469 277,465 285,470 277,475 285,471" fill="rgb(126,255,0)" />
<polygon points=" 268,480 260,484 268,480 269,489 269,480 277,484 270,480 277,475 269,479 269,470 268,479 260,475 268,480" fill="rgb(126,255,0)" />
<polygon points=" 251,469 243,465 251,470 243,475 251,471 252,480 252,471 260,475 253,470 260,465 252,469 252,460 251,469" fill="rgb(126,255,0)" />
<polygon points=" 252,449 252,440 251,449 243,445 251,450 243,455 251,451 252,460 252,451 260,455 253,450 260,445 252,449" fill="rgb(126,255,0)" />
<polygon points=" 270,401 277,396 269,400 269,392 268,400 260,396 268,401 260,406 268,402 269,411 269,402 277,406 270,401" fill="rgb(126,255,0)" />
<polygon points=" 270,382 277,377 269,381 269,372 268,381 260,377 268,382 260,387 268,383 269,392 269,383 277,387 270,382" fill="rgb(126,255,0)" />
<polygon points=" 286,392 294,396 287,392 294,387 286,391 286,382 285,391 277,387 285,392 277,396 285,392 286,401 286,392" fill="rgb(126,255,0)" />
<polygon points=" 285,412 286,421 286,412 294,416 287,411 294,406 286,410 286,401 285,410 277,406 285,411 277,416 285,412" fill="rgb(126,255,0)" />
<polygon points=" 268,421 260,426 268,422 269,431 269,422 277,426 270,421 277,416 269,420 269,411 268,420 260,416 268,421" fill="rgb(126,255,0)" />
<polygon points=" 251,410 243,406 251,411 243,416 251,412 252,421 252,412 260,416 253,411 260,406 252,410 252,401 251,410" fill="rgb(126,255,0)" />
<polygon points=" 252,391 252,382 251,391 243,387 251,392 243,396 251,392 252,401 252,392 260,396 253,392 260,387 252,391" fill="rgb(126,255,0)" />
<polygon points=" 320,432 328,436 320,431 328,426 320,430 319,421 319,430 311,426 318,431 311,436 319,432 319,440 320,432" fill="rgb(126,255,0)" />
<polygon points=" 320,411 328,406 320,410 319,401 319,410 311,406 318,411 311,416 319,412 319,421 320,412 328,416 320,411" fill="rgb(126,255,0)" />
<polygon points=" 337,422 345,426 337,421 345,416 337,420 336,411 336,420 328,416 335,421 328,426 336,422 336,431 337,422" fill="rgb(126,255,0)" />
<polygon points=" 336,441 336,450 337,441 345,445 337,440 345,436 337,440 336,431 336,440 328,436 335,440 328,445 336,441" fill="rgb(126,255,0)" />
<polygon points=" 318,450 311,455 319,451 319,460 320,451 328,455 320,450 328,445 320,449 319,440 319,449 311,445 318,450" fill="rgb(126,255,0)" />
<polygon points=" 302,440 294,436 302,440 294,445 302,441 303,450 303,441 311,445 303,440 311,436 303,440 303,431 302,440" fill="rgb(126,255,0)" />
<polygon points=" 303,420 303,411 302,420 294,416 302,421 294,426 302,422 303,431 303,422 311,426 303,421 311,416 303,420" fill="rgb(126,255,0)" />
<polygon points=" 319,490 319,499 320,490 328,494 320,489 328,484 320,488 319,480 319,488 311,484 318,489 311,494 319,490" fill="rgb(126,255,0)" />
<polygon points=" 320,470 328,465 320,469 319,460 319,469 311,465 318,470 311,475 319,471 319,480 320,471 328,475 320,470" fill="rgb(126,255,0)" />
<polygon points=" 337,480 345,484 337,480 345,475 337,479 336,470 336,479 328,475 335,480 328,484 336,480 336,489 337,480" fill="rgb(126,255,0)" />
<polygon points=" 336,500 336,509 337,500 345,504 337,499 345,494 337,498 336,489 336,498 328,494 335,499 328,504 336,500" fill="rgb(126,255,0)" />
<polygon points=" 318,509 311,514 319,510 319,519 320,510 328,514 320,509 328,504 320,508 319,499 319,508 311,504 318,509" fill="rgb(126,255,0)" />
<polygon points=" 302,498 294,494 302,499 294,504 302,500 303,509 303,500 311,504 303,499 311,494 303,498 303,489 302,498" fill="rgb(126,255,0)" />
<polygon points=" 303,479 303,470 302,479 294,475 302,480 294,484 302,480 303,489 303,480 311,484 303,480 311,475 303,479" fill="rgb(126,255,0)" />
<polygon points=" 268,519 260,524 268,520 269,528 269,520 277,524 270,519 277,514 269,518 269,509 268,518 260,514 268,519" fill="rgb(126,255,0)" />
<polygon points=" 270,499 277,494 269,498 269,489 268,498 260,494 268,499 260,504 268,500 269,509 269,500 277,504 270,499" fill="rgb(126,255,0)" />
<polygon points=" 286,510 294,514 287,509 294,504 286,508 286,499 285,508 277,504 285,509 277,514 285,510 286,519 286,510" fill="rgb(126,255,0)" />
<polygon points=" 285,529 286,538 286,529 294,533 287,528 294,524 286,528 286,519 285,528 277,524 285,528 277,533 285,529" fill="rgb(126,255,0)" />
<polygon points=" 268,538 260,543 268,539 269,548 269,539 277,543 270,538 277,533 269,537 269,528 268,537 260,533 268,538" fill="rgb(126,255,0)" />
<polygon points=" 251,528 243,524 251,528 243,533 251,529 252,538 252,529 260,533 253,528 260,524 252,528 252,519 251,528" fill="rgb(126,255,0)" />
<polygon points=" 252,508 252,499 251,508 243,504 251,509 243,514 251,510 252,519 252,510 260,514 253,509 260,504 252,508" fill="rgb(126,255,0)" />
<polygon points=" 217,488 209,484 217,489 209,494 217,490 218,499 218,490 226,494 219,489 226,484 218,488 218,480 217,488" fill="rgb(126,255,0)" />
<polygon points=" 219,470 226,465 218,469 218,460 217,469 209,465 217,470 209,475 217,471 218,480 218,471 226,475 219,470" fill="rgb(126,255,0)" />
<polygon points=" 235,480 243,484 236,480 243,475 235,479 235,470 234,479 226,475 234,480 226,484 234,480 235,489 235,480" fill="rgb(126,255,0)" />
<polygon points=" 234,500 235,509 235,500 243,504 236,499 243,494 235,498 235,489 234,498 226,494 234,499 226,504 234,500" fill="rgb(126,255,0)" />
<polygon points=" 217,509 209,514 217,510 218,519 218,510 226,514 219,509 226,504 218,508 218,499 217,508 209,504 217,509" fill="rgb(126,255,0)" />
<polygon points=" 200,498 192,494 200,499 192,504 200,500 201,509 201,500 209,504 202,499 209,494 201,498 201,489 200,498" fill="rgb(126,255,0)" />
<polygon points=" 201,479 201,470 200,479 192,475 200,480 192,484 200,480 201,489 201,480 209,484 202,480 209,475 201,479" fill="rgb(126,255,0)" />
<polygon points=" 218,430 218,421 217,430 209,426 217,431 209,436 217,432 218,440 218,432 226,436 219,431 226,426 218,430" fill="rgb(126,255,0)" />
<polygon points=" 219,411 226,406 218,410 218,401 217,410 209,406 217,411 209,416 217,412 218,421 218,412 226,416 219,411" fill="rgb(126,255,0)" />
<polygon points=" 235,422 243,426 236,421 243,416 235,420 235,411 234,420 226,416 234,421 226,426 234,422 235,431 235,422" fill="rgb(126,255,0)" />
<polygon points=" 234,441 235,450 235,441 243,445 236,440 243,436 235,440 235,431 234,440 226,436 234,440 226,445 234,441" fill="rgb(126,255,0)" />
<polygon points=" 217,450 209,455 217,451 218,460 218,451 226,455 219,450 226,445 218,449 218,440 217,449 209,445 217,450" fill="rgb(126,255,0)" />
<polygon points=" 200,440 192,436 200,440 192,445 200,441 201,450 201,441 209,445 202,440 209,436 201,440 201,431 200,440" fill="rgb(126,255,0)" />
<polygon points=" 201,420 201,411 200,420 192,416 200,421 192,426 200,422 201,431 201,422 209,426 202,421 209,416 201,420" fill="rgb(126,255,0)" />
<polygon points=" 116,371 108,367 115,372 108,377 116,373 116,382 117,373 125,377 117,372 125,367 117,371 116,362 116,371" fill="rgb(126,255,0)" />
<polygon points=" 117,352 125,348 117,352 116,343 116,352 108,348 115,352 108,357 116,353 116,362 117,353 125,357 117,352" fill="rgb(126,255,0)" />
<polygon points=" 134,363 142,367 134,362 142,357 134,361 133,352 133,361 125,357 132,362 125,367 133,363 133,372 134,363" fill="rgb(126,255,0)" />
<polygon points=" 133,383 133,392 134,383 142,387 134,382 142,377 134,381 133,372 133,381 125,377 132,382 125,387 133,383" fill="rgb(126,255,0)" />
<polygon points=" 115,392 108,396 116,392 116,401 117,392 125,396 117,392 125,387 117,391 116,382 116,391 108,387 115,392" fill="rgb(126,255,0)" />
<polygon points=" 99,381 91,377 98,382 91,387 99,383 99,392 100,383 108,387 100,382 108,377 100,381 99,372 99,381" fill="rgb(126,255,0)" />
<polygon points=" 100,361 99,352 99,361 91,357 98,362 91,367 99,363 99,372 100,363 108,367 100,362 108,357 100,361" fill="rgb(126,255,0)" />
<polygon points=" 117,313 125,308 117,312 116,304 116,312 108,308 115,313 108,318 116,314 116,323 117,314 125,318 117,313" fill="rgb(126,255,0)" />
<polygon points=" 117,294 125,289 117,293 116,284 116,293 108,289 115,294 108,299 116,295 116,304 117,295 125,299 117,294" fill="rgb(126,255,0)" />
<polygon points=" 134,304 142,308 134,304 142,299 134,303 133,294 133,303 125,299 132,304 125,308 133,304 133,313 134,304" fill="rgb(126,255,0)" />
<polygon points=" 133,324 133,333 134,324 142,328 134,323 142,318 134,322 133,313 133,322 125,318 132,323 125,328 133,324" fill="rgb(126,255,0)" />
<polygon points=" 115,333 108,338 116,334 116,343 117,334 125,338 117,333 125,328 117,332 116,323 116,332 108,328 115,333" fill="rgb(126,255,0)" />
<polygon points=" 99,322 91,318 98,323 91,328 99,324 99,333 100,324 108,328 100,323 108,318 100,322 99,313 99,322" fill="rgb(126,255,0)" />
<polygon points=" 100,303 99,294 99,303 91,299 98,304 91,308 99,304 99,313 100,304 108,308 100,304 108,299 100,303" fill="rgb(126,255,0)" />
<polygon points=" 168,344 175,348 168,343 175,338 168,342 167,333 167,342 159,338 166,343 159,348 167,344 167,352 168,344" fill="rgb(126,255,0)" />
<polygon points=" 168,323 175,318 168,322 167,313 167,322 159,318 166,323 159,328 167,324 167,333 168,324 175,328 168,323" fill="rgb(126,255,0)" />
<polygon points=" 184,334 192,338 185,333 192,328 184,332 184,323 183,332 175,328 183,333 175,338 183,334 184,343 184,334" fill="rgb(126,255,0)" />
<polygon points=" 183,353 184,362 184,353 192,357 185,352 192,348 184,352 184,343 183,352 175,348 183,352 175,357 183,353" fill="rgb(126,255,0)" />
<polygon points=" 166,362 159,367 167,363 167,372 168,363 175,367 168,362 175,357 168,361 167,352 167,361 159,357 166,362" fill="rgb(126,255,0)" />
<polygon points=" 150,352 142,348 149,352 142,357 150,353 150,362 151,353 159,357 151,352 159,348 151,352 150,343 150,352" fill="rgb(126,255,0)" />
<polygon points=" 151,332 150,323 150,332 142,328 149,333 142,338 150,334 150,343 151,334 159,338 151,333 159,328 151,332" fill="rgb(126,255,0)" />
<polygon points=" 167,402 167,411 168,402 175,406 168,401 175,396 168,400 167,392 167,400 159,396 166,401 159,406 167,402" fill="rgb(126,255,0)" />
<polygon points=" 168,382 175,377 168,381 167,372 167,381 159,377 166,382 159,387 167,383 167,392 168,383 175,387 168,382" fill="rgb(126,255,0)" />
<polygon points=" 184,392 192,396 185,392 192,387 184,391 184,382 183,391 175,387 183,392 175,396 183,392 184,401 184,392" fill="rgb(126,255,0)" />
<polygon points=" 183,412 184,421 184,412 192,416 185,411 192,406 184,410 184,401 183,410 175,406 183,411 175,416 183,412" fill="rgb(126,255,0)" />
<polygon points=" 166,421 159,426 167,422 167,431 168,422 175,426 168,421 175,416 168,420 167,411 167,420 159,416 166,421" fill="rgb(126,255,0)" />
<polygon points=" 150,410 142,406 149,411 142,416 150,412 150,421 151,412 159,416 151,411 159,406 151,410 150,401 150,410" fill="rgb(126,255,0)" />
<polygon points=" 151,391 150,382 150,391 142,387 149,392 142,396 150,392 150,401 151,392 159,396 151,392 159,387 151,391" fill="rgb(126,255,0)" />
<polygon points=" 115,431 108,436 116,432 116,440 117,432 125,436 117,431 125,426 117,430 116,421 116,430 108,426 115,431" fill="rgb(126,255,0)" />
<polygon points=" 117,411 125,406 117,410 116,401 116,410 108,406 115,411 108,416 116,412 116,421 117,412 125,416 117,411" fill="rgb(126,255,0)" />
<polygon points=" 134,422 142,426 134,421 142,416 134,420 133,411 133,420 125,416 132,421 125,426 133,422 133,431 134,422" fill="rgb(126,255,0)" />
<polygon points=" 133,441 133,450 134,441 142,445 134,440 142,436 134,440 133,431 133,440 125,436 132,440 125,445 133,441" fill="rgb(126,255,0)" />
<polygon points=" 115,450 108,455 116,451 116,460 117,451 125,455 117,450 125,445 117,449 116,440 116,449 108,445 115,450" fill="rgb(126,255,0)" />
<polygon points=" 99,440 91,436 98,440 91,445 99,441 99,450 100,441 108,445 100,440 108,436 100,440 99,431 99,440" fill="rgb(126,255,0)" />
<polygon points=" 100,420 99,411 99,420 91,416 98,421 91,426 99,422 99,431 100,422 108,426 100,421 108,416 100,420" fill="rgb(126,255,0)" />
<polygon points=" 65,400 57,396 64,401 57,406 65,402 65,411 66,402 74,406 66,401 74,396 66,400 65,392 65,400" fill="rgb(126,255,0)" />
<polygon points=" 66,382 74,377 66,381 65,372 65,381 57,377 64,382 57,387 65,383 65,392 66,383 74,387 66,382" fill="rgb(126,255,0)" />
<polygon points=" 83,392 91,396 83,392 91,387 83,391 82,382 82,391 74,387 81,392 74,396 82,392 82,401 83,392" fill="rgb(126,255,0)" />
<polygon points=" 82,412 82,421 83,412 91,416 83,411 91,406 83,410 82,401 82,410 74,406 81,411 74,416 82,412" fill="rgb(126,255,0)" />
<polygon points=" 64,421 57,426 65,422 65,431 66,422 74,426 66,421 74,416 66,420 65,411 65,420 57,416 64,421" fill="rgb(126,255,0)" />
<polygon points=" 48,410 40,406 47,411 40,416 48,412 48,421 49,412 57,416 49,411 57,406 49,410 48,401 48,410" fill="rgb(126,255,0)" />
<polygon points=" 49,391 48,382 48,391 40,387 47,392 40,396 48,392 48,401 49,392 57,396 49,392 57,387 49,391" fill="rgb(126,255,0)" />
<polygon points=" 66,342 65,333 65,342 57,338 64,343 57,348 65,344 65,352 66,344 74,348 66,343 74,338 66,342" fill="rgb(126,255,0)" />
<polygon points=" 66,323 74,318 66,322 65,313 65,322 57,318 64,323 57,328 65,324 65,333 66,324 74,328 66,323" fill="rgb(126,255,0)" />
<polygon points=" 83,334 91,338 83,333 91,328 83,332 82,323 82,332 74,328 81,333 74,338 82,334 82,343 83,334" fill="rgb(126,255,0)" />
<polygon points=" 82,353 82,362 83,353 91,357 83,352 91,348 83,352 82,343 82,352 74,348 81,352 74,357 82,353" fill="rgb(126,255,0)" />
<polygon points=" 64,362 57,367 65,363 65,372 66,363 74,367 66,362 74,357 66,361 65,352 65,361 57,357 64,362" fill="rgb(126,255,0)" />
<polygon points=" 48,352 40,348 47,352 40,357 48,353 48,362 49,353 57,357 49,352 57,348 49,352 48,343 48,352" fill="rgb(126,255,0)" />
<polygon points=" 49,332 48,323 48,332 40,328 47,333 40,338 48,334 48,343 49,334 57,338 49,333 57,328 49,332" fill="rgb(126,255,0)" />
<polygon points=" 117,195 116,186 116,195 108,191 115,196 108,201 116,197 116,206 117,197 125,201 117,196 125,191 117,195" fill="rgb(126,255,0)" />
<polygon points=" 117,176 125,172 117,176 116,167 116,176 108,172 115,176 108,181 116,177 116,186 117,177 125,181 117,176" fill="rgb(126,255,0)" />
<polygon points=" 134,187 142,191 134,186 142,181 134,185 133,176 133,185 125,181 132,186 125,191 133,187 133,196 134,187" fill="rgb(126,255,0)" />
<polygon points=" 133,207 133,216 134,207 142,211 134,206 142,201 134,205 133,196 133,205 125,201 132,206 125,211 133,207" fill="rgb(126,255,0)" />
<polygon points=" 115,216 108,220 116,216 116,225 117,216 125,220 117,216 125,211 117,215 116,206 116,215 108,211 115,216" fill="rgb(126,255,0)" />
<polygon points=" 99,205 91,201 98,206 91,211 99,207 99,216 100,207 108,211 100,206 108,201 100,205 99,196 99,205" fill="rgb(126,255,0)" />
<polygon points=" 100,185 99,176 99,185 91,181 98,186 91,191 99,187 99,196 100,187 108,191 100,186 108,181 100,185" fill="rgb(126,255,0)" />
<polygon points=" 117,137 125,132 117,136 116,128 116,136 108,132 115,137 108,142 116,138 116,147 117,138 125,142 117,137" fill="rgb(126,255,0)" />
<polygon points=" 117,118 125,113 117,117 116,108 116,117 108,113 115,118 108,123 116,119 116,128 117,119 125,123 117,118" fill="rgb(126,255,0)" />
<polygon points=" 134,128 142,132 134,128 142,123 134,127 133,118 133,127 125,123 132,128 125,132 133,128 133,137 134,128" fill="rgb(126,255,0)" />
<polygon points=" 133,148 133,157 134,148 142,152 134,147 142,142 134,146 133,137 133,146 125,142 132,147 125,152 133,148" fill="rgb(126,255,0)" />
<polygon points=" 115,157 108,162 116,158 116,167 117,158 125,162 117,157 125,152 117,156 116,147 116,156 108,152 115,157" fill="rgb(126,255,0)" />
<polygon points=" 99,146 91,142 98,147 91,152 99,148 99,157 100,148 108,152 100,147 108,142 100,146 99,137 99,146" fill="rgb(126,255,0)" />
<polygon points=" 100,127 99,118 99,127 91,123 98,128 91,132 99,128 99,137 100,128 108,132 100,128 108,123 100,127" fill="rgb(126,255,0)" />
<polygon points=" 168,168 175,172 168,167 175,162 168,166 167,157 167,166 159,162 166,167 159,172 167,168 167,176 168,168" fill="rgb(126,255,0)" />
<polygon points=" 168,147 175,142 168,146 167,137 167,146 159,142 166,147 159,152 167,148 167,157 168,148 175,152 168,147" fill="rgb(126,255,0)" />
<polygon points=" 184,158 192,162 185,157 192,152 184,156 184,147 183,156 175,152 183,157 175,162 183,158 184,167 184,158" fill="rgb(126,255,0)" />
<polygon points=" 183,177 184,186 184,177 192,181 185,176 192,172 184,176 184,167 183,176 175,172 183,176 175,181 183,177" fill="rgb(126,255,0)" />
<polygon points=" 166,186 159,191 167,187 167,196 168,187 175,191 168,186 175,181 168,185 167,176 167,185 159,181 166,186" fill="rgb(126,255,0)" />
<polygon points=" 150,176 142,172 149,176 142,181 150,177 150,186 151,177 159,181 151,176 159,172 151,176 150,167 150,176" fill="rgb(126,255,0)" />
<polygon points=" 151,156 150,147 150,156 142,152 149,157 142,162 150,158 150,167 151,158 159,162 151,157 159,152 151,156" fill="rgb(126,255,0)" />
<polygon points=" 167,226 167,235 168,226 175,230 168,225 175,220 168,224 167,216 167,224 159,220 166,225 159,230 167,226" fill="rgb(126,255,0)" />
<polygon points=" 168,206 175,201 168,205 167,196 167,205 159,201 166,206 159,211 167,207 167,216 168,207 175,211 168,206" fill="rgb(126,255,0)" />
<polygon points=" 184,216 192,220 185,216 192,211 184,215 184,206 183,215 175,211 183,216 175,220 183,216 184,225 184,216" fill="rgb(126,255,0)" />
<polygon points=" 183,236 184,245 184,236 192,240 185,235 192,230 184,234 184,225 183,234 175,230 183,235 175,240 183,236" fill="rgb(126,255,0)" />
<polygon points=" 166,245 159,250 167,246 167,255 168,246 175,250 168,245 175,240 168,244 167,235 167,244 159,240 166,245" fill="rgb(126,255,0)" />
<polygon points=" 150,234 142,230 149,235 142,240 150,236 150,245 151,236 159,240 151,235 159,230 151,234 150,225 150,234" fill="rgb(126,255,0)" />
<polygon points=" 151,215 150,206 150,215 142,211 149,216 142,220 150,216 150,225 151,216 159,220 151,216 159,211 151,215" fill="rgb(126,255,0)" />
<polygon points=" 115,255 108,260 116,256 116,264 117,256 125,260 117,255 125,250 117,254 116,245 116,254 108,250 115,255" fill="rgb(126,255,0)" />
<polygon points=" 117,235 125,230 117,234 116,225 116,234 108,230 115,235 108,240 116,236 116,245 117,236 125,240 117,235" fill="rgb(126,255,0)" />
<polygon points=" 134,246 142,250 134,245 142,240 134,244 133,235 133,244 125,240 132,245 125,250 133,246 133,255 134,246" fill="rgb(126,255,0)" />
<polygon points=" 133,265 133,274 134,265 142,269 134,264 142,260 134,264 133,255 133,264 125,260 132,264 125,269 133,265" fill="rgb(126,255,0)" />
<polygon points=" 115,274 108,279 116,275 116,284 117,275 125,279 117,274 125,269 117,273 116,264 116,273 108,269 115,274" fill="rgb(126,255,0)" />
<polygon points=" 99,264 91,260 98,264 91,269 99,265 99,274 100,265 108,269 100,264 108,260 100,264 99,255 99,264" fill="rgb(126,255,0)" />
<polygon points=" 100,244 99,235 99,244 91,240 98,245 91,250 99,246 99,255 100,246 108,250 100,245 108,240 100,244" fill="rgb(126,255,0)" />
<polygon points=" 65,224 57,220 64,225 57,230 65,226 65,235 66,226 74,230 66,225 74,220 66,224 65,216 65,224" fill="rgb(126,255,0)" />
<polygon points=" 66,206 74,201 66,205 65,196 65,205 57,201 64,206 57,211 65,207 65,216 66,207 74,211 66,206" fill="rgb(126,255,0)" />
<polygon points=" 83,216 91,220 83,216 91,211 83,215 82,206 82,215 74,211 81,216 74,220 82,216 82,225 83,216" fill="rgb(126,255,0)" />
<polygon points=" 82,236 82,245 83,236 91,240 83,235 91,230 83,234 82,225 82,234 74,230 81,235 74,240 82,236" fill="rgb(126,255,0)" />
<polygon points=" 64,245 57,250 65,246 65,255 66,246 74,250 66,245 74,240 66,244 65,235 65,244 57,240 64,245" fill="rgb(126,255,0)" />
<polygon points=" 48,234 40,230 47,235 40,240 48,236 48,245 49,236 57,240 49,235 57,230 49,234 48,225 48,234" fill="rgb(126,255,0)" />
<polygon points=" 49,215 48,206 48,215 40,211 47,216 40,220 48,216 48,225 49,216 57,220 49,216 57,211 49,215" fill="rgb(126,255,0)" />
<polygon points=" 66,166 65,157 65,166 57,162 64,167 57,172 65,168 65,176 66,168 74,172 66,167 74,162 66,166" fill="rgb(126,255,0)" />
<polygon points=" 66,147 74,142 66,146 65,137 65,146 57,142 64,147 57,152 65,148 65,157 66,148 74,152 66,147" fill="rgb(126,255,0)" />
<polygon points=" 83,158 91,162 83,157 91,152 83,156 82,147 82,156 74,152 81,157 74,162 82,158 82,167 83,158" fill="rgb(126,255,0)" />
<polygon points=" 82,177 82,186 83,177 91,181 83,176 91,172 83,176 82,167 82,176 74,172 81,176 74,181 82,177" fill="rgb(126,255,0)" />
<polygon points=" 64,186 57,191 65,187 65,196 66,187 74,191 66,186 74,181 66,185 65,176 65,185 57,181 64,186" fill="rgb(126,255,0)" />
<polygon points=" 48,176 40,172 47,176 40,181 48,177 48,186 49,177 57,181 49,176 57,172 49,176 48,167 48,176" fill="rgb(126,255,0)" />
<polygon points=" 49,156 48,147 48,156 40,152 47,157 40,162 48,158 48,167 49,158 57,162 49,157 57,152 49,156" fill="rgb(126,255,0)" /></svg>