<svg xmlns="http://www.w3.org/2000/svg"
xmlns:xlink="http://www.w3.org/1999/xlink"
version="1.1" baseProfile="full"
width="160" height="200">
<line x1="81.25" y1="20.0" x2="35.0" y2="60.0" stroke="rgb(255,0,0)" stroke-width="1.5"/>
<line x1="35.0" y1="60.0" x2="25.0" y2="100.0" stroke="rgb(255,0,0)" stroke-width="1.5"/>
<polygon points=" 18,88 32,88 32,112 18,112" fill="rgb(170,255,170)"/>
<text x="20.0" y="105.0" font-family="courier" font-size="16" fill="rgb(0,0,0)">3</text>
<line x1="35.0" y1="60.0" x2="45.0" y2="100.0" stroke="rgb(255,0,0)" stroke-width="1.5"/>
<polygon points=" 38,88 52,88 52,112 38,112" fill="rgb(170,255,170)"/>
<text x="40.0" y="105.0" font-family="courier" font-size="16" fill="rgb(0,0,0)">1</text>
<polygon points=" 28,48 42,48 42,72 28,72" fill="rgb(170,255,170)"/>
<text x="30.0" y="65.0" font-family="courier" font-size="16" fill="rgb(0,0,0)">&gt;</text>
<line x1="81.25" y1="20.0" x2="102.5" y2="60.0" stroke="rgb(255,0,0)" stroke-width="1.5"/>
<line x1="102.5" y1="60.0" x2="80.0" y2="100.0" stroke="rgb(255,0,0)" stroke-width="1.5"/>
<line x1="80.0" y1="100.0" x2="80.0" y2="140.0" stroke="rgb(255,0,0)" stroke-width="1.5"/>
<line x1="80.0" y1="140.0" x2="67.5" y2="180.0" stroke="rgb(255,0,0)" stroke-width="1.5"/>
<polygon points=" 60,168 74,168 74,192 60,192" fill="rgb(170,255,170)"/>
<text x="62.5" y="185.0" font-family="courier" font-size="16" fill="rgb(0,0,0)">3</text>
<line x1="80.0" y1="140.0" x2="92.5" y2="180.0" stroke="rgb(255,0,0)" stroke-width="1.5"/>
<polygon points=" 80,168 104,168 104,192 80,192" fill="rgb(170,255,170)"/>
<text x="82.5" y="185.0" font-family="courier" font-size="16" fill="rgb(0,0,0)">20</text>
<polygon points=" 73,128 87,128 87,152 73,152" fill="rgb(170,255,170)"/>
<text x="75.0" y="145.0" font-family="courier" font-size="16" fill="rgb(0,0,0)">*</text>
<polygon points=" 58,88 102,88 102,112 58,112" fill="rgb(170,255,170)"/>
<text x="60.0" y="105.0" font-family="courier" font-size="16" fill="rgb(0,0,0)">loop</text>
<line x1="102.5" y1="60.0" x2="125.0" y2="100.0" stroke="rgb(255,0,0)" stroke-width="1.5"/>
<line x1="125.0" y1="100.0" x2="115.0" y2="140.0" stroke="rgb(255,0,0)" stroke-width="1.5"/>
<polygon points=" 108,128 122,128 122,152 108,152" fill="rgb(170,255,170)"/>
<text x="110.0" y="145.0" font-family="courier" font-size="16" fill="rgb(0,0,0)">3</text>
<line x1="125.0" y1="100.0" x2="135.0" y2="140.0" stroke="rgb(255,0,0)" stroke-width="1.5"/>
<polygon points=" 128,128 142,128 142,152 128,152" fill="rgb(170,255,170)"/>
<text x="130.0" y="145.0" font-family="courier" font-size="16" fill="rgb(0,0,0)">1</text>
<polygon points=" 118,88 132,88 132,112 118,112" fill="rgb(170,255,170)"/>
<text x="120.0" y="105.0" font-family="courier" font-size="16" fill="rgb(0,0,0)">-</text>
<polygon points=" 96,48 110,48 110,72 96,72" fill="rgb(170,255,170)"/>
<text x="97.5" y="65.0" font-family="courier" font-size="16" fill="rgb(0,0,0)">$</text>
<line x1="81.25" y1="20.0" x2="127.5" y2="60.0" stroke="rgb(255,0,0)" stroke-width="1.5"/>
<polygon points=" 116,48 140,48 140,72 116,72" fill="rgb(170,255,170)"/>
<text x="117.5" y="65.0" font-family="courier" font-size="16" fill="rgb(0,0,0)">20</text>
<polygon points=" 64,8 98,8 98,32 64,32" fill="rgb(170,255,170)"/>
<text x="66.25" y="25.0" font-family="courier" font-size="16" fill="rgb(0,0,0)">ite</text></svg>