<svg xmlns="http://www.w3.org/2000/svg"
xmlns:xlink="http://www.w3.org/1999/xlink"
version="1.1" baseProfile="full"
width="132" height="200">
<line x1="70.0" y1="20.0" x2="40.0" y2="60.0" stroke="rgb(255,0,0)" stroke-width="1.5"/>
<polygon points=" 18,48 62,48 62,72 18,72" fill="rgb(255,170,170)"/>
<text x="20.0" y="65.0" font-family="courier" font-size="16" fill="rgb(0,0,0)">true</text>
<line x1="70.0" y1="20.0" x2="75.0" y2="60.0" stroke="rgb(255,0,0)" stroke-width="1.5"/>
<line x1="75.0" y1="60.0" x2="52.5" y2="100.0" stroke="rgb(255,0,0)" stroke-width="1.5"/>
<line x1="52.5" y1="100.0" x2="52.5" y2="140.0" stroke="rgb(255,0,0)" stroke-width="1.5"/>
<line x1="52.5" y1="140.0" x2="40.0" y2="180.0" stroke="rgb(255,0,0)" stroke-width="1.5"/>
<polygon points=" 33,168 47,168 47,192 33,192" fill="rgb(255,170,170)"/>
<text x="35.0" y="185.0" font-family="courier" font-size="16" fill="rgb(0,0,0)">3</text>
<line x1="52.5" y1="140.0" x2="65.0" y2="180.0" stroke="rgb(255,0,0)" stroke-width="1.5"/>
<polygon points=" 53,168 77,168 77,192 53,192" fill="rgb(255,170,170)"/>
<text x="55.0" y="185.0" font-family="courier" font-size="16" fill="rgb(0,0,0)">20</text>
<polygon points=" 46,128 60,128 60,152 46,152" fill="rgb(255,170,170)"/>
<text x="47.5" y="145.0" font-family="courier" font-size="16" fill="rgb(0,0,0)">*</text>
<polygon points=" 30,88 74,88 74,112 30,112" fill="rgb(255,170,170)"/>
<text x="32.5" y="105.0" font-family="courier" font-size="16" fill="rgb(0,0,0)">loop</text>
<line x1="75.0" y1="60.0" x2="97.5" y2="100.0" stroke="rgb(255,0,0)" stroke-width="1.5"/>
<line x1="97.5" y1="100.0" x2="87.5" y2="140.0" stroke="rgb(255,0,0)" stroke-width="1.5"/>
<polygon points=" 80,128 94,128 94,152 80,152" fill="rgb(255,170,170)"/>
<text x="82.5" y="145.0" font-family="courier" font-size="16" fill="rgb(0,0,0)">3</text>
<line x1="97.5" y1="100.0" x2="107.5" y2="140.0" stroke="rgb(255,0,0)" stroke-width="1.5"/>
<polygon points=" 100,128 114,128 114,152 100,152" fill="rgb(255,170,170)"/>
<text x="102.5" y="145.0" font-family="courier" font-size="16" fill="rgb(0,0,0)">1</text>
<polygon points=" 90,88 104,88 104,112 90,112" fill="rgb(255,170,170)"/>
<text x="92.5" y="105.0" font-family="courier" font-size="16" fill="rgb(0,0,0)">-</text>
<polygon points=" 68,48 82,48 82,72 68,72" fill="rgb(255,170,170)"/>
<text x="70.0" y="65.0" font-family="courier" font-size="16" fill="rgb(0,0,0)">$</text>
<line x1="70.0" y1="20.0" x2="100.0" y2="60.0" stroke="rgb(255,0,0)" stroke-width="1.5"/>
<polygon points=" 88,48 112,48 112,72 88,72" fill="rgb(255,170,170)"/>
<text x="90.0" y="65.0" font-family="courier" font-size="16" fill="rgb(0,0,0)">20</text>
<polygon points=" 53,8 87,8 87,32 53,32" fill="rgb(255,170,170)"/>
<text x="55.0" y="25.0" font-family="courier" font-size="16" fill="rgb(0,0,0)">ite</text></svg>