<svg xmlns="http://www.w3.org/2000/svg"
xmlns:xlink="http://www.w3.org/1999/xlink"
version="1.1" baseProfile="full"
width="110" height="120">
<line x1="52.5" y1="20.0" x2="30.0" y2="60.0" stroke="rgb(255,0,0)" stroke-width="1.5"/>
<line x1="30.0" y1="60.0" x2="30.0" y2="100.0" stroke="rgb(255,0,0)" stroke-width="1.5"/>
<polygon points=" 18,88 42,88 42,112 18,112" fill="rgb(255,255,170)"/>
<text x="20.0" y="105.0" font-family="courier" font-size="16" fill="rgb(0,0,0)">60</text>
<polygon points=" 8,48 52,48 52,72 8,72" fill="rgb(255,255,170)"/>
<text x="10.0" y="65.0" font-family="courier" font-size="16" fill="rgb(0,0,0)">loop</text>
<line x1="52.5" y1="20.0" x2="75.0" y2="60.0" stroke="rgb(255,0,0)" stroke-width="1.5"/>
<line x1="75.0" y1="60.0" x2="65.0" y2="100.0" stroke="rgb(255,0,0)" stroke-width="1.5"/>
<polygon points=" 58,88 72,88 72,112 58,112" fill="rgb(255,170,170)"/>
<text x="60.0" y="105.0" font-family="courier" font-size="16" fill="rgb(0,0,0)">3</text>
<line x1="75.0" y1="60.0" x2="85.0" y2="100.0" stroke="rgb(255,0,0)" stroke-width="1.5"/>
<polygon points=" 78,88 92,88 92,112 78,112" fill="rgb(255,170,170)"/>
<text x="80.0" y="105.0" font-family="courier" font-size="16" fill="rgb(0,0,0)">1</text>
<polygon points=" 68,48 82,48 82,72 68,72" fill="rgb(255,170,170)"/>
<text x="70.0" y="65.0" font-family="courier" font-size="16" fill="rgb(0,0,0)">-</text>
<polygon points=" 46,8 60,8 60,32 46,32" fill="rgb(255,255,170)"/>
<text x="47.5" y="25.0" font-family="courier" font-size="16" fill="rgb(0,0,0)">$</text></svg>