<svg xmlns="http://www.w3.org/2000/svg"
xmlns:xlink="http://www.w3.org/1999/xlink"
version="1.1" baseProfile="full"
width="232" height="150">
<line x1="113.5" y1="20.0" x2="113.5" y2="75.0" stroke="rgb(255,0,0)" stroke-width="1.5"/>
<line x1="113.5" y1="75.0" x2="25.0" y2="130.0" stroke="rgb(255,0,0)" stroke-width="1.5"/>
<polygon points=" 18,118 32,118 32,142 18,142" fill="rgb(255,170,170)"/>
<text x="20.0" y="135.0" font-family="courier" font-size="16" fill="rgb(0,0,0)">2</text>
<line x1="113.5" y1="75.0" x2="68.0" y2="130.0" stroke="rgb(255,0,0)" stroke-width="1.5"/>
<polygon points=" 61,118 75,118 75,142 61,142" fill="rgb(255,170,170)"/>
<text x="63.0" y="135.0" font-family="courier" font-size="16" fill="rgb(0,0,0)">4</text>
<line x1="113.5" y1="75.0" x2="111.0" y2="130.0" stroke="rgb(255,0,0)" stroke-width="1.5"/>
<polygon points=" 104,118 118,118 118,142 104,142" fill="rgb(255,170,170)"/>
<text x="106.0" y="135.0" font-family="courier" font-size="16" fill="rgb(0,0,0)">5</text>
<line x1="113.5" y1="75.0" x2="154.0" y2="130.0" stroke="rgb(255,0,0)" stroke-width="1.5"/>
<polygon points=" 147,118 161,118 161,142 147,142" fill="rgb(255,170,170)"/>
<text x="149.0" y="135.0" font-family="courier" font-size="16" fill="rgb(0,0,0)">7</text>
<line x1="113.5" y1="75.0" x2="202.0" y2="130.0" stroke="rgb(255,0,0)" stroke-width="1.5"/>
<polygon points=" 190,118 214,118 214,142 190,142" fill="rgb(255,170,170)"/>
<text x="192.0" y="135.0" font-family="courier" font-size="16" fill="rgb(0,0,0)">88</text>
<polygon points=" 102,63 126,63 126,87 102,87" fill="rgb(255,170,170)"/>
<text x="103.5" y="80.0" font-family="courier" font-size="16" fill="rgb(0,0,0)">[]</text>
<polygon points=" 72,8 156,8 156,32 72,32" fill="rgb(255,170,170)"/>
<text x="73.5" y="25.0" font-family="courier" font-size="16" fill="rgb(0,0,0)">reverseI</text></svg>