<svg xmlns="http://www.w3.org/2000/svg"
xmlns:xlink="http://www.w3.org/1999/xlink"
version="1.1" baseProfile="full"
width="295" height="150">
<line x1="103.25" y1="20.0" x2="30.0" y2="75.0" stroke="rgb(255,0,0)" stroke-width="1.5"/>
<line x1="30.0" y1="75.0" x2="30.0" y2="130.0" stroke="rgb(255,0,0)" stroke-width="1.5"/>
<polygon points=" 18,118 42,118 42,142 18,142" fill="rgb(255,170,170)"/>
<text x="20.0" y="135.0" font-family="courier" font-size="16" fill="rgb(0,0,0)">[]</text>
<polygon points=" 8,63 52,63 52,87 8,87" fill="rgb(255,170,170)"/>
<text x="10.0" y="80.0" font-family="courier" font-size="16" fill="rgb(0,0,0)">loop</text>
<line x1="103.25" y1="20.0" x2="176.5" y2="75.0" stroke="rgb(255,0,0)" stroke-width="1.5"/>
<line x1="176.5" y1="75.0" x2="88.0" y2="130.0" stroke="rgb(255,0,0)" stroke-width="1.5"/>
<polygon points=" 81,118 95,118 95,142 81,142" fill="rgb(255,170,170)"/>
<text x="83.0" y="135.0" font-family="courier" font-size="16" fill="rgb(0,0,0)">2</text>
<line x1="176.5" y1="75.0" x2="131.0" y2="130.0" stroke="rgb(255,0,0)" stroke-width="1.5"/>
<polygon points=" 124,118 138,118 138,142 124,142" fill="rgb(255,170,170)"/>
<text x="126.0" y="135.0" font-family="courier" font-size="16" fill="rgb(0,0,0)">4</text>
<line x1="176.5" y1="75.0" x2="174.0" y2="130.0" stroke="rgb(255,0,0)" stroke-width="1.5"/>
<polygon points=" 167,118 181,118 181,142 167,142" fill="rgb(255,170,170)"/>
<text x="169.0" y="135.0" font-family="courier" font-size="16" fill="rgb(0,0,0)">5</text>
<line x1="176.5" y1="75.0" x2="217.0" y2="130.0" stroke="rgb(255,0,0)" stroke-width="1.5"/>
<polygon points=" 210,118 224,118 224,142 210,142" fill="rgb(255,170,170)"/>
<text x="212.0" y="135.0" font-family="courier" font-size="16" fill="rgb(0,0,0)">7</text>
<line x1="176.5" y1="75.0" x2="265.0" y2="130.0" stroke="rgb(255,0,0)" stroke-width="1.5"/>
<polygon points=" 253,118 277,118 277,142 253,142" fill="rgb(255,170,170)"/>
<text x="255.0" y="135.0" font-family="courier" font-size="16" fill="rgb(0,0,0)">88</text>
<polygon points=" 164,63 188,63 188,87 164,87" fill="rgb(255,170,170)"/>
<text x="166.5" y="80.0" font-family="courier" font-size="16" fill="rgb(0,0,0)">[]</text>
<polygon points=" 96,8 110,8 110,32 96,32" fill="rgb(255,170,170)"/>
<text x="98.25" y="25.0" font-family="courier" font-size="16" fill="rgb(0,0,0)">$</text></svg>