<svg xmlns="http://www.w3.org/2000/svg"
xmlns:xlink="http://www.w3.org/1999/xlink"
version="1.1" baseProfile="full"
width="271" height="205">
<line x1="111.5" y1="20.0" x2="49.0" y2="75.0" stroke="rgb(255,0,0)" stroke-width="1.5"/>
<line x1="49.0" y1="75.0" x2="49.0" y2="130.0" stroke="rgb(255,0,0)" stroke-width="1.5"/>
<line x1="49.0" y1="130.0" x2="25.0" y2="185.0" stroke="rgb(255,0,0)" stroke-width="1.5"/>
<polygon points=" 18,173 32,173 32,197 18,197" fill="rgb(170,255,170)"/>
<text x="20.0" y="190.0" font-family="courier" font-size="16" fill="rgb(0,0,0)">2</text>
<line x1="49.0" y1="130.0" x2="73.0" y2="185.0" stroke="rgb(255,0,0)" stroke-width="1.5"/>
<polygon points=" 61,173 85,173 85,197 61,197" fill="rgb(170,255,170)"/>
<text x="63.0" y="190.0" font-family="courier" font-size="16" fill="rgb(0,0,0)">[]</text>
<polygon points=" 42,118 56,118 56,142 42,142" fill="rgb(170,255,170)"/>
<text x="44.0" y="135.0" font-family="courier" font-size="16" fill="rgb(0,0,0)">:</text>
<polygon points=" 27,63 71,63 71,87 27,87" fill="rgb(170,255,170)"/>
<text x="29.0" y="80.0" font-family="courier" font-size="16" fill="rgb(0,0,0)">loop</text>
<line x1="111.5" y1="20.0" x2="174.0" y2="75.0" stroke="rgb(255,0,0)" stroke-width="1.5"/>
<line x1="174.0" y1="75.0" x2="107.0" y2="130.0" stroke="rgb(255,0,0)" stroke-width="1.5"/>
<polygon points=" 100,118 114,118 114,142 100,142" fill="rgb(170,255,170)"/>
<text x="102.0" y="135.0" font-family="courier" font-size="16" fill="rgb(0,0,0)">4</text>
<line x1="174.0" y1="75.0" x2="150.0" y2="130.0" stroke="rgb(255,0,0)" stroke-width="1.5"/>
<polygon points=" 143,118 157,118 157,142 143,142" fill="rgb(170,255,170)"/>
<text x="145.0" y="135.0" font-family="courier" font-size="16" fill="rgb(0,0,0)">5</text>
<line x1="174.0" y1="75.0" x2="193.0" y2="130.0" stroke="rgb(255,0,0)" stroke-width="1.5"/>
<polygon points=" 186,118 200,118 200,142 186,142" fill="rgb(170,255,170)"/>
<text x="188.0" y="135.0" font-family="courier" font-size="16" fill="rgb(0,0,0)">7</text>
<line x1="174.0" y1="75.0" x2="241.0" y2="130.0" stroke="rgb(255,0,0)" stroke-width="1.5"/>
<polygon points=" 229,118 253,118 253,142 229,142" fill="rgb(170,255,170)"/>
<text x="231.0" y="135.0" font-family="courier" font-size="16" fill="rgb(0,0,0)">88</text>
<polygon points=" 162,63 186,63 186,87 162,87" fill="rgb(170,255,170)"/>
<text x="164.0" y="80.0" font-family="courier" font-size="16" fill="rgb(0,0,0)">[]</text>
<polygon points=" 104,8 118,8 118,32 104,32" fill="rgb(170,255,170)"/>
<text x="106.5" y="25.0" font-family="courier" font-size="16" fill="rgb(0,0,0)">$</text></svg>