<svg xmlns="http://www.w3.org/2000/svg"
xmlns:xlink="http://www.w3.org/1999/xlink"
version="1.1" baseProfile="full"
width="226" height="205">
<line x1="98.25" y1="20.0" x2="46.5" y2="75.0" stroke="rgb(255,0,0)" stroke-width="1.5"/>
<line x1="46.5" y1="75.0" x2="46.5" y2="130.0" stroke="rgb(255,0,0)" stroke-width="1.5"/>
<line x1="46.5" y1="130.0" x2="25.0" y2="185.0" stroke="rgb(255,0,0)" stroke-width="1.5"/>
<polygon points=" 18,173 32,173 32,197 18,197" fill="rgb(170,255,170)"/>
<text x="20.0" y="190.0" font-family="courier" font-size="16" fill="rgb(0,0,0)">4</text>
<line x1="46.5" y1="130.0" x2="68.0" y2="185.0" stroke="rgb(255,0,0)" stroke-width="1.5"/>
<polygon points=" 61,173 75,173 75,197 61,197" fill="rgb(170,255,170)"/>
<text x="63.0" y="190.0" font-family="courier" font-size="16" fill="rgb(0,0,0)">2</text>
<polygon points=" 34,118 58,118 58,142 34,142" fill="rgb(170,255,170)"/>
<text x="36.5" y="135.0" font-family="courier" font-size="16" fill="rgb(0,0,0)">[]</text>
<polygon points=" 24,63 68,63 68,87 24,87" fill="rgb(255,255,170)"/>
<text x="26.5" y="80.0" font-family="courier" font-size="16" fill="rgb(0,0,0)">loop</text>
<line x1="98.25" y1="20.0" x2="150.0" y2="75.0" stroke="rgb(255,0,0)" stroke-width="1.5"/>
<line x1="150.0" y1="75.0" x2="104.5" y2="130.0" stroke="rgb(255,0,0)" stroke-width="1.5"/>
<polygon points=" 98,118 112,118 112,142 98,142" fill="rgb(255,255,170)"/>
<text x="99.5" y="135.0" font-family="courier" font-size="16" fill="rgb(0,0,0)">5</text>
<line x1="150.0" y1="75.0" x2="147.5" y2="130.0" stroke="rgb(255,0,0)" stroke-width="1.5"/>
<polygon points=" 140,118 154,118 154,142 140,142" fill="rgb(255,255,170)"/>
<text x="142.5" y="135.0" font-family="courier" font-size="16" fill="rgb(0,0,0)">7</text>
<line x1="150.0" y1="75.0" x2="195.5" y2="130.0" stroke="rgb(255,0,0)" stroke-width="1.5"/>
<polygon points=" 184,118 208,118 208,142 184,142" fill="rgb(255,255,170)"/>
<text x="185.5" y="135.0" font-family="courier" font-size="16" fill="rgb(0,0,0)">88</text>
<polygon points=" 138,63 162,63 162,87 138,87" fill="rgb(255,255,170)"/>
<text x="140.0" y="80.0" font-family="courier" font-size="16" fill="rgb(0,0,0)">[]</text>
<polygon points=" 91,8 105,8 105,32 91,32" fill="rgb(255,255,170)"/>
<text x="93.25" y="25.0" font-family="courier" font-size="16" fill="rgb(0,0,0)">$</text></svg>