<svg xmlns="http://www.w3.org/2000/svg"
xmlns:xlink="http://www.w3.org/1999/xlink"
version="1.1" baseProfile="full"
width="204" height="205">
<line x1="109.0" y1="20.0" x2="68.0" y2="75.0" stroke="rgb(255,0,0)" stroke-width="1.5"/>
<line x1="68.0" y1="75.0" x2="68.0" y2="130.0" stroke="rgb(255,0,0)" stroke-width="1.5"/>
<line x1="68.0" y1="130.0" x2="25.0" y2="185.0" stroke="rgb(255,0,0)" stroke-width="1.5"/>
<polygon points=" 18,173 32,173 32,197 18,197" fill="rgb(170,255,170)"/>
<text x="20.0" y="190.0" font-family="courier" font-size="16" fill="rgb(0,0,0)">5</text>
<line x1="68.0" y1="130.0" x2="68.0" y2="185.0" stroke="rgb(255,0,0)" stroke-width="1.5"/>
<polygon points=" 61,173 75,173 75,197 61,197" fill="rgb(170,255,170)"/>
<text x="63.0" y="190.0" font-family="courier" font-size="16" fill="rgb(0,0,0)">4</text>
<line x1="68.0" y1="130.0" x2="111.0" y2="185.0" stroke="rgb(255,0,0)" stroke-width="1.5"/>
<polygon points=" 104,173 118,173 118,197 104,197" fill="rgb(170,255,170)"/>
<text x="106.0" y="190.0" font-family="courier" font-size="16" fill="rgb(0,0,0)">2</text>
<polygon points=" 56,118 80,118 80,142 56,142" fill="rgb(170,255,170)"/>
<text x="58.0" y="135.0" font-family="courier" font-size="16" fill="rgb(0,0,0)">[]</text>
<polygon points=" 46,63 90,63 90,87 46,87" fill="rgb(255,255,170)"/>
<text x="48.0" y="80.0" font-family="courier" font-size="16" fill="rgb(0,0,0)">loop</text>
<line x1="109.0" y1="20.0" x2="150.0" y2="75.0" stroke="rgb(255,0,0)" stroke-width="1.5"/>
<line x1="150.0" y1="75.0" x2="126.0" y2="130.0" stroke="rgb(255,0,0)" stroke-width="1.5"/>
<polygon points=" 119,118 133,118 133,142 119,142" fill="rgb(255,255,170)"/>
<text x="121.0" y="135.0" font-family="courier" font-size="16" fill="rgb(0,0,0)">7</text>
<line x1="150.0" y1="75.0" x2="174.0" y2="130.0" stroke="rgb(255,0,0)" stroke-width="1.5"/>
<polygon points=" 162,118 186,118 186,142 162,142" fill="rgb(255,255,170)"/>
<text x="164.0" y="135.0" font-family="courier" font-size="16" fill="rgb(0,0,0)">88</text>
<polygon points=" 138,63 162,63 162,87 138,87" fill="rgb(255,255,170)"/>
<text x="140.0" y="80.0" font-family="courier" font-size="16" fill="rgb(0,0,0)">[]</text>
<polygon points=" 102,8 116,8 116,32 102,32" fill="rgb(255,255,170)"/>
<text x="104.0" y="25.0" font-family="courier" font-size="16" fill="rgb(0,0,0)">$</text></svg>