<svg xmlns="http://www.w3.org/2000/svg"
xmlns:xlink="http://www.w3.org/1999/xlink"
version="1.1" baseProfile="full"
width="142" height="260">
<line x1="80.5" y1="20.0" x2="49.0" y2="75.0" stroke="rgb(255,0,0)" stroke-width="1.5"/>
<line x1="49.0" y1="75.0" x2="49.0" y2="130.0" stroke="rgb(255,0,0)" stroke-width="1.5"/>
<line x1="49.0" y1="130.0" x2="25.0" y2="185.0" stroke="rgb(255,0,0)" stroke-width="1.5"/>
<polygon points=" 18,173 32,173 32,197 18,197" fill="rgb(255,170,170)"/>
<text x="20.0" y="190.0" font-family="courier" font-size="16" fill="rgb(0,0,0)">7</text>
<line x1="49.0" y1="130.0" x2="73.0" y2="185.0" stroke="rgb(255,0,0)" stroke-width="1.5"/>
<line x1="73.0" y1="185.0" x2="30.0" y2="240.0" stroke="rgb(255,0,0)" stroke-width="1.5"/>
<polygon points=" 23,228 37,228 37,252 23,252" fill="rgb(255,170,170)"/>
<text x="25.0" y="245.0" font-family="courier" font-size="16" fill="rgb(0,0,0)">5</text>
<line x1="73.0" y1="185.0" x2="73.0" y2="240.0" stroke="rgb(255,0,0)" stroke-width="1.5"/>
<polygon points=" 66,228 80,228 80,252 66,252" fill="rgb(255,170,170)"/>
<text x="68.0" y="245.0" font-family="courier" font-size="16" fill="rgb(0,0,0)">4</text>
<line x1="73.0" y1="185.0" x2="116.0" y2="240.0" stroke="rgb(255,0,0)" stroke-width="1.5"/>
<polygon points=" 109,228 123,228 123,252 109,252" fill="rgb(255,170,170)"/>
<text x="111.0" y="245.0" font-family="courier" font-size="16" fill="rgb(0,0,0)">2</text>
<polygon points=" 61,173 85,173 85,197 61,197" fill="rgb(255,170,170)"/>
<text x="63.0" y="190.0" font-family="courier" font-size="16" fill="rgb(0,0,0)">[]</text>
<polygon points=" 42,118 56,118 56,142 42,142" fill="rgb(255,170,170)"/>
<text x="44.0" y="135.0" font-family="courier" font-size="16" fill="rgb(0,0,0)">:</text>
<polygon points=" 27,63 71,63 71,87 27,87" fill="rgb(255,255,170)"/>
<text x="29.0" y="80.0" font-family="courier" font-size="16" fill="rgb(0,0,0)">loop</text>
<line x1="80.5" y1="20.0" x2="112.0" y2="75.0" stroke="rgb(255,0,0)" stroke-width="1.5"/>
<line x1="112.0" y1="75.0" x2="112.0" y2="130.0" stroke="rgb(255,0,0)" stroke-width="1.5"/>
<polygon points=" 100,118 124,118 124,142 100,142" fill="rgb(255,255,170)"/>
<text x="102.0" y="135.0" font-family="courier" font-size="16" fill="rgb(0,0,0)">88</text>
<polygon points=" 100,63 124,63 124,87 100,87" fill="rgb(255,255,170)"/>
<text x="102.0" y="80.0" font-family="courier" font-size="16" fill="rgb(0,0,0)">[]</text>
<polygon points=" 74,8 88,8 88,32 74,32" fill="rgb(255,255,170)"/>
<text x="75.5" y="25.0" font-family="courier" font-size="16" fill="rgb(0,0,0)">$</text></svg>