<svg xmlns="http://www.w3.org/2000/svg"
xmlns:xlink="http://www.w3.org/1999/xlink"
version="1.1" baseProfile="full"
width="182" height="205">
<line x1="121.0" y1="20.0" x2="89.5" y2="75.0" stroke="rgb(255,0,0)" stroke-width="1.5"/>
<line x1="89.5" y1="75.0" x2="89.5" y2="130.0" stroke="rgb(255,0,0)" stroke-width="1.5"/>
<line x1="89.5" y1="130.0" x2="25.0" y2="185.0" stroke="rgb(255,0,0)" stroke-width="1.5"/>
<polygon points=" 18,173 32,173 32,197 18,197" fill="rgb(255,170,170)"/>
<text x="20.0" y="190.0" font-family="courier" font-size="16" fill="rgb(0,0,0)">7</text>
<line x1="89.5" y1="130.0" x2="68.0" y2="185.0" stroke="rgb(255,0,0)" stroke-width="1.5"/>
<polygon points=" 61,173 75,173 75,197 61,197" fill="rgb(255,170,170)"/>
<text x="63.0" y="190.0" font-family="courier" font-size="16" fill="rgb(0,0,0)">5</text>
<line x1="89.5" y1="130.0" x2="111.0" y2="185.0" stroke="rgb(255,0,0)" stroke-width="1.5"/>
<polygon points=" 104,173 118,173 118,197 104,197" fill="rgb(255,170,170)"/>
<text x="106.0" y="190.0" font-family="courier" font-size="16" fill="rgb(0,0,0)">4</text>
<line x1="89.5" y1="130.0" x2="154.0" y2="185.0" stroke="rgb(255,0,0)" stroke-width="1.5"/>
<polygon points=" 147,173 161,173 161,197 147,197" fill="rgb(255,170,170)"/>
<text x="149.0" y="190.0" font-family="courier" font-size="16" fill="rgb(0,0,0)">2</text>
<polygon points=" 78,118 102,118 102,142 78,142" fill="rgb(255,170,170)"/>
<text x="79.5" y="135.0" font-family="courier" font-size="16" fill="rgb(0,0,0)">[]</text>
<polygon points=" 68,63 112,63 112,87 68,87" fill="rgb(255,170,170)"/>
<text x="69.5" y="80.0" font-family="courier" font-size="16" fill="rgb(0,0,0)">loop</text>
<line x1="121.0" y1="20.0" x2="152.5" y2="75.0" stroke="rgb(255,0,0)" stroke-width="1.5"/>
<line x1="152.5" y1="75.0" x2="152.5" y2="130.0" stroke="rgb(255,0,0)" stroke-width="1.5"/>
<polygon points=" 140,118 164,118 164,142 140,142" fill="rgb(255,170,170)"/>
<text x="142.5" y="135.0" font-family="courier" font-size="16" fill="rgb(0,0,0)">88</text>
<polygon points=" 140,63 164,63 164,87 140,87" fill="rgb(255,170,170)"/>
<text x="142.5" y="80.0" font-family="courier" font-size="16" fill="rgb(0,0,0)">[]</text>
<polygon points=" 114,8 128,8 128,32 114,32" fill="rgb(255,170,170)"/>
<text x="116.0" y="25.0" font-family="courier" font-size="16" fill="rgb(0,0,0)">$</text></svg>