<svg xmlns="http://www.w3.org/2000/svg"
xmlns:xlink="http://www.w3.org/1999/xlink"
version="1.1" baseProfile="full"
width="232" height="205">
<line x1="150.0" y1="20.0" x2="118.5" y2="75.0" stroke="rgb(255,0,0)" stroke-width="1.5"/>
<line x1="118.5" y1="75.0" x2="118.5" y2="130.0" stroke="rgb(255,0,0)" stroke-width="1.5"/>
<line x1="118.5" y1="130.0" x2="30.0" y2="185.0" stroke="rgb(255,0,0)" stroke-width="1.5"/>
<polygon points=" 18,173 42,173 42,197 18,197" fill="rgb(170,255,170)"/>
<text x="20.0" y="190.0" font-family="courier" font-size="16" fill="rgb(0,0,0)">88</text>
<line x1="118.5" y1="130.0" x2="78.0" y2="185.0" stroke="rgb(255,0,0)" stroke-width="1.5"/>
<polygon points=" 71,173 85,173 85,197 71,197" fill="rgb(170,255,170)"/>
<text x="73.0" y="190.0" font-family="courier" font-size="16" fill="rgb(0,0,0)">7</text>
<line x1="118.5" y1="130.0" x2="121.0" y2="185.0" stroke="rgb(255,0,0)" stroke-width="1.5"/>
<polygon points=" 114,173 128,173 128,197 114,197" fill="rgb(170,255,170)"/>
<text x="116.0" y="190.0" font-family="courier" font-size="16" fill="rgb(0,0,0)">5</text>
<line x1="118.5" y1="130.0" x2="164.0" y2="185.0" stroke="rgb(255,0,0)" stroke-width="1.5"/>
<polygon points=" 157,173 171,173 171,197 157,197" fill="rgb(170,255,170)"/>
<text x="159.0" y="190.0" font-family="courier" font-size="16" fill="rgb(0,0,0)">4</text>
<line x1="118.5" y1="130.0" x2="207.0" y2="185.0" stroke="rgb(255,0,0)" stroke-width="1.5"/>
<polygon points=" 200,173 214,173 214,197 200,197" fill="rgb(170,255,170)"/>
<text x="202.0" y="190.0" font-family="courier" font-size="16" fill="rgb(0,0,0)">2</text>
<polygon points=" 106,118 130,118 130,142 106,142" fill="rgb(170,255,170)"/>
<text x="108.5" y="135.0" font-family="courier" font-size="16" fill="rgb(0,0,0)">[]</text>
<polygon points=" 96,63 140,63 140,87 96,87" fill="rgb(255,255,170)"/>
<text x="98.5" y="80.0" font-family="courier" font-size="16" fill="rgb(0,0,0)">loop</text>
<line x1="150.0" y1="20.0" x2="181.5" y2="75.0" stroke="rgb(255,0,0)" stroke-width="1.5"/>
<polygon points=" 170,63 194,63 194,87 170,87" fill="rgb(255,255,170)"/>
<text x="171.5" y="80.0" font-family="courier" font-size="16" fill="rgb(0,0,0)">[]</text>
<polygon points=" 143,8 157,8 157,32 143,32" fill="rgb(255,255,170)"/>
<text x="145.0" y="25.0" font-family="courier" font-size="16" fill="rgb(0,0,0)">$</text></svg>