<svg xmlns="http://www.w3.org/2000/svg"
xmlns:xlink="http://www.w3.org/1999/xlink"
version="1.1" baseProfile="full"
width="480" height="240">
<line x1="246.875" y1="20.0" x2="135.0" y2="60.0" stroke="rgb(255,0,0)" stroke-width="1.5"/>
<line x1="135.0" y1="60.0" x2="80.0" y2="100.0" stroke="rgb(255,0,0)" stroke-width="1.5"/>
<line x1="80.0" y1="100.0" x2="45.0" y2="140.0" stroke="rgb(255,0,0)" stroke-width="1.5"/>
<line x1="45.0" y1="140.0" x2="25.0" y2="180.0" stroke="rgb(255,0,0)" stroke-width="1.5"/>
<polygon points=" 18,168 32,168 32,192 18,192" fill="rgb(255,170,170)"/>
<text x="20.0" y="185.0" font-family="courier" font-size="16" fill="rgb(0,0,0)">x</text>
<line x1="45.0" y1="140.0" x2="45.0" y2="180.0" stroke="rgb(255,0,0)" stroke-width="1.5"/>
<polygon points=" 38,168 52,168 52,192 38,192" fill="rgb(255,170,170)"/>
<text x="40.0" y="185.0" font-family="courier" font-size="16" fill="rgb(0,0,0)">y</text>
<line x1="45.0" y1="140.0" x2="65.0" y2="180.0" stroke="rgb(255,0,0)" stroke-width="1.5"/>
<polygon points=" 58,168 72,168 72,192 58,192" fill="rgb(255,170,170)"/>
<text x="60.0" y="185.0" font-family="courier" font-size="16" fill="rgb(0,0,0)">z</text>
<polygon points=" 33,128 57,128 57,152 33,152" fill="rgb(255,170,170)"/>
<text x="35.0" y="145.0" font-family="courier" font-size="16" fill="rgb(0,0,0)">()</text>
<line x1="80.0" y1="100.0" x2="115.0" y2="140.0" stroke="rgb(255,0,0)" stroke-width="1.5"/>
<line x1="115.0" y1="140.0" x2="85.0" y2="180.0" stroke="rgb(255,0,0)" stroke-width="1.5"/>
<polygon points=" 78,168 92,168 92,192 78,192" fill="rgb(255,170,170)"/>
<text x="80.0" y="185.0" font-family="courier" font-size="16" fill="rgb(0,0,0)">x</text>
<line x1="115.0" y1="140.0" x2="105.0" y2="180.0" stroke="rgb(255,0,0)" stroke-width="1.5"/>
<line x1="105.0" y1="180.0" x2="95.0" y2="220.0" stroke="rgb(255,0,0)" stroke-width="1.5"/>
<polygon points=" 88,208 102,208 102,232 88,232" fill="rgb(255,170,170)"/>
<text x="90.0" y="225.0" font-family="courier" font-size="16" fill="rgb(0,0,0)">y</text>
<line x1="105.0" y1="180.0" x2="115.0" y2="220.0" stroke="rgb(255,0,0)" stroke-width="1.5"/>
<polygon points=" 108,208 122,208 122,232 108,232" fill="rgb(255,170,170)"/>
<text x="110.0" y="225.0" font-family="courier" font-size="16" fill="rgb(0,0,0)">5</text>
<polygon points=" 98,168 112,168 112,192 98,192" fill="rgb(255,170,170)"/>
<text x="100.0" y="185.0" font-family="courier" font-size="16" fill="rgb(0,0,0)">+</text>
<line x1="115.0" y1="140.0" x2="145.0" y2="180.0" stroke="rgb(255,0,0)" stroke-width="1.5"/>
<line x1="145.0" y1="180.0" x2="135.0" y2="220.0" stroke="rgb(255,0,0)" stroke-width="1.5"/>
<polygon points=" 128,208 142,208 142,232 128,232" fill="rgb(255,170,170)"/>
<text x="130.0" y="225.0" font-family="courier" font-size="16" fill="rgb(0,0,0)">z</text>
<line x1="145.0" y1="180.0" x2="155.0" y2="220.0" stroke="rgb(255,0,0)" stroke-width="1.5"/>
<polygon points=" 148,208 162,208 162,232 148,232" fill="rgb(255,170,170)"/>
<text x="150.0" y="225.0" font-family="courier" font-size="16" fill="rgb(0,0,0)">6</text>
<polygon points=" 138,168 152,168 152,192 138,192" fill="rgb(255,170,170)"/>
<text x="140.0" y="185.0" font-family="courier" font-size="16" fill="rgb(0,0,0)">*</text>
<polygon points=" 98,128 132,128 132,152 98,152" fill="rgb(255,170,170)"/>
<text x="100.0" y="145.0" font-family="courier" font-size="16" fill="rgb(0,0,0)">ite</text>
<polygon points=" 73,88 87,88 87,112 73,112" fill="rgb(255,170,170)"/>
<text x="75.0" y="105.0" font-family="courier" font-size="16" fill="rgb(0,0,0)">&#955;</text>
<line x1="135.0" y1="60.0" x2="190.0" y2="100.0" stroke="rgb(255,0,0)" stroke-width="1.5"/>
<line x1="190.0" y1="100.0" x2="160.0" y2="140.0" stroke="rgb(255,0,0)" stroke-width="1.5"/>
<polygon points=" 138,128 182,128 182,152 138,152" fill="rgb(255,170,170)"/>
<text x="140.0" y="145.0" font-family="courier" font-size="16" fill="rgb(0,0,0)">true</text>
<line x1="190.0" y1="100.0" x2="195.0" y2="140.0" stroke="rgb(255,0,0)" stroke-width="1.5"/>
<polygon points=" 188,128 202,128 202,152 188,152" fill="rgb(255,170,170)"/>
<text x="190.0" y="145.0" font-family="courier" font-size="16" fill="rgb(0,0,0)">4</text>
<line x1="190.0" y1="100.0" x2="220.0" y2="140.0" stroke="rgb(255,0,0)" stroke-width="1.5"/>
<polygon points=" 208,128 232,128 232,152 208,152" fill="rgb(255,170,170)"/>
<text x="210.0" y="145.0" font-family="courier" font-size="16" fill="rgb(0,0,0)">77</text>
<polygon points=" 178,88 202,88 202,112 178,112" fill="rgb(255,170,170)"/>
<text x="180.0" y="105.0" font-family="courier" font-size="16" fill="rgb(0,0,0)">()</text>
<polygon points=" 128,48 142,48 142,72 128,72" fill="rgb(255,170,170)"/>
<text x="130.0" y="65.0" font-family="courier" font-size="16" fill="rgb(0,0,0)">$</text>
<line x1="246.875" y1="20.0" x2="358.75" y2="60.0" stroke="rgb(255,0,0)" stroke-width="1.5"/>
<line x1="358.75" y1="60.0" x2="300.0" y2="100.0" stroke="rgb(255,0,0)" stroke-width="1.5"/>
<line x1="300.0" y1="100.0" x2="265.0" y2="140.0" stroke="rgb(255,0,0)" stroke-width="1.5"/>
<line x1="265.0" y1="140.0" x2="245.0" y2="180.0" stroke="rgb(255,0,0)" stroke-width="1.5"/>
<polygon points=" 238,168 252,168 252,192 238,192" fill="rgb(255,255,170)"/>
<text x="240.0" y="185.0" font-family="courier" font-size="16" fill="rgb(0,0,0)">x</text>
<line x1="265.0" y1="140.0" x2="265.0" y2="180.0" stroke="rgb(255,0,0)" stroke-width="1.5"/>
<polygon points=" 258,168 272,168 272,192 258,192" fill="rgb(255,255,170)"/>
<text x="260.0" y="185.0" font-family="courier" font-size="16" fill="rgb(0,0,0)">y</text>
<line x1="265.0" y1="140.0" x2="285.0" y2="180.0" stroke="rgb(255,0,0)" stroke-width="1.5"/>
<polygon points=" 278,168 292,168 292,192 278,192" fill="rgb(255,255,170)"/>
<text x="280.0" y="185.0" font-family="courier" font-size="16" fill="rgb(0,0,0)">z</text>
<polygon points=" 253,128 277,128 277,152 253,152" fill="rgb(255,255,170)"/>
<text x="255.0" y="145.0" font-family="courier" font-size="16" fill="rgb(0,0,0)">()</text>
<line x1="300.0" y1="100.0" x2="335.0" y2="140.0" stroke="rgb(255,0,0)" stroke-width="1.5"/>
<line x1="335.0" y1="140.0" x2="305.0" y2="180.0" stroke="rgb(255,0,0)" stroke-width="1.5"/>
<polygon points=" 298,168 312,168 312,192 298,192" fill="rgb(255,255,170)"/>
<text x="300.0" y="185.0" font-family="courier" font-size="16" fill="rgb(0,0,0)">x</text>
<line x1="335.0" y1="140.0" x2="325.0" y2="180.0" stroke="rgb(255,0,0)" stroke-width="1.5"/>
<line x1="325.0" y1="180.0" x2="315.0" y2="220.0" stroke="rgb(255,0,0)" stroke-width="1.5"/>
<polygon points=" 308,208 322,208 322,232 308,232" fill="rgb(255,255,170)"/>
<text x="310.0" y="225.0" font-family="courier" font-size="16" fill="rgb(0,0,0)">y</text>
<line x1="325.0" y1="180.0" x2="335.0" y2="220.0" stroke="rgb(255,0,0)" stroke-width="1.5"/>
<polygon points=" 328,208 342,208 342,232 328,232" fill="rgb(255,255,170)"/>
<text x="330.0" y="225.0" font-family="courier" font-size="16" fill="rgb(0,0,0)">5</text>
<polygon points=" 318,168 332,168 332,192 318,192" fill="rgb(255,255,170)"/>
<text x="320.0" y="185.0" font-family="courier" font-size="16" fill="rgb(0,0,0)">+</text>
<line x1="335.0" y1="140.0" x2="365.0" y2="180.0" stroke="rgb(255,0,0)" stroke-width="1.5"/>
<line x1="365.0" y1="180.0" x2="355.0" y2="220.0" stroke="rgb(255,0,0)" stroke-width="1.5"/>
<polygon points=" 348,208 362,208 362,232 348,232" fill="rgb(255,255,170)"/>
<text x="350.0" y="225.0" font-family="courier" font-size="16" fill="rgb(0,0,0)">z</text>
<line x1="365.0" y1="180.0" x2="375.0" y2="220.0" stroke="rgb(255,0,0)" stroke-width="1.5"/>
<polygon points=" 368,208 382,208 382,232 368,232" fill="rgb(255,255,170)"/>
<text x="370.0" y="225.0" font-family="courier" font-size="16" fill="rgb(0,0,0)">6</text>
<polygon points=" 358,168 372,168 372,192 358,192" fill="rgb(255,255,170)"/>
<text x="360.0" y="185.0" font-family="courier" font-size="16" fill="rgb(0,0,0)">*</text>
<polygon points=" 318,128 352,128 352,152 318,152" fill="rgb(255,255,170)"/>
<text x="320.0" y="145.0" font-family="courier" font-size="16" fill="rgb(0,0,0)">ite</text>
<polygon points=" 293,88 307,88 307,112 293,112" fill="rgb(255,255,170)"/>
<text x="295.0" y="105.0" font-family="courier" font-size="16" fill="rgb(0,0,0)">&#955;</text>
<line x1="358.75" y1="60.0" x2="417.5" y2="100.0" stroke="rgb(255,0,0)" stroke-width="1.5"/>
<line x1="417.5" y1="100.0" x2="385.0" y2="140.0" stroke="rgb(255,0,0)" stroke-width="1.5"/>
<polygon points=" 358,128 412,128 412,152 358,152" fill="rgb(255,255,170)"/>
<text x="360.0" y="145.0" font-family="courier" font-size="16" fill="rgb(0,0,0)">false</text>
<line x1="417.5" y1="100.0" x2="425.0" y2="140.0" stroke="rgb(255,0,0)" stroke-width="1.5"/>
<polygon points=" 418,128 432,128 432,152 418,152" fill="rgb(255,255,170)"/>
<text x="420.0" y="145.0" font-family="courier" font-size="16" fill="rgb(0,0,0)">4</text>
<line x1="417.5" y1="100.0" x2="450.0" y2="140.0" stroke="rgb(255,0,0)" stroke-width="1.5"/>
<polygon points=" 438,128 462,128 462,152 438,152" fill="rgb(255,255,170)"/>
<text x="440.0" y="145.0" font-family="courier" font-size="16" fill="rgb(0,0,0)">77</text>
<polygon points=" 406,88 430,88 430,112 406,112" fill="rgb(255,255,170)"/>
<text x="407.5" y="105.0" font-family="courier" font-size="16" fill="rgb(0,0,0)">()</text>
<polygon points=" 352,48 366,48 366,72 352,72" fill="rgb(255,255,170)"/>
<text x="353.75" y="65.0" font-family="courier" font-size="16" fill="rgb(0,0,0)">$</text>
<polygon points=" 240,8 254,8 254,32 240,32" fill="rgb(255,255,170)"/>
<text x="241.875" y="25.0" font-family="courier" font-size="16" fill="rgb(0,0,0)">+</text></svg>