<svg xmlns="http://www.w3.org/2000/svg"
xmlns:xlink="http://www.w3.org/1999/xlink"
version="1.1" baseProfile="full"
width="270" height="240">
<line x1="91.875" y1="20.0" x2="35.0" y2="60.0" stroke="rgb(255,0,0)" stroke-width="1.5"/>
<line x1="35.0" y1="60.0" x2="25.0" y2="100.0" stroke="rgb(255,0,0)" stroke-width="1.5"/>
<polygon points=" 18,88 32,88 32,112 18,112" fill="rgb(170,255,170)"/>
<text x="20.0" y="105.0" font-family="courier" font-size="16" fill="rgb(0,0,0)">4</text>
<line x1="35.0" y1="60.0" x2="45.0" y2="100.0" stroke="rgb(255,0,0)" stroke-width="1.5"/>
<polygon points=" 38,88 52,88 52,112 38,112" fill="rgb(170,255,170)"/>
<text x="40.0" y="105.0" font-family="courier" font-size="16" fill="rgb(0,0,0)">5</text>
<polygon points=" 28,48 42,48 42,72 28,72" fill="rgb(170,255,170)"/>
<text x="30.0" y="65.0" font-family="courier" font-size="16" fill="rgb(0,0,0)">+</text>
<line x1="91.875" y1="20.0" x2="148.75" y2="60.0" stroke="rgb(255,0,0)" stroke-width="1.5"/>
<line x1="148.75" y1="60.0" x2="90.0" y2="100.0" stroke="rgb(255,0,0)" stroke-width="1.5"/>
<line x1="90.0" y1="100.0" x2="55.0" y2="140.0" stroke="rgb(255,0,0)" stroke-width="1.5"/>
<line x1="55.0" y1="140.0" x2="35.0" y2="180.0" stroke="rgb(255,0,0)" stroke-width="1.5"/>
<polygon points=" 28,168 42,168 42,192 28,192" fill="rgb(255,255,170)"/>
<text x="30.0" y="185.0" font-family="courier" font-size="16" fill="rgb(0,0,0)">x</text>
<line x1="55.0" y1="140.0" x2="55.0" y2="180.0" stroke="rgb(255,0,0)" stroke-width="1.5"/>
<polygon points=" 48,168 62,168 62,192 48,192" fill="rgb(255,255,170)"/>
<text x="50.0" y="185.0" font-family="courier" font-size="16" fill="rgb(0,0,0)">y</text>
<line x1="55.0" y1="140.0" x2="75.0" y2="180.0" stroke="rgb(255,0,0)" stroke-width="1.5"/>
<polygon points=" 68,168 82,168 82,192 68,192" fill="rgb(255,255,170)"/>
<text x="70.0" y="185.0" font-family="courier" font-size="16" fill="rgb(0,0,0)">z</text>
<polygon points=" 43,128 67,128 67,152 43,152" fill="rgb(255,255,170)"/>
<text x="45.0" y="145.0" font-family="courier" font-size="16" fill="rgb(0,0,0)">()</text>
<line x1="90.0" y1="100.0" x2="125.0" y2="140.0" stroke="rgb(255,0,0)" stroke-width="1.5"/>
<line x1="125.0" y1="140.0" x2="95.0" y2="180.0" stroke="rgb(255,0,0)" stroke-width="1.5"/>
<polygon points=" 88,168 102,168 102,192 88,192" fill="rgb(255,255,170)"/>
<text x="90.0" y="185.0" font-family="courier" font-size="16" fill="rgb(0,0,0)">x</text>
<line x1="125.0" y1="140.0" x2="115.0" y2="180.0" stroke="rgb(255,0,0)" stroke-width="1.5"/>
<line x1="115.0" y1="180.0" x2="105.0" y2="220.0" stroke="rgb(255,0,0)" stroke-width="1.5"/>
<polygon points=" 98,208 112,208 112,232 98,232" fill="rgb(255,255,170)"/>
<text x="100.0" y="225.0" font-family="courier" font-size="16" fill="rgb(0,0,0)">y</text>
<line x1="115.0" y1="180.0" x2="125.0" y2="220.0" stroke="rgb(255,0,0)" stroke-width="1.5"/>
<polygon points=" 118,208 132,208 132,232 118,232" fill="rgb(255,255,170)"/>
<text x="120.0" y="225.0" font-family="courier" font-size="16" fill="rgb(0,0,0)">5</text>
<polygon points=" 108,168 122,168 122,192 108,192" fill="rgb(255,255,170)"/>
<text x="110.0" y="185.0" font-family="courier" font-size="16" fill="rgb(0,0,0)">+</text>
<line x1="125.0" y1="140.0" x2="155.0" y2="180.0" stroke="rgb(255,0,0)" stroke-width="1.5"/>
<line x1="155.0" y1="180.0" x2="145.0" y2="220.0" stroke="rgb(255,0,0)" stroke-width="1.5"/>
<polygon points=" 138,208 152,208 152,232 138,232" fill="rgb(255,255,170)"/>
<text x="140.0" y="225.0" font-family="courier" font-size="16" fill="rgb(0,0,0)">z</text>
<line x1="155.0" y1="180.0" x2="165.0" y2="220.0" stroke="rgb(255,0,0)" stroke-width="1.5"/>
<polygon points=" 158,208 172,208 172,232 158,232" fill="rgb(255,255,170)"/>
<text x="160.0" y="225.0" font-family="courier" font-size="16" fill="rgb(0,0,0)">6</text>
<polygon points=" 148,168 162,168 162,192 148,192" fill="rgb(255,255,170)"/>
<text x="150.0" y="185.0" font-family="courier" font-size="16" fill="rgb(0,0,0)">*</text>
<polygon points=" 108,128 142,128 142,152 108,152" fill="rgb(255,255,170)"/>
<text x="110.0" y="145.0" font-family="courier" font-size="16" fill="rgb(0,0,0)">ite</text>
<polygon points=" 83,88 97,88 97,112 83,112" fill="rgb(255,255,170)"/>
<text x="85.0" y="105.0" font-family="courier" font-size="16" fill="rgb(0,0,0)">&#955;</text>
<line x1="148.75" y1="60.0" x2="207.5" y2="100.0" stroke="rgb(255,0,0)" stroke-width="1.5"/>
<line x1="207.5" y1="100.0" x2="175.0" y2="140.0" stroke="rgb(255,0,0)" stroke-width="1.5"/>
<polygon points=" 148,128 202,128 202,152 148,152" fill="rgb(255,255,170)"/>
<text x="150.0" y="145.0" font-family="courier" font-size="16" fill="rgb(0,0,0)">false</text>
<line x1="207.5" y1="100.0" x2="215.0" y2="140.0" stroke="rgb(255,0,0)" stroke-width="1.5"/>
<polygon points=" 208,128 222,128 222,152 208,152" fill="rgb(255,255,170)"/>
<text x="210.0" y="145.0" font-family="courier" font-size="16" fill="rgb(0,0,0)">4</text>
<line x1="207.5" y1="100.0" x2="240.0" y2="140.0" stroke="rgb(255,0,0)" stroke-width="1.5"/>
<polygon points=" 228,128 252,128 252,152 228,152" fill="rgb(255,255,170)"/>
<text x="230.0" y="145.0" font-family="courier" font-size="16" fill="rgb(0,0,0)">77</text>
<polygon points=" 196,88 220,88 220,112 196,112" fill="rgb(255,255,170)"/>
<text x="197.5" y="105.0" font-family="courier" font-size="16" fill="rgb(0,0,0)">()</text>
<polygon points=" 142,48 156,48 156,72 142,72" fill="rgb(255,255,170)"/>
<text x="143.75" y="65.0" font-family="courier" font-size="16" fill="rgb(0,0,0)">$</text>
<polygon points=" 85,8 99,8 99,32 85,32" fill="rgb(255,255,170)"/>
<text x="86.875" y="25.0" font-family="courier" font-size="16" fill="rgb(0,0,0)">+</text></svg>