<svg xmlns="http://www.w3.org/2000/svg"
xmlns:xlink="http://www.w3.org/1999/xlink"
version="1.1" baseProfile="full"
width="260" height="240">
<line x1="81.875" y1="20.0" x2="25.0" y2="60.0" stroke="rgb(255,0,0)" stroke-width="1.5"/>
<polygon points=" 18,48 32,48 32,72 18,72" fill="rgb(170,255,170)"/>
<text x="20.0" y="65.0" font-family="courier" font-size="16" fill="rgb(0,0,0)">9</text>
<line x1="81.875" y1="20.0" x2="138.75" y2="60.0" stroke="rgb(255,0,0)" stroke-width="1.5"/>
<line x1="138.75" y1="60.0" x2="80.0" y2="100.0" stroke="rgb(255,0,0)" stroke-width="1.5"/>
<line x1="80.0" y1="100.0" x2="45.0" y2="140.0" stroke="rgb(255,0,0)" stroke-width="1.5"/>
<line x1="45.0" y1="140.0" x2="25.0" y2="180.0" stroke="rgb(255,0,0)" stroke-width="1.5"/>
<polygon points=" 18,168 32,168 32,192 18,192" fill="rgb(255,255,170)"/>
<text x="20.0" y="185.0" font-family="courier" font-size="16" fill="rgb(0,0,0)">x</text>
<line x1="45.0" y1="140.0" x2="45.0" y2="180.0" stroke="rgb(255,0,0)" stroke-width="1.5"/>
<polygon points=" 38,168 52,168 52,192 38,192" fill="rgb(255,255,170)"/>
<text x="40.0" y="185.0" font-family="courier" font-size="16" fill="rgb(0,0,0)">y</text>
<line x1="45.0" y1="140.0" x2="65.0" y2="180.0" stroke="rgb(255,0,0)" stroke-width="1.5"/>
<polygon points=" 58,168 72,168 72,192 58,192" fill="rgb(255,255,170)"/>
<text x="60.0" y="185.0" font-family="courier" font-size="16" fill="rgb(0,0,0)">z</text>
<polygon points=" 33,128 57,128 57,152 33,152" fill="rgb(255,255,170)"/>
<text x="35.0" y="145.0" font-family="courier" font-size="16" fill="rgb(0,0,0)">()</text>
<line x1="80.0" y1="100.0" x2="115.0" y2="140.0" stroke="rgb(255,0,0)" stroke-width="1.5"/>
<line x1="115.0" y1="140.0" x2="85.0" y2="180.0" stroke="rgb(255,0,0)" stroke-width="1.5"/>
<polygon points=" 78,168 92,168 92,192 78,192" fill="rgb(255,255,170)"/>
<text x="80.0" y="185.0" font-family="courier" font-size="16" fill="rgb(0,0,0)">x</text>
<line x1="115.0" y1="140.0" x2="105.0" y2="180.0" stroke="rgb(255,0,0)" stroke-width="1.5"/>
<line x1="105.0" y1="180.0" x2="95.0" y2="220.0" stroke="rgb(255,0,0)" stroke-width="1.5"/>
<polygon points=" 88,208 102,208 102,232 88,232" fill="rgb(255,255,170)"/>
<text x="90.0" y="225.0" font-family="courier" font-size="16" fill="rgb(0,0,0)">y</text>
<line x1="105.0" y1="180.0" x2="115.0" y2="220.0" stroke="rgb(255,0,0)" stroke-width="1.5"/>
<polygon points=" 108,208 122,208 122,232 108,232" fill="rgb(255,255,170)"/>
<text x="110.0" y="225.0" font-family="courier" font-size="16" fill="rgb(0,0,0)">5</text>
<polygon points=" 98,168 112,168 112,192 98,192" fill="rgb(255,255,170)"/>
<text x="100.0" y="185.0" font-family="courier" font-size="16" fill="rgb(0,0,0)">+</text>
<line x1="115.0" y1="140.0" x2="145.0" y2="180.0" stroke="rgb(255,0,0)" stroke-width="1.5"/>
<line x1="145.0" y1="180.0" x2="135.0" y2="220.0" stroke="rgb(255,0,0)" stroke-width="1.5"/>
<polygon points=" 128,208 142,208 142,232 128,232" fill="rgb(255,255,170)"/>
<text x="130.0" y="225.0" font-family="courier" font-size="16" fill="rgb(0,0,0)">z</text>
<line x1="145.0" y1="180.0" x2="155.0" y2="220.0" stroke="rgb(255,0,0)" stroke-width="1.5"/>
<polygon points=" 148,208 162,208 162,232 148,232" fill="rgb(255,255,170)"/>
<text x="150.0" y="225.0" font-family="courier" font-size="16" fill="rgb(0,0,0)">6</text>
<polygon points=" 138,168 152,168 152,192 138,192" fill="rgb(255,255,170)"/>
<text x="140.0" y="185.0" font-family="courier" font-size="16" fill="rgb(0,0,0)">*</text>
<polygon points=" 98,128 132,128 132,152 98,152" fill="rgb(255,255,170)"/>
<text x="100.0" y="145.0" font-family="courier" font-size="16" fill="rgb(0,0,0)">ite</text>
<polygon points=" 73,88 87,88 87,112 73,112" fill="rgb(255,255,170)"/>
<text x="75.0" y="105.0" font-family="courier" font-size="16" fill="rgb(0,0,0)">&#955;</text>
<line x1="138.75" y1="60.0" x2="197.5" y2="100.0" stroke="rgb(255,0,0)" stroke-width="1.5"/>
<line x1="197.5" y1="100.0" x2="165.0" y2="140.0" stroke="rgb(255,0,0)" stroke-width="1.5"/>
<polygon points=" 138,128 192,128 192,152 138,152" fill="rgb(255,255,170)"/>
<text x="140.0" y="145.0" font-family="courier" font-size="16" fill="rgb(0,0,0)">false</text>
<line x1="197.5" y1="100.0" x2="205.0" y2="140.0" stroke="rgb(255,0,0)" stroke-width="1.5"/>
<polygon points=" 198,128 212,128 212,152 198,152" fill="rgb(255,255,170)"/>
<text x="200.0" y="145.0" font-family="courier" font-size="16" fill="rgb(0,0,0)">4</text>
<line x1="197.5" y1="100.0" x2="230.0" y2="140.0" stroke="rgb(255,0,0)" stroke-width="1.5"/>
<polygon points=" 218,128 242,128 242,152 218,152" fill="rgb(255,255,170)"/>
<text x="220.0" y="145.0" font-family="courier" font-size="16" fill="rgb(0,0,0)">77</text>
<polygon points=" 186,88 210,88 210,112 186,112" fill="rgb(255,255,170)"/>
<text x="187.5" y="105.0" font-family="courier" font-size="16" fill="rgb(0,0,0)">()</text>
<polygon points=" 132,48 146,48 146,72 132,72" fill="rgb(255,255,170)"/>
<text x="133.75" y="65.0" font-family="courier" font-size="16" fill="rgb(0,0,0)">$</text>
<polygon points=" 75,8 89,8 89,32 75,32" fill="rgb(255,255,170)"/>
<text x="76.875" y="25.0" font-family="courier" font-size="16" fill="rgb(0,0,0)">+</text></svg>