<svg xmlns="http://www.w3.org/2000/svg"
xmlns:xlink="http://www.w3.org/1999/xlink"
version="1.1" baseProfile="full"
width="170" height="160">
<line x1="56.875" y1="20.0" x2="25.0" y2="60.0" stroke="rgb(255,0,0)" stroke-width="1.5"/>
<polygon points=" 18,48 32,48 32,72 18,72" fill="rgb(255,255,170)"/>
<text x="20.0" y="65.0" font-family="courier" font-size="16" fill="rgb(0,0,0)">9</text>
<line x1="56.875" y1="20.0" x2="88.75" y2="60.0" stroke="rgb(255,0,0)" stroke-width="1.5"/>
<line x1="88.75" y1="60.0" x2="45.0" y2="100.0" stroke="rgb(255,0,0)" stroke-width="1.5"/>
<polygon points=" 18,88 72,88 72,112 18,112" fill="rgb(170,255,170)"/>
<text x="20.0" y="105.0" font-family="courier" font-size="16" fill="rgb(0,0,0)">false</text>
<line x1="88.75" y1="60.0" x2="85.0" y2="100.0" stroke="rgb(255,0,0)" stroke-width="1.5"/>
<line x1="85.0" y1="100.0" x2="75.0" y2="140.0" stroke="rgb(255,0,0)" stroke-width="1.5"/>
<polygon points=" 68,128 82,128 82,152 68,152" fill="rgb(170,255,170)"/>
<text x="70.0" y="145.0" font-family="courier" font-size="16" fill="rgb(0,0,0)">4</text>
<line x1="85.0" y1="100.0" x2="95.0" y2="140.0" stroke="rgb(255,0,0)" stroke-width="1.5"/>
<polygon points=" 88,128 102,128 102,152 88,152" fill="rgb(170,255,170)"/>
<text x="90.0" y="145.0" font-family="courier" font-size="16" fill="rgb(0,0,0)">5</text>
<polygon points=" 78,88 92,88 92,112 78,112" fill="rgb(170,255,170)"/>
<text x="80.0" y="105.0" font-family="courier" font-size="16" fill="rgb(0,0,0)">+</text>
<line x1="88.75" y1="60.0" x2="132.5" y2="100.0" stroke="rgb(255,0,0)" stroke-width="1.5"/>
<line x1="132.5" y1="100.0" x2="120.0" y2="140.0" stroke="rgb(255,0,0)" stroke-width="1.5"/>
<polygon points=" 108,128 132,128 132,152 108,152" fill="rgb(170,255,170)"/>
<text x="110.0" y="145.0" font-family="courier" font-size="16" fill="rgb(0,0,0)">77</text>
<line x1="132.5" y1="100.0" x2="145.0" y2="140.0" stroke="rgb(255,0,0)" stroke-width="1.5"/>
<polygon points=" 138,128 152,128 152,152 138,152" fill="rgb(170,255,170)"/>
<text x="140.0" y="145.0" font-family="courier" font-size="16" fill="rgb(0,0,0)">6</text>
<polygon points=" 126,88 140,88 140,112 126,112" fill="rgb(170,255,170)"/>
<text x="127.5" y="105.0" font-family="courier" font-size="16" fill="rgb(0,0,0)">*</text>
<polygon points=" 72,48 106,48 106,72 72,72" fill="rgb(170,255,170)"/>
<text x="73.75" y="65.0" font-family="courier" font-size="16" fill="rgb(0,0,0)">ite</text>
<polygon points=" 50,8 64,8 64,32 50,32" fill="rgb(255,255,170)"/>
<text x="51.875" y="25.0" font-family="courier" font-size="16" fill="rgb(0,0,0)">+</text></svg>