<svg xmlns="http://www.w3.org/2000/svg"
xmlns:xlink="http://www.w3.org/1999/xlink"
version="1.1" baseProfile="full"
width="82" height="120">
<line x1="35.0" y1="20.0" x2="25.0" y2="60.0" stroke="rgb(255,0,0)" stroke-width="1.5"/>
<polygon points=" 18,48 32,48 32,72 18,72" fill="rgb(255,255,170)"/>
<text x="20.0" y="65.0" font-family="courier" font-size="16" fill="rgb(0,0,0)">9</text>
<line x1="35.0" y1="20.0" x2="45.0" y2="60.0" stroke="rgb(255,0,0)" stroke-width="1.5"/>
<line x1="45.0" y1="60.0" x2="32.5" y2="100.0" stroke="rgb(255,0,0)" stroke-width="1.5"/>
<polygon points=" 20,88 44,88 44,112 20,112" fill="rgb(170,255,170)"/>
<text x="22.5" y="105.0" font-family="courier" font-size="16" fill="rgb(0,0,0)">77</text>
<line x1="45.0" y1="60.0" x2="57.5" y2="100.0" stroke="rgb(255,0,0)" stroke-width="1.5"/>
<polygon points=" 50,88 64,88 64,112 50,112" fill="rgb(170,255,170)"/>
<text x="52.5" y="105.0" font-family="courier" font-size="16" fill="rgb(0,0,0)">6</text>
<polygon points=" 38,48 52,48 52,72 38,72" fill="rgb(170,255,170)"/>
<text x="40.0" y="65.0" font-family="courier" font-size="16" fill="rgb(0,0,0)">*</text>
<polygon points=" 28,8 42,8 42,32 28,32" fill="rgb(255,255,170)"/>
<text x="30.0" y="25.0" font-family="courier" font-size="16" fill="rgb(0,0,0)">+</text></svg>