<svg xmlns="http://www.w3.org/2000/svg" 
xmlns:xlink="http://www.w3.org/1999/xlink" 
version="1.1" baseProfile="full" 
width="776" height="772" >
<polygon points=" 736,386 352,386 470,20 351,385 40,160 351,386 40,612 351,387 470,752 352,387 736,386" fill="rgb(255,0,0)" />
<polygon points=" 719,386 366,375 465,37 346,369 54,170 333,386 54,602 346,403 465,736 366,397 719,386" fill="rgb(255,0,70)" />
<polygon points=" 702,386 380,365 460,53 340,352 68,180 316,386 68,592 340,420 460,719 380,407 702,386" fill="rgb(255,0,139)" /></svg>