<svg xmlns="http://www.w3.org/2000/svg" 
xmlns:xlink="http://www.w3.org/1999/xlink" 
version="1.1" baseProfile="full" 
width="776" height="772" >
<polygon points=" 736,386 352,386 470,20 351,385 40,160 351,386 40,612 351,387 470,752 352,387 736,386" fill="rgb(255,0,0)" />
<polygon points=" 719,386 366,375 465,37 346,369 54,170 333,386 54,602 346,403 465,736 366,397 719,386" fill="rgb(255,0,70)" />
<polygon points=" 702,386 380,365 460,53 340,352 68,180 316,386 68,592 340,420 460,719 380,407 702,386" fill="rgb(255,0,139)" />
<polygon points=" 684,386 394,355 454,70 335,336 82,191 298,386 82,582 335,437 454,702 394,417 684,386" fill="rgb(255,0,209)" />
<polygon points=" 667,386 409,345 449,86 330,319 97,201 281,386 97,571 330,453 449,686 409,428 667,386" fill="rgb(232,0,255)" />
<polygon points=" 649,386 423,334 443,103 324,302 111,211 263,386 111,561 324,470 443,669 423,438 649,386" fill="rgb(162,0,255)" />
<polygon points=" 632,386 437,324 438,120 319,286 125,221 246,386 125,551 319,487 438,653 437,448 632,386" fill="rgb(93,0,255)" />
<polygon points=" 614,386 451,314 433,136 313,269 139,232 228,386 139,541 313,503 433,636 451,458 614,386" fill="rgb(23,0,255)" />
<polygon points=" 597,386 465,304 427,153 308,253 153,242 211,386 153,530 308,520 427,619 465,469 597,386" fill="rgb(0,46,255)" />
<polygon points=" 579,386 479,293 422,170 303,236 167,252 194,386 167,520 303,536 422,603 479,479 579,386" fill="rgb(0,116,255)" />
<polygon points=" 562,386 493,283 416,186 297,219 181,263 176,386 181,510 297,553 416,586 493,489 562,386" fill="rgb(0,185,255)" />
<polygon points=" 544,386 507,273 411,203 292,203 195,273 159,386 195,500 292,570 411,570 507,500 544,386" fill="rgb(0,255,255)" />
<polygon points=" 527,386 522,263 406,219 286,186 210,283 141,386 210,489 286,586 406,553 522,510 527,386" fill="rgb(0,255,185)" />
<polygon points=" 509,386 536,252 400,236 281,170 224,293 124,386 224,479 281,603 400,536 536,520 509,386" fill="rgb(0,255,116)" />
<polygon points=" 492,386 550,242 395,253 276,153 238,304 106,386 238,469 276,619 395,520 550,530 492,386" fill="rgb(0,255,46)" />
<polygon points=" 474,386 564,232 389,269 270,136 252,314 89,386 252,458 270,636 389,503 564,541 474,386" fill="rgb(23,255,0)" /></svg>