<svg xmlns="http://www.w3.org/2000/svg" 
xmlns:xlink="http://www.w3.org/1999/xlink" 
version="1.1" baseProfile="full" 
width="780" height="772" >
<polygon points=" 740,386 356,386 474,20 355,385 44,160 354,386 44,612 355,387 474,752 356,387 740,386" fill="rgb(255,0,0)" />
<polygon points=" 723,386 370,375 469,37 350,369 58,170 337,386 58,602 350,403 469,736 370,397 723,386" fill="rgb(255,0,70)" />
<polygon points=" 705,386 384,365 463,53 344,352 72,180 319,386 72,592 344,420 463,719 384,407 705,386" fill="rgb(255,0,139)" />
<polygon points=" 688,386 398,355 458,70 339,336 86,191 302,386 86,582 339,437 458,702 398,417 688,386" fill="rgb(255,0,209)" />
<polygon points=" 670,386 412,345 453,86 333,319 100,201 285,386 100,571 333,453 453,686 412,428 670,386" fill="rgb(232,0,255)" />
<polygon points=" 653,386 426,334 447,103 328,302 114,211 267,386 114,561 328,470 447,669 426,438 653,386" fill="rgb(162,0,255)" />
<polygon points=" 635,386 440,324 442,120 323,286 128,221 250,386 128,551 323,487 442,653 440,448 635,386" fill="rgb(93,0,255)" />
<polygon points=" 618,386 455,314 436,136 317,269 143,232 232,386 143,541 317,503 436,636 455,458 618,386" fill="rgb(23,0,255)" />
<polygon points=" 600,386 469,304 431,153 312,253 157,242 215,386 157,530 312,520 431,619 469,469 600,386" fill="rgb(0,46,255)" />
<polygon points=" 583,386 483,293 426,170 306,236 171,252 197,386 171,520 306,536 426,603 483,479 583,386" fill="rgb(0,116,255)" />
<polygon points=" 565,386 497,283 420,186 301,219 185,263 180,386 185,510 301,553 420,586 497,489 565,386" fill="rgb(0,185,255)" />
<polygon points=" 548,386 511,273 415,203 296,203 199,273 162,386 199,500 296,570 415,570 511,500 548,386" fill="rgb(0,255,255)" />
<polygon points=" 531,386 525,263 409,219 290,186 213,283 145,386 213,489 290,586 409,553 525,510 531,386" fill="rgb(0,255,185)" />
<polygon points=" 513,386 539,252 404,236 285,170 227,293 127,386 227,479 285,603 404,536 539,520 513,386" fill="rgb(0,255,116)" />
<polygon points=" 496,386 554,242 399,253 279,153 242,304 110,386 242,469 279,619 399,520 554,530 496,386" fill="rgb(0,255,46)" />
<polygon points=" 478,386 568,232 393,269 274,136 256,314 92,386 256,458 274,636 393,503 568,541 478,386" fill="rgb(23,255,0)" />
<polygon points=" 461,386 582,221 388,286 269,120 270,324 75,386 270,448 269,653 388,487 582,551 461,386" fill="rgb(93,255,0)" />
<polygon points=" 443,386 596,211 382,302 263,103 284,334 57,386 284,438 263,669 382,470 596,561 443,386" fill="rgb(162,255,0)" />
<polygon points=" 426,386 610,201 377,319 258,86 298,345 40,386 298,428 258,686 377,453 610,571 426,386" fill="rgb(232,255,0)" /></svg>