<svg xmlns="http://www.w3.org/2000/svg" 
xmlns:xlink="http://www.w3.org/1999/xlink" 
version="1.1" baseProfile="full" 
width="798" height="772" >
<polygon points=" 758,386 373,386 492,20 372,385 61,160 372,386 61,612 372,387 492,752 373,387 758,386" fill="rgb(255,0,0)" />
<polygon points=" 740,386 387,375 486,37 367,369 75,170 354,386 75,602 367,403 486,736 387,397 740,386" fill="rgb(255,0,70)" />
<polygon points=" 723,386 401,365 481,53 362,352 89,180 337,386 89,592 362,420 481,719 401,407 723,386" fill="rgb(255,0,139)" />
<polygon points=" 705,386 416,355 475,70 356,336 104,191 319,386 104,582 356,437 475,702 416,417 705,386" fill="rgb(255,0,209)" />
<polygon points=" 688,386 430,345 470,86 351,319 118,201 302,386 118,571 351,453 470,686 430,428 688,386" fill="rgb(232,0,255)" />
<polygon points=" 670,386 444,334 465,103 345,302 132,211 285,386 132,561 345,470 465,669 444,438 670,386" fill="rgb(162,0,255)" />
<polygon points=" 653,386 458,324 459,120 340,286 146,221 267,386 146,551 340,487 459,653 458,448 653,386" fill="rgb(93,0,255)" />
<polygon points=" 635,386 472,314 454,136 335,269 160,232 250,386 160,541 335,503 454,636 472,458 635,386" fill="rgb(23,0,255)" />
<polygon points=" 618,386 486,304 448,153 329,253 174,242 232,386 174,530 329,520 448,619 486,469 618,386" fill="rgb(0,46,255)" />
<polygon points=" 600,386 500,293 443,170 324,236 188,252 215,386 188,520 324,536 443,603 500,479 600,386" fill="rgb(0,116,255)" />
<polygon points=" 583,386 514,283 438,186 318,219 202,263 197,386 202,510 318,553 438,586 514,489 583,386" fill="rgb(0,185,255)" />
<polygon points=" 565,386 529,273 432,203 313,203 217,273 180,386 217,500 313,570 432,570 529,500 565,386" fill="rgb(0,255,255)" />
<polygon points=" 548,386 543,263 427,219 308,186 231,283 162,386 231,489 308,586 427,553 543,510 548,386" fill="rgb(0,255,185)" />
<polygon points=" 531,386 557,252 421,236 302,170 245,293 145,386 245,479 302,603 421,536 557,520 531,386" fill="rgb(0,255,116)" />
<polygon points=" 513,386 571,242 416,253 297,153 259,304 127,386 259,469 297,619 416,520 571,530 513,386" fill="rgb(0,255,46)" />
<polygon points=" 496,386 585,232 411,269 291,136 273,314 110,386 273,458 291,636 411,503 585,541 496,386" fill="rgb(23,255,0)" />
<polygon points=" 478,386 599,221 405,286 286,120 287,324 92,386 287,448 286,653 405,487 599,551 478,386" fill="rgb(93,255,0)" />
<polygon points=" 461,386 613,211 400,302 281,103 301,334 75,386 301,438 281,669 400,470 613,561 461,386" fill="rgb(162,255,0)" />
<polygon points=" 443,386 628,201 394,319 275,86 316,345 57,386 316,428 275,686 394,453 628,571 443,386" fill="rgb(232,255,0)" />
<polygon points=" 426,386 642,191 389,336 270,70 330,355 40,386 330,417 270,702 389,437 642,582 426,386" fill="rgb(255,209,0)" /></svg>