<svg xmlns="http://www.w3.org/2000/svg" 
xmlns:xlink="http://www.w3.org/1999/xlink" 
version="1.1" baseProfile="full" 
width="815" height="772" >
<polygon points=" 775,386 391,386 509,20 390,385 79,160 389,386 79,612 390,387 509,752 391,387 775,386" fill="rgb(255,0,0)" />
<polygon points=" 758,386 405,375 504,37 384,369 93,170 372,386 93,602 384,403 504,736 405,397 758,386" fill="rgb(255,0,70)" />
<polygon points=" 740,386 419,365 498,53 379,352 107,180 354,386 107,592 379,420 498,719 419,407 740,386" fill="rgb(255,0,139)" />
<polygon points=" 723,386 433,355 493,70 374,336 121,191 337,386 121,582 374,437 493,702 433,417 723,386" fill="rgb(255,0,209)" />
<polygon points=" 705,386 447,345 487,86 368,319 135,201 319,386 135,571 368,453 487,686 447,428 705,386" fill="rgb(232,0,255)" />
<polygon points=" 688,386 461,334 482,103 363,302 149,211 302,386 149,561 363,470 482,669 461,438 688,386" fill="rgb(162,0,255)" />
<polygon points=" 670,386 475,324 477,120 357,286 163,221 285,386 163,551 357,487 477,653 475,448 670,386" fill="rgb(93,0,255)" />
<polygon points=" 653,386 490,314 471,136 352,269 178,232 267,386 178,541 352,503 471,636 490,458 653,386" fill="rgb(23,0,255)" />
<polygon points=" 635,386 504,304 466,153 347,253 192,242 250,386 192,530 347,520 466,619 504,469 635,386" fill="rgb(0,46,255)" />
<polygon points=" 618,386 518,293 460,170 341,236 206,252 232,386 206,520 341,536 460,603 518,479 618,386" fill="rgb(0,116,255)" />
<polygon points=" 600,386 532,283 455,186 336,219 220,263 215,386 220,510 336,553 455,586 532,489 600,386" fill="rgb(0,185,255)" />
<polygon points=" 583,386 546,273 450,203 330,203 234,273 197,386 234,500 330,570 450,570 546,500 583,386" fill="rgb(0,255,255)" />
<polygon points=" 565,386 560,263 444,219 325,186 248,283 180,386 248,489 325,586 444,553 560,510 565,386" fill="rgb(0,255,185)" />
<polygon points=" 548,386 574,252 439,236 320,170 262,293 162,386 262,479 320,603 439,536 574,520 548,386" fill="rgb(0,255,116)" />
<polygon points=" 531,386 588,242 433,253 314,153 276,304 145,386 276,469 314,619 433,520 588,530 531,386" fill="rgb(0,255,46)" />
<polygon points=" 513,386 603,232 428,269 309,136 291,314 127,386 291,458 309,636 428,503 603,541 513,386" fill="rgb(23,255,0)" />
<polygon points=" 496,386 617,221 423,286 303,120 305,324 110,386 305,448 303,653 423,487 617,551 496,386" fill="rgb(93,255,0)" />
<polygon points=" 478,386 631,211 417,302 298,103 319,334 92,386 319,438 298,669 417,470 631,561 478,386" fill="rgb(162,255,0)" />
<polygon points=" 461,386 645,201 412,319 293,86 333,345 75,386 333,428 293,686 412,453 645,571 461,386" fill="rgb(232,255,0)" />
<polygon points=" 443,386 659,191 406,336 287,70 347,355 57,386 347,417 287,702 406,437 659,582 443,386" fill="rgb(255,209,0)" />
<polygon points=" 426,386 673,180 401,352 282,53 361,365 40,386 361,407 282,719 401,420 673,592 426,386" fill="rgb(255,139,0)" /></svg>