<svg xmlns="http://www.w3.org/2000/svg" 
xmlns:xlink="http://www.w3.org/1999/xlink" 
version="1.1" baseProfile="full" 
width="833" height="772" >
<polygon points=" 793,386 408,386 527,20 407,385 96,160 407,386 96,612 407,387 527,752 408,387 793,386" fill="rgb(255,0,0)" />
<polygon points=" 775,386 422,375 521,37 402,369 110,170 389,386 110,602 402,403 521,736 422,397 775,386" fill="rgb(255,0,70)" />
<polygon points=" 758,386 436,365 516,53 397,352 124,180 372,386 124,592 397,420 516,719 436,407 758,386" fill="rgb(255,0,139)" />
<polygon points=" 740,386 450,355 510,70 391,336 138,191 354,386 138,582 391,437 510,702 450,417 740,386" fill="rgb(255,0,209)" />
<polygon points=" 723,386 465,345 505,86 386,319 153,201 337,386 153,571 386,453 505,686 465,428 723,386" fill="rgb(232,0,255)" />
<polygon points=" 705,386 479,334 500,103 380,302 167,211 319,386 167,561 380,470 500,669 479,438 705,386" fill="rgb(162,0,255)" />
<polygon points=" 688,386 493,324 494,120 375,286 181,221 302,386 181,551 375,487 494,653 493,448 688,386" fill="rgb(93,0,255)" />
<polygon points=" 670,386 507,314 489,136 370,269 195,232 285,386 195,541 370,503 489,636 507,458 670,386" fill="rgb(23,0,255)" />
<polygon points=" 653,386 521,304 483,153 364,253 209,242 267,386 209,530 364,520 483,619 521,469 653,386" fill="rgb(0,46,255)" />
<polygon points=" 635,386 535,293 478,170 359,236 223,252 250,386 223,520 359,536 478,603 535,479 635,386" fill="rgb(0,116,255)" />
<polygon points=" 618,386 549,283 473,186 353,219 237,263 232,386 237,510 353,553 473,586 549,489 618,386" fill="rgb(0,185,255)" />
<polygon points=" 600,386 564,273 467,203 348,203 252,273 215,386 252,500 348,570 467,570 564,500 600,386" fill="rgb(0,255,255)" />
<polygon points=" 583,386 578,263 462,219 343,186 266,283 197,386 266,489 343,586 462,553 578,510 583,386" fill="rgb(0,255,185)" />
<polygon points=" 565,386 592,252 456,236 337,170 280,293 180,386 280,479 337,603 456,536 592,520 565,386" fill="rgb(0,255,116)" />
<polygon points=" 548,386 606,242 451,253 332,153 294,304 162,386 294,469 332,619 451,520 606,530 548,386" fill="rgb(0,255,46)" />
<polygon points=" 531,386 620,232 446,269 326,136 308,314 145,386 308,458 326,636 446,503 620,541 531,386" fill="rgb(23,255,0)" />
<polygon points=" 513,386 634,221 440,286 321,120 322,324 127,386 322,448 321,653 440,487 634,551 513,386" fill="rgb(93,255,0)" />
<polygon points=" 496,386 648,211 435,302 316,103 336,334 110,386 336,438 316,669 435,470 648,561 496,386" fill="rgb(162,255,0)" />
<polygon points=" 478,386 662,201 429,319 310,86 350,345 92,386 350,428 310,686 429,453 662,571 478,386" fill="rgb(232,255,0)" />
<polygon points=" 461,386 677,191 424,336 305,70 365,355 75,386 365,417 305,702 424,437 677,582 461,386" fill="rgb(255,209,0)" />
<polygon points=" 443,386 691,180 419,352 299,53 379,365 57,386 379,407 299,719 419,420 691,592 443,386" fill="rgb(255,139,0)" />
<polygon points=" 426,386 705,170 413,369 294,37 393,375 40,386 393,397 294,736 413,403 705,602 426,386" fill="rgb(255,70,0)" /></svg>