<svg xmlns="http://www.w3.org/2000/svg" 
xmlns:xlink="http://www.w3.org/1999/xlink" 
version="1.1" baseProfile="full" 
width="850" height="772" >
<polygon points=" 810,386 426,386 544,20 425,385 114,160 424,386 114,612 425,387 544,752 426,387 810,386" fill="rgb(255,0,0)" />
<polygon points=" 793,386 440,375 539,37 419,369 128,170 407,386 128,602 419,403 539,736 440,397 793,386" fill="rgb(255,0,70)" />
<polygon points=" 775,386 454,365 533,53 414,352 142,180 389,386 142,592 414,420 533,719 454,407 775,386" fill="rgb(255,0,139)" />
<polygon points=" 758,386 468,355 528,70 409,336 156,191 372,386 156,582 409,437 528,702 468,417 758,386" fill="rgb(255,0,209)" />
<polygon points=" 740,386 482,345 522,86 403,319 170,201 354,386 170,571 403,453 522,686 482,428 740,386" fill="rgb(232,0,255)" />
<polygon points=" 723,386 496,334 517,103 398,302 184,211 337,386 184,561 398,470 517,669 496,438 723,386" fill="rgb(162,0,255)" />
<polygon points=" 705,386 510,324 512,120 392,286 198,221 319,386 198,551 392,487 512,653 510,448 705,386" fill="rgb(93,0,255)" />
<polygon points=" 688,386 524,314 506,136 387,269 212,232 302,386 212,541 387,503 506,636 524,458 688,386" fill="rgb(23,0,255)" />
<polygon points=" 670,386 539,304 501,153 382,253 227,242 285,386 227,530 382,520 501,619 539,469 670,386" fill="rgb(0,46,255)" />
<polygon points=" 653,386 553,293 495,170 376,236 241,252 267,386 241,520 376,536 495,603 553,479 653,386" fill="rgb(0,116,255)" />
<polygon points=" 635,386 567,283 490,186 371,219 255,263 250,386 255,510 371,553 490,586 567,489 635,386" fill="rgb(0,185,255)" />
<polygon points=" 618,386 581,273 485,203 365,203 269,273 232,386 269,500 365,570 485,570 581,500 618,386" fill="rgb(0,255,255)" />
<polygon points=" 600,386 595,263 479,219 360,186 283,283 215,386 283,489 360,586 479,553 595,510 600,386" fill="rgb(0,255,185)" />
<polygon points=" 583,386 609,252 474,236 355,170 297,293 197,386 297,479 355,603 474,536 609,520 583,386" fill="rgb(0,255,116)" />
<polygon points=" 565,386 623,242 468,253 349,153 311,304 180,386 311,469 349,619 468,520 623,530 565,386" fill="rgb(0,255,46)" />
<polygon points=" 548,386 638,232 463,269 344,136 326,314 162,386 326,458 344,636 463,503 638,541 548,386" fill="rgb(23,255,0)" />
<polygon points=" 531,386 652,221 458,286 338,120 340,324 145,386 340,448 338,653 458,487 652,551 531,386" fill="rgb(93,255,0)" />
<polygon points=" 513,386 666,211 452,302 333,103 354,334 127,386 354,438 333,669 452,470 666,561 513,386" fill="rgb(162,255,0)" />
<polygon points=" 496,386 680,201 447,319 328,86 368,345 110,386 368,428 328,686 447,453 680,571 496,386" fill="rgb(232,255,0)" />
<polygon points=" 478,386 694,191 441,336 322,70 382,355 92,386 382,417 322,702 441,437 694,582 478,386" fill="rgb(255,209,0)" />
<polygon points=" 461,386 708,180 436,352 317,53 396,365 75,386 396,407 317,719 436,420 708,592 461,386" fill="rgb(255,139,0)" />
<polygon points=" 443,386 722,170 431,369 311,37 410,375 57,386 410,397 311,736 431,403 722,602 443,386" fill="rgb(255,70,0)" />
<polygon points=" 426,386 736,160 425,385 306,20 424,386 40,386 424,387 306,752 425,387 736,612 426,386" fill="rgb(255,0,0)" /></svg>