<svg xmlns="http://www.w3.org/2000/svg"
xmlns:xlink="http://www.w3.org/1999/xlink"
version="1.1" baseProfile="full"
width="232" height="280">
<line x1="120.625" y1="20.0" x2="110.625" y2="60.0" stroke="rgb(255,0,0)" stroke-width="1.5"/>
<polygon points=" 104,48 118,48 118,72 104,72" fill="rgb(255,170,170)"/>
<text x="105.625" y="65.0" font-family="courier" font-size="16" fill="rgb(0,0,0)">5</text>
<line x1="120.625" y1="20.0" x2="130.625" y2="60.0" stroke="rgb(255,0,0)" stroke-width="1.5"/>
<line x1="130.625" y1="60.0" x2="86.25" y2="100.0" stroke="rgb(255,0,0)" stroke-width="1.5"/>
<line x1="86.25" y1="100.0" x2="76.25" y2="140.0" stroke="rgb(255,0,0)" stroke-width="1.5"/>
<polygon points=" 69,128 83,128 83,152 69,152" fill="rgb(255,170,170)"/>
<text x="71.25" y="145.0" font-family="courier" font-size="16" fill="rgb(0,0,0)">6</text>
<line x1="86.25" y1="100.0" x2="96.25" y2="140.0" stroke="rgb(255,0,0)" stroke-width="1.5"/>
<line x1="96.25" y1="140.0" x2="55.0" y2="180.0" stroke="rgb(255,0,0)" stroke-width="1.5"/>
<line x1="55.0" y1="180.0" x2="30.0" y2="220.0" stroke="rgb(255,0,0)" stroke-width="1.5"/>
<polygon points=" 18,208 42,208 42,232 18,232" fill="rgb(255,170,170)"/>
<text x="20.0" y="225.0" font-family="courier" font-size="16" fill="rgb(0,0,0)">11</text>
<line x1="55.0" y1="180.0" x2="55.0" y2="220.0" stroke="rgb(255,0,0)" stroke-width="1.5"/>
<line x1="55.0" y1="220.0" x2="35.0" y2="260.0" stroke="rgb(255,0,0)" stroke-width="1.5"/>
<polygon points=" 28,248 42,248 42,272 28,272" fill="rgb(255,170,170)"/>
<text x="30.0" y="265.0" font-family="courier" font-size="16" fill="rgb(0,0,0)">x</text>
<line x1="55.0" y1="220.0" x2="55.0" y2="260.0" stroke="rgb(255,0,0)" stroke-width="1.5"/>
<polygon points=" 48,248 62,248 62,272 48,272" fill="rgb(255,170,170)"/>
<text x="50.0" y="265.0" font-family="courier" font-size="16" fill="rgb(0,0,0)">y</text>
<line x1="55.0" y1="220.0" x2="75.0" y2="260.0" stroke="rgb(255,0,0)" stroke-width="1.5"/>
<polygon points=" 68,248 82,248 82,272 68,272" fill="rgb(255,170,170)"/>
<text x="70.0" y="265.0" font-family="courier" font-size="16" fill="rgb(0,0,0)">z</text>
<polygon points=" 48,208 62,208 62,232 48,232" fill="rgb(255,170,170)"/>
<text x="50.0" y="225.0" font-family="courier" font-size="16" fill="rgb(0,0,0)">+</text>
<line x1="55.0" y1="180.0" x2="80.0" y2="220.0" stroke="rgb(255,0,0)" stroke-width="1.5"/>
<polygon points=" 68,208 92,208 92,232 68,232" fill="rgb(255,170,170)"/>
<text x="70.0" y="225.0" font-family="courier" font-size="16" fill="rgb(0,0,0)">14</text>
<polygon points=" 48,168 62,168 62,192 48,192" fill="rgb(255,170,170)"/>
<text x="50.0" y="185.0" font-family="courier" font-size="16" fill="rgb(0,0,0)">*</text>
<line x1="96.25" y1="140.0" x2="137.5" y2="180.0" stroke="rgb(255,0,0)" stroke-width="1.5"/>
<line x1="137.5" y1="180.0" x2="125.0" y2="220.0" stroke="rgb(255,0,0)" stroke-width="1.5"/>
<line x1="125.0" y1="220.0" x2="105.0" y2="260.0" stroke="rgb(255,0,0)" stroke-width="1.5"/>
<polygon points=" 98,248 112,248 112,272 98,272" fill="rgb(255,170,170)"/>
<text x="100.0" y="265.0" font-family="courier" font-size="16" fill="rgb(0,0,0)">c</text>
<line x1="125.0" y1="220.0" x2="125.0" y2="260.0" stroke="rgb(255,0,0)" stroke-width="1.5"/>
<polygon points=" 118,248 132,248 132,272 118,272" fill="rgb(255,170,170)"/>
<text x="120.0" y="265.0" font-family="courier" font-size="16" fill="rgb(0,0,0)">g</text>
<line x1="125.0" y1="220.0" x2="145.0" y2="260.0" stroke="rgb(255,0,0)" stroke-width="1.5"/>
<polygon points=" 138,248 152,248 152,272 138,272" fill="rgb(255,170,170)"/>
<text x="140.0" y="265.0" font-family="courier" font-size="16" fill="rgb(0,0,0)">b</text>
<polygon points=" 118,208 132,208 132,232 118,232" fill="rgb(255,170,170)"/>
<text x="120.0" y="225.0" font-family="courier" font-size="16" fill="rgb(0,0,0)">+</text>
<line x1="137.5" y1="180.0" x2="150.0" y2="220.0" stroke="rgb(255,0,0)" stroke-width="1.5"/>
<polygon points=" 138,208 162,208 162,232 138,232" fill="rgb(255,170,170)"/>
<text x="140.0" y="225.0" font-family="courier" font-size="16" fill="rgb(0,0,0)">22</text>
<polygon points=" 130,168 144,168 144,192 130,192" fill="rgb(255,170,170)"/>
<text x="132.5" y="185.0" font-family="courier" font-size="16" fill="rgb(0,0,0)">*</text>
<polygon points=" 89,128 103,128 103,152 89,152" fill="rgb(255,170,170)"/>
<text x="91.25" y="145.0" font-family="courier" font-size="16" fill="rgb(0,0,0)">+</text>
<polygon points=" 79,88 93,88 93,112 79,112" fill="rgb(255,170,170)"/>
<text x="81.25" y="105.0" font-family="courier" font-size="16" fill="rgb(0,0,0)">*</text>
<line x1="130.625" y1="60.0" x2="175.0" y2="100.0" stroke="rgb(255,0,0)" stroke-width="1.5"/>
<line x1="175.0" y1="100.0" x2="162.5" y2="140.0" stroke="rgb(255,0,0)" stroke-width="1.5"/>
<polygon points=" 150,128 174,128 174,152 150,152" fill="rgb(255,170,170)"/>
<text x="152.5" y="145.0" font-family="courier" font-size="16" fill="rgb(0,0,0)">44</text>
<line x1="175.0" y1="100.0" x2="187.5" y2="140.0" stroke="rgb(255,0,0)" stroke-width="1.5"/>
<line x1="187.5" y1="140.0" x2="172.5" y2="180.0" stroke="rgb(255,0,0)" stroke-width="1.5"/>
<polygon points=" 160,168 184,168 184,192 160,192" fill="rgb(255,170,170)"/>
<text x="162.5" y="185.0" font-family="courier" font-size="16" fill="rgb(0,0,0)">gg</text>
<line x1="187.5" y1="140.0" x2="202.5" y2="180.0" stroke="rgb(255,0,0)" stroke-width="1.5"/>
<polygon points=" 190,168 214,168 214,192 190,192" fill="rgb(255,170,170)"/>
<text x="192.5" y="185.0" font-family="courier" font-size="16" fill="rgb(0,0,0)">hh</text>
<polygon points=" 180,128 194,128 194,152 180,152" fill="rgb(255,170,170)"/>
<text x="182.5" y="145.0" font-family="courier" font-size="16" fill="rgb(0,0,0)">+</text>
<polygon points=" 168,88 182,88 182,112 168,112" fill="rgb(255,170,170)"/>
<text x="170.0" y="105.0" font-family="courier" font-size="16" fill="rgb(0,0,0)">*</text>
<polygon points=" 124,48 138,48 138,72 124,72" fill="rgb(255,170,170)"/>
<text x="125.625" y="65.0" font-family="courier" font-size="16" fill="rgb(0,0,0)">+</text>
<polygon points=" 114,8 128,8 128,32 114,32" fill="rgb(255,170,170)"/>
<text x="115.625" y="25.0" font-family="courier" font-size="16" fill="rgb(0,0,0)">*</text></svg>