<svg xmlns="http://www.w3.org/2000/svg"
xmlns:xlink="http://www.w3.org/1999/xlink"
version="1.1" baseProfile="full"
width="565" height="280">
<line x1="354.375" y1="20.0" x2="228.75" y2="60.0" stroke="rgb(255,0,0)" stroke-width="1.5"/>
<line x1="228.75" y1="60.0" x2="115.0" y2="100.0" stroke="rgb(255,0,0)" stroke-width="1.5"/>
<line x1="115.0" y1="100.0" x2="35.0" y2="140.0" stroke="rgb(255,0,0)" stroke-width="1.5"/>
<line x1="35.0" y1="140.0" x2="25.0" y2="180.0" stroke="rgb(255,0,0)" stroke-width="1.5"/>
<polygon points=" 18,168 32,168 32,192 18,192" fill="rgb(255,255,170)"/>
<text x="20.0" y="185.0" font-family="courier" font-size="16" fill="rgb(0,0,0)">5</text>
<line x1="35.0" y1="140.0" x2="45.0" y2="180.0" stroke="rgb(255,0,0)" stroke-width="1.5"/>
<line x1="45.0" y1="180.0" x2="35.0" y2="220.0" stroke="rgb(255,0,0)" stroke-width="1.5"/>
<polygon points=" 28,208 42,208 42,232 28,232" fill="rgb(255,255,170)"/>
<text x="30.0" y="225.0" font-family="courier" font-size="16" fill="rgb(0,0,0)">6</text>
<line x1="45.0" y1="180.0" x2="55.0" y2="220.0" stroke="rgb(255,0,0)" stroke-width="1.5"/>
<line x1="55.0" y1="220.0" x2="30.0" y2="260.0" stroke="rgb(255,0,0)" stroke-width="1.5"/>
<polygon points=" 18,248 42,248 42,272 18,272" fill="rgb(255,255,170)"/>
<text x="20.0" y="265.0" font-family="courier" font-size="16" fill="rgb(0,0,0)">11</text>
<line x1="55.0" y1="220.0" x2="55.0" y2="260.0" stroke="rgb(255,0,0)" stroke-width="1.5"/>
<polygon points=" 48,248 62,248 62,272 48,272" fill="rgb(255,255,170)"/>
<text x="50.0" y="265.0" font-family="courier" font-size="16" fill="rgb(0,0,0)">x</text>
<line x1="55.0" y1="220.0" x2="80.0" y2="260.0" stroke="rgb(255,0,0)" stroke-width="1.5"/>
<polygon points=" 68,248 92,248 92,272 68,272" fill="rgb(255,255,170)"/>
<text x="70.0" y="265.0" font-family="courier" font-size="16" fill="rgb(0,0,0)">14</text>
<polygon points=" 48,208 62,208 62,232 48,232" fill="rgb(255,255,170)"/>
<text x="50.0" y="225.0" font-family="courier" font-size="16" fill="rgb(0,0,0)">*</text>
<polygon points=" 38,168 52,168 52,192 38,192" fill="rgb(255,255,170)"/>
<text x="40.0" y="185.0" font-family="courier" font-size="16" fill="rgb(0,0,0)">*</text>
<polygon points=" 28,128 42,128 42,152 28,152" fill="rgb(255,255,170)"/>
<text x="30.0" y="145.0" font-family="courier" font-size="16" fill="rgb(0,0,0)">*</text>
<line x1="115.0" y1="100.0" x2="115.0" y2="140.0" stroke="rgb(255,0,0)" stroke-width="1.5"/>
<line x1="115.0" y1="140.0" x2="105.0" y2="180.0" stroke="rgb(255,0,0)" stroke-width="1.5"/>
<polygon points=" 98,168 112,168 112,192 98,192" fill="rgb(255,255,170)"/>
<text x="100.0" y="185.0" font-family="courier" font-size="16" fill="rgb(0,0,0)">5</text>
<line x1="115.0" y1="140.0" x2="125.0" y2="180.0" stroke="rgb(255,0,0)" stroke-width="1.5"/>
<line x1="125.0" y1="180.0" x2="115.0" y2="220.0" stroke="rgb(255,0,0)" stroke-width="1.5"/>
<polygon points=" 108,208 122,208 122,232 108,232" fill="rgb(255,255,170)"/>
<text x="110.0" y="225.0" font-family="courier" font-size="16" fill="rgb(0,0,0)">6</text>
<line x1="125.0" y1="180.0" x2="135.0" y2="220.0" stroke="rgb(255,0,0)" stroke-width="1.5"/>
<line x1="135.0" y1="220.0" x2="110.0" y2="260.0" stroke="rgb(255,0,0)" stroke-width="1.5"/>
<polygon points=" 98,248 122,248 122,272 98,272" fill="rgb(255,255,170)"/>
<text x="100.0" y="265.0" font-family="courier" font-size="16" fill="rgb(0,0,0)">11</text>
<line x1="135.0" y1="220.0" x2="135.0" y2="260.0" stroke="rgb(255,0,0)" stroke-width="1.5"/>
<polygon points=" 128,248 142,248 142,272 128,272" fill="rgb(255,255,170)"/>
<text x="130.0" y="265.0" font-family="courier" font-size="16" fill="rgb(0,0,0)">y</text>
<line x1="135.0" y1="220.0" x2="160.0" y2="260.0" stroke="rgb(255,0,0)" stroke-width="1.5"/>
<polygon points=" 148,248 172,248 172,272 148,272" fill="rgb(255,255,170)"/>
<text x="150.0" y="265.0" font-family="courier" font-size="16" fill="rgb(0,0,0)">14</text>
<polygon points=" 128,208 142,208 142,232 128,232" fill="rgb(255,255,170)"/>
<text x="130.0" y="225.0" font-family="courier" font-size="16" fill="rgb(0,0,0)">*</text>
<polygon points=" 118,168 132,168 132,192 118,192" fill="rgb(255,255,170)"/>
<text x="120.0" y="185.0" font-family="courier" font-size="16" fill="rgb(0,0,0)">*</text>
<polygon points=" 108,128 122,128 122,152 108,152" fill="rgb(255,255,170)"/>
<text x="110.0" y="145.0" font-family="courier" font-size="16" fill="rgb(0,0,0)">*</text>
<line x1="115.0" y1="100.0" x2="195.0" y2="140.0" stroke="rgb(255,0,0)" stroke-width="1.5"/>
<line x1="195.0" y1="140.0" x2="185.0" y2="180.0" stroke="rgb(255,0,0)" stroke-width="1.5"/>
<polygon points=" 178,168 192,168 192,192 178,192" fill="rgb(255,255,170)"/>
<text x="180.0" y="185.0" font-family="courier" font-size="16" fill="rgb(0,0,0)">5</text>
<line x1="195.0" y1="140.0" x2="205.0" y2="180.0" stroke="rgb(255,0,0)" stroke-width="1.5"/>
<line x1="205.0" y1="180.0" x2="195.0" y2="220.0" stroke="rgb(255,0,0)" stroke-width="1.5"/>
<polygon points=" 188,208 202,208 202,232 188,232" fill="rgb(255,255,170)"/>
<text x="190.0" y="225.0" font-family="courier" font-size="16" fill="rgb(0,0,0)">6</text>
<line x1="205.0" y1="180.0" x2="215.0" y2="220.0" stroke="rgb(255,0,0)" stroke-width="1.5"/>
<line x1="215.0" y1="220.0" x2="190.0" y2="260.0" stroke="rgb(255,0,0)" stroke-width="1.5"/>
<polygon points=" 178,248 202,248 202,272 178,272" fill="rgb(255,255,170)"/>
<text x="180.0" y="265.0" font-family="courier" font-size="16" fill="rgb(0,0,0)">11</text>
<line x1="215.0" y1="220.0" x2="215.0" y2="260.0" stroke="rgb(255,0,0)" stroke-width="1.5"/>
<polygon points=" 208,248 222,248 222,272 208,272" fill="rgb(255,255,170)"/>
<text x="210.0" y="265.0" font-family="courier" font-size="16" fill="rgb(0,0,0)">z</text>
<line x1="215.0" y1="220.0" x2="240.0" y2="260.0" stroke="rgb(255,0,0)" stroke-width="1.5"/>
<polygon points=" 228,248 252,248 252,272 228,272" fill="rgb(255,255,170)"/>
<text x="230.0" y="265.0" font-family="courier" font-size="16" fill="rgb(0,0,0)">14</text>
<polygon points=" 208,208 222,208 222,232 208,232" fill="rgb(255,255,170)"/>
<text x="210.0" y="225.0" font-family="courier" font-size="16" fill="rgb(0,0,0)">*</text>
<polygon points=" 198,168 212,168 212,192 198,192" fill="rgb(255,255,170)"/>
<text x="200.0" y="185.0" font-family="courier" font-size="16" fill="rgb(0,0,0)">*</text>
<polygon points=" 188,128 202,128 202,152 188,152" fill="rgb(255,255,170)"/>
<text x="190.0" y="145.0" font-family="courier" font-size="16" fill="rgb(0,0,0)">*</text>
<polygon points=" 108,88 122,88 122,112 108,112" fill="rgb(255,255,170)"/>
<text x="110.0" y="105.0" font-family="courier" font-size="16" fill="rgb(0,0,0)">+</text>
<line x1="228.75" y1="60.0" x2="342.5" y2="100.0" stroke="rgb(255,0,0)" stroke-width="1.5"/>
<line x1="342.5" y1="100.0" x2="275.0" y2="140.0" stroke="rgb(255,0,0)" stroke-width="1.5"/>
<line x1="275.0" y1="140.0" x2="265.0" y2="180.0" stroke="rgb(255,0,0)" stroke-width="1.5"/>
<polygon points=" 258,168 272,168 272,192 258,192" fill="rgb(255,255,170)"/>
<text x="260.0" y="185.0" font-family="courier" font-size="16" fill="rgb(0,0,0)">5</text>
<line x1="275.0" y1="140.0" x2="285.0" y2="180.0" stroke="rgb(255,0,0)" stroke-width="1.5"/>
<line x1="285.0" y1="180.0" x2="275.0" y2="220.0" stroke="rgb(255,0,0)" stroke-width="1.5"/>
<polygon points=" 268,208 282,208 282,232 268,232" fill="rgb(255,255,170)"/>
<text x="270.0" y="225.0" font-family="courier" font-size="16" fill="rgb(0,0,0)">6</text>
<line x1="285.0" y1="180.0" x2="295.0" y2="220.0" stroke="rgb(255,0,0)" stroke-width="1.5"/>
<line x1="295.0" y1="220.0" x2="282.5" y2="260.0" stroke="rgb(255,0,0)" stroke-width="1.5"/>
<polygon points=" 276,248 290,248 290,272 276,272" fill="rgb(255,255,170)"/>
<text x="277.5" y="265.0" font-family="courier" font-size="16" fill="rgb(0,0,0)">c</text>
<line x1="295.0" y1="220.0" x2="307.5" y2="260.0" stroke="rgb(255,0,0)" stroke-width="1.5"/>
<polygon points=" 296,248 320,248 320,272 296,272" fill="rgb(255,255,170)"/>
<text x="297.5" y="265.0" font-family="courier" font-size="16" fill="rgb(0,0,0)">22</text>
<polygon points=" 288,208 302,208 302,232 288,232" fill="rgb(255,255,170)"/>
<text x="290.0" y="225.0" font-family="courier" font-size="16" fill="rgb(0,0,0)">*</text>
<polygon points=" 278,168 292,168 292,192 278,192" fill="rgb(255,255,170)"/>
<text x="280.0" y="185.0" font-family="courier" font-size="16" fill="rgb(0,0,0)">*</text>
<polygon points=" 268,128 282,128 282,152 268,152" fill="rgb(255,255,170)"/>
<text x="270.0" y="145.0" font-family="courier" font-size="16" fill="rgb(0,0,0)">*</text>
<line x1="342.5" y1="100.0" x2="342.5" y2="140.0" stroke="rgb(255,0,0)" stroke-width="1.5"/>
<line x1="342.5" y1="140.0" x2="332.5" y2="180.0" stroke="rgb(255,0,0)" stroke-width="1.5"/>
<polygon points=" 326,168 340,168 340,192 326,192" fill="rgb(255,255,170)"/>
<text x="327.5" y="185.0" font-family="courier" font-size="16" fill="rgb(0,0,0)">5</text>
<line x1="342.5" y1="140.0" x2="352.5" y2="180.0" stroke="rgb(255,0,0)" stroke-width="1.5"/>
<line x1="352.5" y1="180.0" x2="342.5" y2="220.0" stroke="rgb(255,0,0)" stroke-width="1.5"/>
<polygon points=" 336,208 350,208 350,232 336,232" fill="rgb(255,255,170)"/>
<text x="337.5" y="225.0" font-family="courier" font-size="16" fill="rgb(0,0,0)">6</text>
<line x1="352.5" y1="180.0" x2="362.5" y2="220.0" stroke="rgb(255,0,0)" stroke-width="1.5"/>
<line x1="362.5" y1="220.0" x2="350.0" y2="260.0" stroke="rgb(255,0,0)" stroke-width="1.5"/>
<polygon points=" 343,248 357,248 357,272 343,272" fill="rgb(255,255,170)"/>
<text x="345.0" y="265.0" font-family="courier" font-size="16" fill="rgb(0,0,0)">g</text>
<line x1="362.5" y1="220.0" x2="375.0" y2="260.0" stroke="rgb(255,0,0)" stroke-width="1.5"/>
<polygon points=" 363,248 387,248 387,272 363,272" fill="rgb(255,255,170)"/>
<text x="365.0" y="265.0" font-family="courier" font-size="16" fill="rgb(0,0,0)">22</text>
<polygon points=" 356,208 370,208 370,232 356,232" fill="rgb(255,255,170)"/>
<text x="357.5" y="225.0" font-family="courier" font-size="16" fill="rgb(0,0,0)">*</text>
<polygon points=" 346,168 360,168 360,192 346,192" fill="rgb(255,255,170)"/>
<text x="347.5" y="185.0" font-family="courier" font-size="16" fill="rgb(0,0,0)">*</text>
<polygon points=" 336,128 350,128 350,152 336,152" fill="rgb(255,255,170)"/>
<text x="337.5" y="145.0" font-family="courier" font-size="16" fill="rgb(0,0,0)">*</text>
<line x1="342.5" y1="100.0" x2="410.0" y2="140.0" stroke="rgb(255,0,0)" stroke-width="1.5"/>
<line x1="410.0" y1="140.0" x2="400.0" y2="180.0" stroke="rgb(255,0,0)" stroke-width="1.5"/>
<polygon points=" 393,168 407,168 407,192 393,192" fill="rgb(255,255,170)"/>
<text x="395.0" y="185.0" font-family="courier" font-size="16" fill="rgb(0,0,0)">5</text>
<line x1="410.0" y1="140.0" x2="420.0" y2="180.0" stroke="rgb(255,0,0)" stroke-width="1.5"/>
<line x1="420.0" y1="180.0" x2="410.0" y2="220.0" stroke="rgb(255,0,0)" stroke-width="1.5"/>
<polygon points=" 403,208 417,208 417,232 403,232" fill="rgb(255,255,170)"/>
<text x="405.0" y="225.0" font-family="courier" font-size="16" fill="rgb(0,0,0)">6</text>
<line x1="420.0" y1="180.0" x2="430.0" y2="220.0" stroke="rgb(255,0,0)" stroke-width="1.5"/>
<line x1="430.0" y1="220.0" x2="417.5" y2="260.0" stroke="rgb(255,0,0)" stroke-width="1.5"/>
<polygon points=" 410,248 424,248 424,272 410,272" fill="rgb(255,255,170)"/>
<text x="412.5" y="265.0" font-family="courier" font-size="16" fill="rgb(0,0,0)">b</text>
<line x1="430.0" y1="220.0" x2="442.5" y2="260.0" stroke="rgb(255,0,0)" stroke-width="1.5"/>
<polygon points=" 430,248 454,248 454,272 430,272" fill="rgb(255,255,170)"/>
<text x="432.5" y="265.0" font-family="courier" font-size="16" fill="rgb(0,0,0)">22</text>
<polygon points=" 423,208 437,208 437,232 423,232" fill="rgb(255,255,170)"/>
<text x="425.0" y="225.0" font-family="courier" font-size="16" fill="rgb(0,0,0)">*</text>
<polygon points=" 413,168 427,168 427,192 413,192" fill="rgb(255,255,170)"/>
<text x="415.0" y="185.0" font-family="courier" font-size="16" fill="rgb(0,0,0)">*</text>
<polygon points=" 403,128 417,128 417,152 403,152" fill="rgb(255,255,170)"/>
<text x="405.0" y="145.0" font-family="courier" font-size="16" fill="rgb(0,0,0)">*</text>
<polygon points=" 336,88 350,88 350,112 336,112" fill="rgb(255,255,170)"/>
<text x="337.5" y="105.0" font-family="courier" font-size="16" fill="rgb(0,0,0)">+</text>
<polygon points=" 222,48 236,48 236,72 222,72" fill="rgb(255,255,170)"/>
<text x="223.75" y="65.0" font-family="courier" font-size="16" fill="rgb(0,0,0)">+</text>
<line x1="354.375" y1="20.0" x2="480.0" y2="60.0" stroke="rgb(255,0,0)" stroke-width="1.5"/>
<line x1="480.0" y1="60.0" x2="470.0" y2="100.0" stroke="rgb(255,0,0)" stroke-width="1.5"/>
<polygon points=" 463,88 477,88 477,112 463,112" fill="rgb(255,255,170)"/>
<text x="465.0" y="105.0" font-family="courier" font-size="16" fill="rgb(0,0,0)">5</text>
<line x1="480.0" y1="60.0" x2="490.0" y2="100.0" stroke="rgb(255,0,0)" stroke-width="1.5"/>
<line x1="490.0" y1="100.0" x2="460.0" y2="140.0" stroke="rgb(255,0,0)" stroke-width="1.5"/>
<line x1="460.0" y1="140.0" x2="445.0" y2="180.0" stroke="rgb(255,0,0)" stroke-width="1.5"/>
<polygon points=" 433,168 457,168 457,192 433,192" fill="rgb(170,255,170)"/>
<text x="435.0" y="185.0" font-family="courier" font-size="16" fill="rgb(0,0,0)">44</text>
<line x1="460.0" y1="140.0" x2="475.0" y2="180.0" stroke="rgb(255,0,0)" stroke-width="1.5"/>
<polygon points=" 463,168 487,168 487,192 463,192" fill="rgb(170,255,170)"/>
<text x="465.0" y="185.0" font-family="courier" font-size="16" fill="rgb(0,0,0)">gg</text>
<polygon points=" 453,128 467,128 467,152 453,152" fill="rgb(170,255,170)"/>
<text x="455.0" y="145.0" font-family="courier" font-size="16" fill="rgb(0,0,0)">*</text>
<line x1="490.0" y1="100.0" x2="520.0" y2="140.0" stroke="rgb(255,0,0)" stroke-width="1.5"/>
<line x1="520.0" y1="140.0" x2="505.0" y2="180.0" stroke="rgb(255,0,0)" stroke-width="1.5"/>
<polygon points=" 493,168 517,168 517,192 493,192" fill="rgb(170,255,170)"/>
<text x="495.0" y="185.0" font-family="courier" font-size="16" fill="rgb(0,0,0)">44</text>
<line x1="520.0" y1="140.0" x2="535.0" y2="180.0" stroke="rgb(255,0,0)" stroke-width="1.5"/>
<polygon points=" 523,168 547,168 547,192 523,192" fill="rgb(170,255,170)"/>
<text x="525.0" y="185.0" font-family="courier" font-size="16" fill="rgb(0,0,0)">hh</text>
<polygon points=" 513,128 527,128 527,152 513,152" fill="rgb(170,255,170)"/>
<text x="515.0" y="145.0" font-family="courier" font-size="16" fill="rgb(0,0,0)">*</text>
<polygon points=" 483,88 497,88 497,112 483,112" fill="rgb(170,255,170)"/>
<text x="485.0" y="105.0" font-family="courier" font-size="16" fill="rgb(0,0,0)">+</text>
<polygon points=" 473,48 487,48 487,72 473,72" fill="rgb(255,255,170)"/>
<text x="475.0" y="65.0" font-family="courier" font-size="16" fill="rgb(0,0,0)">*</text>
<polygon points=" 347,8 361,8 361,32 347,32" fill="rgb(255,255,170)"/>
<text x="349.375" y="25.0" font-family="courier" font-size="16" fill="rgb(0,0,0)">+</text></svg>