<svg xmlns="http://www.w3.org/2000/svg"
xmlns:xlink="http://www.w3.org/1999/xlink"
version="1.1" baseProfile="full"
width="655" height="200">
<line x1="336.25" y1="20.0" x2="72.5" y2="60.0" stroke="rgb(255,0,0)" stroke-width="1.5"/>
<line x1="72.5" y1="60.0" x2="25.0" y2="100.0" stroke="rgb(255,0,0)" stroke-width="1.5"/>
<polygon points=" 18,88 32,88 32,112 18,112" fill="rgb(255,255,170)"/>
<text x="20.0" y="105.0" font-family="courier" font-size="16" fill="rgb(0,0,0)">5</text>
<line x1="72.5" y1="60.0" x2="45.0" y2="100.0" stroke="rgb(255,0,0)" stroke-width="1.5"/>
<polygon points=" 38,88 52,88 52,112 38,112" fill="rgb(255,255,170)"/>
<text x="40.0" y="105.0" font-family="courier" font-size="16" fill="rgb(0,0,0)">6</text>
<line x1="72.5" y1="60.0" x2="70.0" y2="100.0" stroke="rgb(255,0,0)" stroke-width="1.5"/>
<polygon points=" 58,88 82,88 82,112 58,112" fill="rgb(255,255,170)"/>
<text x="60.0" y="105.0" font-family="courier" font-size="16" fill="rgb(0,0,0)">11</text>
<line x1="72.5" y1="60.0" x2="95.0" y2="100.0" stroke="rgb(255,0,0)" stroke-width="1.5"/>
<polygon points=" 88,88 102,88 102,112 88,112" fill="rgb(255,255,170)"/>
<text x="90.0" y="105.0" font-family="courier" font-size="16" fill="rgb(0,0,0)">x</text>
<line x1="72.5" y1="60.0" x2="120.0" y2="100.0" stroke="rgb(255,0,0)" stroke-width="1.5"/>
<polygon points=" 108,88 132,88 132,112 108,112" fill="rgb(255,255,170)"/>
<text x="110.0" y="105.0" font-family="courier" font-size="16" fill="rgb(0,0,0)">14</text>
<polygon points=" 66,48 80,48 80,72 66,72" fill="rgb(255,255,170)"/>
<text x="67.5" y="65.0" font-family="courier" font-size="16" fill="rgb(0,0,0)">*</text>
<line x1="336.25" y1="20.0" x2="192.5" y2="60.0" stroke="rgb(255,0,0)" stroke-width="1.5"/>
<line x1="192.5" y1="60.0" x2="145.0" y2="100.0" stroke="rgb(255,0,0)" stroke-width="1.5"/>
<polygon points=" 138,88 152,88 152,112 138,112" fill="rgb(255,255,170)"/>
<text x="140.0" y="105.0" font-family="courier" font-size="16" fill="rgb(0,0,0)">5</text>
<line x1="192.5" y1="60.0" x2="165.0" y2="100.0" stroke="rgb(255,0,0)" stroke-width="1.5"/>
<polygon points=" 158,88 172,88 172,112 158,112" fill="rgb(255,255,170)"/>
<text x="160.0" y="105.0" font-family="courier" font-size="16" fill="rgb(0,0,0)">6</text>
<line x1="192.5" y1="60.0" x2="190.0" y2="100.0" stroke="rgb(255,0,0)" stroke-width="1.5"/>
<polygon points=" 178,88 202,88 202,112 178,112" fill="rgb(255,255,170)"/>
<text x="180.0" y="105.0" font-family="courier" font-size="16" fill="rgb(0,0,0)">11</text>
<line x1="192.5" y1="60.0" x2="215.0" y2="100.0" stroke="rgb(255,0,0)" stroke-width="1.5"/>
<polygon points=" 208,88 222,88 222,112 208,112" fill="rgb(255,255,170)"/>
<text x="210.0" y="105.0" font-family="courier" font-size="16" fill="rgb(0,0,0)">y</text>
<line x1="192.5" y1="60.0" x2="240.0" y2="100.0" stroke="rgb(255,0,0)" stroke-width="1.5"/>
<polygon points=" 228,88 252,88 252,112 228,112" fill="rgb(255,255,170)"/>
<text x="230.0" y="105.0" font-family="courier" font-size="16" fill="rgb(0,0,0)">14</text>
<polygon points=" 186,48 200,48 200,72 186,72" fill="rgb(255,255,170)"/>
<text x="187.5" y="65.0" font-family="courier" font-size="16" fill="rgb(0,0,0)">*</text>
<line x1="336.25" y1="20.0" x2="275.0" y2="60.0" stroke="rgb(255,0,0)" stroke-width="1.5"/>
<line x1="275.0" y1="60.0" x2="265.0" y2="100.0" stroke="rgb(255,0,0)" stroke-width="1.5"/>
<polygon points=" 258,88 272,88 272,112 258,112" fill="rgb(255,170,170)"/>
<text x="260.0" y="105.0" font-family="courier" font-size="16" fill="rgb(0,0,0)">5</text>
<line x1="275.0" y1="60.0" x2="285.0" y2="100.0" stroke="rgb(255,0,0)" stroke-width="1.5"/>
<line x1="285.0" y1="100.0" x2="275.0" y2="140.0" stroke="rgb(255,0,0)" stroke-width="1.5"/>
<polygon points=" 268,128 282,128 282,152 268,152" fill="rgb(255,170,170)"/>
<text x="270.0" y="145.0" font-family="courier" font-size="16" fill="rgb(0,0,0)">6</text>
<line x1="285.0" y1="100.0" x2="295.0" y2="140.0" stroke="rgb(255,0,0)" stroke-width="1.5"/>
<line x1="295.0" y1="140.0" x2="270.0" y2="180.0" stroke="rgb(255,0,0)" stroke-width="1.5"/>
<polygon points=" 258,168 282,168 282,192 258,192" fill="rgb(255,170,170)"/>
<text x="260.0" y="185.0" font-family="courier" font-size="16" fill="rgb(0,0,0)">11</text>
<line x1="295.0" y1="140.0" x2="295.0" y2="180.0" stroke="rgb(255,0,0)" stroke-width="1.5"/>
<polygon points=" 288,168 302,168 302,192 288,192" fill="rgb(255,170,170)"/>
<text x="290.0" y="185.0" font-family="courier" font-size="16" fill="rgb(0,0,0)">z</text>
<line x1="295.0" y1="140.0" x2="320.0" y2="180.0" stroke="rgb(255,0,0)" stroke-width="1.5"/>
<polygon points=" 308,168 332,168 332,192 308,192" fill="rgb(255,170,170)"/>
<text x="310.0" y="185.0" font-family="courier" font-size="16" fill="rgb(0,0,0)">14</text>
<polygon points=" 288,128 302,128 302,152 288,152" fill="rgb(255,170,170)"/>
<text x="290.0" y="145.0" font-family="courier" font-size="16" fill="rgb(0,0,0)">*</text>
<polygon points=" 278,88 292,88 292,112 278,112" fill="rgb(255,170,170)"/>
<text x="280.0" y="105.0" font-family="courier" font-size="16" fill="rgb(0,0,0)">*</text>
<polygon points=" 268,48 282,48 282,72 268,72" fill="rgb(255,170,170)"/>
<text x="270.0" y="65.0" font-family="courier" font-size="16" fill="rgb(0,0,0)">*</text>
<line x1="336.25" y1="20.0" x2="355.0" y2="60.0" stroke="rgb(255,0,0)" stroke-width="1.5"/>
<line x1="355.0" y1="60.0" x2="345.0" y2="100.0" stroke="rgb(255,0,0)" stroke-width="1.5"/>
<polygon points=" 338,88 352,88 352,112 338,112" fill="rgb(255,255,170)"/>
<text x="340.0" y="105.0" font-family="courier" font-size="16" fill="rgb(0,0,0)">5</text>
<line x1="355.0" y1="60.0" x2="365.0" y2="100.0" stroke="rgb(255,0,0)" stroke-width="1.5"/>
<line x1="365.0" y1="100.0" x2="355.0" y2="140.0" stroke="rgb(255,0,0)" stroke-width="1.5"/>
<polygon points=" 348,128 362,128 362,152 348,152" fill="rgb(255,255,170)"/>
<text x="350.0" y="145.0" font-family="courier" font-size="16" fill="rgb(0,0,0)">6</text>
<line x1="365.0" y1="100.0" x2="375.0" y2="140.0" stroke="rgb(255,0,0)" stroke-width="1.5"/>
<line x1="375.0" y1="140.0" x2="362.5" y2="180.0" stroke="rgb(255,0,0)" stroke-width="1.5"/>
<polygon points=" 356,168 370,168 370,192 356,192" fill="rgb(255,255,170)"/>
<text x="357.5" y="185.0" font-family="courier" font-size="16" fill="rgb(0,0,0)">c</text>
<line x1="375.0" y1="140.0" x2="387.5" y2="180.0" stroke="rgb(255,0,0)" stroke-width="1.5"/>
<polygon points=" 376,168 400,168 400,192 376,192" fill="rgb(255,255,170)"/>
<text x="377.5" y="185.0" font-family="courier" font-size="16" fill="rgb(0,0,0)">22</text>
<polygon points=" 368,128 382,128 382,152 368,152" fill="rgb(255,255,170)"/>
<text x="370.0" y="145.0" font-family="courier" font-size="16" fill="rgb(0,0,0)">*</text>
<polygon points=" 358,88 372,88 372,112 358,112" fill="rgb(255,255,170)"/>
<text x="360.0" y="105.0" font-family="courier" font-size="16" fill="rgb(0,0,0)">*</text>
<polygon points=" 348,48 362,48 362,72 348,72" fill="rgb(255,255,170)"/>
<text x="350.0" y="65.0" font-family="courier" font-size="16" fill="rgb(0,0,0)">*</text>
<line x1="336.25" y1="20.0" x2="422.5" y2="60.0" stroke="rgb(255,0,0)" stroke-width="1.5"/>
<line x1="422.5" y1="60.0" x2="412.5" y2="100.0" stroke="rgb(255,0,0)" stroke-width="1.5"/>
<polygon points=" 406,88 420,88 420,112 406,112" fill="rgb(255,255,170)"/>
<text x="407.5" y="105.0" font-family="courier" font-size="16" fill="rgb(0,0,0)">5</text>
<line x1="422.5" y1="60.0" x2="432.5" y2="100.0" stroke="rgb(255,0,0)" stroke-width="1.5"/>
<line x1="432.5" y1="100.0" x2="422.5" y2="140.0" stroke="rgb(255,0,0)" stroke-width="1.5"/>
<polygon points=" 416,128 430,128 430,152 416,152" fill="rgb(255,255,170)"/>
<text x="417.5" y="145.0" font-family="courier" font-size="16" fill="rgb(0,0,0)">6</text>
<line x1="432.5" y1="100.0" x2="442.5" y2="140.0" stroke="rgb(255,0,0)" stroke-width="1.5"/>
<line x1="442.5" y1="140.0" x2="430.0" y2="180.0" stroke="rgb(255,0,0)" stroke-width="1.5"/>
<polygon points=" 423,168 437,168 437,192 423,192" fill="rgb(255,255,170)"/>
<text x="425.0" y="185.0" font-family="courier" font-size="16" fill="rgb(0,0,0)">g</text>
<line x1="442.5" y1="140.0" x2="455.0" y2="180.0" stroke="rgb(255,0,0)" stroke-width="1.5"/>
<polygon points=" 443,168 467,168 467,192 443,192" fill="rgb(255,255,170)"/>
<text x="445.0" y="185.0" font-family="courier" font-size="16" fill="rgb(0,0,0)">22</text>
<polygon points=" 436,128 450,128 450,152 436,152" fill="rgb(255,255,170)"/>
<text x="437.5" y="145.0" font-family="courier" font-size="16" fill="rgb(0,0,0)">*</text>
<polygon points=" 426,88 440,88 440,112 426,112" fill="rgb(255,255,170)"/>
<text x="427.5" y="105.0" font-family="courier" font-size="16" fill="rgb(0,0,0)">*</text>
<polygon points=" 416,48 430,48 430,72 416,72" fill="rgb(255,255,170)"/>
<text x="417.5" y="65.0" font-family="courier" font-size="16" fill="rgb(0,0,0)">*</text>
<line x1="336.25" y1="20.0" x2="490.0" y2="60.0" stroke="rgb(255,0,0)" stroke-width="1.5"/>
<line x1="490.0" y1="60.0" x2="480.0" y2="100.0" stroke="rgb(255,0,0)" stroke-width="1.5"/>
<polygon points=" 473,88 487,88 487,112 473,112" fill="rgb(255,255,170)"/>
<text x="475.0" y="105.0" font-family="courier" font-size="16" fill="rgb(0,0,0)">5</text>
<line x1="490.0" y1="60.0" x2="500.0" y2="100.0" stroke="rgb(255,0,0)" stroke-width="1.5"/>
<line x1="500.0" y1="100.0" x2="490.0" y2="140.0" stroke="rgb(255,0,0)" stroke-width="1.5"/>
<polygon points=" 483,128 497,128 497,152 483,152" fill="rgb(255,255,170)"/>
<text x="485.0" y="145.0" font-family="courier" font-size="16" fill="rgb(0,0,0)">6</text>
<line x1="500.0" y1="100.0" x2="510.0" y2="140.0" stroke="rgb(255,0,0)" stroke-width="1.5"/>
<line x1="510.0" y1="140.0" x2="497.5" y2="180.0" stroke="rgb(255,0,0)" stroke-width="1.5"/>
<polygon points=" 490,168 504,168 504,192 490,192" fill="rgb(255,255,170)"/>
<text x="492.5" y="185.0" font-family="courier" font-size="16" fill="rgb(0,0,0)">b</text>
<line x1="510.0" y1="140.0" x2="522.5" y2="180.0" stroke="rgb(255,0,0)" stroke-width="1.5"/>
<polygon points=" 510,168 534,168 534,192 510,192" fill="rgb(255,255,170)"/>
<text x="512.5" y="185.0" font-family="courier" font-size="16" fill="rgb(0,0,0)">22</text>
<polygon points=" 503,128 517,128 517,152 503,152" fill="rgb(255,255,170)"/>
<text x="505.0" y="145.0" font-family="courier" font-size="16" fill="rgb(0,0,0)">*</text>
<polygon points=" 493,88 507,88 507,112 493,112" fill="rgb(255,255,170)"/>
<text x="495.0" y="105.0" font-family="courier" font-size="16" fill="rgb(0,0,0)">*</text>
<polygon points=" 483,48 497,48 497,72 483,72" fill="rgb(255,255,170)"/>
<text x="485.0" y="65.0" font-family="courier" font-size="16" fill="rgb(0,0,0)">*</text>
<line x1="336.25" y1="20.0" x2="540.0" y2="60.0" stroke="rgb(255,0,0)" stroke-width="1.5"/>
<line x1="540.0" y1="60.0" x2="530.0" y2="100.0" stroke="rgb(255,0,0)" stroke-width="1.5"/>
<polygon points=" 523,88 537,88 537,112 523,112" fill="rgb(255,255,170)"/>
<text x="525.0" y="105.0" font-family="courier" font-size="16" fill="rgb(0,0,0)">5</text>
<line x1="540.0" y1="60.0" x2="550.0" y2="100.0" stroke="rgb(255,0,0)" stroke-width="1.5"/>
<line x1="550.0" y1="100.0" x2="535.0" y2="140.0" stroke="rgb(255,0,0)" stroke-width="1.5"/>
<polygon points=" 523,128 547,128 547,152 523,152" fill="rgb(255,255,170)"/>
<text x="525.0" y="145.0" font-family="courier" font-size="16" fill="rgb(0,0,0)">44</text>
<line x1="550.0" y1="100.0" x2="565.0" y2="140.0" stroke="rgb(255,0,0)" stroke-width="1.5"/>
<polygon points=" 553,128 577,128 577,152 553,152" fill="rgb(255,255,170)"/>
<text x="555.0" y="145.0" font-family="courier" font-size="16" fill="rgb(0,0,0)">gg</text>
<polygon points=" 543,88 557,88 557,112 543,112" fill="rgb(255,255,170)"/>
<text x="545.0" y="105.0" font-family="courier" font-size="16" fill="rgb(0,0,0)">*</text>
<polygon points=" 533,48 547,48 547,72 533,72" fill="rgb(255,255,170)"/>
<text x="535.0" y="65.0" font-family="courier" font-size="16" fill="rgb(0,0,0)">*</text>
<line x1="336.25" y1="20.0" x2="600.0" y2="60.0" stroke="rgb(255,0,0)" stroke-width="1.5"/>
<line x1="600.0" y1="60.0" x2="590.0" y2="100.0" stroke="rgb(255,0,0)" stroke-width="1.5"/>
<polygon points=" 583,88 597,88 597,112 583,112" fill="rgb(255,255,170)"/>
<text x="585.0" y="105.0" font-family="courier" font-size="16" fill="rgb(0,0,0)">5</text>
<line x1="600.0" y1="60.0" x2="610.0" y2="100.0" stroke="rgb(255,0,0)" stroke-width="1.5"/>
<line x1="610.0" y1="100.0" x2="595.0" y2="140.0" stroke="rgb(255,0,0)" stroke-width="1.5"/>
<polygon points=" 583,128 607,128 607,152 583,152" fill="rgb(255,255,170)"/>
<text x="585.0" y="145.0" font-family="courier" font-size="16" fill="rgb(0,0,0)">44</text>
<line x1="610.0" y1="100.0" x2="625.0" y2="140.0" stroke="rgb(255,0,0)" stroke-width="1.5"/>
<polygon points=" 613,128 637,128 637,152 613,152" fill="rgb(255,255,170)"/>
<text x="615.0" y="145.0" font-family="courier" font-size="16" fill="rgb(0,0,0)">hh</text>
<polygon points=" 603,88 617,88 617,112 603,112" fill="rgb(255,255,170)"/>
<text x="605.0" y="105.0" font-family="courier" font-size="16" fill="rgb(0,0,0)">*</text>
<polygon points=" 593,48 607,48 607,72 593,72" fill="rgb(255,255,170)"/>
<text x="595.0" y="65.0" font-family="courier" font-size="16" fill="rgb(0,0,0)">*</text>
<polygon points=" 329,8 343,8 343,32 329,32" fill="rgb(255,255,170)"/>
<text x="331.25" y="25.0" font-family="courier" font-size="16" fill="rgb(0,0,0)">+</text></svg>