<svg xmlns="http://www.w3.org/2000/svg"
xmlns:xlink="http://www.w3.org/1999/xlink"
version="1.1" baseProfile="full"
width="695" height="200">
<line x1="356.25" y1="20.0" x2="72.5" y2="60.0" stroke="rgb(255,0,0)" stroke-width="1.5"/>
<line x1="72.5" y1="60.0" x2="25.0" y2="100.0" stroke="rgb(255,0,0)" stroke-width="1.5"/>
<polygon points=" 18,88 32,88 32,112 18,112" fill="rgb(255,255,170)"/>
<text x="20.0" y="105.0" font-family="courier" font-size="16" fill="rgb(0,0,0)">5</text>
<line x1="72.5" y1="60.0" x2="45.0" y2="100.0" stroke="rgb(255,0,0)" stroke-width="1.5"/>
<polygon points=" 38,88 52,88 52,112 38,112" fill="rgb(255,255,170)"/>
<text x="40.0" y="105.0" font-family="courier" font-size="16" fill="rgb(0,0,0)">6</text>
<line x1="72.5" y1="60.0" x2="70.0" y2="100.0" stroke="rgb(255,0,0)" stroke-width="1.5"/>
<polygon points=" 58,88 82,88 82,112 58,112" fill="rgb(255,255,170)"/>
<text x="60.0" y="105.0" font-family="courier" font-size="16" fill="rgb(0,0,0)">11</text>
<line x1="72.5" y1="60.0" x2="95.0" y2="100.0" stroke="rgb(255,0,0)" stroke-width="1.5"/>
<polygon points=" 88,88 102,88 102,112 88,112" fill="rgb(255,255,170)"/>
<text x="90.0" y="105.0" font-family="courier" font-size="16" fill="rgb(0,0,0)">x</text>
<line x1="72.5" y1="60.0" x2="120.0" y2="100.0" stroke="rgb(255,0,0)" stroke-width="1.5"/>
<polygon points=" 108,88 132,88 132,112 108,112" fill="rgb(255,255,170)"/>
<text x="110.0" y="105.0" font-family="courier" font-size="16" fill="rgb(0,0,0)">14</text>
<polygon points=" 66,48 80,48 80,72 66,72" fill="rgb(255,255,170)"/>
<text x="67.5" y="65.0" font-family="courier" font-size="16" fill="rgb(0,0,0)">*</text>
<line x1="356.25" y1="20.0" x2="192.5" y2="60.0" stroke="rgb(255,0,0)" stroke-width="1.5"/>
<line x1="192.5" y1="60.0" x2="145.0" y2="100.0" stroke="rgb(255,0,0)" stroke-width="1.5"/>
<polygon points=" 138,88 152,88 152,112 138,112" fill="rgb(255,255,170)"/>
<text x="140.0" y="105.0" font-family="courier" font-size="16" fill="rgb(0,0,0)">5</text>
<line x1="192.5" y1="60.0" x2="165.0" y2="100.0" stroke="rgb(255,0,0)" stroke-width="1.5"/>
<polygon points=" 158,88 172,88 172,112 158,112" fill="rgb(255,255,170)"/>
<text x="160.0" y="105.0" font-family="courier" font-size="16" fill="rgb(0,0,0)">6</text>
<line x1="192.5" y1="60.0" x2="190.0" y2="100.0" stroke="rgb(255,0,0)" stroke-width="1.5"/>
<polygon points=" 178,88 202,88 202,112 178,112" fill="rgb(255,255,170)"/>
<text x="180.0" y="105.0" font-family="courier" font-size="16" fill="rgb(0,0,0)">11</text>
<line x1="192.5" y1="60.0" x2="215.0" y2="100.0" stroke="rgb(255,0,0)" stroke-width="1.5"/>
<polygon points=" 208,88 222,88 222,112 208,112" fill="rgb(255,255,170)"/>
<text x="210.0" y="105.0" font-family="courier" font-size="16" fill="rgb(0,0,0)">y</text>
<line x1="192.5" y1="60.0" x2="240.0" y2="100.0" stroke="rgb(255,0,0)" stroke-width="1.5"/>
<polygon points=" 228,88 252,88 252,112 228,112" fill="rgb(255,255,170)"/>
<text x="230.0" y="105.0" font-family="courier" font-size="16" fill="rgb(0,0,0)">14</text>
<polygon points=" 186,48 200,48 200,72 186,72" fill="rgb(255,255,170)"/>
<text x="187.5" y="65.0" font-family="courier" font-size="16" fill="rgb(0,0,0)">*</text>
<line x1="356.25" y1="20.0" x2="312.5" y2="60.0" stroke="rgb(255,0,0)" stroke-width="1.5"/>
<line x1="312.5" y1="60.0" x2="265.0" y2="100.0" stroke="rgb(255,0,0)" stroke-width="1.5"/>
<polygon points=" 258,88 272,88 272,112 258,112" fill="rgb(255,255,170)"/>
<text x="260.0" y="105.0" font-family="courier" font-size="16" fill="rgb(0,0,0)">5</text>
<line x1="312.5" y1="60.0" x2="285.0" y2="100.0" stroke="rgb(255,0,0)" stroke-width="1.5"/>
<polygon points=" 278,88 292,88 292,112 278,112" fill="rgb(255,255,170)"/>
<text x="280.0" y="105.0" font-family="courier" font-size="16" fill="rgb(0,0,0)">6</text>
<line x1="312.5" y1="60.0" x2="310.0" y2="100.0" stroke="rgb(255,0,0)" stroke-width="1.5"/>
<polygon points=" 298,88 322,88 322,112 298,112" fill="rgb(255,255,170)"/>
<text x="300.0" y="105.0" font-family="courier" font-size="16" fill="rgb(0,0,0)">11</text>
<line x1="312.5" y1="60.0" x2="335.0" y2="100.0" stroke="rgb(255,0,0)" stroke-width="1.5"/>
<polygon points=" 328,88 342,88 342,112 328,112" fill="rgb(255,255,170)"/>
<text x="330.0" y="105.0" font-family="courier" font-size="16" fill="rgb(0,0,0)">z</text>
<line x1="312.5" y1="60.0" x2="360.0" y2="100.0" stroke="rgb(255,0,0)" stroke-width="1.5"/>
<polygon points=" 348,88 372,88 372,112 348,112" fill="rgb(255,255,170)"/>
<text x="350.0" y="105.0" font-family="courier" font-size="16" fill="rgb(0,0,0)">14</text>
<polygon points=" 306,48 320,48 320,72 306,72" fill="rgb(255,255,170)"/>
<text x="307.5" y="65.0" font-family="courier" font-size="16" fill="rgb(0,0,0)">*</text>
<line x1="356.25" y1="20.0" x2="395.0" y2="60.0" stroke="rgb(255,0,0)" stroke-width="1.5"/>
<line x1="395.0" y1="60.0" x2="385.0" y2="100.0" stroke="rgb(255,0,0)" stroke-width="1.5"/>
<polygon points=" 378,88 392,88 392,112 378,112" fill="rgb(255,170,170)"/>
<text x="380.0" y="105.0" font-family="courier" font-size="16" fill="rgb(0,0,0)">5</text>
<line x1="395.0" y1="60.0" x2="405.0" y2="100.0" stroke="rgb(255,0,0)" stroke-width="1.5"/>
<line x1="405.0" y1="100.0" x2="395.0" y2="140.0" stroke="rgb(255,0,0)" stroke-width="1.5"/>
<polygon points=" 388,128 402,128 402,152 388,152" fill="rgb(255,170,170)"/>
<text x="390.0" y="145.0" font-family="courier" font-size="16" fill="rgb(0,0,0)">6</text>
<line x1="405.0" y1="100.0" x2="415.0" y2="140.0" stroke="rgb(255,0,0)" stroke-width="1.5"/>
<line x1="415.0" y1="140.0" x2="402.5" y2="180.0" stroke="rgb(255,0,0)" stroke-width="1.5"/>
<polygon points=" 396,168 410,168 410,192 396,192" fill="rgb(255,170,170)"/>
<text x="397.5" y="185.0" font-family="courier" font-size="16" fill="rgb(0,0,0)">c</text>
<line x1="415.0" y1="140.0" x2="427.5" y2="180.0" stroke="rgb(255,0,0)" stroke-width="1.5"/>
<polygon points=" 416,168 440,168 440,192 416,192" fill="rgb(255,170,170)"/>
<text x="417.5" y="185.0" font-family="courier" font-size="16" fill="rgb(0,0,0)">22</text>
<polygon points=" 408,128 422,128 422,152 408,152" fill="rgb(255,170,170)"/>
<text x="410.0" y="145.0" font-family="courier" font-size="16" fill="rgb(0,0,0)">*</text>
<polygon points=" 398,88 412,88 412,112 398,112" fill="rgb(255,170,170)"/>
<text x="400.0" y="105.0" font-family="courier" font-size="16" fill="rgb(0,0,0)">*</text>
<polygon points=" 388,48 402,48 402,72 388,72" fill="rgb(255,170,170)"/>
<text x="390.0" y="65.0" font-family="courier" font-size="16" fill="rgb(0,0,0)">*</text>
<line x1="356.25" y1="20.0" x2="462.5" y2="60.0" stroke="rgb(255,0,0)" stroke-width="1.5"/>
<line x1="462.5" y1="60.0" x2="452.5" y2="100.0" stroke="rgb(255,0,0)" stroke-width="1.5"/>
<polygon points=" 446,88 460,88 460,112 446,112" fill="rgb(255,255,170)"/>
<text x="447.5" y="105.0" font-family="courier" font-size="16" fill="rgb(0,0,0)">5</text>
<line x1="462.5" y1="60.0" x2="472.5" y2="100.0" stroke="rgb(255,0,0)" stroke-width="1.5"/>
<line x1="472.5" y1="100.0" x2="462.5" y2="140.0" stroke="rgb(255,0,0)" stroke-width="1.5"/>
<polygon points=" 456,128 470,128 470,152 456,152" fill="rgb(255,255,170)"/>
<text x="457.5" y="145.0" font-family="courier" font-size="16" fill="rgb(0,0,0)">6</text>
<line x1="472.5" y1="100.0" x2="482.5" y2="140.0" stroke="rgb(255,0,0)" stroke-width="1.5"/>
<line x1="482.5" y1="140.0" x2="470.0" y2="180.0" stroke="rgb(255,0,0)" stroke-width="1.5"/>
<polygon points=" 463,168 477,168 477,192 463,192" fill="rgb(255,255,170)"/>
<text x="465.0" y="185.0" font-family="courier" font-size="16" fill="rgb(0,0,0)">g</text>
<line x1="482.5" y1="140.0" x2="495.0" y2="180.0" stroke="rgb(255,0,0)" stroke-width="1.5"/>
<polygon points=" 483,168 507,168 507,192 483,192" fill="rgb(255,255,170)"/>
<text x="485.0" y="185.0" font-family="courier" font-size="16" fill="rgb(0,0,0)">22</text>
<polygon points=" 476,128 490,128 490,152 476,152" fill="rgb(255,255,170)"/>
<text x="477.5" y="145.0" font-family="courier" font-size="16" fill="rgb(0,0,0)">*</text>
<polygon points=" 466,88 480,88 480,112 466,112" fill="rgb(255,255,170)"/>
<text x="467.5" y="105.0" font-family="courier" font-size="16" fill="rgb(0,0,0)">*</text>
<polygon points=" 456,48 470,48 470,72 456,72" fill="rgb(255,255,170)"/>
<text x="457.5" y="65.0" font-family="courier" font-size="16" fill="rgb(0,0,0)">*</text>
<line x1="356.25" y1="20.0" x2="530.0" y2="60.0" stroke="rgb(255,0,0)" stroke-width="1.5"/>
<line x1="530.0" y1="60.0" x2="520.0" y2="100.0" stroke="rgb(255,0,0)" stroke-width="1.5"/>
<polygon points=" 513,88 527,88 527,112 513,112" fill="rgb(255,255,170)"/>
<text x="515.0" y="105.0" font-family="courier" font-size="16" fill="rgb(0,0,0)">5</text>
<line x1="530.0" y1="60.0" x2="540.0" y2="100.0" stroke="rgb(255,0,0)" stroke-width="1.5"/>
<line x1="540.0" y1="100.0" x2="530.0" y2="140.0" stroke="rgb(255,0,0)" stroke-width="1.5"/>
<polygon points=" 523,128 537,128 537,152 523,152" fill="rgb(255,255,170)"/>
<text x="525.0" y="145.0" font-family="courier" font-size="16" fill="rgb(0,0,0)">6</text>
<line x1="540.0" y1="100.0" x2="550.0" y2="140.0" stroke="rgb(255,0,0)" stroke-width="1.5"/>
<line x1="550.0" y1="140.0" x2="537.5" y2="180.0" stroke="rgb(255,0,0)" stroke-width="1.5"/>
<polygon points=" 530,168 544,168 544,192 530,192" fill="rgb(255,255,170)"/>
<text x="532.5" y="185.0" font-family="courier" font-size="16" fill="rgb(0,0,0)">b</text>
<line x1="550.0" y1="140.0" x2="562.5" y2="180.0" stroke="rgb(255,0,0)" stroke-width="1.5"/>
<polygon points=" 550,168 574,168 574,192 550,192" fill="rgb(255,255,170)"/>
<text x="552.5" y="185.0" font-family="courier" font-size="16" fill="rgb(0,0,0)">22</text>
<polygon points=" 543,128 557,128 557,152 543,152" fill="rgb(255,255,170)"/>
<text x="545.0" y="145.0" font-family="courier" font-size="16" fill="rgb(0,0,0)">*</text>
<polygon points=" 533,88 547,88 547,112 533,112" fill="rgb(255,255,170)"/>
<text x="535.0" y="105.0" font-family="courier" font-size="16" fill="rgb(0,0,0)">*</text>
<polygon points=" 523,48 537,48 537,72 523,72" fill="rgb(255,255,170)"/>
<text x="525.0" y="65.0" font-family="courier" font-size="16" fill="rgb(0,0,0)">*</text>
<line x1="356.25" y1="20.0" x2="580.0" y2="60.0" stroke="rgb(255,0,0)" stroke-width="1.5"/>
<line x1="580.0" y1="60.0" x2="570.0" y2="100.0" stroke="rgb(255,0,0)" stroke-width="1.5"/>
<polygon points=" 563,88 577,88 577,112 563,112" fill="rgb(255,255,170)"/>
<text x="565.0" y="105.0" font-family="courier" font-size="16" fill="rgb(0,0,0)">5</text>
<line x1="580.0" y1="60.0" x2="590.0" y2="100.0" stroke="rgb(255,0,0)" stroke-width="1.5"/>
<line x1="590.0" y1="100.0" x2="575.0" y2="140.0" stroke="rgb(255,0,0)" stroke-width="1.5"/>
<polygon points=" 563,128 587,128 587,152 563,152" fill="rgb(255,255,170)"/>
<text x="565.0" y="145.0" font-family="courier" font-size="16" fill="rgb(0,0,0)">44</text>
<line x1="590.0" y1="100.0" x2="605.0" y2="140.0" stroke="rgb(255,0,0)" stroke-width="1.5"/>
<polygon points=" 593,128 617,128 617,152 593,152" fill="rgb(255,255,170)"/>
<text x="595.0" y="145.0" font-family="courier" font-size="16" fill="rgb(0,0,0)">gg</text>
<polygon points=" 583,88 597,88 597,112 583,112" fill="rgb(255,255,170)"/>
<text x="585.0" y="105.0" font-family="courier" font-size="16" fill="rgb(0,0,0)">*</text>
<polygon points=" 573,48 587,48 587,72 573,72" fill="rgb(255,255,170)"/>
<text x="575.0" y="65.0" font-family="courier" font-size="16" fill="rgb(0,0,0)">*</text>
<line x1="356.25" y1="20.0" x2="640.0" y2="60.0" stroke="rgb(255,0,0)" stroke-width="1.5"/>
<line x1="640.0" y1="60.0" x2="630.0" y2="100.0" stroke="rgb(255,0,0)" stroke-width="1.5"/>
<polygon points=" 623,88 637,88 637,112 623,112" fill="rgb(255,255,170)"/>
<text x="625.0" y="105.0" font-family="courier" font-size="16" fill="rgb(0,0,0)">5</text>
<line x1="640.0" y1="60.0" x2="650.0" y2="100.0" stroke="rgb(255,0,0)" stroke-width="1.5"/>
<line x1="650.0" y1="100.0" x2="635.0" y2="140.0" stroke="rgb(255,0,0)" stroke-width="1.5"/>
<polygon points=" 623,128 647,128 647,152 623,152" fill="rgb(255,255,170)"/>
<text x="625.0" y="145.0" font-family="courier" font-size="16" fill="rgb(0,0,0)">44</text>
<line x1="650.0" y1="100.0" x2="665.0" y2="140.0" stroke="rgb(255,0,0)" stroke-width="1.5"/>
<polygon points=" 653,128 677,128 677,152 653,152" fill="rgb(255,255,170)"/>
<text x="655.0" y="145.0" font-family="courier" font-size="16" fill="rgb(0,0,0)">hh</text>
<polygon points=" 643,88 657,88 657,112 643,112" fill="rgb(255,255,170)"/>
<text x="645.0" y="105.0" font-family="courier" font-size="16" fill="rgb(0,0,0)">*</text>
<polygon points=" 633,48 647,48 647,72 633,72" fill="rgb(255,255,170)"/>
<text x="635.0" y="65.0" font-family="courier" font-size="16" fill="rgb(0,0,0)">*</text>
<polygon points=" 349,8 363,8 363,32 349,32" fill="rgb(255,255,170)"/>
<text x="351.25" y="25.0" font-family="courier" font-size="16" fill="rgb(0,0,0)">+</text></svg>