<svg xmlns="http://www.w3.org/2000/svg"
xmlns:xlink="http://www.w3.org/1999/xlink"
version="1.1" baseProfile="full"
width="718" height="200">
<line x1="367.5" y1="20.0" x2="72.5" y2="60.0" stroke="rgb(255,0,0)" stroke-width="1.5"/>
<line x1="72.5" y1="60.0" x2="25.0" y2="100.0" stroke="rgb(255,0,0)" stroke-width="1.5"/>
<polygon points=" 18,88 32,88 32,112 18,112" fill="rgb(255,255,170)"/>
<text x="20.0" y="105.0" font-family="courier" font-size="16" fill="rgb(0,0,0)">5</text>
<line x1="72.5" y1="60.0" x2="45.0" y2="100.0" stroke="rgb(255,0,0)" stroke-width="1.5"/>
<polygon points=" 38,88 52,88 52,112 38,112" fill="rgb(255,255,170)"/>
<text x="40.0" y="105.0" font-family="courier" font-size="16" fill="rgb(0,0,0)">6</text>
<line x1="72.5" y1="60.0" x2="70.0" y2="100.0" stroke="rgb(255,0,0)" stroke-width="1.5"/>
<polygon points=" 58,88 82,88 82,112 58,112" fill="rgb(255,255,170)"/>
<text x="60.0" y="105.0" font-family="courier" font-size="16" fill="rgb(0,0,0)">11</text>
<line x1="72.5" y1="60.0" x2="95.0" y2="100.0" stroke="rgb(255,0,0)" stroke-width="1.5"/>
<polygon points=" 88,88 102,88 102,112 88,112" fill="rgb(255,255,170)"/>
<text x="90.0" y="105.0" font-family="courier" font-size="16" fill="rgb(0,0,0)">x</text>
<line x1="72.5" y1="60.0" x2="120.0" y2="100.0" stroke="rgb(255,0,0)" stroke-width="1.5"/>
<polygon points=" 108,88 132,88 132,112 108,112" fill="rgb(255,255,170)"/>
<text x="110.0" y="105.0" font-family="courier" font-size="16" fill="rgb(0,0,0)">14</text>
<polygon points=" 66,48 80,48 80,72 66,72" fill="rgb(255,255,170)"/>
<text x="67.5" y="65.0" font-family="courier" font-size="16" fill="rgb(0,0,0)">*</text>
<line x1="367.5" y1="20.0" x2="192.5" y2="60.0" stroke="rgb(255,0,0)" stroke-width="1.5"/>
<line x1="192.5" y1="60.0" x2="145.0" y2="100.0" stroke="rgb(255,0,0)" stroke-width="1.5"/>
<polygon points=" 138,88 152,88 152,112 138,112" fill="rgb(255,255,170)"/>
<text x="140.0" y="105.0" font-family="courier" font-size="16" fill="rgb(0,0,0)">5</text>
<line x1="192.5" y1="60.0" x2="165.0" y2="100.0" stroke="rgb(255,0,0)" stroke-width="1.5"/>
<polygon points=" 158,88 172,88 172,112 158,112" fill="rgb(255,255,170)"/>
<text x="160.0" y="105.0" font-family="courier" font-size="16" fill="rgb(0,0,0)">6</text>
<line x1="192.5" y1="60.0" x2="190.0" y2="100.0" stroke="rgb(255,0,0)" stroke-width="1.5"/>
<polygon points=" 178,88 202,88 202,112 178,112" fill="rgb(255,255,170)"/>
<text x="180.0" y="105.0" font-family="courier" font-size="16" fill="rgb(0,0,0)">11</text>
<line x1="192.5" y1="60.0" x2="215.0" y2="100.0" stroke="rgb(255,0,0)" stroke-width="1.5"/>
<polygon points=" 208,88 222,88 222,112 208,112" fill="rgb(255,255,170)"/>
<text x="210.0" y="105.0" font-family="courier" font-size="16" fill="rgb(0,0,0)">y</text>
<line x1="192.5" y1="60.0" x2="240.0" y2="100.0" stroke="rgb(255,0,0)" stroke-width="1.5"/>
<polygon points=" 228,88 252,88 252,112 228,112" fill="rgb(255,255,170)"/>
<text x="230.0" y="105.0" font-family="courier" font-size="16" fill="rgb(0,0,0)">14</text>
<polygon points=" 186,48 200,48 200,72 186,72" fill="rgb(255,255,170)"/>
<text x="187.5" y="65.0" font-family="courier" font-size="16" fill="rgb(0,0,0)">*</text>
<line x1="367.5" y1="20.0" x2="312.5" y2="60.0" stroke="rgb(255,0,0)" stroke-width="1.5"/>
<line x1="312.5" y1="60.0" x2="265.0" y2="100.0" stroke="rgb(255,0,0)" stroke-width="1.5"/>
<polygon points=" 258,88 272,88 272,112 258,112" fill="rgb(255,255,170)"/>
<text x="260.0" y="105.0" font-family="courier" font-size="16" fill="rgb(0,0,0)">5</text>
<line x1="312.5" y1="60.0" x2="285.0" y2="100.0" stroke="rgb(255,0,0)" stroke-width="1.5"/>
<polygon points=" 278,88 292,88 292,112 278,112" fill="rgb(255,255,170)"/>
<text x="280.0" y="105.0" font-family="courier" font-size="16" fill="rgb(0,0,0)">6</text>
<line x1="312.5" y1="60.0" x2="310.0" y2="100.0" stroke="rgb(255,0,0)" stroke-width="1.5"/>
<polygon points=" 298,88 322,88 322,112 298,112" fill="rgb(255,255,170)"/>
<text x="300.0" y="105.0" font-family="courier" font-size="16" fill="rgb(0,0,0)">11</text>
<line x1="312.5" y1="60.0" x2="335.0" y2="100.0" stroke="rgb(255,0,0)" stroke-width="1.5"/>
<polygon points=" 328,88 342,88 342,112 328,112" fill="rgb(255,255,170)"/>
<text x="330.0" y="105.0" font-family="courier" font-size="16" fill="rgb(0,0,0)">z</text>
<line x1="312.5" y1="60.0" x2="360.0" y2="100.0" stroke="rgb(255,0,0)" stroke-width="1.5"/>
<polygon points=" 348,88 372,88 372,112 348,112" fill="rgb(255,255,170)"/>
<text x="350.0" y="105.0" font-family="courier" font-size="16" fill="rgb(0,0,0)">14</text>
<polygon points=" 306,48 320,48 320,72 306,72" fill="rgb(255,255,170)"/>
<text x="307.5" y="65.0" font-family="courier" font-size="16" fill="rgb(0,0,0)">*</text>
<line x1="367.5" y1="20.0" x2="417.5" y2="60.0" stroke="rgb(255,0,0)" stroke-width="1.5"/>
<line x1="417.5" y1="60.0" x2="385.0" y2="100.0" stroke="rgb(255,0,0)" stroke-width="1.5"/>
<polygon points=" 378,88 392,88 392,112 378,112" fill="rgb(255,255,170)"/>
<text x="380.0" y="105.0" font-family="courier" font-size="16" fill="rgb(0,0,0)">5</text>
<line x1="417.5" y1="60.0" x2="405.0" y2="100.0" stroke="rgb(255,0,0)" stroke-width="1.5"/>
<polygon points=" 398,88 412,88 412,112 398,112" fill="rgb(255,255,170)"/>
<text x="400.0" y="105.0" font-family="courier" font-size="16" fill="rgb(0,0,0)">6</text>
<line x1="417.5" y1="60.0" x2="425.0" y2="100.0" stroke="rgb(255,0,0)" stroke-width="1.5"/>
<polygon points=" 418,88 432,88 432,112 418,112" fill="rgb(255,255,170)"/>
<text x="420.0" y="105.0" font-family="courier" font-size="16" fill="rgb(0,0,0)">c</text>
<line x1="417.5" y1="60.0" x2="450.0" y2="100.0" stroke="rgb(255,0,0)" stroke-width="1.5"/>
<polygon points=" 438,88 462,88 462,112 438,112" fill="rgb(255,255,170)"/>
<text x="440.0" y="105.0" font-family="courier" font-size="16" fill="rgb(0,0,0)">22</text>
<polygon points=" 410,48 424,48 424,72 410,72" fill="rgb(255,255,170)"/>
<text x="412.5" y="65.0" font-family="courier" font-size="16" fill="rgb(0,0,0)">*</text>
<line x1="367.5" y1="20.0" x2="485.0" y2="60.0" stroke="rgb(255,0,0)" stroke-width="1.5"/>
<line x1="485.0" y1="60.0" x2="475.0" y2="100.0" stroke="rgb(255,0,0)" stroke-width="1.5"/>
<polygon points=" 468,88 482,88 482,112 468,112" fill="rgb(255,170,170)"/>
<text x="470.0" y="105.0" font-family="courier" font-size="16" fill="rgb(0,0,0)">5</text>
<line x1="485.0" y1="60.0" x2="495.0" y2="100.0" stroke="rgb(255,0,0)" stroke-width="1.5"/>
<line x1="495.0" y1="100.0" x2="485.0" y2="140.0" stroke="rgb(255,0,0)" stroke-width="1.5"/>
<polygon points=" 478,128 492,128 492,152 478,152" fill="rgb(255,170,170)"/>
<text x="480.0" y="145.0" font-family="courier" font-size="16" fill="rgb(0,0,0)">6</text>
<line x1="495.0" y1="100.0" x2="505.0" y2="140.0" stroke="rgb(255,0,0)" stroke-width="1.5"/>
<line x1="505.0" y1="140.0" x2="492.5" y2="180.0" stroke="rgb(255,0,0)" stroke-width="1.5"/>
<polygon points=" 486,168 500,168 500,192 486,192" fill="rgb(255,170,170)"/>
<text x="487.5" y="185.0" font-family="courier" font-size="16" fill="rgb(0,0,0)">g</text>
<line x1="505.0" y1="140.0" x2="517.5" y2="180.0" stroke="rgb(255,0,0)" stroke-width="1.5"/>
<polygon points=" 506,168 530,168 530,192 506,192" fill="rgb(255,170,170)"/>
<text x="507.5" y="185.0" font-family="courier" font-size="16" fill="rgb(0,0,0)">22</text>
<polygon points=" 498,128 512,128 512,152 498,152" fill="rgb(255,170,170)"/>
<text x="500.0" y="145.0" font-family="courier" font-size="16" fill="rgb(0,0,0)">*</text>
<polygon points=" 488,88 502,88 502,112 488,112" fill="rgb(255,170,170)"/>
<text x="490.0" y="105.0" font-family="courier" font-size="16" fill="rgb(0,0,0)">*</text>
<polygon points=" 478,48 492,48 492,72 478,72" fill="rgb(255,170,170)"/>
<text x="480.0" y="65.0" font-family="courier" font-size="16" fill="rgb(0,0,0)">*</text>
<line x1="367.5" y1="20.0" x2="552.5" y2="60.0" stroke="rgb(255,0,0)" stroke-width="1.5"/>
<line x1="552.5" y1="60.0" x2="542.5" y2="100.0" stroke="rgb(255,0,0)" stroke-width="1.5"/>
<polygon points=" 536,88 550,88 550,112 536,112" fill="rgb(255,255,170)"/>
<text x="537.5" y="105.0" font-family="courier" font-size="16" fill="rgb(0,0,0)">5</text>
<line x1="552.5" y1="60.0" x2="562.5" y2="100.0" stroke="rgb(255,0,0)" stroke-width="1.5"/>
<line x1="562.5" y1="100.0" x2="552.5" y2="140.0" stroke="rgb(255,0,0)" stroke-width="1.5"/>
<polygon points=" 546,128 560,128 560,152 546,152" fill="rgb(255,255,170)"/>
<text x="547.5" y="145.0" font-family="courier" font-size="16" fill="rgb(0,0,0)">6</text>
<line x1="562.5" y1="100.0" x2="572.5" y2="140.0" stroke="rgb(255,0,0)" stroke-width="1.5"/>
<line x1="572.5" y1="140.0" x2="560.0" y2="180.0" stroke="rgb(255,0,0)" stroke-width="1.5"/>
<polygon points=" 553,168 567,168 567,192 553,192" fill="rgb(255,255,170)"/>
<text x="555.0" y="185.0" font-family="courier" font-size="16" fill="rgb(0,0,0)">b</text>
<line x1="572.5" y1="140.0" x2="585.0" y2="180.0" stroke="rgb(255,0,0)" stroke-width="1.5"/>
<polygon points=" 573,168 597,168 597,192 573,192" fill="rgb(255,255,170)"/>
<text x="575.0" y="185.0" font-family="courier" font-size="16" fill="rgb(0,0,0)">22</text>
<polygon points=" 566,128 580,128 580,152 566,152" fill="rgb(255,255,170)"/>
<text x="567.5" y="145.0" font-family="courier" font-size="16" fill="rgb(0,0,0)">*</text>
<polygon points=" 556,88 570,88 570,112 556,112" fill="rgb(255,255,170)"/>
<text x="557.5" y="105.0" font-family="courier" font-size="16" fill="rgb(0,0,0)">*</text>
<polygon points=" 546,48 560,48 560,72 546,72" fill="rgb(255,255,170)"/>
<text x="547.5" y="65.0" font-family="courier" font-size="16" fill="rgb(0,0,0)">*</text>
<line x1="367.5" y1="20.0" x2="602.5" y2="60.0" stroke="rgb(255,0,0)" stroke-width="1.5"/>
<line x1="602.5" y1="60.0" x2="592.5" y2="100.0" stroke="rgb(255,0,0)" stroke-width="1.5"/>
<polygon points=" 586,88 600,88 600,112 586,112" fill="rgb(255,255,170)"/>
<text x="587.5" y="105.0" font-family="courier" font-size="16" fill="rgb(0,0,0)">5</text>
<line x1="602.5" y1="60.0" x2="612.5" y2="100.0" stroke="rgb(255,0,0)" stroke-width="1.5"/>
<line x1="612.5" y1="100.0" x2="597.5" y2="140.0" stroke="rgb(255,0,0)" stroke-width="1.5"/>
<polygon points=" 586,128 610,128 610,152 586,152" fill="rgb(255,255,170)"/>
<text x="587.5" y="145.0" font-family="courier" font-size="16" fill="rgb(0,0,0)">44</text>
<line x1="612.5" y1="100.0" x2="627.5" y2="140.0" stroke="rgb(255,0,0)" stroke-width="1.5"/>
<polygon points=" 616,128 640,128 640,152 616,152" fill="rgb(255,255,170)"/>
<text x="617.5" y="145.0" font-family="courier" font-size="16" fill="rgb(0,0,0)">gg</text>
<polygon points=" 606,88 620,88 620,112 606,112" fill="rgb(255,255,170)"/>
<text x="607.5" y="105.0" font-family="courier" font-size="16" fill="rgb(0,0,0)">*</text>
<polygon points=" 596,48 610,48 610,72 596,72" fill="rgb(255,255,170)"/>
<text x="597.5" y="65.0" font-family="courier" font-size="16" fill="rgb(0,0,0)">*</text>
<line x1="367.5" y1="20.0" x2="662.5" y2="60.0" stroke="rgb(255,0,0)" stroke-width="1.5"/>
<line x1="662.5" y1="60.0" x2="652.5" y2="100.0" stroke="rgb(255,0,0)" stroke-width="1.5"/>
<polygon points=" 646,88 660,88 660,112 646,112" fill="rgb(255,255,170)"/>
<text x="647.5" y="105.0" font-family="courier" font-size="16" fill="rgb(0,0,0)">5</text>
<line x1="662.5" y1="60.0" x2="672.5" y2="100.0" stroke="rgb(255,0,0)" stroke-width="1.5"/>
<line x1="672.5" y1="100.0" x2="657.5" y2="140.0" stroke="rgb(255,0,0)" stroke-width="1.5"/>
<polygon points=" 646,128 670,128 670,152 646,152" fill="rgb(255,255,170)"/>
<text x="647.5" y="145.0" font-family="courier" font-size="16" fill="rgb(0,0,0)">44</text>
<line x1="672.5" y1="100.0" x2="687.5" y2="140.0" stroke="rgb(255,0,0)" stroke-width="1.5"/>
<polygon points=" 676,128 700,128 700,152 676,152" fill="rgb(255,255,170)"/>
<text x="677.5" y="145.0" font-family="courier" font-size="16" fill="rgb(0,0,0)">hh</text>
<polygon points=" 666,88 680,88 680,112 666,112" fill="rgb(255,255,170)"/>
<text x="667.5" y="105.0" font-family="courier" font-size="16" fill="rgb(0,0,0)">*</text>
<polygon points=" 656,48 670,48 670,72 656,72" fill="rgb(255,255,170)"/>
<text x="657.5" y="65.0" font-family="courier" font-size="16" fill="rgb(0,0,0)">*</text>
<polygon points=" 360,8 374,8 374,32 360,32" fill="rgb(255,255,170)"/>
<text x="362.5" y="25.0" font-family="courier" font-size="16" fill="rgb(0,0,0)">+</text></svg>