<svg xmlns="http://www.w3.org/2000/svg"
xmlns:xlink="http://www.w3.org/1999/xlink"
version="1.1" baseProfile="full"
width="800" height="160">
<line x1="408.75" y1="20.0" x2="72.5" y2="60.0" stroke="rgb(255,0,0)" stroke-width="1.5"/>
<line x1="72.5" y1="60.0" x2="25.0" y2="100.0" stroke="rgb(255,0,0)" stroke-width="1.5"/>
<polygon points=" 18,88 32,88 32,112 18,112" fill="rgb(255,255,170)"/>
<text x="20.0" y="105.0" font-family="courier" font-size="16" fill="rgb(0,0,0)">5</text>
<line x1="72.5" y1="60.0" x2="45.0" y2="100.0" stroke="rgb(255,0,0)" stroke-width="1.5"/>
<polygon points=" 38,88 52,88 52,112 38,112" fill="rgb(255,255,170)"/>
<text x="40.0" y="105.0" font-family="courier" font-size="16" fill="rgb(0,0,0)">6</text>
<line x1="72.5" y1="60.0" x2="70.0" y2="100.0" stroke="rgb(255,0,0)" stroke-width="1.5"/>
<polygon points=" 58,88 82,88 82,112 58,112" fill="rgb(255,255,170)"/>
<text x="60.0" y="105.0" font-family="courier" font-size="16" fill="rgb(0,0,0)">11</text>
<line x1="72.5" y1="60.0" x2="95.0" y2="100.0" stroke="rgb(255,0,0)" stroke-width="1.5"/>
<polygon points=" 88,88 102,88 102,112 88,112" fill="rgb(255,255,170)"/>
<text x="90.0" y="105.0" font-family="courier" font-size="16" fill="rgb(0,0,0)">x</text>
<line x1="72.5" y1="60.0" x2="120.0" y2="100.0" stroke="rgb(255,0,0)" stroke-width="1.5"/>
<polygon points=" 108,88 132,88 132,112 108,112" fill="rgb(255,255,170)"/>
<text x="110.0" y="105.0" font-family="courier" font-size="16" fill="rgb(0,0,0)">14</text>
<polygon points=" 66,48 80,48 80,72 66,72" fill="rgb(255,255,170)"/>
<text x="67.5" y="65.0" font-family="courier" font-size="16" fill="rgb(0,0,0)">*</text>
<line x1="408.75" y1="20.0" x2="192.5" y2="60.0" stroke="rgb(255,0,0)" stroke-width="1.5"/>
<line x1="192.5" y1="60.0" x2="145.0" y2="100.0" stroke="rgb(255,0,0)" stroke-width="1.5"/>
<polygon points=" 138,88 152,88 152,112 138,112" fill="rgb(255,255,170)"/>
<text x="140.0" y="105.0" font-family="courier" font-size="16" fill="rgb(0,0,0)">5</text>
<line x1="192.5" y1="60.0" x2="165.0" y2="100.0" stroke="rgb(255,0,0)" stroke-width="1.5"/>
<polygon points=" 158,88 172,88 172,112 158,112" fill="rgb(255,255,170)"/>
<text x="160.0" y="105.0" font-family="courier" font-size="16" fill="rgb(0,0,0)">6</text>
<line x1="192.5" y1="60.0" x2="190.0" y2="100.0" stroke="rgb(255,0,0)" stroke-width="1.5"/>
<polygon points=" 178,88 202,88 202,112 178,112" fill="rgb(255,255,170)"/>
<text x="180.0" y="105.0" font-family="courier" font-size="16" fill="rgb(0,0,0)">11</text>
<line x1="192.5" y1="60.0" x2="215.0" y2="100.0" stroke="rgb(255,0,0)" stroke-width="1.5"/>
<polygon points=" 208,88 222,88 222,112 208,112" fill="rgb(255,255,170)"/>
<text x="210.0" y="105.0" font-family="courier" font-size="16" fill="rgb(0,0,0)">y</text>
<line x1="192.5" y1="60.0" x2="240.0" y2="100.0" stroke="rgb(255,0,0)" stroke-width="1.5"/>
<polygon points=" 228,88 252,88 252,112 228,112" fill="rgb(255,255,170)"/>
<text x="230.0" y="105.0" font-family="courier" font-size="16" fill="rgb(0,0,0)">14</text>
<polygon points=" 186,48 200,48 200,72 186,72" fill="rgb(255,255,170)"/>
<text x="187.5" y="65.0" font-family="courier" font-size="16" fill="rgb(0,0,0)">*</text>
<line x1="408.75" y1="20.0" x2="312.5" y2="60.0" stroke="rgb(255,0,0)" stroke-width="1.5"/>
<line x1="312.5" y1="60.0" x2="265.0" y2="100.0" stroke="rgb(255,0,0)" stroke-width="1.5"/>
<polygon points=" 258,88 272,88 272,112 258,112" fill="rgb(255,255,170)"/>
<text x="260.0" y="105.0" font-family="courier" font-size="16" fill="rgb(0,0,0)">5</text>
<line x1="312.5" y1="60.0" x2="285.0" y2="100.0" stroke="rgb(255,0,0)" stroke-width="1.5"/>
<polygon points=" 278,88 292,88 292,112 278,112" fill="rgb(255,255,170)"/>
<text x="280.0" y="105.0" font-family="courier" font-size="16" fill="rgb(0,0,0)">6</text>
<line x1="312.5" y1="60.0" x2="310.0" y2="100.0" stroke="rgb(255,0,0)" stroke-width="1.5"/>
<polygon points=" 298,88 322,88 322,112 298,112" fill="rgb(255,255,170)"/>
<text x="300.0" y="105.0" font-family="courier" font-size="16" fill="rgb(0,0,0)">11</text>
<line x1="312.5" y1="60.0" x2="335.0" y2="100.0" stroke="rgb(255,0,0)" stroke-width="1.5"/>
<polygon points=" 328,88 342,88 342,112 328,112" fill="rgb(255,255,170)"/>
<text x="330.0" y="105.0" font-family="courier" font-size="16" fill="rgb(0,0,0)">z</text>
<line x1="312.5" y1="60.0" x2="360.0" y2="100.0" stroke="rgb(255,0,0)" stroke-width="1.5"/>
<polygon points=" 348,88 372,88 372,112 348,112" fill="rgb(255,255,170)"/>
<text x="350.0" y="105.0" font-family="courier" font-size="16" fill="rgb(0,0,0)">14</text>
<polygon points=" 306,48 320,48 320,72 306,72" fill="rgb(255,255,170)"/>
<text x="307.5" y="65.0" font-family="courier" font-size="16" fill="rgb(0,0,0)">*</text>
<line x1="408.75" y1="20.0" x2="417.5" y2="60.0" stroke="rgb(255,0,0)" stroke-width="1.5"/>
<line x1="417.5" y1="60.0" x2="385.0" y2="100.0" stroke="rgb(255,0,0)" stroke-width="1.5"/>
<polygon points=" 378,88 392,88 392,112 378,112" fill="rgb(255,255,170)"/>
<text x="380.0" y="105.0" font-family="courier" font-size="16" fill="rgb(0,0,0)">5</text>
<line x1="417.5" y1="60.0" x2="405.0" y2="100.0" stroke="rgb(255,0,0)" stroke-width="1.5"/>
<polygon points=" 398,88 412,88 412,112 398,112" fill="rgb(255,255,170)"/>
<text x="400.0" y="105.0" font-family="courier" font-size="16" fill="rgb(0,0,0)">6</text>
<line x1="417.5" y1="60.0" x2="425.0" y2="100.0" stroke="rgb(255,0,0)" stroke-width="1.5"/>
<polygon points=" 418,88 432,88 432,112 418,112" fill="rgb(255,255,170)"/>
<text x="420.0" y="105.0" font-family="courier" font-size="16" fill="rgb(0,0,0)">c</text>
<line x1="417.5" y1="60.0" x2="450.0" y2="100.0" stroke="rgb(255,0,0)" stroke-width="1.5"/>
<polygon points=" 438,88 462,88 462,112 438,112" fill="rgb(255,255,170)"/>
<text x="440.0" y="105.0" font-family="courier" font-size="16" fill="rgb(0,0,0)">22</text>
<polygon points=" 410,48 424,48 424,72 410,72" fill="rgb(255,255,170)"/>
<text x="412.5" y="65.0" font-family="courier" font-size="16" fill="rgb(0,0,0)">*</text>
<line x1="408.75" y1="20.0" x2="507.5" y2="60.0" stroke="rgb(255,0,0)" stroke-width="1.5"/>
<line x1="507.5" y1="60.0" x2="475.0" y2="100.0" stroke="rgb(255,0,0)" stroke-width="1.5"/>
<polygon points=" 468,88 482,88 482,112 468,112" fill="rgb(255,255,170)"/>
<text x="470.0" y="105.0" font-family="courier" font-size="16" fill="rgb(0,0,0)">5</text>
<line x1="507.5" y1="60.0" x2="495.0" y2="100.0" stroke="rgb(255,0,0)" stroke-width="1.5"/>
<polygon points=" 488,88 502,88 502,112 488,112" fill="rgb(255,255,170)"/>
<text x="490.0" y="105.0" font-family="courier" font-size="16" fill="rgb(0,0,0)">6</text>
<line x1="507.5" y1="60.0" x2="515.0" y2="100.0" stroke="rgb(255,0,0)" stroke-width="1.5"/>
<polygon points=" 508,88 522,88 522,112 508,112" fill="rgb(255,255,170)"/>
<text x="510.0" y="105.0" font-family="courier" font-size="16" fill="rgb(0,0,0)">g</text>
<line x1="507.5" y1="60.0" x2="540.0" y2="100.0" stroke="rgb(255,0,0)" stroke-width="1.5"/>
<polygon points=" 528,88 552,88 552,112 528,112" fill="rgb(255,255,170)"/>
<text x="530.0" y="105.0" font-family="courier" font-size="16" fill="rgb(0,0,0)">22</text>
<polygon points=" 500,48 514,48 514,72 500,72" fill="rgb(255,255,170)"/>
<text x="502.5" y="65.0" font-family="courier" font-size="16" fill="rgb(0,0,0)">*</text>
<line x1="408.75" y1="20.0" x2="597.5" y2="60.0" stroke="rgb(255,0,0)" stroke-width="1.5"/>
<line x1="597.5" y1="60.0" x2="565.0" y2="100.0" stroke="rgb(255,0,0)" stroke-width="1.5"/>
<polygon points=" 558,88 572,88 572,112 558,112" fill="rgb(255,255,170)"/>
<text x="560.0" y="105.0" font-family="courier" font-size="16" fill="rgb(0,0,0)">5</text>
<line x1="597.5" y1="60.0" x2="585.0" y2="100.0" stroke="rgb(255,0,0)" stroke-width="1.5"/>
<polygon points=" 578,88 592,88 592,112 578,112" fill="rgb(255,255,170)"/>
<text x="580.0" y="105.0" font-family="courier" font-size="16" fill="rgb(0,0,0)">6</text>
<line x1="597.5" y1="60.0" x2="605.0" y2="100.0" stroke="rgb(255,0,0)" stroke-width="1.5"/>
<polygon points=" 598,88 612,88 612,112 598,112" fill="rgb(255,255,170)"/>
<text x="600.0" y="105.0" font-family="courier" font-size="16" fill="rgb(0,0,0)">b</text>
<line x1="597.5" y1="60.0" x2="630.0" y2="100.0" stroke="rgb(255,0,0)" stroke-width="1.5"/>
<polygon points=" 618,88 642,88 642,112 618,112" fill="rgb(255,255,170)"/>
<text x="620.0" y="105.0" font-family="courier" font-size="16" fill="rgb(0,0,0)">22</text>
<polygon points=" 590,48 604,48 604,72 590,72" fill="rgb(255,255,170)"/>
<text x="592.5" y="65.0" font-family="courier" font-size="16" fill="rgb(0,0,0)">*</text>
<line x1="408.75" y1="20.0" x2="682.5" y2="60.0" stroke="rgb(255,0,0)" stroke-width="1.5"/>
<line x1="682.5" y1="60.0" x2="655.0" y2="100.0" stroke="rgb(255,0,0)" stroke-width="1.5"/>
<polygon points=" 648,88 662,88 662,112 648,112" fill="rgb(255,255,170)"/>
<text x="650.0" y="105.0" font-family="courier" font-size="16" fill="rgb(0,0,0)">5</text>
<line x1="682.5" y1="60.0" x2="680.0" y2="100.0" stroke="rgb(255,0,0)" stroke-width="1.5"/>
<polygon points=" 668,88 692,88 692,112 668,112" fill="rgb(255,255,170)"/>
<text x="670.0" y="105.0" font-family="courier" font-size="16" fill="rgb(0,0,0)">44</text>
<line x1="682.5" y1="60.0" x2="710.0" y2="100.0" stroke="rgb(255,0,0)" stroke-width="1.5"/>
<polygon points=" 698,88 722,88 722,112 698,112" fill="rgb(255,255,170)"/>
<text x="700.0" y="105.0" font-family="courier" font-size="16" fill="rgb(0,0,0)">gg</text>
<polygon points=" 676,48 690,48 690,72 676,72" fill="rgb(255,255,170)"/>
<text x="677.5" y="65.0" font-family="courier" font-size="16" fill="rgb(0,0,0)">*</text>
<line x1="408.75" y1="20.0" x2="745.0" y2="60.0" stroke="rgb(255,0,0)" stroke-width="1.5"/>
<line x1="745.0" y1="60.0" x2="735.0" y2="100.0" stroke="rgb(255,0,0)" stroke-width="1.5"/>
<polygon points=" 728,88 742,88 742,112 728,112" fill="rgb(255,170,170)"/>
<text x="730.0" y="105.0" font-family="courier" font-size="16" fill="rgb(0,0,0)">5</text>
<line x1="745.0" y1="60.0" x2="755.0" y2="100.0" stroke="rgb(255,0,0)" stroke-width="1.5"/>
<line x1="755.0" y1="100.0" x2="740.0" y2="140.0" stroke="rgb(255,0,0)" stroke-width="1.5"/>
<polygon points=" 728,128 752,128 752,152 728,152" fill="rgb(255,170,170)"/>
<text x="730.0" y="145.0" font-family="courier" font-size="16" fill="rgb(0,0,0)">44</text>
<line x1="755.0" y1="100.0" x2="770.0" y2="140.0" stroke="rgb(255,0,0)" stroke-width="1.5"/>
<polygon points=" 758,128 782,128 782,152 758,152" fill="rgb(255,170,170)"/>
<text x="760.0" y="145.0" font-family="courier" font-size="16" fill="rgb(0,0,0)">hh</text>
<polygon points=" 748,88 762,88 762,112 748,112" fill="rgb(255,170,170)"/>
<text x="750.0" y="105.0" font-family="courier" font-size="16" fill="rgb(0,0,0)">*</text>
<polygon points=" 738,48 752,48 752,72 738,72" fill="rgb(255,170,170)"/>
<text x="740.0" y="65.0" font-family="courier" font-size="16" fill="rgb(0,0,0)">*</text>
<polygon points=" 402,8 416,8 416,32 402,32" fill="rgb(255,255,170)"/>
<text x="403.75" y="25.0" font-family="courier" font-size="16" fill="rgb(0,0,0)">+</text></svg>